<?xml version="1.0" encoding="UTF-8"?>
<svg xmlns="http://www.w3.org/2000/svg" width="16px" height="16px" viewBox="0 0 16 16">
  <g fill="#2e3436">
    <path d="m 1.00020324071,0.998247882696 l 14.0030343871,0 l 0,14.0030139243 l -14.0030343871,0 z" fill="#2e3436" stroke-width="2.0004324" stroke-linecap="round" stroke-linejoin="round" fill-opacity="0"/>
    <path d="m 0.99676312827,0 a 1.00032,1.00032 0 0,0 -0.99676312827,0.996769769253 l 0,14.0064597054 a 1.00032,1.00032 0 0,0 0.99676312827,0.996769769253 l 14.0064744995,0 a 1.00032,1.00032 0 0,0 0.99676312827,-0.996769769253 l 0,-14.0064597054 a 1.00032,1.00032 0 0,0 -0.99676312827,-0.996769769253 z m 1.00417260122,2.00092292307 l 12.00553877,0 l 0,11.9981533978 l -12.00553877,0 z" fill="#2e3436" stroke-linecap="round" stroke-linejoin="round"/>
    <path d="m 5.650895027,9.69593198183 q 0.438746647958,0 0.746806826676,-0.102689190665 q 0.3175488405,-0.112022853297 0.448121899439,-0.233383149568 q 0.130799879539,-0.130693958904 0.261221724745,-0.233383149568 q 0.139872703554,-0.112022853297 0.261599759079,-0.112022853297 q 0.186748960961,0 0.326621664514,0.140031401877 q 0.139872703554,0.140031401877 0.139872703554,0.326734897259 q 0,0.40141894165 -0.644132701581,0.77483198096 q -0.634833056967,0.373414551446 -1.56835104117,0.373414551446 q -1.18559127807,0 -1.96974789694,-0.690813895901 q -0.77481917082,-0.700149448705 -0.77481917082,-1.76437676195 l 0,-0.616131363646 q 0,-1.12023911793 0.72813193058,-1.87640074935 q 0.728169734014,-0.756161253387 1.81104908355,-0.756161253387 q 0.653470149629,0 1.32561519535,0.317401234626 l 0.0933744804803,0.0373497718954 q 0.15877442025,-0.224049486936 0.392059407718,-0.224049486936 q 0.270672583093,0 0.364047063573,0.158698727143 q 0.102825338829,0.158702507484 0.102825338829,0.457431124367 l 0,0.784167155729 q 0,0.61613174168 -0.466796795535,0.61613174168 q -0.167847244264,0 -0.280123441441,-0.0933517476908 q -0.102825338829,-0.0933517476908 -0.130799879539,-0.168036170116 q -0.0189017166965,-0.0840180850582 -0.0464982230732,-0.233383149568 q -0.0559490814214,-0.280059023414 -0.345523381211,-0.448095949598 q -0.280123441441,-0.177369832749 -0.52278368039,-0.224045706594 q -0.242698042382,-0.0466758738454 -0.448084096006,-0.0466758738454 q -0.709494837918,0 -1.17625383002,0.485437026709 q -0.466758992102,0.476101473905 -0.466758992102,1.21359237775 l 0,0.597460636074 q 0,0.700149448705 0.494771336246,1.12023911793 q 0.504108784294,0.420089669223 1.34429009145,0.420089669223 z m 6.39471538244,-0.130693958904 q 0.616120357437,0 0.616120357437,0.466766299136 q 0,0.466766299136 -0.616120357437,0.466766299136 l -2.15645905446,0 q -0.61615816087,0 -0.61615816087,-0.466766299136 q 0,-0.270725360781 0.15877442025,-0.364077108472 q 0.15877442025,-0.102689190665 0.457459347487,-0.102689190665 l 0.606782909389,0 l 0,-3.57543015381 l -0.99888012054,0 l 0,0.868185618821 q 0,0.616131363646 -0.466758992102,0.616131363646 q -0.466796795535,0 -0.466796795535,-0.616131363646 l 0,-1.80171821709 l 4.81706469665,0 l 0,1.80171821709 q 0,0.29873012902 -0.102825338829,0.457430746333 q -0.0933744804804,0.158702507484 -0.364047063573,0.158702507484 q -0.466758992102,0 -0.466758992102,-0.616131363646 l 0,-0.868185618821 l -1.01755501664,0 l 0,3.57543015381 z" stroke-width="1.00021431"/>
  </g>
</svg>
