<?xml version="1.0" encoding="UTF-8" standalone="no"?>
<svg
   width="13.996078"
   height="15.996572"
   viewBox="0 0 3.7031288 4.2324263"
   version="1.1"
   id="svg4268"
   xmlns="http://www.w3.org/2000/svg"
   xmlns:svg="http://www.w3.org/2000/svg"
   xmlns:rdf="http://www.w3.org/1999/02/22-rdf-syntax-ns#"
   xmlns:cc="http://creativecommons.org/ns#"
   xmlns:dc="http://purl.org/dc/elements/1.1/">
  <defs
     id="defs4262" />
  <metadata
     id="metadata4265">
    <rdf:RDF>
      <cc:Work
         rdf:about="">
        <dc:format>image/svg+xml</dc:format>
        <dc:type
           rdf:resource="http://purl.org/dc/dcmitype/StillImage" />
      </cc:Work>
    </rdf:RDF>
  </metadata>
  <g
     id="activity-parameter-node"
     style="display:inline"
     transform="translate(-17.462889,-51.593748)">
    <path
       id="path2847-3"
       style="color:#000000;fill:#000000;stroke-linecap:round;-inkscape-stroke:none"
       d="m 19.314453,54.240234 a 0.2645835,0.2645835 0 0 0 -0.263672,0.263672 V 55.5625 a 0.2645835,0.2645835 0 0 0 0.263672,0.263672 0.2645835,0.2645835 0 0 0 0.265625,-0.263672 v -1.058594 a 0.2645835,0.2645835 0 0 0 -0.265625,-0.263672 z m 0,-2.646484 a 0.2645835,0.2645835 0 0 0 -0.263672,0.263672 v 1.058594 a 0.2645835,0.2645835 0 0 0 0.263672,0.265625 0.2645835,0.2645835 0 0 0 0.265625,-0.265625 V 51.857422 A 0.2645835,0.2645835 0 0 0 19.314453,51.59375 Z m -1.587891,1.058594 a 0.26460996,0.26460996 0 0 0 -0.263671,0.263672 v 1.58789 a 0.26460996,0.26460996 0 0 0 0.263671,0.265625 h 3.175782 a 0.26460996,0.26460996 0 0 0 0.263672,-0.265625 v -1.58789 a 0.26460996,0.26460996 0 0 0 -0.263672,-0.263672 z m 0.265625,0.529297 h 2.644532 v 1.058593 h -2.644532 z" />
  </g>
</svg>
