<?xml version="1.0" encoding="UTF-8"?>
<svg xmlns="http://www.w3.org/2000/svg" width="16px" height="16px" viewBox="0 0 16 16">
  <g fill="#2e3436">
    <path d="m 6.14145210199,9.77393247271 l -4.6083569687,3.11458919439 l 0,-10.3819642429 l 10.7528327334,7.26737504851 c -2.04815820119,0 -6.18521393063,-6.27822703692E-06 -6.14447576474,0 l 3.07223817266,5.19098172906" fill="#2e3436" stroke-width="2.52570403" stroke-linecap="round" fill-opacity="0"/>
    <path d="m 0,0 l 0,15.3966776849 l 5.57901483416,-3.77827862443 l 2.21119504893,3.73229532005 a 1.53612,1.0382 0 0,0 1.99574514393,0.574788950409 a 1.53612,1.0382 0 0,0 0.850459723523,-1.34883784009 L 8.40254048922,10.8136943729 c 0.00888288020424,0 0.0137597556105,0 0.0227006938553,0 c 1.28518904188,7.8477837917E-07 2.83133620326,0 3.85541675531,0 l 3.71934322277,0 z m 3.07299408835,5.01982274162 l 5.5109777776,3.71696820591 c -0.0537617455498,-3.92389189585E-07 -0.10583400212,0 -0.158753906081,0 c -0.490869121247,-3.92389189585E-07 -0.876297873889,-3.92389189585E-07 -1.24734100524,0 l -0.997872571963,0 c -0.0142822779754,0 -0.0272872790588,-3.92389189585E-07 -0.0340220117626,0 c 0,0 -3.65765655452E-05,0.229433883194 0,0.306554054566 a 1.53612,1.0382 0 0,0 -1.08858826032,0 l -1.98440582803,1.34117369443 z" fill="#2e3436" stroke-linecap="round" fill-opacity="1"/>
  </g>
</svg>
