<?xml version="1.0" encoding="UTF-8" standalone="no"?>
<svg
   width="16.218834"
   height="15.996552"
   viewBox="0 0 4.291233 4.232421"
   version="1.1"
   id="svg4268"
   xmlns="http://www.w3.org/2000/svg"
   xmlns:svg="http://www.w3.org/2000/svg"
   xmlns:rdf="http://www.w3.org/1999/02/22-rdf-syntax-ns#"
   xmlns:cc="http://creativecommons.org/ns#"
   xmlns:dc="http://purl.org/dc/elements/1.1/">
  <defs
     id="defs4262" />
  <metadata
     id="metadata4265">
    <rdf:RDF>
      <cc:Work
         rdf:about="">
        <dc:format>image/svg+xml</dc:format>
        <dc:type
           rdf:resource="http://purl.org/dc/dcmitype/StillImage" />
      </cc:Work>
    </rdf:RDF>
  </metadata>
  <g
     id="composite-association"
     style="display:inline"
     transform="translate(-85.687899,-4.7630553)">
    <g
       id="path4594-09-7">
      <path
         style="color:#000000;fill:#000000;fill-opacity:0;stroke-width:0.529167;stroke-linecap:round;stroke-linejoin:round;-inkscape-stroke:none"
         d="m 87.812262,8.2316194 -1.860268,0.499631 0.558569,-1.843429"
         id="path2494" />
      <path
         style="color:#000000;fill:#000000;stroke-linecap:round;stroke-linejoin:round;-inkscape-stroke:none"
         d="m 86.587891,6.6347656 a 0.2645835,0.2645835 0 0 0 -0.330079,0.1757813 l -0.558593,1.84375 a 0.26460996,0.26460996 0 0 0 0.322265,0.3320312 l 1.859375,-0.5 a 0.2645835,0.2645835 0 0 0 0.1875,-0.3242187 0.2645835,0.2645835 0 0 0 -0.324218,-0.1855469 L 86.34375,8.3535156 86.763672,6.9648437 A 0.2645835,0.2645835 0 0 0 86.587891,6.6347656 Z"
         id="path2496" />
    </g>
    <path
       style="color:#000000;fill:#000000;-inkscape-stroke:none"
       d="m 87.410156,6.9570312 -1.210937,1.2207032 0.375,0.3730469 1.21289,-1.2207032 z"
       id="path4598-3-9" />
    <g
       id="path1218-8-8-2">
      <path
         style="color:#000000;fill:#000000;stroke-width:0.529167;stroke-linejoin:round;-inkscape-stroke:none"
         d="m 87.59849,7.1437504 1.852083,-0.264584 0.264583,-1.8520831 -1.852083,0.2645834 z"
         id="path2480" />
      <path
         style="color:#000000;fill:#000000;stroke-linejoin:round;-inkscape-stroke:none"
         d="m 89.677734,4.765625 -1.851562,0.2636719 a 0.26460996,0.26460996 0 0 0 -0.22461,0.2246093 L 87.335937,7.1054687 A 0.26460996,0.26460996 0 0 0 87.636719,7.40625 l 1.851562,-0.265625 a 0.26460996,0.26460996 0 0 0 0.22461,-0.2246094 L 89.976562,5.0644531 A 0.26460996,0.26460996 0 0 0 89.677734,4.765625 Z m -0.27539,0.5742187 -0.185547,1.3046875 -1.304688,0.1855469 0.185547,-1.3046875 z"
         id="path2482" />
    </g>
  </g>
</svg>
