<?xml version="1.0" encoding="UTF-8"?>
<svg xmlns="http://www.w3.org/2000/svg" width="16px" height="16px" viewBox="0 0 16 16">
  <g fill="#2e3436">
    <path d="m 14.8596312574,7.9991099783 a 6.85907,6.85546 0 0,1 -6.85907172996,6.85545584436 a 6.85907,6.85546 0 0,1 -6.85907172996,-6.85545584436 a 6.85907,6.85546 0 0,1 6.85907172996,-6.85545584436 a 6.85907,6.85546 0 0,1 6.85907172996,6.85545584436 z" fill="#2e3436" stroke-width="2.28575596" stroke-linecap="round" stroke-linejoin="round" fill-opacity="0"/>
    <path d="m 7.99999783966,0 c -4.40597387342,0 -7.99999783966,3.59212931052 -7.99999783966,7.99578481232 c 0,4.40365118339 3.59402396624,8.00421432401 7.99999783966,8.00421432401 c 4.40597819409,0 8.00000216034,-3.60056314061 8.00000216034,-8.00421432401 c 0,-4.40365550179 -3.59402396624,-7.99578481232 -8.00000216034,-7.99578481232 z m 0,2.28571477925 c 3.1703385654,0 5.71308178903,2.54140276985 5.71308178903,5.71007003307 c 0,3.16866726322 -2.54274322363,5.71849954476 -5.71308178903,5.71849954476 c -3.1703385654,0 -5.71308178903,-2.54983228154 -5.71308178903,-5.71849954476 c 0,-3.16866726322 2.54274322363,-5.71007003307 5.71308178903,-5.71007003307 z" fill="#2e3436" stroke-linecap="round" stroke-linejoin="round"/>
    <path d="m 11.4300953924,7.9991099783 a 3.42954,3.42773 0 0,1 -3.42953586498,3.42772792218 a 3.42954,3.42773 0 0,1 -3.42953586498,-3.42772792218 a 3.42954,3.42773 0 0,1 3.42953586498,-3.42772792218 a 3.42954,3.42773 0 0,1 3.42953586498,3.42772792218 z" fill="#2e3436" stroke-width="2.28575596" stroke-linecap="round" stroke-linejoin="round"/>
  </g>
</svg>
