<?xml version="1.0" encoding="UTF-8" standalone="no"?>
<svg
   xmlns:dc="http://purl.org/dc/elements/1.1/"
   xmlns:cc="http://creativecommons.org/ns#"
   xmlns:rdf="http://www.w3.org/1999/02/22-rdf-syntax-ns#"
   xmlns:svg="http://www.w3.org/2000/svg"
   xmlns="http://www.w3.org/2000/svg"
   id="svg4268"
   version="1.1"
   viewBox="0 0 4.2333209 4.2333221"
   height="15.999957"
   width="15.999953">
  <defs
     id="defs4262" />
  <metadata
     id="metadata4265">
    <rdf:RDF>
      <cc:Work
         rdf:about="">
        <dc:format>image/svg+xml</dc:format>
        <dc:type
           rdf:resource="http://purl.org/dc/dcmitype/StillImage" />
        <dc:title />
      </cc:Work>
    </rdf:RDF>
  </metadata>
  <path
     id="path22"
     d="M 3.9824219 0 A 0.26460996 0.26460996 0 0 0 3.8964844 0.009765625 L 2.0449219 0.5390625 A 0.2645835 0.2645835 0 0 0 1.8613281 0.8671875 A 0.2645835 0.2645835 0 0 0 2.1894531 1.0488281 L 3.5839844 0.65039062 L 3.1855469 2.0449219 A 0.2645835 0.2645835 0 0 0 3.3671875 2.3710938 A 0.2645835 0.2645835 0 0 0 3.6933594 2.1894531 L 4.2226562 0.33789062 A 0.26460996 0.26460996 0 0 0 3.9824219 0 z "
     style="color:#000000;font-style:normal;font-variant:normal;font-weight:normal;font-stretch:normal;font-size:medium;line-height:normal;font-family:sans-serif;font-variant-ligatures:normal;font-variant-position:normal;font-variant-caps:normal;font-variant-numeric:normal;font-variant-alternates:normal;font-variant-east-asian:normal;font-feature-settings:normal;font-variation-settings:normal;text-indent:0;text-align:start;text-decoration:none;text-decoration-line:none;text-decoration-style:solid;text-decoration-color:#000000;letter-spacing:normal;word-spacing:normal;text-transform:none;writing-mode:lr-tb;direction:ltr;text-orientation:mixed;dominant-baseline:auto;baseline-shift:baseline;text-anchor:start;white-space:normal;shape-padding:0;shape-margin:0;inline-size:0;clip-rule:nonzero;display:inline;overflow:visible;visibility:visible;isolation:auto;mix-blend-mode:normal;color-interpolation:sRGB;color-interpolation-filters:linearRGB;solid-color:#000000;solid-opacity:1;vector-effect:none;fill:#000000;fill-opacity:1;fill-rule:nonzero;stroke:none;stroke-width:0.529167;stroke-linecap:round;stroke-linejoin:round;stroke-miterlimit:4;stroke-dasharray:none;stroke-dashoffset:0;stroke-opacity:1;color-rendering:auto;image-rendering:auto;shape-rendering:auto;text-rendering:auto;enable-background:accumulate;stop-color:#000000;stop-opacity:1;opacity:1" />
  <path
     id="path18"
     d="M 3.6953125 0.265625 A 0.2645835 0.2645835 0 0 0 3.5175781 0.34179688 L 3.4453125 0.4140625 A 0.2645835 0.2645835 0 0 0 3.4453125 0.7890625 A 0.2645835 0.2645835 0 0 0 3.8183594 0.7890625 L 3.890625 0.71679688 A 0.2645835 0.2645835 0 0 0 3.890625 0.34179688 A 0.2645835 0.2645835 0 0 0 3.6953125 0.265625 z M 2.875 1.0859375 A 0.2645835 0.2645835 0 0 0 2.6972656 1.1621094 L 2.3222656 1.5371094 A 0.2645835 0.2645835 0 0 0 2.3222656 1.9101562 A 0.2645835 0.2645835 0 0 0 2.6972656 1.9101562 L 3.0703125 1.5371094 A 0.2645835 0.2645835 0 0 0 3.0703125 1.1621094 A 0.2645835 0.2645835 0 0 0 2.875 1.0859375 z M 1.7519531 2.2070312 A 0.2645835 0.2645835 0 0 0 1.5742188 2.2851562 L 1.1992188 2.6582031 A 0.2645835 0.2645835 0 0 0 1.1992188 3.0332031 A 0.2645835 0.2645835 0 0 0 1.5742188 3.0332031 L 1.9492188 2.6582031 A 0.2645835 0.2645835 0 0 0 1.9492188 2.2851562 A 0.2645835 0.2645835 0 0 0 1.7519531 2.2070312 z M 0.63085938 3.3300781 A 0.2645835 0.2645835 0 0 0 0.45117188 3.4082031 L 0.078125 3.78125 A 0.2645835 0.2645835 0 0 0 0.078125 4.15625 A 0.2645835 0.2645835 0 0 0 0.45117188 4.15625 L 0.82617188 3.78125 A 0.2645835 0.2645835 0 0 0 0.82617188 3.4082031 A 0.2645835 0.2645835 0 0 0 0.63085938 3.3300781 z "
     style="color:#000000;font-style:normal;font-variant:normal;font-weight:normal;font-stretch:normal;font-size:medium;line-height:normal;font-family:sans-serif;font-variant-ligatures:normal;font-variant-position:normal;font-variant-caps:normal;font-variant-numeric:normal;font-variant-alternates:normal;font-variant-east-asian:normal;font-feature-settings:normal;font-variation-settings:normal;text-indent:0;text-align:start;text-decoration:none;text-decoration-line:none;text-decoration-style:solid;text-decoration-color:#000000;letter-spacing:normal;word-spacing:normal;text-transform:none;writing-mode:lr-tb;direction:ltr;text-orientation:mixed;dominant-baseline:auto;baseline-shift:baseline;text-anchor:start;white-space:normal;shape-padding:0;shape-margin:0;inline-size:0;clip-rule:nonzero;display:inline;overflow:visible;visibility:visible;isolation:auto;mix-blend-mode:normal;color-interpolation:sRGB;color-interpolation-filters:linearRGB;solid-color:#000000;solid-opacity:1;vector-effect:none;fill:#000000;fill-opacity:1;fill-rule:nonzero;stroke:none;stroke-width:0.529167;stroke-linecap:round;stroke-linejoin:miter;stroke-miterlimit:4;stroke-dasharray:0.529167, 1.05833000000000022;stroke-dashoffset:0;stroke-opacity:1;color-rendering:auto;image-rendering:auto;shape-rendering:auto;text-rendering:auto;enable-background:accumulate;stop-color:#000000;stop-opacity:1;opacity:1" />
  <g
     transform="translate(-59.53125,-19.187504)"
     style="font-style:normal;font-variant:normal;font-weight:bold;font-stretch:normal;font-size:2.82223px;line-height:1.25;font-family:FreeMono;-inkscape-font-specification:'FreeMono Bold';letter-spacing:0px;word-spacing:0px;fill:#000000;fill-opacity:1;stroke:none;stroke-width:0.264583"
     id="text576"
     aria-label="E">
    <path
       id="path969"
       style="font-style:normal;font-variant:normal;font-weight:bold;font-stretch:normal;font-size:2.82223px;font-family:FreeMono;-inkscape-font-specification:'FreeMono Bold';stroke-width:0.264583"
       d="m 63.478687,22.982322 q 0,-0.18909 0.141111,-0.18909 0.141112,0 0.141112,0.18909 v 0.428979 h -1.329271 q -0.186267,0 -0.186267,-0.141112 0,-0.141111 0.186267,-0.141111 h 0.04233 v -1.080914 h -0.04233 q -0.186267,0 -0.186267,-0.141112 0,-0.08185 0.04798,-0.110067 0.04798,-0.03104 0.138289,-0.03104 h 1.267182 v 0.423334 q 0,0.189089 -0.141112,0.189089 -0.141112,0 -0.141112,-0.189089 v -0.141111 h -0.660401 v 0.397934 h 0.239889 v -0.01976 q 0,-0.189089 0.138289,-0.189089 0.141112,0 0.141112,0.189089 v 0.318912 q 0,0.186268 -0.138289,0.186268 -0.141112,0 -0.141112,-0.186268 v -0.01975 h -0.239889 v 0.403579 h 0.722491 z" />
  </g>
</svg>
