<?xml version="1.0" encoding="UTF-8"?>
<svg xmlns="http://www.w3.org/2000/svg" width="16px" height="16px" viewBox="0 0 16 16">
  <g fill="#2e3436">
    <path d="m 7.92075564296,13.1123594746 l -6.93606895734,1.88877618744 l 2.08264244799,-6.96879256577" fill="#2e3436" stroke-width="1.98667697" stroke-linecap="round" stroke-linejoin="round" fill-opacity="0"/>
    <path d="m 3.35564906403,7.07570555954 a 0.986508,1.00022 0 0,0 -1.23071014788,0.66451347822 l -2.08273193276,6.97000605564 a 0.986607,1.00032 0 0,0 1.20157539803,1.25519157948 l 6.93273937817,-1.89017113373 a 0.986508,1.00022 0 0,0 0.699099769227,-1.22565765551 a 0.986508,1.00022 0 0,0 -1.20885722122,-0.701430788667 L 2.44536150799,13.5731688317 L 4.01105416555,8.32351375253 A 0.986508,1.00022 0 0,0 3.35564906403,7.07570555954 Z" fill="#2e3436" stroke-linecap="round" stroke-linejoin="round"/>
    <path d="m 6.42149051333,8.29397982857 l -4.51501747866,4.61467590299 l 1.39819953845,1.41024496382 l 4.52229930186,-4.61467590299 z" fill="#2e3436"/>
    <path d="m 7.12369987833,8.99984231247 l 6.90555092208,-1.00021807849 l 0.986506209288,-7.00150802578 l -6.90555092208,1.00021581029 z" fill="#2e3436" stroke-width="1.98667697" stroke-linejoin="round"/>
    <path d="m 14.8762278814,0.0097143455247 l -6.90360835685,0.996770028312 a 0.986607,1.00032 0 0,0 -0.837465595553,0.849100030455 L 6.14476258921,8.85512438389 A 0.986607,1.00032 0 0,0 7.26623793208,9.99218064555 l 6.90360835685,-1.00415341479 a 0.986607,1.00032 0 0,0 0.837465595553,-0.84910040849 L 15.9904176725,1.13938684266 A 0.986607,1.00032 0 0,0 14.8762278814,0.0097143455247 Z m -1.02680045572,2.17074322238 l -0.691817946031,4.93216530208 l -4.86457109181,0.701430788667 l 0.691817946031,-4.93216530208 z" fill="#2e3436" stroke-linejoin="round"/>
  </g>
</svg>
