<?xml version="1.0" encoding="UTF-8" standalone="no"?>
<svg
   xmlns:dc="http://purl.org/dc/elements/1.1/"
   xmlns:cc="http://creativecommons.org/ns#"
   xmlns:rdf="http://www.w3.org/1999/02/22-rdf-syntax-ns#"
   xmlns:svg="http://www.w3.org/2000/svg"
   xmlns="http://www.w3.org/2000/svg"
   width="15.391774"
   height="15.369814"
   viewBox="0 0 4.0724068 4.0665967"
   version="1.1"
   id="svg4268">
  <defs
     id="defs4262" />
  <metadata
     id="metadata4265">
    <rdf:RDF>
      <cc:Work
         rdf:about="">
        <dc:format>image/svg+xml</dc:format>
        <dc:type
           rdf:resource="http://purl.org/dc/dcmitype/StillImage" />
        <dc:title />
      </cc:Work>
    </rdf:RDF>
  </metadata>
  <path
     id="circle1398"
     style="color:#000000;font-style:normal;font-variant:normal;font-weight:normal;font-stretch:normal;font-size:medium;line-height:normal;font-family:sans-serif;font-variant-ligatures:normal;font-variant-position:normal;font-variant-caps:normal;font-variant-numeric:normal;font-variant-alternates:normal;font-variant-east-asian:normal;font-feature-settings:normal;font-variation-settings:normal;text-indent:0;text-align:start;text-decoration:none;text-decoration-line:none;text-decoration-style:solid;text-decoration-color:#000000;letter-spacing:normal;word-spacing:normal;text-transform:none;writing-mode:lr-tb;direction:ltr;text-orientation:mixed;dominant-baseline:auto;baseline-shift:baseline;text-anchor:start;white-space:normal;shape-padding:0;shape-margin:0;inline-size:0;clip-rule:nonzero;display:inline;overflow:visible;visibility:visible;isolation:auto;mix-blend-mode:normal;color-interpolation:sRGB;color-interpolation-filters:linearRGB;solid-color:#000000;solid-opacity:1;vector-effect:none;fill:#000000;fill-opacity:1;fill-rule:nonzero;stroke:none;stroke-width:0.163991;stroke-linecap:butt;stroke-linejoin:miter;stroke-miterlimit:10;stroke-dasharray:none;stroke-dashoffset:0;stroke-opacity:1;color-rendering:auto;image-rendering:auto;shape-rendering:auto;text-rendering:auto;enable-background:accumulate;stop-color:#000000"
     d="M 1.93526,0.002177 C 1.050421,0.030977 0.238683,0.712059 0.052192,1.576976 -0.13381,2.351992 0.188627,3.219138 0.839549,3.680729 1.497444,4.168213 2.455175,4.198627 3.138596,3.744469 3.805501,3.320179 4.18233,2.485362 4.043966,1.704826 3.914252,0.85606 3.191809,0.136005 2.338273,0.022402 2.204974,0.002602 2.069904,-0.003858 1.93526,0.002172 Z M 2.036148,0.510802 C 2.753339,0.496792 3.427792,1.062526 3.53734,1.77206 3.651363,2.402865 3.32449,3.085532 2.752772,3.38063 2.289876,3.629315 1.661737,3.615745 1.211058,3.31705 0.602976,2.940555 0.342789,2.106166 0.627425,1.45047 0.852673,0.893231 1.434093,0.502151 2.036148,0.510802 Z" />
</svg>
