<?xml version="1.0" encoding="UTF-8"?>
<svg xmlns="http://www.w3.org/2000/svg" width="16px" height="16px" viewBox="0 0 16 16">
  <g fill="#2e3436">
    <path d="m 14.40472885,7.56067507268E-06 a 1.60079,1.00021 0 0,1 1.59527236,0.996769158154 l 0,14.0064454282 a 1.60079,1.00021 0 0,1 -1.59527236,0.996769158154 a 1.60079,1.00021 0 0,1 -1.60708903992,-0.996769158154 l 0,-14.0064454282 a 1.60079,1.00021 0 0,1 1.60708903992,-0.996769158154 z" fill="#2e3436" stroke-linecap="round"/>
    <path d="M 12.7976398101,2.99769803434 L 12.7976398101,4.99861934985 L 3.20237289533,4.99861934985 l 0,6.00276394653 l 9.5952669148,0 l 0,2.00091753517 L 1.59528385541,13.0023008316 A 1.60095,1.00031 0 0,1 1.21004351232E-05,11.9981486742 l 0,-7.9962984825 a 1.60095,1.00031 0 0,1 1.59527175498,-1.00415215736 z" fill="#2e3436" stroke-linejoin="round"/>
  </g>
</svg>
