<?xml version="1.0" encoding="UTF-8" standalone="no"?>
<svg
   xmlns:dc="http://purl.org/dc/elements/1.1/"
   xmlns:cc="http://creativecommons.org/ns#"
   xmlns:rdf="http://www.w3.org/1999/02/22-rdf-syntax-ns#"
   xmlns:svg="http://www.w3.org/2000/svg"
   xmlns="http://www.w3.org/2000/svg"
   id="svg4268"
   version="1.1"
   viewBox="0 0 4.233333 3.1750001"
   height="12"
   width="15.999999">
  <defs
     id="defs4262" />
  <metadata
     id="metadata4265">
    <rdf:RDF>
      <cc:Work
         rdf:about="">
        <dc:format>image/svg+xml</dc:format>
        <dc:type
           rdf:resource="http://purl.org/dc/dcmitype/StillImage" />
        <dc:title />
      </cc:Work>
    </rdf:RDF>
  </metadata>
  <path
     id="path12"
     d="M 2.1171875 0 C 1.5546807 6.50819e-08 1.0393012 0.16110188 0.65234375 0.4375 C 0.26538625 0.71389812 2.9551527e-07 1.1224834 0 1.5878906 C -1.970103e-07 2.0532981 0.2653862 2.4618829 0.65234375 2.7382812 C 1.0393013 3.0146796 1.5546804 3.1757812 2.1171875 3.1757812 C 2.6796946 3.1757812 3.1931206 3.0146796 3.5800781 2.7382812 C 3.8782183 2.5253239 3.993755 2.1870859 4.0820312 1.8515625 L 4.2324219 1.8515625 L 4.2324219 1.5878906 L 4.2324219 1.3222656 L 4.0820312 1.3222656 C 3.9934419 0.9874481 3.8777212 0.65010212 3.5800781 0.4375 C 3.1931206 0.16110188 2.6796943 6.50819e-08 2.1171875 0 z M 2.1171875 0.52929688 C 2.5775576 0.52929693 2.9900728 0.66478424 3.2734375 0.8671875 C 3.5568022 1.0695908 3.705078 1.3226715 3.7050781 1.5878906 C 3.7050782 1.8531099 3.5568022 2.1061903 3.2734375 2.3085938 C 2.9900728 2.5109972 2.5775578 2.6464843 2.1171875 2.6464844 C 1.6568172 2.6464843 1.2443022 2.5109972 0.9609375 2.3085938 C 0.67757284 2.1061903 0.52929676 1.8531099 0.52929688 1.5878906 C 0.52929704 1.3226715 0.67757284 1.0695908 0.9609375 0.8671875 C 1.2443022 0.66478424 1.6568174 0.52929693 2.1171875 0.52929688 z "
     style="color:#000000;font-style:normal;font-variant:normal;font-weight:normal;font-stretch:normal;font-size:medium;line-height:normal;font-family:sans-serif;font-variant-ligatures:normal;font-variant-position:normal;font-variant-caps:normal;font-variant-numeric:normal;font-variant-alternates:normal;font-variant-east-asian:normal;font-feature-settings:normal;font-variation-settings:normal;text-indent:0;text-align:start;text-decoration:none;text-decoration-line:none;text-decoration-style:solid;text-decoration-color:#000000;letter-spacing:normal;word-spacing:normal;text-transform:none;writing-mode:lr-tb;direction:ltr;text-orientation:mixed;dominant-baseline:auto;baseline-shift:baseline;text-anchor:start;white-space:normal;shape-padding:0;shape-margin:0;inline-size:0;clip-rule:nonzero;display:inline;overflow:visible;visibility:visible;isolation:auto;mix-blend-mode:normal;color-interpolation:sRGB;color-interpolation-filters:linearRGB;solid-color:#000000;solid-opacity:1;vector-effect:none;fill:#000000;fill-opacity:1;fill-rule:nonzero;stroke:none;stroke-width:0.529167;stroke-linecap:square;stroke-linejoin:round;stroke-miterlimit:4;stroke-dasharray:none;stroke-dashoffset:0;stroke-opacity:1;color-rendering:auto;image-rendering:auto;shape-rendering:auto;text-rendering:auto;enable-background:accumulate;stop-color:#000000;stop-opacity:1;opacity:1" />
</svg>
