<?xml version="1.0" encoding="UTF-8" standalone="no"?>
<svg
   width="16.010891"
   height="15.96739"
   viewBox="0 0 4.2362148 4.2247054"
   version="1.1"
   id="svg4268"
   xmlns="http://www.w3.org/2000/svg"
   xmlns:svg="http://www.w3.org/2000/svg"
   xmlns:rdf="http://www.w3.org/1999/02/22-rdf-syntax-ns#"
   xmlns:cc="http://creativecommons.org/ns#"
   xmlns:dc="http://purl.org/dc/elements/1.1/">
  <defs
     id="defs4262" />
  <metadata
     id="metadata4265">
    <rdf:RDF>
      <cc:Work
         rdf:about="">
        <dc:format>image/svg+xml</dc:format>
        <dc:type
           rdf:resource="http://purl.org/dc/dcmitype/StillImage" />
      </cc:Work>
    </rdf:RDF>
  </metadata>
  <g
     id="derive-reqt"
     style="display:inline"
     transform="translate(-85.724827,9.7805867)">
    <path
       style="color:#000000;fill:#000000;stroke-width:0.529167;stroke-linecap:round;stroke-linejoin:round;-inkscape-stroke:none"
       d="m 89.681029,-9.7801425 a 0.26460979,0.26460979 0 0 0 -0.05859,0.00977 l -1.851563,0.5292968 a 0.26492937,0.26492937 0 1 0 0.144531,0.5097657 l 1.394531,-0.3984375 -0.398437,1.3945313 a 0.26492954,0.26492954 0 1 0 0.509766,0.1445312 l 0.529296,-1.8515625 a 0.26460979,0.26460979 0 0 0 -0.269531,-0.3378907 z"
       id="path4594-6-2-4" />
    <path
       style="font-weight:bold;font-size:2.82223px;line-height:1.25;font-family:FreeMono;-inkscape-font-specification:'FreeMono Bold';letter-spacing:0px;word-spacing:0px;stroke-width:0.264583"
       d="m 88.631113,-5.5575924 q -0.18909,0 -0.18909,-0.1411115 0,-0.067734 0.04516,-0.1044225 0.04516,-0.036689 0.127001,-0.036689 v -1.0809141 q -0.172157,0 -0.172157,-0.1411115 0,-0.084667 0.04798,-0.1128892 0.0508,-0.028222 0.141112,-0.028222 h 0.598313 q 0.307623,0 0.516468,0.2257784 0.211667,0.2257784 0.211667,0.5588015 v 0.1326448 q 0,0.330201 -0.206023,0.5305793 -0.2032,0.1975561 -0.54469,0.1975561 z m 1.044225,-0.8664246 q 0,-0.2116673 -0.129823,-0.3527788 -0.127,-0.1439337 -0.338667,-0.1439337 h -0.310445 v 1.0809141 h 0.313267 q 0.141112,0 0.237067,-0.042333 0.09878,-0.042333 0.143934,-0.1157114 0.04798,-0.073378 0.06491,-0.1439337 0.01976,-0.070556 0.01976,-0.1524004 z"
       id="text150-0"
       aria-label="D" />
    <g
       id="path4598-1-2-1">
      <path
         style="color:#000000;fill:#000000;fill-opacity:0;stroke-width:0.529167;stroke-linecap:round;stroke-dasharray:0.529167, 1.05833;-inkscape-stroke:none"
         d="m 85.989584,-5.8208333 3.439583,-3.4395839"
         id="path2542" />
      <path
         style="color:#000000;fill:#000000;stroke-linecap:round;stroke-dasharray:0.529167, 1.05833;-inkscape-stroke:none"
         d="M 89.242187,-9.4472656 89.169922,-9.375 a 0.2645835,0.2645835 0 0 0 0,0.3730469 0.2645835,0.2645835 0 0 0 0.375,0 l 0.07227,-0.072266 a 0.2645835,0.2645835 0 0 0 0,-0.3730468 0.2645835,0.2645835 0 0 0 -0.375,0 z m -0.820312,0.8203125 -0.375,0.3730468 a 0.2645835,0.2645835 0 0 0 0,0.3750001 0.2645835,0.2645835 0 0 0 0.375,0 l 0.375,-0.3750001 a 0.2645835,0.2645835 0 0 0 0,-0.3730468 0.2645835,0.2645835 0 0 0 -0.375,0 z m -1.123047,1.1230469 -0.373047,0.3730468 a 0.2645835,0.2645835 0 0 0 0,0.375 0.2645835,0.2645835 0 0 0 0.373047,0 l 0.375,-0.375 a 0.2645835,0.2645835 0 0 0 0,-0.3730468 0.2645835,0.2645835 0 0 0 -0.375,0 z m -1.123047,1.1210937 -0.373047,0.375 a 0.2645835,0.2645835 0 0 0 0,0.375 0.2645835,0.2645835 0 0 0 0.373047,0 l 0.375,-0.375 a 0.2645835,0.2645835 0 0 0 0,-0.375 0.2645835,0.2645835 0 0 0 -0.375,0 z"
         id="path2544" />
    </g>
  </g>
</svg>
