<?xml version="1.0" encoding="UTF-8" standalone="no"?>
<svg
   width="13.996063"
   height="14.003445"
   viewBox="0 0 3.703125 3.7050782"
   version="1.1"
   id="svg4268"
   xmlns="http://www.w3.org/2000/svg"
   xmlns:svg="http://www.w3.org/2000/svg"
   xmlns:rdf="http://www.w3.org/1999/02/22-rdf-syntax-ns#"
   xmlns:cc="http://creativecommons.org/ns#"
   xmlns:dc="http://purl.org/dc/elements/1.1/">
  <defs
     id="defs4262" />
  <metadata
     id="metadata4265">
    <rdf:RDF>
      <cc:Work
         rdf:about="">
        <dc:format>image/svg+xml</dc:format>
        <dc:type
           rdf:resource="http://purl.org/dc/dcmitype/StillImage" />
      </cc:Work>
    </rdf:RDF>
  </metadata>
  <g
     id="activity-final-node"
     style="display:inline"
     transform="translate(-17.462891,-34.003906)">
    <g
       id="path1192">
      <path
         style="color:#000000;fill:#000000;fill-opacity:0;stroke-width:0.529167;stroke-linecap:round;stroke-linejoin:round;-inkscape-stroke:none"
         d="m 20.902083,35.856239 a 1.5875,1.5875 0 0 1 -1.5875,1.5875 1.5875,1.5875 0 0 1 -1.5875,-1.5875 1.5875,1.5875 0 0 1 1.5875,-1.5875 1.5875,1.5875 0 0 1 1.5875,1.5875 z"
         id="path3842" />
      <path
         style="color:#000000;fill:#000000;stroke-linecap:round;stroke-linejoin:round;-inkscape-stroke:none"
         d="m 19.314453,34.003906 c -1.019742,0 -1.851562,0.83182 -1.851562,1.851563 0,1.019742 0.83182,1.853515 1.851562,1.853515 1.019743,0 1.851563,-0.833773 1.851563,-1.853515 0,-1.019743 -0.83182,-1.851563 -1.851563,-1.851563 z m 0,0.529297 c 0.73376,0 1.322266,0.588506 1.322266,1.322266 0,0.73376 -0.588506,1.324218 -1.322266,1.324218 -0.73376,0 -1.322266,-0.590458 -1.322266,-1.324218 0,-0.73376 0.588506,-1.322266 1.322266,-1.322266 z"
         id="path3844" />
    </g>
    <path
       style="color:#000000;fill:#000000;stroke-width:0.529167;stroke-linecap:round;stroke-linejoin:round;-inkscape-stroke:none"
       d="m 20.108333,35.856239 a 0.79374999,0.79374999 0 0 1 -0.79375,0.79375 0.79374999,0.79374999 0 0 1 -0.79375,-0.79375 0.79374999,0.79374999 0 0 1 0.79375,-0.79375 0.79374999,0.79374999 0 0 1 0.79375,0.79375 z"
       id="path1194" />
  </g>
</svg>
