<?xml version="1.0" encoding="UTF-8"?>
<svg xmlns="http://www.w3.org/2000/svg" width="16px" height="16px" viewBox="0 0 16 16">
  <g fill="#2e3436">
    <path d="m 9.9960491231,1.99544805456 l 4.9980188945,6.00495555411 l -4.9980188945,6.00495555411" fill="#2e3436" stroke-width="2.82903679" stroke-linecap="round" stroke-linejoin="round" fill-opacity="0"/>
    <path d="m 10.5076588736,0.28149869884 a 0.999605,2.00165 0 0,0 -1.36510872279,0.679696663689 a 0.999605,2.00165 0 0,0 0.339418388985,2.74833141435 l 3.56404042759,4.28503263882 l -3.56404042759,4.29980766647 a 0.999605,2.00165 0 0,0 -0.339418388985,2.73355563017 a 0.999605,2.00165 0 0,0 1.36510872279,0.694471691339 l 5.00294167011,-5.99904478652 a 0.999705,2.00185 0 0,0 0,-3.44280234916 z" fill="#2e3436" stroke-linecap="round" stroke-linejoin="round"/>
    <path d="m 0.996168792266,5.99980055982 a 0.999605,2.00165 0 0,0 -0.996161236202,1.99475658629 a 0.999605,2.00165 0 0,0 0.996161236202,2.00953237047 l 13.0017417672,0 A 0.999605,2.00165 0 0,0 14.9940717956,7.99455714611 A 0.999605,2.00165 0 0,0 13.9979105594,5.99980055982 Z" fill="#2e3436" stroke-linecap="round" stroke-linejoin="round"/>
    <path d="m 3.99842720531,8.0004043652 a 1.99921,4.0033 0 0,1 -1.99920982462,4.00330319839 a 1.99921,4.0033 0 0,1 -1.99920604659,-4.00330319839 a 1.99921,4.0033 0 0,1 1.99920604659,-4.00330319839 a 1.99921,4.0033 0 0,1 1.99920982462,4.00330319839 z" fill="#2e3436" stroke-width="2.82903679" stroke-linecap="round" stroke-linejoin="round"/>
  </g>
</svg>
