<?xml version="1.0" encoding="UTF-8" standalone="no"?>
<svg
   xmlns:dc="http://purl.org/dc/elements/1.1/"
   xmlns:cc="http://creativecommons.org/ns#"
   xmlns:rdf="http://www.w3.org/1999/02/22-rdf-syntax-ns#"
   xmlns:svg="http://www.w3.org/2000/svg"
   xmlns="http://www.w3.org/2000/svg"
   id="svg4268"
   version="1.1"
   viewBox="0 0 4.233333 4.2333332"
   height="15.999999"
   width="15.999999">
  <defs
     id="defs4262" />
  <metadata
     id="metadata4265">
    <rdf:RDF>
      <cc:Work
         rdf:about="">
        <dc:format>image/svg+xml</dc:format>
        <dc:type
           rdf:resource="http://purl.org/dc/dcmitype/StillImage" />
        <dc:title />
      </cc:Work>
    </rdf:RDF>
  </metadata>
  <path
     d="m 2e-6,0 h 4.233329 c 1e-6,0 2e-6,1e-6 2e-6,2e-6 v 4.23333 c 0,1e-6 -1e-6,1e-6 -2e-6,1e-6 H 2e-6 c -1e-6,0 -2e-6,0 -2e-6,-1e-6 V 2e-6 C 0,1e-6 10e-7,0 2e-6,0 Z"
     style="fill:none;fill-opacity:1;stroke:none;stroke-width:0.529167;stroke-linecap:round;stroke-linejoin:round;stroke-miterlimit:4;stroke-dasharray:none;stroke-dashoffset:0;stroke-opacity:1"
     id="rect1294" />
  <path
     id="path14"
     d="M 1.0585938 1.0585938 A 0.26460996 0.26460996 0 0 0 0.79296875 1.3222656 L 0.79296875 3.1757812 A 0.26460996 0.26460996 0 0 0 1.0585938 3.4394531 L 2.9101562 3.4394531 A 0.26460996 0.26460996 0 0 0 3.1757812 3.1757812 L 3.1757812 1.3222656 A 0.26460996 0.26460996 0 0 0 2.9101562 1.0585938 L 1.0585938 1.0585938 z M 1.3222656 1.5878906 L 2.6464844 1.5878906 L 2.6464844 2.9101562 L 1.3222656 2.9101562 L 1.3222656 1.5878906 z "
     style="color:#000000;font-style:normal;font-variant:normal;font-weight:normal;font-stretch:normal;font-size:medium;line-height:normal;font-family:sans-serif;font-variant-ligatures:normal;font-variant-position:normal;font-variant-caps:normal;font-variant-numeric:normal;font-variant-alternates:normal;font-variant-east-asian:normal;font-feature-settings:normal;font-variation-settings:normal;text-indent:0;text-align:start;text-decoration:none;text-decoration-line:none;text-decoration-style:solid;text-decoration-color:#000000;letter-spacing:normal;word-spacing:normal;text-transform:none;writing-mode:lr-tb;direction:ltr;text-orientation:mixed;dominant-baseline:auto;baseline-shift:baseline;text-anchor:start;white-space:normal;shape-padding:0;shape-margin:0;inline-size:0;clip-rule:nonzero;display:inline;overflow:visible;visibility:visible;isolation:auto;mix-blend-mode:normal;color-interpolation:sRGB;color-interpolation-filters:linearRGB;solid-color:#000000;solid-opacity:1;vector-effect:none;fill:#000000;fill-opacity:1;fill-rule:nonzero;stroke:none;stroke-width:0.529167;stroke-linecap:round;stroke-linejoin:round;stroke-miterlimit:4;stroke-dasharray:none;stroke-dashoffset:0;stroke-opacity:1;color-rendering:auto;image-rendering:auto;shape-rendering:auto;text-rendering:auto;enable-background:accumulate;stop-color:#000000;stop-opacity:1;opacity:1" />
</svg>
