<?xml version="1.0" encoding="UTF-8"?>
<svg xmlns="http://www.w3.org/2000/svg" width="16px" height="16px" viewBox="0 0 16 16">
  <g fill="#2e3436">
    <path d="m 7.84067744453,0.000429122855451 c -0.863978513666,0.0308667317095 -1.42225024383,0.631969982103 -1.21640686639,1.12720410697 c 0,0.895187918874 0,1.79039465893 0,2.68558634204 c 0.721936925502,0.0357602379562 1.53222693809,0.198977492459 2.19194740058,-0.0680950215396 c 0.562396008045,-0.217873955042 0.626313204207,-0.669262263938 0.574665582905,-1.0408638356 c -0.0176147361846,-0.876716814911 0.00196799121511,-1.75421282659 -0.00575212247128,-2.63126465846 c -0.513560670485,-0.0297374610372 -1.02708489669,-0.0779949611002 -1.54374940517,-0.0725744618731 z" fill="#2e3436" stroke-width="0.29322156"/>
    <path d="m 2.95699183735,11.4996380452 c -0.863960291525,0.0304903081521 -1.42224416978,0.631958689397 -1.21636434806,1.12721163544 c 0,1.09701493766 0,2.19403363956 0,3.29105986993 c 0.72190048122,0.0357602379562 1.53220871595,0.198977492459 2.19193525248,-0.0680950215396 c 0.562274527106,-0.217798670331 0.625991279719,-0.668949832386 0.574969285253,-1.04044600545 c -0.0163999267926,-1.07869816736 0.00196799121517,-2.15816800301 -0.0072888563522,-3.23717107345 c -0.513621410955,-0.0293610374798 -1.02711526692,-0.0779949611001 -1.54377977541,-0.0725744618731 z" fill="#2e3436" stroke-width="0.29322156"/>
    <path d="m 12.7236037958,11.4996380452 c -0.863972439619,0.0304903081521 -1.42225631787,0.631958689397 -1.21637042211,1.12721163544 c 0,1.09701493766 0,2.19403363956 0,3.29105986993 c 0.721924777408,0.0357602379562 1.53221478999,0.198977492459 2.19192917843,-0.0680950215396 c 0.562335267576,-0.217798670331 0.626015575906,-0.668949832386 0.574969285253,-1.04044600545 c -0.0163999267926,-1.07869816736 0.00185865836977,-2.15816800301 -0.00728885635226,-3.23717107345 c -0.513499930016,-0.0293610374798 -1.02707274859,-0.0779949611001 -1.54373725708,-0.0725744618731 z" fill="#2e3436" stroke-width="0.29322156"/>
    <path d="m 7.89376461496,2.35790210682 c -2.56211197042,0.883447268118 -4.77957036823,2.18882770176 -6.1445909416,3.80704998975 c -1.29592221515,1.49309156903 -1.84749427151,3.2099932926 -1.73490573705,4.89827176887 c 0,1.15927539406 0,2.31854702389 0,3.47780359677 c 0.785513975034,-0.408332982397 1.42089573135,-0.915428213557 2.22544576956,-1.30969424761 c 0.807295507434,-0.348944637741 1.76488723285,-0.542625850747 2.71433366129,-0.685493647735 c 1.71887025308,-0.234248379791 3.52775180806,-0.246519787763 5.25534439258,-0.0986229720475 c 1.23227227705,0.120568465446 2.51576091807,0.3431100726 3.57106583694,0.788084124078 c 0.625626836901,0.29880501989 1.12971806818,0.681304053541 1.69930574782,1.01719055807 c 0.10994024998,0.119476837129 0.435144724229,0.186141449151 0.514471777529,0.0176919071993 c -0.0321924488891,-1.562248105 0.0687582115895,-3.12788025778 -0.0696085781639,-4.68915342577 c -0.41977738542,-2.86807271844 -3.19088516365,-5.56253136373 -7.22298331296,-6.99780427434 c -0.235247838769,-0.0881960395066 -0.469949013311,-0.177069641417 -0.705512702522,-0.26485161501 c -0.0364442817612,0.0135512480676 -0.0683937687718,0.0278553432501 -0.102590653158,0.0396374005977 z m 0.367236879214,1.79074473283 c 1.77279564199,0.755519722124 3.21051040938,1.7748370733 4.16284808418,2.96625527493 c 0.506636256951,0.639317769945 0.863443997534,1.31788522422 1.06639005457,1.99978402698 c 0.244966313905,0.811960670326 0.199653923582,1.64110884028 0.194916166953,2.46295062899 c -2.08927778481,-0.569430972271 -4.41827998099,-0.706554545773 -6.67801981969,-0.643074477048 c -1.60266766068,0.0531510063095 -3.20789856919,0.243169618102 -4.68398309122,0.642167296274 c -0.0176147361846,-1.09973271575 -0.0467701615935,-2.21320112711 0.505664409437,-3.27248336737 c 0.839050624942,-1.73921234782 2.70801057841,-3.27910089351 5.17160758119,-4.26109584897 c 0.0866159096524,0.0342545437264 0.173535521653,0.070240635817 0.260333652714,0.105511523149 z" fill="#2e3436" stroke-width="1.70093209"/>
    <path d="m 7.75711070645,3.8644583465 c -1.9943768751,2.82866493622 -3.99056989024,5.65707766865 -5.9856392067,8.48564473474 c 0.675944241919,0.182490140644 1.35143293032,0.365620201335 2.02652073161,0.549194441824 c 1.39887731112,-1.98534065509 2.79964365085,-3.97016937413 4.19923769951,-5.95532558167 c 1.3996122708,1.98515620754 2.80037861053,3.96998492659 4.19924377356,5.95532558167 c 0.675385429599,-0.183807623095 1.351262857,-0.36663654494 2.02749257913,-0.549194441824 c -2.07549577225,-2.94233355785 -4.15153213469,-5.88453160323 -6.22673635269,-8.82694044579 c -0.080116679405,0.113717556701 -0.160172618341,0.227435113401 -0.239924854928,0.341378524236 z" fill="#2e3436" stroke-width="0.13711706"/>
  </g>
</svg>
