<?xml version="1.0" encoding="UTF-8" standalone="no"?>
<svg
   width="15.391774"
   height="15.369814"
   viewBox="0 0 4.0724068 4.0665967"
   version="1.1"
   id="svg4268"
   xmlns="http://www.w3.org/2000/svg"
   xmlns:svg="http://www.w3.org/2000/svg"
   xmlns:rdf="http://www.w3.org/1999/02/22-rdf-syntax-ns#"
   xmlns:cc="http://creativecommons.org/ns#"
   xmlns:dc="http://purl.org/dc/elements/1.1/">
  <defs
     id="defs4262" />
  <metadata
     id="metadata4265">
    <rdf:RDF>
      <cc:Work
         rdf:about="">
        <dc:format>image/svg+xml</dc:format>
        <dc:type
           rdf:resource="http://purl.org/dc/dcmitype/StillImage" />
      </cc:Work>
    </rdf:RDF>
  </metadata>
  <g
     id="basic-event"
     style="display:inline"
     transform="translate(-69.925671,-44.527258)">
    <path
       style="color:#000000;fill:#000000;stroke-width:0.163991;stroke-miterlimit:10;-inkscape-stroke:none"
       d="m 71.860931,44.529435 c -0.884839,0.0288 -1.696577,0.709882 -1.883068,1.574799 -0.186002,0.775016 0.136435,1.642162 0.787357,2.103753 0.657895,0.487484 1.615626,0.517898 2.299047,0.06374 0.666905,-0.42429 1.043734,-1.259107 0.90537,-2.039643 -0.129714,-0.848766 -0.852157,-1.568821 -1.705693,-1.682424 -0.133299,-0.0198 -0.268369,-0.02626 -0.403013,-0.02023 z m 0.100888,0.508625 c 0.717191,-0.01401 1.391644,0.551724 1.501192,1.261258 0.114023,0.630805 -0.21285,1.313472 -0.784568,1.60857 -0.462896,0.248685 -1.091035,0.235115 -1.541714,-0.06358 -0.608082,-0.376495 -0.868269,-1.210884 -0.583633,-1.86658 0.225248,-0.557239 0.806668,-0.948319 1.408723,-0.939668 z"
       id="circle1398" />
  </g>
</svg>
