<?xml version="1.0" encoding="UTF-8"?>
<svg xmlns="http://www.w3.org/2000/svg" width="16px" height="16px" viewBox="0 0 16 16">
  <g fill="#2e3436">
    <path d="m 7.9312793006,0.573946371866 c -2.50404425959,5.14204925086 -5.00808468382,10.2840394278 -7.51206374241,15.4260532343 c 5.19357384734,0 10.3872128957,0 15.580786743,0 c -2.59648393081,-5.3333857122 -5.19408394926,-10.6661925001 -7.78982382163,-15.9999996062 c -0.0931607175312,0.191675151773 -0.186321435062,0.38240512096 -0.278600021468,0.573946371866 z m 5.29118357403,13.662748171 c -3.3415472206,0 -6.68302540485,0 -10.0245112598,0 c 1.6707410098,-3.4311388089 3.34148585496,-6.86234456823 5.01222686476,-10.2935070067 c 1.67073717445,3.43116243846 3.34150503172,6.8623681978 5.01228439505,10.2935070067 z" fill="#2e3436" stroke-width="0.15820521"/>
    <path d="m 1.65413776788,6.94219280538 c 1.3663482413,0.0346566947935 2.73337534003,-0.00551356508078 4.1000265742,0.0129962605476 c 0,0.640995261509 0,1.28198658476 0,1.92297790801 c -1.8877299252,0 -3.77550587463,0 -5.66323579983,0 c -0.0955769897438,-0.633441677349 -0.293979785869,-1.56642746901 0.548186964048,-1.88808097931 c 0.323627062383,-0.119959423115 0.676751822524,-0.0508429465663 1.01502226159,-0.047377277087 z" fill="#2e3436" stroke-width="0.63150023"/>
  </g>
</svg>
