<?xml version="1.0" encoding="UTF-8"?>
<svg xmlns="http://www.w3.org/2000/svg" width="16px" height="16px" viewBox="0 0 16 16">
  <g fill="#2e3436">
    <path d="m 0.99676312827,0 a 1.00032,1.00032 0 0,0 -0.99676312827,0.996770147288 l 0,14.0064593274 a 1.00032,1.00032 0 0,0 0.99676312827,0.996770147288 l 14.0064744995,0 a 1.00032,1.00032 0 0,0 0.99676312827,-0.996770147288 l 0,-14.0064593274 a 1.00032,1.00032 0 0,0 -0.99676312827,-0.996770147288 z m 1.00413479778,2.0009233011 l 12.0055765735,0 l 0,12.0055360263 l -12.0055765735,0 z" fill="#2e3436" stroke-width="2.0004324" stroke-linecap="square" stroke-linejoin="round" fill-opacity="0"/>
    <path d="m 8.62016570284,11.3243979139 q 0.752137110785,0 1.28025107528,-0.176050493641 q 0.544142620257,-0.192041337276 0.768165766543,-0.400084859211 q 0.22417436002,-0.224060827959 0.448121899439,-0.400088639552 q 0.240051802045,-0.192041337276 0.448084096006,-0.192041337276 q 0.320195080838,0 0.560133472582,0.240051671595 q 0.240051802045,0.240051671595 0.240051802045,0.560121827168 q 0,0.688146865125 -1.10423828941,1.32828339593 q -1.08824743708,0.640140311147 -2.6885801829,0.640140311147 q -2.03246379293,0 -3.37675388439,-1.18425617332 q -1.32826143569,-1.20025835797 -1.32826143569,-3.02464728175 l 0,-1.05622735502 q 0,-1.92041337276 1.24826937063,-3.21668861903 q 1.24826937063,-1.29627902661 3.10464477082,-1.29627902661 q 1.12026694516,0 2.27251559498,0.544115862168 l 0.159908523252,0.0640011779544 q 0.272184720429,-0.384082674552 0.672145045725,-0.384082674552 q 0.464112751764,0 0.624134685316,0.272071162278 q 0.176163999611,0.272071162278 0.176163999611,0.784167533763 l 0,1.34428936093 q 0,1.05622735502 -0.800185274627,1.05622735502 q -0.288062162454,0 -0.48010360409,-0.160021846592 q -0.176163999611,-0.160021846592 -0.22417436002,-0.288062005914 q -0.0302427467144,-0.144031002957 -0.0801432787929,-0.400088639552 q -0.0960207208179,-0.480099562848 -0.592152980666,-0.768161568762 q -0.48010360409,-0.304052849549 -0.896168192012,-0.384082674552 q -0.416102391355,-0.0800298250026 -0.768165766543,-0.0800298250026 q -1.21628766598,0 -2.01643513718,0.832177868082 q -0.800185274627,0.816175683423 -0.800185274627,2.08044656037 l 0,1.02421920536 q 0,1.20025835797 0.848195635036,1.92041337276 q 0.864186487361,0.720155014785 2.30449729963,0.720155014785 z" stroke-width="1.00021431"/>
  </g>
</svg>
