<?xml version="1.0" encoding="UTF-8" standalone="no"?>
<svg
   width="16.218838"
   height="15.996552"
   viewBox="0 0 4.2912341 4.2324213"
   version="1.1"
   id="svg4268"
   xmlns="http://www.w3.org/2000/svg"
   xmlns:svg="http://www.w3.org/2000/svg"
   xmlns:rdf="http://www.w3.org/1999/02/22-rdf-syntax-ns#"
   xmlns:cc="http://creativecommons.org/ns#"
   xmlns:dc="http://purl.org/dc/elements/1.1/">
  <defs
     id="defs4262" />
  <metadata
     id="metadata4265">
    <rdf:RDF>
      <cc:Work
         rdf:about="">
        <dc:format>image/svg+xml</dc:format>
        <dc:type
           rdf:resource="http://purl.org/dc/dcmitype/StillImage" />
      </cc:Work>
    </rdf:RDF>
  </metadata>
  <g
     id="shared-association"
     style="display:inline"
     transform="translate(-77.728913,-4.7630553)">
    <g
       id="path4594-09">
      <path
         style="color:#000000;fill:#000000;fill-opacity:0;stroke-width:0.529167;stroke-linecap:round;stroke-linejoin:round;-inkscape-stroke:none"
         d="M 79.853356,8.2316196 77.993088,8.73125 78.551657,6.8878217"
         id="path2472" />
      <path
         style="color:#000000;fill:#000000;stroke-linecap:round;stroke-linejoin:round;-inkscape-stroke:none"
         d="m 78.628906,6.6347656 a 0.2645835,0.2645835 0 0 0 -0.330078,0.1757813 l -0.558594,1.84375 A 0.26460996,0.26460996 0 0 0 78.0625,8.9863281 l 1.859375,-0.5 a 0.2645835,0.2645835 0 0 0 0.1875,-0.3242187 0.2645835,0.2645835 0 0 0 -0.324219,-0.1855469 l -1.40039,0.3769531 0.419921,-1.3886719 A 0.2645835,0.2645835 0 0 0 78.628906,6.6347656 Z"
         id="path2474" />
    </g>
    <g
       id="path4598-3">
      <path
         style="color:#000000;fill:#000000;fill-opacity:0;stroke-width:0.529167;-inkscape-stroke:none"
         d="M 79.639584,7.14375 78.427471,8.3641742"
         id="path2464" />
      <path
         style="color:#000000;fill:#000000;-inkscape-stroke:none"
         d="m 79.451172,6.9570312 -1.210938,1.2207032 0.375,0.3730469 1.212891,-1.2207032 z"
         id="path2466" />
    </g>
    <g
       id="path1218-8-8">
      <path
         style="color:#000000;fill:#000000;fill-opacity:0;stroke-width:0.529167;stroke-linejoin:round;-inkscape-stroke:none"
         d="M 79.639584,7.14375 81.491667,6.8791667 81.75625,5.0270833 79.904167,5.2916667 Z"
         id="path2456" />
      <path
         style="color:#000000;fill:#000000;stroke-linejoin:round;-inkscape-stroke:none"
         d="M 81.71875,4.765625 79.867187,5.0292969 A 0.26460996,0.26460996 0 0 0 79.642578,5.2539062 L 79.376953,7.1054687 A 0.26460996,0.26460996 0 0 0 79.677734,7.40625 L 81.529297,7.140625 A 0.26460996,0.26460996 0 0 0 81.753906,6.9160156 L 82.017578,5.0644531 A 0.26460996,0.26460996 0 0 0 81.71875,4.765625 Z m -0.273438,0.5742187 -0.1875,1.3046875 -1.304687,0.1855469 0.185547,-1.3046875 z"
         id="path2458" />
    </g>
  </g>
</svg>
