<?xml version="1.0" encoding="UTF-8" standalone="no"?>
<svg
   width="12.002967"
   height="15.996571"
   viewBox="0 0 3.1757849 4.2324261"
   version="1.1"
   id="svg4268"
   xmlns="http://www.w3.org/2000/svg"
   xmlns:svg="http://www.w3.org/2000/svg"
   xmlns:rdf="http://www.w3.org/1999/02/22-rdf-syntax-ns#"
   xmlns:cc="http://creativecommons.org/ns#"
   xmlns:dc="http://purl.org/dc/elements/1.1/">
  <defs
     id="defs4262" />
  <metadata
     id="metadata4265">
    <rdf:RDF>
      <cc:Work
         rdf:about="">
        <dc:format>image/svg+xml</dc:format>
        <dc:type
           rdf:resource="http://purl.org/dc/dcmitype/StillImage" />
      </cc:Work>
    </rdf:RDF>
  </metadata>
  <g
     id="lifeline"
     style="display:inline"
     transform="translate(-36.248045,9.9160176)">
    <g
       id="rect1263">
      <path
         style="color:#000000;fill:#000000;fill-opacity:0;stroke-width:0.529167;stroke-linecap:round;stroke-linejoin:round;-inkscape-stroke:none"
         d="m 36.512501,-9.652092 h 2.645833 v 1.3229166 h -2.645833 z"
         id="path3828" />
      <path
         style="color:#000000;fill:#000000;stroke-linecap:round;stroke-linejoin:round;-inkscape-stroke:none"
         d="m 36.511719,-9.9160156 a 0.26460996,0.26460996 0 0 0 -0.263672,0.2636718 v 1.3222657 a 0.26460996,0.26460996 0 0 0 0.263672,0.265625 h 2.646484 a 0.26460996,0.26460996 0 0 0 0.265625,-0.265625 v -1.3222657 a 0.26460996,0.26460996 0 0 0 -0.265625,-0.2636718 z m 0.265625,0.5292968 h 2.117187 V -8.59375 h -2.117187 z"
         id="path3830" />
    </g>
    <path
       style="color:#000000;fill:#000000;stroke-linecap:round;-inkscape-stroke:none"
       d="m 37.835937,-8.59375 a 0.2645835,0.2645835 0 0 0 -0.265625,0.2636719 v 0.7949219 a 0.2645835,0.2645835 0 0 0 0.265625,0.2636718 0.2645835,0.2645835 0 0 0 0.263672,-0.2636718 V -8.3300781 A 0.2645835,0.2645835 0 0 0 37.835937,-8.59375 Z"
       id="path1265" />
    <path
       style="color:#000000;fill:#000000;stroke-linecap:round;-inkscape-stroke:none"
       d="m 37.835937,-7.0058594 a 0.2645835,0.2645835 0 0 0 -0.265625,0.2636719 v 0.7949219 a 0.2645835,0.2645835 0 0 0 0.265625,0.2636719 0.2645835,0.2645835 0 0 0 0.263672,-0.2636719 v -0.7949219 a 0.2645835,0.2645835 0 0 0 -0.263672,-0.2636719 z"
       id="path1267" />
  </g>
</svg>
