<?xml version="1.0" encoding="UTF-8"?>
<svg xmlns="http://www.w3.org/2000/svg" width="16px" height="16px" viewBox="0 0 16 16">
  <g fill="#2e3436">
    <path d="m 1.00221971266,8.00169018911 l 4.99876522565,0 l 0,7.00150352547 L 1.00221971266,15.0031937146 Z" fill="#2e3436" stroke-width="1.99996918" stroke-linecap="round" stroke-linejoin="round" fill-opacity="0"/>
    <path d="m 1.00369714373,6.99953960209 a 0.999854,1.00032 0 0,0 -1.00368958654,1.00415227598 L 7.55719217693E-06,15.0032239195 a 0.999854,1.00032 0 0,0 1.00368958654,0.996768784464 l 4.99630535959,0 A 0.999854,1.00032 0 0,0 7.00369208986,15.0032239195 l 0,-6.99953204141 a 0.999854,1.00032 0 0,0 -1.00368958654,-1.00415227598 z m 0.996306209776,2.00092117386 l 3.00368916144,0 l 0,5.00599432127 l -3.00368916144,0 z" fill="#2e3436" stroke-linecap="round" stroke-linejoin="round"/>
    <path d="m 3.00369294004,3.30041991522 a 0.699898,0.700221 0 0,0 -0.701103390206,0.701429615139 l 0,2.99769007173 l 0,0.701429993173 l 1.40221055901,0 l 0,-0.701429993173 l 0,-2.29626007856 l 5.29889155592,0 l 0.693727570637,0 l 0,-1.40285960831 l -0.693727570637,0 z" fill="#2e3436" stroke-linecap="square" stroke-linejoin="round"/>
    <path d="m 9.99999409594,1.00019048178 l 4.99876900424,0 l 0,7.00150084143 l -4.99876900424,0 z" fill="#2e3436" stroke-width="1.99996918" stroke-linecap="round" stroke-linejoin="round" fill-opacity="0"/>
    <path d="m 10.0000016531,7.56067596086E-06 a 0.999854,1.00032 0 0,0 -0.996309988372,0.996768897874 l 0,7.00691541952 a 0.999854,1.00032 0 0,0 0.996309988372,0.996768897874 l 4.99630913819,0 a 0.999854,1.00032 0 0,0 1.00368958654,-0.996768897874 L 16.0000003779,0.99677645855 A 0.999854,1.00032 0 0,0 14.9963107913,7.56067596086E-06 Z m 0.996309988372,2.00092117386 l 3.00368916144,0 l 0,4.99861086755 l -3.00368916144,0 z" fill="#2e3436" stroke-linecap="round" stroke-linejoin="round"/>
  </g>
</svg>
