<?xml version="1.0" encoding="UTF-8" standalone="no"?>
<svg
   xmlns:dc="http://purl.org/dc/elements/1.1/"
   xmlns:cc="http://creativecommons.org/ns#"
   xmlns:rdf="http://www.w3.org/1999/02/22-rdf-syntax-ns#"
   xmlns:svg="http://www.w3.org/2000/svg"
   xmlns="http://www.w3.org/2000/svg"
   id="svg4268"
   version="1.1"
   viewBox="0 0 4.2333337 4.2097104"
   height="15.910716"
   width="16.000002">
  <defs
     id="defs4262" />
  <metadata
     id="metadata4265">
    <rdf:RDF>
      <cc:Work
         rdf:about="">
        <dc:format>image/svg+xml</dc:format>
        <dc:type
           rdf:resource="http://purl.org/dc/dcmitype/StillImage" />
        <dc:title />
      </cc:Work>
    </rdf:RDF>
  </metadata>
  <path
     id="path12"
     d="M 2.1171875 0 C 0.95223022 -4.3749083e-07 -8.2896653e-14 0.94520513 0 2.1054688 C -8.2467029e-14 3.2657324 0.95223022 4.2089848 2.1171875 4.2089844 C 3.2093479 4.2089842 4.0454909 3.3508376 4.1542969 2.2910156 A 0.2645835 0.2645835 0 0 0 4.2324219 2.1054688 A 0.2645835 0.2645835 0 0 0 4.1523438 1.9140625 A 0.2645835 0.2645835 0 0 0 4.1503906 1.9121094 C 4.0374386 0.85655283 3.2062819 1.7528619e-07 2.1171875 0 z M 2.1171875 0.52929688 C 2.9979851 0.52929702 3.7050781 1.2330242 3.7050781 2.1054688 C 3.7050781 2.9779133 2.9979851 3.6796874 2.1171875 3.6796875 C 1.2363895 3.6796878 0.52929687 2.9779137 0.52929688 2.1054688 C 0.52929687 1.2330238 1.2363895 0.52929654 2.1171875 0.52929688 z "
     style="color:#000000;font-style:normal;font-variant:normal;font-weight:normal;font-stretch:normal;font-size:medium;line-height:normal;font-family:sans-serif;font-variant-ligatures:normal;font-variant-position:normal;font-variant-caps:normal;font-variant-numeric:normal;font-variant-alternates:normal;font-variant-east-asian:normal;font-feature-settings:normal;font-variation-settings:normal;text-indent:0;text-align:start;text-decoration:none;text-decoration-line:none;text-decoration-style:solid;text-decoration-color:#000000;letter-spacing:normal;word-spacing:normal;text-transform:none;writing-mode:lr-tb;direction:ltr;text-orientation:mixed;dominant-baseline:auto;baseline-shift:baseline;text-anchor:start;white-space:normal;shape-padding:0;shape-margin:0;inline-size:0;clip-rule:nonzero;display:inline;overflow:visible;visibility:visible;isolation:auto;mix-blend-mode:normal;color-interpolation:sRGB;color-interpolation-filters:linearRGB;solid-color:#000000;solid-opacity:1;vector-effect:none;fill:#000000;fill-opacity:1;fill-rule:nonzero;stroke:none;stroke-width:0.529167;stroke-linecap:round;stroke-linejoin:round;stroke-miterlimit:4;stroke-dasharray:none;stroke-dashoffset:0;stroke-opacity:1;color-rendering:auto;image-rendering:auto;shape-rendering:auto;text-rendering:auto;enable-background:accumulate;stop-color:#000000;stop-opacity:1;opacity:1" />
</svg>
