<?xml version="1.0" encoding="UTF-8"?>
<svg xmlns="http://www.w3.org/2000/svg" width="16px" height="16px" viewBox="0 0 16 16">
  <g fill="#2e3436">
    <path d="m 5.76096414946,2.19895180079 c -1.919212182,0.952877312158 -3.84138273406,1.90136535256 -5.76096414946,2.85370992989 c 0,1.96517385987 0,3.93035544053 0,5.8955331608 c 1.98422427777,0.985096188193 3.97030372824,1.96752484184 5.95618955632,2.95020828171 c 1.98570571422,-0.983613795622 3.97229398634,-1.96594979973 5.95758994154,-2.95020828171 c 0,-1.96517772027 0,-3.93035930093 0,-5.8955331608 c -1.98588582808,-0.984088624492 -3.97210486679,-1.96765995574 -5.95903085238,-2.9502121421 c -0.0647059022184,0.0320412977584 -0.129006548264,0.0643142193561 -0.193667422019,0.0965099330074 z m 4.13085271527,3.85298921784 c 0,1.2989889547 0,2.59797790941 0,3.89696686411 c -1.31187276757,0.649087205434 -2.62375003799,1.29817441087 -3.93562730841,1.9472654767 c -1.31187727042,-0.649091065832 -2.62379056361,-1.29817827127 -3.93566783403,-1.9472654767 c 0,-1.2989889547 0,-2.59797790941 0,-3.89696686411 c 1.31187727042,-0.649087205435 2.62379056361,-1.29817441087 3.93566783403,-1.94725775591 c 1.31187727042,0.649083345037 2.62375454084,1.29817055047 3.93562730841,1.94725775591 z" fill="#2e3436" stroke-width="0.16527094"/>
    <path d="m 5.81366996613,0.00126234992373 c -0.716997231875,0.0227763441897 -1.16725034813,0.713335798036 -0.957534781674,1.27072698592 c 0,0.802522557327 0,1.60504125426 0,2.40757153238 c 0.724129740512,0.0820720470295 1.79007054835,0.25057839006 2.15875009991,-0.46910390117 c 0.144856567458,-0.722994512132 -0.00369683686301,-1.48237326901 0.0418764711644,-2.21992919983 c -0.107572999582,-0.304971388303 0.261300174373,-0.980544779752 -0.291244102678,-0.939138158095 c -0.31677524155,-0.025864662046 -0.633618025795,-0.0582533955633 -0.952104348962,-0.0501079572174 z" fill="#2e3436" stroke-width="0.62464355"/>
    <path d="m 5.81366996613,12.243111127 c -0.716997231875,0.0227763441897 -1.16725034813,0.713335798036 -0.957534781674,1.27072698592 c 0,0.802931759443 0,1.60585965849 0,2.40879141793 c 0.724053192124,0.0817632152439 1.79129081971,0.250308162248 2.15875009991,-0.470319926326 c 0.14413611204,-0.743238435679 -0.00369683686301,-1.52330506179 0.0418764711644,-2.28125547166 c -0.0912726957528,-0.314120529952 0.25616692952,-0.969036935341 -0.34964601999,-0.882741613643 c -0.297187859876,-0.0250925825819 -0.594771970232,-0.0527330273952 -0.893450272253,-0.0452052526207 z" fill="#2e3436" stroke-width="0.62464355"/>
    <path d="m 14.3489593359,7.04634076436 c -1.36379959182,0.0339714964186 -2.72827461059,-0.00540455624838 -4.09237589311,0.012739311157 c 0,0.628322128249 0,1.2566403961 0,1.88495866395 c 1.88420705438,0 3.76845913723,0 5.65266619162,0 c 0.095370285942,-0.620917886188 0.293450497396,-1.53545759256 -0.547163375649,-1.8507516833 c -0.323034197992,-0.117587702376 -0.675489994113,-0.049837729405 -1.01312692286,-0.0464405797632 z" fill="#2e3436" stroke-width="0.62464355"/>
  </g>
</svg>
