<?xml version="1.0" encoding="UTF-8" standalone="no"?>
<svg
   width="15.996563"
   height="16.003937"
   viewBox="0 0 4.2324239 4.2343751"
   version="1.1"
   id="svg4268"
   xmlns="http://www.w3.org/2000/svg"
   xmlns:svg="http://www.w3.org/2000/svg"
   xmlns:rdf="http://www.w3.org/1999/02/22-rdf-syntax-ns#"
   xmlns:cc="http://creativecommons.org/ns#"
   xmlns:dc="http://purl.org/dc/elements/1.1/">
  <defs
     id="defs4262" />
  <metadata
     id="metadata4265">
    <rdf:RDF>
      <cc:Work
         rdf:about="">
        <dc:format>image/svg+xml</dc:format>
        <dc:type
           rdf:resource="http://purl.org/dc/dcmitype/StillImage" />
      </cc:Work>
    </rdf:RDF>
  </metadata>
  <g
     id="operational-situation"
     style="display:inline"
     transform="translate(-119.0625,-39.158203)">
    <g
       id="rect707">
      <path
         style="color:#000000;fill:#000000;fill-opacity:0;stroke-width:0.529167;stroke-linecap:round;stroke-linejoin:round;-inkscape-stroke:none"
         d="m 119.32708,39.422916 h 3.70417 v 3.704167 h -3.70417 z"
         id="path2161" />
      <path
         style="color:#000000;fill:#000000;stroke-linecap:round;stroke-linejoin:round;-inkscape-stroke:none"
         d="m 119.32617,39.158203 a 0.26460996,0.26460996 0 0 0 -0.26367,0.265625 v 3.703125 a 0.26460996,0.26460996 0 0 0 0.26367,0.265625 h 3.70508 a 0.26460996,0.26460996 0 0 0 0.26367,-0.265625 v -3.703125 a 0.26460996,0.26460996 0 0 0 -0.26367,-0.265625 z m 0.26563,0.529297 h 3.17578 v 3.175781 h -3.17578 z"
         id="path2163" />
    </g>
    <path
       style="font-weight:bold;font-size:3.75014px;line-height:1.25;font-family:FreeMono;-inkscape-font-specification:'FreeMono Bold';letter-spacing:0px;word-spacing:0px;stroke-width:0.234384"
       d="m 107.34563,45.760304 q 0.0825,0 0.19501,0.02625 0.1125,0.0225 0.26626,0.101254 0.1575,0.07875 0.28126,0.198758 0.1275,0.120004 0.21376,0.341262 0.09,0.217508 0.09,0.495019 0,0.461267 -0.31126,0.795029 -0.30751,0.333763 -0.73503,0.333763 -0.43502,0 -0.74253,-0.333763 -0.30376,-0.337512 -0.30376,-0.81378 0,-0.472518 0.30751,-0.80628 0.30751,-0.337513 0.73878,-0.337513 z m 0,0.375014 q -0.27376,0 -0.47252,0.228759 -0.19875,0.225008 -0.19875,0.54002 0,0.318762 0.195,0.54752 0.19876,0.225009 0.47627,0.225009 0.27376,0 0.47252,-0.225009 0.19876,-0.225008 0.19876,-0.53627 0,-0.322512 -0.19876,-0.55127 -0.19501,-0.228759 -0.47252,-0.228759 z"
       id="text687-0"
       transform="scale(1.1288445,0.8858616)"
       aria-label="O" />
  </g>
</svg>
