<?xml version="1.0" encoding="UTF-8"?>
<svg xmlns="http://www.w3.org/2000/svg" width="16px" height="16px" viewBox="0 0 16 16">
  <g fill="#2e3436">
    <path d="m 1.00121245762,0.997269721969 l 13.9965578862,0 l 0,14.0030022024 l -13.9965578862,0 z" fill="#2e3436" stroke-width="1.9999696" stroke-linecap="square" stroke-linejoin="round" fill-opacity="0"/>
    <path d="m 1.00369121789,9.07281051354E-06 a 0.999855,1.00032 0 0,0 -1.00369008431,0.996769205256 l 0,14.0064460901 a 0.999855,1.00032 0 0,0 1.00369008431,0.996769205256 l 13.9926205871,0 a 0.999855,1.00032 0 0,0 1.00369008431,-0.996769205256 l 0,-14.0064460901 a 0.999855,1.00032 0 0,0 -1.00369008431,-0.996769205256 z m 0.996310482483,2.00092141006 l 11.9999996221,0 l 0,11.9981416805 l -11.9999996221,0 z" fill="#2e3436" stroke-linecap="square" stroke-linejoin="round"/>
    <path d="m 11.7824719857,9.03917317174 q 1.07173564304,0 1.07173564304,0.645432205892 q 0,0.490526710979 -0.671833216185,0.645428810703 l 0,1.70393667771 q -1.07173564304,0.451801186049 -1.82354850314,0.619615189271 q -0.751817067347,0.180725906722 -1.67958514408,0.180725906722 q -1.08773157182,0 -1.95152014066,-0.206529342587 q -0.863788568838,-0.219431060519 -1.37566249718,-0.55507264772 q -0.511873928341,-0.335614425689 -0.847788432813,-0.787422402116 q -0.335906089991,-0.464709694359 -0.463886141988,-0.903602372097 q -0.127984259238,-0.438892677738 -0.127984259238,-0.903605767286 l 0,-0.916510880407 q 0,-1.51030565787 1.26368678845,-2.55590501657 q 1.27968271723,-1.05850447182 3.27919064424,-1.05850447182 q 1.29568285326,0 2.31943070994,0.413075661118 q 0.255926446069,-0.413075661118 0.6558372874,-0.413075661118 q 0.431894284419,0 0.591853572263,0.219431060519 q 0.159959287844,0.206529342587 0.159959287844,0.632523697581 l 0,1.00687043858 q 0,0.413075661118 -0.175946802147,0.632523697581 q -0.159959287844,0.219431060519 -0.623845429832,0.219431060519 q -0.111996744934,0 -0.223951417463,-0.0129017179324 q -0.0959671582251,-0.0258034358648 -0.159959287844,-0.051640823619 q -0.0639921296187,-0.0387391056865 -0.127984259238,-0.0903459774162 q -0.0480046153156,-0.051640823619 -0.0959671582252,-0.0903459774162 q -0.0319750286063,-0.051640823619 -0.0639921296187,-0.11618336517 q -0.0319750286063,-0.0774442594838 -0.0480046153156,-0.11618336517 q -0.0159875143032,-0.0387391056865 -0.0480046153156,-0.103281647238 q -0.0159875143032,-0.0774442594838 -0.0159875143032,-0.103281647238 q -0.127984259238,-0.335614425689 -0.687829144969,-0.529255631099 q -0.559861714694,-0.206529342587 -1.43964621232,-0.206529342587 q -1.34366643237,0 -2.15946721485,0.645428810703 q -0.79980064646,0.632523697581 -0.79980064646,1.67811966109 l 0,0.826151322236 q 0,2.15573786376 3.07123936281,2.15573786376 q 1.1037275006,0 1.99950792701,-0.322712707757 l 0,-0.890693863787 l -1.59960550016,0 q -1.05573971425,0 -1.05573971425,-0.645428810703 q 0,-0.374350136187 0.271913960372,-0.50343521929 q 0.271913960372,-0.141986801035 0.783804717676,-0.141986801035 z" stroke-width="0.89810359"/>
  </g>
</svg>
