<?xml version="1.0" encoding="UTF-8" standalone="no"?>
<svg
   width="15.992604"
   height="15.995956"
   viewBox="0 0 4.2313764 4.2322636"
   version="1.1"
   id="svg4268"
   xmlns="http://www.w3.org/2000/svg"
   xmlns:svg="http://www.w3.org/2000/svg"
   xmlns:rdf="http://www.w3.org/1999/02/22-rdf-syntax-ns#"
   xmlns:cc="http://creativecommons.org/ns#"
   xmlns:dc="http://purl.org/dc/elements/1.1/">
  <defs
     id="defs4262" />
  <metadata
     id="metadata4265">
    <rdf:RDF>
      <cc:Work
         rdf:about="">
        <dc:format>image/svg+xml</dc:format>
        <dc:type
           rdf:resource="http://purl.org/dc/dcmitype/StillImage" />
      </cc:Work>
    </rdf:RDF>
  </metadata>
  <g
     id="trace"
     style="display:inline"
     transform="translate(-93.662327,9.788145)">
    <path
       style="color:#000000;fill:#000000;stroke-width:0.529167;stroke-linecap:round;stroke-linejoin:round;-inkscape-stroke:none"
       d="m 97.613688,-9.7876961 a 0.26460979,0.26460979 0 0 0 -0.05859,0.00977 l -1.851563,0.529297 a 0.26492937,0.26492937 0 1 0 0.144531,0.5097656 l 1.394532,-0.3984375 -0.398438,1.3945313 a 0.26492954,0.26492954 0 1 0 0.509766,0.1445312 l 0.529297,-1.8515625 a 0.26460979,0.26460979 0 0 0 -0.269535,-0.3378951 z"
       id="path4594-6-2-0" />
    <path
       style="font-weight:bold;font-size:2.82223px;line-height:1.25;font-family:FreeMono;-inkscape-font-specification:'FreeMono Bold';letter-spacing:0px;word-spacing:0px;stroke-width:0.264583"
       d="m 97.489112,-5.8391488 q 0.186267,0 0.186267,0.1411115 0,0.1411115 -0.186267,0.1411115 h -0.651935 q -0.186267,0 -0.186267,-0.1411115 0,-0.081845 0.04798,-0.110067 0.04798,-0.031045 0.13829,-0.031045 h 0.183445 v -1.0809141 h -0.301979 v 0.2624674 q 0,0.1862672 -0.141111,0.1862672 -0.141112,0 -0.141112,-0.1862672 v -0.5446904 h 1.456271 v 0.5446904 q 0,0.090311 -0.03105,0.1382893 -0.02822,0.047978 -0.110067,0.047978 -0.141111,0 -0.141111,-0.1862672 v -0.2624674 h -0.307623 v 1.0809141 z"
       id="text150-2"
       aria-label="T" />
    <g
       id="path4598-1-2-10">
      <path
         style="color:#000000;fill:#000000;fill-opacity:0;stroke-width:0.529167;stroke-linecap:round;stroke-dasharray:0.529167, 1.05833;-inkscape-stroke:none"
         d="m 93.927084,-5.8208333 3.439583,-3.4395839"
         id="path2528" />
      <path
         style="color:#000000;fill:#000000;stroke-linecap:round;stroke-dasharray:0.529167, 1.05833;-inkscape-stroke:none"
         d="m 97.367187,-9.5253906 a 0.2645835,0.2645835 0 0 0 -0.1875,0.078125 L 97.107422,-9.375 a 0.2645835,0.2645835 0 0 0 0,0.3730469 0.2645835,0.2645835 0 0 0 0.375,0 l 0.07227,-0.072266 a 0.2645835,0.2645835 0 0 0 0,-0.3730468 0.2645835,0.2645835 0 0 0 -0.1875,-0.078125 z m -1.007812,0.8984375 -0.375,0.3730468 a 0.2645835,0.2645835 0 0 0 0,0.3750001 0.2645835,0.2645835 0 0 0 0.375,0 l 0.375,-0.3750001 a 0.2645835,0.2645835 0 0 0 0,-0.3730468 0.2645835,0.2645835 0 0 0 -0.375,0 z m -1.123047,1.1230469 -0.373047,0.3730468 a 0.2645835,0.2645835 0 0 0 0,0.375 0.2645835,0.2645835 0 0 0 0.373047,0 l 0.375,-0.375 a 0.2645835,0.2645835 0 0 0 0,-0.3730468 0.2645835,0.2645835 0 0 0 -0.375,0 z m -1.123047,1.1210937 -0.373047,0.375 a 0.2645835,0.2645835 0 0 0 0,0.375 0.2645835,0.2645835 0 0 0 0.373047,0 l 0.375,-0.375 a 0.2645835,0.2645835 0 0 0 0,-0.375 0.2645835,0.2645835 0 0 0 -0.375,0 z"
         id="path2530" />
    </g>
  </g>
</svg>
