<?xml version="1.0" encoding="UTF-8"?>
<svg xmlns="http://www.w3.org/2000/svg" width="16px" height="16px" viewBox="0 0 16 16">
  <g fill="#2e3436">
    <path d="m 1.0002022718,1.0002439321 l 14.0030208222,0 l 0,13.9965568945 l -14.0030208222,0 z" fill="#2e3436" stroke-width="1.99997005" stroke-linecap="round" stroke-linejoin="round" fill-opacity="0"/>
    <path d="m 0.996762162694,0 a 1.00032,0.999855 0 0,0 -0.996762162694,1.0036900132 l 0,13.9926195957 a 1.00032,0.999855 0 0,0 0.996762162694,1.0036900132 l 14.0064609313,0 a 1.00032,0.999855 0 0,0 0.996762162694,-1.0036900132 l 0,-13.9926195957 a 1.00032,0.999855 0 0,0 -0.996762162694,-1.0036900132 z m 1.00417162846,2.00000042509 l 12.0055271401,0 l 0,11.999998772 l -12.0055271401,0 z" fill="#2e3436" stroke-linecap="round" stroke-linejoin="round"/>
    <path d="m 7.99172889855,5.21103807899 q 0.352061791353,0 0.832188726446,0.0878670082865 q 0.480084260936,0.0753145785313 1.13624209171,0.338928992649 q 0.672117965311,0.26360102486 1.2002533265,0.665305555543 q 0.544095495728,0.401691141425 0.912202769935,1.1423112755 q 0.384067408749,0.72806770432 0.384067408749,1.65698432667 q 0,1.54400576424 -1.32827579608,2.66121218023 q -1.31227298738,1.1172097633 -3.13667852725,1.1172097633 q -1.85641115727,0 -3.16868414465,-1.1172097633 q -1.29627017868,-1.12975884574 -1.29627017868,-2.72397767632 q 0,-1.58166640082 1.31227298738,-2.69887281681 q 1.31227298738,-1.12976219306 3.15268133595,-1.12976219306 z m 0,1.25528983793 q -1.1682477091,0 -2.01643924424,0.7657283409 q -0.848148860987,0.75317256383 -0.848148860987,1.80761683104 q 0,1.06699669697 0.832146052289,1.83272169055 q 0.848191535144,0.753175911145 2.03244205294,0.753175911145 q 1.1682477091,0 2.01643924424,-0.753175911145 q 0.848191535144,-0.75317256383 0.848191535144,-1.79506440129 q 0,-1.07954912672 -0.848191535144,-1.84527412031 q -0.832188726446,-0.7657283409 -2.01643924424,-0.7657283409 z" stroke-width="0.88584696"/>
  </g>
</svg>
