<?xml version="1.0" encoding="UTF-8" standalone="no"?>
<svg
   width="16.003937"
   height="15.996571"
   viewBox="0 0 4.2343748 4.2324261"
   version="1.1"
   id="svg4268"
   xmlns="http://www.w3.org/2000/svg"
   xmlns:svg="http://www.w3.org/2000/svg"
   xmlns:rdf="http://www.w3.org/1999/02/22-rdf-syntax-ns#"
   xmlns:cc="http://creativecommons.org/ns#"
   xmlns:dc="http://purl.org/dc/elements/1.1/">
  <defs
     id="defs4262" />
  <metadata
     id="metadata4265">
    <rdf:RDF>
      <cc:Work
         rdf:about="">
        <dc:format>image/svg+xml</dc:format>
        <dc:type
           rdf:resource="http://purl.org/dc/dcmitype/StillImage" />
      </cc:Work>
    </rdf:RDF>
  </metadata>
  <g
     id="property"
     style="display:inline"
     transform="translate(-77.787109,-19.050779)">
    <g
       id="rect4893-7-3">
      <path
         style="color:#000000;fill:#000000;fill-opacity:0;stroke-width:0.529167;stroke-linecap:square;stroke-linejoin:round;-inkscape-stroke:none"
         d="m 78.052078,19.314583 h 3.704167 v 3.704167 h -3.704167 z"
         id="path2718" />
      <path
         style="color:#000000;fill:#000000;stroke-linecap:square;stroke-linejoin:round;-inkscape-stroke:none"
         d="m 78.052734,19.050781 a 0.26460996,0.26460996 0 0 0 -0.265625,0.263672 v 3.705078 a 0.26460996,0.26460996 0 0 0 0.265625,0.263672 h 3.703125 a 0.26460996,0.26460996 0 0 0 0.265625,-0.263672 v -3.705078 a 0.26460996,0.26460996 0 0 0 -0.265625,-0.263672 z m 0.263672,0.529297 h 3.175781 v 3.173828 h -3.175781 z"
         id="path2720" />
    </g>
    <path
       d="m 72.677724,23.440807 q 0,0.102654 -0.02281,0.197705 -0.02281,0.09505 -0.08745,0.197706 -0.06463,0.09885 -0.163488,0.174893 -0.09505,0.07224 -0.258538,0.121665 -0.159685,0.04563 -0.368797,0.04563 h -0.372599 v 0.380203 h 0.376401 q 0.250934,0 0.250934,0.190101 0,0.190102 -0.250934,0.190102 h -0.813634 q -0.250934,0 -0.250934,-0.190102 0,-0.190101 0.250934,-0.190101 h 0.05703 v -1.456178 h -0.05703 q -0.250934,0 -0.250934,-0.190102 0,-0.110258 0.06463,-0.148279 0.06463,-0.04182 0.1863,-0.04182 h 0.885873 q 0.361193,0 0.593117,0.201508 0.231923,0.201507 0.231923,0.517076 z m -1.27368,-0.338381 v 0.695772 h 0.44864 q 0.197705,0 0.307964,-0.09125 0.114061,-0.09505 0.114061,-0.254736 0,-0.163488 -0.114061,-0.254736 -0.110259,-0.09505 -0.307964,-0.09505 z"
       id="text84-8-6"
       style="font-weight:bold;font-size:3.80203px;line-height:1.25;font-family:FreeMono;-inkscape-font-specification:'FreeMono, Bold';letter-spacing:0px;word-spacing:0px;stroke-width:0.237627"
       transform="scale(1.1134396,0.89811791)"
       aria-label="P" />
  </g>
</svg>
