<?xml version="1.0" encoding="UTF-8" standalone="no"?>
<svg
   width="10.002475"
   height="15.980968"
   viewBox="0 0 2.6464881 4.228298"
   version="1.1"
   id="svg4268"
   xmlns="http://www.w3.org/2000/svg"
   xmlns:svg="http://www.w3.org/2000/svg"
   xmlns:rdf="http://www.w3.org/1999/02/22-rdf-syntax-ns#"
   xmlns:cc="http://creativecommons.org/ns#"
   xmlns:dc="http://purl.org/dc/elements/1.1/">
  <defs
     id="defs4262" />
  <metadata
     id="metadata4265">
    <rdf:RDF>
      <cc:Work
         rdf:about="">
        <dc:format>image/svg+xml</dc:format>
        <dc:type
           rdf:resource="http://purl.org/dc/dcmitype/StillImage" />
      </cc:Work>
    </rdf:RDF>
  </metadata>
  <g
     id="actor"
     style="display:inline"
     transform="translate(-44.449217,-19.193359)">
    <path
       style="color:#000000;fill:#000000;stroke-linecap:round;stroke-linejoin:round;-inkscape-stroke:none"
       d="m 45.585937,22.175781 -0.792968,0.792969 a 0.2645835,0.2645835 0 0 0 0,0.375 0.2645835,0.2645835 0 0 0 0.373047,0 l 0.607421,-0.607422 0.605469,0.607422 a 0.2645835,0.2645835 0 0 0 0.375,0 0.2645835,0.2645835 0 0 0 0,-0.375 l -0.792969,-0.792969 a 0.26460996,0.26460996 0 0 0 -0.375,0 z"
       id="path1136" />
    <path
       style="color:#000000;fill:#000000;-inkscape-stroke:none"
       d="m 45.507812,21.039062 v 1.324219 h 0.529297 v -1.324219 z"
       id="path1138" />
    <path
       style="color:#000000;fill:#000000;stroke-linecap:round;-inkscape-stroke:none"
       d="m 44.714844,21.304687 a 0.2645835,0.2645835 0 0 0 -0.265625,0.263672 0.2645835,0.2645835 0 0 0 0.265625,0.265625 h 2.117187 a 0.2645835,0.2645835 0 0 0 0.263672,-0.265625 0.2645835,0.2645835 0 0 0 -0.263672,-0.263672 z"
       id="path1140" />
    <g
       id="path1144">
      <path
         style="color:#000000;fill:#000000;fill-opacity:0;stroke-width:0.529167;stroke-linecap:round;stroke-linejoin:round;-inkscape-stroke:none"
         d="m 46.57233,20.251492 a 0.79374999,0.79374999 0 0 1 -0.79375,0.79375 0.79374999,0.79374999 0 0 1 -0.79375,-0.79375 0.79374999,0.79374999 0 0 1 0.79375,-0.79375 0.79374999,0.79374999 0 0 1 0.79375,0.79375 z"
         id="path4198" />
      <path
         style="color:#000000;fill:#000000;stroke-linecap:round;stroke-linejoin:round;-inkscape-stroke:none"
         d="m 45.779297,19.193359 c -0.581367,0 -1.058594,0.477227 -1.058594,1.058594 0,0.581367 0.477227,1.058594 1.058594,1.058594 0.581367,0 1.056641,-0.477227 1.05664,-1.058594 0,-0.581367 -0.475273,-1.058594 -1.05664,-1.058594 z m 0,0.529297 c 0.295384,0 0.529297,0.233913 0.529297,0.529297 0,0.295384 -0.233913,0.529297 -0.529297,0.529297 -0.295384,0 -0.529297,-0.233913 -0.529297,-0.529297 0,-0.295384 0.233913,-0.529297 0.529297,-0.529297 z"
         id="path4200" />
    </g>
  </g>
</svg>
