<?xml version="1.0" encoding="UTF-8"?>
<svg xmlns="http://www.w3.org/2000/svg" width="16px" height="16px" viewBox="0 0 16 16">
  <g fill="#2e3436">
    <path d="m 0,5.65559835005 c 0,3.44813375596 0,6.89626751192 0,10.3444012679 c 5.33333333333,0 10.6666666667,0 16,0 c 0,-3.44813375596 0,-6.89626751192 0,-10.3444012679 c -2.66707561785,-1.88492308775 -5.33305912329,-3.77207745056 -8.00079662745,-5.65559835005 c -2.66637590947,1.88519817646 -5.33278964101,3.77040017359 -7.99920337255,5.65559835005 z m 8.28136077916,-2.95263404718 c 1.79487965932,1.26944267625 3.58886577212,2.53968005321 5.384284396,3.80861840017 c 0,2.53397960394 0,5.06796302856 0,7.6019426325 c -3.77706841688,0 -7.5541793836,0 -11.3312950781,0 c 0,-2.53397960394 0,-5.06796302856 0,-7.6019426325 c 1.88937338573,-1.33526529022 3.77789104701,-2.67132146047 5.66644653037,-4.00732414125 c 0.0935150802227,0.0662505297308 0.187030160445,0.132462852697 0.280545240668,0.198713382428 z" fill="#2e3436" stroke-width="0.18726733"/>
  </g>
</svg>
