<?xml version="1.0" encoding="UTF-8"?>
<svg xmlns="http://www.w3.org/2000/svg" width="16px" height="16px" viewBox="0 0 16 16">
  <g fill="#2e3436">
    <path d="M 1.00221912094,5.71565532338 L 14.9987595349,5.71565532338 L 14.9987595349,14.8562529598 L 1.00221912094,14.8562529598 Z" fill="#2e3436" stroke-width="2.13756302" stroke-linecap="square" stroke-linejoin="round" fill-opacity="0"/>
    <path d="m 1.00369655114,4.57143239629 a 0.999854,1.14269 0 0,0 -1.00368899395,1.14707306629 l 0,9.13441283435 a 0.999854,1.14269 0 0,0 1.00368899395,1.14707306629 l 13.9926068977,0 a 0.999854,1.14269 0 0,0 1.00368899395,-1.14707306629 L 15.9999924428,5.71850546258 A 0.999854,1.14269 0 0,0 14.9963034489,4.57143239629 Z M 2.00000557343,6.8571438442 L 13.9999940487,6.8571438442 L 13.9999940487,13.7142794835 L 2.00000557343,13.7142794835 Z" fill="#2e3436" stroke-linecap="square" stroke-linejoin="round"/>
    <path d="M 1.00221912094,1.14535823254 L 9.00024178277,1.14535823254 L 9.00024178277,5.71565705074 L 1.00221912094,5.71565705074 Z" fill="#2e3436" stroke-width="2.13756302" stroke-linecap="square" stroke-linejoin="round" fill-opacity="0"/>
    <path d="m 1.00369655114,8.63678543794E-06 a 0.999854,1.14269 0 0,0 -1.00368899395,1.14707306629 l 0,4.57142375951 a 0.999854,1.14269 0 0,0 1.00368899395,1.13863838163 L 9.00368786037,6.8571438442 A 0.999854,1.14269 0 0,0 9.99999726052,5.71850546258 L 9.99999726052,1.14708170307 A 0.999854,1.14269 0 0,0 9.00368786037,8.63678543794E-06 Z M 2.00000557343,2.28572051654 L 7.99999886642,2.28572051654 L 7.99999886642,4.57143239629 L 2.00000557343,4.57143239629 Z" fill="#2e3436" stroke-linecap="square" stroke-linejoin="round"/>
  </g>
</svg>
