<?xml version="1.0" encoding="UTF-8" standalone="no"?>
<svg
   width="15.9966"
   height="14.003445"
   viewBox="0 0 4.2324337 3.7050782"
   version="1.1"
   id="svg4268"
   xmlns="http://www.w3.org/2000/svg"
   xmlns:svg="http://www.w3.org/2000/svg"
   xmlns:rdf="http://www.w3.org/1999/02/22-rdf-syntax-ns#"
   xmlns:cc="http://creativecommons.org/ns#"
   xmlns:dc="http://purl.org/dc/elements/1.1/">
  <defs
     id="defs4262" />
  <metadata
     id="metadata4265">
    <rdf:RDF>
      <cc:Work
         rdf:about="">
        <dc:format>image/svg+xml</dc:format>
        <dc:type
           rdf:resource="http://purl.org/dc/dcmitype/StillImage" />
      </cc:Work>
    </rdf:RDF>
  </metadata>
  <g
     id="artifact"
     style="display:inline"
     transform="translate(-111.15234,-5.1328125)">
    <g
       id="path1116">
      <path
         style="color:#000000;fill:#000000;fill-opacity:0;stroke-width:0.370417;stroke-linejoin:round;-inkscape-stroke:none"
         d="m 113.26818,6.1912212 h -0.79375 v 1.5875 h 1.5875 v -0.79375 l -0.79375,-0.79375 v 0.79375 h 0.79375"
         id="path2628" />
      <path
         style="color:#000000;fill:#000000;stroke-linejoin:round;-inkscape-stroke:none"
         d="m 112.47461,6.0058594 a 0.18522702,0.18522702 0 0 0 -0.18555,0.1855468 v 1.5878907 a 0.18522702,0.18522702 0 0 0 0.18555,0.1855468 h 1.58789 a 0.18522702,0.18522702 0 0 0 0.18555,-0.1855468 V 6.984375 a 0.18522702,0.18522702 0 0 0 -0.0547,-0.1308594 l -0.79492,-0.7929687 a 0.18522702,0.18522702 0 0 0 -0.13086,-0.027344 v -0.027344 z m 0.18555,0.3710937 h 0.42187 V 6.984375 a 0.18522702,0.18522702 0 0 0 0.18555,0.1855469 h 0.60937 V 7.59375 h -1.21679 z m 0.79297,0.2617188 0.16015,0.1601562 h -0.16015 z"
         id="path2630" />
    </g>
    <g
       id="path1402">
      <path
         style="color:#000000;fill:#000000;fill-opacity:0;stroke-width:0.529167;stroke-linejoin:round;-inkscape-stroke:none"
         d="m 111.4161,5.3974712 v 3.175 h 3.70416 v -3.175 z"
         id="path2620" />
      <path
         style="color:#000000;fill:#000000;stroke-linejoin:round;-inkscape-stroke:none"
         d="m 111.41602,5.1328125 a 0.26460996,0.26460996 0 0 0 -0.26368,0.265625 v 3.1738281 a 0.26460996,0.26460996 0 0 0 0.26368,0.265625 h 3.70507 a 0.26460996,0.26460996 0 0 0 0.26368,-0.265625 V 5.3984375 a 0.26460996,0.26460996 0 0 0 -0.26368,-0.265625 z m 0.26562,0.5292969 h 3.17383 v 2.6464844 h -3.17383 z"
         id="path2622" />
    </g>
  </g>
</svg>
