<?xml version="1.0" encoding="UTF-8" standalone="no"?>
<svg
   width="15.870487"
   height="16.054758"
   viewBox="0 0 4.1990663 4.2478215"
   version="1.1"
   id="svg4268"
   xmlns="http://www.w3.org/2000/svg"
   xmlns:svg="http://www.w3.org/2000/svg"
   xmlns:rdf="http://www.w3.org/1999/02/22-rdf-syntax-ns#"
   xmlns:cc="http://creativecommons.org/ns#"
   xmlns:dc="http://purl.org/dc/elements/1.1/">
  <defs
     id="defs4262" />
  <metadata
     id="metadata4265">
    <rdf:RDF>
      <cc:Work
         rdf:about="">
        <dc:format>image/svg+xml</dc:format>
        <dc:type
           rdf:resource="http://purl.org/dc/dcmitype/StillImage" />
      </cc:Work>
    </rdf:RDF>
  </metadata>
  <g
     id="import"
     style="display:inline"
     transform="translate(-43.671116,-39.029304)">
    <path
       style="color:#000000;fill:#000000;stroke-width:0.529167;stroke-linecap:round;stroke-linejoin:round;-inkscape-stroke:none"
       d="m 47.590168,39.029719 a 0.26460979,0.26460979 0 0 0 -0.05859,0.0098 l -1.851562,0.529297 a 0.26492936,0.26492936 0 1 0 0.144531,0.509765 l 1.394531,-0.398437 -0.398437,1.394531 a 0.26492951,0.26492951 0 1 0 0.509766,0.144531 l 0.529296,-1.851562 a 0.26460979,0.26460979 0 0 0 -0.269531,-0.337891 z"
       id="path4594-6-2-8" />
    <path
       d="m 47.681731,42.983715 q 0.09031,0 0.138289,0.03104 0.04798,0.02822 0.04798,0.110067 0,0.141112 -0.186267,0.141112 h -0.852314 q -0.186267,0 -0.186267,-0.141112 0,-0.08184 0.04798,-0.110067 0.04798,-0.03104 0.138289,-0.03104 h 0.285046 v -1.080914 h -0.285046 q -0.186267,0 -0.186267,-0.141112 0,-0.08184 0.04798,-0.110067 0.04798,-0.03104 0.138289,-0.03104 h 0.852314 q 0.09031,0 0.138289,0.03104 0.04798,0.02822 0.04798,0.110067 0,0.141112 -0.186267,0.141112 h -0.285045 v 1.080914 z"
       id="text530-9"
       style="font-weight:bold;font-size:2.82223px;line-height:1.25;font-family:FreeMono;-inkscape-font-specification:'FreeMono Bold';letter-spacing:0px;word-spacing:0px;stroke-width:0.264583"
       aria-label="I" />
    <path
       style="color:#000000;fill:#000000;stroke-linecap:round;stroke-dasharray:0.529167, 1.05833;-inkscape-stroke:none"
       d="m 47.375,39.308594 a 0.2645835,0.2645835 0 0 0 -0.1875,0.07617 l -0.07031,0.07227 a 0.2645835,0.2645835 0 0 0 0,0.375 0.2645835,0.2645835 0 0 0 0.373047,0 l 0.07227,-0.07227 a 0.2645835,0.2645835 0 0 0 0,-0.375 0.2645835,0.2645835 0 0 0 -0.1875,-0.07617 z m -1.007813,0.896484 -0.373046,0.375 a 0.2645835,0.2645835 0 0 0 0,0.375 0.2645835,0.2645835 0 0 0 0.373046,0 l 0.375,-0.375 a 0.2645835,0.2645835 0 0 0 0,-0.375 0.2645835,0.2645835 0 0 0 -0.375,0 z m -0.933593,1.046875 a 0.2645835,0.2645835 0 0 0 -0.1875,0.07617 l -0.375,0.375 a 0.2645835,0.2645835 0 0 0 0,0.373047 0.2645835,0.2645835 0 0 0 0.375,0 l 0.373047,-0.373047 a 0.2645835,0.2645835 0 0 0 0,-0.375 0.2645835,0.2645835 0 0 0 -0.185547,-0.07617 z m -1.310547,1.199219 -0.375,0.375 a 0.2645835,0.2645835 0 0 0 0,0.373047 0.2645835,0.2645835 0 0 0 0.375,0 l 0.375,-0.373047 a 0.2645835,0.2645835 0 0 0 0,-0.375 0.2645835,0.2645835 0 0 0 -0.375,0 z"
       id="path4598-1-2-8-6" />
  </g>
</svg>
