<?xml version="1.0" encoding="UTF-8"?>
<svg xmlns="http://www.w3.org/2000/svg" width="16px" height="16px" viewBox="0 0 16 16">
  <g fill="#2e3436">
    <path d="m 7.99999622141,11.5933445975 a 1.39965,0.701122 0 0,0 -1.40220509156,0.702402919175 l 0,3.00184767137 a 1.39965,0.701122 0 0,0 1.40220509156,0.702402919175 a 1.39965,0.701122 0 0,0 1.40221264874,-0.702402919175 l 0,-3.00184767137 a 1.39965,0.701122 0 0,0 -1.40221264874,-0.702402919175 z" fill="#2e3436" stroke-linecap="round"/>
    <path d="m 7.99999622141,1.13567445936E-06 a 1.39965,0.701122 0 0,0 -1.40220509156,0.702402919175 l 0,3.00184767137 A 1.39965,0.701122 0 0,0 7.99999622141,4.40665464539 A 1.39965,0.701122 0 0,0 9.40220887015,3.70425172622 l 0,-3.00184767137 a 1.39965,0.701122 0 0,0 -1.40221264874,-0.702402919175 z" fill="#2e3436" stroke-linecap="round"/>
    <path d="m 1.99755997451,3.99651641323 l 11.9970205806,0 l 0,8.01281589702 l -11.9970205806,0 z" fill="#2e3436" stroke-width="2.83034272" stroke-linecap="round" stroke-linejoin="round" fill-opacity="0"/>
    <path d="m 1.99263269115,2.99445518774 a 1.99971,1.0017 0 0,0 -1.99261757678,1.00554509618 l 0,8.00739229435 a 1.99971,1.0017 0 0,0 1.99261757678,1.00554509618 l 11.9999754392,0 a 1.99971,1.0017 0 0,0 2.00737675533,-1.00554509618 l 0,-8.00739229435 a 1.99971,1.0017 0 0,0 -2.00737675533,-1.00554509618 z m 2.00737675533,2.00369657305 l 7.99998110704,0 l 0,6.0110893406 l -7.99998110704,0 z" fill="#2e3436" stroke-linecap="round" stroke-linejoin="round"/>
  </g>
</svg>
