<?xml version="1.0" encoding="UTF-8"?>
<svg xmlns="http://www.w3.org/2000/svg" width="16px" height="16px" viewBox="0 0 16 16">
  <g fill="#2e3436">
    <path d="m 6.61787211581,0.270700084667 c 0,0.724942560557 0,1.44988506562 0,2.17482752024 c -0.967211349899,0.104808789842 -1.90207070339,0.324310193311 -2.74214038556,0.642649666476 c -0.968122541591,0.365668520536 -1.81043119788,0.861394345993 -2.45358884358,1.44428417665 c -0.61529029943,0.555763631209 -1.04877145075,1.1905282341 -1.26185117506,1.85394593721 c -0.113468162739,0.348842006727 -0.165402068045,0.705258652058 -0.159899531807,1.06119772049 c -0.000589768085528,2.06075825712 -7.42571634955E-05,4.12151668241 -0.000245557984702,6.18227510769 c 0.580865804354,0 1.16173107256,0 1.74259634076,0 c 0,0.790039817611 0,1.58007946706 0,2.37011945283 c 0.921352323951,0 1.84270437982,0 2.7640564357,0 c 0,-0.790039985772 2.68076401966E-07,-1.58007963522 0,-2.37011945283 c 2.32884887234,0 4.65769720854,0 6.98654608088,0 c 0,0.790039817611 0,1.58007946706 0,2.37011945283 c 0.921352055874,0 1.84270411175,0 2.7640564357,0 c 0,-0.790039985772 0,-1.58007963522 0,-2.37011945283 c 0.580865000125,0 1.1617305364,0 1.74259607268,0 c -0.000141008187722,-2.09428566857 0.000211244205179,-4.18857486851 -0.000750613927035,-6.28285835098 c -0.00807714200772,-0.747701616948 -0.286916812082,-1.49391484196 -0.813041951196,-2.16499967216 c -0.535952283877,-0.686013984818 -1.32514857099,-1.29335894753 -2.28824414388,-1.76097449608 c -0.899016198093,-0.437659537843 -1.94819003153,-0.754043636314 -3.05666022058,-0.916568939143 c -0.152167404129,-0.022406764396 -0.305372532013,-0.0420701522227 -0.459380280646,-0.0588216662799 c 0,-0.815218798167 0,-1.63043762997 0,-2.44565641132 c -0.921351787798,0 -1.84270411175,0 -2.76405616762,0 c 0,0.0902330757574 0,0.18046632472 0,0.270699407204 z M 8.07465477889,3.84371720319 c 0.863983169583,0.00646746738116 1.72548448783,0.138442310798 2.49445199769,0.386049955313 c 0.869716519604,0.278663763689 1.62097865538,0.700952220125 2.15647145631,1.2133153784 c 0.423408716651,0.40297753381 0.712397759324,0.861104100317 0.842573515773,1.33679725666 c 0.0603316666912,0.216396817333 0.0856772182432,0.436282300249 0.08281523457,0.655870474732 c 1.12592089039E-05,1.5735388497 1.0454979698E-05,3.147079381 9.38267408657E-06,4.72061890334 c -3.76738411085,0 -7.53476768555,0 -11.3021517964,0 c 0.000176126196451,-1.60398067718 -0.000225452254514,-3.2079650539 0.00080422920754,-4.81194337683 c 0.00939071638004,-0.565785515076 0.238095005733,-1.12995920813 0.665704479611,-1.62836955385 c 0.487566637835,-0.571900180934 1.23017499926,-1.05703271186 2.12207189234,-1.38517159205 c 0.685693596564,-0.253553476852 1.45816727769,-0.413907654581 2.24966339226,-0.466817457022 c 0.228475084028,-0.0156641858179 0.459604660594,-0.0219993105878 0.68760605362,-0.020349988693 z" fill="#2e3436" stroke-width="0.02129255"/>
  </g>
</svg>
