<?xml version="1.0" encoding="UTF-8"?>
<svg xmlns="http://www.w3.org/2000/svg" width="16px" height="16px" viewBox="0 0 16 16">
  <g fill="#2e3436">
    <path d="m 14.8567905993,7.99879948553 a 6.85546,6.85546 0 0,1 -6.85545621442,6.85545541252 a 6.85546,6.85546 0 0,1 -6.85545621442,-6.85545541252 a 6.85546,6.85546 0 0,1 6.85545621442,-6.85545584436 a 6.85546,6.85546 0 0,1 6.85545621442,6.85545584436 z" fill="#2e3436" stroke-width="2.28515345" stroke-linecap="round" stroke-linejoin="round" fill-opacity="0"/>
    <path d="m 8.00421907447,0 c -4.4036557395,0 -8.00421907447,3.59212931052 -8.00421907447,7.99578265312 c 0,4.40365334259 3.60056333497,8.00421691504 8.00421907447,8.00421691504 c 4.4036514211,0 7.99578092553,-3.60056357245 7.99578092553,-8.00421691504 C 16,3.59212931052 12.4078704956,0 8.00421907447,0 Z m 0,2.28571434741 c 3.16866743426,0 5.7100660229,2.54140190617 5.7100660229,5.71006830571 c 0,3.16866639954 -2.54139858864,5.71850299948 -5.7100660229,5.71850299948 c -3.16866743426,0 -5.71850417184,-2.54983659994 -5.71850417184,-5.71850299948 c 0,-3.16866639954 2.54983673758,-5.71006830571 5.71850417184,-5.71006830571 z" fill="#2e3436" stroke-linecap="round" stroke-linejoin="round"/>
    <path d="m 11.4290624921,7.99879948553 a 3.42773,3.42773 0 0,1 -3.42772810721,3.42772792218 a 3.42773,3.42773 0 0,1 -3.42772810721,-3.42772792218 a 3.42773,3.42773 0 0,1 3.42772810721,-3.42772792218 a 3.42773,3.42773 0 0,1 3.42772810721,3.42772792218 z" fill="#2e3436" stroke-width="2.28515345" stroke-linecap="round" stroke-linejoin="round"/>
  </g>
</svg>
