<?xml version="1.0" encoding="UTF-8" standalone="no"?>
<svg
   width="16.003937"
   height="15.907972"
   viewBox="0 0 4.2343748 4.2089845"
   version="1.1"
   id="svg4268"
   xmlns="http://www.w3.org/2000/svg"
   xmlns:svg="http://www.w3.org/2000/svg"
   xmlns:rdf="http://www.w3.org/1999/02/22-rdf-syntax-ns#"
   xmlns:cc="http://creativecommons.org/ns#"
   xmlns:dc="http://purl.org/dc/elements/1.1/">
  <defs
     id="defs4262" />
  <metadata
     id="metadata4265">
    <rdf:RDF>
      <cc:Work
         rdf:about="">
        <dc:format>image/svg+xml</dc:format>
        <dc:type
           rdf:resource="http://purl.org/dc/dcmitype/StillImage" />
      </cc:Work>
    </rdf:RDF>
  </metadata>
  <g
     id="ellipse"
     style="display:inline"
     transform="translate(-25.134766,9.9160156)">
    <g
       id="path910">
      <path
         style="color:#000000;fill:#000000;fill-opacity:0;stroke-width:0.529167;stroke-linecap:round;stroke-linejoin:round;-inkscape-stroke:none"
         d="M 29.104166,-7.81182 A 1.8520833,1.8402717 0 0 1 27.252083,-5.9715483 1.8520833,1.8402717 0 0 1 25.399999,-7.81182 1.8520833,1.8402717 0 0 1 27.252083,-9.6520917 1.8520833,1.8402717 0 0 1 29.104166,-7.81182 Z"
         id="path3488" />
      <path
         style="color:#000000;fill:#000000;stroke-linecap:round;stroke-linejoin:round;-inkscape-stroke:none"
         d="m 27.251953,-9.9160156 c -1.164956,0 -2.117187,0.9432534 -2.117187,2.1035156 0,1.1602622 0.952231,2.1054687 2.117187,2.1054688 1.164956,0 2.117188,-0.9452066 2.117188,-2.1054688 0,-1.1602622 -0.952232,-2.1035156 -2.117188,-2.1035156 z m 0,0.5292968 c 0.880797,0 1.587891,0.701775 1.587891,1.5742188 0,0.8724438 -0.707094,1.5761719 -1.587891,1.5761719 -0.880797,0 -1.587891,-0.7037281 -1.587891,-1.5761719 0,-0.8724438 0.707094,-1.5742188 1.587891,-1.5742188 z"
         id="path3490" />
    </g>
  </g>
</svg>
