<?xml version="1.0" encoding="UTF-8" standalone="no"?>
<svg
   xmlns:dc="http://purl.org/dc/elements/1.1/"
   xmlns:cc="http://creativecommons.org/ns#"
   xmlns:rdf="http://www.w3.org/1999/02/22-rdf-syntax-ns#"
   xmlns:svg="http://www.w3.org/2000/svg"
   xmlns="http://www.w3.org/2000/svg"
   width="9.7189989"
   height="15.682404"
   viewBox="0 0 2.5714851 4.1493027"
   version="1.1"
   id="svg4268">
  <defs
     id="defs4262" />
  <metadata
     id="metadata4265">
    <rdf:RDF>
      <cc:Work
         rdf:about="">
        <dc:format>image/svg+xml</dc:format>
        <dc:type
           rdf:resource="http://purl.org/dc/dcmitype/StillImage" />
        <dc:title />
      </cc:Work>
    </rdf:RDF>
  </metadata>
  <path
     style="color:#000000;font-style:normal;font-variant:normal;font-weight:normal;font-stretch:normal;font-size:medium;line-height:normal;font-family:sans-serif;font-variant-ligatures:normal;font-variant-position:normal;font-variant-caps:normal;font-variant-numeric:normal;font-variant-alternates:normal;font-variant-east-asian:normal;font-feature-settings:normal;font-variation-settings:normal;text-indent:0;text-align:start;text-decoration:none;text-decoration-line:none;text-decoration-style:solid;text-decoration-color:#000000;letter-spacing:normal;word-spacing:normal;text-transform:none;writing-mode:lr-tb;direction:ltr;text-orientation:mixed;dominant-baseline:auto;baseline-shift:baseline;text-anchor:start;white-space:normal;shape-padding:0;shape-margin:0;inline-size:0;clip-rule:nonzero;display:inline;overflow:visible;visibility:visible;isolation:auto;mix-blend-mode:normal;color-interpolation:sRGB;color-interpolation-filters:linearRGB;solid-color:#000000;solid-opacity:1;vector-effect:none;fill:#000000;fill-opacity:1;fill-rule:nonzero;stroke-width:0.0598616;stroke-linecap:butt;stroke-linejoin:miter;stroke-miterlimit:4;stroke-dasharray:none;stroke-dashoffset:0;stroke-opacity:1;color-rendering:auto;image-rendering:auto;shape-rendering:auto;text-rendering:auto;enable-background:accumulate;stop-color:#000000;stop-opacity:1;stroke:none;opacity:1"
     d="M 1.260098,9.8e-5 C 1.121246,0.008198 1.031525,0.163984 1.064607,0.292413 v 0.696453 c 0.116024,0.0094 0.246249,0.05161 0.352275,-0.01765 0.0904,-0.0565 0.100657,-0.17356 0.09236,-0.269928 -0.0027,-0.227356 3.1e-4,-0.45492 -9.29e-4,-0.682361 -0.08256,-0.0074 -0.165066,-0.02023 -0.248101,-0.01882 z"
     id="line432" />
  <path
     style="color:#000000;font-style:normal;font-variant:normal;font-weight:normal;font-stretch:normal;font-size:medium;line-height:normal;font-family:sans-serif;font-variant-ligatures:normal;font-variant-position:normal;font-variant-caps:normal;font-variant-numeric:normal;font-variant-alternates:normal;font-variant-east-asian:normal;font-feature-settings:normal;font-variation-settings:normal;text-indent:0;text-align:start;text-decoration:none;text-decoration-line:none;text-decoration-style:solid;text-decoration-color:#000000;letter-spacing:normal;word-spacing:normal;text-transform:none;writing-mode:lr-tb;direction:ltr;text-orientation:mixed;dominant-baseline:auto;baseline-shift:baseline;text-anchor:start;white-space:normal;shape-padding:0;shape-margin:0;inline-size:0;clip-rule:nonzero;display:inline;overflow:visible;visibility:visible;isolation:auto;mix-blend-mode:normal;color-interpolation:sRGB;color-interpolation-filters:linearRGB;solid-color:#000000;solid-opacity:1;vector-effect:none;fill:#000000;fill-opacity:1;fill-rule:nonzero;stroke-width:0.0598616;stroke-linecap:butt;stroke-linejoin:miter;stroke-miterlimit:4;stroke-dasharray:none;stroke-dashoffset:0;stroke-opacity:1;color-rendering:auto;image-rendering:auto;shape-rendering:auto;text-rendering:auto;enable-background:accumulate;stop-color:#000000;stop-opacity:1;stroke:none;opacity:1"
     d="M 0.475225,2.98218 C 0.336377,2.99028 0.246652,3.146065 0.279739,3.274498 v 0.85347 c 0.116022,0.0094 0.246248,0.05161 0.352274,-0.01765 C 0.722403,4.053838 0.732619,3.936841 0.724423,3.840501 0.721923,3.560762 0.72473,3.280825 0.723223,3.001008 0.640663,2.993708 0.558155,2.980778 0.47512,2.982188 Z"
     id="line434" />
  <path
     style="color:#000000;font-style:normal;font-variant:normal;font-weight:normal;font-stretch:normal;font-size:medium;line-height:normal;font-family:sans-serif;font-variant-ligatures:normal;font-variant-position:normal;font-variant-caps:normal;font-variant-numeric:normal;font-variant-alternates:normal;font-variant-east-asian:normal;font-feature-settings:normal;font-variation-settings:normal;text-indent:0;text-align:start;text-decoration:none;text-decoration-line:none;text-decoration-style:solid;text-decoration-color:#000000;letter-spacing:normal;word-spacing:normal;text-transform:none;writing-mode:lr-tb;direction:ltr;text-orientation:mixed;dominant-baseline:auto;baseline-shift:baseline;text-anchor:start;white-space:normal;shape-padding:0;shape-margin:0;inline-size:0;clip-rule:nonzero;display:inline;overflow:visible;visibility:visible;isolation:auto;mix-blend-mode:normal;color-interpolation:sRGB;color-interpolation-filters:linearRGB;solid-color:#000000;solid-opacity:1;vector-effect:none;fill:#000000;fill-opacity:1;fill-rule:nonzero;stroke-width:0.0598616;stroke-linecap:butt;stroke-linejoin:miter;stroke-miterlimit:4;stroke-dasharray:none;stroke-dashoffset:0;stroke-opacity:1;color-rendering:auto;image-rendering:auto;shape-rendering:auto;text-rendering:auto;enable-background:accumulate;stop-color:#000000;stop-opacity:1;stroke:none;opacity:1"
     d="M 2.044848,2.98218 C 1.905997,2.99028 1.816275,3.146065 1.849363,3.274498 v 0.85347 c 0.116022,0.0094 0.246247,0.05161 0.352273,-0.01765 0.09039,-0.05648 0.100607,-0.173477 0.09241,-0.269817 -0.0025,-0.279739 2.98e-4,-0.559676 -0.0012,-0.839493 -0.08256,-0.0073 -0.165065,-0.02023 -0.2481,-0.01882 z"
     id="line436" />
  <path
     id="path438"
     style="color:#000000;font-style:normal;font-variant:normal;font-weight:normal;font-stretch:normal;font-size:medium;line-height:normal;font-family:sans-serif;font-variant-ligatures:normal;font-variant-position:normal;font-variant-caps:normal;font-variant-numeric:normal;font-variant-alternates:normal;font-variant-east-asian:normal;font-feature-settings:normal;font-variation-settings:normal;text-indent:0;text-align:start;text-decoration:none;text-decoration-line:none;text-decoration-style:solid;text-decoration-color:#000000;letter-spacing:normal;word-spacing:normal;text-transform:none;writing-mode:lr-tb;direction:ltr;text-orientation:mixed;dominant-baseline:auto;baseline-shift:baseline;text-anchor:start;white-space:normal;shape-padding:0;shape-margin:0;inline-size:0;clip-rule:nonzero;display:inline;overflow:visible;visibility:visible;isolation:auto;mix-blend-mode:normal;color-interpolation:sRGB;color-interpolation-filters:linearRGB;solid-color:#000000;solid-opacity:1;vector-effect:none;fill:#000000;fill-opacity:1;fill-rule:nonzero;stroke:none;stroke-width:0.347246;stroke-linecap:butt;stroke-linejoin:miter;stroke-miterlimit:10;stroke-dasharray:none;stroke-dashoffset:0;stroke-opacity:1;color-rendering:auto;image-rendering:auto;shape-rendering:auto;text-rendering:auto;enable-background:accumulate;stop-color:#000000"
     d="M 1.268631,0.611456 C 0.856867,0.840563 0.50049,1.179084 0.281114,1.598738 0.07284,1.985941 -0.015804,2.431184 0.002294,2.869006 c 0,0.300632 0,0.601264 0,0.901897 C 0.128533,3.665009 0.230647,3.533504 0.359947,3.431259 0.489692,3.340749 0.64359,3.290541 0.79618,3.253489 c 0.276245,-0.06076 0.566955,-0.06395 0.844602,-0.02555 0.198041,0.03127 0.404317,0.089 0.573918,0.204373 0.100546,0.07746 0.181559,0.176683 0.273101,0.263789 0.01765,0.031 0.06996,0.04829 0.0827,0.0044 C 2.565501,3.295365 2.581551,2.88935 2.559321,2.484465 2.491861,1.740691 2.046504,1.041937 1.398492,0.669729 c -0.0378,-0.0229 -0.07552,-0.0459 -0.113387,-0.0687 -0.0056,0.0034 -0.01099,0.0069 -0.01648,0.0103 z M 1.327681,1.07585 C 1.612592,1.27178 1.843653,1.536119 1.996705,1.845086 2.078135,2.010882 2.135473,2.186857 2.16809,2.363691 2.20745,2.574258 2.20016,2.789279 2.19942,3.002408 1.863645,2.854737 1.489342,2.819176 1.126174,2.83564 0.868605,2.84944 0.610622,2.89869 0.373396,3.002172 0.370696,2.71698 0.366196,2.428223 0.454676,2.15352 0.589522,1.702492 0.889888,1.303154 1.285822,1.048491 c 0.01393,0.0092 0.02791,0.01824 0.04186,0.02735 z" />
  <path
     id="polyline440"
     style="color:#000000;font-style:normal;font-variant:normal;font-weight:normal;font-stretch:normal;font-size:medium;line-height:normal;font-family:sans-serif;font-variant-ligatures:normal;font-variant-position:normal;font-variant-caps:normal;font-variant-numeric:normal;font-variant-alternates:normal;font-variant-east-asian:normal;font-feature-settings:normal;font-variation-settings:normal;text-indent:0;text-align:start;text-decoration:none;text-decoration-line:none;text-decoration-style:solid;text-decoration-color:#000000;letter-spacing:normal;word-spacing:normal;text-transform:none;writing-mode:lr-tb;direction:ltr;text-orientation:mixed;dominant-baseline:auto;baseline-shift:baseline;text-anchor:start;white-space:normal;shape-padding:0;shape-margin:0;inline-size:0;clip-rule:nonzero;display:inline;overflow:visible;visibility:visible;isolation:auto;mix-blend-mode:normal;color-interpolation:sRGB;color-interpolation-filters:linearRGB;solid-color:#000000;solid-opacity:1;vector-effect:none;fill:#000000;fill-opacity:1;fill-rule:nonzero;stroke:none;stroke-width:0.034503;stroke-linecap:butt;stroke-linejoin:miter;stroke-miterlimit:10;stroke-dasharray:none;stroke-dashoffset:0;stroke-opacity:1;color-rendering:auto;image-rendering:auto;shape-rendering:auto;text-rendering:auto;enable-background:accumulate;stop-color:#000000"
     d="M 1.257406,0.556039 C 0.878608,1.421814 0.499786,2.287581 0.120967,3.153347 0.223105,3.197897 0.325191,3.242577 0.42729,3.287218 0.713568,2.632443 1.000048,1.977754 1.286402,1.323014 1.572718,1.977754 1.859156,2.632443 2.145398,3.287218 2.247499,3.242568 2.349583,3.197898 2.451723,3.153347 2.063271,2.265485 1.674834,1.377618 1.286402,0.489746 c -0.0097,0.02211 -0.01933,0.04419 -0.02899,0.06629 z" />
</svg>
