<?xml version="1.0" encoding="UTF-8"?>
<svg xmlns="http://www.w3.org/2000/svg" width="16px" height="16px" viewBox="0 0 16 16">
  <g fill="#2e3436">
    <path d="m 6.85738370391,1.00019419122 l 2.28635856006,0 l 0,14.0030022024 L 6.85738370391,15.0031963937 Z" fill="#2e3436" stroke-width="2.13862109" stroke-linecap="round" stroke-linejoin="round"/>
    <path d="m 6.86075815098,7.56067541374E-06 a 1.14329,1.00032 0 0,0 -1.14767926291,0.996769205256 L 5.71307888807,15.003222856 a 1.14329,1.00032 0 0,0 1.14767926291,0.996769205256 l 2.2869202478,0 A 1.14329,1.00032 0 0,0 10.2869193837,15.003222856 L 10.2869193837,0.996776765931 A 1.14329,1.00032 0 0,0 9.14767839878,7.56067541374E-06 Z" fill="#2e3436" stroke-linecap="round" stroke-linejoin="round"/>
    <path d="m 0,6.98477121668 l 0,0.996769205256 l 5.71307888807,0 l 0,-0.996769205256 z" fill="#2e3436"/>
    <path d="m 10.2869193837,1.97877619174 l 0,1.00415220481 l 5.71308148047,0 l 0,-1.00415220481 z" fill="#2e3436"/>
    <path d="m 10.2869193837,11.9833832421 l 0,0.996769205256 l 5.71308148047,0 l 0,-0.996769205256 z" fill="#2e3436"/>
  </g>
</svg>
