<?xml version="1.0" encoding="UTF-8" standalone="no"?>
<svg
   xmlns:dc="http://purl.org/dc/elements/1.1/"
   xmlns:cc="http://creativecommons.org/ns#"
   xmlns:rdf="http://www.w3.org/1999/02/22-rdf-syntax-ns#"
   xmlns:svg="http://www.w3.org/2000/svg"
   xmlns="http://www.w3.org/2000/svg"
   width="16.010202"
   height="16.052359"
   viewBox="0 0 4.2360326 4.2471867"
   version="1.1"
   id="svg4268">
  <defs
     id="defs4262" />
  <metadata
     id="metadata4265">
    <rdf:RDF>
      <cc:Work
         rdf:about="">
        <dc:format>image/svg+xml</dc:format>
        <dc:type
           rdf:resource="http://purl.org/dc/dcmitype/StillImage" />
        <dc:title />
      </cc:Work>
    </rdf:RDF>
  </metadata>
  <path
     id="path677"
     d="m 3.95603,4.13e-4 a 0.26460979,0.26460979 0 0 0 -0.0586,0.0098 L 2.04587,0.53951 A 0.26492938,0.26492938 0 1 0 2.1904,1.049276 L 3.58493,0.650838 3.18649,2.045369 A 0.26493157,0.26493157 0 1 0 3.69626,2.189901 L 4.22555,0.338338 A 0.26460979,0.26460979 0 0 0 3.95602,4.48e-4 Z"
     style="color:#000000;font-style:normal;font-variant:normal;font-weight:normal;font-stretch:normal;font-size:medium;line-height:normal;font-family:sans-serif;font-variant-ligatures:normal;font-variant-position:normal;font-variant-caps:normal;font-variant-numeric:normal;font-variant-alternates:normal;font-feature-settings:normal;text-indent:0;text-align:start;text-decoration:none;text-decoration-line:none;text-decoration-style:solid;text-decoration-color:#000000;letter-spacing:normal;word-spacing:normal;text-transform:none;writing-mode:lr-tb;direction:ltr;text-orientation:mixed;dominant-baseline:auto;baseline-shift:baseline;text-anchor:start;white-space:normal;shape-padding:0;clip-rule:nonzero;display:inline;overflow:visible;visibility:visible;isolation:auto;mix-blend-mode:normal;color-interpolation:sRGB;color-interpolation-filters:linearRGB;solid-color:#000000;solid-opacity:1;vector-effect:none;fill:#000000;fill-opacity:1;fill-rule:nonzero;stroke:none;stroke-width:0.529167;stroke-linecap:round;stroke-linejoin:round;stroke-miterlimit:4;stroke-dasharray:none;stroke-dashoffset:0;stroke-opacity:1;color-rendering:auto;image-rendering:auto;shape-rendering:auto;text-rendering:auto;enable-background:accumulate" />
  <g
     aria-label="R"
     id="text681"
     style="font-style:normal;font-variant:normal;font-weight:bold;font-stretch:normal;font-size:2.82223px;line-height:1.25;font-family:sans-serif;-inkscape-font-specification:'sans-serif Bold';letter-spacing:0px;word-spacing:0px;fill:#000000;fill-opacity:1;stroke:none;stroke-width:0.264583"
     transform="translate(-127,-38.889151)">
    <path
       d="m 131.03978,42.854114 q 0.18627,0 0.18627,0.141112 0,0.141111 -0.18627,0.141111 h -0.22296 q -0.10442,-0.2032 -0.26811,-0.397934 -0.16087,-0.197556 -0.25118,-0.228601 h -0.27093 v 0.344312 h 0.0988 q 0.18626,0 0.18626,0.141112 0,0.141111 -0.18626,0.141111 h -0.42334 q -0.18626,0 -0.18626,-0.141111 0,-0.141112 0.18626,-0.141112 h 0.0423 V 41.7732 h -0.0423 q -0.18626,0 -0.18626,-0.141111 0,-0.08185 0.048,-0.110067 0.048,-0.03104 0.13829,-0.03104 h 0.62936 q 0.27376,0 0.44591,0.141112 0.17498,0.138289 0.17498,0.361245 0,0.259645 -0.3048,0.426157 0.18344,0.160867 0.3556,0.434623 z m -1.01318,-0.626535 h 0.21449 q 0.1778,0 0.29351,-0.06773 0.11853,-0.07056 0.11853,-0.174979 0,-0.09031 -0.0875,-0.149578 -0.0875,-0.06209 -0.22296,-0.06209 h -0.31609 z"
       style="font-style:normal;font-variant:normal;font-weight:bold;font-stretch:normal;font-size:2.82223px;font-family:FreeMono;-inkscape-font-specification:'FreeMono Bold';stroke-width:0.264583"
       id="path1397" />
  </g>
  <path
     style="color:#000000;font-style:normal;font-variant:normal;font-weight:normal;font-stretch:normal;font-size:medium;line-height:normal;font-family:sans-serif;font-variant-ligatures:normal;font-variant-position:normal;font-variant-caps:normal;font-variant-numeric:normal;font-variant-alternates:normal;font-variant-east-asian:normal;font-feature-settings:normal;font-variation-settings:normal;text-indent:0;text-align:start;text-decoration:none;text-decoration-line:none;text-decoration-style:solid;text-decoration-color:#000000;letter-spacing:normal;word-spacing:normal;text-transform:none;writing-mode:lr-tb;direction:ltr;text-orientation:mixed;dominant-baseline:auto;baseline-shift:baseline;text-anchor:start;white-space:normal;shape-padding:0;shape-margin:0;inline-size:0;clip-rule:nonzero;display:inline;overflow:visible;visibility:visible;isolation:auto;mix-blend-mode:normal;color-interpolation:sRGB;color-interpolation-filters:linearRGB;solid-color:#000000;solid-opacity:1;vector-effect:none;fill:#000000;fill-opacity:1;fill-rule:nonzero;stroke:none;stroke-linecap:round;stroke-linejoin:miter;stroke-miterlimit:4;stroke-dasharray:0.529167, 1.05833000000000022;stroke-dashoffset:0;stroke-opacity:1;color-rendering:auto;image-rendering:auto;shape-rendering:auto;text-rendering:auto;enable-background:accumulate;stop-color:#000000;stop-opacity:1;opacity:1"
     d="M 3.6953125 0.26953125 A 0.2645835 0.2645835 0 0 0 3.5175781 0.34570312 L 3.4453125 0.41796875 A 0.2645835 0.2645835 0 0 0 3.4453125 0.79296875 A 0.2645835 0.2645835 0 0 0 3.8183594 0.79296875 L 3.890625 0.72070312 A 0.2645835 0.2645835 0 0 0 3.890625 0.34570312 A 0.2645835 0.2645835 0 0 0 3.6953125 0.26953125 z M 2.875 1.0898438 A 0.2645835 0.2645835 0 0 0 2.6972656 1.1679688 L 2.3222656 1.5410156 A 0.2645835 0.2645835 0 0 0 2.3222656 1.9160156 A 0.2645835 0.2645835 0 0 0 2.6972656 1.9160156 L 3.0703125 1.5410156 A 0.2645835 0.2645835 0 0 0 3.0703125 1.1679688 A 0.2645835 0.2645835 0 0 0 2.875 1.0898438 z M 1.7519531 2.2128906 A 0.2645835 0.2645835 0 0 0 1.5742188 2.2890625 L 1.1992188 2.6640625 A 0.2645835 0.2645835 0 0 0 1.1992188 3.0371094 A 0.2645835 0.2645835 0 0 0 1.5742188 3.0371094 L 1.9492188 2.6640625 A 0.2645835 0.2645835 0 0 0 1.9492188 2.2890625 A 0.2645835 0.2645835 0 0 0 1.7519531 2.2128906 z M 0.63085938 3.3339844 A 0.2645835 0.2645835 0 0 0 0.45117188 3.4121094 L 0.078125 3.7871094 A 0.2645835 0.2645835 0 0 0 0.078125 4.1601562 A 0.2645835 0.2645835 0 0 0 0.45117188 4.1601562 L 0.82617188 3.7871094 A 0.2645835 0.2645835 0 0 0 0.82617188 3.4121094 A 0.2645835 0.2645835 0 0 0 0.63085938 3.3339844 z "
     id="path684" />
</svg>
