<?xml version="1.0" encoding="UTF-8"?>
<svg xmlns="http://www.w3.org/2000/svg" width="16px" height="16px" viewBox="0 0 16 16">
  <g fill="#2e3436">
    <path d="M 7.99762170047,2.99998407853 L 14.9977152214,0.999960172702 L 12.9976883392,8.00005140225" fill="#2e3436" stroke-width="2.00002785" stroke-linecap="round" stroke-linejoin="round" fill-opacity="0"/>
    <path d="m 14.7221212353,0.039346535618 l -6.99812511665,2.00051903048 a 1.00001,1.00001 0 0,0 -0.68652483784,1.23279235138 a 1.00001,1.00001 0 0,0 1.23279217727,0.686522456572 L 13.5410030722,2.45325685484 L 12.0350774141,7.72399484144 a 1.00001,1.00001 0 0,0 0.68652483784,1.24017386623 a 1.00001,1.00001 0 0,0 1.24017407131,-0.686522456572 L 15.9622953066,1.272138887 A 1.00011,1.00011 0 0,0 14.7221212353,0.039346535618 Z" fill="#2e3436" stroke-linecap="round" stroke-linejoin="round"/>
    <path d="M 7.99762170047,13.000118726 L 0.997528179531,15.0001426318 L 2.99755468382,8.00005140225" fill="#2e3436" stroke-width="2.00002785" stroke-linecap="round" stroke-linejoin="round" fill-opacity="0"/>
    <path d="m 3.2726569468,7.03747238487 a 1.00001,1.00001 0 0,0 -1.24017407131,0.686522456572 l -1.99313671133,6.99812584925 a 1.00011,1.00011 0 0,0 1.23279179932,1.24017386623 L 8.27026345809,13.9617755265 A 1.00001,1.00001 0 0,0 8.95678829593,12.7289831751 A 1.00001,1.00001 0 0,0 7.72399611866,12.0350754241 L 2.45325612663,13.5410027229 L 3.9591821626,8.27764625111 A 1.00001,1.00001 0 0,0 3.2726569468,7.03747238487 Z" fill="#2e3436" stroke-linecap="round" stroke-linejoin="round"/>
    <path d="m 13.2900152735,1.29428343156 l -12.003113144,11.9957288884 l 1.41734179578,1.41734156141 l 12.003113144,-12.0031104033 z" fill="#2e3436"/>
  </g>
</svg>
