<?xml version="1.0" encoding="UTF-8"?>
<svg xmlns="http://www.w3.org/2000/svg" width="16px" height="16px" viewBox="0 0 16 16">
  <g fill="#2e3436">
    <path d="M 1.00021788944,0.997722793291 L 15.0032305381,0.997722793291 l 0,14.0030116561 l -14.0030126487,0 z" fill="#2e3436" stroke-width="2.00043193" stroke-linecap="square" stroke-linejoin="round" fill-opacity="0"/>
    <path d="m 0.99677021794,0 a 1.00032,1.00032 0 0,0 -0.99677021794,0.996770147288 l 0,14.0064593274 a 1.00032,1.00032 0 0,0 0.99677021794,0.996770147288 L 15.0032305381,15.999999622 a 1.00032,1.00032 0 0,0 0.99677021794,-0.996770147288 L 16.0000007561,0.996770147288 A 1.00032,1.00032 0 0,0 15.0032305381,0 Z m 1.00415322499,2.0009233011 l 12.0055368773,0 l 0,11.9981530198 l -12.0055368773,0 z" fill="#2e3436" stroke-linecap="square" stroke-linejoin="round"/>
    <path d="m 2.00092344293,8.29903236731 l 0,1.4028619688 l 12.0055368773,0 l 0,-1.4028619688 z" fill="#2e3436"/>
    <path d="m 4.64421008322,2.64328645293 l -1.99354043588,2.0009233011 a 0.500157,0.500157 0 0,0 0,0.70881399093 l 1.99354043588,2.0009233011 a 0.500107,0.500107 0 0,0 0.708814041171,0 a 0.500107,0.500107 0 0,0 0,-0.70881399093 L 3.70650770204,4.9986167495 L 5.35302412439,3.35210044386 a 0.500107,0.500107 0 0,0 0,-0.70881399093 a 0.500107,0.500107 0 0,0 -0.708814041171,0 z" fill="#2e3436" stroke-linecap="round" stroke-linejoin="round"/>
    <path d="m 6.9995367664,2.49561876165 a 0.500107,0.500107 0 0,0 -0.354407020586,0.14766013059 l -2.00091966259,2.0009233011 a 0.500157,0.500157 0 0,0 0,0.70881399093 l 2.00091966259,2.0009233011 a 0.500107,0.500107 0 0,0 0.708814041171,0 a 0.500107,0.500107 0 0,0 0,-0.70881399093 L 5.70743114498,4.9986167495 L 7.35394378698,3.35210044386 a 0.500107,0.500107 0 0,0 0,-0.70881399093 a 0.500107,0.500107 0 0,0 -0.354407020586,-0.14766013059 z" fill="#2e3436" stroke-linecap="round" stroke-linejoin="round"/>
    <path d="m 11.0013836523,2.49561876165 a 0.500107,0.500107 0 0,0 -0.354407020586,0.14766013059 a 0.500107,0.500107 0 0,0 0,0.70881399093 l 1.64651642235,1.64651630564 l -1.64651642235,1.64651630564 a 0.500107,0.500107 0 0,0 0,0.70881399093 a 0.500107,0.500107 0 0,0 0.708814041171,0 l 2.00092344293,-2.0009233011 a 0.500157,0.500157 0 0,0 0,-0.70881399093 l -2.00092344293,-2.0009233011 a 0.500107,0.500107 0 0,0 -0.354407020586,-0.14766013059 z" fill="#2e3436" stroke-linecap="round" stroke-linejoin="round"/>
    <path d="m 8.64605318874,2.64328645293 a 0.500107,0.500107 0 0,0 0,0.70881399093 l 1.64651642235,1.64651630564 l -1.64651642235,1.64651630564 a 0.500107,0.500107 0 0,0 0,0.70881399093 a 0.500107,0.500107 0 0,0 0.708814041171,0 l 2.00092344293,-2.0009233011 a 0.500157,0.500157 0 0,0 0,-0.70881399093 l -2.00092344293,-2.0009233011 a 0.500107,0.500107 0 0,0 -0.708814041171,0 z" fill="#2e3436" stroke-linecap="round" stroke-linejoin="round"/>
  </g>
</svg>
