<?xml version="1.0" encoding="UTF-8"?>
<svg xmlns="http://www.w3.org/2000/svg" width="16px" height="16px" viewBox="0 0 16 16">
  <g fill="#2e3436">
    <path d="m 14.9411846226,0.00169705875598 a 1.00056,1.00035 0 0,0 -0.221544932755,0.036935317545 l -7.00126984685,2.0009982365 a 1.00177,1.00156 0 1,0 0.546511532276,1.92716011356 l 5.27310971437,-1.50628613964 l -1.5066038559,5.27200167778 a 1.00177,1.00156 0 1,0 1.92756569706,0.546397724376 l 2.00141778926,-6.99980029599 a 1.00056,1.00035 0 0,0 -1.01918609746,-1.27740663412 z" fill="#2e3436" stroke-width="2.00071649" stroke-linecap="round" stroke-linejoin="round"/>
    <path d="m 14.4701284433,14.9291124494 q 0.704326847406,0 0.704326847406,0.533469607139 q 0,0.533469607139 -0.704326847406,0.533469607139 l -2.46514585656,0 q -0.704326847406,0 -0.704326847406,-0.533469607139 q 0,-0.3094136197 0.181425599481,-0.416106406983 q 0.181425599481,-0.117365090397 0.522912591751,-0.117365090397 l 0.693656087887,0 l 0,-4.08637722849 l -1.14186580045,0 l 0,0.992253507083 q 0,0.704179957033 -0.533579569995,0.704179957033 q -0.533583351271,0 -0.533583351271,-0.704179957033 l 0,-2.05919272136 l 5.50656188374,0 l 0,2.05919272136 q 0,0.341419187595 -0.117408604916,0.522800328411 q -0.106707595193,0.181380006671 -0.416193652732,0.181380006671 q -0.533579569995,0 -0.533579569995,-0.704179957033 l 0,-0.992253507083 l -1.16320731949,0 l 0,4.08637722849 z" stroke-width="1.00035635"/>
    <path d="m 1.00111916302,14.9983538833 l 13.0060109992,-13.0032879805" fill="#2e3436" stroke-width="2.00071649" stroke-dasharray="2.00071649, 4.00141785" stroke-linecap="round" fill-opacity="0"/>
    <path d="m 14.0090964255,0.993338505664 a 1.00046,1.00025 0 0,0 -0.708989160123,0.29535022346 L 13.0268533898,1.56188759131 a 1.00046,1.00025 0 0,0 0,1.41029741153 a 1.00046,1.00025 0 0,0 1.41797832025,0 l 0.273272781878,-0.273200374381 a 1.00046,1.00025 0 0,0 0,-1.41029703348 a 1.00046,1.00025 0 0,0 -0.708989160123,-0.29535022346 z m -3.81081484502,3.39652756979 l -1.41797832025,1.41029703348 a 1.00046,1.00025 0 0,0 0,1.41768145065 a 1.00046,1.00025 0 0,0 1.41797832025,0 l 1.41797832025,-1.41768145065 a 1.00046,1.00025 0 0,0 0,-1.41029703348 a 1.00046,1.00025 0 0,0 -1.41797832025,0 z m -4.24655012965,4.24565955674 l -1.41059348915,1.41029703348 a 1.00046,1.00025 0 0,0 0,1.41768107261 a 1.00046,1.00025 0 0,0 1.41059348915,0 l 1.41797832025,-1.41768107261 a 1.00046,1.00025 0 0,0 0,-1.41029703348 a 1.00046,1.00025 0 0,0 -1.41797832025,0 z m -4.24655012965,4.23827551762 l -1.41059348915,1.41768107261 a 1.00046,1.00025 0 0,0 0,1.41768107261 a 1.00046,1.00025 0 0,0 1.41059348915,0 l 1.41797832025,-1.41768107261 a 1.00046,1.00025 0 0,0 0,-1.41768107261 a 1.00046,1.00025 0 0,0 -1.41797832025,0 z" fill="#2e3436" stroke-dasharray="2.00071649, 4.00141785" stroke-linecap="round"/>
  </g>
</svg>
