<?xml version="1.0" encoding="UTF-8" standalone="no"?>
<svg
   width="15.996548"
   height="15.981791"
   viewBox="0 0 4.2324198 4.2285158"
   version="1.1"
   id="svg4268"
   xmlns="http://www.w3.org/2000/svg"
   xmlns:svg="http://www.w3.org/2000/svg"
   xmlns:rdf="http://www.w3.org/1999/02/22-rdf-syntax-ns#"
   xmlns:cc="http://creativecommons.org/ns#"
   xmlns:dc="http://purl.org/dc/elements/1.1/">
  <defs
     id="defs4262" />
  <metadata
     id="metadata4265">
    <rdf:RDF>
      <cc:Work
         rdf:about="">
        <dc:format>image/svg+xml</dc:format>
        <dc:type
           rdf:resource="http://purl.org/dc/dcmitype/StillImage" />
      </cc:Work>
    </rdf:RDF>
  </metadata>
  <g
     id="c4-database"
     style="display:inline"
     transform="translate(-103.1875,4.4921875)">
    <g
       id="path1355">
      <path
         style="color:#000000;fill:#000000;fill-opacity:0;stroke-width:0.532917;stroke-linecap:round;stroke-linejoin:round;-inkscape-stroke:none"
         d="m 107.15363,-3.4343085 a 1.8457534,0.79187459 0 0 1 -1.84575,0.7918746 1.8457534,0.79187459 0 0 1 -1.84576,-0.7918746 1.8457534,0.79187459 0 0 1 1.84576,-0.7918746 1.8457534,0.79187459 0 0 1 1.84575,0.7918746 z"
         id="path1435" />
      <path
         style="color:#000000;fill:#000000;stroke-linecap:round;stroke-linejoin:round;-inkscape-stroke:none"
         d="m 105.30859,-4.4921875 c -0.54058,0 -1.03101,0.091243 -1.41015,0.2539063 -0.18958,0.081332 -0.353,0.1792948 -0.48047,0.3085937 -0.12747,0.1292989 -0.22266,0.3028449 -0.22266,0.4960937 0,0.1932489 0.0952,0.3648418 0.22266,0.4941407 0.12747,0.1292989 0.29089,0.2292153 0.48047,0.3105468 0.37914,0.1626631 0.86957,0.2539063 1.41015,0.2539063 0.54058,0 1.03101,-0.091243 1.41016,-0.2539063 0.18957,-0.081331 0.353,-0.1812479 0.48047,-0.3105468 0.12747,-0.1292989 0.2207,-0.3008918 0.2207,-0.4941407 0,-0.1932488 -0.0932,-0.3667948 -0.2207,-0.4960937 -0.12747,-0.1292989 -0.2909,-0.2272622 -0.48047,-0.3085937 -0.37915,-0.1626631 -0.86958,-0.2539063 -1.41016,-0.2539063 z m 0,0.5332031 c 0.4788,0 0.91034,0.085045 1.19922,0.2089844 0.14445,0.06197 0.25122,0.1351345 0.31055,0.1953125 0.0593,0.060178 0.0684,0.095673 0.0684,0.1210937 0,0.025421 -0.009,0.060916 -0.0684,0.1210938 -0.0593,0.060178 -0.1661,0.1313899 -0.31055,0.1933594 -0.28888,0.1239389 -0.72042,0.2109375 -1.19922,0.2109375 -0.4788,0 -0.91228,-0.086999 -1.20117,-0.2109375 -0.14444,-0.06197 -0.25122,-0.1331814 -0.31054,-0.1933594 -0.0593,-0.060178 -0.0684,-0.095673 -0.0684,-0.1210938 0,-0.025421 0.009,-0.060916 0.0684,-0.1210937 0.0593,-0.060178 0.1661,-0.133343 0.31054,-0.1953125 0.28889,-0.1239389 0.72237,-0.2089844 1.20117,-0.2089844 z"
         id="path1437" />
    </g>
    <g
       id="path1360">
      <path
         style="color:#000000;fill:#000000;fill-opacity:0;stroke-width:0.529167;-inkscape-stroke:none"
         d="m 103.45208,-3.4395833 v 2.38125 c 1e-5,0.26458326 1.05834,0.52916663 1.85209,0.52916663 0.79375,0 1.85208,-0.26458337 1.85208,-0.52916663 v -2.38125"
         id="path1427" />
      <path
         style="color:#000000;fill:#000000;-inkscape-stroke:none"
         d="m 103.1875,-3.4394531 v 2.3808594 c 0,0.12126615 0.0602,0.21632712 0.11914,0.27929683 0.059,0.0629697 0.12399,0.10685875 0.19531,0.14648437 0.14266,0.0792512 0.31478,0.14018 0.50977,0.19335937 0.38998,0.10635875 0.86669,0.17578126 1.29297,0.17578125 0.42627,1e-8 0.90298,-0.0694224 1.29297,-0.17578125 0.19499,-0.0531794 0.36711,-0.11410751 0.50976,-0.19335937 0.0713,-0.0396259 0.13634,-0.0835131 0.19531,-0.14648437 0.059,-0.0629713 0.11719,-0.15802985 0.11719,-0.27929683 v -2.3808594 h -0.52734 V -1.125 c -0.0108,0.00848 -0.0168,0.014776 -0.043,0.029297 -0.0806,0.044771 -0.22182,0.10044512 -0.39063,0.14648435 -0.33762,0.0920785 -0.78682,0.15625 -1.15429,0.15625 -0.36748,0 -0.81668,-0.0641714 -1.1543,-0.15625 -0.16881,-0.0460393 -0.31199,-0.10171235 -0.39258,-0.14648435 -0.0248,-0.013764 -0.0299,-0.018792 -0.041,-0.027344 v -2.3164062 z"
         id="path1429" />
    </g>
  </g>
</svg>
