<?xml version="1.0" encoding="UTF-8" standalone="no"?>
<svg
   width="9.9959583"
   height="15.996732"
   viewBox="0 0 2.6447639 4.2324687"
   version="1.1"
   id="svg4268"
   xmlns="http://www.w3.org/2000/svg"
   xmlns:svg="http://www.w3.org/2000/svg"
   xmlns:rdf="http://www.w3.org/1999/02/22-rdf-syntax-ns#"
   xmlns:cc="http://creativecommons.org/ns#"
   xmlns:dc="http://purl.org/dc/elements/1.1/">
  <defs
     id="defs4262" />
  <metadata
     id="metadata4265">
    <rdf:RDF>
      <cc:Work
         rdf:about="">
        <dc:format>image/svg+xml</dc:format>
        <dc:type
           rdf:resource="http://purl.org/dc/dcmitype/StillImage" />
      </cc:Work>
    </rdf:RDF>
  </metadata>
  <g
     id="extension"
     style="display:inline"
     transform="translate(-60.325077,-33.74019)">
    <path
       style="color:#000000;fill:#000000;stroke-width:0.529167;stroke-linecap:round;stroke-linejoin:round;-inkscape-stroke:none"
       d="m 61.642578,33.740234 c -0.08646,0.0016 -0.166681,0.04537 -0.214844,0.117188 l -1.058593,1.58789 c -0.11581,0.175835 0.01016,0.409933 0.220703,0.410157 h 2.117187 c 0.209665,-0.0018 0.334087,-0.235057 0.21875,-0.410157 l -1.058593,-1.58789 c -0.05009,-0.07469 -0.13469,-0.118834 -0.22461,-0.117188 z"
       id="path4621-9" />
    <path
       style="color:#000000;fill:#000000;stroke-linecap:round;-inkscape-stroke:none"
       d="m 61.648437,35.591797 a 0.2645835,0.2645835 0 0 0 -0.265625,0.263672 v 1.853515 a 0.2645835,0.2645835 0 0 0 0.265625,0.263672 0.2645835,0.2645835 0 0 0 0.263672,-0.263672 v -1.853515 a 0.2645835,0.2645835 0 0 0 -0.263672,-0.263672 z"
       id="path4625-2" />
  </g>
</svg>
