<?xml version="1.0" encoding="UTF-8"?>
<svg xmlns="http://www.w3.org/2000/svg" width="16px" height="16px" viewBox="0 0 16 16">
  <g fill="#2e3436">
    <path d="m 1.00222150644,1.00270663059 l 13.9965432002,0 l 0,13.9965436727 L 1.00222150644,14.9992503033 Z" fill="#2e3436" stroke-width="1.99950737" stroke-linecap="round" stroke-linejoin="round" fill-opacity="0"/>
    <path d="m 1.00369666966,7.55718825474E-06 a 0.999854,0.999854 0 0,0 -1.00368911247,1.00368906506 l 0,13.9926063776 a 0.999854,0.999854 0 0,0 1.00368911247,1.00368906506 l 13.9926070385,0 a 0.999854,0.999854 0 0,0 1.00368911247,-1.00368906506 l 0,-13.9926063776 a 0.999854,0.999854 0 0,0 -1.00368911247,-1.00368906506 z m 0.996309139931,1.99999853579 l 11.9999887587,0 l 0,11.9999874362 L 2.00000580959,13.9999935292 Z" fill="#2e3436" stroke-linecap="round" stroke-linejoin="round"/>
    <path d="m 7.30765477789,6.82242551216 q 0,0.251956656408 -0.0559874318285,0.48521305048 q -0.0559874318285,0.233290401419 -0.214612820785,0.48521305048 q -0.15862916755,0.242623528914 -0.401233437093,0.429225621296 q -0.233275298061,0.177291636453 -0.634509113013,0.298584507939 q -0.391902198455,0.111959743992 -0.905107854188,0.111959743992 L 4.18176578388,8.63262148635 l 0,0.933101148171 L 5.10553611534,9.56572263452 q 0.615846635737,0 0.615846635737,0.466550574085 q 0,0.466550574085 -0.615846635737,0.466550574085 L 3.1086994128,10.4988237827 q -0.615846635737,0 -0.615846635737,-0.466550574085 q 0,-0.466550574085 0.615846635737,-0.466550574085 l 0.139966690274,0 l 0,-3.57377543262 l -0.139966690274,0 q -0.615846635737,0 -0.615846635737,-0.466550574085 q 0,-0.270585125456 0.158625388956,-0.3639164004 q 0.15862916755,-0.102626616497 0.457219357484,-0.102626616497 l 2.17412608021,0 q 0.886446132631,0 1.45563770876,0.49454239938 q 0.569191576125,0.49454239938 0.569191576125,1.26901816609 z m -3.12588899402,-0.830459417297 l 0,1.70757313628 l 1.10105970913,0 q 0.485212317679,0 0.755811814573,-0.223957273925 q 0.279929601954,-0.233290401419 0.279929601954,-0.625179734143 q 0,-0.401233796001 -0.279929601954,-0.625175955549 q -0.270600252613,-0.233290401419 -0.755811814573,-0.233290401419 z m 8.85513386627,3.57377543262 q 0.615846635737,0 0.615846635737,0.466550574085 q 0,0.466550574085 -0.615846635737,0.466550574085 L 12.2997495571,10.4988426757 Q 11.9545024183,9.82700863983 11.4133034245,9.18317020788 Q 10.8814360472,8.52999864844 10.5828435901,8.42735691757 L 9.68706621885,8.42735691757 l 0,1.13838460992 l 0.326583905847,0 q 0.615847013596,0 0.615847013596,0.466550574085 q 0,0.466550574085 -0.615847013596,0.466550574085 l -1.39965178836,0 q -0.615846635737,0 -0.615846635737,-0.466550574085 q 0,-0.466550574085 0.615846635737,-0.466550574085 l 0.139966690274,0 l 0,-3.57377543262 l -0.139966690274,0 q -0.615846635737,0 -0.615846635737,-0.466550574085 q 0,-0.270585125456 0.15862916755,-0.3639164004 q 0.158625388956,-0.102626616497 0.457219357484,-0.102626616497 l 2.08081596099,0 q 0.905107854188,0 1.47429980817,0.466550574085 q 0.578522814763,0.457217446591 0.578522814763,1.19436826051 q 0,0.858451242592 -1.00774958991,1.40898107116 q 0.606515774958,0.53186735217 1.17570772894,1.43697667505 z m -3.3498334313,-2.07148575809 l 0.709157132821,0 q 0.587853675541,0 0.970425013217,-0.223957273925 q 0.391902576314,-0.233290401419 0.391902576314,-0.578521653859 q 0,-0.298584507939 -0.289262729889,-0.494546177974 q -0.289262729889,-0.205291018936 -0.737150093016,-0.205291018936 L 9.68706621885,5.9919396447 Z" stroke-width="0.99975179"/>
  </g>
</svg>
