<?xml version="1.0" encoding="UTF-8" standalone="no"?>
<svg
   width="11.897963"
   height="11.898783"
   viewBox="0 0 3.1480025 3.1482197"
   version="1.1"
   id="svg4268"
   xmlns="http://www.w3.org/2000/svg"
   xmlns:svg="http://www.w3.org/2000/svg"
   xmlns:rdf="http://www.w3.org/1999/02/22-rdf-syntax-ns#"
   xmlns:cc="http://creativecommons.org/ns#"
   xmlns:dc="http://purl.org/dc/elements/1.1/">
  <defs
     id="defs4262" />
  <metadata
     id="metadata4265">
    <rdf:RDF>
      <cc:Work
         rdf:about="">
        <dc:format>image/svg+xml</dc:format>
        <dc:type
           rdf:resource="http://purl.org/dc/dcmitype/StillImage" />
      </cc:Work>
    </rdf:RDF>
  </metadata>
  <g
     id="comment-line"
     style="display:inline"
     transform="translate(-9.5246315,4.3339844)">
    <path
       style="color:#000000;fill:#000000;stroke-linecap:round;stroke-dasharray:0.529167, 1.05833;-inkscape-stroke:none"
       d="m 12.408203,-4.3339844 a 0.2645835,0.2645835 0 0 0 -0.185547,0.078125 l -0.375,0.3730469 a 0.2645835,0.2645835 0 0 0 0,0.375 0.2645835,0.2645835 0 0 0 0.375,0 l 0.373047,-0.375 a 0.2645835,0.2645835 0 0 0 0,-0.3730469 0.2645835,0.2645835 0 0 0 -0.1875,-0.078125 z m -1.121094,1.1230469 a 0.2645835,0.2645835 0 0 0 -0.1875,0.076172 l -0.375,0.375 a 0.2645835,0.2645835 0 0 0 0,0.375 0.2645835,0.2645835 0 0 0 0.375,0 l 0.373047,-0.375 a 0.2645835,0.2645835 0 0 0 0,-0.375 0.2645835,0.2645835 0 0 0 -0.185547,-0.076172 z m -1.123046,1.1230469 a 0.2645835,0.2645835 0 0 0 -0.1875005,0.076172 l -0.375,0.3750001 a 0.2645835,0.2645835 0 0 0 0,0.3730468 0.2645835,0.2645835 0 0 0 0.375,0 l 0.3750005,-0.3730468 a 0.2645835,0.2645835 0 0 0 0,-0.3750001 0.2645835,0.2645835 0 0 0 -0.1875,-0.076172 z"
       id="path914" />
  </g>
</svg>
