<?xml version="1.0" encoding="UTF-8"?>
<svg xmlns="http://www.w3.org/2000/svg" width="16px" height="16px" viewBox="0 0 16 16">
  <g fill="#2e3436">
    <path d="m 14.9424037705,0.00168229481753 a 0.99942,1.00214 0 0,0 -0.22129189483,0.0370013965944 l -6.99327333449,2.00457736059 a 1.00063,1.00335 0 1,0 0.545887333192,1.93060827389 l 5.26708324611,-1.50898095758 l -1.50487930876,5.2814335409 a 1.00063,1.00335 0 1,0 1.9253641246,0.547375256036 l 1.99912808954,-7.01232327348 a 0.99942,1.00214 0 0,0 -1.01800692448,-1.2796753118 z" fill="#2e3436" stroke-width="2.00136147" stroke-linecap="round" stroke-linejoin="round"/>
    <path d="m 10.976916468,15.9935196428 q -0.714184748139,0 -0.714184748139,-0.534424009778 q 0,-0.256525342572 0.170567365942,-0.395473729363 q 0.170567365942,-0.138950280415 0.479677281709,-0.138950280415 l 0,-4.09368795277 q -0.650229539824,0 -0.650229539824,-0.534424009778 q 0,-0.320654784592 0.181218383921,-0.427539207823 q 0.191869401901,-0.106883665782 0.532973918131,-0.106883665782 l 2.2598023122,0 q 1.16187876026,0 1.9506772886,0.855078415645 q 0.79945710024,0.855078415645 0.79945710024,2.11631892723 l 0,0.502358531319 q 0,1.25055252373 -0.778139956454,2.009434504 q -0.767477607604,0.74819361369 -2.05727056145,0.74819361369 z m 3.94399264173,-3.28136338217 q 0,-0.80163620403 -0.490335853602,-1.33606021381 q -0.479673504752,-0.545112376356 -1.27913060499,-0.545112376356 l -1.17253733215,0 l 0,4.09368795277 l 1.18319590404,0 q 0.532973918131,0 0.89539180119,-0.160325498673 q 0.373087785822,-0.160325498673 0.543632490024,-0.438227574401 q 0.181218383921,-0.27790056083 0.245162261366,-0.545112376356 q 0.0746326649914,-0.267212951701 0.0746326649914,-0.577177854816 z" stroke-width="1.00067884"/>
    <path d="m 0.999975733053,14.9965615117 l 12.9911561614,-13.0265514845" fill="#2e3436" stroke-width="2.00136147" stroke-dasharray="2.00136147, 4.00270781" stroke-linecap="round" fill-opacity="0"/>
    <path d="M 13.284916525,1.26236911099 L 13.0119747469,1.53605673901 a 0.99932,1.00204 0 0,0 0,1.41282050105 a 0.99932,1.00204 0 0,0 1.41635877388,0 l 0.272960662901,-0.273689142916 a 0.99932,1.00204 0 0,0 0,-1.41282012232 a 0.99932,1.00204 0 0,0 -1.41635877388,0 z m -3.09828292937,3.10672550091 l -1.41635877388,1.41282012232 a 0.99932,1.00204 0 0,0 0,1.42021775057 a 0.99932,1.00204 0 0,0 1.41635877388,0 l 1.41635877388,-1.42021775057 a 0.99932,1.00204 0 0,0 0,-1.41282012232 a 0.99932,1.00204 0 0,0 -1.41635877388,0 z m -4.24169992513,4.25325524473 l -1.40898237738,1.41282012232 a 0.99932,1.00204 0 0,0 0,1.42021737184 a 0.99932,1.00204 0 0,0 1.40898237738,0 l 1.41635877388,-1.42021737184 a 0.99932,1.00204 0 0,0 0,-1.41282012232 a 0.99932,1.00204 0 0,0 -1.41635877388,0 z m -4.24169992513,4.24585799521 l -1.40898237738,1.42021737184 a 0.99932,1.00204 0 0,0 0,1.42021737184 a 0.99932,1.00204 0 0,0 1.40898237738,0 l 1.41635877388,-1.42021737184 a 0.99932,1.00204 0 0,0 0,-1.42021737184 a 0.99932,1.00204 0 0,0 -1.41635877388,0 z" fill="#2e3436" stroke-dasharray="2.00136147, 4.00270781" stroke-linecap="round"/>
  </g>
</svg>
