<?xml version="1.0" encoding="UTF-8" standalone="no"?>
<svg
   width="14.003445"
   height="14.003445"
   viewBox="0 0 3.705078 3.7050782"
   version="1.1"
   id="svg4268"
   xmlns="http://www.w3.org/2000/svg"
   xmlns:svg="http://www.w3.org/2000/svg"
   xmlns:rdf="http://www.w3.org/1999/02/22-rdf-syntax-ns#"
   xmlns:cc="http://creativecommons.org/ns#"
   xmlns:dc="http://purl.org/dc/elements/1.1/">
  <defs
     id="defs4262" />
  <metadata
     id="metadata4265">
    <rdf:RDF>
      <cc:Work
         rdf:about="">
        <dc:format>image/svg+xml</dc:format>
        <dc:type
           rdf:resource="http://purl.org/dc/dcmitype/StillImage" />
      </cc:Work>
    </rdf:RDF>
  </metadata>
  <g
     id="entry-point-pseudostate"
     style="display:inline"
     transform="translate(-35.763546,-63.613209)">
    <g
       id="path1192-7-12"
       style="display:inline"
       transform="translate(-16.107548,58.716725)">
      <path
         style="color:#000000;fill:#000000;fill-opacity:0;stroke-width:0.529167;stroke-linecap:round;stroke-linejoin:round;-inkscape-stroke:none"
         d="m 55.310908,6.748529 a 1.5875,1.5875 0 0 1 -1.5875,1.5874999 1.5875,1.5875 0 0 1 -1.5875,-1.5874999 1.5875,1.5875 0 0 1 1.5875,-1.5875 1.5875,1.5875 0 0 1 1.5875,1.5875 z"
         id="path4146-93" />
      <path
         style="color:#000000;fill:#000000;stroke-linecap:round;stroke-linejoin:round;-inkscape-stroke:none"
         d="m 53.722656,4.8964844 c -1.019742,0 -1.851562,0.8318199 -1.851562,1.8515625 0,1.0197425 0.83182,1.8535156 1.851562,1.8535156 1.019743,0 1.853516,-0.8337731 1.853516,-1.8535156 0,-1.0197426 -0.833773,-1.8515625 -1.853516,-1.8515625 z m 0,0.5292968 c 0.73376,0 1.324219,0.5885059 1.324219,1.3222657 0,0.7337597 -0.590459,1.3242187 -1.324219,1.3242187 -0.73376,0 -1.322265,-0.590459 -1.322265,-1.3242187 0,-0.7337598 0.588505,-1.3222657 1.322265,-1.3222657 z"
         id="path4148-1" />
    </g>
  </g>
</svg>
