<?xml version="1.0" encoding="UTF-8" standalone="no"?>
<svg
   xmlns:dc="http://purl.org/dc/elements/1.1/"
   xmlns:cc="http://creativecommons.org/ns#"
   xmlns:rdf="http://www.w3.org/1999/02/22-rdf-syntax-ns#"
   xmlns:svg="http://www.w3.org/2000/svg"
   xmlns="http://www.w3.org/2000/svg"
   width="16.000013"
   height="16.000002"
   viewBox="0 0 4.2333368 4.233334"
   version="1.1"
   id="svg4268">
  <defs
     id="defs4262" />
  <metadata
     id="metadata4265">
    <rdf:RDF>
      <cc:Work
         rdf:about="">
        <dc:format>image/svg+xml</dc:format>
        <dc:type
           rdf:resource="http://purl.org/dc/dcmitype/StillImage" />
        <dc:title />
      </cc:Work>
    </rdf:RDF>
  </metadata>
  <path
     style="color:#000000;font-style:normal;font-variant:normal;font-weight:normal;font-stretch:normal;font-size:medium;line-height:normal;font-family:sans-serif;font-variant-ligatures:normal;font-variant-position:normal;font-variant-caps:normal;font-variant-numeric:normal;font-variant-alternates:normal;font-variant-east-asian:normal;font-feature-settings:normal;font-variation-settings:normal;text-indent:0;text-align:start;text-decoration:none;text-decoration-line:none;text-decoration-style:solid;text-decoration-color:#000000;letter-spacing:normal;word-spacing:normal;text-transform:none;writing-mode:lr-tb;direction:ltr;text-orientation:mixed;dominant-baseline:auto;baseline-shift:baseline;text-anchor:start;white-space:normal;shape-padding:0;shape-margin:0;inline-size:0;clip-rule:nonzero;display:inline;overflow:visible;visibility:visible;isolation:auto;mix-blend-mode:normal;color-interpolation:sRGB;color-interpolation-filters:linearRGB;solid-color:#000000;solid-opacity:1;vector-effect:none;fill:#000000;fill-opacity:1;fill-rule:nonzero;stroke:none;stroke-linecap:round;stroke-linejoin:round;stroke-miterlimit:4;stroke-dasharray:none;stroke-dashoffset:0;stroke-opacity:1;color-rendering:auto;image-rendering:auto;shape-rendering:auto;text-rendering:auto;enable-background:accumulate;stop-color:#000000;stop-opacity:1;opacity:1"
     d="M 0.26367188 0 A 0.26460996 0.26460996 0 0 0 0 0.26367188 L 0 3.96875 A 0.26460996 0.26460996 0 0 0 0.26367188 4.2324219 L 3.96875 4.2324219 A 0.26460996 0.26460996 0 0 0 4.2324219 3.96875 L 4.2324219 0.26367188 A 0.26460996 0.26460996 0 0 0 3.96875 0 L 0.26367188 0 z M 0.52929688 0.52929688 L 3.7050781 0.52929688 L 3.7050781 3.7050781 L 0.52929688 3.7050781 L 0.52929688 0.52929688 z "
     id="rect699" />
  <g
     aria-label="AOS"
     id="text703"
     style="font-style:normal;font-variant:normal;font-weight:bold;font-stretch:normal;font-size:2.46944px;line-height:0;font-family:FreeMono;-inkscape-font-specification:'FreeMono, Bold';font-variant-ligatures:normal;font-variant-caps:normal;font-variant-numeric:normal;font-variant-east-asian:normal;letter-spacing:0px;word-spacing:0px;display:inline;fill:#000000;fill-opacity:1;stroke:none;stroke-width:0.264583"
     transform="translate(-119.0625,-39.158333)">
    <path
       d="m 120.27253,41.657075 q 0,-0.05115 0.03,-0.06879 0.03,-0.0194 0.0864,-0.0194 h 0.0406 l -0.0406,-0.102306 h -0.4198 l -0.0406,0.102306 h 0.0406 q 0.11642,0 0.11642,0.08819 0,0.08819 -0.11642,0.08819 h -0.2346 q -0.11642,0 -0.11642,-0.08819 0,-0.05292 0.0318,-0.07055 0.03,-0.01764 0.0864,-0.01764 l 0.2734,-0.67557 h -0.11113 q -0.11818,0 -0.11818,-0.08819 0,-0.05292 0.03,-0.07055 0.0318,-0.01764 0.0882,-0.01764 h 0.381 l 0.35102,0.851959 q 0.11994,0 0.11994,0.08819 0,0.08819 -0.11641,0.08819 h -0.24519 q -0.11641,0 -0.11641,-0.08819 z m 0.0441,-0.366889 -0.13759,-0.338667 -0.13935,0.338667 z"
       style="font-style:normal;font-variant:normal;font-weight:bold;font-stretch:normal;font-size:1.76389px;line-height:1.25;font-family:FreeMono;-inkscape-font-specification:'FreeMono, Bold';font-variant-ligatures:normal;font-variant-caps:normal;font-variant-numeric:normal;font-variant-east-asian:normal"
       id="path1398" />
    <path
       d="m 121.24267,40.692227 q 0.0388,0 0.0917,0.01235 0.0529,0.01058 0.12523,0.04763 0.0741,0.03704 0.1323,0.09349 0.06,0.05644 0.10054,0.160514 0.0423,0.102305 0.0423,0.232833 0,0.216959 -0.1464,0.373945 -0.14464,0.156986 -0.34572,0.156986 -0.20462,0 -0.34926,-0.156986 -0.14287,-0.15875 -0.14287,-0.382764 0,-0.22225 0.14464,-0.379236 0.14464,-0.158751 0.34749,-0.158751 z m 0,0.176389 q -0.12877,0 -0.22226,0.107598 -0.0935,0.105833 -0.0935,0.254 0,0.149931 0.0917,0.257528 0.0935,0.105833 0.22402,0.105833 0.12876,0 0.22225,-0.105833 0.0935,-0.105834 0.0935,-0.252236 0,-0.151695 -0.0935,-0.259292 -0.0917,-0.107598 -0.22225,-0.107598 z"
       style="font-style:normal;font-variant:normal;font-weight:bold;font-stretch:normal;font-size:1.76389px;line-height:1.25;font-family:FreeMono;-inkscape-font-specification:'FreeMono, Bold';font-variant-ligatures:normal;font-variant-caps:normal;font-variant-numeric:normal;font-variant-east-asian:normal"
       id="path1400" />
    <path
       d="m 122.59733,40.692227 q 0.0529,0 0.0688,0.02999 0.0176,0.02999 0.0176,0.08643 v 0.155222 q 0,0.118181 -0.0864,0.118181 -0.0141,0 -0.0265,-0.0018 -0.0106,-0.0035 -0.0194,-0.0071 -0.007,-0.0053 -0.0141,-0.01235 -0.007,-0.0088 -0.0106,-0.01411 -0.004,-0.0053 -0.007,-0.01587 -0.004,-0.01058 -0.005,-0.01411 0,-0.0053 -0.004,-0.01587 -0.002,-0.01235 -0.002,-0.01411 -0.0123,-0.05292 -0.0706,-0.08467 -0.0564,-0.03351 -0.13935,-0.03351 -0.0829,0 -0.14111,0.03881 -0.0582,0.03881 -0.0582,0.09525 0,0.05997 0.0582,0.09349 0.0582,0.03175 0.13582,0.04233 0.0776,0.0088 0.17286,0.03528 0.0952,0.0247 0.14993,0.06879 0.10407,0.0829 0.10407,0.220486 0,0.137584 -0.11112,0.222251 -0.11113,0.08467 -0.29281,0.08467 -0.1464,0 -0.27517,-0.06879 -0.0353,0.04233 -0.0706,0.04233 -0.09,0 -0.09,-0.116417 v -0.116417 q 0,-0.05821 0.0194,-0.08643 0.0194,-0.02999 0.0688,-0.02999 0.0159,0 0.0282,0.0035 0.0141,0.0035 0.0229,0.01058 0.009,0.0071 0.0141,0.01411 0.007,0.0053 0.0106,0.01588 0.005,0.01058 0.007,0.01588 0.002,0.0053 0.004,0.01411 0.004,0.0088 0.004,0.01058 0.0123,0.04763 0.0847,0.08114 0.0723,0.03351 0.16051,0.03351 0.0988,0 0.16581,-0.03881 0.067,-0.03881 0.067,-0.09525 0,-0.05292 -0.0529,-0.08467 -0.0512,-0.03175 -0.11994,-0.04233 -0.067,-0.01058 -0.15875,-0.03175 -0.09,-0.02117 -0.14464,-0.05115 -0.067,-0.03881 -0.10584,-0.10407 -0.0388,-0.06526 -0.0388,-0.141111 0,-0.134056 0.10936,-0.22225 0.10936,-0.08996 0.2734,-0.08996 0.13582,0 0.22931,0.05821 0.0141,-0.03351 0.0282,-0.04586 0.0141,-0.01235 0.0406,-0.01235 z"
       style="font-style:normal;font-variant:normal;font-weight:bold;font-stretch:normal;font-size:1.76389px;line-height:1.25;font-family:FreeMono;-inkscape-font-specification:'FreeMono, Bold';font-variant-ligatures:normal;font-variant-caps:normal;font-variant-numeric:normal;font-variant-east-asian:normal"
       id="path1403" />
  </g>
</svg>
