<?xml version="1.0" encoding="UTF-8"?>
<svg xmlns="http://www.w3.org/2000/svg" width="16px" height="16px" viewBox="0 0 16 16">
  <g fill="#2e3436">
    <path d="m 7.99999827173,10.0046103579 a 1.14318,1.00021 0 0,0 -1.13923987737,0.996769158154 L 6.86075839436,15.0032221471 a 1.14318,1.00021 0 0,0 1.13923987737,0.996769158154 a 1.14318,1.00021 0 0,0 1.14767814719,-0.996769158154 l 0,-4.00184263102 a 1.14318,1.00021 0 0,0 -1.14767814719,-0.996769158154 z m 0,-10.0046027972 a 1.14318,1.00021 0 0,0 -1.13923987737,0.996769158154 l 0,4.00184263102 a 1.14318,1.00021 0 0,0 1.13923987737,1.00415215736 a 1.14318,1.00021 0 0,0 1.14767814719,-1.00415215736 L 9.14767641892,0.996776718829 A 1.14318,1.00021 0 0,0 7.99999827173,7.56067507268E-06 Z m -6.86075407369,4.00184263102 a 1.14329,1.00031 0 0,0 -1.1392355567,0.996769158154 l 0,6.0027601662 a 1.14329,1.00031 0 0,0 1.1392355567,1.00415215736 l 13.7215081474,0 a 1.14329,1.00031 0 0,0 1.13923987737,-1.00415215736 l 0,-6.0027601662 a 1.14329,1.00031 0 0,0 -1.13923987737,-0.996769158154 z m 1.14767814719,2.00092131551 l 11.426151853,0 l 0,4.00183885068 l -11.426151853,0 z" fill="#2e3436" stroke-linecap="round"/>
  </g>
</svg>
