<?xml version="1.0" encoding="UTF-8"?>
<svg xmlns="http://www.w3.org/2000/svg" width="16px" height="16px" viewBox="0 0 16 16">
  <g fill="#2e3436">
    <path d="M 1.00222075072,1.00218858533 L 14.9987635731,1.00218858533 L 14.9987635731,14.9987318802 L 1.00222075072,14.9987318802 Z" fill="#2e3436" stroke-width="1.99950737" stroke-linecap="square" stroke-linejoin="round" fill-opacity="0"/>
    <path d="m 1.00369666966,7.55718825118E-06 a 0.999854,0.999854 0 0,0 -1.00368911247,1.00368906506 l 0,13.9926063776 a 0.999854,0.999854 0 0,0 1.00368911247,1.00368906506 l 13.9926070385,0 a 0.999854,0.999854 0 0,0 1.00368911247,-1.00368906506 L 15.9999928207,1.00369662225 A 0.999854,0.999854 0 0,0 14.9963037082,7.55718825118E-06 Z M 2.00000580959,2.00000571512 L 13.9999945683,2.00000571512 L 13.9999945683,13.9999942849 L 2.00000580959,13.9999942849 Z" fill="#2e3436" stroke-linecap="square" stroke-linejoin="round"/>
    <path d="M 2.00000580959,7.29889338439 L 2.00000580959,8.70110623775 L 13.9999945683,8.70110623775 L 13.9999945683,7.29889338439 Z" fill="#2e3436"/>
    <path d="M 2.00000580959,10.3025806074 L 2.00000580959,11.6974131107 L 13.9999945683,11.6974131107 L 13.9999945683,10.3025806074 Z" fill="#2e3436"/>
  </g>
</svg>
