<?xml version="1.0" encoding="UTF-8"?>
<svg xmlns="http://www.w3.org/2000/svg" width="16px" height="16px" viewBox="0 0 16 16">
  <g fill="#2e3436">
    <path d="m 1.00121132404,0.997268209834 l 13.9965578862,0 l 0,14.0030022024 l -13.9965578862,0 z" fill="#2e3436" stroke-width="1.9999696" stroke-linecap="square" stroke-linejoin="round" fill-opacity="0"/>
    <path d="m 1.00369008431,7.56067542795E-06 a 0.999855,1.00032 0 0,0 -1.00369008431,0.996769205256 l 0,14.0064460901 a 0.999855,1.00032 0 0,0 1.00369008431,0.996769205256 l 13.9926205871,0 a 0.999855,1.00032 0 0,0 1.00369008431,-0.996769205256 l 0,-14.0064460901 a 0.999855,1.00032 0 0,0 -1.00369008431,-0.996769205256 z m 0.996310482483,2.00092141006 l 11.9999996221,0 l 0,11.9981416805 l -11.9999996221,0 z" fill="#2e3436" stroke-linecap="square" stroke-linejoin="round"/>
    <path d="m 11.8464598437,7.56759189838 q 0,0.348529732139 -0.0959671582251,0.671245842271 q -0.0959671582252,0.322712714943 -0.367923191003,0.67124923746 q -0.271913960372,0.335614433163 -0.68783335221,0.593794790685 q -0.39989821961,0.245268453735 -1.08773157182,0.413075670316 q -0.671833216185,0.154922474307 -1.55161771381,0.154922474307 l -1.56761364259,0 l 0,1.29086104534 l 1.58360957138,0 q 1.05573971425,0 1.05573971425,0.645428825076 q 0,0.645432220265 -1.05573971425,0.645432220265 l -3.4231540033,0 q -1.05573971425,0 -1.05573971425,-0.645432220265 q 0,-0.645428825076 1.05573971425,-0.645428825076 l 0.239938931766,0 l 0,-4.9439995352 l -0.239938931766,0 q -1.05573971425,0 -1.05573971425,-0.645432220265 q 0,-0.374346749334 0.271913960372,-0.503435230501 q 0.271913960372,-0.141986804197 0.783808924916,-0.141986804197 l 3.72708085745,0 q 1.51962585624,0 2.49538592657,0.684157746058 q 0.975755863088,0.684154350869 0.975755863088,1.75557075005 z m -5.35867821518,-1.14886745077 l 0,2.36227744452 l 1.88753642552,0 q 0.831792504029,0 1.29567864602,-0.309810996724 q 0.479882070772,-0.322712714943 0.479882070772,-0.864876866426 q 0,-0.555072660081 -0.479882070772,-0.864876866426 q -0.463886141988,-0.322712714943 -1.29567864602,-0.322712714943 z" stroke-width="0.8981036"/>
  </g>
</svg>
