<?xml version="1.0" encoding="UTF-8" standalone="no"?>
<svg
   width="16.003952"
   height="16.003952"
   viewBox="0 0 4.2343789 4.2343791"
   version="1.1"
   id="svg4268"
   xmlns="http://www.w3.org/2000/svg"
   xmlns:svg="http://www.w3.org/2000/svg"
   xmlns:rdf="http://www.w3.org/1999/02/22-rdf-syntax-ns#"
   xmlns:cc="http://creativecommons.org/ns#"
   xmlns:dc="http://purl.org/dc/elements/1.1/">
  <defs
     id="defs4262" />
  <metadata
     id="metadata4265">
    <rdf:RDF>
      <cc:Work
         rdf:about="">
        <dc:format>image/svg+xml</dc:format>
        <dc:type
           rdf:resource="http://purl.org/dc/dcmitype/StillImage" />
        <dc:title />
      </cc:Work>
    </rdf:RDF>
  </metadata>
  <g
     id="enumeration"
     style="display:inline"
     transform="translate(-25.134764,-15.345701)">
    <g
       id="rect1264-7-9-0">
      <path
         style="color:#000000;fill:#000000;fill-opacity:0;stroke-width:0.529167;stroke-linecap:round;stroke-linejoin:round;-inkscape-stroke:none"
         d="m 25.4,15.610416 h 3.704166 v 3.704167 H 25.4 Z"
         id="path3540" />
      <path
         style="color:#000000;fill:#000000;stroke-linecap:round;stroke-linejoin:round;-inkscape-stroke:none"
         d="m 25.400391,15.345703 a 0.26460996,0.26460996 0 0 0 -0.265625,0.265625 v 3.703125 a 0.26460996,0.26460996 0 0 0 0.265625,0.265625 h 3.703125 a 0.26460996,0.26460996 0 0 0 0.265625,-0.265625 V 15.611328 A 0.26460996,0.26460996 0 0 0 29.103516,15.345703 Z M 25.664062,15.875 h 3.175782 v 3.175781 h -3.175782 z"
         id="path3542" />
    </g>
    <g
       aria-label="EN"
       id="text84-8-3-5-4-9"
       style="font-weight:bold;font-size:2.46944px;line-height:1.25;font-family:FreeMono;-inkscape-font-specification:'FreeMono, Bold';letter-spacing:0px;word-spacing:0px;display:inline;stroke-width:0.264583">
      <path
         d="m 27.139261,18.123556 h -1.121376 v -1.800231 h 1.121376 v 0.313503 H 26.37359 v 0.388261 h 0.693324 v 0.313504 H 26.37359 v 0.47146 h 0.765671 z"
         id="path1680" />
      <path
         d="m 27.44553,16.323325 h 0.382232 l 0.501605,1.308272 v -1.308272 h 0.313503 v 1.800231 h -0.379821 l -0.504016,-1.308273 v 1.308273 H 27.44553 Z"
         id="path1682" />
    </g>
  </g>
</svg>
