<?xml version="1.0" encoding="UTF-8" standalone="no"?>
<svg
   width="16.003952"
   height="16.003952"
   viewBox="0 0 4.2343789 4.2343791"
   version="1.1"
   id="svg4268"
   xmlns="http://www.w3.org/2000/svg"
   xmlns:svg="http://www.w3.org/2000/svg"
   xmlns:rdf="http://www.w3.org/1999/02/22-rdf-syntax-ns#"
   xmlns:cc="http://creativecommons.org/ns#"
   xmlns:dc="http://purl.org/dc/elements/1.1/">
  <defs
     id="defs4262" />
  <metadata
     id="metadata4265">
    <rdf:RDF>
      <cc:Work
         rdf:about="">
        <dc:format>image/svg+xml</dc:format>
        <dc:type
           rdf:resource="http://purl.org/dc/dcmitype/StillImage" />
      </cc:Work>
    </rdf:RDF>
  </metadata>
  <g
     id="primitive-type"
     style="display:inline"
     transform="translate(-1.3222636,-20.636717)">
    <g
       id="rect1096">
      <path
         style="color:#000000;fill:#000000;fill-opacity:0;stroke-width:0.529167;stroke-linecap:round;stroke-linejoin:round;-inkscape-stroke:none"
         d="m 1.5875002,20.902082 h 3.7041667 v 3.704167 H 1.5875002 Z"
         id="path3548" />
      <path
         style="color:#000000;fill:#000000;stroke-linecap:round;stroke-linejoin:round;-inkscape-stroke:none"
         d="m 1.5878906,20.636719 a 0.26460996,0.26460996 0 0 0 -0.265625,0.265625 v 3.703125 a 0.26460996,0.26460996 0 0 0 0.265625,0.265625 h 3.703125 a 0.26460996,0.26460996 0 0 0 0.265625,-0.265625 v -3.703125 a 0.26460996,0.26460996 0 0 0 -0.265625,-0.265625 z m 0.2636719,0.529297 h 3.1757812 v 3.175781 H 1.8515625 Z"
         id="path3550" />
    </g>
    <path
       d="m 3.2562248,22.442263 q 0,0.06668 -0.014817,0.128411 -0.014817,0.06174 -0.056797,0.128411 -0.041981,0.06421 -0.1061859,0.113594 -0.061736,0.04692 -0.167922,0.07902 -0.1037164,0.02963 -0.2395356,0.02963 H 2.4289624 v 0.246944 H 2.673437 q 0.162983,0 0.162983,0.123472 0,0.123472 -0.162983,0.123472 H 2.1449768 q -0.162983,0 -0.162983,-0.123472 0,-0.123472 0.162983,-0.123472 h 0.037042 v -0.945795 h -0.037042 q -0.162983,0 -0.162983,-0.123472 0,-0.07161 0.04198,-0.09631 0.041981,-0.02716 0.1210025,-0.02716 h 0.5753796 q 0.2345968,0 0.3852326,0.13088 0.1506358,0.13088 0.1506358,0.335844 z m -0.8272624,-0.21978 v 0.451907 h 0.291394 q 0.1284108,0 0.2000246,-0.05927 0.074083,-0.06174 0.074083,-0.165453 0,-0.106186 -0.074083,-0.165452 -0.071614,-0.06174 -0.2000246,-0.06174 z m 2.3434995,0.945795 q 0.162983,0 0.162983,0.123472 0,0.123472 -0.162983,0.123472 H 4.5773761 Q 4.4860069,23.237422 4.3427793,23.067031 4.2020213,22.89417 4.1229992,22.867006 H 3.8859329 v 0.301272 h 0.08643 q 0.1629831,0 0.1629831,0.123472 0,0.123472 -0.1629831,0.123472 h -0.370416 q -0.162983,0 -0.162983,-0.123472 0,-0.123472 0.162983,-0.123472 h 0.037042 v -0.945795 h -0.037042 q -0.162983,0 -0.162983,-0.123472 0,-0.07161 0.041981,-0.09631 0.04198,-0.02716 0.1210025,-0.02716 h 0.5506852 q 0.2395356,0 0.3901715,0.123472 0.1531053,0.121002 0.1531053,0.316088 0,0.227188 -0.2666996,0.372885 0.1605136,0.140758 0.3111495,0.380294 z m -0.886529,-0.548216 h 0.1876775 q 0.1555747,0 0.2568217,-0.05927 0.1037165,-0.06174 0.1037165,-0.153105 0,-0.07902 -0.076553,-0.130881 -0.076553,-0.05433 -0.1950858,-0.05433 H 3.8859329 Z"
       id="text1100"
       style="font-weight:bold;font-size:2.46944px;line-height:1.25;font-family:FreeMono;-inkscape-font-specification:'FreeMono, Bold';letter-spacing:0px;word-spacing:0px;stroke-width:0.264583"
       aria-label="PR" />
  </g>
</svg>
