<?xml version="1.0" encoding="UTF-8" standalone="no"?>
<svg
   width="16.000013"
   height="16.087656"
   viewBox="0 0 4.2333368 4.2565258"
   version="1.1"
   id="svg4268"
   xmlns="http://www.w3.org/2000/svg"
   xmlns:svg="http://www.w3.org/2000/svg"
   xmlns:rdf="http://www.w3.org/1999/02/22-rdf-syntax-ns#"
   xmlns:cc="http://creativecommons.org/ns#"
   xmlns:dc="http://purl.org/dc/elements/1.1/">
  <defs
     id="defs4262" />
  <metadata
     id="metadata4265">
    <rdf:RDF>
      <cc:Work
         rdf:about="">
        <dc:format>image/svg+xml</dc:format>
        <dc:type
           rdf:resource="http://purl.org/dc/dcmitype/StillImage" />
        <dc:title />
      </cc:Work>
    </rdf:RDF>
  </metadata>
  <g
     id="c4-person"
     style="display:inline"
     transform="translate(-103.1875,9.8127756)">
    <path
       id="rect427"
       style="fill-opacity:0;stroke:#000000;stroke-width:0.529167;stroke-linecap:round;stroke-linejoin:round"
       d="m 103.98125,-7.9375 h 2.64583 c 0.29316,0 0.52917,0.2360083 0.52917,0.5291666 v 1.0583333 c 0,0.2931583 -0.23601,0.5291667 -0.52917,0.5291667 h -2.64583 c -0.29316,0 -0.52917,-0.2360084 -0.52917,-0.5291667 v -1.0583333 c 0,-0.2931583 0.23601,-0.5291666 0.52917,-0.5291666 z" />
    <path
       id="path1252"
       style="fill-opacity:0;stroke:#000000;stroke-width:0.529167;stroke-linecap:round;stroke-linejoin:round"
       d="m 106.23263,-8.6221504 a 0.92604166,0.92604166 0 0 1 -0.92604,0.9260416 0.92604166,0.92604166 0 0 1 -0.92604,-0.9260416 0.92604166,0.92604166 0 0 1 0.92604,-0.9260417 0.92604166,0.92604166 0 0 1 0.92604,0.9260417 z" />
    <path
       style="fill:none;stroke:#000000;stroke-width:0.264583px;stroke-linecap:butt;stroke-linejoin:miter;stroke-opacity:1"
       d="m 104.51042,-6.8791666 v 0.79375"
       id="path1258" />
    <path
       style="fill:none;stroke:#000000;stroke-width:0.264583px;stroke-linecap:butt;stroke-linejoin:miter;stroke-opacity:1"
       d="m 106.09792,-6.8791666 v 0.79375"
       id="path1261" />
  </g>
</svg>
