<?xml version="1.0" encoding="UTF-8" standalone="no"?>
<svg
   width="16.005657"
   height="16.052359"
   viewBox="0 0 4.23483 4.2471867"
   version="1.1"
   id="svg4268"
   xmlns="http://www.w3.org/2000/svg"
   xmlns:svg="http://www.w3.org/2000/svg"
   xmlns:rdf="http://www.w3.org/1999/02/22-rdf-syntax-ns#"
   xmlns:cc="http://creativecommons.org/ns#"
   xmlns:dc="http://purl.org/dc/elements/1.1/">
  <defs
     id="defs4262" />
  <metadata
     id="metadata4265">
    <rdf:RDF>
      <cc:Work
         rdf:about="">
        <dc:format>image/svg+xml</dc:format>
        <dc:type
           rdf:resource="http://purl.org/dc/dcmitype/StillImage" />
      </cc:Work>
    </rdf:RDF>
  </metadata>
  <g
     id="relevant-to"
     style="display:inline"
     transform="translate(-127.0012,-38.889151)">
    <path
       style="color:#000000;fill:#000000;stroke-width:0.529167;stroke-linecap:round;stroke-linejoin:round;-inkscape-stroke:none"
       d="m 130.95603,38.889564 a 0.26460979,0.26460979 0 0 0 -0.0586,0.0098 l -1.85156,0.529297 a 0.26492938,0.26492938 0 1 0 0.14453,0.509766 l 1.39453,-0.398438 -0.39844,1.394531 a 0.26493157,0.26493157 0 1 0 0.50977,0.144532 l 0.52929,-1.851563 a 0.26460979,0.26460979 0 0 0 -0.26953,-0.33789 z"
       id="path677" />
    <path
       style="font-weight:bold;font-size:2.82223px;line-height:1.25;font-family:FreeMono;-inkscape-font-specification:'FreeMono Bold';letter-spacing:0px;word-spacing:0px;stroke-width:0.264583"
       d="m 131.03978,42.854114 q 0.18627,0 0.18627,0.141112 0,0.141111 -0.18627,0.141111 h -0.22296 q -0.10442,-0.2032 -0.26811,-0.397934 -0.16087,-0.197556 -0.25118,-0.228601 h -0.27093 v 0.344312 h 0.0988 q 0.18626,0 0.18626,0.141112 0,0.141111 -0.18626,0.141111 h -0.42334 q -0.18626,0 -0.18626,-0.141111 0,-0.141112 0.18626,-0.141112 h 0.0423 V 41.7732 h -0.0423 q -0.18626,0 -0.18626,-0.141111 0,-0.08185 0.048,-0.110067 0.048,-0.03104 0.13829,-0.03104 h 0.62936 q 0.27376,0 0.44591,0.141112 0.17498,0.138289 0.17498,0.361245 0,0.259645 -0.3048,0.426157 0.18344,0.160867 0.3556,0.434623 z m -1.01318,-0.626535 h 0.21449 q 0.1778,0 0.29351,-0.06773 0.11853,-0.07056 0.11853,-0.174979 0,-0.09031 -0.0875,-0.149578 -0.0875,-0.06209 -0.22296,-0.06209 h -0.31609 z"
       id="text681"
       aria-label="R" />
    <path
       style="color:#000000;fill:#000000;stroke-linecap:round;stroke-dasharray:0.529167, 1.05833;-inkscape-stroke:none"
       d="m 130.70508,39.158203 a 0.2645835,0.2645835 0 0 0 -0.1875,0.07813 l -0.0723,0.07227 a 0.2645835,0.2645835 0 0 0 0,0.373047 0.2645835,0.2645835 0 0 0 0.37305,0 l 0.0723,-0.07227 a 0.2645835,0.2645835 0 0 0 0,-0.373047 0.2645835,0.2645835 0 0 0 -0.18554,-0.07813 z m -1.00781,0.898438 -0.375,0.373046 a 0.2645835,0.2645835 0 0 0 0,0.375 0.2645835,0.2645835 0 0 0 0.375,0 l 0.37304,-0.375 a 0.2645835,0.2645835 0 0 0 0,-0.373046 0.2645835,0.2645835 0 0 0 -0.37304,0 z m -0.93555,1.044921 a 0.2645835,0.2645835 0 0 0 -0.1875,0.07617 l -0.375,0.375 a 0.2645835,0.2645835 0 0 0 0,0.375 0.2645835,0.2645835 0 0 0 0.375,0 l 0.375,-0.375 a 0.2645835,0.2645835 0 0 0 0,-0.375 0.2645835,0.2645835 0 0 0 -0.1875,-0.07617 z m -1.12305,1.123047 a 0.2645835,0.2645835 0 0 0 -0.1875,0.07617 l -0.37304,0.375 a 0.2645835,0.2645835 0 0 0 0,0.373047 0.2645835,0.2645835 0 0 0 0.37304,0 l 0.375,-0.373047 a 0.2645835,0.2645835 0 0 0 0,-0.375 0.2645835,0.2645835 0 0 0 -0.1875,-0.07617 z"
       id="path684" />
  </g>
</svg>
