<?xml version="1.0" encoding="UTF-8"?>
<svg xmlns="http://www.w3.org/2000/svg" width="16px" height="16px" viewBox="0 0 16 16">
  <g fill="#2e3436">
    <path d="m 7.60340543582,0.00856539326853 c -3.47642676562,0.113313424958 -6.66564843178,2.79302641445 -7.39834930047,6.19603709411 c -0.730779646081,3.04929574157 0.536036822255,6.46107640819 3.09343162869,8.27720339221 c 2.58479089073,1.91800283515 6.34760161976,2.0376665333 9.03268111624,0.250784642598 c 2.62019010478,-1.66936642623 4.10070624575,-4.95394883884 3.55709061285,-8.02496298686 c -0.509630815861,-3.33946466833 -3.34802309042,-6.17251668945 -6.70146410717,-6.61948700249 c -0.523715852748,-0.0779029796586 -1.05438975301,-0.103319810396 -1.58338995014,-0.0795948120452 z m 0.396376904193,2.00118197116 c 2.81775779374,-0.0551222598494 5.46760308916,2.17075472471 5.8980040992,4.96241193527 c 0.447982750643,2.48189843856 -0.836262231956,5.16784760092 -3.08247398074,6.32890888836 c -1.81866310605,0.978449621031 -4.28654622618,0.925058538507 -6.05721019816,-0.250155123571 c -2.38908156228,-1.48131728922 -3.41132521437,-4.76421573843 -2.29302436093,-7.34404766521 c 0.884972493416,-2.19245345869 3.16930224161,-3.73115534176 5.53470444063,-3.69711803484 z" fill="#2e3436" stroke-width="0.64476116"/>
  </g>
</svg>
