<?xml version="1.0" encoding="UTF-8" standalone="no"?>
<svg
   xmlns:dc="http://purl.org/dc/elements/1.1/"
   xmlns:cc="http://creativecommons.org/ns#"
   xmlns:rdf="http://www.w3.org/1999/02/22-rdf-syntax-ns#"
   xmlns:svg="http://www.w3.org/2000/svg"
   xmlns="http://www.w3.org/2000/svg"
   width="15.996548"
   height="15.996555"
   viewBox="0 0 4.2324198 4.2324221"
   version="1.1"
   id="svg4268">
  <defs
     id="defs4262" />
  <metadata
     id="metadata4265">
    <rdf:RDF>
      <cc:Work
         rdf:about="">
        <dc:format>image/svg+xml</dc:format>
        <dc:type
           rdf:resource="http://purl.org/dc/dcmitype/StillImage" />
        <dc:title />
      </cc:Work>
    </rdf:RDF>
  </metadata>
  <path
     id="path667"
     d="M 0.26367,0 A 0.26460982,0.26460982 0 0 0 0,0.263672 V 3.96875 A 0.26460982,0.26460982 0 0 0 0.26367,4.232422 H 3.96875 A 0.26460982,0.26460982 0 0 0 4.23242,3.96875 V 0.263672 A 0.26460982,0.26460982 0 0 0 3.96875,0 Z M 0.52929,0.529297 H 3.70508 V 3.705078 H 0.52929 Z"
     style="color:#000000;font-style:normal;font-variant:normal;font-weight:normal;font-stretch:normal;font-size:medium;line-height:normal;font-family:sans-serif;font-variant-ligatures:normal;font-variant-position:normal;font-variant-caps:normal;font-variant-numeric:normal;font-variant-alternates:normal;font-feature-settings:normal;text-indent:0;text-align:start;text-decoration:none;text-decoration-line:none;text-decoration-style:solid;text-decoration-color:#000000;letter-spacing:normal;word-spacing:normal;text-transform:none;writing-mode:lr-tb;direction:ltr;text-orientation:mixed;dominant-baseline:auto;baseline-shift:baseline;text-anchor:start;white-space:normal;shape-padding:0;clip-rule:nonzero;display:inline;overflow:visible;visibility:visible;isolation:auto;mix-blend-mode:normal;color-interpolation:sRGB;color-interpolation-filters:linearRGB;solid-color:#000000;solid-opacity:1;vector-effect:none;fill:#000000;fill-opacity:1;fill-rule:nonzero;stroke:none;stroke-width:0.529167;stroke-linecap:square;stroke-linejoin:round;stroke-miterlimit:4;stroke-dasharray:none;stroke-dashoffset:0;stroke-opacity:1;color-rendering:auto;image-rendering:auto;shape-rendering:auto;text-rendering:auto;enable-background:accumulate" />
  <g
     aria-label="S"
     id="text671"
     style="font-style:normal;font-variant:normal;font-weight:bold;font-stretch:normal;font-size:2.82223px;line-height:1.25;font-family:sans-serif;-inkscape-font-specification:'sans-serif Bold';letter-spacing:0px;word-spacing:0px;fill:#000000;fill-opacity:1;stroke:none;stroke-width:0.264583"
     transform="translate(-119.06159,-33.866536)">
    <path
       d="m 121.92605,34.698906 q 0.127,0 0.1651,0.07197 0.0423,0.07197 0.0423,0.207433 v 0.372533 q 0,0.283633 -0.20743,0.283633 -0.0339,0 -0.0635,-0.0042 -0.0254,-0.0085 -0.0466,-0.01693 -0.0169,-0.0127 -0.0339,-0.02963 -0.0169,-0.02117 -0.0254,-0.03387 -0.008,-0.0127 -0.0169,-0.0381 -0.008,-0.0254 -0.0127,-0.03387 0,-0.0127 -0.008,-0.0381 -0.004,-0.02963 -0.004,-0.03387 -0.0296,-0.127 -0.16933,-0.2032 -0.13547,-0.08043 -0.33444,-0.08043 -0.19896,0 -0.33866,0.09313 -0.1397,0.09313 -0.1397,0.2286 0,0.143933 0.1397,0.224367 0.1397,0.0762 0.32596,0.101599 0.18627,0.02117 0.41487,0.08467 0.2286,0.05927 0.35983,0.1651 0.24977,0.198966 0.24977,0.529166 0,0.3302 -0.2667,0.5334 -0.2667,0.2032 -0.70273,0.2032 -0.35137,0 -0.6604,-0.1651 -0.0847,0.1016 -0.16934,0.1016 -0.2159,0 -0.2159,-0.2794 v -0.2794 q 0,-0.1397 0.0466,-0.207433 0.0466,-0.07197 0.1651,-0.07197 0.0381,0 0.0677,0.0085 0.0339,0.0085 0.055,0.0254 0.0212,0.01693 0.0339,0.03387 0.0169,0.0127 0.0254,0.0381 0.0127,0.0254 0.0169,0.0381 0.004,0.0127 0.008,0.03387 0.008,0.02117 0.008,0.0254 0.0296,0.1143 0.2032,0.194733 0.17357,0.08043 0.38523,0.08043 0.23707,0 0.39794,-0.09313 0.16086,-0.09313 0.16086,-0.2286 0,-0.126999 -0.127,-0.203199 -0.12276,-0.0762 -0.28786,-0.1016 -0.16087,-0.0254 -0.381,-0.0762 -0.2159,-0.0508 -0.34714,-0.122767 -0.16086,-0.09313 -0.254,-0.249766 -0.0931,-0.156633 -0.0931,-0.338667 0,-0.321733 0.26247,-0.533399 0.26246,-0.2159 0.65616,-0.2159 0.32597,0 0.55034,0.1397 0.0339,-0.08043 0.0677,-0.110067 0.0339,-0.02963 0.0974,-0.02963 z"
       style="font-style:normal;font-variant:normal;font-weight:bold;font-stretch:normal;font-size:4.23333px;font-family:FreeMono;-inkscape-font-specification:'FreeMono Bold';stroke-width:0.264583"
       id="path1429" />
  </g>
</svg>
