<?xml version="1.0" encoding="UTF-8" standalone="no"?>
<svg
   width="16.003952"
   height="16.003952"
   viewBox="0 0 4.2343789 4.2343791"
   version="1.1"
   id="svg4268"
   xmlns="http://www.w3.org/2000/svg"
   xmlns:svg="http://www.w3.org/2000/svg"
   xmlns:rdf="http://www.w3.org/1999/02/22-rdf-syntax-ns#"
   xmlns:cc="http://creativecommons.org/ns#"
   xmlns:dc="http://purl.org/dc/elements/1.1/">
  <defs
     id="defs4262" />
  <metadata
     id="metadata4265">
    <rdf:RDF>
      <cc:Work
         rdf:about="">
        <dc:format>image/svg+xml</dc:format>
        <dc:type
           rdf:resource="http://purl.org/dc/dcmitype/StillImage" />
        <dc:title />
      </cc:Work>
    </rdf:RDF>
  </metadata>
  <g
     id="primitive"
     style="display:inline"
     transform="translate(-1.3222636,-20.636717)">
    <g
       id="rect1096">
      <path
         style="color:#000000;fill:#000000;fill-opacity:0;stroke-width:0.529167;stroke-linecap:round;stroke-linejoin:round;-inkscape-stroke:none"
         d="m 1.5875002,20.902082 h 3.7041667 v 3.704167 H 1.5875002 Z"
         id="path3548" />
      <path
         style="color:#000000;fill:#000000;stroke-linecap:round;stroke-linejoin:round;-inkscape-stroke:none"
         d="m 1.5878906,20.636719 a 0.26460996,0.26460996 0 0 0 -0.265625,0.265625 v 3.703125 a 0.26460996,0.26460996 0 0 0 0.265625,0.265625 h 3.703125 a 0.26460996,0.26460996 0 0 0 0.265625,-0.265625 v -3.703125 a 0.26460996,0.26460996 0 0 0 -0.265625,-0.265625 z m 0.2636719,0.529297 h 3.1757812 v 3.175781 H 1.8515625 Z"
         id="path3550" />
    </g>
    <g
       aria-label="PR"
       id="text1100"
       style="font-weight:bold;font-size:2.46944px;line-height:1.25;font-family:FreeMono;-inkscape-font-specification:'FreeMono, Bold';letter-spacing:0px;word-spacing:0px;display:inline;stroke-width:0.264583">
      <path
         d="m 2.5009331,21.914025 v 0.528132 h 0.1458995 q 0.1748383,0 0.2447736,-0.05908 0.071141,-0.05908 0.071141,-0.204982 0,-0.1459 -0.071141,-0.204983 -0.069935,-0.05908 -0.2447736,-0.05908 z M 2.1452277,21.614991 h 0.4883414 q 0.3725864,0 0.5353668,0.132636 0.1639863,0.132636 0.1639863,0.430464 0,0.297828 -0.1639863,0.430464 -0.1627804,0.132635 -0.5353668,0.132635 h -0.132636 v 0.674032 H 2.1452277 Z"
         id="path1685" />
      <path
         d="m 4.4096849,22.565146 q 0.053054,0.01085 0.091639,0.05064 0.039791,0.03859 0.096463,0.151929 l 0.325561,0.647504 H 4.5326745 L 4.3156339,22.960643 q -0.00965,-0.01929 -0.025321,-0.05306 -0.095257,-0.203777 -0.2242753,-0.203777 H 3.9526938 v 0.711411 H 3.5969883 v -1.800231 h 0.5136628 q 0.347265,0 0.4979877,0.122989 0.1519284,0.12299 0.1519284,0.40032 0,0.18569 -0.090434,0.295416 -0.090434,0.109726 -0.2604487,0.13143 z M 3.9526938,21.914025 v 0.490752 h 0.1676036 q 0.1458995,0 0.2086001,-0.05667 0.063906,-0.05788 0.063906,-0.189308 0,-0.13143 -0.062701,-0.188102 -0.062701,-0.05667 -0.2098059,-0.05667 z"
         id="path1687" />
    </g>
  </g>
</svg>
