<?xml version="1.0" encoding="UTF-8" standalone="no"?>
<svg
   xmlns:dc="http://purl.org/dc/elements/1.1/"
   xmlns:cc="http://creativecommons.org/ns#"
   xmlns:rdf="http://www.w3.org/1999/02/22-rdf-syntax-ns#"
   xmlns:svg="http://www.w3.org/2000/svg"
   xmlns="http://www.w3.org/2000/svg"
   id="svg4268"
   version="1.1"
   viewBox="0 0 4.2360326 4.2472195"
   height="16.052483"
   width="16.010202">
  <defs
     id="defs4262" />
  <metadata
     id="metadata4265">
    <rdf:RDF>
      <cc:Work
         rdf:about="">
        <dc:format>image/svg+xml</dc:format>
        <dc:type
           rdf:resource="http://purl.org/dc/dcmitype/StillImage" />
        <dc:title />
      </cc:Work>
    </rdf:RDF>
  </metadata>
  <path
     id="path4594-6-2-40"
     d="m 3.956033,4.441e-4 a 0.26460979,0.26460979 0 0 0 -0.0586,0.00977 L 2.045868,0.539511 A 0.26492937,0.26492937 0 1 0 2.190399,1.0492766 L 3.584933,0.6508391 3.186493,2.0453704 a 0.26493146,0.26493146 0 1 0 0.50977,0.1445312 L 4.225553,0.3383391 A 0.26460979,0.26460979 0 0 0 3.956023,4.485e-4 Z"
     style="color:#000000;font-style:normal;font-variant:normal;font-weight:normal;font-stretch:normal;font-size:medium;line-height:normal;font-family:sans-serif;font-variant-ligatures:normal;font-variant-position:normal;font-variant-caps:normal;font-variant-numeric:normal;font-variant-alternates:normal;font-feature-settings:normal;text-indent:0;text-align:start;text-decoration:none;text-decoration-line:none;text-decoration-style:solid;text-decoration-color:#000000;letter-spacing:normal;word-spacing:normal;text-transform:none;writing-mode:lr-tb;direction:ltr;text-orientation:mixed;dominant-baseline:auto;baseline-shift:baseline;text-anchor:start;white-space:normal;shape-padding:0;clip-rule:nonzero;display:inline;overflow:visible;visibility:visible;isolation:auto;mix-blend-mode:normal;color-interpolation:sRGB;color-interpolation-filters:linearRGB;solid-color:#000000;solid-opacity:1;vector-effect:none;fill:#000000;fill-opacity:1;fill-rule:nonzero;stroke:none;stroke-width:0.529167;stroke-linecap:round;stroke-linejoin:round;stroke-miterlimit:4;stroke-dasharray:none;stroke-dashoffset:0;stroke-opacity:1;color-rendering:auto;image-rendering:auto;shape-rendering:auto;text-rendering:auto;enable-background:accumulate" />
  <g
     transform="translate(-69.850001,4.5025476)"
     style="font-style:normal;font-variant:normal;font-weight:bold;font-stretch:normal;font-size:2.82223px;line-height:1.25;font-family:sans-serif;-inkscape-font-specification:'sans-serif Bold';letter-spacing:0px;word-spacing:0px;fill:#000000;fill-opacity:1;stroke:none;stroke-width:0.264583"
     id="text150-9"
     aria-label="R">
    <path
       id="path933"
       style="font-style:normal;font-variant:normal;font-weight:bold;font-stretch:normal;font-size:2.82223px;font-family:FreeMono;-inkscape-font-specification:'FreeMono Bold';stroke-width:0.264583"
       d="m 73.889786,-0.53755125 q 0.186267,0 0.186267,0.14111151 0,0.1411115 -0.186267,0.1411115 H 73.66683 q -0.104423,-0.20320057 -0.268112,-0.39793444 -0.160867,-0.19755611 -0.251179,-0.22860064 h -0.270934 v 0.34431207 h 0.09878 q 0.186268,0 0.186268,0.14111151 0,0.1411115 -0.186268,0.1411115 h -0.423334 q -0.186267,0 -0.186267,-0.1411115 0,-0.14111151 0.186267,-0.14111151 h 0.04233 V -1.6184654 h -0.04233 q -0.186267,0 -0.186267,-0.1411115 0,-0.081845 0.04798,-0.110067 0.04798,-0.031044 0.138289,-0.031044 h 0.629357 q 0.273757,0 0.445913,0.1411115 0.174978,0.1382893 0.174978,0.3612455 0,0.2596451 -0.304801,0.42615672 0.183445,0.16086711 0.355601,0.43462343 z M 72.876605,-1.1640863 h 0.21449 q 0.1778,0 0.293512,-0.067734 0.118533,-0.070556 0.118533,-0.1749782 0,-0.090311 -0.08749,-0.1495782 -0.08749,-0.062089 -0.222956,-0.062089 h -0.31609 z" />
  </g>
  <path
     id="path18"
     d="M 3.6953125 0.26953125 A 0.2645835 0.2645835 0 0 0 3.5175781 0.34765625 L 3.4453125 0.41796875 A 0.2645835 0.2645835 0 0 0 3.4453125 0.79296875 A 0.2645835 0.2645835 0 0 0 3.8183594 0.79296875 L 3.890625 0.72070312 A 0.2645835 0.2645835 0 0 0 3.890625 0.34765625 A 0.2645835 0.2645835 0 0 0 3.6953125 0.26953125 z M 2.875 1.0898438 A 0.2645835 0.2645835 0 0 0 2.6972656 1.1679688 L 2.3222656 1.5410156 A 0.2645835 0.2645835 0 0 0 2.3222656 1.9160156 A 0.2645835 0.2645835 0 0 0 2.6972656 1.9160156 L 3.0703125 1.5410156 A 0.2645835 0.2645835 0 0 0 3.0703125 1.1679688 A 0.2645835 0.2645835 0 0 0 2.875 1.0898438 z M 1.7519531 2.2128906 A 0.2645835 0.2645835 0 0 0 1.5742188 2.2890625 L 1.1992188 2.6640625 A 0.2645835 0.2645835 0 0 0 1.1992188 3.0371094 A 0.2645835 0.2645835 0 0 0 1.5742188 3.0371094 L 1.9492188 2.6640625 A 0.2645835 0.2645835 0 0 0 1.9492188 2.2890625 A 0.2645835 0.2645835 0 0 0 1.7519531 2.2128906 z M 0.63085938 3.3339844 A 0.2645835 0.2645835 0 0 0 0.45117188 3.4121094 L 0.078125 3.7871094 A 0.2645835 0.2645835 0 0 0 0.078125 4.1601562 A 0.2645835 0.2645835 0 0 0 0.45117188 4.1601562 L 0.82617188 3.7871094 A 0.2645835 0.2645835 0 0 0 0.82617188 3.4121094 A 0.2645835 0.2645835 0 0 0 0.63085938 3.3339844 z "
     style="color:#000000;font-style:normal;font-variant:normal;font-weight:normal;font-stretch:normal;font-size:medium;line-height:normal;font-family:sans-serif;font-variant-ligatures:normal;font-variant-position:normal;font-variant-caps:normal;font-variant-numeric:normal;font-variant-alternates:normal;font-variant-east-asian:normal;font-feature-settings:normal;font-variation-settings:normal;text-indent:0;text-align:start;text-decoration:none;text-decoration-line:none;text-decoration-style:solid;text-decoration-color:#000000;letter-spacing:normal;word-spacing:normal;text-transform:none;writing-mode:lr-tb;direction:ltr;text-orientation:mixed;dominant-baseline:auto;baseline-shift:baseline;text-anchor:start;white-space:normal;shape-padding:0;shape-margin:0;inline-size:0;clip-rule:nonzero;display:inline;overflow:visible;visibility:visible;isolation:auto;mix-blend-mode:normal;color-interpolation:sRGB;color-interpolation-filters:linearRGB;solid-color:#000000;solid-opacity:1;vector-effect:none;fill:#000000;fill-opacity:1;fill-rule:nonzero;stroke:none;stroke-width:0.529167;stroke-linecap:round;stroke-linejoin:miter;stroke-miterlimit:4;stroke-dasharray:0.529167, 1.05833000000000022;stroke-dashoffset:0;stroke-opacity:1;color-rendering:auto;image-rendering:auto;shape-rendering:auto;text-rendering:auto;enable-background:accumulate;stop-color:#000000;stop-opacity:1;opacity:1" />
</svg>
