<?xml version="1.0" encoding="UTF-8" standalone="no"?>
<svg
   width="15.996548"
   height="15.996555"
   viewBox="0 0 4.2324198 4.2324221"
   version="1.1"
   id="svg4268"
   xmlns="http://www.w3.org/2000/svg"
   xmlns:svg="http://www.w3.org/2000/svg"
   xmlns:rdf="http://www.w3.org/1999/02/22-rdf-syntax-ns#"
   xmlns:cc="http://creativecommons.org/ns#"
   xmlns:dc="http://purl.org/dc/elements/1.1/">
  <defs
     id="defs4262" />
  <metadata
     id="metadata4265">
    <rdf:RDF>
      <cc:Work
         rdf:about="">
        <dc:format>image/svg+xml</dc:format>
        <dc:type
           rdf:resource="http://purl.org/dc/dcmitype/StillImage" />
        <dc:title />
      </cc:Work>
    </rdf:RDF>
  </metadata>
  <g
     id="situation"
     style="display:inline"
     transform="translate(-119.06159,-33.866536)">
    <path
       style="color:#000000;fill:#000000;fill-opacity:0;stroke-width:0.529167;stroke-linecap:square;stroke-linejoin:round;-inkscape-stroke:none"
       d="m 119.32526,33.866536 a 0.26460982,0.26460982 0 0 0 -0.26367,0.263672 v 3.705078 a 0.26460982,0.26460982 0 0 0 0.26367,0.263672 h 3.70508 a 0.26460982,0.26460982 0 0 0 0.26367,-0.263672 v -3.705078 a 0.26460982,0.26460982 0 0 0 -0.26367,-0.263672 z m 0.26562,0.529297 h 3.17579 v 3.175781 h -3.17579 z"
       id="path667" />
    <g
       aria-label="S"
       id="text671"
       style="font-weight:bold;font-size:2.82223px;line-height:1.25;-inkscape-font-specification:'sans-serif Bold';letter-spacing:0px;word-spacing:0px;stroke-width:0.264583">
      <path
         d="m 120.99905,35.872283 q -0.46096,-0.1757 -0.62426,-0.367936 -0.16329,-0.194304 -0.16329,-0.520898 0,-0.419613 0.26871,-0.659391 0.26872,-0.239779 0.73794,-0.239779 0.21291,0 0.42582,0.04961 0.2129,0.04754 0.42168,0.142627 v 0.595312 q -0.19637,-0.138493 -0.39895,-0.21084 -0.20257,-0.07235 -0.401,-0.07235 -0.22118,0 -0.339,0.08888 -0.11782,0.08888 -0.11782,0.254248 0,0.128158 0.0847,0.212907 0.0868,0.08268 0.35966,0.183968 l 0.26252,0.09922 q 0.37207,0.136425 0.54777,0.361734 0.1757,0.225309 0.1757,0.568441 0,0.467154 -0.27699,0.698664 -0.27492,0.229444 -0.83302,0.229444 -0.22944,0 -0.46095,-0.05581 -0.22945,-0.05374 -0.44442,-0.16123 v -0.630452 q 0.24391,0.173632 0.47129,0.258382 0.22944,0.08475 0.45268,0.08475 0.22531,0 0.34934,-0.101286 0.12402,-0.103353 0.12402,-0.28732 0,-0.138493 -0.0827,-0.241846 -0.0827,-0.10542 -0.23978,-0.165364 z"
         style="font-size:4.23333px;font-family:FreeMono;-inkscape-font-specification:'FreeMono Bold'"
         id="path1643" />
    </g>
  </g>
</svg>
