<?xml version="1.0" encoding="UTF-8" standalone="no"?>
<svg
   width="13.996063"
   height="14.003445"
   viewBox="0 0 3.703125 3.7050782"
   version="1.1"
   id="svg4268"
   xmlns="http://www.w3.org/2000/svg"
   xmlns:svg="http://www.w3.org/2000/svg"
   xmlns:rdf="http://www.w3.org/1999/02/22-rdf-syntax-ns#"
   xmlns:cc="http://creativecommons.org/ns#"
   xmlns:dc="http://purl.org/dc/elements/1.1/">
  <defs
     id="defs4262" />
  <metadata
     id="metadata4265">
    <rdf:RDF>
      <cc:Work
         rdf:about="">
        <dc:format>image/svg+xml</dc:format>
        <dc:type
           rdf:resource="http://purl.org/dc/dcmitype/StillImage" />
      </cc:Work>
    </rdf:RDF>
  </metadata>
  <g
     id="flow-final-node"
     style="display:inline"
     transform="translate(-25.386719,-34.009766)">
    <g
       id="path1192-9">
      <path
         style="color:#000000;fill:#000000;fill-opacity:0;stroke-width:0.529167;stroke-linecap:round;stroke-linejoin:round;-inkscape-stroke:none"
         d="m 28.825901,35.862202 a 1.5875,1.5875 0 0 1 -1.5875,1.5875 1.5875,1.5875 0 0 1 -1.5875,-1.5875 1.5875,1.5875 0 0 1 1.5875,-1.5875 1.5875,1.5875 0 0 1 1.5875,1.5875 z"
         id="path3862" />
      <path
         style="color:#000000;fill:#000000;stroke-linecap:round;stroke-linejoin:round;-inkscape-stroke:none"
         d="m 27.238281,34.009766 c -1.019742,0 -1.851562,0.83182 -1.851562,1.851562 0,1.019743 0.83182,1.853516 1.851562,1.853516 1.019743,0 1.851563,-0.833773 1.851563,-1.853516 0,-1.019742 -0.83182,-1.851562 -1.851563,-1.851562 z m 0,0.529296 c 0.73376,0 1.322266,0.588506 1.322266,1.322266 0,0.73376 -0.588506,1.324219 -1.322266,1.324219 -0.73376,0 -1.322265,-0.590459 -1.322265,-1.324219 0,-0.73376 0.588505,-1.322266 1.322265,-1.322266 z"
         id="path3864" />
    </g>
    <path
       style="color:#000000;fill:#000000;-inkscape-stroke:none"
       d="m 28.123047,34.611328 -2.117188,2.115234 0.375,0.375 2.117188,-2.117187 z"
       id="path1213" />
    <path
       style="color:#000000;fill:#000000;-inkscape-stroke:none"
       d="m 26.380859,34.611328 -0.375,0.373047 2.117188,2.117187 0.375,-0.375 z"
       id="path1215" />
  </g>
</svg>
