<?xml version="1.0" encoding="UTF-8"?>
<svg xmlns="http://www.w3.org/2000/svg" width="16px" height="16px" viewBox="0 0 16 16">
  <g fill="#2e3436">
    <path d="m 6.83699740084,0.99915837869 l 2.28635868354,0 l 0,14.0030022024 l -2.28635868354,0 z" fill="#2e3436" stroke-width="2.13862115" stroke-linecap="round" stroke-linejoin="round"/>
    <path d="m 6.83544195781,7.56067541374E-06 a 1.14329,1.00032 0 0,0 -1.13924104641,0.996769205256 l 0,14.0064460901 a 1.14329,1.00032 0 0,0 1.13924104641,0.996769205256 l 2.28692037131,0 a 1.14329,1.00032 0 0,0 1.14767932489,-0.996769205256 l 0,-14.0064460901 a 1.14329,1.00032 0 0,0 -1.14767932489,-0.996769205256 z" fill="#2e3436" stroke-linecap="round" stroke-linejoin="round"/>
    <path d="m 0,1.82372564048 l 0,0.996769205256 l 5.71307746835,0 l 0,-0.996769205256 z" fill="#2e3436"/>
    <path d="m 0,11.8209459109 l 0,1.00415220481 l 5.71307746835,0 l 0,-1.00415220481 z" fill="#2e3436"/>
    <path d="m 10.286918211,6.82233766586 l 0,0.996769205256 l 5.71308178903,0 l 0,-0.996769205256 z" fill="#2e3436"/>
  </g>
</svg>
