<?xml version="1.0" encoding="UTF-8" standalone="no"?>
<svg
   width="15.998166"
   height="16.000219"
   viewBox="0 0 4.232848 4.2333915"
   version="1.1"
   id="svg4268"
   xmlns="http://www.w3.org/2000/svg"
   xmlns:svg="http://www.w3.org/2000/svg"
   xmlns:rdf="http://www.w3.org/1999/02/22-rdf-syntax-ns#"
   xmlns:cc="http://creativecommons.org/ns#"
   xmlns:dc="http://purl.org/dc/elements/1.1/">
  <defs
     id="defs4262" />
  <metadata
     id="metadata4265">
    <rdf:RDF>
      <cc:Work
         rdf:about="">
        <dc:format>image/svg+xml</dc:format>
        <dc:type
           rdf:resource="http://purl.org/dc/dcmitype/StillImage" />
      </cc:Work>
    </rdf:RDF>
  </metadata>
  <g
     id="extend"
     style="display:inline"
     transform="translate(-59.531468,-19.18729)">
    <g
       id="path4594-6-1">
      <path
         style="color:#000000;fill:#000000;fill-opacity:0;stroke-width:0.529167;stroke-linecap:round;stroke-linejoin:round;-inkscape-stroke:none"
         d="m 61.647916,19.981241 1.852083,-0.529166 -0.529166,1.852083"
         id="path3748" />
      <path
         style="color:#000000;fill:#000000;stroke-linecap:round;stroke-linejoin:round;-inkscape-stroke:none"
         d="m 63.427734,19.197266 -1.851562,0.529296 a 0.2645835,0.2645835 0 0 0 -0.183594,0.328125 0.2645835,0.2645835 0 0 0 0.328125,0.181641 l 1.394531,-0.398437 -0.398437,1.394531 a 0.2645835,0.2645835 0 0 0 0.18164,0.326172 0.2645835,0.2645835 0 0 0 0.326172,-0.181641 l 0.529297,-1.851562 a 0.26460996,0.26460996 0 0 0 -0.326172,-0.328125 z"
         id="path3750" />
    </g>
    <path
       style="color:#000000;fill:#000000;stroke-linecap:round;stroke-dasharray:0.529167, 1.05833;-inkscape-stroke:none"
       d="m 63.048828,19.529297 -0.07227,0.07227 a 0.2645835,0.2645835 0 0 0 0,0.375 0.2645835,0.2645835 0 0 0 0.373047,0 l 0.07227,-0.07227 a 0.2645835,0.2645835 0 0 0 0,-0.375 0.2645835,0.2645835 0 0 0 -0.373047,0 z m -0.820312,0.820312 -0.375,0.375 a 0.2645835,0.2645835 0 0 0 0,0.373047 0.2645835,0.2645835 0 0 0 0.375,0 l 0.373046,-0.373047 a 0.2645835,0.2645835 0 0 0 0,-0.375 0.2645835,0.2645835 0 0 0 -0.373046,0 z m -1.123047,1.123047 -0.375,0.373047 a 0.2645835,0.2645835 0 0 0 0,0.375 0.2645835,0.2645835 0 0 0 0.375,0 l 0.375,-0.375 a 0.2645835,0.2645835 0 0 0 0,-0.373047 0.2645835,0.2645835 0 0 0 -0.375,0 z m -1.123047,1.123047 -0.373047,0.373047 a 0.2645835,0.2645835 0 0 0 0,0.375 0.2645835,0.2645835 0 0 0 0.373047,0 l 0.375,-0.375 a 0.2645835,0.2645835 0 0 0 0,-0.373047 0.2645835,0.2645835 0 0 0 -0.375,0 z"
       id="path4598-1-2" />
    <path
       d="m 63.478687,22.982322 q 0,-0.18909 0.141111,-0.18909 0.141112,0 0.141112,0.18909 v 0.428979 h -1.329271 q -0.186267,0 -0.186267,-0.141112 0,-0.141111 0.186267,-0.141111 h 0.04233 v -1.080914 h -0.04233 q -0.186267,0 -0.186267,-0.141112 0,-0.08185 0.04798,-0.110067 0.04798,-0.03104 0.138289,-0.03104 h 1.267182 v 0.423334 q 0,0.189089 -0.141112,0.189089 -0.141112,0 -0.141112,-0.189089 v -0.141111 h -0.660401 v 0.397934 h 0.239889 v -0.01976 q 0,-0.189089 0.138289,-0.189089 0.141112,0 0.141112,0.189089 v 0.318912 q 0,0.186268 -0.138289,0.186268 -0.141112,0 -0.141112,-0.186268 v -0.01975 h -0.239889 v 0.403579 h 0.722491 z"
       id="text576"
       style="font-weight:bold;font-size:2.82223px;line-height:1.25;font-family:FreeMono;-inkscape-font-specification:'FreeMono Bold';letter-spacing:0px;word-spacing:0px;stroke-width:0.264583"
       aria-label="E" />
  </g>
</svg>
