<?xml version="1.0" encoding="UTF-8"?>
<svg xmlns="http://www.w3.org/2000/svg" width="16px" height="16px" viewBox="0 0 16 16">
  <g fill="#2e3436">
    <path d="m 8.00009071906,3.0007184547 l 7.00080135171,-1.99997000041 l -2.00022679765,6.99990256039" fill="#2e3436" stroke-width="2.00010217" stroke-linecap="round" stroke-linejoin="round" fill-opacity="0"/>
    <path d="m 14.7277331952,0.0377040488696 l -6.99883199208,2.00046133224 a 1.00012,0.999987 0 0,0 -0.693978144266,1.24014044059 a 1.00012,0.999987 0 0,0 1.2402996753,0.68650773263 l 5.27127267504,-1.50588293098 l -1.50607628717,5.27059592764 a 1.00012,0.999987 0 0,0 0.686592100638,1.23275912469 a 1.00012,0.999987 0 0,0 1.23291741163,-0.68650773263 l 2.00072197253,-6.99793345359 a 1.00022,1.00009 0 0,0 -1.23291741163,-1.24014044059 z" fill="#2e3436" stroke-linecap="round" stroke-linejoin="round"/>
    <path d="m 13.2954833247,1.29260712126 l -0.273177775342,0.273142703669 a 1.00012,0.999987 0 0,0 0,1.41730336067 a 1.00012,0.999987 0 0,0 1.41010307953,0 l 0.273177775342,-0.273142703669 a 1.00012,0.999987 0 0,0 0,-1.41730336067 a 1.00012,0.999987 0 0,0 -1.41010307953,0 z m -3.10074729827,3.10034921174 l -1.4174853432,1.41730336067 a 1.00012,0.999987 0 0,0 0,1.40992204477 a 1.00012,0.999987 0 0,0 1.4174853432,0 l 1.41009929957,-1.40992204477 a 1.00012,0.999987 0 0,0 0,-1.41730336067 a 1.00012,0.999987 0 0,0 -1.41009929957,0 z m -4.24507376594,4.24452876612 l -1.4174853432,1.40992204477 a 1.00012,0.999987 0 0,0 0,1.41730336067 a 1.00012,0.999987 0 0,0 1.4174853432,0 l 1.4174853432,-1.41730336067 a 1.00012,0.999987 0 0,0 0,-1.40992204477 a 1.00012,0.999987 0 0,0 -1.4174853432,0 z m -4.24507376594,4.24452876612 l -1.41010307953,1.40992204477 a 1.00012,0.999987 0 0,0 0,1.41730336067 a 1.00012,0.999987 0 0,0 1.41010307953,0 l 1.4174853432,-1.41730336067 a 1.00012,0.999987 0 0,0 0,-1.40992204477 a 1.00012,0.999987 0 0,0 -1.4174853432,0 z" fill="#2e3436" stroke-dasharray="2.00010217, 4.00018923" stroke-linecap="round"/>
    <path d="m 14.9203335438,14.3432309532 q 0,-0.714661046586 0.533394064705,-0.714661046586 q 0.533397844666,0 0.533397844666,0.714661046586 l 0,1.62131567562 l -5.02459242571,0 q -0.704081979792,0 -0.704081979792,-0.533329364884 q 0,-0.533325585408 0.704081979792,-0.533325585408 l 0.160005745541,0 l 0,-4.08528811947 l -0.160005745541,0 q -0.704081979792,0 -0.704081979792,-0.533329364884 q 0,-0.30935008019 0.181362524711,-0.415995543998 q 0.181362524712,-0.117314923508 0.522727015003,-0.117314923508 l 4.78989843245,0 l 0,1.5999805357 q 0,0.714657267111 -0.533397844666,0.714657267111 q -0.533397844666,0 -0.533397844666,-0.714657267111 l 0,-0.533325585408 l -2.49628996836,0 l 0,1.50398185474 l 0.906771043987,0 l 0,-0.0746824384185 q 0,-0.714657267111 0.522727015003,-0.714657267111 q 0.533397844666,0 0.533397844666,0.714657267111 l 0,1.20532013162 q 0,0.703995366363 -0.522727015003,0.703995366363 q -0.533397844666,0 -0.533397844666,-0.703995366363 l 0,-0.0746446436622 l -0.906771043987,0 l 0,1.52531699466 l 2.73098774159,0 z" stroke-width="1.0000492"/>
  </g>
</svg>
