<?xml version="1.0" encoding="UTF-8"?>
<svg xmlns="http://www.w3.org/2000/svg" width="16px" height="16px" viewBox="0 0 16 16">
  <g fill="#2e3436">
    <path d="m 1.00221923928,1.00025054441 l 13.9965405552,0 l 0,13.9965436727 L 1.00221923928,14.9967942171 Z" fill="#2e3436" stroke-width="1.99950737" stroke-linecap="round" stroke-linejoin="round" fill-opacity="0"/>
    <path d="m 1.00369666966,7.55718825474E-06 a 0.999854,0.999854 0 0,0 -1.00368911247,1.00368906506 l 0,13.9926063776 a 0.999854,0.999854 0 0,0 1.00368911247,1.00368906506 l 13.9926070385,0 a 0.999854,0.999854 0 0,0 1.00368911247,-1.00368906506 L 15.9999928207,1.00369662225 A 0.999854,0.999854 0 0,0 14.9963037082,7.55718825474E-06 Z M 2.00000240885,2.00000609298 l 11.9999917816,0 l 0,11.9999874362 l -11.9999917816,0 z" fill="#2e3436" stroke-linecap="round" stroke-linejoin="round"/>
    <path d="m 3.31800255287,10.4963865895 q -0.625179763672,0 -0.625179763672,-0.466550574085 q 0,-0.223957273925 0.149292261021,-0.345250145411 q 0.149292261021,-0.121292871486 0.419896292228,-0.121292871486 l 0,-3.57377543262 q -0.569192331844,0 -0.569192331844,-0.466550574085 q 0,-0.27991825295 0.158625388956,-0.373249527894 q 0.167958516891,-0.0932934890029 0.466550596122,-0.0932934890029 l 1.97817346955,0 q 1.01708045069,0 1.70757321694,0.746480162818 q 0.699825894182,0.746480162818 0.699825894182,1.84753981995 l 0,0.43855874879 q 0,1.09172652963 -0.681163416906,1.75422743797 q -0.671830288971,0.653171559438 -1.80088560332,0.653171559438 z m 3.45247138842,-2.8646202226 q 0,-0.699825861128 -0.429225641569,-1.16637643521 q -0.419896292228,-0.475879922986 -1.11972218641,-0.475879922986 l -1.02640980003,0 l 0,3.57377543262 l 1.03574292797,0 q 0.466550596122,0 0.783805152628,-0.139959126475 q 0.326583905847,-0.139959126475 0.475879945463,-0.3825750982 q 0.158625388956,-0.242623528914 0.214624156568,-0.475879922986 q 0.0653318955467,-0.233290401419 0.0653318955467,-0.503875526875 z m 5.27202702621,1.93151907443 q 0.615846635737,0 0.615846635737,0.466550574085 q 0,0.466550574085 -0.615846635737,0.466550574085 l -2.15546511438,0 q -0.615846635737,0 -0.615846635737,-0.466550574085 q 0,-0.270585125456 0.158625388956,-0.3639164004 q 0.158625388956,-0.102626616497 0.457217468186,-0.102626616497 l 0.606517286396,0 l 0,-3.57377543262 l -0.998417973413,0 l 0,0.867784370086 q 0,0.615846606649 -0.466550596122,0.615846606649 q -0.466550596122,0 -0.466550596122,-0.615846606649 l 0,-1.80088551826 l 4.81480200083,0 l 0,1.80088551826 q 0,0.298584507939 -0.102626621345,0.457217446591 q -0.0932934934094,0.158625381464 -0.363916417588,0.158625381464 q -0.466550596122,0 -0.466550596122,-0.615846606649 l 0,-0.867784370086 l -1.01708045069,0 l 0,3.57377543262 z" stroke-width="0.99975179"/>
  </g>
</svg>
