<?xml version="1.0" encoding="UTF-8" standalone="no"?>
<svg
   width="9.9558735"
   height="16.064999"
   viewBox="0 0 2.6341581 4.250531"
   version="1.1"
   id="svg4268"
   xmlns="http://www.w3.org/2000/svg"
   xmlns:svg="http://www.w3.org/2000/svg"
   xmlns:rdf="http://www.w3.org/1999/02/22-rdf-syntax-ns#"
   xmlns:cc="http://creativecommons.org/ns#"
   xmlns:dc="http://purl.org/dc/elements/1.1/">
  <defs
     id="defs4262" />
  <metadata
     id="metadata4265">
    <rdf:RDF>
      <cc:Work
         rdf:about="">
        <dc:format>image/svg+xml</dc:format>
        <dc:type
           rdf:resource="http://purl.org/dc/dcmitype/StillImage" />
      </cc:Work>
    </rdf:RDF>
  </metadata>
  <g
     id="xor"
     style="display:inline"
     transform="translate(-70.642692,-39.021526)">
    <path
       style="color:#000000;fill:#000000;stroke-width:0.0613223;-inkscape-stroke:none"
       d="m 71.933541,39.02164 c -0.142241,0.0082 -0.234152,0.167888 -0.200263,0.299451 0,0.237814 0,0.475633 0,0.713448 0.118856,0.0095 0.252258,0.05286 0.360871,-0.01809 0.09259,-0.05788 0.103113,-0.177795 0.09461,-0.276514 -0.0029,-0.232907 3.24e-4,-0.466021 -9.47e-4,-0.699017 -0.08455,-0.0079 -0.169094,-0.02072 -0.254155,-0.01928 z"
       id="line432" />
    <path
       style="color:#000000;fill:#000000;stroke-width:0.0613223;-inkscape-stroke:none"
       d="m 71.129516,42.076499 c -0.142238,0.0081 -0.234151,0.167885 -0.200256,0.299453 0,0.291431 0,0.582863 0,0.874297 0.11885,0.0095 0.252255,0.05286 0.360869,-0.01809 0.09257,-0.05786 0.10306,-0.177712 0.09466,-0.276403 -0.0027,-0.286565 3.24e-4,-0.573335 -0.0012,-0.859981 -0.08456,-0.0078 -0.169099,-0.02072 -0.25416,-0.01928 z"
       id="line434" />
    <path
       style="color:#000000;fill:#000000;stroke-width:0.0613223;-inkscape-stroke:none"
       d="m 72.737441,42.076499 c -0.14224,0.0081 -0.234153,0.167885 -0.200257,0.299453 0,0.291431 0,0.582863 0,0.874297 0.118854,0.0095 0.252256,0.05286 0.360868,-0.01809 0.09258,-0.05786 0.103064,-0.177712 0.09466,-0.276403 -0.0027,-0.286565 3.06e-4,-0.573335 -0.0012,-0.859981 -0.08454,-0.0078 -0.169092,-0.02072 -0.254153,-0.01928 z"
       id="line436" />
    <path
       style="color:#000000;fill:#000000;stroke-width:0.355721;stroke-miterlimit:10;-inkscape-stroke:none"
       d="m 71.942281,39.647922 c -0.421813,0.234695 -0.786884,0.58148 -1.011614,1.011374 -0.213354,0.396652 -0.304162,0.852761 -0.285626,1.301266 0,0.307971 0,0.615941 0,0.923907 0.129323,-0.108477 0.233929,-0.243191 0.366386,-0.347931 0.132909,-0.0927 0.290562,-0.144153 0.446874,-0.182107 0.282986,-0.06223 0.580791,-0.06549 0.865213,-0.0262 0.202875,0.03203 0.414182,0.09115 0.587922,0.209361 0.103,0.07938 0.185991,0.180994 0.279765,0.270225 0.0181,0.03174 0.07164,0.04945 0.0847,0.0047 -0.0053,-0.415024 0.01132,-0.830947 -0.01146,-1.245712 -0.06911,-0.761927 -0.525331,-1.477732 -1.189155,-1.859024 -0.03873,-0.02343 -0.07737,-0.04704 -0.116152,-0.07036 -0.006,0.0036 -0.01126,0.0074 -0.01689,0.01053 z m 0.06046,0.475726 c 0.291864,0.20071 0.528562,0.4715 0.68535,0.78801 0.08341,0.16984 0.142153,0.350107 0.175565,0.531259 0.04033,0.215704 0.03287,0.435974 0.03209,0.654303 -0.343968,-0.151274 -0.727403,-0.187702 -1.099435,-0.170838 -0.263855,0.01412 -0.528132,0.0646 -0.771147,0.170597 -0.0029,-0.292153 -0.0077,-0.587955 0.08325,-0.869362 0.138137,-0.462036 0.445833,-0.87112 0.851427,-1.131995 0.01426,0.0091 0.02857,0.01866 0.04286,0.02803 z"
       id="path438" />
    <path
       style="color:#000000;fill:#000000;stroke-width:0.0286757;stroke-miterlimit:10;-inkscape-stroke:none"
       d="m 71.919783,40.048151 c -0.328344,0.751458 -0.656987,1.502849 -0.985445,2.254281 0.111284,0.04848 0.222493,0.09713 0.333636,0.145898 0.230304,-0.527422 0.460919,-1.054708 0.691341,-1.582081 0.230425,0.527373 0.46104,1.054659 0.691342,1.582081 0.111192,-0.04883 0.222465,-0.0974 0.333796,-0.145898 -0.341699,-0.781655 -0.683487,-1.563274 -1.025138,-2.344949 -0.01319,0.03021 -0.02637,0.06042 -0.0395,0.09069 z"
       id="polyline440" />
  </g>
</svg>
