<?xml version="1.0" encoding="UTF-8" standalone="no"?>
<svg
   xmlns:dc="http://purl.org/dc/elements/1.1/"
   xmlns:cc="http://creativecommons.org/ns#"
   xmlns:rdf="http://www.w3.org/1999/02/22-rdf-syntax-ns#"
   xmlns:svg="http://www.w3.org/2000/svg"
   xmlns="http://www.w3.org/2000/svg"
   width="16.000013"
   height="16.000002"
   viewBox="0 0 4.2333368 4.233334"
   version="1.1"
   id="svg4268">
  <defs
     id="defs4262" />
  <metadata
     id="metadata4265">
    <rdf:RDF>
      <cc:Work
         rdf:about="">
        <dc:format>image/svg+xml</dc:format>
        <dc:type
           rdf:resource="http://purl.org/dc/dcmitype/StillImage" />
        <dc:title />
      </cc:Work>
    </rdf:RDF>
  </metadata>
  <path
     style="color:#000000;font-style:normal;font-variant:normal;font-weight:normal;font-stretch:normal;font-size:medium;line-height:normal;font-family:sans-serif;font-variant-ligatures:normal;font-variant-position:normal;font-variant-caps:normal;font-variant-numeric:normal;font-variant-alternates:normal;font-variant-east-asian:normal;font-feature-settings:normal;font-variation-settings:normal;text-indent:0;text-align:start;text-decoration:none;text-decoration-line:none;text-decoration-style:solid;text-decoration-color:#000000;letter-spacing:normal;word-spacing:normal;text-transform:none;writing-mode:lr-tb;direction:ltr;text-orientation:mixed;dominant-baseline:auto;baseline-shift:baseline;text-anchor:start;white-space:normal;shape-padding:0;shape-margin:0;inline-size:0;clip-rule:nonzero;display:inline;overflow:visible;visibility:visible;isolation:auto;mix-blend-mode:normal;color-interpolation:sRGB;color-interpolation-filters:linearRGB;solid-color:#000000;solid-opacity:1;vector-effect:none;fill:#000000;fill-opacity:1;fill-rule:nonzero;stroke:none;stroke-linecap:round;stroke-linejoin:round;stroke-miterlimit:4;stroke-dasharray:none;stroke-dashoffset:0;stroke-opacity:1;color-rendering:auto;image-rendering:auto;shape-rendering:auto;text-rendering:auto;enable-background:accumulate;stop-color:#000000;stop-opacity:1;opacity:1"
     d="M 0.26367188 0 A 0.26460996 0.26460996 0 0 0 0 0.26367188 L 0 3.96875 A 0.26460996 0.26460996 0 0 0 0.26367188 4.2324219 L 3.96875 4.2324219 A 0.26460996 0.26460996 0 0 0 4.2324219 3.96875 L 4.2324219 0.26367188 A 0.26460996 0.26460996 0 0 0 3.96875 0 L 0.26367188 0 z M 0.52929688 0.52929688 L 3.7050781 0.52929688 L 3.7050781 3.7050781 L 0.52929688 3.7050781 L 0.52929688 0.52929688 z "
     id="rect715" />
  <g
     aria-label="U"
     id="text687-7"
     style="font-style:normal;font-variant:normal;font-weight:bold;font-stretch:normal;font-size:2.82223px;line-height:1.25;font-family:sans-serif;-inkscape-font-specification:'sans-serif Bold';letter-spacing:0px;word-spacing:0px;display:inline;fill:#000000;fill-opacity:1;stroke:none;stroke-width:0.264583"
     transform="translate(-103.1875,-44.450001)">
    <path
       d="m 106.24665,46.941722 q 0,0.410633 -0.28787,0.668867 -0.28786,0.258233 -0.68156,0.258233 -0.3937,0 -0.68157,-0.262467 -0.28787,-0.262466 -0.28787,-0.664633 v -1.176865 q -0.25823,-0.0085 -0.25823,-0.211667 0,-0.122766 0.072,-0.1651 0.072,-0.04657 0.20743,-0.04657 h 0.55033 q 0.13547,0 0.20744,0.04233 0.072,0.04233 0.072,0.169333 0,0.211667 -0.2794,0.211667 h -0.14816 v 1.214965 q 0,0.194734 0.16086,0.3302 0.16087,0.135467 0.38524,0.135467 0.22436,0 0.38523,-0.135467 0.16087,-0.135466 0.16087,-0.3302 V 45.76485 h -0.14817 q -0.2794,0 -0.2794,-0.211667 0,-0.122766 0.072,-0.1651 0.072,-0.04657 0.20743,-0.04657 h 0.55033 q 0.1397,0 0.20744,0.04657 0.072,0.04233 0.072,0.1651 0,0.211667 -0.25823,0.211667 z"
       style="font-style:normal;font-variant:normal;font-weight:bold;font-stretch:normal;font-size:4.23333px;font-family:FreeMono;-inkscape-font-specification:'FreeMono Bold';stroke-width:0.264583"
       id="path1405" />
  </g>
</svg>
