<?xml version="1.0" encoding="UTF-8" standalone="no"?>
<svg
   width="15.996548"
   height="15.996555"
   viewBox="0 0 4.2324198 4.2324221"
   version="1.1"
   id="svg4268"
   xmlns="http://www.w3.org/2000/svg"
   xmlns:svg="http://www.w3.org/2000/svg"
   xmlns:rdf="http://www.w3.org/1999/02/22-rdf-syntax-ns#"
   xmlns:cc="http://creativecommons.org/ns#"
   xmlns:dc="http://purl.org/dc/elements/1.1/">
  <defs
     id="defs4262" />
  <metadata
     id="metadata4265">
    <rdf:RDF>
      <cc:Work
         rdf:about="">
        <dc:format>image/svg+xml</dc:format>
        <dc:type
           rdf:resource="http://purl.org/dc/dcmitype/StillImage" />
      </cc:Work>
    </rdf:RDF>
  </metadata>
  <g
     id="hazard"
     style="display:inline"
     transform="translate(-111.12409,-33.866536)">
    <path
       style="color:#000000;fill:#000000;fill-opacity:0;stroke-width:0.529167;stroke-linecap:square;stroke-linejoin:round;-inkscape-stroke:none"
       d="m 111.38776,33.866536 a 0.26460982,0.26460982 0 0 0 -0.26367,0.263672 v 3.705078 a 0.26460982,0.26460982 0 0 0 0.26367,0.263672 h 3.70508 a 0.26460982,0.26460982 0 0 0 0.26367,-0.263672 v -3.705078 a 0.26460982,0.26460982 0 0 0 -0.26367,-0.263672 z m 0.26562,0.529297 h 3.17579 v 3.175781 h -3.17579 z"
       id="path659" />
    <path
       style="font-weight:bold;font-size:4.23333px;line-height:1.25;font-family:FreeMono;-inkscape-font-specification:'FreeMono Bold';letter-spacing:0px;word-spacing:0px;stroke-width:0.264583"
       d="m 113.67528,37.226204 q -0.2794,0 -0.2794,-0.211667 0,-0.211666 0.2794,-0.211666 h 0.0635 v -0.5969 h -0.90593 v 0.5969 h 0.0635 q 0.2794,0 0.2794,0.211666 0,0.211667 -0.2794,0.211667 h -0.51224 q -0.2794,0 -0.2794,-0.211667 0,-0.122766 0.072,-0.165099 0.072,-0.04657 0.20743,-0.04657 h 0.0254 v -1.621365 q -0.22013,-0.02117 -0.22013,-0.211667 0,-0.122766 0.072,-0.1651 0.072,-0.04657 0.20743,-0.04657 h 0.42757 q 0.2794,0 0.2794,0.211666 0,0.211667 -0.2794,0.211667 h -0.0635 v 0.601132 h 0.90593 v -0.601132 h -0.0635 q -0.2794,0 -0.2794,-0.211667 0,-0.122766 0.072,-0.1651 0.072,-0.04657 0.20743,-0.04657 h 0.42757 q 0.2794,0 0.2794,0.211666 0,0.1905 -0.22014,0.211667 v 1.621365 h 0.0254 q 0.2794,0 0.2794,0.211666 0,0.211667 -0.2794,0.211667 z"
       id="text663"
       aria-label="H" />
  </g>
</svg>
