<?xml version="1.0" encoding="UTF-8" standalone="no"?>
<svg
   width="16.002033"
   height="10.004916"
   viewBox="0 0 4.2338712 2.6471342"
   version="1.1"
   id="svg4268"
   xmlns="http://www.w3.org/2000/svg"
   xmlns:svg="http://www.w3.org/2000/svg"
   xmlns:rdf="http://www.w3.org/1999/02/22-rdf-syntax-ns#"
   xmlns:cc="http://creativecommons.org/ns#"
   xmlns:dc="http://purl.org/dc/elements/1.1/">
  <defs
     id="defs4262" />
  <metadata
     id="metadata4265">
    <rdf:RDF>
      <cc:Work
         rdf:about="">
        <dc:format>image/svg+xml</dc:format>
        <dc:type
           rdf:resource="http://purl.org/dc/dcmitype/StillImage" />
      </cc:Work>
    </rdf:RDF>
  </metadata>
  <g
     id="interface-realization"
     style="display:inline"
     transform="translate(-25.134764,-5.42904)">
    <g
       id="path4621-5">
      <path
         style="color:#000000;fill:#000000;fill-opacity:0;stroke-width:0.529167;stroke-linecap:round;stroke-linejoin:round;-inkscape-stroke:none"
         d="m 29.104166,6.752075 -1.5875,-1.058333 v 2.116667 z"
         id="path3658" />
      <path
         style="color:#000000;fill:#000000;stroke-linecap:round;stroke-linejoin:round;-inkscape-stroke:none"
         d="M 27.392578,5.4609375 A 0.26460996,0.26460996 0 0 0 27.251953,5.6933594 V 7.8105469 A 0.26460996,0.26460996 0 0 0 27.664062,8.03125 L 29.25,6.9726562 a 0.26460996,0.26460996 0 0 0 0,-0.4414062 L 27.664062,5.4726562 a 0.26460996,0.26460996 0 0 0 -0.271484,-0.011719 z m 0.388672,0.7285156 0.84375,0.5625 -0.84375,0.5625 z"
         id="path3660" />
    </g>
    <path
       style="color:#000000;fill:#000000;stroke-linecap:round;stroke-dasharray:0.529167, 1.05833;-inkscape-stroke:none"
       d="m 25.400391,6.4882812 a 0.2645835,0.2645835 0 0 0 -0.265625,0.2636719 0.2645835,0.2645835 0 0 0 0.265625,0.265625 h 0.263671 a 0.2645835,0.2645835 0 0 0 0.265625,-0.265625 0.2645835,0.2645835 0 0 0 -0.265625,-0.2636719 z m 1.322265,0 a 0.2645835,0.2645835 0 0 0 -0.263672,0.2636719 0.2645835,0.2645835 0 0 0 0.263672,0.265625 h 0.529297 a 0.2645835,0.2645835 0 0 0 0.265625,-0.265625 0.2645835,0.2645835 0 0 0 -0.265625,-0.2636719 z"
       id="path4625-9" />
  </g>
</svg>
