<?xml version="1.0" encoding="UTF-8" standalone="no"?>
<svg
   width="16.000013"
   height="16"
   viewBox="0 0 4.2333368 4.2333335"
   version="1.1"
   id="svg4268"
   xmlns="http://www.w3.org/2000/svg"
   xmlns:svg="http://www.w3.org/2000/svg"
   xmlns:rdf="http://www.w3.org/1999/02/22-rdf-syntax-ns#"
   xmlns:cc="http://creativecommons.org/ns#"
   xmlns:dc="http://purl.org/dc/elements/1.1/">
  <defs
     id="defs4262" />
  <metadata
     id="metadata4265">
    <rdf:RDF>
      <cc:Work
         rdf:about="">
        <dc:format>image/svg+xml</dc:format>
        <dc:type
           rdf:resource="http://purl.org/dc/dcmitype/StillImage" />
        <dc:title />
      </cc:Work>
    </rdf:RDF>
  </metadata>
  <g
     id="c4-component"
     style="display:inline"
     transform="translate(-127,9.7895831)">
    <path
       id="rect1264-7-9"
       style="fill-opacity:0;stroke:#000000;stroke-width:0.529167;stroke-linecap:round;stroke-linejoin:round"
       d="m 127.26458,-9.5249996 h 3.70417 v 3.7041666 h -3.70417 z" />
    <g
       aria-label="CP"
       id="text84-8-3-5-4"
       style="font-weight:bold;font-size:2.46944px;line-height:1.25;font-family:FreeMono;-inkscape-font-specification:'FreeMono, Bold';letter-spacing:0px;word-spacing:0px;display:inline;stroke-width:0.264583">
      <path
         d="m 128.98335,-7.0637099 q -0.0844,0.043408 -0.17725,0.065112 -0.0928,0.021704 -0.19534,0.021704 -0.36414,0 -0.55586,-0.2399504 -0.19172,-0.2399505 -0.19172,-0.6933242 0,-0.4545796 0.19172,-0.69453 0.19172,-0.2399505 0.55586,-0.2399505 0.1025,0 0.19655,0.021704 0.0941,0.021704 0.17604,0.065112 v 0.3954963 q -0.0916,-0.084405 -0.17845,-0.1229897 -0.0856,-0.039791 -0.17725,-0.039791 -0.19534,0 -0.29542,0.1555458 -0.0989,0.15434 -0.0989,0.4594027 0,0.3038568 0.0989,0.4594026 0.10008,0.15434 0.29542,0.15434 0.0916,0 0.17725,-0.038585 0.0868,-0.039791 0.17845,-0.1241955 z"
         id="path1584" />
      <path
         d="m 129.71767,-8.513059 v 0.5281322 h 0.1459 q 0.17484,0 0.24477,-0.059083 0.0711,-0.059083 0.0711,-0.2049828 0,-0.1458995 -0.0711,-0.2049828 -0.0699,-0.059083 -0.24477,-0.059083 z m -0.3557,-0.2990337 h 0.48834 q 0.37258,0 0.53536,0.1326359 0.16399,0.132636 0.16399,0.4304639 0,0.297828 -0.16399,0.4304639 -0.16278,0.132636 -0.53536,0.132636 h -0.13264 v 0.6740317 h -0.3557 z"
         id="path1586" />
    </g>
  </g>
</svg>
