<?xml version="1.0" encoding="UTF-8" standalone="no"?>
<svg
   width="16.003952"
   height="16.003952"
   viewBox="0 0 4.2343789 4.2343791"
   version="1.1"
   id="svg4268"
   xmlns="http://www.w3.org/2000/svg"
   xmlns:svg="http://www.w3.org/2000/svg"
   xmlns:rdf="http://www.w3.org/1999/02/22-rdf-syntax-ns#"
   xmlns:cc="http://creativecommons.org/ns#"
   xmlns:dc="http://purl.org/dc/elements/1.1/">
  <defs
     id="defs4262" />
  <metadata
     id="metadata4265">
    <rdf:RDF>
      <cc:Work
         rdf:about="">
        <dc:format>image/svg+xml</dc:format>
        <dc:type
           rdf:resource="http://purl.org/dc/dcmitype/StillImage" />
      </cc:Work>
    </rdf:RDF>
  </metadata>
  <g
     id="value-type"
     style="display:inline"
     transform="translate(-93.662107,-4.7617167)">
    <g
       id="rect1104">
      <path
         style="color:#000000;fill:#000000;fill-opacity:0;stroke-width:0.529167;stroke-linecap:round;stroke-linejoin:round;-inkscape-stroke:none"
         d="m 93.927086,5.0270834 h 3.704167 V 8.73125 h -3.704167 z"
         id="path3584" />
      <path
         style="color:#000000;fill:#000000;stroke-linecap:round;stroke-linejoin:round;-inkscape-stroke:none"
         d="m 93.927734,4.7617187 a 0.26460996,0.26460996 0 0 0 -0.265625,0.265625 v 3.7031251 a 0.26460996,0.26460996 0 0 0 0.265625,0.265625 h 3.703125 a 0.26460996,0.26460996 0 0 0 0.265625,-0.265625 V 5.0273437 a 0.26460996,0.26460996 0 0 0 -0.265625,-0.265625 z m 0.263672,0.5292969 h 3.175781 v 3.1757813 h -3.175781 z"
         id="path3586" />
    </g>
    <path
       d="m 94.945019,6.2240116 q 0,0.123472 -0.162983,0.123472 h -0.04692 l 0.355599,0.8371402 0.3556,-0.8371402 h -0.05927 q -0.07902,0 -0.121003,-0.024694 -0.04198,-0.027164 -0.04198,-0.098778 0,-0.071614 0.04198,-0.096308 0.04198,-0.027164 0.121003,-0.027164 h 0.325966 q 0.162983,0 0.162983,0.123472 0,0.123472 -0.167922,0.123472 L 95.201841,7.5402231 H 94.957366 L 94.45854,6.3474836 q -0.167922,0 -0.167922,-0.123472 0,-0.071614 0.04198,-0.096308 0.04198,-0.027164 0.121003,-0.027164 h 0.328435 q 0.07902,0 0.121003,0.027164 0.04198,0.024694 0.04198,0.096308 z m 1.903939,1.0692675 q 0.162983,0 0.162983,0.123472 0,0.123472 -0.162983,0.123472 h -0.57044 q -0.162983,0 -0.162983,-0.123472 0,-0.071614 0.04198,-0.096308 0.04198,-0.027164 0.121003,-0.027164 h 0.160513 V 6.3474836 h -0.26423 v 0.2296579 q 0,0.1629831 -0.123472,0.1629831 -0.123472,0 -0.123472,-0.1629831 V 6.1005396 h 1.274231 v 0.4766019 q 0,0.079022 -0.02716,0.1210026 -0.02469,0.04198 -0.09631,0.04198 -0.123472,0 -0.123472,-0.1629831 V 6.3474836 h -0.269169 v 0.9457955 z"
       id="text1108"
       style="font-weight:bold;font-size:2.46944px;line-height:1.25;font-family:FreeMono;-inkscape-font-specification:'FreeMono, Bold';letter-spacing:0px;word-spacing:0px;stroke-width:0.264583"
       aria-label="VT" />
  </g>
</svg>
