<?xml version="1.0" encoding="UTF-8"?>
<svg xmlns="http://www.w3.org/2000/svg" width="16px" height="16px" viewBox="0 0 16 16">
  <g fill="#2e3436">
    <path d="m 7.99887621636,3.00176269843 l 6.99727878219,-1.99922162638 l -1.99922412837,6.99727380329" fill="#2e3436" stroke-width="1.99922288" stroke-linecap="round" stroke-linejoin="round" fill-opacity="0"/>
    <path d="m 14.7203226916,0.0400020382603 l -6.99531041347,1.99971315123 a 0.999612,0.999611 0 0,0 -0.686250408473,1.23967404648 a 0.999612,0.999611 0 0,0 1.23229704875,0.68624577159 L 13.539679265,2.46031841158 L 12.0343607851,7.72155362469 a 0.999612,0.999611 0 0,0 0.686250408473,1.23967404648 a 0.999612,0.999611 0 0,0 1.23967559791,-0.686249549644 l 1.99971149797,-6.99530165898 A 0.999712,0.999711 0 0,0 14.7203226916,0.0400020382603 Z" fill="#2e3436" stroke-linecap="round" stroke-linejoin="round"/>
    <path d="m 13.2887934814,1.2944335424 l -0.273040321405,0.273039979701 a 0.999612,0.999611 0 0,0 0,1.41677033884 a 0.999612,0.999611 0 0,0 1.4167721119,0 l 0.273040321405,-0.273039979701 a 0.999612,0.999611 0 0,0 0,-1.41677033884 a 0.999612,0.999611 0 0,0 -1.4167721119,0 z m -3.09918710575,3.09918700523 l -1.40939356274,1.41677033884 a 0.999612,0.999611 0 0,0 0,1.40939179891 a 0.999612,0.999611 0 0,0 1.40939356274,0 l 1.4167721119,-1.40939179891 a 0.999612,0.999611 0 0,0 0,-1.41677033884 a 0.999612,0.999611 0 0,0 -1.4167721119,0 z m -4.24293778654,4.24293247658 l -1.40939356274,1.40938802086 a 0.999612,0.999611 0 0,0 0,1.41677033884 a 0.999612,0.999611 0 0,0 1.40939356274,0 l 1.4167721119,-1.41677033884 a 0.999612,0.999611 0 0,0 0,-1.40938802086 a 0.999612,0.999611 0 0,0 -1.4167721119,0 z m -3.53455173059,3.94776821127 a 0.999612,0.999611 0 0,0 -0.701007506791,0.295179377529 l -1.4167721119,1.40939179891 a 0.999612,0.999611 0 0,0 0,1.41677033884 a 0.999612,0.999611 0 0,0 1.4167721119,0 l 1.40939356274,-1.41677033884 a 0.999612,0.999611 0 0,0 0,-1.40939179891 a 0.999612,0.999611 0 0,0 -0.708386055949,-0.295179377529 z" fill="#2e3436" stroke-dasharray="1.99922288, 3.99843064" stroke-linecap="round"/>
  </g>
</svg>
