<?xml version="1.0" encoding="UTF-8" standalone="no"?>
<svg
   width="15.996555"
   height="15.996558"
   viewBox="0 0 4.2324218 4.2324228"
   version="1.1"
   id="svg4268"
   xmlns="http://www.w3.org/2000/svg"
   xmlns:svg="http://www.w3.org/2000/svg"
   xmlns:rdf="http://www.w3.org/1999/02/22-rdf-syntax-ns#"
   xmlns:cc="http://creativecommons.org/ns#"
   xmlns:dc="http://purl.org/dc/elements/1.1/">
  <defs
     id="defs4262" />
  <metadata
     id="metadata4265">
    <rdf:RDF>
      <cc:Work
         rdf:about="">
        <dc:format>image/svg+xml</dc:format>
        <dc:type
           rdf:resource="http://purl.org/dc/dcmitype/StillImage" />
      </cc:Work>
    </rdf:RDF>
  </metadata>
  <g
     id="requirement"
     style="display:inline"
     transform="translate(-69.84987,9.7904953)">
    <path
       style="color:#000000;fill:#000000;fill-opacity:0;stroke-width:0.529167;stroke-linecap:square;stroke-linejoin:round;-inkscape-stroke:none"
       d="m 70.113542,-9.7904953 a 0.26460982,0.26460982 0 0 0 -0.263672,0.263672 v 3.7050786 a 0.26460982,0.26460982 0 0 0 0.263672,0.263672 h 3.705078 a 0.26460982,0.26460982 0 0 0 0.263672,-0.263672 v -3.7050786 a 0.26460982,0.26460982 0 0 0 -0.263672,-0.263672 z m 0.265625,0.5292971 h 3.175782 v 3.1757815 h -3.175782 z"
       id="rect4893-97" />
    <path
       style="font-weight:bold;font-size:4.23333px;line-height:1.25;font-family:FreeMono;-inkscape-font-specification:'FreeMono Bold';letter-spacing:0px;word-spacing:0px;stroke-width:0.264583"
       d="m 73.031845,-6.8541615 q 0.279399,0 0.279399,0.2116664 0,0.2116665 -0.279399,0.2116665 h -0.334433 q -0.156634,-0.3047997 -0.402167,-0.5968995 -0.241299,-0.2963331 -0.376766,-0.3428997 h -0.4064 v 0.5164663 h 0.148167 q 0.2794,0 0.2794,0.2116664 0,0.2116665 -0.2794,0.2116665 h -0.635 q -0.279399,0 -0.279399,-0.2116665 0,-0.2116664 0.279399,-0.2116664 h 0.0635 v -1.6213654 h -0.0635 q -0.279399,0 -0.279399,-0.2116664 0,-0.1227666 0.07197,-0.1650999 0.07197,-0.046567 0.207433,-0.046567 h 0.944033 q 0.410633,0 0.668866,0.2116665 0.262467,0.2074331 0.262467,0.5418662 0,0.3894663 -0.4572,0.6392328 0.275166,0.2412998 0.533399,0.6519328 z m -1.519766,-0.9397993 h 0.321733 q 0.2667,0 0.440267,-0.1015999 0.1778,-0.1058332 0.1778,-0.2624664 0,-0.1354666 -0.131234,-0.2243665 -0.131233,-0.093133 -0.334433,-0.093133 h -0.474133 z"
       id="text84"
       aria-label="R" />
  </g>
</svg>
