<?xml version="1.0" encoding="UTF-8"?>
<svg xmlns="http://www.w3.org/2000/svg" width="16px" height="16px" viewBox="0 0 16 16">
  <g fill="#2e3436">
    <path d="M 7.99783870676,3.00198143383 L 14.9977419758,0.998982372679 L 12.9977692353,8.00948665711" fill="#2e3436" stroke-width="2.00148779" stroke-linecap="round" stroke-linejoin="round" fill-opacity="0"/>
    <path d="m 14.7221562061,0.0394039303859 l -6.99793567394,1.99610242703 a 0.999987,1.0015 0 0,0 -0.686506253273,1.24201869912 a 0.999987,1.0015 0 0,0 1.23275880498,0.687547485036 L 13.5410700164,2.45690508576 L 12.0351851245,7.73548361074 a 0.999987,1.0015 0 0,0 0.686506253273,1.23462620383 a 0.999987,1.0015 0 0,0 1.24014049918,-0.687543699837 L 15.9622967052,1.27403013421 A 1.00009,1.0016 0 0,0 14.7221562061,0.0394039303859 Z" fill="#2e3436" stroke-linecap="round" stroke-linejoin="round"/>
    <path d="M 12.293547823,2.27208134773 L 8.0490192343,6.523038678 c -0.392596073035,0.391465367965 -0.392596073035,1.02798457389 0,1.41944994186 c 0.390025273591,0.388266874096 1.01989645984,0.388266874096 1.40992173343,0 l 4.24452821075,-4.25095733027 c 0.392596073035,-0.391465367965 0.392596073035,-1.02798457389 0,-1.41944994186 c -0.390025273591,-0.388266874096 -1.0198960819,-0.388266874096 -1.40992135549,0 z m -6.93102043272,6.94151901726 l -5.07176815902,5.07944673153 c -0.38767897501,0.390617483199 -0.38767897501,1.02143996336 0,1.41205744656 c 0.390871876172,0.393191419094 1.02643155146,0.393191419094 1.41730342763,0 l 5.07176815902,-5.07944673153 c 0.387679352958,-0.390617483199 0.387679352958,-1.02144374856 0,-1.41205744656 c -0.390871876172,-0.393191419094 -1.02643117351,-0.393191419094 -1.41730342763,0 z" fill="#2e3436" stroke-dasharray="6.00445958, 6.00445958" stroke-linecap="round"/>
  </g>
</svg>
