<?xml version="1.0" encoding="UTF-8"?>
<svg xmlns="http://www.w3.org/2000/svg" width="16px" height="16px" viewBox="0 0 16 16">
  <g fill="#2e3436">
    <path d="m 15.0032229774,7.99732727162 a 7.00151,6.66503 0 0,1 -7.00150632435,6.66502885432 a 7.00151,6.66503 0 0,1 -7.00150632435,-6.66502885432 a 7.00151,6.66503 0 0,1 7.00150632435,-6.66502381619 a 7.00151,6.66503 0 0,1 7.00150632435,6.66502381619 z" fill="#2e3436" stroke-width="2.30936719" stroke-linecap="square" stroke-linejoin="round" fill-opacity="0"/>
    <path d="m 8.00368999139,0 c -2.12646480556,0 -4.0747772351,0.811652944583 -5.5376068614,2.20418221534 c -1.46282962629,1.39252927075 -2.46608312999,3.45103897278 -2.46608312999,5.7958152656 c 0,2.34478133095 1.0032535037,4.40329103298 2.46608312999,5.79582030373 c 1.46282962629,1.39252927075 3.41114205583,2.20418221534 5.5376068614,2.20418221534 c 2.12646858591,0 4.06739800839,-0.811652944583 5.53022763468,-2.20418221534 c 1.46282962629,-1.39252927075 2.46608312999,-3.45103897278 2.46608312999,-5.79582030373 c 0,-2.34477629282 -1.0032535037,-4.40328599485 -2.46608312999,-5.7958152656 c -1.46282962629,-1.39252927075 -3.40375904878,-2.20418221534 -5.53022763468,-2.20418221534 z m 0,2.66666750636 c 1.74035584072,0 3.29980721676,0.682601224707 4.37101992056,1.70233400855 c 1.07121648414,1.01973782197 1.63175040824,2.29479299738 1.63175040824,3.63099596603 c 0,1.33620800679 -0.5605339241,2.60142371278 -1.63175040824,3.62115649662 c -1.0712127038,1.01973782197 -2.63066407984,1.71217851609 -4.37101992056,1.71217851609 c -1.74035206037,0 -3.29980343642,-0.692440694116 -4.37101992056,-1.71217851609 c -1.0712127038,-1.01973278384 -1.6317466279,-2.28494848984 -1.6317466279,-3.62115649662 c 0,-1.33620296866 0.5605339241,-2.61125814406 1.6317466279,-3.63099596603 c 1.07121648414,-1.01973278384 2.63066786018,-1.70233400855 4.37101992056,-1.70233400855 z" fill="#2e3436" stroke-linecap="square" stroke-linejoin="round"/>
  </g>
</svg>
