<?xml version="1.0" encoding="UTF-8"?>
<svg xmlns="http://www.w3.org/2000/svg" width="16px" height="16px" viewBox="0 0 16 16">
  <g fill="#2e3436">
    <path d="m 14.9933331282,4.00283806436 a 6.97758,2.99632 0 0,1 -6.97756871849,2.9963216881 a 6.97758,2.99632 0 0,1 -6.97760652192,-2.9963216881 a 6.97758,2.99632 0 0,1 6.97760652192,-2.9963216881 a 6.97758,2.99632 0 0,1 6.97756871849,2.9963216881 z" fill="#2e3436" stroke-width="2.01553902" stroke-linecap="round" stroke-linejoin="round" fill-opacity="0"/>
    <path d="m 8.01844845353,0 c -2.04357800235,0 -3.89757178624,0.345248325665 -5.3308511599,0.960739179454 c -0.716677490262,0.307746751236 -1.33446119877,0.678421681669 -1.81634156423,1.16766719897 c -0.481880365459,0.489245517304 -0.841731247926,1.14591469659 -0.841731247926,1.87713599178 c 0,0.731221673572 0.3598886859,1.38050064753 0.841731247926,1.86974616484 c 0.481880365459,0.489245517304 1.09966407397,0.867312544983 1.81634156423,1.1750574043 c 1.43327937366,0.615490097022 3.28727315754,0.960739179454 5.3308511599,0.960739179454 c 2.04357800235,0 3.89757178624,-0.345248325665 5.33088896333,-0.960739179454 c 0.716639686829,-0.307742967402 1.33446119877,-0.685811886998 1.81634156423,-1.1750574043 c 0.481880365459,-0.489245517304 0.834321774981,-1.13852449126 0.834321774981,-1.86974616484 c 0,-0.731221295188 -0.352327999222,-1.38789047448 -0.834321774981,-1.87713599178 c -0.481880365459,-0.489245517304 -1.0997018774,-0.859922339654 -1.81634156423,-1.16766719897 c -1.43331717709,-0.615490097022 -3.28731096098,-0.960739179454 -5.33088896333,-0.960739179454 z m 0,2.01755178495 c 1.81002839085,0 3.44139775549,0.32179612525 4.53346333934,0.790762186581 c 0.54607059536,0.234484165815 0.949697853696,0.511326456437 1.17398562402,0.739029992509 c 0.22417436002,0.227703536073 0.258575484407,0.362010708344 0.258575484407,0.458198406164 c 0,0.0961888329707 -0.0340230900536,0.230496005241 -0.258575484407,0.458198784548 c -0.22417436002,0.227703536073 -0.627915028656,0.497157513282 -1.17398562402,0.73163978718 c -1.09206558385,0.468964169414 -2.72343494849,0.79815239191 -4.53346333934,0.79815239191 c -1.81002839085,0 -3.44873162157,-0.32918973603 -4.54083500885,-0.79815239191 c -0.546032791927,-0.234484165815 -0.949697853696,-0.503936251107 -1.17394782058,-0.73163978718 c -0.22417436002,-0.227703536073 -0.258575484407,-0.362010708344 -0.258575484407,-0.458198784548 c 0,-0.0961888329707 0.0340230900536,-0.230496005241 0.258575484407,-0.458198406164 c 0.22417436002,-0.227703536073 0.627915028656,-0.504547718611 1.17394782058,-0.739029992509 c 1.09210338729,-0.468964169414 2.730806618,-0.790762186581 4.54083500885,-0.790762186581 z" fill="#2e3436" stroke-linecap="round" stroke-linejoin="round"/>
    <path d="m 1.00020324071,3.98287909909 l 0,9.01025366867 c 3.78034333721E-05,1.00113901904 4.0008885697,2.0022784543 7.00153609526,2.0022784543 c 3.00064752556,0 7.00149829183,-1.00113943526 7.00149829183,-2.0022784543 l 0,-9.01025366867" fill="#2e3436" stroke-width="2.00135619" fill-opacity="0"/>
    <path d="m 0,3.98337175422 l 0,9.00877570329 c 0,0.458850928262 0.227576669025,0.818545816951 0.450390105443,1.05681271902 c 0.223040257018,0.238266864227 0.468724770638,0.404335724606 0.738338857596,0.554272475463 c 0.539303780783,0.299873350361 1.18997647634,0.530417788672 1.92710562407,0.731639673665 c 1.47425829546,0.402443807825 3.27638576873,0.665127031097 4.8878705274,0.665126993258 c 1.61144695524,3.78383369082E-08 3.41357442851,-0.26268280705 4.8878705274,-0.665126993258 c 0.737129147728,-0.201221998508 1.38780184329,-0.431763825974 1.92706782064,-0.731639673665 c 0.269538480091,-0.149937810331 0.515412010878,-0.315999670617 0.738338857596,-0.554272475463 c 0.223040257018,-0.238272918361 0.443018435931,-0.597958650172 0.443018435931,-1.05681271902 l 0,-9.00877570329 l -1.99352625654,0 L 14.0064744995,12.7408770709 c -0.0408277080643,0.0320869086028 -0.0635097681001,0.0559099247069 -0.162554763589,0.110854971856 c -0.304695673147,0.169406012389 -0.838555759521,0.38006761616 -1.47671551863,0.554272399786 c -1.27631951821,0.348409718606 -2.97444974622,0.591223994008 -4.36361251311,0.591223994008 c -1.38920057032,0 -3.08733079833,-0.242813897018 -4.36365031654,-0.591223994008 c -0.638159759105,-0.174205048495 -1.17942931842,-0.384862603564 -1.48408718814,-0.554272399786 c -0.0937525148143,-0.0520806851425 -0.113032265845,-0.0711058002905 -0.154994076911,-0.10346514491 l 0,-8.76489552197 z" fill="#2e3436"/>
  </g>
</svg>
