<?xml version="1.0" encoding="UTF-8" standalone="no"?>
<svg
   width="16.000219"
   height="15.998162"
   viewBox="0 0 4.2333913 4.2328472"
   version="1.1"
   id="svg4268"
   xmlns="http://www.w3.org/2000/svg"
   xmlns:svg="http://www.w3.org/2000/svg"
   xmlns:rdf="http://www.w3.org/1999/02/22-rdf-syntax-ns#"
   xmlns:cc="http://creativecommons.org/ns#"
   xmlns:dc="http://purl.org/dc/elements/1.1/">
  <defs
     id="defs4262" />
  <metadata
     id="metadata4265">
    <rdf:RDF>
      <cc:Work
         rdf:about="">
        <dc:format>image/svg+xml</dc:format>
        <dc:type
           rdf:resource="http://purl.org/dc/dcmitype/StillImage" />
      </cc:Work>
    </rdf:RDF>
  </metadata>
  <g
     id="dependency"
     style="display:inline"
     transform="translate(-17.19846,-9.9270897)">
    <g
       id="path4594-6">
      <path
         style="color:#000000;fill:#000000;fill-opacity:0;stroke-width:0.529167;stroke-linecap:round;stroke-linejoin:round;-inkscape-stroke:none"
         d="M 19.314583,10.720825 21.166666,10.191659 20.6375,12.043742"
         id="path3674" />
      <path
         style="color:#000000;fill:#000000;stroke-linecap:round;stroke-linejoin:round;-inkscape-stroke:none"
         d="m 21.09375,9.9375 -1.851563,0.529297 a 0.2645835,0.2645835 0 0 0 -0.18164,0.326172 0.2645835,0.2645835 0 0 0 0.326172,0.18164 l 1.394531,-0.398437 -0.398438,1.394531 a 0.2645835,0.2645835 0 0 0 0.181641,0.328125 0.2645835,0.2645835 0 0 0 0.328125,-0.18164 l 0.529297,-1.853516 A 0.26460996,0.26460996 0 0 0 21.09375,9.9375 Z"
         id="path3676" />
    </g>
    <g
       id="path4598-1">
      <path
         style="color:#000000;fill:#000000;fill-opacity:0;stroke-width:0.529167;stroke-linecap:round;stroke-dasharray:0.529167, 1.05833;-inkscape-stroke:none"
         d="m 17.4625,13.895826 3.439583,-3.439584"
         id="path3666" />
      <path
         style="color:#000000;fill:#000000;stroke-linecap:round;stroke-dasharray:0.529167, 1.05833;-inkscape-stroke:none"
         d="m 20.714844,10.269531 -0.07227,0.07227 a 0.2645835,0.2645835 0 0 0 0,0.373047 0.2645835,0.2645835 0 0 0 0.375,0 l 0.07227,-0.07227 a 0.2645835,0.2645835 0 0 0 0,-0.373047 0.2645835,0.2645835 0 0 0 -0.375,0 z m -0.632813,0.742188 a 0.2645835,0.2645835 0 0 0 -0.1875,0.07813 l -0.375,0.373047 a 0.2645835,0.2645835 0 0 0 0,0.375 0.2645835,0.2645835 0 0 0 0.375,0 l 0.375,-0.375 a 0.2645835,0.2645835 0 0 0 0,-0.373047 0.2645835,0.2645835 0 0 0 -0.1875,-0.07813 z m -1.123047,1.123047 a 0.2645835,0.2645835 0 0 0 -0.1875,0.07813 l -0.373047,0.373047 a 0.2645835,0.2645835 0 0 0 0,0.375 0.2645835,0.2645835 0 0 0 0.373047,0 l 0.375,-0.375 a 0.2645835,0.2645835 0 0 0 0,-0.373047 0.2645835,0.2645835 0 0 0 -0.1875,-0.07813 z m -1.123047,1.123047 a 0.2645835,0.2645835 0 0 0 -0.185546,0.07617 l -0.375,0.375 a 0.2645835,0.2645835 0 0 0 0,0.373047 0.2645835,0.2645835 0 0 0 0.375,0 l 0.373046,-0.373047 a 0.2645835,0.2645835 0 0 0 0,-0.375 0.2645835,0.2645835 0 0 0 -0.1875,-0.07617 z"
         id="path3668" />
    </g>
  </g>
</svg>
