<?xml version="1.0" encoding="UTF-8"?>
<svg xmlns="http://www.w3.org/2000/svg" width="16px" height="16px" viewBox="0 0 16 16">
  <g fill="#2e3436">
    <path d="m 8.00078583677,0.997727260699 l -6.39997677866,6.00128682711 l 12.7999596045,0 z" fill="#2e3436" stroke-width="2.5300908" stroke-linecap="round" stroke-linejoin="round" fill-opacity="0"/>
    <path d="M 7.99999969764,6.80460868097E-06 A 1.60016,1.00032 0 0,0 6.66535920643,0.443015560628 l -6.40155510414,6.00276493933 a 1.60016,1.00032 0 0,0 1.33464049121,1.55052837786 l 12.8031102083,0 A 1.60016,1.00032 0 0,0 15.736195293,6.44578049996 L 9.33464018885,0.443015560628 A 1.60016,1.00032 0 0,0 7.99999969764,6.80460868097E-06 Z m 0,2.79833710485 l 3.40156353246,3.19704332192 l -6.80312706491,0 z" fill="#2e3436" stroke-linecap="round" stroke-linejoin="round"/>
    <path d="m 7.99999969764,6.99953955481 a 1.6,1.00022 0 0,0 -1.59448366174,0.996769323009 l 0,7.00691348242 a 1.6,1.00022 0 0,0 1.59448366174,0.996769323009 a 1.6,1.00022 0 0,0 1.60629389033,-0.996769323009 l 0,-7.00691348242 a 1.6,1.00022 0 0,0 -1.60629389033,-0.996769323009 z" fill="#2e3436" stroke-linecap="round"/>
  </g>
</svg>
