<?xml version="1.0" encoding="UTF-8"?>
<svg xmlns="http://www.w3.org/2000/svg" width="16px" height="16px" viewBox="0 0 16 16">
  <g fill="#2e3436">
    <path d="m 0.99676312827,0 a 1.00032,1.00032 0 0,0 -0.99676312827,0.996770147288 l 0,14.0064593274 a 1.00032,1.00032 0 0,0 0.99676312827,0.996770147288 l 14.0064744995,0 a 1.00032,1.00032 0 0,0 0.99676312827,-0.996770147288 l 0,-14.0064593274 a 1.00032,1.00032 0 0,0 -0.99676312827,-0.996770147288 z m 1.00413479778,2.0009233011 l 12.0055765735,0 l 0,12.0055360263 l -12.0055765735,0 z" fill="#2e3436" stroke-width="2.0004324" stroke-linecap="square" stroke-linejoin="round" fill-opacity="0"/>
    <path d="m 10.8286422817,3.14664267536 q 0.48010360409,0 0.624134685316,0.272071162278 q 0.159908523252,0.272071162278 0.159908523252,0.784167533763 l 0,1.40830187991 q 0,1.07222953968 -0.784156618869,1.07222953968 q -0.128153639202,0 -0.240051802045,-0.0158774333968 q -0.0960207208179,-0.0321329009221 -0.176163999611,-0.0640011779543 q -0.063887802434,-0.048010334319 -0.128153639202,-0.112011512273 q -0.063887802434,-0.0800298250026 -0.0960207208179,-0.128040159322 q -0.0302427467143,-0.048010334319 -0.063887802434,-0.144031002957 q -0.0302427467143,-0.0960206686379 -0.0480103604089,-0.128040159322 q 0,-0.048010334319 -0.0302427467143,-0.144031002957 q -0.0151213733572,-0.112011512273 -0.0151213733572,-0.128040159322 q -0.111898162843,-0.48010334319 -0.640125537642,-0.768165349104 q -0.512123112173,-0.304052849549 -1.26429802639,-0.304052849549 q -0.752137110785,0 -1.28025107528,0.352063183868 q -0.528113964499,0.352063183868 -0.528113964499,0.864186017741 q 0,0.544115862168 0.528113964499,0.848183833082 q 0.528113964499,0.288062005914 1.23224071487,0.38407889421 q 0.704164553809,0.0800298250026 1.56835104117,0.320081496597 q 0.864186487361,0.224060827959 1.36028094378,0.624134346147 q 0.944216355854,0.752159384103 0.944216355854,2.0004280764 q 0,1.24826869229 -1.00821756859,2.0164340414 q -1.00821756859,0.768165349104 -2.65656067482,0.768165349104 q -1.32829923913,0 -2.49653874127,-0.624134346147 q -0.320195080838,0.384082674552 -0.640163341075,0.384082674552 q -0.816176126952,0 -0.816176126952,-1.05622735502 l 0,-1.05622735502 q 0,-0.528113677509 0.176163999611,-0.784167533763 q 0.176163999611,-0.272071162278 0.624134685316,-0.272071162278 q 0.144031081227,0 0.25592924407,0.0321329009221 q 0.128153639202,0.0321329009221 0.207918883661,0.0960206686379 q 0.0801432787929,0.0640011779544 0.128153639202,0.128040159322 q 0.063887802434,0.048010334319 0.0960207208179,0.144031002957 q 0.048010360409,0.0960206686379 0.063887802434,0.144031002957 q 0.0151213733571,0.048010334319 0.0302427467143,0.128040159322 q 0.0302427467143,0.0800298250026 0.0302427467143,0.0960206686379 q 0.111898162843,0.432093008871 0.768165766543,0.736157199444 q 0.6561541934,0.304052849549 1.45630166459,0.304052849549 q 0.896205995445,0 1.50434982844,-0.352063183868 q 0.608106029558,-0.352063183868 0.608106029558,-0.864186017741 q 0,-0.480099562848 -0.48010360409,-0.768161568762 q -0.464074948331,-0.288062005914 -1.08820963365,-0.384082674552 q -0.608143832991,-0.0960206686379 -1.44031081227,-0.288062005914 q -0.816176126952,-0.192041337276 -1.3123083868,-0.46410115853 q -0.608106029558,-0.352063183868 -0.960207208179,-0.944200721379 q -0.351949964888,-0.592126196487 -0.351949964888,-1.28027684195 q 0,-1.21626054263 0.992226716263,-2.01643026106 q 0.99218891283,-0.816175683423 2.48051008551,-0.816175683423 q 1.23227851831,0 2.08047415334,0.528113677509 q 0.128153639202,-0.304052849549 0.25592924407,-0.416090824212 q 0.128153639202,-0.112011512273 0.368205441247,-0.112011512273 z" stroke-width="1.00021431"/>
  </g>
</svg>
