<?xml version="1.0" encoding="UTF-8" standalone="no"?>
<svg
   xmlns:dc="http://purl.org/dc/elements/1.1/"
   xmlns:cc="http://creativecommons.org/ns#"
   xmlns:rdf="http://www.w3.org/1999/02/22-rdf-syntax-ns#"
   xmlns:svg="http://www.w3.org/2000/svg"
   xmlns="http://www.w3.org/2000/svg"
   width="9.9558735"
   height="16.064999"
   viewBox="0 0 2.6341581 4.250531"
   version="1.1"
   id="svg4268">
  <defs
     id="defs4262" />
  <metadata
     id="metadata4265">
    <rdf:RDF>
      <cc:Work
         rdf:about="">
        <dc:format>image/svg+xml</dc:format>
        <dc:type
           rdf:resource="http://purl.org/dc/dcmitype/StillImage" />
        <dc:title />
      </cc:Work>
    </rdf:RDF>
  </metadata>
  <path
     style="color:#000000;font-style:normal;font-variant:normal;font-weight:normal;font-stretch:normal;font-size:medium;line-height:normal;font-family:sans-serif;font-variant-ligatures:normal;font-variant-position:normal;font-variant-caps:normal;font-variant-numeric:normal;font-variant-alternates:normal;font-variant-east-asian:normal;font-feature-settings:normal;font-variation-settings:normal;text-indent:0;text-align:start;text-decoration:none;text-decoration-line:none;text-decoration-style:solid;text-decoration-color:#000000;letter-spacing:normal;word-spacing:normal;text-transform:none;writing-mode:lr-tb;direction:ltr;text-orientation:mixed;dominant-baseline:auto;baseline-shift:baseline;text-anchor:start;white-space:normal;shape-padding:0;shape-margin:0;inline-size:0;clip-rule:nonzero;display:inline;overflow:visible;visibility:visible;isolation:auto;mix-blend-mode:normal;color-interpolation:sRGB;color-interpolation-filters:linearRGB;solid-color:#000000;solid-opacity:1;vector-effect:none;fill:#000000;fill-opacity:1;fill-rule:nonzero;stroke-width:0.0613223;stroke-linecap:butt;stroke-linejoin:miter;stroke-miterlimit:4;stroke-dasharray:none;stroke-dashoffset:0;stroke-opacity:1;color-rendering:auto;image-rendering:auto;shape-rendering:auto;text-rendering:auto;enable-background:accumulate;stop-color:#000000;stop-opacity:1;stroke:none;opacity:1"
     d="M 1.290849,1.14e-4 C 1.148608,0.008314 1.056697,0.168002 1.090586,0.299565 v 0.713448 c 0.118856,0.0095 0.252258,0.05286 0.360871,-0.01809 C 1.544047,0.937043 1.55457,0.817128 1.546067,0.718409 1.543167,0.485502 1.546391,0.252388 1.54512,0.019392 1.46057,0.011492 1.376026,-0.001328 1.290965,1.12e-4 Z"
     id="line432" />
  <path
     style="color:#000000;font-style:normal;font-variant:normal;font-weight:normal;font-stretch:normal;font-size:medium;line-height:normal;font-family:sans-serif;font-variant-ligatures:normal;font-variant-position:normal;font-variant-caps:normal;font-variant-numeric:normal;font-variant-alternates:normal;font-variant-east-asian:normal;font-feature-settings:normal;font-variation-settings:normal;text-indent:0;text-align:start;text-decoration:none;text-decoration-line:none;text-decoration-style:solid;text-decoration-color:#000000;letter-spacing:normal;word-spacing:normal;text-transform:none;writing-mode:lr-tb;direction:ltr;text-orientation:mixed;dominant-baseline:auto;baseline-shift:baseline;text-anchor:start;white-space:normal;shape-padding:0;shape-margin:0;inline-size:0;clip-rule:nonzero;display:inline;overflow:visible;visibility:visible;isolation:auto;mix-blend-mode:normal;color-interpolation:sRGB;color-interpolation-filters:linearRGB;solid-color:#000000;solid-opacity:1;vector-effect:none;fill:#000000;fill-opacity:1;fill-rule:nonzero;stroke-width:0.0613223;stroke-linecap:butt;stroke-linejoin:miter;stroke-miterlimit:4;stroke-dasharray:none;stroke-dashoffset:0;stroke-opacity:1;color-rendering:auto;image-rendering:auto;shape-rendering:auto;text-rendering:auto;enable-background:accumulate;stop-color:#000000;stop-opacity:1;stroke:none;opacity:1"
     d="M 0.486824,3.054973 C 0.344586,3.063073 0.252673,3.222858 0.286568,3.354426 v 0.874297 c 0.11885,0.0095 0.252255,0.05286 0.360869,-0.01809 0.09257,-0.05786 0.10306,-0.177712 0.09466,-0.276403 -0.0027,-0.286565 3.24e-4,-0.573335 -0.0012,-0.859981 -0.08456,-0.0078 -0.169099,-0.02072 -0.25416,-0.01928 z"
     id="line434" />
  <path
     style="color:#000000;font-style:normal;font-variant:normal;font-weight:normal;font-stretch:normal;font-size:medium;line-height:normal;font-family:sans-serif;font-variant-ligatures:normal;font-variant-position:normal;font-variant-caps:normal;font-variant-numeric:normal;font-variant-alternates:normal;font-variant-east-asian:normal;font-feature-settings:normal;font-variation-settings:normal;text-indent:0;text-align:start;text-decoration:none;text-decoration-line:none;text-decoration-style:solid;text-decoration-color:#000000;letter-spacing:normal;word-spacing:normal;text-transform:none;writing-mode:lr-tb;direction:ltr;text-orientation:mixed;dominant-baseline:auto;baseline-shift:baseline;text-anchor:start;white-space:normal;shape-padding:0;shape-margin:0;inline-size:0;clip-rule:nonzero;display:inline;overflow:visible;visibility:visible;isolation:auto;mix-blend-mode:normal;color-interpolation:sRGB;color-interpolation-filters:linearRGB;solid-color:#000000;solid-opacity:1;vector-effect:none;fill:#000000;fill-opacity:1;fill-rule:nonzero;stroke-width:0.0613223;stroke-linecap:butt;stroke-linejoin:miter;stroke-miterlimit:4;stroke-dasharray:none;stroke-dashoffset:0;stroke-opacity:1;color-rendering:auto;image-rendering:auto;shape-rendering:auto;text-rendering:auto;enable-background:accumulate;stop-color:#000000;stop-opacity:1;stroke:none;opacity:1"
     d="M 2.094749,3.054973 C 1.952509,3.063073 1.860596,3.222858 1.894492,3.354426 V 4.228723 C 2.013346,4.238223 2.146748,4.281583 2.25536,4.210633 2.34794,4.152773 2.358424,4.032921 2.35002,3.93423 2.34732,3.647665 2.350326,3.360895 2.34882,3.074249 2.26428,3.066449 2.179728,3.053529 2.094667,3.054969 Z"
     id="line436" />
  <path
     id="path438"
     style="color:#000000;font-style:normal;font-variant:normal;font-weight:normal;font-stretch:normal;font-size:medium;line-height:normal;font-family:sans-serif;font-variant-ligatures:normal;font-variant-position:normal;font-variant-caps:normal;font-variant-numeric:normal;font-variant-alternates:normal;font-variant-east-asian:normal;font-feature-settings:normal;font-variation-settings:normal;text-indent:0;text-align:start;text-decoration:none;text-decoration-line:none;text-decoration-style:solid;text-decoration-color:#000000;letter-spacing:normal;word-spacing:normal;text-transform:none;writing-mode:lr-tb;direction:ltr;text-orientation:mixed;dominant-baseline:auto;baseline-shift:baseline;text-anchor:start;white-space:normal;shape-padding:0;shape-margin:0;inline-size:0;clip-rule:nonzero;display:inline;overflow:visible;visibility:visible;isolation:auto;mix-blend-mode:normal;color-interpolation:sRGB;color-interpolation-filters:linearRGB;solid-color:#000000;solid-opacity:1;vector-effect:none;fill:#000000;fill-opacity:1;fill-rule:nonzero;stroke:none;stroke-width:0.355721;stroke-linecap:butt;stroke-linejoin:miter;stroke-miterlimit:10;stroke-dasharray:none;stroke-dashoffset:0;stroke-opacity:1;color-rendering:auto;image-rendering:auto;shape-rendering:auto;text-rendering:auto;enable-background:accumulate;stop-color:#000000"
     d="M 1.299589,0.626396 C 0.877776,0.861091 0.512705,1.207876 0.287975,1.63777 0.074621,2.034422 -0.016187,2.490531 0.002349,2.939036 c 0,0.307971 0,0.615941 0,0.923907 C 0.131672,3.754466 0.236278,3.619752 0.368735,3.515012 0.501644,3.422312 0.659297,3.370859 0.815609,3.332905 1.098595,3.270675 1.3964,3.267415 1.680822,3.306705 c 0.202875,0.03203 0.414182,0.09115 0.587922,0.209361 0.103,0.07938 0.185991,0.180994 0.279765,0.270225 0.0181,0.03174 0.07164,0.04945 0.0847,0.0047 C 2.627909,3.375967 2.644529,2.960044 2.621749,2.545279 2.552639,1.783352 2.096418,1.067547 1.432594,0.686255 1.393864,0.662825 1.355224,0.639215 1.316442,0.615895 c -0.006,0.0036 -0.01126,0.0074 -0.01689,0.01053 z m 0.06046,0.475726 c 0.291864,0.20071 0.528562,0.4715 0.68535,0.78801 0.08341,0.16984 0.142153,0.350107 0.175565,0.531259 0.04033,0.215704 0.03287,0.435974 0.03209,0.654303 C 1.909086,2.92442 1.525651,2.887992 1.153619,2.904856 0.889764,2.918976 0.625487,2.969456 0.382472,3.075453 0.379572,2.7833 0.374772,2.487498 0.465722,2.206091 0.603859,1.744055 0.911555,1.334971 1.317149,1.074096 c 0.01426,0.0091 0.02857,0.01866 0.04286,0.02803 z" />
  <path
     id="polyline440"
     style="color:#000000;font-style:normal;font-variant:normal;font-weight:normal;font-stretch:normal;font-size:medium;line-height:normal;font-family:sans-serif;font-variant-ligatures:normal;font-variant-position:normal;font-variant-caps:normal;font-variant-numeric:normal;font-variant-alternates:normal;font-variant-east-asian:normal;font-feature-settings:normal;font-variation-settings:normal;text-indent:0;text-align:start;text-decoration:none;text-decoration-line:none;text-decoration-style:solid;text-decoration-color:#000000;letter-spacing:normal;word-spacing:normal;text-transform:none;writing-mode:lr-tb;direction:ltr;text-orientation:mixed;dominant-baseline:auto;baseline-shift:baseline;text-anchor:start;white-space:normal;shape-padding:0;shape-margin:0;inline-size:0;clip-rule:nonzero;display:inline;overflow:visible;visibility:visible;isolation:auto;mix-blend-mode:normal;color-interpolation:sRGB;color-interpolation-filters:linearRGB;solid-color:#000000;solid-opacity:1;vector-effect:none;fill:#000000;fill-opacity:1;fill-rule:nonzero;stroke:none;stroke-width:0.0286757;stroke-linecap:butt;stroke-linejoin:miter;stroke-miterlimit:10;stroke-dasharray:none;stroke-dashoffset:0;stroke-opacity:1;color-rendering:auto;image-rendering:auto;shape-rendering:auto;text-rendering:auto;enable-background:accumulate;stop-color:#000000"
     d="M 1.277091,1.026625 C 0.948747,1.778083 0.620104,2.529474 0.291646,3.280906 0.40293,3.329386 0.514139,3.378036 0.625282,3.426804 0.855586,2.899382 1.086201,2.372096 1.316623,1.844723 1.547048,2.372096 1.777663,2.899382 2.007965,3.426804 2.119157,3.377974 2.23043,3.329404 2.341761,3.280906 2.000062,2.499251 1.658274,1.717632 1.316623,0.935957 c -0.01319,0.03021 -0.02637,0.06042 -0.0395,0.09069 z" />
</svg>
