<?xml version="1.0" encoding="UTF-8"?>
<svg xmlns="http://www.w3.org/2000/svg" width="16px" height="16px" viewBox="0 0 16 16">
  <g fill="#2e3436">
    <path d="m 1.00020222454,0.998254877976 l 14.0030201605,0 l 0,14.0030006903 l -14.0030201605,0 z" fill="#2e3436" stroke-width="2.00043044" stroke-dasharray="4.00084576, 4.00084576" stroke-linecap="round" stroke-linejoin="round" fill-opacity="0"/>
    <path d="m 0.996762115592,7.93870918869E-06 a 1.00022,1.00021 0 0,0 -0.701404190568,0.287955884215 a 1.00022,1.00021 0 0,0 -0.29524451484,0.708813321041 a 1.00022,1.00021 0 0,0 0.996762115592,1.00415220481 l 4.0018673932,0 a 1.00022,1.00021 0 0,0 1.00413377761,-1.00415220481 a 1.00022,1.00021 0 0,0 -1.00413377761,-0.996768827222 z m 8.00369698301,0 a 1.00022,1.00021 0 0,0 -0.996762115592,0.996768827222 a 1.00022,1.00021 0 0,0 0.996762115592,1.00415220481 l 4.00182958981,0 a 1.00022,1.00021 0 0,0 1.00417158101,-1.00415220481 a 1.00022,1.00021 0 0,0 -1.00417158101,-0.996768827222 z m 6.00276328641,2.00092103203 a 1.00022,1.00021 0 0,0 -0.996762115592,0.996768449188 L 14.0064602694,6.99953948399 a 1.00022,1.00021 0 0,0 0.996762115592,0.996768827222 a 1.00022,1.00021 0 0,0 0.996762115592,-0.996768827222 l 0,-4.00184206406 a 1.00022,1.00021 0 0,0 -0.996762115592,-0.996768449188 z m -14.0064602694,2.000920654 a 1.00022,1.00021 0 0,0 -0.996762115592,0.996768827222 l 0,4.00184206406 a 1.00022,1.00021 0 0,0 0.996762115592,0.996768827222 a 1.00022,1.00021 0 0,0 1.00417158101,-0.996768827222 l 0,-4.00184206406 a 1.00022,1.00021 0 0,0 -1.00417158101,-0.996768827222 z m 14.0064602694,5.9953797185 a 1.00022,1.00021 0 0,0 -0.996762115592,1.00415220481 l 0,4.00184168602 a 1.00022,1.00021 0 0,0 0.996762115592,0.996768827222 a 1.00022,1.00021 0 0,0 0.996762115592,-0.996768827222 l 0,-4.00184168602 a 1.00022,1.00021 0 0,0 -0.996762115592,-1.00415220481 z m -14.0064602694,2.000920654 a 1.00022,1.00021 0 0,0 -0.996762115592,1.00415220481 l 0,2.00092103203 a 1.00032,1.00032 0 0,0 0.996762115592,0.996768827222 l 2.0009336966,0 a 1.00022,1.00021 0 0,0 1.00413377761,-0.996768827222 a 1.00022,1.00021 0 0,0 -1.00413377761,-1.00415220481 l -0.996762115592,0 l 0,-0.996768827222 a 1.00022,1.00021 0 0,0 -1.00417158101,-1.00415220481 z m 6.00276328641,2.00092103203 a 1.00022,1.00021 0 0,0 -0.996762115592,1.00415220481 a 1.00022,1.00021 0 0,0 0.996762115592,0.996768827222 l 4.0018673932,0 a 1.00022,1.00021 0 0,0 1.00413377761,-0.996768827222 a 1.00022,1.00021 0 0,0 -1.00413377761,-1.00415220481 z" fill="#2e3436" stroke-dasharray="4.00084576, 4.00084576" stroke-linecap="round" stroke-linejoin="round"/>
    <path d="m 10.8900092384,4.88110815804 q 0.480105467525,0 0.624141299745,0.221252766545 q 0.160132968301,0.221252766545 0.160132968301,0.637727519602 l 0,1.14530625273 q 0,0.871994653424 -0.784190428796,0.871994653424 q -0.127854856889,0 -0.240199452451,-0.013022890111 q -0.09599594173,-0.026045780222 -0.17606242588,-0.0520608782421 q -0.0641370265706,-0.0390448063982 -0.127854856889,-0.0911022755068 q -0.0641370265707,-0.0650735409525 -0.09599594173,-0.104118347351 q -0.0335357001676,-0.0390448063982 -0.0641370265706,-0.117134419195 q -0.0335357001676,-0.0780896127964 -0.048207568991,-0.104118347351 q 0,-0.0390448063982 -0.0335357001676,-0.117134419195 q -0.0167678500839,-0.0911022755068 -0.0167678500839,-0.104118347351 q -0.11192539931,-0.390445336675 -0.640154596576,-0.624712470498 q -0.51209014156,-0.2472815011 -1.2642539767,-0.2472815011 q -0.752163835135,0 -1.28026727353,0.286326307498 q -0.52810343839,0.286326307498 -0.52810343839,0.702801742381 q 0,0.442504851264 0.52810343839,0.689786693277 q 0.52810343839,0.234268838389 1.23226930266,0.312355042052 q 0.704123944645,0.0650735409525 1.56833893797,0.260297572944 q 0.864173073695,0.182207960147 1.36029183805,0.507579074043 q 0.944197638221,0.611697421394 0.944197638221,1.62685556948 q 0,1.01515780717 -1.00820890592,1.63987027767 q -1.00825082554,0.624712470498 -2.65657240841,0.624712470498 q -1.32830716402,0 -2.49652327936,-0.50757873313 q -0.320265936601,0.312355042052 -0.640154596575,0.312355042052 q -0.816175102831,0 -0.816175102831,-0.858979604321 l 0,-0.858979945234 q 0,-0.42948980216 0.17606242588,-0.637727178688 q 0.17606242588,-0.221252766545 0.624141299745,-0.221252766545 q 0.144203510721,0 0.256128910031,0.026045780222 q 0.127854856889,0.026045780222 0.207921341039,0.0780896127964 q 0.0800664841503,0.0520608782421 0.128274053141,0.104118347351 q 0.0641370265707,0.0390448063982 0.09599594173,0.117134419195 q 0.0477883727389,0.0780896127964 0.0641370265706,0.117134419195 q 0.0167678500839,0.0390448063982 0.0335357001676,0.104118347351 q 0.0335357001676,0.0650735409525 0.0335357001676,0.0780896127964 q 0.11192539931,0.351400871191 0.768177131966,0.598683054117 q 0.65612597378,0.2472815011 1.45628777978,0.2472815011 q 0.896199667356,0 1.50432767027,-0.286326307498 q 0.608128002915,-0.286326307498 0.608128002915,-0.702801742381 q 0,-0.390445336675 -0.480105467525,-0.624712470498 q -0.464092170695,-0.234268838389 -1.08823347044,-0.312355042052 q -0.608128002915,-0.0780896127964 -1.44027448295,-0.234265429256 q -0.816175102831,-0.156179225593 -1.31229386719,-0.377430628485 q -0.608128002915,-0.286326307498 -0.960210935051,-0.767875624247 q -0.35212485176,-0.481549316749 -0.35212485176,-1.04118790538 q 0,-0.989128049879 0.992237528711,-1.63987027767 q 0.992195609086,-0.663756935983 2.48050998253,-0.663756935983 q 1.23226930266,0 2.08042907953,0.42948980216 q 0.128274053141,-0.2472815011 0.256128910031,-0.33838718574 q 0.127854856889,-0.0911022755068 0.36805430934,-0.0911022755068 z" stroke-width="0.90200013"/>
  </g>
</svg>
