<?xml version="1.0" encoding="UTF-8" standalone="no"?>
<svg
   width="10.070957"
   height="15.570773"
   viewBox="0 0 2.6646074 4.1197672"
   version="1.1"
   id="svg4268"
   xmlns="http://www.w3.org/2000/svg"
   xmlns:svg="http://www.w3.org/2000/svg"
   xmlns:rdf="http://www.w3.org/1999/02/22-rdf-syntax-ns#"
   xmlns:cc="http://creativecommons.org/ns#"
   xmlns:dc="http://purl.org/dc/elements/1.1/">
  <defs
     id="defs4262" />
  <metadata
     id="metadata4265">
    <rdf:RDF>
      <cc:Work
         rdf:about="">
        <dc:format>image/svg+xml</dc:format>
        <dc:type
           rdf:resource="http://purl.org/dc/dcmitype/StillImage" />
      </cc:Work>
    </rdf:RDF>
  </metadata>
  <g
     id="or"
     style="display:inline"
     transform="translate(-78.60549,-33.790996)">
    <path
       style="color:#000000;fill:#000000;stroke-width:0.421561;stroke-miterlimit:10;-inkscape-stroke:none"
       d="m 79.715877,33.863816 c 0,0.199885 0,0.399771 0,0.599656 -0.722835,0.454747 -1.153672,1.317123 -1.106935,2.167145 0,0.338096 0,0.676191 0,1.014288 0.109232,-0.100012 0.215051,-0.203444 0.316613,-0.311242 0,0.192367 0,0.384733 0,0.5771 0.148414,0 0.296829,0 0.445245,0 0.004,-0.272475 -0.0063,-0.545086 0.0042,-0.817447 0.369314,-0.09819 0.76895,-0.09664 1.130299,0.0013 0,0.272035 0,0.544069 0,0.816103 0.148594,0 0.297188,0 0.445781,0 0,-0.192008 0,-0.384017 0,-0.576026 0.101972,0.10843 0.208822,0.211896 0.317956,0.313122 -0.02187,-0.540686 0.03996,-1.086489 -0.0478,-1.623076 -0.124925,-0.633977 -0.514451,-1.212747 -1.05994,-1.560505 0,-0.224413 0,-0.448826 0,-0.673238 -0.148504,0 -0.297009,0 -0.445513,0 0,0.02426 0,0.04852 0,0.07278 z m 0.25082,1.01563 c 0.486355,0.323767 0.804943,0.899583 0.850745,1.463829 0.01884,0.129801 -0.0093,0.259529 0.0065,0.388851 -0.55101,-0.210686 -1.177359,-0.205827 -1.733447,-0.01664 -0.07434,0.03492 -0.02275,-0.114887 -0.03767,-0.165419 0.0012,-0.375916 0.08683,-0.755996 0.291792,-1.074802 0.150354,-0.244448 0.354644,-0.455782 0.594212,-0.613801 0.0093,0.006 0.01862,0.01199 0.02793,0.01799 z"
       id="line1948" />
  </g>
</svg>
