<?xml version="1.0" encoding="UTF-8" standalone="no"?>
<svg
   xmlns:dc="http://purl.org/dc/elements/1.1/"
   xmlns:cc="http://creativecommons.org/ns#"
   xmlns:rdf="http://www.w3.org/1999/02/22-rdf-syntax-ns#"
   xmlns:svg="http://www.w3.org/2000/svg"
   xmlns="http://www.w3.org/2000/svg"
   id="svg4268"
   version="1.1"
   viewBox="0 0 3.1749999 3.1750003"
   height="12.000001"
   width="12">
  <defs
     id="defs4262" />
  <metadata
     id="metadata4265">
    <rdf:RDF>
      <cc:Work
         rdf:about="">
        <dc:format>image/svg+xml</dc:format>
        <dc:type
           rdf:resource="http://purl.org/dc/dcmitype/StillImage" />
        <dc:title />
      </cc:Work>
    </rdf:RDF>
  </metadata>
  <path
     id="path12"
     d="M 2.875 0.02734375 A 0.2645835 0.2645835 0 0 0 2.6972656 0.10351562 L 2.3222656 0.47851562 A 0.2645835 0.2645835 0 0 0 2.3222656 0.8515625 A 0.2645835 0.2645835 0 0 0 2.6972656 0.8515625 L 3.0703125 0.47851562 A 0.2645835 0.2645835 0 0 0 3.0703125 0.10351562 A 0.2645835 0.2645835 0 0 0 2.875 0.02734375 z M 1.7519531 1.1484375 A 0.2645835 0.2645835 0 0 0 1.5742188 1.2265625 L 1.1992188 1.6015625 A 0.2645835 0.2645835 0 0 0 1.1992188 1.9746094 A 0.2645835 0.2645835 0 0 0 1.5742188 1.9746094 L 1.9492188 1.6015625 A 0.2645835 0.2645835 0 0 0 1.9492188 1.2265625 A 0.2645835 0.2645835 0 0 0 1.7519531 1.1484375 z M 0.63085938 2.2714844 A 0.2645835 0.2645835 0 0 0 0.45117188 2.3496094 L 0.078125 2.7226562 A 0.2645835 0.2645835 0 0 0 0.078125 3.0976562 A 0.2645835 0.2645835 0 0 0 0.45117188 3.0976562 L 0.82617188 2.7226562 A 0.2645835 0.2645835 0 0 0 0.82617188 2.3496094 A 0.2645835 0.2645835 0 0 0 0.63085938 2.2714844 z "
     style="color:#000000;font-style:normal;font-variant:normal;font-weight:normal;font-stretch:normal;font-size:medium;line-height:normal;font-family:sans-serif;font-variant-ligatures:normal;font-variant-position:normal;font-variant-caps:normal;font-variant-numeric:normal;font-variant-alternates:normal;font-variant-east-asian:normal;font-feature-settings:normal;font-variation-settings:normal;text-indent:0;text-align:start;text-decoration:none;text-decoration-line:none;text-decoration-style:solid;text-decoration-color:#000000;letter-spacing:normal;word-spacing:normal;text-transform:none;writing-mode:lr-tb;direction:ltr;text-orientation:mixed;dominant-baseline:auto;baseline-shift:baseline;text-anchor:start;white-space:normal;shape-padding:0;shape-margin:0;inline-size:0;clip-rule:nonzero;display:inline;overflow:visible;visibility:visible;isolation:auto;mix-blend-mode:normal;color-interpolation:sRGB;color-interpolation-filters:linearRGB;solid-color:#000000;solid-opacity:1;vector-effect:none;fill:#000000;fill-opacity:1;fill-rule:nonzero;stroke:none;stroke-width:0.529167;stroke-linecap:round;stroke-linejoin:miter;stroke-miterlimit:4;stroke-dasharray:0.529167, 1.05833000000000022;stroke-dashoffset:0;stroke-opacity:1;color-rendering:auto;image-rendering:auto;shape-rendering:auto;text-rendering:auto;enable-background:accumulate;stop-color:#000000;stop-opacity:1;opacity:1" />
</svg>
