<?xml version="1.0" encoding="UTF-8" standalone="no"?>
<svg
   width="15.996548"
   height="15.996555"
   viewBox="0 0 4.2324198 4.2324221"
   version="1.1"
   id="svg4268"
   xmlns="http://www.w3.org/2000/svg"
   xmlns:svg="http://www.w3.org/2000/svg"
   xmlns:rdf="http://www.w3.org/1999/02/22-rdf-syntax-ns#"
   xmlns:cc="http://creativecommons.org/ns#"
   xmlns:dc="http://purl.org/dc/elements/1.1/">
  <defs
     id="defs4262" />
  <metadata
     id="metadata4265">
    <rdf:RDF>
      <cc:Work
         rdf:about="">
        <dc:format>image/svg+xml</dc:format>
        <dc:type
           rdf:resource="http://purl.org/dc/dcmitype/StillImage" />
        <dc:title />
      </cc:Work>
    </rdf:RDF>
  </metadata>
  <g
     id="controller"
     style="display:inline"
     transform="translate(-126.99909,-33.866536)">
    <path
       style="color:#000000;fill:#000000;fill-opacity:0;stroke-width:0.529167;stroke-linecap:square;stroke-linejoin:round;-inkscape-stroke:none"
       d="m 127.26276,33.866536 a 0.26460982,0.26460982 0 0 0 -0.26367,0.263672 v 3.705078 a 0.26460982,0.26460982 0 0 0 0.26367,0.263672 h 3.70508 a 0.26460982,0.26460982 0 0 0 0.26367,-0.263672 v -3.705078 a 0.26460982,0.26460982 0 0 0 -0.26367,-0.263672 z m 0.26562,0.529297 h 3.17579 v 3.175781 h -3.17579 z"
       id="path675" />
    <g
       aria-label="C"
       id="text679"
       style="font-weight:bold;font-size:2.82223px;line-height:1.25;-inkscape-font-specification:'sans-serif Bold';letter-spacing:0px;word-spacing:0px;stroke-width:0.264583">
      <path
         d="m 130.11683,37.137321 q -0.14469,0.07441 -0.30385,0.111621 -0.15917,0.03721 -0.33487,0.03721 -0.62425,0 -0.95291,-0.411345 -0.32866,-0.411344 -0.32866,-1.188556 0,-0.77928 0.32866,-1.190624 0.32866,-0.411345 0.95291,-0.411345 0.1757,0 0.33693,0.03721 0.16123,0.03721 0.30179,0.111621 v 0.677995 q -0.15709,-0.144694 -0.30592,-0.21084 -0.14676,-0.06821 -0.30386,-0.06821 -0.33486,0 -0.50643,0.26665 -0.16949,0.264583 -0.16949,0.787549 0,0.520898 0.16949,0.787548 0.17157,0.264583 0.50643,0.264583 0.1571,0 0.30386,-0.06615 0.14883,-0.06821 0.30592,-0.212907 z"
         style="font-size:4.23333px;font-family:FreeMono;-inkscape-font-specification:'FreeMono Bold'"
         id="path1632" />
    </g>
  </g>
</svg>
