<?xml version="1.0" encoding="UTF-8" standalone="no"?>
<svg
   width="16.003952"
   height="16.003952"
   viewBox="0 0 4.2343789 4.2343791"
   version="1.1"
   id="svg4268"
   xmlns="http://www.w3.org/2000/svg"
   xmlns:svg="http://www.w3.org/2000/svg"
   xmlns:rdf="http://www.w3.org/1999/02/22-rdf-syntax-ns#"
   xmlns:cc="http://creativecommons.org/ns#"
   xmlns:dc="http://purl.org/dc/elements/1.1/">
  <defs
     id="defs4262" />
  <metadata
     id="metadata4265">
    <rdf:RDF>
      <cc:Work
         rdf:about="">
        <dc:format>image/svg+xml</dc:format>
        <dc:type
           rdf:resource="http://purl.org/dc/dcmitype/StillImage" />
      </cc:Work>
    </rdf:RDF>
  </metadata>
  <g
     id="intermediate-event"
     style="display:inline"
     transform="translate(-69.849607,-55.033201)">
    <g
       id="rect544-6">
      <path
         style="color:#000000;fill:#000000;fill-opacity:0;stroke-width:0.529167;stroke-linecap:round;stroke-linejoin:round;-inkscape-stroke:none"
         d="m 70.114578,55.297916 h 3.704167 v 3.704167 h -3.704167 z"
         id="path2248" />
      <path
         style="color:#000000;fill:#000000;stroke-linecap:round;stroke-linejoin:round;-inkscape-stroke:none"
         d="m 70.115234,55.033203 a 0.26460996,0.26460996 0 0 0 -0.265625,0.265625 v 3.703125 a 0.26460996,0.26460996 0 0 0 0.265625,0.265625 h 3.703125 a 0.26460996,0.26460996 0 0 0 0.265625,-0.265625 v -3.703125 a 0.26460996,0.26460996 0 0 0 -0.265625,-0.265625 z m 0.263672,0.529297 h 3.175781 v 3.175781 h -3.175781 z"
         id="path2250" />
    </g>
    <g
       aria-label="IE"
       id="text548-2"
       style="font-weight:bold;font-size:2.46944px;line-height:1.25;font-family:FreeMono;-inkscape-font-specification:'FreeMono, Bold';letter-spacing:0px;word-spacing:0px;display:inline;stroke-width:0.264583">
      <g
         id="g269">
        <path
           d="m 71.568086,57.638126 c 0.05436,0 0.09596,0.0093 0.124845,0.02803 0.02889,0.017 0.04332,0.05011 0.04332,0.09937 0,0.08494 -0.05605,0.12739 -0.168165,0.12739 h -0.76948 c -0.112108,0 -0.168165,-0.04246 -0.168165,-0.12739 0,-0.04925 0.01443,-0.08239 0.04332,-0.09937 0.02887,-0.01868 0.07049,-0.02803 0.124846,-0.02803 H 71.05595 V 56.66226 h -0.257342 c -0.112108,0 -0.168166,-0.04246 -0.168166,-0.127391 0,-0.04925 0.01443,-0.08239 0.04332,-0.09937 0.02887,-0.01868 0.07049,-0.02803 0.124845,-0.02803 h 0.76948 c 0.05436,0 0.09596,0.0093 0.124845,0.02803 0.02889,0.017 0.04332,0.05011 0.04332,0.09937 0,0.08494 -0.05605,0.127391 -0.168165,0.127391 H 71.31075 v 0.975866 z"
           id="path1770"
           style="stroke-width:0.272996" />
      </g>
    </g>
  </g>
  <path
     d="m 2.1681006,2.8634333 c -0.1138464,0 -0.1707704,-0.042666 -0.1707704,-0.1280007 0,-0.085334 0.056923,-0.1280009 0.1707704,-0.1280009 h 0.038808 V 1.6269452 h -0.038808 c -0.1138464,0 -0.1707704,-0.042666 -0.1707704,-0.1280009 0,-0.049494 0.014663,-0.082773 0.043987,-0.09984 0.031048,-0.018773 0.07331,-0.02816 0.1267842,-0.02816 h 0.6546177 c 0.1466207,0 0.2673673,0.040108 0.3622393,0.1203211 0.096597,0.080214 0.144896,0.1809079 0.144896,0.302082 0,0.1092272 -0.054337,0.2056546 -0.1630077,0.2892817 0.1828446,0.090454 0.2742668,0.2141882 0.2742668,0.3712025 0,0.1228803 -0.046574,0.2218681 -0.1397208,0.2969619 -0.093148,0.075093 -0.2164815,0.1126411 -0.3700019,0.1126411 z M 2.4656542,1.9879076 h 0.2923785 c 0.093148,0 0.1681827,-0.017922 0.2251063,-0.05376 0.058648,-0.037549 0.087972,-0.085334 0.087972,-0.1433609 0,-0.051201 -0.023286,-0.091307 -0.069861,-0.1203211 -0.046573,-0.029013 -0.110396,-0.04352 -0.1914689,-0.04352 H 2.4656542 Z m 0.7167162,0.4812832 c 0,-0.068267 -0.033636,-0.1228803 -0.1009092,-0.1638412 -0.067273,-0.040959 -0.1561081,-0.06144 -0.2665046,-0.06144 h -0.349302 v 0.3635223 h 0.4527989 c 0.1759449,0 0.2639173,-0.04608 0.2639169,-0.1382411 z"
     id="path1202"
     style="stroke-width:0.676867" />
</svg>
