<?xml version="1.0" encoding="UTF-8" standalone="no"?>
<svg
   width="15.996548"
   height="15.996555"
   viewBox="0 0 4.2324198 4.2324221"
   version="1.1"
   id="svg4268"
   xmlns="http://www.w3.org/2000/svg"
   xmlns:svg="http://www.w3.org/2000/svg"
   xmlns:rdf="http://www.w3.org/1999/02/22-rdf-syntax-ns#"
   xmlns:cc="http://creativecommons.org/ns#"
   xmlns:dc="http://purl.org/dc/elements/1.1/">
  <defs
     id="defs4262" />
  <metadata
     id="metadata4265">
    <rdf:RDF>
      <cc:Work
         rdf:about="">
        <dc:format>image/svg+xml</dc:format>
        <dc:type
           rdf:resource="http://purl.org/dc/dcmitype/StillImage" />
      </cc:Work>
    </rdf:RDF>
  </metadata>
  <g
     id="actuator"
     style="display:inline"
     transform="translate(-103.18659,-39.157422)">
    <path
       style="color:#000000;fill:#000000;fill-opacity:0;stroke-width:0.529167;stroke-linecap:square;stroke-linejoin:round;-inkscape-stroke:none"
       d="m 103.45026,39.157422 a 0.26460982,0.26460982 0 0 0 -0.26367,0.263672 v 3.705078 a 0.26460982,0.26460982 0 0 0 0.26367,0.263672 h 3.70508 a 0.26460982,0.26460982 0 0 0 0.26367,-0.263672 v -3.705078 a 0.26460982,0.26460982 0 0 0 -0.26367,-0.263672 z m 0.26562,0.529297 h 3.17579 V 42.8625 h -3.17579 z"
       id="path683" />
    <path
       style="font-weight:bold;font-size:4.23333px;line-height:1.25;font-family:FreeMono;-inkscape-font-specification:'FreeMono Bold';letter-spacing:0px;word-spacing:0px;stroke-width:0.264583"
       d="m 105.55151,42.305423 q 0,-0.122766 0.072,-0.1651 0.072,-0.04657 0.20743,-0.04657 h 0.0974 l -0.0974,-0.245533 h -1.00753 l -0.0974,0.245533 h 0.0974 q 0.2794,0 0.2794,0.211666 0,0.211667 -0.2794,0.211667 h -0.56303 q -0.2794,0 -0.2794,-0.211667 0,-0.127 0.0762,-0.169333 0.072,-0.04233 0.20743,-0.04233 l 0.65617,-1.621365 h -0.2667 q -0.28364,0 -0.28364,-0.211667 0,-0.127 0.072,-0.169333 0.0762,-0.04233 0.21167,-0.04233 h 0.9144 l 0.84243,2.044698 q 0.28786,0 0.28786,0.211666 0,0.211667 -0.27939,0.211667 h -0.58844 q -0.2794,0 -0.2794,-0.211667 z m 0.10584,-0.880532 -0.3302,-0.8128 -0.33444,0.8128 z"
       id="text687"
       aria-label="A" />
  </g>
</svg>
