<?xml version="1.0" encoding="UTF-8"?>
<svg xmlns="http://www.w3.org/2000/svg" width="16px" height="16px" viewBox="0 0 16 16">
  <g fill="#2e3436">
    <path d="m 6.88585715433,0.210573960498 c 0,1.05262736723 0,2.10525852252 0,3.1578896778 c 0.74571061594,0 1.49143300948,0 2.23713184782,0 c 0,-1.12282752618 0,-2.24563990016 0,-3.3684636383 c -0.745698838338,0 -1.49142123188,0 -2.23713184782,0 c 0,0.0701925828496 0,0.140423046208 0,0.210615629058 z" fill="#2e3436" stroke-width="0.49604639"/>
    <path d="m 1.97671141247,12.8421099434 c 0,1.05263494333 0,2.10526231057 0,3.1578896778 c 0.745728282342,0 1.49143300948,0 2.23714951422,0 c 0,-1.12281616203 0,-2.24563611211 0,-3.36845985025 c -0.745716504741,0 -1.49142123188,0 -2.23714951422,0 c 0,0.0701925828496 0,0.140423046208 0,0.210615629058 z" fill="#2e3436" stroke-width="0.49604639"/>
    <path d="m 11.7950264514,12.8421099434 c 0,1.05263494333 0,2.10526231057 0,3.1578896778 c 0.745728282342,0 1.49143889828,0 2.23713773662,0 c 0,-1.12281616203 0,-2.24563611211 0,-3.36845985025 c -0.745698838338,0 -1.49140945428,0 -2.23713773662,0 c 0,0.0701925828496 0,0.140423046208 0,0.210615629058 z" fill="#2e3436" stroke-width="0.49604639"/>
    <path d="m 7.60945532347,2.23320372912 c -3.4123421461,0.0745867218731 -6.55568976296,1.73309388748 -7.35139629723,3.86801663646 c -0.432591302727,1.15792760566 -0.173601845962,2.35808061451 -0.245504103059,3.53561517153 c 0,1.37821034057 0,2.75641310504 0,4.13463102171 c 5.32752147958,0 10.6550076264,0 15.9825349948,0 c -0.0247329631289,-2.31745755684 0.0506436864069,-4.63663110074 -0.0459326458109,-6.95295603037 c -0.324237369019,-2.2232487314 -3.16400552988,-4.1801255128 -6.60323005137,-4.51695899726 c -0.572685872451,-0.064093820929 -1.15682546235,-0.0847008177289 -1.73773798944,-0.0683364379172 z m 0.402205090883,1.43286812675 c 2.33783034056,-0.0242435256469 4.5909561712,0.993768632623 5.38631526622,2.40415846544 c 0.22930990101,0.39557857754 0.356036893042,0.888036556396 0.360159053564,1.32539733517 c -0.0043047133446,1.64526792777 0.00171364101686,3.29111921538 -0.000147220018562,4.93675079604 c -3.83610613651,0 -7.67217105141,0 -11.5082712991,0 c 0.0241440830544,-1.81948796395 -0.0535880867795,-3.64138512827 0.0494659262579,-5.4592783228 c 0.128316968233,-0.762227810492 0.779294446589,-1.59703846394 1.7042012692,-2.16317024441 c 1.05717517614,-0.674341241971 2.52194958465,-1.04986966619 4.00848900071,-1.04385802944 z" fill="#2e3436" stroke-width="1.40058351"/>
    <path d="m 7.65119514315,3.48808649711 c -2.18616427737,3.29881653478 -4.37504918069,6.5969663726 -6.56248543902,9.8954647111 c 0.714358640774,0.206903339193 1.42975959928,0.41240888761 2.14514289138,0.617963680689 c 1.58242675859,-2.38883958767 3.16644349339,-4.7772890061 4.74949446486,-7.16598464783 c 1.58346907632,2.38869942979 3.16802169199,4.77712611991 4.75081355623,7.16598464783 c 0.715848507362,-0.205539640875 1.43123768827,-0.41163612523 2.14645609395,-0.617963680689 c -2.30121377753,-3.46543016478 -4.5996127083,-6.93155733093 -6.89726965017,-10.3978625355 c -0.110650565998,0.167469729508 -0.221418908012,0.334939459016 -0.332187250025,0.502397824371 z" fill="#2e3436" stroke-width="0.15896703"/>
  </g>
</svg>
