<?xml version="1.0" encoding="UTF-8" standalone="no"?>
<svg
   width="16.010202"
   height="16.052483"
   viewBox="0 0 4.2360326 4.2472195"
   version="1.1"
   id="svg4268"
   xmlns="http://www.w3.org/2000/svg"
   xmlns:svg="http://www.w3.org/2000/svg"
   xmlns:rdf="http://www.w3.org/1999/02/22-rdf-syntax-ns#"
   xmlns:cc="http://creativecommons.org/ns#"
   xmlns:dc="http://purl.org/dc/elements/1.1/">
  <defs
     id="defs4262" />
  <metadata
     id="metadata4265">
    <rdf:RDF>
      <cc:Work
         rdf:about="">
        <dc:format>image/svg+xml</dc:format>
        <dc:type
           rdf:resource="http://purl.org/dc/dcmitype/StillImage" />
        <dc:title />
      </cc:Work>
    </rdf:RDF>
  </metadata>
  <g
     id="refine"
     style="display:inline"
     transform="translate(-69.850001,4.5025476)">
    <path
       id="path4594-6-2-40"
       d="m 73.806034,-4.5021035 a 0.26460979,0.26460979 0 0 0 -0.0586,0.00977 l -1.851565,0.5292969 A 0.26492937,0.26492937 0 1 0 72.0404,-3.453271 l 1.394534,-0.3984375 -0.39844,1.3945313 a 0.26493146,0.26493146 0 1 0 0.50977,0.1445312 l 0.52929,-1.8515625 a 0.26460979,0.26460979 0 0 0 -0.26953,-0.3378906 z"
       style="color:#000000;font-style:normal;font-variant:normal;font-weight:normal;font-stretch:normal;font-size:medium;line-height:normal;font-family:sans-serif;font-variant-ligatures:normal;font-variant-position:normal;font-variant-caps:normal;font-variant-numeric:normal;font-variant-alternates:normal;font-feature-settings:normal;text-indent:0;text-align:start;text-decoration:none;text-decoration-line:none;text-decoration-style:solid;text-decoration-color:#000000;letter-spacing:normal;word-spacing:normal;text-transform:none;writing-mode:lr-tb;direction:ltr;text-orientation:mixed;dominant-baseline:auto;baseline-shift:baseline;text-anchor:start;white-space:normal;shape-padding:0;clip-rule:nonzero;display:inline;overflow:visible;visibility:visible;opacity:1;isolation:auto;mix-blend-mode:normal;color-interpolation:sRGB;color-interpolation-filters:linearRGB;solid-color:#000000;solid-opacity:1;vector-effect:none;fill:#000000;fill-opacity:1;fill-rule:nonzero;stroke:none;stroke-width:0.529167;stroke-linecap:round;stroke-linejoin:round;stroke-miterlimit:4;stroke-dasharray:none;stroke-dashoffset:0;stroke-opacity:1;color-rendering:auto;image-rendering:auto;shape-rendering:auto;text-rendering:auto;enable-background:accumulate" />
    <g
       aria-label="R"
       id="text150-9"
       style="font-weight:bold;font-size:2.82223px;line-height:1.25;-inkscape-font-specification:'sans-serif Bold';letter-spacing:0px;word-spacing:0px;stroke-width:0.264583">
      <path
         d="m 73.469395,-1.2268479 q 0.06063,0.012402 0.104731,0.057878 0.04548,0.044097 0.110244,0.17363329 l 0.372071,0.74000857 h -0.446486 l -0.248047,-0.51952185 q -0.01103,-0.0220487 -0.02894,-0.0606339 Q 73.224104,-1.068373 73.076653,-1.068373 h -0.129536 v 0.81304476 H 72.540595 V -2.312745 h 0.587046 q 0.396876,0 0.569131,0.1405603 0.173633,0.1405603 0.173633,0.4575099 0,0.2122185 -0.103353,0.3376203 -0.103353,0.1254019 -0.297657,0.1502066 z m -0.522278,-0.7441427 v 0.5608631 h 0.191548 q 0.166743,0 0.238401,-0.064768 0.07304,-0.066146 0.07304,-0.2163526 0,-0.1502066 -0.07166,-0.2149746 -0.07166,-0.064768 -0.239779,-0.064768 z"
         style="font-family:FreeMono;-inkscape-font-specification:'FreeMono Bold'"
         id="path1469" />
    </g>
    <path
       id="path4598-1-2-0"
       d="M 70.114584,-0.52916667 73.554167,-3.9687506"
       style="display:inline;fill:none;stroke:#000000;stroke-width:0.529167;stroke-linecap:round;stroke-linejoin:miter;stroke-miterlimit:4;stroke-dasharray:0.529167, 1.05833;stroke-dashoffset:0;stroke-opacity:1" />
  </g>
</svg>
