<?xml version="1.0" encoding="UTF-8"?>
<svg xmlns="http://www.w3.org/2000/svg" width="16px" height="16px" viewBox="0 0 16 16">
  <g fill="#2e3436">
    <path d="m 14.9329183611,0.00156313023987 a 1.00838,0.996674 0 0,0 -0.223275589419,0.0369124731343 l -7.05595830169,1.9936389074 a 1.0096,0.997877 0 1,0 0.550780751226,1.9200700885 l 5.31429819062,-1.50074439369 l -1.5183692784,5.2526110278 a 1.0096,0.997878 0 1,0 1.94262338481,0.544387413732 l 2.01704858128,-6.97405434505 A 1.00838,0.996674 0 0,0 14.9329336044,0.00169119392217 Z" fill="#2e3436" stroke-width="2.00481896" stroke-linecap="round" stroke-linejoin="round"/>
    <path d="m 15.2818441081,14.8945445013 q 0.344154607961,0 0.526993650541,0.116914608785 q 0.182842853394,0.106292856311 0.182842853394,0.414576038824 q 0,0.531509480503 -0.709828882307,0.531509480503 l -3.24800627146,0 q -0.709832693121,0 -0.709832693121,-0.531509480503 q 0,-0.30825681646 0.182842853394,-0.414576038824 q 0.182842853394,-0.116914608785 0.526997461355,-0.116914608785 l 1.08625346281,0 l 0,-4.07134785566 l -1.08625346281,0 q -0.709832693121,0 -0.709832693121,-0.531509480503 q 0,-0.30825681646 0.182842853394,-0.414576038824 q 0.182842853394,-0.116914608785 0.526997461355,-0.116914608785 L 15.281866973,9.76019651749 q 0.344154607961,0 0.526993650541,0.116914608785 q 0.182842853394,0.106292856311 0.182842853394,0.414576038824 q 0,0.531509480503 -0.709828882307,0.531509480503 l -1.08625346281,0 l 0,4.07134785566 z" stroke-width="1.00240758"/>
    <path d="m 14.1185321764,1.04853269859 a 1.00828,0.996575 0 0,0 -0.714527615909,0.294282808774 l -0.275407524276,0.272210656471 a 1.00828,0.996575 0 0,0 0,1.40511095565 a 1.00828,0.996575 0 0,0 1.42161271217,0 l 0.275407524276,-0.264828161844 a 1.00828,0.996575 0 0,0 0,-1.41246708422 a 1.00828,0.996575 0 0,0 -0.707085096262,-0.294282808774 z m -3.8405840301,3.3840376059 l -1.42905523182,1.41246708422 a 1.00828,0.996575 0 0,0 0,1.40511095565 a 1.00828,0.996575 0 0,0 1.42905523182,0 l 1.42160890136,-1.40511095565 a 1.00828,0.996575 0 0,0 0,-1.41246708422 a 1.00828,0.996575 0 0,0 -1.42160890136,0 z m -4.27972317581,4.23004512409 l -1.42905523182,1.40511095565 a 1.00828,0.996575 0 0,0 0,1.41246708422 a 1.00828,0.996575 0 0,0 1.42905523182,0 l 1.42905523182,-1.41246708422 a 1.00828,0.996575 0 0,0 0,-1.40511095565 a 1.00828,0.996575 0 0,0 -1.42905523182,0 z m -4.27972317581,4.22268522893 l -1.42161271217,1.41246708422 a 1.00828,0.996575 0 0,0 0,1.41246708422 a 1.00828,0.996575 0 0,0 1.42161271217,0 l 1.42905523182,-1.41246708422 a 1.00828,0.996575 0 0,0 0,-1.41246708422 a 1.00828,0.996575 0 0,0 -1.42905523182,0 z" fill="#2e3436" stroke-dasharray="2.00481896, 4.00962276" stroke-linecap="round"/>
  </g>
</svg>
