<?xml version="1.0" encoding="UTF-8"?>
<svg xmlns="http://www.w3.org/2000/svg" width="16px" height="16px" viewBox="0 0 16 16">
  <g fill="#2e3436">
    <path d="m 1.00020324071,0.999234929805 l 14.0030343871,0 l 0,14.0030154365 l -14.0030343871,0 z" fill="#2e3436" stroke-width="2.0004324" stroke-linecap="round" stroke-linejoin="round" fill-opacity="0"/>
    <path d="m 0.99676312827,0 a 1.00032,1.00032 0 0,0 -0.99676312827,0.996770147288 l 0,14.0064593274 a 1.00032,1.00032 0 0,0 0.99676312827,0.996770147288 l 14.0064744995,0 a 1.00032,1.00032 0 0,0 0.99676312827,-0.996770147288 l 0,-14.0064593274 a 1.00032,1.00032 0 0,0 -0.99676312827,-0.996770147288 z m 1.00417260122,2.0009233011 l 12.00553877,0 l 0,11.9981530198 l -12.00553877,0 z" fill="#2e3436" stroke-linecap="round" stroke-linejoin="round"/>
    <path d="m 5.44017868927,9.67936350205 q 0.438746647958,0 0.746806826676,-0.102674069299 q 0.3175488405,-0.112011512273 0.448121899439,-0.233398270933 q 0.130799879539,-0.130686398221 0.261221724745,-0.233398270933 q 0.139872703554,-0.112011512273 0.261599759079,-0.112011512273 q 0.186748960961,0 0.326621664515,0.140023841195 q 0.139872703554,0.140023841195 0.139872703554,0.326734897259 q 0,0.401419319685 -0.644132701581,0.77483387113 q -0.634833056967,0.373422112128 -1.56835104117,0.373422112128 q -1.18559127807,0 -1.96974789694,-0.690812005731 q -0.774856974254,-0.700149448705 -0.774856974254,-1.76437600588 L 2.66733465333,7.54157672506 q 0,-1.120239874 0.728169734014,-1.87640263952 q 0.728169734014,-0.756158985182 1.81104908355,-0.756158985182 q 0.653470149629,0 1.32561519535,0.317397454285 l 0.0933744804804,0.0374253787211 q 0.15877442025,-0.224060827959 0.392059407718,-0.224060827959 q 0.270672583093,0 0.364047063573,0.158698727143 q 0.102825338829,0.158698727143 0.102825338829,0.457432636504 l 0,0.784167533763 q 0,0.616131363646 -0.466796795535,0.616131363646 q -0.167847244264,0 -0.280123441441,-0.0933744297385 q -0.102825338829,-0.0933366263256 -0.130799879539,-0.168036170116 q -0.0189017166964,-0.0839991833518 -0.0464982230732,-0.233398270933 q -0.0559490814214,-0.28004768239 -0.345523381211,-0.44809519353 q -0.280123441441,-0.17737361309 -0.52278368039,-0.224060827959 q -0.242698042382,-0.0466872148692 -0.448084096006,-0.0466872148692 q -0.709494837918,0 -1.17625383002,0.485433624402 q -0.466758992102,0.47610374211 -0.466758992102,1.21359540203 l 0,0.59746025804 q 0,0.700149448705 0.494771336246,1.120239874 q 0.504108784294,0.42008664495 1.34429009145,0.42008664495 z m 5.78789466962,0.336072340233 q 0,-0.270710239416 0.15877442025,-0.364084669154 q 0.15877442025,-0.102674069299 0.457459347487,-0.102674069299 l 0.214723501672,0 l -0.214723501672,-0.541446941221 l -2.2218211908,0 l -0.214723501672,0.541446941221 l 0.214723501672,0 q 0.616120357437,0 0.616120357437,0.466766299136 q 0,0.466766299136 -0.616120357437,0.466766299136 l -1.24161596636,0 q -0.616120357437,0 -0.616120357437,-0.466766299136 q 0,-0.28004768239 0.167847244264,-0.373422112128 q 0.15877442025,-0.0933744297385 0.457421544054,-0.0933744297385 l 1.44700201998,-3.57542788561 l -0.588145816726,0 q -0.625457805485,0 -0.625457805485,-0.466766299136 q 0,-0.28004768239 0.15877442025,-0.373422112128 q 0.167847244264,-0.0933366263256 0.466758992102,-0.0933366263256 l 2.01643513718,0 l 1.85773632379,4.50896048388 q 0.634795253533,0 0.634795253533,0.466766299136 q 0,0.466766299136 -0.616120357437,0.466766299136 l -1.29760285121,0 q -0.61615816087,0 -0.61615816087,-0.466766299136 z m 0.233247184034,-1.94174583863 l -0.728169734014,-1.79238455446 l -0.737469378628,1.79238455446 z" stroke-width="1.00021431"/>
  </g>
</svg>
