<?xml version="1.0" encoding="UTF-8"?>
<svg xmlns="http://www.w3.org/2000/svg" width="16px" height="16px" viewBox="0 0 16 16">
  <g fill="#2e3436">
    <path d="m 4.03287103098,11.9762540865 c 2.32216913796,0.0298508936056 5.64163400682,0.00604575060368 7.96392783839,0.00604575060368 l -0.0113357829173,-2.06629396976 l -2.07497349847,-3.86182144154 l -2.16310543206,2.92950624095 l -1.7376583848,-1.09714125502 l -2.01803386088,2.08791508535 z" fill="#2e3436"/>
    <path d="m 1.00124814055,1.0021851846 l 13.9965443338,0 l 0,13.9965432949 l -13.9965443338,0 z" fill="#2e3436" stroke-width="1.99950737" stroke-linecap="square" stroke-linejoin="round" fill-opacity="0"/>
    <path d="m 1.00369666966,6.04575061303E-06 a 0.999854,0.999854 0 0,0 -1.00368911247,1.00368906506 l 0,13.9926063776 a 0.999854,0.999854 0 0,0 1.00368911247,1.00368906506 l 13.9926070385,0 a 0.999854,0.999854 0 0,0 1.00368911247,-1.00368906506 l 0,-13.9926063776 a 0.999854,0.999854 0 0,0 -1.00368911247,-1.00368906506 z m 0.99630951779,1.99999815794 l 11.999988003,0 l 0,11.9999885698 l -11.999988003,0 z" fill="#2e3436" stroke-linecap="square" stroke-linejoin="round"/>
    <path d="M 6.99827175126,5.49864191423 A 1.49963,1.49963 0 0,1 5.49864217394,6.99827142071 A 1.49963,1.49963 0 0,1 3.99901259663,5.49864191423 A 1.49963,1.49963 0 0,1 5.49864217394,3.99901240775 A 1.49963,1.49963 0 0,1 6.99827175126,5.49864191423 Z" fill="#2e3436" stroke-width="2.15835569"/>
  </g>
</svg>
