<?xml version="1.0" encoding="UTF-8" standalone="no"?>
<svg
   width="15.996548"
   height="15.996555"
   viewBox="0 0 4.2324198 4.2324221"
   version="1.1"
   id="svg4268"
   xmlns="http://www.w3.org/2000/svg"
   xmlns:svg="http://www.w3.org/2000/svg"
   xmlns:rdf="http://www.w3.org/1999/02/22-rdf-syntax-ns#"
   xmlns:cc="http://creativecommons.org/ns#"
   xmlns:dc="http://purl.org/dc/elements/1.1/">
  <defs
     id="defs4262" />
  <metadata
     id="metadata4265">
    <rdf:RDF>
      <cc:Work
         rdf:about="">
        <dc:format>image/svg+xml</dc:format>
        <dc:type
           rdf:resource="http://purl.org/dc/dcmitype/StillImage" />
      </cc:Work>
    </rdf:RDF>
  </metadata>
  <g
     id="control-structure"
     style="display:inline"
     transform="translate(-127,-44.714844)">
    <g
       id="rect618">
      <path
         style="color:#000000;fill:#000000;fill-opacity:0;stroke-width:0.529167;stroke-linecap:round;stroke-linejoin:round;-inkscape-stroke:none"
         d="m 127.26458,44.979168 h 3.70417 v 3.704167 h -3.70417 z"
         id="path2214" />
      <path
         style="color:#000000;fill:#000000;stroke-linecap:round;stroke-linejoin:round;-inkscape-stroke:none"
         d="M 127.26367,44.714844 A 0.26460996,0.26460996 0 0 0 127,44.978516 v 3.705078 a 0.26460996,0.26460996 0 0 0 0.26367,0.263672 h 3.70508 a 0.26460996,0.26460996 0 0 0 0.26367,-0.263672 v -3.705078 a 0.26460996,0.26460996 0 0 0 -0.26367,-0.263672 z m 0.26563,0.529297 h 3.17578 v 3.173828 h -3.17578 z"
         id="path2216" />
    </g>
    <path
       d="m 128.43907,47.275291 q 0.11606,0 0.19755,-0.02716 0.084,-0.02963 0.11854,-0.06174 0.0346,-0.03457 0.0691,-0.06174 0.037,-0.02963 0.0692,-0.02963 0.0494,0 0.0864,0.03704 0.037,0.03704 0.037,0.08643 0,0.106186 -0.17039,0.204964 -0.16793,0.09878 -0.41487,0.09878 -0.31362,0 -0.52105,-0.182738 -0.20497,-0.185208 -0.20497,-0.466724 V 46.70979 q 0,-0.296333 0.19262,-0.496358 0.19262,-0.200024 0.47907,-0.200024 0.17286,0 0.35066,0.08396 l 0.0247,0.0099 q 0.042,-0.05927 0.10371,-0.05927 0.0716,0 0.0963,0.04198 0.0272,0.04198 0.0272,0.121003 v 0.207433 q 0,0.162983 -0.12348,0.162983 -0.0445,0 -0.0741,-0.0247 -0.0272,-0.02469 -0.0346,-0.04445 -0.005,-0.02222 -0.0123,-0.06174 -0.0148,-0.07408 -0.0914,-0.118533 -0.0741,-0.04692 -0.13829,-0.05927 -0.0642,-0.01235 -0.11853,-0.01235 -0.18768,0 -0.31115,0.12841 -0.12347,0.125942 -0.12347,0.321028 v 0.158044 q 0,0.185208 0.13088,0.296333 0.13335,0.111124 0.3556,0.111124 z m 1.82245,-1.261883 q 0.0741,0 0.0963,0.04198 0.0247,0.04198 0.0247,0.121003 v 0.21731 q 0,0.165453 -0.121,0.165453 -0.0198,0 -0.037,-0.0025 -0.0148,-0.0049 -0.0272,-0.0099 -0.01,-0.0074 -0.0198,-0.01729 -0.01,-0.01235 -0.0148,-0.01976 -0.005,-0.0074 -0.01,-0.02222 -0.005,-0.01482 -0.007,-0.01976 0,-0.0074 -0.005,-0.02222 -0.002,-0.01729 -0.002,-0.01976 -0.0173,-0.07408 -0.0988,-0.118533 -0.079,-0.04692 -0.19509,-0.04692 -0.11606,0 -0.19755,0.05433 -0.0815,0.05433 -0.0815,0.13335 0,0.08396 0.0815,0.13088 0.0815,0.04445 0.19014,0.05927 0.10866,0.01235 0.24201,0.04939 0.13335,0.03457 0.2099,0.09631 0.1457,0.116064 0.1457,0.30868 0,0.192616 -0.15558,0.311149 -0.15557,0.118533 -0.40993,0.118533 -0.20496,0 -0.38523,-0.09631 -0.0494,0.05927 -0.0988,0.05927 -0.12594,0 -0.12594,-0.162983 v -0.162983 q 0,-0.08149 0.0272,-0.121003 0.0272,-0.04198 0.0963,-0.04198 0.0222,0 0.0395,0.0049 0.0198,0.0049 0.0321,0.01482 0.0123,0.0099 0.0197,0.01976 0.01,0.0074 0.0148,0.02222 0.007,0.01482 0.01,0.02222 0.002,0.0074 0.005,0.01976 0.005,0.01235 0.005,0.01482 0.0173,0.06667 0.11853,0.113594 0.10125,0.04692 0.22472,0.04692 0.13829,0 0.23213,-0.05433 0.0938,-0.05433 0.0938,-0.13335 0,-0.07408 -0.0741,-0.118533 -0.0716,-0.04445 -0.16792,-0.05927 -0.0938,-0.01482 -0.22225,-0.04445 -0.12594,-0.02963 -0.20249,-0.07161 -0.0938,-0.05433 -0.14817,-0.145697 -0.0543,-0.09137 -0.0543,-0.197556 0,-0.187677 0.15311,-0.311149 0.1531,-0.125941 0.38276,-0.125941 0.19015,0 0.32103,0.08149 0.0197,-0.04692 0.0395,-0.06421 0.0197,-0.01729 0.0568,-0.01729 z"
       id="text622"
       style="font-weight:bold;font-size:2.46944px;line-height:1.25;font-family:FreeMono;-inkscape-font-specification:'FreeMono, Bold';letter-spacing:0px;word-spacing:0px;stroke-width:0.264583"
       aria-label="CS" />
  </g>
</svg>
