<?xml version="1.0" encoding="UTF-8"?>
<svg xmlns="http://www.w3.org/2000/svg" width="16px" height="16px" viewBox="0 0 16 16">
  <g fill="#2e3436">
    <path d="m 6.19357009544,2.80974775844 l 0,10.7471280038 l 8.95031551869,-3.78045017158E-06 l 0,-10.7471242234 z" fill="#2e3436" stroke-width="1.65780316" stroke-linecap="round" stroke-linejoin="round" fill-opacity="0"/>
    <path d="m 6.19336055139,2.00621307534 a 0.855876,0.802938 0 0,0 -0.857885436071,0.804820036159 l 0,10.7432719447 a 0.855876,0.802938 0 0,0 0.857885436071,0.804823816609 l 8.94875199769,0 a 0.855876,0.802938 0 0,0 0.857885436071,-0.804823816609 l 0,-10.7432719447 a 0.855876,0.802938 0 0,0 -0.857885436071,-0.804820036159 z m 0.857885436071,1.60964385277 l 7.23298112555,0 l 0,9.14101131106 l -7.23298112555,0 z" fill="#2e3436" stroke-linecap="round" stroke-linejoin="round"/>
    <path d="m 0,0 l 0,2.00048947379 l 5.33511647262,0 l 0,12.0068344868 l -5.33511647262,0 l 0,1.99267528329 l 6.39713811182,0 a 1.0663,1.00034 0 0,0 1.0620216392,-0.996337641645 l 0,-14.0073239606 a 1.0663,1.00034 0 0,0 -1.0620216392,-0.996337641645 z" fill="#2e3436" stroke-width="2.06538257" stroke-linecap="square" stroke-linejoin="round"/>
  </g>
</svg>
