<?xml version="1.0" encoding="UTF-8" standalone="no"?>
<svg
   width="9.7401752"
   height="15.527458"
   viewBox="0 0 2.577088 4.1083068"
   version="1.1"
   id="svg4268"
   xmlns="http://www.w3.org/2000/svg"
   xmlns:svg="http://www.w3.org/2000/svg"
   xmlns:rdf="http://www.w3.org/1999/02/22-rdf-syntax-ns#"
   xmlns:cc="http://creativecommons.org/ns#"
   xmlns:dc="http://purl.org/dc/elements/1.1/">
  <defs
     id="defs4262" />
  <metadata
     id="metadata4265">
    <rdf:RDF>
      <cc:Work
         rdf:about="">
        <dc:format>image/svg+xml</dc:format>
        <dc:type
           rdf:resource="http://purl.org/dc/dcmitype/StillImage" />
      </cc:Work>
    </rdf:RDF>
  </metadata>
  <g
     id="and"
     style="display:inline"
     transform="translate(-70.728589,-33.806517)">
    <g
       id="g964"
       transform="matrix(0.04317853,0,0,0.04317853,69.963918,33.851968)">
      <path
         style="color:#000000;fill:#000000;stroke-width:0.100285;stroke-miterlimit:10;-inkscape-stroke:none"
         d="m 42.396034,0.55713887 c 0,4.31100603 0,8.62201173 0,12.93301713 -3.607969,0.623265 -7.095256,1.928571 -10.228951,3.821636 -3.611368,2.174516 -6.753415,5.122442 -9.152573,8.588705 -2.295205,3.304952 -3.912211,7.079698 -4.707058,11.024835 -0.423268,2.074454 -0.616996,4.193952 -0.59647,6.31061 -0.0022,12.254683 -2.77e-4,24.509367 -9.16e-4,36.764051 2.166792,0 4.333582,0 6.500372,0 0,4.698119 0,9.396237 0,14.094357 3.436902,0 6.873803,0 10.310704,0 0,-4.69812 1e-6,-9.396238 0,-14.094357 8.687258,0 17.374514,0 26.061772,0 0,4.698119 0,9.396237 0,14.094357 3.436901,0 6.873802,0 10.310704,0 0,-4.69812 0,-9.396238 0,-14.094357 2.166789,0 4.33358,0 6.500371,0 -5.26e-4,-12.45406 7.88e-4,-24.908141 -0.0028,-37.362188 -0.03013,-4.446347 -1.07028,-8.883843 -3.032874,-12.874574 -1.999252,-4.07951 -4.943175,-7.6912 -8.535791,-10.471963 -3.353582,-2.602624 -7.267294,-4.484061 -11.402198,-5.450548 -0.567627,-0.133246 -1.139125,-0.250178 -1.713617,-0.349794 0,-4.8478505 0,-9.6957012 0,-14.5435516 -3.4369,0 -6.873802,0 -10.310703,0 0,0.5365878 0,1.07317663 0,1.60976447 z M 47.830241,21.804751 c 3.222899,0.03846 6.43654,0.823273 9.305004,2.295718 3.244286,1.657126 6.046704,4.168343 8.044242,7.215206 1.579433,2.396381 2.657443,5.120716 3.143035,7.949514 0.225054,1.286844 0.3196,2.594434 0.308924,3.900256 4.2e-5,9.357342 3.9e-5,18.714694 3.5e-5,28.07204 -14.053397,0 -28.106792,0 -42.160189,0 6.57e-4,-9.53837 -8.41e-4,-19.076762 0.003,-28.615118 0.03503,-3.364549 0.888161,-6.719513 2.483264,-9.683403 1.81876,-3.400911 4.588897,-6.285842 7.915922,-8.237181 2.557829,-1.507803 5.439372,-2.461379 8.391874,-2.776017 0.852276,-0.09315 1.714454,-0.130823 2.564963,-0.121015 z"
         id="path956" />
    </g>
  </g>
</svg>
