<?xml version="1.0" encoding="UTF-8" standalone="no"?>
<svg
   width="15.996571"
   height="16.003939"
   viewBox="0 0 4.2324259 4.2343756"
   version="1.1"
   id="svg4268"
   xmlns="http://www.w3.org/2000/svg"
   xmlns:svg="http://www.w3.org/2000/svg"
   xmlns:rdf="http://www.w3.org/1999/02/22-rdf-syntax-ns#"
   xmlns:cc="http://creativecommons.org/ns#"
   xmlns:dc="http://purl.org/dc/elements/1.1/">
  <defs
     id="defs4262" />
  <metadata
     id="metadata4265">
    <rdf:RDF>
      <cc:Work
         rdf:about="">
        <dc:format>image/svg+xml</dc:format>
        <dc:type
           rdf:resource="http://purl.org/dc/dcmitype/StillImage" />
      </cc:Work>
    </rdf:RDF>
  </metadata>
  <g
     id="interaction"
     style="display:inline"
     transform="translate(-51.593748,10.054688)">
    <g
       id="rect1031">
      <path
         style="color:#000000;fill:#000000;fill-opacity:0;stroke-width:0.529167;stroke-linecap:round;stroke-linejoin:round;-inkscape-stroke:none"
         d="M 51.858334,-9.7895832 H 55.5625 v 3.7041666 h -3.704166 z"
         id="path4120" />
      <path
         style="color:#000000;fill:#000000;stroke-linecap:round;stroke-linejoin:round;-inkscape-stroke:none"
         d="m 51.857422,-10.054688 a 0.26460996,0.26460996 0 0 0 -0.263672,0.2656255 v 3.703125 a 0.26460996,0.26460996 0 0 0 0.263672,0.265625 H 55.5625 a 0.26460996,0.26460996 0 0 0 0.263672,-0.265625 v -3.703125 A 0.26460996,0.26460996 0 0 0 55.5625,-10.054688 Z m 0.265625,0.5292974 h 3.175781 v 3.1757812 h -3.175781 z"
         id="path4122" />
    </g>
    <g
       id="path1287">
      <path
         style="color:#000000;fill:#000000;fill-opacity:0;stroke-width:0.264583px;-inkscape-stroke:none"
         d="m 53.18125,-8.2020834 h 1.058333 v 0.5291667 H 53.18125 Z"
         id="path4112" />
      <path
         style="color:#000000;fill:#000000;-inkscape-stroke:none"
         d="m 53.048828,-8.3339844 v 0.1328125 0.6601563 h 1.322266 v -0.7929688 z m 0.265625,0.2636719 h 0.792969 v 0.265625 h -0.792969 z"
         id="path4114" />
    </g>
    <path
       style="color:#000000;fill:#000000;-inkscape-stroke:none"
       d="m 53.578125,-7.6738281 v 1.0585937 h 0.263672 v -1.0585937 z"
       id="path1289-3" />
    <path
       style="color:#000000;fill:#000000;-inkscape-stroke:none"
       d="m 53.525391,-9.5273438 -0.002,0.1933594 -0.154296,0.1523438 h -1.246094 v 0.3710937 h 1.40039 l 0.367188,-0.3691406 0.0059,-0.34375 z"
       id="path1035-7-2-2-7" />
  </g>
</svg>
