<?xml version="1.0" encoding="UTF-8"?>
<svg xmlns="http://www.w3.org/2000/svg" width="16px" height="16px" viewBox="0 0 16 16">
  <g fill="#2e3436">
    <path d="m 0.99676312827,0 a 1.00032,1.00032 0 0,0 -0.99676312827,0.996770147288 l 0,14.0064593274 a 1.00032,1.00032 0 0,0 0.99676312827,0.996770147288 l 14.0064744995,0 a 1.00032,1.00032 0 0,0 0.99676312827,-0.996770147288 l 0,-14.0064593274 a 1.00032,1.00032 0 0,0 -0.99676312827,-0.996770147288 z m 1.00413479778,2.0009233011 l 12.0055765735,0 L 14.0064744995,14.0064593274 l -12.0055765735,0 z" fill="#2e3436" stroke-width="2.0004324" stroke-linecap="square" stroke-linejoin="round" fill-opacity="0"/>
    <path d="m 8.94020956995,11.9005181454 q 0,-0.464097378189 0.272184720429,-0.624134346147 q 0.272184720429,-0.176050493641 0.784156618869,-0.176050493641 l 0.368205441247,0 l -0.368205441247,-0.92819853672 l -3.80880932463,0 l -0.368205441247,0.92819853672 l 0.368205441247,0 q 1.056227929,0 1.056227929,0.800169718422 q 0,0.800173498763 -1.056227929,0.800173498763 l -2.12844671032,0 q -1.056227929,0 -1.056227929,-0.800173498763 q 0,-0.48010334319 0.288062162454,-0.640136530806 q 0.272184720429,-0.160021846592 0.784156618869,-0.160021846592 l 2.48054788894,-6.12931304749 l -1.00821756859,0 q -1.07225658476,0 -1.07225658476,-0.800173498763 q 0,-0.48010334319 0.272184720429,-0.640136530806 q 0.288062162454,-0.160021846592 0.800185274627,-0.160021846592 l 3.45674594944,0 l 3.18467463932,7.72965626467 q 1.08820963365,0 1.08820963365,0.800169718422 q 0,0.800173498763 -1.05619012556,0.800173498763 l -2.22450523457,0 q -1.056227929,0 -1.056227929,-0.800173498763 z m 0.40011153903,-3.32871147233 l -1.24826937063,-3.07266139641 l -1.26429802639,3.07266139641 z" stroke-width="1.00021431"/>
  </g>
</svg>
