<?xml version="1.0" encoding="UTF-8" standalone="no"?>
<svg
   width="15.599472"
   height="15.304543"
   viewBox="0 0 4.1273602 4.049327"
   version="1.1"
   id="svg4268"
   xmlns="http://www.w3.org/2000/svg"
   xmlns:svg="http://www.w3.org/2000/svg"
   xmlns:rdf="http://www.w3.org/1999/02/22-rdf-syntax-ns#"
   xmlns:cc="http://creativecommons.org/ns#"
   xmlns:dc="http://purl.org/dc/elements/1.1/">
  <defs
     id="defs4262" />
  <metadata
     id="metadata4265">
    <rdf:RDF>
      <cc:Work
         rdf:about="">
        <dc:format>image/svg+xml</dc:format>
        <dc:type
           rdf:resource="http://purl.org/dc/dcmitype/StillImage" />
      </cc:Work>
    </rdf:RDF>
  </metadata>
  <g
     id="assumption"
     transform="translate(-103.29635,-24.497287)">
    <path
       style="color:#000000;display:inline;fill:#000000;stroke-width:0.167824;stroke-miterlimit:10;-inkscape-stroke:none"
       d="m 105.26122,24.498131 c -0.63309,0.02218 -1.31309,0.194451 -1.74937,0.683752 -0.24983,0.294195 -0.29893,0.756549 -0.0597,1.072166 0.30157,0.438004 0.83611,0.638383 1.34107,0.725161 0.72229,0.119843 1.5094,0.02807 2.13015,-0.380328 0.32,-0.215499 0.57154,-0.602868 0.48206,-1.000704 -0.0965,-0.454544 -0.51679,-0.748552 -0.92685,-0.905018 -0.38643,-0.149826 -0.80462,-0.203433 -1.21739,-0.195029 z m 0.098,0.487083 c 0.47479,0.0069 0.97914,0.0986 1.36008,0.399539 0.16051,0.129115 0.28925,0.362439 0.1644,0.558714 -0.16623,0.286243 -0.50071,0.413271 -0.80242,0.504164 -0.49799,0.128396 -1.02109,0.12043 -1.51595,-0.01919 -0.27217,-0.08814 -0.55972,-0.219031 -0.72279,-0.464672 -0.10459,-0.164149 -0.0585,-0.381566 0.0836,-0.508184 0.3188,-0.320745 0.78969,-0.422976 1.22502,-0.462129 0.0692,-0.0064 0.13867,-0.0059 0.20804,-0.0082 z"
       id="path18-8" />
    <path
       d="m 106.73184,28.42314 q 0,-0.07161 0.042,-0.09631 0.042,-0.02716 0.12101,-0.02716 h 0.0568 l -0.0568,-0.143228 h -0.58773 l -0.0568,0.143228 h 0.0568 q 0.16298,0 0.16298,0.123472 0,0.123472 -0.16298,0.123472 h -0.32844 q -0.16298,0 -0.16298,-0.123472 0,-0.07408 0.0444,-0.09878 0.042,-0.02469 0.121,-0.02469 l 0.38277,-0.945796 h -0.15558 q -0.16545,0 -0.16545,-0.123472 0,-0.07408 0.042,-0.09878 0.0444,-0.0247 0.12347,-0.0247 h 0.5334 l 0.49142,1.19274 q 0.16792,0 0.16792,0.123472 0,0.123472 -0.16298,0.123472 h -0.34325 q -0.16299,0 -0.16299,-0.123472 z m 0.0617,-0.513644 -0.19262,-0.474132 -0.19508,0.474132 z"
       id="text695-8-4"
       style="font-weight:bold;font-size:2.46944px;line-height:1.25;font-family:FreeMono;-inkscape-font-specification:'FreeMono, Bold';letter-spacing:0px;word-spacing:0px;stroke-width:0.264583"
       aria-label="A" />
  </g>
</svg>
