<?xml version="1.0" encoding="UTF-8" standalone="no"?>
<svg
   width="16.003937"
   height="15.996571"
   viewBox="0 0 4.2343748 4.2324261"
   version="1.1"
   id="svg4268"
   xmlns="http://www.w3.org/2000/svg"
   xmlns:svg="http://www.w3.org/2000/svg"
   xmlns:rdf="http://www.w3.org/1999/02/22-rdf-syntax-ns#"
   xmlns:cc="http://creativecommons.org/ns#"
   xmlns:dc="http://purl.org/dc/elements/1.1/">
  <defs
     id="defs4262" />
  <metadata
     id="metadata4265">
    <rdf:RDF>
      <cc:Work
         rdf:about="">
        <dc:format>image/svg+xml</dc:format>
        <dc:type
           rdf:resource="http://purl.org/dc/dcmitype/StillImage" />
      </cc:Work>
    </rdf:RDF>
  </metadata>
  <g
     id="goal"
     style="display:inline"
     transform="translate(-82.292806,-10.453701)">
    <g
       id="rect4893-7-3-4"
       transform="translate(4.5056973,-8.5970776)">
      <path
         style="color:#000000;fill:#000000;fill-opacity:0;stroke-width:0.529167;stroke-linecap:square;stroke-linejoin:round;-inkscape-stroke:none"
         d="m 78.052078,19.314583 h 3.704167 v 3.704167 h -3.704167 z"
         id="path2718-7" />
      <path
         style="color:#000000;fill:#000000;stroke-linecap:square;stroke-linejoin:round;-inkscape-stroke:none"
         d="m 78.052734,19.050781 a 0.26460996,0.26460996 0 0 0 -0.265625,0.263672 v 3.705078 a 0.26460996,0.26460996 0 0 0 0.265625,0.263672 h 3.703125 a 0.26460996,0.26460996 0 0 0 0.265625,-0.263672 v -3.705078 a 0.26460996,0.26460996 0 0 0 -0.265625,-0.263672 z m 0.263672,0.529297 h 3.175781 v 3.173828 h -3.175781 z"
         id="path2720-6" />
    </g>
    <path
       d="m 76.709162,14.301912 q 0.254736,0 0.254736,0.190102 0,0.144477 -0.159685,0.190101 v 0.501868 q -0.254736,0.133071 -0.433431,0.182498 -0.178696,0.05323 -0.399213,0.05323 -0.258538,0 -0.463848,-0.06083 -0.20531,-0.06463 -0.326975,-0.163488 -0.121665,-0.09885 -0.201507,-0.231923 -0.07984,-0.136873 -0.110259,-0.266142 -0.03042,-0.129269 -0.03042,-0.266143 v -0.269944 q 0,-0.444837 0.30036,-0.752802 0.304162,-0.311766 0.779416,-0.311766 0.307965,0 0.551295,0.121665 0.06083,-0.121665 0.155883,-0.121665 0.102655,0 0.140675,0.06463 0.03802,0.06083 0.03802,0.1863 v 0.296558 q 0,0.121665 -0.04182,0.1863 -0.03802,0.06463 -0.148279,0.06463 -0.02662,0 -0.05323,-0.0038 -0.02281,-0.0076 -0.03802,-0.01521 -0.01521,-0.01141 -0.03042,-0.02661 -0.01141,-0.01521 -0.02281,-0.02661 -0.0076,-0.01521 -0.01521,-0.03422 -0.0076,-0.02281 -0.01141,-0.03422 -0.0038,-0.01141 -0.01141,-0.03042 -0.0038,-0.02281 -0.0038,-0.03042 -0.03042,-0.09885 -0.163487,-0.155884 -0.133071,-0.06083 -0.342183,-0.06083 -0.31937,0 -0.513274,0.190101 -0.190101,0.1863 -0.190101,0.494264 v 0.24333 q 0,0.634939 0.729989,0.634939 0.26234,0 0.475254,-0.09505 v -0.26234 h -0.380203 q -0.250934,0 -0.250934,-0.190101 0,-0.110259 0.06463,-0.148279 0.06463,-0.04182 0.186299,-0.04182 z"
       id="text84-8-6-5"
       style="font-weight:bold;font-size:3.80203px;line-height:1.25;font-family:FreeMono;-inkscape-font-specification:'FreeMono, Bold';letter-spacing:0px;word-spacing:0px;stroke-width:0.237627"
       transform="scale(1.1134396,0.89811789)"
       aria-label="G" />
  </g>
</svg>
