<?xml version="1.0" encoding="UTF-8"?>
<svg xmlns="http://www.w3.org/2000/svg" width="16px" height="16px" viewBox="0 0 16 16">
  <g fill="#2e3436">
    <path d="m 14.9380360457,0.00169573878062 a 0.998842,1.00024 0 0,0 -0.221163928018,0.0369312703672 l -6.98923687286,2.00076196733 a 1.00005,1.00145 0 1,0 0.545571662065,1.9269489455 l 5.26403744159,-1.50612108873 l -1.50400907984,5.27142399957 a 1.00005,1.00145 0 1,0 1.92424696648,0.546337852988 l 1.99797582537,-6.9990332947 A 0.998842,1.00024 0 0,0 14.9380360457,0.00169573878062 Z" fill="#2e3436" stroke-width="1.99888585" stroke-linecap="round" stroke-linejoin="round"/>
    <path d="m 13.1129485813,15.4665869954 q 0,-0.309378581763 0.181113590481,-0.41606073663 q 0.181113590481,-0.117350340114 0.522009531348,-0.117350340114 l 0.245020490999,0 l -0.245020490999,-0.618756936721 l -2.53548079833,0 l -0.245020490999,0.618756936721 l 0.245020490999,0 q 0.703115572284,0 0.703115572284,0.533411190147 q 0,0.533411152346 -0.703115572284,0.533411152346 l -1.41688732768,0 q -0.703115572284,0 -0.703115572284,-0.533411152346 q 0,-0.320046691408 0.19175844928,-0.426728959677 q 0.181113590481,-0.106682230469 0.522013306121,-0.106682230469 l 1.65125541034,-4.08592957817 l -0.67115457248,0 q -0.713771755401,0 -0.713771755401,-0.533411152346 q 0,-0.320047069414 0.181113590481,-0.426728921877 q 0.19175844928,-0.106681096449 0.532665714465,-0.106681096449 l 2.30110894091,0 l 2.1199991252,5.15275188286 q 0.724424163745,0 0.724424163745,0.533411190147 q 0,0.533411152346 -0.703115572284,0.533411152346 l -1.48080555252,0 q -0.703115572284,0 -0.703115572284,-0.533411152346 z m 0.266310208597,-2.21899046936 l -0.830955796728,-2.04829878721 l -0.841608205072,2.04829878721 z" stroke-width="0.99944103"/>
    <path d="M 0.999397475512,14.9219453348 L 13.9830412206,1.92008207285" fill="#2e3436" stroke-width="1.99888585" stroke-dasharray="1.99888585, 3.99775658" stroke-linecap="round" fill-opacity="0"/>
    <path d="m 13.9850041024,0.92338646708 a 0.998743,1.00014 0 0,0 -0.707769866929,0.287935386531 l -0.272802817509,0.273170438522 a 0.998743,1.00014 0 0,0 0,1.41752573057 a 0.998743,1.00014 0 0,0 1.41553973386,0 l 0.272802817509,-0.273170438522 a 0.998743,1.00014 0 0,0 0,-1.41752573057 a 0.998743,1.00014 0 0,0 -0.707769866929,-0.287935386531 z m -3.80426114736,3.38877254415 l -1.41553973386,1.41752573057 a 0.998743,1.00014 0 0,0 0,1.41014287856 a 0.998743,1.00014 0 0,0 1.41553973386,0 l 1.41553973386,-1.41014287856 a 0.998743,1.00014 0 0,0 0,-1.41752573057 a 0.998743,1.00014 0 0,0 -1.41553973386,0 z m -4.23924707064,4.24519433971 l -1.40816760292,1.41752573057 a 0.998743,1.00014 0 0,0 0,1.41014287856 a 0.998743,1.00014 0 0,0 1.40816760292,0 l 1.41553973386,-1.41014287856 a 0.998743,1.00014 0 0,0 0,-1.41752573057 a 0.998743,1.00014 0 0,0 -1.41553973386,0 z m -4.23924707064,4.24519433971 l -1.40816760292,1.41014261396 a 0.998743,1.00014 0 0,0 0,1.41752569277 a 0.998743,1.00014 0 0,0 1.40816760292,0 l 1.41553973386,-1.41752569277 a 0.998743,1.00014 0 0,0 0,-1.41014261396 a 0.998743,1.00014 0 0,0 -1.41553973386,0 z" fill="#2e3436" stroke-dasharray="1.99888585, 3.99775658" stroke-linecap="round"/>
  </g>
</svg>
