<?xml version="1.0" encoding="UTF-8" standalone="no"?>
<svg
   width="15.996563"
   height="16.003937"
   viewBox="0 0 4.2324239 4.2343751"
   version="1.1"
   id="svg4268"
   xmlns="http://www.w3.org/2000/svg"
   xmlns:svg="http://www.w3.org/2000/svg"
   xmlns:rdf="http://www.w3.org/1999/02/22-rdf-syntax-ns#"
   xmlns:cc="http://creativecommons.org/ns#"
   xmlns:dc="http://purl.org/dc/elements/1.1/">
  <defs
     id="defs4262" />
  <metadata
     id="metadata4265">
    <rdf:RDF>
      <cc:Work
         rdf:about="">
        <dc:format>image/svg+xml</dc:format>
        <dc:type
           rdf:resource="http://purl.org/dc/dcmitype/StillImage" />
      </cc:Work>
    </rdf:RDF>
  </metadata>
  <g
     id="controlled-process"
     style="display:inline"
     transform="translate(-111.125,-39.158203)">
    <g
       id="rect691">
      <path
         style="color:#000000;fill:#000000;fill-opacity:0;stroke-width:0.529167;stroke-linecap:round;stroke-linejoin:round;-inkscape-stroke:none"
         d="m 111.38958,39.422916 h 3.70417 v 3.704167 h -3.70417 z"
         id="path2178" />
      <path
         style="color:#000000;fill:#000000;stroke-linecap:round;stroke-linejoin:round;-inkscape-stroke:none"
         d="m 111.38867,39.158203 a 0.26460996,0.26460996 0 0 0 -0.26367,0.265625 v 3.703125 a 0.26460996,0.26460996 0 0 0 0.26367,0.265625 h 3.70508 a 0.26460996,0.26460996 0 0 0 0.26367,-0.265625 v -3.703125 a 0.26460996,0.26460996 0 0 0 -0.26367,-0.265625 z m 0.26563,0.529297 h 3.17578 v 3.175781 h -3.17578 z"
         id="path2180" />
    </g>
    <path
       d="m 112.61981,41.723686 q 0.11606,0 0.19755,-0.02716 0.084,-0.02963 0.11854,-0.06174 0.0346,-0.03457 0.0691,-0.06174 0.037,-0.02963 0.0692,-0.02963 0.0494,0 0.0864,0.03704 0.037,0.03704 0.037,0.08643 0,0.106186 -0.17039,0.204964 -0.16793,0.09878 -0.41487,0.09878 -0.31362,0 -0.52105,-0.182738 -0.20496,-0.185208 -0.20496,-0.466725 v -0.162983 q 0,-0.296332 0.19261,-0.496357 0.19262,-0.200025 0.47907,-0.200025 0.17286,0 0.35066,0.08396 l 0.0247,0.0099 q 0.042,-0.05927 0.10371,-0.05927 0.0716,0 0.0963,0.04198 0.0272,0.04198 0.0272,0.121003 v 0.207433 q 0,0.162983 -0.12348,0.162983 -0.0444,0 -0.0741,-0.0247 -0.0272,-0.02469 -0.0346,-0.04445 -0.005,-0.02222 -0.0123,-0.06174 -0.0148,-0.07408 -0.0914,-0.118533 -0.0741,-0.04692 -0.13829,-0.05927 -0.0642,-0.01235 -0.11853,-0.01235 -0.18768,0 -0.31115,0.128411 -0.12347,0.125942 -0.12347,0.321027 v 0.158045 q 0,0.185208 0.13088,0.296332 0.13335,0.111125 0.3556,0.111125 z m 1.97308,-0.760587 q 0,0.06668 -0.0148,0.128411 -0.0148,0.06174 -0.0568,0.12841 -0.042,0.06421 -0.10619,0.113595 -0.0617,0.04692 -0.16792,0.07902 -0.10372,0.02963 -0.23954,0.02963 h -0.242 v 0.246944 h 0.24447 q 0.16299,0 0.16299,0.123472 0,0.123472 -0.16299,0.123472 h -0.52846 q -0.16298,0 -0.16298,-0.123472 0,-0.123472 0.16298,-0.123472 h 0.0371 v -0.945795 h -0.0371 q -0.16298,0 -0.16298,-0.123472 0,-0.07161 0.042,-0.09631 0.042,-0.02716 0.121,-0.02716 h 0.57538 q 0.2346,0 0.38524,0.13088 0.15063,0.13088 0.15063,0.335844 z m -0.82726,-0.21978 v 0.451907 h 0.29139 q 0.12841,0 0.20003,-0.05927 0.0741,-0.06174 0.0741,-0.165452 0,-0.106186 -0.0741,-0.165452 -0.0716,-0.06174 -0.20003,-0.06174 z"
       id="text695"
       style="font-weight:bold;font-size:2.46944px;line-height:1.25;font-family:FreeMono;-inkscape-font-specification:'FreeMono, Bold';letter-spacing:0px;word-spacing:0px;stroke-width:0.264583"
       aria-label="CP" />
  </g>
</svg>
