<?xml version="1.0" encoding="UTF-8"?>
<svg xmlns="http://www.w3.org/2000/svg" width="16px" height="16px" viewBox="0 0 16 16">
  <g fill="#2e3436">
    <path d="m 7.98020915501,0.00218880474512 c -4.01814139568,-0.0724231085321 -7.7217935009,2.87718187263 -7.92145454133,6.27881629479 c -0.121083863801,2.10990167423 -0.0129650026249,4.22400412454 -0.040284115299,6.33570164037 c 0.00158821282156,1.12778852177 0.00509339388833,2.25556918428 0.0189844681294,3.38329090232 c 1.75351197467,-0.921785449685 3.66820671412,-1.62872222678 5.73147112293,-1.90323842405 c 1.02690692399,-0.143117179204 2.0872357726,-0.162765336701 3.17520785894,-0.11175871984 c 2.35455560529,0.125748207977 4.64341569014,0.760254017275 6.63454375042,1.8612149448 c 0.31866124309,0.292875435643 0.34463755192,-0.231219517419 0.419788263564,-0.430271071384 c -0.0728355326039,-3.30032066284 0.130390883543,-6.61582149217 -0.164933354822,-9.91330103143 c -0.668517208567,-3.08147948465 -4.13302984037,-5.58659598766 -7.8559118227,-5.50048990225 z m -0.076817640553,1.51472754661 c 3.26309668567,-0.0852730035348 6.29108230945,2.38556139428 6.25900318867,5.16489151294 c 0.0435253659552,2.26703977863 0.0166692890893,4.53457862046 0.026856076866,6.80185417697 c -3.88701891556,-1.3999155031 -8.4223296356,-1.381564124 -12.3103672299,0.00550148409903 c -0.136549259789,-0.0862947077246 -0.0162062532813,-0.487796946902 -0.0551012611562,-0.700166022019 c 0.00509339388833,-2.3481630913 -0.104646092616,-4.71538489537 0.123723167907,-7.04072468692 c 0.350425499521,-1.61134932592 1.82249041899,-3.10182318692 3.56773257413,-3.77027708274 c 0.746362788613,-0.292325287233 1.56329686473,-0.455416783348 2.38608371346,-0.461209060178 z" fill="#2e3436" stroke-width="0.52418623"/>
    <path d="m 7.14217970956,5.07904873475 c -0.242580410848,-0.00884471755602 -0.465029044367,0.107321240985 -0.702150448837,0.104830078189 c -0.220286521719,-0.0807068984813 -0.464231832305,-0.01065452213 -0.695109462429,-0.0349992028487 c -0.178647400958,1.70254427445E-07 -0.357294604391,0 -0.535941807824,0 c 0.0326941881048,1.17016890174 0.0232576150073,2.34076599337 0.024304894083,3.5111650791 c 0.403795217535,0 0.807590435069,0 1.2113856526,0 c 0.00673956281838,-0.7417873078 -0.0262441973582,-1.487011712 0.0260555607084,-2.22651761046 c 0.0775158363021,-0.240863196236 0.360274273357,-0.444934751 0.659772781025,-0.382352117441 c 0.126074465419,-0.00437043117734 0.164229832679,0.132521450207 0.225797082197,0.208681363668 c 0.117296244105,0.244220102801 0.0462367193589,0.514227962855 0.0713714171758,0.770467858047 c 0.00506849888393,0.475463753576 -0.019543151971,0.952483973137 0.0150455011687,1.42687835865 c 0.0665115049957,0.179228879843 0.315450254856,0.246794690267 0.511559681354,0.202842147537 c 0.227745669161,0 0.455491140797,0 0.683236809958,0 c 0.00684030071513,-0.759711864278 -0.0299770302463,-1.52311859016 0.0296078554835,-2.28036006268 c 0.0763231786146,-0.23619141472 0.410437795437,-0.437023878984 0.67947711363,-0.292742955407 c 0.222644578605,0.123729852032 0.240237563409,0.38513747989 0.246359464653,0.592697888401 c 0.00940220369738,0.66002704517 0.00567490151735,1.32026588685 0.00517713779219,1.98040512969 c 0.402895094798,0 0.805789992071,0 1.20868508687,0 c -0.0123433552321,-0.831295679212 0.0413916215754,-1.66574651349 -0.0440451762912,-2.4946582902 c -0.0985712418762,-0.505273431193 -0.540662267151,-0.993809490037 -1.1555932524,-1.06376822645 c -0.455541114694,-0.0802146929287 -0.928510873154,0.0489003066741 -1.28792531893,0.293856759878 c -0.105116439811,0.115319453523 -0.200764109904,-0.0273968318568 -0.29975450044,-0.0779152366186 c -0.246821871352,-0.166763191103 -0.565371693024,-0.247174357642 -0.877316071547,-0.238510961053 z" fill="#2e3436"/>
  </g>
</svg>
