<?xml version="1.0" encoding="UTF-8" standalone="no"?>
<svg
   width="15.996548"
   height="15.996555"
   viewBox="0 0 4.2324198 4.2324221"
   version="1.1"
   id="svg4268"
   xmlns="http://www.w3.org/2000/svg"
   xmlns:svg="http://www.w3.org/2000/svg"
   xmlns:rdf="http://www.w3.org/1999/02/22-rdf-syntax-ns#"
   xmlns:cc="http://creativecommons.org/ns#"
   xmlns:dc="http://purl.org/dc/elements/1.1/">
  <defs
     id="defs4262" />
  <metadata
     id="metadata4265">
    <rdf:RDF>
      <cc:Work
         rdf:about="">
        <dc:format>image/svg+xml</dc:format>
        <dc:type
           rdf:resource="http://purl.org/dc/dcmitype/StillImage" />
        <dc:title />
      </cc:Work>
    </rdf:RDF>
  </metadata>
  <g
     id="c4-container"
     style="display:inline"
     transform="translate(-119.0625,9.7890625)">
    <g
       id="rect1264-7">
      <path
         style="color:#000000;fill:#000000;fill-opacity:0;stroke-width:0.529167;stroke-linecap:round;stroke-linejoin:round;-inkscape-stroke:none"
         d="m 119.32708,-9.5249996 h 3.70417 v 3.7041666 h -3.70417 z"
         id="path1451" />
      <path
         style="color:#000000;fill:#000000;stroke-linecap:round;stroke-linejoin:round;-inkscape-stroke:none"
         d="m 119.32617,-9.7890625 a 0.26460996,0.26460996 0 0 0 -0.26367,0.2636719 v 3.7050781 a 0.26460996,0.26460996 0 0 0 0.26367,0.2636719 h 3.70508 a 0.26460996,0.26460996 0 0 0 0.26367,-0.2636719 v -3.7050781 a 0.26460996,0.26460996 0 0 0 -0.26367,-0.2636719 z m 0.26563,0.5292969 h 3.17578 v 3.1738281 h -3.17578 z"
         id="path1453" />
    </g>
    <g
       aria-label="CT"
       id="text84-8-3-5"
       style="font-weight:bold;font-size:2.46944px;line-height:1.25;font-family:FreeMono;-inkscape-font-specification:'FreeMono, Bold';letter-spacing:0px;word-spacing:0px;display:inline;stroke-width:0.264583">
      <path
         d="m 121.04584,-7.0637094 q -0.0844,0.043408 -0.17725,0.065112 -0.0928,0.021704 -0.19533,0.021704 -0.36415,0 -0.55587,-0.2399505 -0.19172,-0.2399504 -0.19172,-0.6933242 0,-0.4545795 0.19172,-0.69453 0.19172,-0.2399504 0.55587,-0.2399504 0.10249,0 0.19654,0.021704 0.094,0.021704 0.17604,0.065112 v 0.3954963 q -0.0916,-0.084405 -0.17845,-0.1229897 -0.0856,-0.039791 -0.17725,-0.039791 -0.19534,0 -0.29542,0.1555458 -0.0989,0.15434 -0.0989,0.4594026 0,0.3038569 0.0989,0.4594027 0.10008,0.15434 0.29542,0.15434 0.0916,0 0.17725,-0.038585 0.0868,-0.039791 0.17845,-0.1241955 z"
         id="path1716" />
      <path
         d="m 122.15034,-7.0118608 h -0.35571 v -1.4891399 h -0.45699 v -0.3110915 h 1.26969 v 0.3110915 h -0.45699 z"
         id="path1718" />
    </g>
  </g>
</svg>
