<?xml version="1.0" encoding="UTF-8" standalone="no"?>
<svg
   width="16.003952"
   height="16.003952"
   viewBox="0 0 4.2343789 4.2343791"
   version="1.1"
   id="svg4268"
   xmlns="http://www.w3.org/2000/svg"
   xmlns:svg="http://www.w3.org/2000/svg"
   xmlns:rdf="http://www.w3.org/1999/02/22-rdf-syntax-ns#"
   xmlns:cc="http://creativecommons.org/ns#"
   xmlns:dc="http://purl.org/dc/elements/1.1/">
  <defs
     id="defs4262" />
  <metadata
     id="metadata4265">
    <rdf:RDF>
      <cc:Work
         rdf:about="">
        <dc:format>image/svg+xml</dc:format>
        <dc:type
           rdf:resource="http://purl.org/dc/dcmitype/StillImage" />
      </cc:Work>
    </rdf:RDF>
  </metadata>
  <g
     id="data-type"
     style="display:inline"
     transform="translate(-17.197264,-15.345701)">
    <g
       id="rect1082">
      <path
         style="color:#000000;fill:#000000;fill-opacity:0;stroke-width:0.529167;stroke-linecap:round;stroke-linejoin:round;-inkscape-stroke:none"
         d="m 17.4625,15.610416 h 3.704166 v 3.704167 H 17.4625 Z"
         id="path3556" />
      <path
         style="color:#000000;fill:#000000;stroke-linecap:round;stroke-linejoin:round;-inkscape-stroke:none"
         d="m 17.462891,15.345703 a 0.26460996,0.26460996 0 0 0 -0.265625,0.265625 v 3.703125 a 0.26460996,0.26460996 0 0 0 0.265625,0.265625 h 3.703125 a 0.26460996,0.26460996 0 0 0 0.265625,-0.265625 V 15.611328 A 0.26460996,0.26460996 0 0 0 21.166016,15.345703 Z M 17.726562,15.875 h 3.175782 v 3.175781 h -3.175782 z"
         id="path3558" />
    </g>
    <path
       d="m 18.075369,18.123556 q -0.165453,0 -0.165453,-0.123472 0,-0.05927 0.03951,-0.09137 0.03951,-0.0321 0.111125,-0.0321 v -0.945795 q -0.150636,0 -0.150636,-0.123472 0,-0.07408 0.04198,-0.09878 0.04445,-0.02469 0.123472,-0.02469 h 0.523521 q 0.269169,0 0.451907,0.197555 0.185208,0.197555 0.185208,0.488949 v 0.116064 q 0,0.288924 -0.180269,0.464254 -0.177799,0.172861 -0.476602,0.172861 z m 0.913692,-0.758118 q 0,-0.185208 -0.113594,-0.30868 -0.111125,-0.125941 -0.296333,-0.125941 h -0.271638 v 0.945795 h 0.274108 q 0.123472,0 0.207433,-0.03704 0.08643,-0.03704 0.125941,-0.101248 0.04198,-0.06421 0.0568,-0.125941 0.01729,-0.06174 0.01729,-0.13335 z m 1.395235,0.511174 q 0.162983,0 0.162983,0.123472 0,0.123472 -0.162983,0.123472 h -0.570441 q -0.162983,0 -0.162983,-0.123472 0,-0.07161 0.04198,-0.09631 0.04198,-0.02716 0.121002,-0.02716 h 0.160514 v -0.945795 h -0.26423 v 0.229658 q 0,0.162983 -0.123472,0.162983 -0.123472,0 -0.123472,-0.162983 v -0.476602 h 1.274231 v 0.476602 q 0,0.07902 -0.02716,0.121002 -0.02469,0.04198 -0.09631,0.04198 -0.123472,0 -0.123472,-0.162983 v -0.229658 h -0.269169 v 0.945795 z"
       id="text1086"
       style="font-weight:bold;font-size:2.46944px;line-height:1.25;font-family:FreeMono;-inkscape-font-specification:'FreeMono, Bold';letter-spacing:0px;word-spacing:0px;stroke-width:0.264583"
       aria-label="DT" />
  </g>
</svg>
