<?xml version="1.0" encoding="UTF-8" standalone="no"?>
<svg
   width="15.996555"
   height="15.996555"
   viewBox="0 0 4.2324218 4.2324221"
   version="1.1"
   id="svg4268"
   xmlns="http://www.w3.org/2000/svg"
   xmlns:svg="http://www.w3.org/2000/svg"
   xmlns:rdf="http://www.w3.org/1999/02/22-rdf-syntax-ns#"
   xmlns:cc="http://creativecommons.org/ns#"
   xmlns:dc="http://purl.org/dc/elements/1.1/">
  <defs
     id="defs4262" />
  <metadata
     id="metadata4265">
    <rdf:RDF>
      <cc:Work
         rdf:about="">
        <dc:format>image/svg+xml</dc:format>
        <dc:type
           rdf:resource="http://purl.org/dc/dcmitype/StillImage" />
      </cc:Work>
    </rdf:RDF>
  </metadata>
  <g
     id="stereotype"
     style="display:inline"
     transform="translate(-51.59375,-33.740234)">
    <g
       id="rect4893-0">
      <path
         style="color:#000000;fill:#000000;fill-opacity:0;stroke-width:0.529167;stroke-linecap:square;stroke-linejoin:round;-inkscape-stroke:none"
         d="M 51.858334,34.004158 H 55.5625 v 3.704166 h -3.704166 z"
         id="path4326" />
      <path
         style="color:#000000;fill:#000000;stroke-linecap:square;stroke-linejoin:round;-inkscape-stroke:none"
         d="m 51.857422,33.740234 a 0.26460996,0.26460996 0 0 0 -0.263672,0.263672 v 3.705078 a 0.26460996,0.26460996 0 0 0 0.263672,0.263672 H 55.5625 a 0.26460996,0.26460996 0 0 0 0.263672,-0.263672 V 34.003906 A 0.26460996,0.26460996 0 0 0 55.5625,33.740234 Z m 0.265625,0.529297 h 3.175781 v 3.173828 h -3.175781 z"
         id="path4328" />
    </g>
    <path
       style="color:#000000;fill:#000000;-inkscape-stroke:none"
       d="m 52.123047,35.935547 v 0.371094 h 3.175781 v -0.371094 z"
       id="path4897-2" />
    <path
       style="color:#000000;fill:#000000;stroke-linecap:round;stroke-linejoin:round;-inkscape-stroke:none"
       d="m 52.822266,34.439453 -0.527344,0.529297 a 0.13230472,0.13230472 0 0 0 0,0.1875 l 0.527344,0.529297 a 0.1322915,0.1322915 0 0 0 0.1875,0 0.1322915,0.1322915 0 0 0 0,-0.1875 L 52.574219,35.0625 53.009766,34.626953 a 0.1322915,0.1322915 0 0 0 0,-0.1875 0.1322915,0.1322915 0 0 0 -0.1875,0 z"
       id="path1206-6" />
    <path
       style="color:#000000;fill:#000000;stroke-linecap:round;stroke-linejoin:round;-inkscape-stroke:none"
       d="m 53.445312,34.400391 a 0.1322915,0.1322915 0 0 0 -0.09375,0.03906 l -0.529296,0.529297 a 0.13230472,0.13230472 0 0 0 0,0.1875 l 0.529296,0.529297 a 0.1322915,0.1322915 0 0 0 0.1875,0 0.1322915,0.1322915 0 0 0 0,-0.1875 L 53.103516,35.0625 53.539062,34.626953 a 0.1322915,0.1322915 0 0 0 0,-0.1875 0.1322915,0.1322915 0 0 0 -0.09375,-0.03906 z"
       id="path1208-1" />
    <path
       style="color:#000000;fill:#000000;stroke-linecap:round;stroke-linejoin:round;-inkscape-stroke:none"
       d="m 54.503906,34.400391 a 0.1322915,0.1322915 0 0 0 -0.09375,0.03906 0.1322915,0.1322915 0 0 0 0,0.1875 l 0.435547,0.435547 -0.435547,0.435547 a 0.1322915,0.1322915 0 0 0 0,0.1875 0.1322915,0.1322915 0 0 0 0.1875,0 l 0.529297,-0.529297 a 0.13230472,0.13230472 0 0 0 0,-0.1875 l -0.529297,-0.529297 a 0.1322915,0.1322915 0 0 0 -0.09375,-0.03906 z"
       id="path1210-8" />
    <path
       style="color:#000000;fill:#000000;stroke-linecap:round;stroke-linejoin:round;-inkscape-stroke:none"
       d="m 53.880859,34.439453 a 0.1322915,0.1322915 0 0 0 0,0.1875 l 0.435547,0.435547 -0.435547,0.435547 a 0.1322915,0.1322915 0 0 0 0,0.1875 0.1322915,0.1322915 0 0 0 0.1875,0 l 0.529297,-0.529297 a 0.13230472,0.13230472 0 0 0 0,-0.1875 l -0.529297,-0.529297 a 0.1322915,0.1322915 0 0 0 -0.1875,0 z"
       id="path1212-7" />
  </g>
</svg>
