<?xml version="1.0" encoding="UTF-8"?>
<svg xmlns="http://www.w3.org/2000/svg" width="16px" height="16px" viewBox="0 0 16 16">
  <g fill="#2e3436">
    <path d="m 14.6560061499,0 a 1.34477,1.34468 0 0,0 -0.943058971522,0.397049799288 l -1.90597053211,1.89591291866 a 1.34477,1.34468 0 0,0 0,1.90583903658 a 1.34477,1.34468 0 0,0 1.90597053211,0 l 1.89604423758,-1.90583903658 a 1.34477,1.34468 0 0,0 0,-1.89591291866 a 1.34477,1.34468 0 0,0 -0.952985266054,-0.397049799288 z m -5.69805900726,5.70759099182 a 1.34477,1.34468 0 0,0 -0.952985266054,0.387124189586 l -1.90597053211,1.90583903658 a 1.34477,1.34468 0 0,0 0,1.90583903658 a 1.34477,1.34468 0 0,0 1.90597053211,0 l 1.89604423758,-1.90583903658 a 1.34477,1.34468 0 0,0 0,-1.90583903658 a 1.34477,1.34468 0 0,0 -0.943058971522,-0.387124189586 z m -5.7079802192,5.70759099182 a 1.34477,1.34468 0 0,0 -0.952987807348,0.387124189586 l -1.90597053211,1.90583954481 a 1.34477,1.34468 0 0,0 0,1.89591241043 a 1.34477,1.34468 0 0,0 1.90597053211,0 l 1.9059730734,-1.89591241043 a 1.34477,1.34468 0 0,0 0,-1.90583954481 a 1.34477,1.34468 0 0,0 -0.952985266054,-0.387124189586 z" fill="#2e3436" stroke-dasharray="2.68944511, 5.37886989" stroke-linecap="round"/>
  </g>
</svg>
