<?xml version="1.0" encoding="UTF-8" standalone="no"?>
<svg
   width="16.003937"
   height="15.996571"
   viewBox="0 0 4.2343748 4.2324261"
   version="1.1"
   id="svg4268"
   xmlns="http://www.w3.org/2000/svg"
   xmlns:svg="http://www.w3.org/2000/svg"
   xmlns:rdf="http://www.w3.org/1999/02/22-rdf-syntax-ns#"
   xmlns:cc="http://creativecommons.org/ns#"
   xmlns:dc="http://purl.org/dc/elements/1.1/">
  <defs
     id="defs4262" />
  <metadata
     id="metadata4265">
    <rdf:RDF>
      <cc:Work
         rdf:about="">
        <dc:format>image/svg+xml</dc:format>
        <dc:type
           rdf:resource="http://purl.org/dc/dcmitype/StillImage" />
      </cc:Work>
    </rdf:RDF>
  </metadata>
  <g
     id="sysml-constraint-property"
     style="display:inline"
     transform="translate(-77.787109,-19.050779)">
    <g
       id="rect4893-7-3-6">
      <path
         style="color:#000000;fill:#000000;fill-opacity:0;stroke-width:0.529167;stroke-linecap:square;stroke-linejoin:round;-inkscape-stroke:none"
         d="m 78.052078,19.314583 h 3.704167 v 3.704167 h -3.704167 z"
         id="path2718-5" />
      <path
         style="color:#000000;fill:#000000;stroke-linecap:square;stroke-linejoin:round;-inkscape-stroke:none"
         d="m 78.052734,19.050781 a 0.26460996,0.26460996 0 0 0 -0.265625,0.263672 v 3.705078 a 0.26460996,0.26460996 0 0 0 0.265625,0.263672 h 3.703125 a 0.26460996,0.26460996 0 0 0 0.265625,-0.263672 v -3.705078 a 0.26460996,0.26460996 0 0 0 -0.265625,-0.263672 z m 0.263672,0.529297 h 3.175781 v 3.173828 h -3.175781 z"
         id="path2720-5" />
    </g>
    <path
       d="m 71.143948,24.076508 c -0.296333,0 -0.48648,-0.160514 -0.48648,-0.407458 v -0.158044 c 0,-0.259291 0.182739,-0.449438 0.434622,-0.449438 0.07655,0 0.313619,0.02963 0.348191,0.190147 0.0099,0.05433 0.02223,0.13088 0.121002,0.13088 0.101247,0 0.123472,-0.07161 0.123472,-0.162983 v -0.207433 c 0,-0.09631 -0.02222,-0.162983 -0.123472,-0.162983 -0.04198,0 -0.07161,0.01482 -0.103716,0.05927 l -0.02469,-0.0099 c -0.13582,-0.06421 -0.22225,-0.08396 -0.350661,-0.08396 -0.380294,0 -0.671688,0.301271 -0.671688,0.696382 v 0.162983 c 0,0.375355 0.306211,0.649463 0.726016,0.649463 0.35066,0 0.585257,-0.175331 0.585257,-0.303742 0,-0.06667 -0.0568,-0.123472 -0.123472,-0.123472 -0.106186,0 -0.113594,0.18027 -0.454377,0.18027 z m 1.973084,-0.760588 c 0,-0.274108 -0.22225,-0.466724 -0.535869,-0.466724 h -0.575379 c -0.09631,0 -0.162983,0.02223 -0.162983,0.123472 0,0.101247 0.07161,0.123472 0.162983,0.123472 h 0.03704 v 0.945795 h -0.03704 c -0.09137,0 -0.162983,0.02223 -0.162983,0.123472 0,0.05186 0.02469,0.123472 0.162983,0.123472 h 0.52846 c 0.09631,0 0.162983,-0.02963 0.162983,-0.123472 0,-0.103716 -0.07655,-0.123472 -0.162983,-0.123472 h -0.244475 v -0.246944 h 0.242005 c 0.469194,0 0.585258,-0.276577 0.585258,-0.479071 z m -0.827263,-0.21978 h 0.291394 c 0.170391,0 0.274108,0.08643 0.274108,0.227188 0,0.138289 -0.103717,0.224719 -0.274108,0.224719 h -0.291394 z"
       id="text84-8-6-8"
       style="font-weight:bold;font-size:2.46944px;line-height:1.25;font-family:FreeMono;-inkscape-font-specification:'FreeMono, Bold';letter-spacing:0px;word-spacing:0px;stroke-width:0.237627"
       transform="scale(1.1134396,0.89811789)"
       aria-label="CP" />
  </g>
</svg>
