<?xml version="1.0" encoding="UTF-8"?>
<svg xmlns="http://www.w3.org/2000/svg" width="16px" height="16px" viewBox="0 0 16 16">
  <g fill="#2e3436">
    <path d="m 1.00221923928,1.00025054441 l 13.9965405552,0 l 0,13.9965436727 L 1.00221923928,14.9967942171 Z" fill="#2e3436" stroke-width="1.99950737" stroke-linecap="round" stroke-linejoin="round" fill-opacity="0"/>
    <path d="m 1.00369666966,7.55718825474E-06 a 0.999854,0.999854 0 0,0 -1.00368911247,1.00368906506 l 0,13.9926063776 a 0.999854,0.999854 0 0,0 1.00368911247,1.00368906506 l 13.9926070385,0 a 0.999854,0.999854 0 0,0 1.00368911247,-1.00368906506 L 15.9999928207,1.00369662225 A 0.999854,0.999854 0 0,0 14.9963037082,7.55718825474E-06 Z M 2.00000240885,2.00000609298 l 11.9999917816,0 l 0,11.9999874362 l -11.9999917816,0 z" fill="#2e3436" stroke-linecap="round" stroke-linejoin="round"/>
    <path d="m 6.77047394129,9.07807239083 q 0,-0.625175955549 0.466550596122,-0.625175955549 q 0.466550596122,0 0.466550596122,0.625175955549 l 0,1.41831419865 l -4.3949057086,0 q -0.615846635737,0 -0.615846635737,-0.466550574085 q 0,-0.466550574085 0.615846635737,-0.466550574085 l 0.139959133086,0 l 0,-3.57377543262 l -0.139959133086,0 q -0.615846635737,0 -0.615846635737,-0.466550574085 q 0,-0.270585125456 0.158625388956,-0.3639164004 q 0.158625388956,-0.102626616497 0.457217468186,-0.102626616497 l 4.18962601575,0 l 0,1.39965172226 q 0,0.625175955549 -0.466550596122,0.625175955549 q -0.466550596122,0 -0.466550596122,-0.625175955549 l 0,-0.466550574085 l -2.18345694099,0 l 0,1.31567246778 l 0.793134501969,0 l 0,-0.0653318924609 q 0,-0.625179734143 0.457221246781,-0.625179734143 q 0.466550596122,0 0.466550596122,0.625179734143 l 0,1.05440157685 q 0,0.615846606649 -0.457221246781,0.615846606649 q -0.466550596122,0 -0.466550596122,-0.615846606649 l 0,-0.0653318924609 l -0.793134501969,0 l 0,1.33433494417 l 2.38873663384,0 z m 6.30776995417,-4.02166353032 q 0.615846635737,0 0.615846635737,0.466550574085 q 0,0.466550574085 -0.569192331844,0.466550574085 l 0,4.5068765808 l -0.923771842902,0 l -2.41673223905,-3.6764171635 l 0,2.74331601533 l 0.326583905847,0 q 0.298584522042,0 0.457217468186,0.102626616497 q 0.158625388956,0.0932934890029 0.158625388956,0.3639164004 q 0,0.466550574085 -0.615846635737,0.466550574085 l -1.20370144486,0 q -0.625175985078,0 -0.625175985078,-0.466550574085 q 0,-0.466550574085 0.569188553249,-0.466550574085 l 0,-3.57377543262 l -0.139959133086,0 q -0.615846635737,0 -0.615846635737,-0.466550574085 q 0,-0.270585125456 0.158625388956,-0.3639164004 q 0.158625388956,-0.102626616497 0.457221246781,-0.102626616497 l 1.07306410392,0 l 2.40740288971,3.6577546871 l 0,-2.72465353893 l -0.326583905847,0 q -0.615846635737,0 -0.615846635737,-0.466550574085 q 0,-0.270585125456 0.158625388956,-0.3639164004 q 0.158625388956,-0.102626616497 0.457217468186,-0.102626616497 z" stroke-width="0.99975179"/>
  </g>
</svg>
