<?xml version="1.0" encoding="UTF-8" standalone="no"?>
<svg
   width="15.996564"
   height="15.996571"
   viewBox="0 0 4.2324241 4.2324261"
   version="1.1"
   id="svg4268"
   xmlns="http://www.w3.org/2000/svg"
   xmlns:svg="http://www.w3.org/2000/svg"
   xmlns:rdf="http://www.w3.org/1999/02/22-rdf-syntax-ns#"
   xmlns:cc="http://creativecommons.org/ns#"
   xmlns:dc="http://purl.org/dc/elements/1.1/">
  <defs
     id="defs4262" />
  <metadata
     id="metadata4265">
    <rdf:RDF>
      <cc:Work
         rdf:about="">
        <dc:format>image/svg+xml</dc:format>
        <dc:type
           rdf:resource="http://purl.org/dc/dcmitype/StillImage" />
      </cc:Work>
    </rdf:RDF>
  </metadata>
  <g
     id="c4-software-system"
     style="display:inline"
     transform="translate(-111.125,9.7890646)">
    <g
       id="rect1264">
      <path
         style="color:#000000;fill:#000000;fill-opacity:0;stroke-width:0.529167;stroke-linecap:round;stroke-linejoin:round;stroke-dasharray:1.05833, 1.05833;-inkscape-stroke:none"
         d="m 111.38958,-9.5249996 h 3.70417 v 3.7041666 h -3.70417 z"
         id="path1459" />
      <path
         style="color:#000000;fill:#000000;stroke-linecap:round;stroke-linejoin:round;stroke-dasharray:1.05833, 1.05833;-inkscape-stroke:none"
         d="m 111.38867,-9.7890625 a 0.2645835,0.2645835 0 0 0 -0.18554,0.076172 0.2645835,0.2645835 0 0 0 -0.0781,0.1875 0.2645835,0.2645835 0 0 0 0.26367,0.265625 h 1.0586 a 0.2645835,0.2645835 0 0 0 0.26562,-0.265625 0.2645835,0.2645835 0 0 0 -0.26562,-0.2636719 z m 2.11719,0 a 0.2645835,0.2645835 0 0 0 -0.26367,0.2636719 0.2645835,0.2645835 0 0 0 0.26367,0.265625 h 1.05859 a 0.2645835,0.2645835 0 0 0 0.26563,-0.265625 0.2645835,0.2645835 0 0 0 -0.26563,-0.2636719 z m 1.58789,0.5292969 a 0.2645835,0.2645835 0 0 0 -0.26367,0.2636718 V -7.9375 a 0.2645835,0.2645835 0 0 0 0.26367,0.2636719 0.2645835,0.2645835 0 0 0 0.26367,-0.2636719 v -1.0585938 a 0.2645835,0.2645835 0 0 0 -0.26367,-0.2636718 z m -3.70508,0.5292968 a 0.2645835,0.2645835 0 0 0 -0.26367,0.2636719 v 1.0585938 a 0.2645835,0.2645835 0 0 0 0.26367,0.2636719 0.2645835,0.2645835 0 0 0 0.26563,-0.2636719 v -1.0585938 a 0.2645835,0.2645835 0 0 0 -0.26563,-0.2636719 z m 3.70508,1.5859376 a 0.2645835,0.2645835 0 0 0 -0.26367,0.265625 v 1.0585937 a 0.2645835,0.2645835 0 0 0 0.26367,0.2636719 0.2645835,0.2645835 0 0 0 0.26367,-0.2636719 v -1.0585937 a 0.2645835,0.2645835 0 0 0 -0.26367,-0.265625 z m -3.70508,0.5292968 a 0.2645835,0.2645835 0 0 0 -0.26367,0.265625 v 0.5292969 a 0.26460996,0.26460996 0 0 0 0.26367,0.2636719 h 0.5293 a 0.2645835,0.2645835 0 0 0 0.26562,-0.2636719 0.2645835,0.2645835 0 0 0 -0.26562,-0.265625 h -0.26367 v -0.2636719 a 0.2645835,0.2645835 0 0 0 -0.26563,-0.265625 z m 1.58789,0.5292969 a 0.2645835,0.2645835 0 0 0 -0.26367,0.265625 0.2645835,0.2645835 0 0 0 0.26367,0.2636719 h 1.0586 a 0.2645835,0.2645835 0 0 0 0.26562,-0.2636719 0.2645835,0.2645835 0 0 0 -0.26562,-0.265625 z"
         id="path1461" />
    </g>
    <path
       d="m 102.81109,-9.423175 q 0.11453,0 0.14889,0.0649 0.0382,0.0649 0.0382,0.1870644 v 0.3359523 q 0,0.2557819 -0.18707,0.2557819 -0.0305,0 -0.0573,-0.00382 -0.0229,-0.00764 -0.042,-0.015271 -0.0153,-0.011453 -0.0305,-0.026723 -0.0153,-0.019088 -0.0229,-0.030541 -0.008,-0.011453 -0.0153,-0.034359 -0.008,-0.022906 -0.0115,-0.030541 0,-0.011453 -0.008,-0.034359 -0.004,-0.026723 -0.004,-0.030541 -0.0267,-0.1145292 -0.15271,-0.1832467 -0.12216,-0.072535 -0.30159,-0.072535 -0.17943,0 -0.30541,0.083988 -0.12598,0.083988 -0.12598,0.2061526 0,0.1297998 0.12598,0.2023349 0.12598,0.068718 0.29396,0.091623 0.16797,0.019088 0.37413,0.076353 0.20615,0.053447 0.3245,0.148888 0.22524,0.179429 0.22524,0.477205 0,0.2977759 -0.24051,0.4810226 -0.24052,0.1832467 -0.63373,0.1832467 -0.31687,0 -0.59555,-0.1488879 -0.0764,0.091623 -0.15271,0.091623 -0.1947,0 -0.1947,-0.2519642 v -0.2519643 q 0,-0.1259821 0.042,-0.1870643 0.042,-0.0649 0.14889,-0.0649 0.0344,0 0.0611,0.00764 0.0305,0.00764 0.0496,0.022906 0.0191,0.015271 0.0306,0.030541 0.0153,0.011453 0.0229,0.034359 0.0114,0.022906 0.0153,0.034359 0.004,0.011453 0.008,0.030541 0.008,0.019088 0.008,0.022906 0.0267,0.1030763 0.18325,0.1756115 0.15652,0.072535 0.3474,0.072535 0.21379,0 0.35886,-0.083988 0.14507,-0.083988 0.14507,-0.2061526 0,-0.1145292 -0.11453,-0.1832467 -0.11071,-0.068718 -0.2596,-0.091623 -0.14507,-0.022906 -0.34358,-0.068717 -0.1947,-0.045812 -0.31305,-0.1107116 -0.14507,-0.083988 -0.22906,-0.2252407 -0.084,-0.1412527 -0.084,-0.3054113 0,-0.2901406 0.2367,-0.4810226 0.23669,-0.1946996 0.59173,-0.1946996 0.29396,0 0.49629,0.1259821 0.0306,-0.072535 0.0611,-0.099259 0.0305,-0.026723 0.0878,-0.026723 z"
       id="text84-8-3"
       style="font-weight:bold;font-size:3.81764px;line-height:1.25;font-family:FreeMono;-inkscape-font-specification:'FreeMono, Bold';letter-spacing:0px;word-spacing:0px;stroke-width:0.238603"
       transform="scale(1.1088852,0.90180661)"
       aria-label="S" />
    <text
       xml:space="preserve"
       style="font-style:normal;font-weight:normal;font-size:10.5833px;line-height:1.25;font-family:sans-serif;letter-spacing:0px;word-spacing:0px;fill:#000000;fill-opacity:1;stroke:none;stroke-width:0.264583"
       x="117.475"
       y="-8.7312498"
       id="text1294"><tspan
         id="tspan1292"
         x="117.475"
         y="-8.7312498"
         style="stroke-width:0.264583" /></text>
  </g>
</svg>
