<?xml version="1.0" encoding="UTF-8"?>
<svg xmlns="http://www.w3.org/2000/svg" width="16px" height="16px" viewBox="0 0 16 16">
  <g fill="#2e3436">
    <path d="m 0.99676312827,0 a 1.00032,1.00032 0 0,0 -0.99676312827,0.996770147288 l 0,14.0064593274 a 1.00032,1.00032 0 0,0 0.99676312827,0.996770147288 l 14.0064744995,0 a 1.00032,1.00032 0 0,0 0.99676312827,-0.996770147288 l 0,-14.0064593274 a 1.00032,1.00032 0 0,0 -0.99676312827,-0.996770147288 z m 1.00413479778,2.0009233011 l 12.0055765735,0 l 0,12.0055360263 l -12.0055765735,0 z" fill="#2e3436" stroke-width="2.0004324" stroke-linecap="square" stroke-linejoin="round" fill-opacity="0"/>
    <path d="m 9.64437412376,12.7006916442 q -1.056227929,0 -1.056227929,-0.800173498763 q 0,-0.800169718422 1.056227929,-0.800169718422 l 0.240051802045,0 l 0,-2.25648571299 l -3.42472644136,0 l 0,2.25648571299 l 0.240051802045,0 q 1.056227929,0 1.056227929,0.800169718422 q 0,0.800173498763 -1.056227929,0.800173498763 l -1.93644307212,0 q -1.056227929,0 -1.056227929,-0.800173498763 q 0,-0.464097378189 0.272184720429,-0.624130565805 q 0.272184720429,-0.176050493641 0.784156618869,-0.176050493641 l 0.0960207208179,0 l 0,-6.12931304749 q -0.832166979277,-0.0800298250026 -0.832166979277,-0.800173498763 q 0,-0.464097378189 0.272184720429,-0.624134346147 q 0.272184720429,-0.176050493641 0.784156618869,-0.176050493641 l 1.61636140158,0 q 1.056227929,0 1.056227929,0.800169718422 q 0,0.800173498763 -1.056227929,0.800173498763 l -0.240051802045,0 l 0,2.27248411731 l 3.42472644136,0 l 0,-2.27248411731 l -0.240051802045,0 q -1.056227929,0 -1.056227929,-0.800173498763 q 0,-0.464097378189 0.272184720429,-0.624134346147 q 0.272184720429,-0.176050493641 0.784156618868,-0.176050493641 l 1.61636140158,0 q 1.056227929,0 1.056227929,0.800169718422 q 0,0.720155014785 -0.832204782711,0.800173498763 l 0,6.12931304749 l 0.0960207208179,0 q 1.056227929,0 1.056227929,0.800169718422 q 0,0.800173498763 -1.056227929,0.800173498763 z" stroke-width="1.00021431"/>
  </g>
</svg>
