<?xml version="1.0" encoding="UTF-8" standalone="no"?>
<svg
   width="16.003952"
   height="15.000015"
   viewBox="0 0 4.2343789 3.9687541"
   version="1.1"
   id="svg4268"
   xmlns="http://www.w3.org/2000/svg"
   xmlns:svg="http://www.w3.org/2000/svg"
   xmlns:rdf="http://www.w3.org/1999/02/22-rdf-syntax-ns#"
   xmlns:cc="http://creativecommons.org/ns#"
   xmlns:dc="http://purl.org/dc/elements/1.1/">
  <defs
     id="defs4262" />
  <metadata
     id="metadata4265">
    <rdf:RDF>
      <cc:Work
         rdf:about="">
        <dc:format>image/svg+xml</dc:format>
        <dc:type
           rdf:resource="http://purl.org/dc/dcmitype/StillImage" />
      </cc:Work>
    </rdf:RDF>
  </metadata>
  <g
     id="activity-partition"
     style="display:inline"
     transform="translate(-25.134764,-39.158201)">
    <g
       id="path1922">
      <path
         style="color:#000000;fill:#000000;fill-opacity:0;stroke-width:0.529167;stroke-linecap:round;stroke-linejoin:round;-inkscape-stroke:none"
         d="m 25.4,42.8625 v -3.439583 h 3.704167 V 42.8625"
         id="path4022" />
      <path
         style="color:#000000;fill:#000000;stroke-linecap:round;stroke-linejoin:round;-inkscape-stroke:none"
         d="m 25.400391,39.158203 a 0.26460996,0.26460996 0 0 0 -0.265625,0.265625 v 3.439453 a 0.2645835,0.2645835 0 0 0 0.265625,0.263672 0.2645835,0.2645835 0 0 0 0.263671,-0.263672 V 39.6875 h 3.175782 v 3.175781 a 0.2645835,0.2645835 0 0 0 0.263672,0.263672 0.2645835,0.2645835 0 0 0 0.265625,-0.263672 v -3.439453 a 0.26460996,0.26460996 0 0 0 -0.265625,-0.265625 z"
         id="path4024" />
    </g>
    <path
       style="color:#000000;fill:#000000;-inkscape-stroke:none"
       d="m 25.664062,40.349609 v 0.263672 h 3.175782 v -0.263672 z"
       id="path1924" />
    <path
       style="color:#000000;fill:#000000;stroke-linecap:round;-inkscape-stroke:none"
       d="M 27.251953,39.423828 A 0.26458335,0.26458335 0 0 0 26.988281,39.6875 v 3.175781 a 0.26458335,0.26458335 0 0 0 0.263672,0.263672 0.26458335,0.26458335 0 0 0 0.265625,-0.263672 V 39.6875 a 0.26458335,0.26458335 0 0 0 -0.265625,-0.263672 z"
       id="path4383" />
  </g>
</svg>
