<?xml version="1.0" encoding="UTF-8" standalone="no"?>
<svg
   xmlns:dc="http://purl.org/dc/elements/1.1/"
   xmlns:cc="http://creativecommons.org/ns#"
   xmlns:rdf="http://www.w3.org/1999/02/22-rdf-syntax-ns#"
   xmlns:svg="http://www.w3.org/2000/svg"
   xmlns="http://www.w3.org/2000/svg"
   id="svg4268"
   version="1.1"
   viewBox="0 0 4.2312031 4.2318952"
   height="15.994564"
   width="15.991949">
  <defs
     id="defs4262" />
  <metadata
     id="metadata4265">
    <rdf:RDF>
      <cc:Work
         rdf:about="">
        <dc:format>image/svg+xml</dc:format>
        <dc:type
           rdf:resource="http://purl.org/dc/dcmitype/StillImage" />
        <dc:title />
      </cc:Work>
    </rdf:RDF>
  </metadata>
  <path
     id="path4594-6-2-0"
     d="m 3.951187,4.489e-4 a 0.26460979,0.26460979 0 0 0 -0.05859,0.00977 L 2.041034,0.5395159 A 0.26492937,0.26492937 0 1 0 2.185565,1.0492815 L 3.580097,0.650844 3.181659,2.0453753 A 0.26492954,0.26492954 0 1 0 3.691425,2.1899065 L 4.220722,0.338344 A 0.26460979,0.26460979 0 0 0 3.951187,4.489e-4 Z"
     style="color:#000000;font-style:normal;font-variant:normal;font-weight:normal;font-stretch:normal;font-size:medium;line-height:normal;font-family:sans-serif;font-variant-ligatures:normal;font-variant-position:normal;font-variant-caps:normal;font-variant-numeric:normal;font-variant-alternates:normal;font-feature-settings:normal;text-indent:0;text-align:start;text-decoration:none;text-decoration-line:none;text-decoration-style:solid;text-decoration-color:#000000;letter-spacing:normal;word-spacing:normal;text-transform:none;writing-mode:lr-tb;direction:ltr;text-orientation:mixed;dominant-baseline:auto;baseline-shift:baseline;text-anchor:start;white-space:normal;shape-padding:0;clip-rule:nonzero;display:inline;overflow:visible;visibility:visible;isolation:auto;mix-blend-mode:normal;color-interpolation:sRGB;color-interpolation-filters:linearRGB;solid-color:#000000;solid-opacity:1;vector-effect:none;fill:#000000;fill-opacity:1;fill-rule:nonzero;stroke:none;stroke-width:0.529167;stroke-linecap:round;stroke-linejoin:round;stroke-miterlimit:4;stroke-dasharray:none;stroke-dashoffset:0;stroke-opacity:1;color-rendering:auto;image-rendering:auto;shape-rendering:auto;text-rendering:auto;enable-background:accumulate" />
  <g
     transform="translate(-93.662501,9.788145)"
     style="font-style:normal;font-variant:normal;font-weight:bold;font-stretch:normal;font-size:2.11667px;line-height:1.25;font-family:sans-serif;-inkscape-font-specification:'sans-serif Bold';letter-spacing:0px;word-spacing:0px;fill:#000000;fill-opacity:1;stroke:none;stroke-width:0.264583"
     id="text150-2"
     aria-label="T">
    <path
       id="path936"
       style="font-style:normal;font-variant:normal;font-weight:bold;font-stretch:normal;font-size:2.82223px;font-family:FreeMono;-inkscape-font-specification:'FreeMono Bold';stroke-width:0.264583"
       d="m 97.489112,-5.8391488 q 0.186267,0 0.186267,0.1411115 0,0.1411115 -0.186267,0.1411115 h -0.651935 q -0.186267,0 -0.186267,-0.1411115 0,-0.081845 0.04798,-0.110067 0.04798,-0.031045 0.13829,-0.031045 h 0.183445 v -1.0809141 h -0.301979 v 0.2624674 q 0,0.1862672 -0.141111,0.1862672 -0.141112,0 -0.141112,-0.1862672 v -0.5446904 h 1.456271 v 0.5446904 q 0,0.090311 -0.03105,0.1382893 -0.02822,0.047978 -0.110067,0.047978 -0.141111,0 -0.141111,-0.1862672 v -0.2624674 h -0.307623 v 1.0809141 z" />
  </g>
  <path
     id="path18"
     d="M 3.6953125 0.26367188 A 0.2645835 0.2645835 0 0 0 3.5175781 0.33984375 L 3.4453125 0.41210938 A 0.2645835 0.2645835 0 0 0 3.4453125 0.78710938 A 0.2645835 0.2645835 0 0 0 3.8183594 0.78710938 L 3.890625 0.71484375 A 0.2645835 0.2645835 0 0 0 3.890625 0.33984375 A 0.2645835 0.2645835 0 0 0 3.6953125 0.26367188 z M 2.875 1.0839844 A 0.2645835 0.2645835 0 0 0 2.6972656 1.1601562 L 2.3222656 1.5351562 A 0.2645835 0.2645835 0 0 0 2.3222656 1.9101562 A 0.2645835 0.2645835 0 0 0 2.6972656 1.9101562 L 3.0703125 1.5351562 A 0.2645835 0.2645835 0 0 0 3.0703125 1.1601562 A 0.2645835 0.2645835 0 0 0 2.875 1.0839844 z M 1.7519531 2.2070312 A 0.2645835 0.2645835 0 0 0 1.5742188 2.2832031 L 1.1992188 2.6582031 A 0.2645835 0.2645835 0 0 0 1.1992188 3.03125 A 0.2645835 0.2645835 0 0 0 1.5742188 3.03125 L 1.9492188 2.6582031 A 0.2645835 0.2645835 0 0 0 1.9492188 2.2832031 A 0.2645835 0.2645835 0 0 0 1.7519531 2.2070312 z M 0.63085938 3.328125 A 0.2645835 0.2645835 0 0 0 0.45117188 3.40625 L 0.078125 3.7792969 A 0.2645835 0.2645835 0 0 0 0.078125 4.1542969 A 0.2645835 0.2645835 0 0 0 0.45117188 4.1542969 L 0.82617188 3.7792969 A 0.2645835 0.2645835 0 0 0 0.82617188 3.40625 A 0.2645835 0.2645835 0 0 0 0.63085938 3.328125 z "
     style="color:#000000;font-style:normal;font-variant:normal;font-weight:normal;font-stretch:normal;font-size:medium;line-height:normal;font-family:sans-serif;font-variant-ligatures:normal;font-variant-position:normal;font-variant-caps:normal;font-variant-numeric:normal;font-variant-alternates:normal;font-variant-east-asian:normal;font-feature-settings:normal;font-variation-settings:normal;text-indent:0;text-align:start;text-decoration:none;text-decoration-line:none;text-decoration-style:solid;text-decoration-color:#000000;letter-spacing:normal;word-spacing:normal;text-transform:none;writing-mode:lr-tb;direction:ltr;text-orientation:mixed;dominant-baseline:auto;baseline-shift:baseline;text-anchor:start;white-space:normal;shape-padding:0;shape-margin:0;inline-size:0;clip-rule:nonzero;display:inline;overflow:visible;visibility:visible;isolation:auto;mix-blend-mode:normal;color-interpolation:sRGB;color-interpolation-filters:linearRGB;solid-color:#000000;solid-opacity:1;vector-effect:none;fill:#000000;fill-opacity:1;fill-rule:nonzero;stroke:none;stroke-width:0.529167;stroke-linecap:round;stroke-linejoin:miter;stroke-miterlimit:4;stroke-dasharray:0.529167, 1.05833000000000022;stroke-dashoffset:0;stroke-opacity:1;color-rendering:auto;image-rendering:auto;shape-rendering:auto;text-rendering:auto;enable-background:accumulate;stop-color:#000000;stop-opacity:1;opacity:1" />
</svg>
