<?xml version="1.0" encoding="UTF-8" standalone="no"?>
<svg
   xmlns:dc="http://purl.org/dc/elements/1.1/"
   xmlns:cc="http://creativecommons.org/ns#"
   xmlns:rdf="http://www.w3.org/1999/02/22-rdf-syntax-ns#"
   xmlns:svg="http://www.w3.org/2000/svg"
   xmlns="http://www.w3.org/2000/svg"
   width="15.996548"
   height="15.996555"
   viewBox="0 0 4.2324198 4.2324221"
   version="1.1"
   id="svg4268">
  <defs
     id="defs4262" />
  <metadata
     id="metadata4265">
    <rdf:RDF>
      <cc:Work
         rdf:about="">
        <dc:format>image/svg+xml</dc:format>
        <dc:type
           rdf:resource="http://purl.org/dc/dcmitype/StillImage" />
        <dc:title />
      </cc:Work>
    </rdf:RDF>
  </metadata>
  <path
     id="path675"
     d="M 0.26367,0 A 0.26460982,0.26460982 0 0 0 0,0.263672 V 3.96875 A 0.26460982,0.26460982 0 0 0 0.26367,4.232422 H 3.96875 A 0.26460982,0.26460982 0 0 0 4.23242,3.96875 V 0.263672 A 0.26460982,0.26460982 0 0 0 3.96875,0 Z M 0.52929,0.529297 H 3.70508 V 3.705078 H 0.52929 Z"
     style="color:#000000;font-style:normal;font-variant:normal;font-weight:normal;font-stretch:normal;font-size:medium;line-height:normal;font-family:sans-serif;font-variant-ligatures:normal;font-variant-position:normal;font-variant-caps:normal;font-variant-numeric:normal;font-variant-alternates:normal;font-feature-settings:normal;text-indent:0;text-align:start;text-decoration:none;text-decoration-line:none;text-decoration-style:solid;text-decoration-color:#000000;letter-spacing:normal;word-spacing:normal;text-transform:none;writing-mode:lr-tb;direction:ltr;text-orientation:mixed;dominant-baseline:auto;baseline-shift:baseline;text-anchor:start;white-space:normal;shape-padding:0;clip-rule:nonzero;display:inline;overflow:visible;visibility:visible;isolation:auto;mix-blend-mode:normal;color-interpolation:sRGB;color-interpolation-filters:linearRGB;solid-color:#000000;solid-opacity:1;vector-effect:none;fill:#000000;fill-opacity:1;fill-rule:nonzero;stroke:none;stroke-width:0.529167;stroke-linecap:square;stroke-linejoin:round;stroke-miterlimit:4;stroke-dasharray:none;stroke-dashoffset:0;stroke-opacity:1;color-rendering:auto;image-rendering:auto;shape-rendering:auto;text-rendering:auto;enable-background:accumulate" />
  <g
     aria-label="C"
     id="text679"
     style="font-style:normal;font-variant:normal;font-weight:bold;font-stretch:normal;font-size:2.82223px;line-height:1.25;font-family:sans-serif;-inkscape-font-specification:'sans-serif Bold';letter-spacing:0px;word-spacing:0px;fill:#000000;fill-opacity:1;stroke:none;stroke-width:0.264583"
     transform="translate(-126.99909,-33.866536)">
    <path
       d="m 129.27935,36.862138 q 0.19896,0 0.33866,-0.04657 0.14394,-0.0508 0.2032,-0.105833 0.0593,-0.05927 0.11854,-0.105834 0.0635,-0.0508 0.11853,-0.0508 0.0847,0 0.14817,0.0635 0.0635,0.0635 0.0635,0.148167 0,0.182033 -0.2921,0.351366 -0.28787,0.169334 -0.7112,0.169334 -0.53764,0 -0.89324,-0.313267 -0.35136,-0.3175 -0.35136,-0.800099 v -0.2794 q 0,-0.508 0.3302,-0.850899 0.3302,-0.3429 0.82126,-0.3429 0.29634,0 0.60114,0.143933 l 0.0423,0.01693 q 0.072,-0.1016 0.1778,-0.1016 0.12277,0 0.1651,0.07197 0.0466,0.07197 0.0466,0.207433 v 0.3556 q 0,0.2794 -0.21167,0.2794 -0.0762,0 -0.127,-0.04233 -0.0466,-0.04233 -0.0593,-0.0762 -0.008,-0.0381 -0.0212,-0.105834 -0.0254,-0.126999 -0.15664,-0.203199 -0.127,-0.08043 -0.23706,-0.1016 -0.11007,-0.02117 -0.2032,-0.02117 -0.32174,0 -0.5334,0.220133 -0.21167,0.2159 -0.21167,0.550333 v 0.270933 q 0,0.3175 0.22437,0.508 0.2286,0.1905 0.6096,0.1905 z"
       style="font-style:normal;font-variant:normal;font-weight:bold;font-stretch:normal;font-size:4.23333px;font-family:FreeMono;-inkscape-font-specification:'FreeMono Bold';stroke-width:0.264583"
       id="path1423" />
  </g>
</svg>
