<?xml version="1.0" encoding="UTF-8"?>
<svg xmlns="http://www.w3.org/2000/svg" width="16px" height="16px" viewBox="0 0 16 16">
  <g fill="#2e3436">
    <path d="m 6.87232260746,11.2855697493 l -4.79408465884,3.00061726964 a 1.59961,1.00119 0 0,0 0,1.41901067522 a 1.59961,1.00119 0 0,0 2.25534813476,0 l 3.67231426433,-2.29850213963 l 3.66051296433,2.29850213963 a 1.59961,1.00119 0 0,0 2.2671554805,0 a 1.59961,1.00119 0 0,0 0,-1.41901067522 l -4.79409070458,-3.00061726964 a 1.59977,1.00129 0 0,0 -2.2671554805,0 z" fill="#2e3436" stroke-linecap="round" stroke-linejoin="round"/>
    <path d="m 6.39999854902,6.98419269408 l 0,5.01088239287 l 3.19999625164,0 l 0,-5.01088239287 z" fill="#2e3436"/>
    <path d="m 1.60591389019,7.98932525569 a 1.59961,1.00119 0 0,0 -1.60590179869,0.997742354016 a 1.59961,1.00119 0 0,0 1.60590179869,1.00513256161 l 12.7999789608,0 a 1.59961,1.00119 0 0,0 1.59409445295,-1.00513256161 a 1.59961,1.00119 0 0,0 -1.59409445295,-0.997742354016 z" fill="#2e3436" stroke-linecap="round"/>
    <path d="m 12.8358060631,4.00400539413 a 4.79881,3.00357 0 0,1 -4.79881243373,3.00357259588 a 4.79881,3.00357 0 0,1 -4.79881243373,-3.00357259588 a 4.79881,3.00357 0 0,1 4.79881243373,-3.00357259588 a 4.79881,3.00357 0 0,1 4.79881243373,3.00357259588 z" fill="#2e3436" stroke-width="2.53101646" stroke-linecap="round" stroke-linejoin="round" fill-opacity="0"/>
    <path d="m 8.04132843069,0 c -3.51479834729,0 -6.39999250327,1.80584055334 -6.39999250327,4.00574983126 c 0,2.19990927792 2.88519415598,4.00574983126 6.39999250327,4.00574983126 c 3.51479834729,0 6.38818515753,-1.80584055334 6.38817911178,-4.00574983126 c 0,-2.19990927792 -2.87338076449,-4.00574983126 -6.38817911178,-4.00574983126 z m 0,2.00287491563 c 1.78581721187,0 3.19999625164,0.885133450859 3.19999625164,2.00287491563 c 0,1.11774146477 -1.41417903976,2.00287491563 -3.19999625164,2.00287491563 c -1.78581721187,0 -3.19999625164,-0.885133450859 -3.19999625164,-2.00287491563 c 0,-1.11774146477 1.41417903976,-2.00287491563 3.19999625164,-2.00287491563 z" fill="#2e3436" stroke-linecap="round" stroke-linejoin="round"/>
  </g>
</svg>
