<?xml version="1.0" encoding="UTF-8"?>
<svg xmlns="http://www.w3.org/2000/svg" width="16px" height="16px" viewBox="0 0 16 16">
  <g fill="#2e3436">
    <path d="m 1.00121132404,0.998262438652 l 13.9965578862,0 l 0,14.0030022024 l -13.9965578862,0 z" fill="#2e3436" stroke-width="1.9999696" stroke-linecap="round" stroke-linejoin="round" fill-opacity="0"/>
    <path d="m 1.00369008431,7.56067544216E-06 a 0.999855,1.00032 0 0,0 -1.00369008431,0.996769205256 l 0,14.0064460901 a 0.999855,1.00032 0 0,0 1.00369008431,0.996769205256 l 13.9926205871,0 a 0.999855,1.00032 0 0,0 1.00369008431,-0.996769205256 l 0,-14.0064460901 a 0.999855,1.00032 0 0,0 -1.00369008431,-0.996769205256 z m 0.996310482483,2.00092141006 l 11.9999996221,0 l 0,11.9981416805 l -11.9999996221,0 z" fill="#2e3436" stroke-linecap="round" stroke-linejoin="round"/>
    <path d="m 6.44289116778,9.5652562014 q 0.61584723204,0 0.61584723204,0.466765858003 q 0,0.466765858003 -0.61584723204,0.466765858003 l -2.15546720144,0 q -0.61584723204,0 -0.61584723204,-0.466765858003 q 0,-0.270709983572 0.158625542548,-0.364084325064 q 0.158625542548,-0.102673972264 0.457221689492,-0.102673972264 l 0.606517873666,0 l 0,-3.57542828686 l -0.998422718745,0 l 0,0.868184798312 q 0,0.61613078135 -0.466551047867,0.61613078135 q -0.466551047867,0 -0.466551047867,-0.61613078135 L 2.96241702553,5.05629619853 l 4.81480666284,0 l 0,1.80171651432 q 0,0.298722286019 -0.102626720714,0.457432204191 q -0.0932935837423,0.158698577159 -0.363916769956,0.158698577159 q -0.466551047867,0 -0.466551047867,-0.61613078135 l 0,-0.868184798312 l -1.0170776569,0 l 0,3.57542828686 z m 5.92520057506,-0.485436945963 q 0,-0.625464435162 0.466551047867,-0.625464435162 q 0.466551047867,0 0.466551047867,0.625464435162 l 0,1.41896866197 l -4.39490996404,0 q -0.61584723204,0 -0.61584723204,-0.466765858003 q 0,-0.466765858003 0.61584723204,-0.466765858003 l 0.139959268603,0 l 0,-3.57542828686 l -0.139959268603,0 q -0.61584723204,0 -0.61584723204,-0.466765858003 q 0,-0.270709983572 0.158625542548,-0.364084325064 q 0.158625542548,-0.102673972264 0.457221689492,-0.102673972264 l 4.18962629383,0 l 0,1.40029757401 q 0,0.625468215499 -0.466551047867,0.625468215499 q -0.466551047867,0 -0.466551047867,-0.625468215499 l 0,-0.466765858003 l -2.18345905516,0 l 0,1.31627956835 l 0.793139048532,0 l 0,-0.0653620390442 q 0,-0.625464435162 0.457217910894,-0.625464435162 q 0.466551047867,0 0.466551047867,0.625464435162 l 0,1.05489189758 q 0,0.61613078135 -0.457217910894,0.61613078135 q -0.466551047867,0 -0.466551047867,-0.61613078135 l 0,-0.0653620390442 l -0.793139048532,0 l 0,1.33495065632 l 2.38874272537,0 z" stroke-width="0.99998291"/>
  </g>
</svg>
