<?xml version="1.0" encoding="UTF-8" standalone="no"?>
<svg
   width="15.996548"
   height="15.996555"
   viewBox="0 0 4.2324198 4.2324221"
   version="1.1"
   id="svg4268"
   xmlns="http://www.w3.org/2000/svg"
   xmlns:svg="http://www.w3.org/2000/svg"
   xmlns:rdf="http://www.w3.org/1999/02/22-rdf-syntax-ns#"
   xmlns:cc="http://creativecommons.org/ns#"
   xmlns:dc="http://purl.org/dc/elements/1.1/">
  <defs
     id="defs4262" />
  <metadata
     id="metadata4265">
    <rdf:RDF>
      <cc:Work
         rdf:about="">
        <dc:format>image/svg+xml</dc:format>
        <dc:type
           rdf:resource="http://purl.org/dc/dcmitype/StillImage" />
        <dc:title />
      </cc:Work>
    </rdf:RDF>
  </metadata>
  <g
     id="control-action"
     style="display:inline"
     transform="translate(-119.0625,-44.714844)">
    <g
       id="rect610">
      <path
         style="color:#000000;fill:#000000;fill-opacity:0;stroke-width:0.529167;stroke-linecap:round;stroke-linejoin:round;-inkscape-stroke:none"
         d="m 119.32708,44.979168 h 3.70417 v 3.704167 h -3.70417 z"
         id="path2186" />
      <path
         style="color:#000000;fill:#000000;stroke-linecap:round;stroke-linejoin:round;-inkscape-stroke:none"
         d="m 119.32617,44.714844 a 0.26460996,0.26460996 0 0 0 -0.26367,0.263672 v 3.705078 a 0.26460996,0.26460996 0 0 0 0.26367,0.263672 h 3.70508 a 0.26460996,0.26460996 0 0 0 0.26367,-0.263672 v -3.705078 a 0.26460996,0.26460996 0 0 0 -0.26367,-0.263672 z m 0.26563,0.529297 h 3.17578 v 3.173828 h -3.17578 z"
         id="path2188" />
    </g>
    <g
       aria-label="CA"
       id="text614"
       style="font-weight:bold;font-size:2.46944px;line-height:1.25;font-family:FreeMono;-inkscape-font-specification:'FreeMono, Bold';letter-spacing:0px;word-spacing:0px;display:inline;stroke-width:0.264583">
      <path
         d="m 120.9901,47.435815 q -0.0844,0.04341 -0.17725,0.06511 -0.0928,0.0217 -0.19533,0.0217 -0.36415,0 -0.55587,-0.239951 -0.19172,-0.23995 -0.19172,-0.693324 0,-0.454579 0.19172,-0.69453 0.19172,-0.23995 0.55587,-0.23995 0.10249,0 0.19654,0.0217 0.094,0.0217 0.17604,0.06511 v 0.395496 q -0.0916,-0.0844 -0.17845,-0.122989 -0.0856,-0.03979 -0.17725,-0.03979 -0.19534,0 -0.29542,0.155546 -0.0989,0.15434 -0.0989,0.459402 0,0.303857 0.0989,0.459403 0.10008,0.15434 0.29542,0.15434 0.0916,0 0.17725,-0.03859 0.0868,-0.03979 0.17845,-0.124196 z"
         id="path1619" />
      <path
         d="m 121.91614,46.012993 -0.1676,0.736732 h 0.33641 z m -0.21704,-0.325561 h 0.43529 l 0.48593,1.800231 h -0.35571 l -0.11093,-0.444933 h -0.47628 l -0.10852,0.444933 h -0.35571 z"
         id="path1621" />
    </g>
  </g>
</svg>
