<?xml version="1.0" encoding="UTF-8" standalone="no"?>
<svg
   width="16.000013"
   height="16"
   viewBox="0 0 4.2333368 4.2333335"
   version="1.1"
   id="svg4268"
   xmlns="http://www.w3.org/2000/svg"
   xmlns:svg="http://www.w3.org/2000/svg"
   xmlns:rdf="http://www.w3.org/1999/02/22-rdf-syntax-ns#"
   xmlns:cc="http://creativecommons.org/ns#"
   xmlns:dc="http://purl.org/dc/elements/1.1/">
  <defs
     id="defs4262" />
  <metadata
     id="metadata4265">
    <rdf:RDF>
      <cc:Work
         rdf:about="">
        <dc:format>image/svg+xml</dc:format>
        <dc:type
           rdf:resource="http://purl.org/dc/dcmitype/StillImage" />
        <dc:title />
      </cc:Work>
    </rdf:RDF>
  </metadata>
  <g
     id="c4-software-system"
     style="display:inline"
     transform="translate(-111.125,9.7895831)">
    <path
       id="rect1264"
       style="fill-opacity:0;stroke:#000000;stroke-width:0.529167;stroke-linecap:round;stroke-linejoin:round;stroke-dasharray:1.05833, 1.05833"
       d="m 111.38958,-9.5249996 h 3.70417 v 3.7041666 h -3.70417 z" />
    <g
       aria-label="S"
       transform="scale(1.1088852,0.90180661)"
       id="text84-8-3"
       style="font-weight:bold;font-size:3.81764px;line-height:1.25;font-family:FreeMono;-inkscape-font-specification:'FreeMono, Bold';letter-spacing:0px;word-spacing:0px;display:inline;stroke-width:0.238603">
      <path
         d="m 101.97512,-8.3650177 q -0.41569,-0.1584469 -0.56295,-0.3318066 -0.14727,-0.1752237 -0.14727,-0.4697487 0,-0.3784086 0.24233,-0.5946421 0.24233,-0.2162336 0.66548,-0.2162336 0.192,0 0.384,0.044738 0.192,0.042874 0.38028,0.1286217 v 0.5368556 q -0.17709,-0.1248935 -0.35977,-0.1901364 -0.18268,-0.065243 -0.36163,-0.065243 -0.19946,0 -0.30571,0.080156 -0.10626,0.080156 -0.10626,0.2292821 0,0.1155731 0.0764,0.1920004 0.0783,0.074563 0.32435,0.1659033 l 0.23674,0.089476 q 0.33553,0.1230294 0.49398,0.3262143 0.15845,0.203185 0.15845,0.5126226 0,0.4212826 -0.24979,0.6300597 -0.24792,0.2069132 -0.75122,0.2069132 -0.20692,0 -0.41569,-0.05033 -0.20692,-0.048466 -0.40078,-0.1453984 v -0.568545 q 0.21996,0.1565829 0.42501,0.2330103 0.20691,0.076427 0.40823,0.076427 0.20319,0 0.31503,-0.09134 0.11185,-0.093204 0.11185,-0.2591074 0,-0.1248935 -0.0746,-0.2180976 -0.0746,-0.095068 -0.21623,-0.1491266 z"
         id="path1573" />
    </g>
    <g
       id="text1294"
       style="font-size:10.5833px;line-height:1.25;letter-spacing:0px;word-spacing:0px;stroke-width:0.264583" />
  </g>
</svg>
