<?xml version="1.0" encoding="UTF-8" standalone="no"?>
<svg
   xmlns:dc="http://purl.org/dc/elements/1.1/"
   xmlns:cc="http://creativecommons.org/ns#"
   xmlns:rdf="http://www.w3.org/1999/02/22-rdf-syntax-ns#"
   xmlns:svg="http://www.w3.org/2000/svg"
   xmlns="http://www.w3.org/2000/svg"
   width="10.070957"
   height="15.570773"
   viewBox="0 0 2.6646074 4.1197672"
   version="1.1"
   id="svg4268">
  <defs
     id="defs4262" />
  <metadata
     id="metadata4265">
    <rdf:RDF>
      <cc:Work
         rdf:about="">
        <dc:format>image/svg+xml</dc:format>
        <dc:type
           rdf:resource="http://purl.org/dc/dcmitype/StillImage" />
        <dc:title />
      </cc:Work>
    </rdf:RDF>
  </metadata>
  <path
     id="line1948"
     style="color:#000000;font-style:normal;font-variant:normal;font-weight:normal;font-stretch:normal;font-size:medium;line-height:normal;font-family:sans-serif;font-variant-ligatures:normal;font-variant-position:normal;font-variant-caps:normal;font-variant-numeric:normal;font-variant-alternates:normal;font-variant-east-asian:normal;font-feature-settings:normal;font-variation-settings:normal;text-indent:0;text-align:start;text-decoration:none;text-decoration-line:none;text-decoration-style:solid;text-decoration-color:#000000;letter-spacing:normal;word-spacing:normal;text-transform:none;writing-mode:lr-tb;direction:ltr;text-orientation:mixed;dominant-baseline:auto;baseline-shift:baseline;text-anchor:start;white-space:normal;shape-padding:0;shape-margin:0;inline-size:0;clip-rule:nonzero;display:inline;overflow:visible;visibility:visible;isolation:auto;mix-blend-mode:normal;color-interpolation:sRGB;color-interpolation-filters:linearRGB;solid-color:#000000;solid-opacity:1;vector-effect:none;fill:#000000;fill-opacity:1;fill-rule:nonzero;stroke:none;stroke-width:0.421561;stroke-linecap:butt;stroke-linejoin:miter;stroke-miterlimit:10;stroke-dasharray:none;stroke-dashoffset:0;stroke-opacity:1;color-rendering:auto;image-rendering:auto;shape-rendering:auto;text-rendering:auto;enable-background:accumulate;stop-color:#000000"
     d="m 1.110387,0.07282 c 0,0.199885 0,0.399771 0,0.599656 -0.722835,0.454747 -1.153672,1.317123 -1.106935,2.167145 0,0.338096 0,0.676191 0,1.014288 0.109232,-0.100012 0.215051,-0.203444 0.316613,-0.311242 0,0.192367 0,0.384733 0,0.5771 0.148414,0 0.296829,0 0.445245,0 0.004,-0.272475 -0.0063,-0.545086 0.0042,-0.817447 0.369314,-0.09819 0.76895,-0.09664 1.130299,0.0013 0,0.272035 0,0.544069 0,0.816103 0.148594,0 0.297188,0 0.445781,0 0,-0.192008 0,-0.384017 0,-0.576026 0.101972,0.10843 0.208822,0.211896 0.317956,0.313122 C 2.641676,3.316133 2.703506,2.77033 2.615746,2.233743 2.490821,1.599766 2.101295,1.020996 1.555806,0.673238 c 0,-0.224413 0,-0.448826 0,-0.673238 -0.148504,0 -0.297009,0 -0.445513,0 0,0.02426 0,0.04852 0,0.07278 z m 0.25082,1.01563 C 1.847562,1.412217 2.16615,1.988033 2.211952,2.552279 2.230792,2.68208 2.202652,2.811808 2.218452,2.94113 1.667442,2.730444 1.041093,2.735303 0.485005,2.92449 0.410665,2.95941 0.462255,2.809603 0.447335,2.759071 0.448535,2.383155 0.534165,2.003075 0.739127,1.684269 0.889481,1.439821 1.093771,1.228487 1.333339,1.070468 c 0.0093,0.006 0.01862,0.01199 0.02793,0.01799 z" />
</svg>
