<?xml version="1.0" encoding="UTF-8" standalone="no"?>
<svg
   width="16.003952"
   height="16.003952"
   viewBox="0 0 4.2343789 4.2343791"
   version="1.1"
   id="svg4268"
   xmlns="http://www.w3.org/2000/svg"
   xmlns:svg="http://www.w3.org/2000/svg"
   xmlns:rdf="http://www.w3.org/1999/02/22-rdf-syntax-ns#"
   xmlns:cc="http://creativecommons.org/ns#"
   xmlns:dc="http://purl.org/dc/elements/1.1/">
  <defs
     id="defs4262" />
  <metadata
     id="metadata4265">
    <rdf:RDF>
      <cc:Work
         rdf:about="">
        <dc:format>image/svg+xml</dc:format>
        <dc:type
           rdf:resource="http://purl.org/dc/dcmitype/StillImage" />
      </cc:Work>
    </rdf:RDF>
  </metadata>
  <g
     id="interface-block"
     style="display:inline"
     transform="translate(-69.91129,-10.064569)">
    <g
       id="g2"
       transform="translate(0.06168302,-44.968632)">
      <path
         style="color:#000000;fill:#000000;fill-opacity:0;stroke-width:0.529167;stroke-linecap:round;stroke-linejoin:round;-inkscape-stroke:none"
         d="m 70.114578,55.297916 h 3.704167 v 3.704167 h -3.704167 z"
         id="path1" />
      <path
         style="color:#000000;fill:#000000;stroke-linecap:round;stroke-linejoin:round;-inkscape-stroke:none"
         d="m 70.115234,55.033203 a 0.26460996,0.26460996 0 0 0 -0.265625,0.265625 v 3.703125 a 0.26460996,0.26460996 0 0 0 0.265625,0.265625 h 3.703125 a 0.26460996,0.26460996 0 0 0 0.265625,-0.265625 v -3.703125 a 0.26460996,0.26460996 0 0 0 -0.265625,-0.265625 z m 0.263672,0.529297 h 3.175781 v 3.175781 h -3.175781 z"
         id="path2" />
    </g>
    <path
       d="m 71.609483,12.638374 q 0.07902,0 0.121003,0.02716 0.04198,0.02469 0.04198,0.09631 0,0.123472 -0.162983,0.123472 h -0.745771 q -0.162983,0 -0.162983,-0.123472 0,-0.07161 0.04198,-0.09631 0.04198,-0.02716 0.121002,-0.02716 h 0.249414 v -0.945796 h -0.249414 q -0.162983,0 -0.162983,-0.123472 0,-0.07161 0.04198,-0.09631 0.04198,-0.02716 0.121002,-0.02716 h 0.745771 q 0.07902,0 0.121003,0.02716 0.04198,0.0247 0.04198,0.09631 0,0.123472 -0.162983,0.123472 H 71.36007 v 0.945796 z m 0.563033,0.246944 q -0.162983,0 -0.162983,-0.123472 0,-0.123472 0.162983,-0.123472 h 0.03704 v -0.945796 h -0.03704 q -0.162983,0 -0.162983,-0.123472 0,-0.07161 0.04198,-0.09631 0.04445,-0.02716 0.121002,-0.02716 h 0.624769 q 0.209902,0 0.345721,0.116064 0.138289,0.116064 0.138289,0.291394 0,0.158044 -0.155575,0.279047 0.261761,0.13088 0.261761,0.358068 0,0.1778 -0.13335,0.286455 -0.13335,0.108656 -0.35313,0.108656 z m 0.283986,-0.844549 h 0.279047 q 0.133349,0 0.214841,-0.05186 0.08396,-0.05433 0.08396,-0.138289 0,-0.07408 -0.06668,-0.116063 -0.06668,-0.04198 -0.182739,-0.04198 h -0.328435 z m 0.684035,0.464255 q 0,-0.09878 -0.09631,-0.158044 -0.09631,-0.05927 -0.254353,-0.05927 H 72.4565 v 0.350661 h 0.432152 q 0.251883,0 0.251883,-0.13335 z"
       id="text548-2-3"
       style="font-weight:bold;font-size:2.46944px;line-height:1.25;font-family:FreeMono;-inkscape-font-specification:'FreeMono, Bold';letter-spacing:0px;word-spacing:0px;stroke-width:0.264583"
       aria-label="IB" />
  </g>
</svg>
