<?xml version="1.0" encoding="UTF-8"?>
<svg xmlns="http://www.w3.org/2000/svg" width="16px" height="16px" viewBox="0 0 16 16">
  <g fill="#2e3436">
    <path d="m 1.0002022718,1.0002439321 l 14.0030208222,0 l 0,13.9965568945 l -14.0030208222,0 z" fill="#2e3436" stroke-width="1.99997005" stroke-linecap="round" stroke-linejoin="round" fill-opacity="0"/>
    <path d="m 0.996762162694,0 a 1.00032,0.999855 0 0,0 -0.996762162694,1.0036900132 l 0,13.9926195957 a 1.00032,0.999855 0 0,0 0.996762162694,1.0036900132 l 14.0064609313,0 a 1.00032,0.999855 0 0,0 0.996762162694,-1.0036900132 l 0,-13.9926195957 a 1.00032,0.999855 0 0,0 -0.996762162694,-1.0036900132 z m 1.00417162846,2.00000042509 l 12.0055271401,0 l 0,11.999998772 l -12.0055271401,0 z" fill="#2e3436" stroke-linecap="round" stroke-linejoin="round"/>
    <path d="m 5.65088955291,9.69392815483 q 0.438746222939,0 0.746806103236,-0.102626713444 q 0.317548532887,-0.111959849754 0.448121465338,-0.233290621797 q 0.130799752832,-0.130626122376 0.261221471696,-0.233290621797 q 0.139872568057,-0.111959849754 0.261599505664,-0.111959849754 q 0.186748780055,0 0.326621348112,0.139959258687 q 0.139872568057,0.139959258687 0.139872568057,0.326584198929 q 0,0.401234175026 -0.644132077602,0.774476498315 q -0.634832441996,0.373249880484 -1.56834952189,0.373249880484 q -1.18559012957,0 -1.96974598882,-0.690493385907 q -0.774818420244,-0.699826522218 -0.774818420244,-1.76356601001 l 0,-0.615847188408 q 0,-1.11971941267 0.72813122523,-1.87553341696 q 0.728169028627,-0.755814004291 1.81104732917,-0.755814004291 q 0.653469516605,0 1.32561391122,0.317251062618 l 0.0933743900274,0.0374081171977 q 0.158774266443,-0.223957485486 0.392059027925,-0.223957485486 q 0.270672320889,0 0.364046710917,0.158625531309 q 0.10282523922,0.158625531309 0.10282523922,0.457221657099 l 0,0.783805856028 q 0,0.615847188408 -0.466796343344,0.615847188408 q -0.167847081669,0 -0.280123170082,-0.0933313631095 q -0.10282523922,-0.0932935771325 -0.130799752832,-0.16795866762 q -0.0189016983861,-0.0839604408216 -0.0464981780298,-0.233290621797 q -0.0559490272229,-0.279918517375 -0.345523046498,-0.447888520788 q -0.280123170082,-0.177291803931 -0.522783173963,-0.223957485486 q -0.242697807278,-0.0466656815547 -0.448083661941,-0.0466656815547 q -0.709494150621,0 -1.17625269057,0.485213508836 q -0.466758539947,0.475884151123 -0.466758539947,1.21303188279 l 0,0.597188472982 q 0,0.699826522218 0.494770856955,1.11971941267 q 0.504108295958,0.41989666905 1.34428878922,0.41989666905 z m 7.45891261034,-2.87395228637 q 0,0.251956894419 -0.0559490272229,0.485213508836 q -0.0559490272229,0.233290621797 -0.214723293666,0.485209730239 q -0.158774266443,0.242623758108 -0.401434270324,0.429229805361 q -0.233246958085,0.177291803931 -0.634794638599,0.298584789997 q -0.392096831322,0.111959849754 -0.905542566282,0.111959849754 l -0.914842201888,0 l 0,0.933102029624 l 0.924179640891,0 q 0.616157563991,0 0.616157563991,0.466551014812 q 0,0.466551014812 -0.616157563991,0.466551014812 l -1.99775830583,0 q -0.616119760594,0 -0.616119760594,-0.466551014812 q 0,-0.466551014812 0.616119760594,-0.466551014812 l 0.140250602025,0 l 0,-3.57377880859 l -0.140250602025,0 q -0.616119760594,0 -0.616119760594,-0.466551014812 q 0,-0.270585381064 0.158774266443,-0.363916744173 q 0.158774266443,-0.102626713443 0.457421100944,-0.102626713443 l 2.17513184348,0 q 0.886867688277,0 1.45633805725,0.49454286655 q 0.56943256558,0.49454286655 0.56943256558,1.26901936486 z m -3.12732380138,-0.83046020179 l 0,1.70757474934 l 1.10155317855,0 q 0.485433417952,0 0.756181345635,-0.223957485486 q 0.280123170082,-0.233290621797 0.280123170082,-0.625176546121 q 0,-0.401234175026 -0.280123170082,-0.625176546121 q -0.270672320889,-0.233290621797 -0.756181345635,-0.233290621797 z" stroke-width="0.99998314"/>
  </g>
</svg>
