<?xml version="1.0" encoding="UTF-8"?>
<svg xmlns="http://www.w3.org/2000/svg" width="16px" height="16px" viewBox="0 0 16 16">
  <g fill="#2e3436">
    <path d="M 1.00021788944,0.997722793291 L 15.0032305381,0.997722793291 l 0,14.0030267775 l -14.0030126487,0 z" fill="#2e3436" stroke-width="2.00043193" stroke-linecap="square" stroke-linejoin="round" fill-opacity="0"/>
    <path d="m 0.99677021794,0 a 1.00032,1.00032 0 0,0 -0.99677021794,0.996770147288 l 0,14.0064593274 a 1.00032,1.00032 0 0,0 0.99677021794,0.996770147288 L 15.0032305381,15.999999622 a 1.00032,1.00032 0 0,0 0.99677021794,-0.996770147288 L 16.0000007561,0.996770147288 A 1.00032,1.00032 0 0,0 15.0032305381,0 Z m 1.00415322499,2.0009233011 l 12.0055368773,0 l 0,11.9981530198 l -12.0055368773,0 z" fill="#2e3436" stroke-linecap="square" stroke-linejoin="round"/>
    <path d="m 2.00092344293,8.29903236731 l 0,1.4028619688 l 12.0055368773,0 l 0,-1.4028619688 z" fill="#2e3436"/>
    <path d="m 5.73696317319,2.34794729004 a 0.700221,0.700221 0 0,0 -0.435623878509,0.649746158352 l 0,4.00184660221 a 0.700151,0.700151 0 0,0 0.701431034119,0.7014309844 a 0.700151,0.700151 0 0,0 0.701427253777,-0.7014309844 l 0,-2.31102847705 l 0.804800693541,0.804796856155 a 0.700221,0.700221 0 0,0 0.989387210887,0 l 0.8047969132,-0.804796856155 l 0,2.31102847705 a 0.700151,0.700151 0 0,0 0.701431034119,0.7014309844 a 0.700151,0.700151 0 0,0 0.694048027066,-0.7014309844 L 10.6986614614,2.99769344839 A 0.700221,0.700221 0 0,0 9.50992171905,2.50300176818 L 8.00368999139,4.00922960874 L 6.49746204407,2.50300176818 a 0.700221,0.700221 0 0,0 -0.760498870883,-0.155069599509 z" fill="#2e3436" stroke-linecap="round" stroke-linejoin="round"/>
  </g>
</svg>
