<?xml version="1.0" encoding="UTF-8"?>
<svg xmlns="http://www.w3.org/2000/svg" width="16px" height="16px" viewBox="0 0 16 16">
  <g fill="#2e3436">
    <path d="m 9.99999844133,1.33231273537 l -8.99777769061,2.51906197946E-06 l 0,13.3300341179 L 14.9987613059,14.6623493723 L 14.9987613059,7.99733155765 L 9.99999844133,1.33231273537 l 0,6.66501882227 l 4.99876286461,0" fill="#2e3436" stroke-width="2.30883188" stroke-linejoin="round" fill-opacity="0"/>
    <path d="m 1.00369666966,1.00762479143E-05 a 0.999854,1.33314 0 0,0 -1.00368911247,1.32841121218 l 0,13.3333164556 a 0.999854,1.33314 0 0,0 1.00368911247,1.33825177666 l 13.9926070385,0 a 0.999854,1.33314 0 0,0 1.00368911247,-1.33825177666 l 0,-6.66173799595 a 0.999854,1.33314 0 0,0 -0.295202680138,-0.944648241807 L 10.7084848737,0.393613510334 a 0.999854,1.33314 0 0,0 -0.708486432331,-0.186959741894 l 0,-0.206643692192 z m 0.996309139931,2.66666288807 l 7.00368349181,0 l 0,5.33332678377 A 0.999854,1.33314 0 0,0 9.99999844133,9.32841146409 l 3.99999612694,0 l 0,4.00491506778 L 2.00000580959,13.3333265319 Z m 8.99630177167,1.87945652371 l 1.58671412235,2.11561858417 L 10.9963075813,6.6617480722 Z" fill="#2e3436" stroke-linejoin="round"/>
  </g>
</svg>
