<?xml version="1.0" encoding="UTF-8"?>
<svg xmlns="http://www.w3.org/2000/svg" width="16px" height="16px" viewBox="0 0 16 16">
  <g fill="#2e3436">
    <path d="m 7.86089060926,0.138514596648 c -2.61966577222,2.62124222076 -5.2404720368,5.24140576075 -7.86089060926,7.86147941068 c 2.66664427086,2.66628313573 5.33344662977,5.33218274051 7.99952630045,8.00000599267 c 2.66635067877,-2.66786520086 5.3335407298,-5.33363895955 8.00047482875,-8.00000599267 c -2.66693409895,-2.66639699647 -5.33412414998,-5.33218873318 -8.00047482875,-7.99999400733 c -0.0461090143664,0.0485406348036 -0.0924438688032,0.092047425998 -0.13855288317,0.138790259513 z m 5.17203120348,7.86147941068 c -1.67779223076,1.67763625087 -3.35561833753,3.35529647241 -5.03339551228,5.03291474527 c -1.67717869857,-1.67761827285 -3.35433481313,-3.3552784944 -5.03149092769,-5.03291474527 c 1.67715611456,-1.67763625087 3.35431222912,-3.35528448707 5.03149092769,-5.03293272328 c 1.67777717475,1.67764823621 3.35560328152,3.35529647241 5.03339551228,5.03293272328 z" fill="#2e3436" stroke-width="0.19120828"/>
    <path d="m 7.86277637384,4.70560104992 c -1.11770885625,1.11300080002 -2.23938873374,2.23457711219 -3.35813645431,3.35224620289 c 1.16494707097,1.16441192422 2.33033076607,2.32771520431 3.49582738121,3.49076679221 c 1.16579397123,-1.16314747064 2.33159923447,-2.32618108054 3.49681731352,-3.49076679221 c -1.16521807905,-1.16461567503 -2.33102334229,-2.32764329225 -3.49681731352,-3.49079675557 c -0.0456573342257,0.0479413677073 -0.0918792686273,0.0922871328365 -0.137724802912,0.138790259513 z m 1.44101020898,3.35224620289 c -0.434444779362,0.433389964074 -0.868878266721,0.866696030754 -1.30331928208,1.30008000216 c -0.434090963252,-0.433389964074 -0.86820074651,-0.866702023425 -1.30232558577,-1.30008000216 c 0.434124839262,-0.43398923117 0.86823462252,-0.867744748173 1.30232558577,-1.30160813325 c 0.434441015361,0.43398923117 0.86887450272,0.867720777489 1.30331928208,1.30160813325 z" fill="#2e3436" stroke-width="0.11649895"/>
  </g>
</svg>
