<?xml version="1.0" encoding="UTF-8" standalone="no"?>
<svg
   width="16.003952"
   height="16.003952"
   viewBox="0 0 4.2343789 4.2343791"
   version="1.1"
   id="svg4268"
   xmlns="http://www.w3.org/2000/svg"
   xmlns:svg="http://www.w3.org/2000/svg"
   xmlns:rdf="http://www.w3.org/1999/02/22-rdf-syntax-ns#"
   xmlns:cc="http://creativecommons.org/ns#"
   xmlns:dc="http://purl.org/dc/elements/1.1/">
  <defs
     id="defs4262" />
  <metadata
     id="metadata4265">
    <rdf:RDF>
      <cc:Work
         rdf:about="">
        <dc:format>image/svg+xml</dc:format>
        <dc:type
           rdf:resource="http://purl.org/dc/dcmitype/StillImage" />
        <dc:title />
      </cc:Work>
    </rdf:RDF>
  </metadata>
  <g
     id="intermediate-event"
     style="display:inline"
     transform="translate(-69.849607,-55.033201)">
    <g
       id="rect544-6">
      <path
         style="color:#000000;fill:#000000;fill-opacity:0;stroke-width:0.529167;stroke-linecap:round;stroke-linejoin:round;-inkscape-stroke:none"
         d="m 70.114578,55.297916 h 3.704167 v 3.704167 h -3.704167 z"
         id="path2248" />
      <path
         style="color:#000000;fill:#000000;stroke-linecap:round;stroke-linejoin:round;-inkscape-stroke:none"
         d="m 70.115234,55.033203 a 0.26460996,0.26460996 0 0 0 -0.265625,0.265625 v 3.703125 a 0.26460996,0.26460996 0 0 0 0.265625,0.265625 h 3.703125 a 0.26460996,0.26460996 0 0 0 0.265625,-0.265625 v -3.703125 a 0.26460996,0.26460996 0 0 0 -0.265625,-0.265625 z m 0.263672,0.529297 h 3.175781 v 3.175781 h -3.175781 z"
         id="path2250" />
    </g>
    <g
       aria-label="IE"
       id="text548-2"
       style="font-weight:bold;font-size:2.46944px;line-height:1.25;font-family:FreeMono;-inkscape-font-specification:'FreeMono, Bold';letter-spacing:0px;word-spacing:0px;display:inline;stroke-width:0.264583">
      <path
         d="m 70.737286,56.32433 v -0.313503 h 1.07194 v 0.313503 h -0.358117 v 1.173225 h 0.358117 v 0.313503 h -1.07194 v -0.313503 h 0.358117 V 56.32433 Z"
         id="path1654" />
      <path
         d="m 73.340568,57.811058 h -1.121376 v -1.800231 h 1.121376 v 0.313503 h -0.765671 v 0.388261 h 0.693324 v 0.313503 h -0.693324 v 0.471461 h 0.765671 z"
         id="path1656" />
    </g>
  </g>
</svg>
