<?xml version="1.0" encoding="UTF-8"?>
<svg xmlns="http://www.w3.org/2000/svg" width="16px" height="16px" viewBox="0 0 16 16">
  <g fill="#2e3436">
    <path d="m 14.9421062947,0.00155585343117 a 0.999747,0.996838 0 0,0 -0.221402039751,0.0369185559938 l -6.99554881778,1.99396744202 a 1.00095,0.998042 0 1,0 0.546062061523,1.92039026681 l 5.26880181731,-1.50099547072 l -1.50538274264,5.25347661312 a 1.00096,0.99805 0 1,0 1.92600883625,0.544480891316 l 1.99975914027,-6.97520737669 a 0.999747,0.996838 0 0,0 -1.0183360371,-1.27289906987 z" fill="#2e3436" stroke-width="1.99638395" stroke-linecap="round" stroke-linejoin="round"/>
    <path d="m 15.2585298583,14.9368069927 q 0.703763787448,0 0.703763787448,0.531597068714 q 0,0.531593301514 -0.703763787448,0.531593301514 l -0.84238564476,0 q -0.394518788239,-0.765494956932 -1.01297100474,-1.49909680213 q -0.607797715611,-0.74423288244 -0.949006217487,-0.861185593748 l -1.02362550563,0 l 0,1.29709202565 l 0.373285350297,0 q 0.70372600553,0 0.70372600553,0.531597068714 q 0,0.531593301514 -0.70372600553,0.531593301514 l -1.59945971857,0 q -0.70372600553,0 -0.70372600553,-0.531593301514 q 0,-0.531597068714 0.70372600553,-0.531597068714 l 0.159817513336,0 L 10.3641846308,10.8647882138 l -0.159817513336,0 q -0.70372600553,0 -0.70372600553,-0.531593301514 q 0,-0.30834528654 0.181353206622,-0.414644357405 q 0.181353206622,-0.116933875311 0.522486144662,-0.116933875311 l 2.37784279416,0 q 1.03431778844,0 1.6847335076,0.531597068714 q 0.661108001974,0.520962264268 0.661108001974,1.36088201632 q 0,0.978134537858 -1.15159286205,1.60541847619 q 0.693071504641,0.606018096638 1.34352500573,1.63731158793 z m -3.82798837261,-2.36028239587 l 0.810384360175,0 q 0.671762502863,0 1.10893707658,-0.255152428312 q 0.447829074603,-0.265813603155 0.447829074603,-0.659180817269 q 0,-0.340215795081 -0.330591782905,-0.563490180453 q -0.330591782905,-0.233905422618 -0.84238564476,-0.233905422618 l -1.19424864753,0 z" stroke-width="0.99819009"/>
    <path d="m 13.9939690613,1.01357258441 a 0.999647,0.996739 0 0,0 -0.708410963368,0.294331304061 l -0.273163267475,0.272255514456 a 0.999647,0.996739 0 0,0 0,1.4053425059 a 0.999647,0.996739 0 0,0 1.40945445272,0 l 0.273163267475,-0.272255514456 a 0.999647,0.996739 0 0,0 0,-1.4053425059 a 0.999647,0.996739 0 0,0 -0.701005707431,-0.294331304061 z m -3.80769948262,3.38459526632 l -1.41682192674,1.4053387387 a 0.999647,0.996739 0 0,0 0,1.4126998467 a 0.999647,0.996739 0 0,0 1.41682192674,0 l 1.4094166708,-1.4126998467 a 0.999647,0.996739 0 0,0 0,-1.4053387387 a 0.999647,0.996739 0 0,0 -1.4094166708,0 z m -3.53468734282,3.93642596404 a 0.999647,0.996739 0 0,0 -0.708410963368,0.286947592862 l -1.41682192674,1.4126998467 a 0.999647,0.996739 0 0,0 0,1.4126998467 a 0.999647,0.996739 0 0,0 1.41682192674,0 l 1.41682192674,-1.4126998467 a 0.999647,0.996739 0 0,0 0,-1.4126998467 a 0.999647,0.996739 0 0,0 -0.708410963368,-0.286947592862 z m -4.24309830619,4.2307421993 a 0.999647,0.996739 0 0,0 -0.708410963368,0.286947592862 l -1.4094166708,1.4126998467 a 0.999647,0.996739 0 0,0 0,1.4053425059 a 0.999647,0.996739 0 0,0 1.4094166708,0 l 1.41682192674,-1.4053425059 a 0.999647,0.996739 0 0,0 0,-1.4126998467 a 0.999647,0.996739 0 0,0 -0.708410963368,-0.286947592862 z" fill="#2e3436" stroke-dasharray="1.99638395, 3.9927528" stroke-linecap="round"/>
  </g>
</svg>
