<?xml version="1.0" encoding="UTF-8" standalone="no"?>
<svg
   width="10.269059"
   height="15.963999"
   viewBox="0 0 2.7170218 4.2238081"
   version="1.1"
   id="svg4268"
   xmlns="http://www.w3.org/2000/svg"
   xmlns:svg="http://www.w3.org/2000/svg"
   xmlns:rdf="http://www.w3.org/1999/02/22-rdf-syntax-ns#"
   xmlns:cc="http://creativecommons.org/ns#"
   xmlns:dc="http://purl.org/dc/elements/1.1/">
  <defs
     id="defs4262" />
  <metadata
     id="metadata4265">
    <rdf:RDF>
      <cc:Work
         rdf:about="">
        <dc:format>image/svg+xml</dc:format>
        <dc:type
           rdf:resource="http://purl.org/dc/dcmitype/StillImage" />
      </cc:Work>
    </rdf:RDF>
  </metadata>
  <g
     id="seq"
     style="display:inline"
     transform="translate(-94.424763,-33.756071)">
    <path
       style="color:#000000;fill:#000000;stroke-width:0.105027;stroke-miterlimit:10;-inkscape-stroke:none"
       d="m 95.594077,33.81166 c 0,0.277881 0,0.555763 0,0.833645 0.126632,0 0.253266,0 0.379896,0 0,-0.296413 0,-0.592822 0,-0.889234 -0.12663,0 -0.253264,0 -0.379896,0 0,0.01853 0,0.03707 0,0.0556 z"
       id="line2487" />
    <path
       style="color:#000000;fill:#000000;stroke-width:0.105027;stroke-miterlimit:10;-inkscape-stroke:none"
       d="m 94.760436,37.146234 c 0,0.277883 0,0.555764 0,0.833645 0.126635,0 0.253266,0 0.379899,0 0,-0.29641 0,-0.592821 0,-0.889233 -0.126633,0 -0.253264,0 -0.379899,0 0,0.01853 0,0.03707 0,0.0556 z"
       id="line2489" />
    <path
       style="color:#000000;fill:#000000;stroke-width:0.105027;stroke-miterlimit:10;-inkscape-stroke:none"
       d="m 96.427722,37.146234 c 0,0.277883 0,0.555764 0,0.833645 0.126635,0 0.253267,0 0.379897,0 0,-0.29641 0,-0.592821 0,-0.889233 -0.12663,0 -0.253262,0 -0.379897,0 0,0.01853 0,0.03707 0,0.0556 z"
       id="line2491" />
    <path
       style="color:#000000;fill:#000000;stroke-width:0.296543;stroke-miterlimit:10;-inkscape-stroke:none"
       d="m 95.716954,34.34561 c -0.579463,0.01969 -1.113247,0.457516 -1.248369,1.02111 -0.07346,0.305679 -0.02948,0.622505 -0.04169,0.93336 0,0.363831 0,0.72766 0,1.091493 0.904687,0 1.809368,0 2.714056,0 -0.0042,-0.611781 0.0086,-1.224015 -0.0078,-1.835497 -0.05506,-0.586911 -0.537292,-1.103503 -1.12132,-1.192423 -0.09725,-0.01692 -0.196445,-0.02236 -0.295092,-0.01804 z m 0.0683,0.37826 c 0.396996,-0.0064 0.779608,0.262343 0.914671,0.634669 0.03894,0.104428 0.06046,0.234431 0.06116,0.349889 -7.31e-4,0.434331 2.91e-4,0.868816 -2.5e-5,1.303243 -0.651424,0 -1.302841,0 -1.954264,0 0.0041,-0.480323 -0.0091,-0.961282 0.0084,-1.441184 0.02179,-0.201219 0.132335,-0.421599 0.289397,-0.571051 0.179523,-0.178018 0.428262,-0.277153 0.680697,-0.275566 z"
       id="path2493" />
    <path
       style="color:#000000;fill:#000000;stroke-width:0.0336578;stroke-miterlimit:10;-inkscape-stroke:none"
       d="m 95.724042,34.676884 c -0.371241,0.870848 -0.742944,1.74152 -1.114401,2.612284 0.121308,0.05462 0.242793,0.108871 0.364275,0.163135 0.268718,-0.630625 0.537706,-1.261147 0.80653,-1.891734 0.268895,0.630588 0.537974,1.261104 0.806754,1.891734 0.121561,-0.05426 0.243044,-0.108667 0.364498,-0.163135 -0.390778,-0.914832 -0.781078,-1.829848 -1.171252,-2.744911 -0.01879,0.04421 -0.0376,0.08842 -0.05641,0.132627 z"
       id="polyline2495" />
  </g>
</svg>
