<?xml version="1.0" encoding="UTF-8"?>
<svg xmlns="http://www.w3.org/2000/svg" width="16px" height="16px" viewBox="0 0 16 16">
  <g fill="#2e3436">
    <path d="m 2.99769217351,1.14276091955 l 0,2.28608461743 l 11.0087611971,0 l 0,6.85825342037 l -11.0087611971,0 l 0,2.28608461743 L 15.003223094,12.5731835748 a 1.00031,1.14288 0 0,0 0.996769723373,-1.14726012282 L 15.9999928174,2.28158541415 A 1.00031,1.14288 0 0,0 15.003223094,1.14276091955 Z" fill="#2e3436" stroke-linejoin="round"/>
    <path d="m 4.00085823162,2.2855218391 a 2.00043,2.28552 0 0,1 -2.00043100598,2.2855218391 a 2.00043,2.28552 0 0,1 -2.00042722564,-2.2855218391 a 2.00043,2.28552 0 0,1 2.00042722564,-2.2855218391 a 2.00043,2.28552 0 0,1 2.00043100598,2.2855218391 z" fill="#2e3436" stroke-width="2.13823109" stroke-linecap="round" stroke-linejoin="round"/>
    <path d="m 5.48592309008,7.02246894104 l -4.99861462364,3.42490911203 a 1.00032,1.14288 0 0,0 0,1.95709079776 l 4.99861462364,3.43334452429 a 1.00022,1.14276 0 0,0 1.37332557828,-0.396479709247 a 1.00022,1.14276 0 0,0 -0.347035182369,-1.56904693268 l -3.57360046096,-2.44636328124 l 3.57360046096,-2.44636371315 a 1.00022,1.14276 0 0,0 0.347035182369,-1.56904671673 a 1.00022,1.14276 0 0,0 -1.37332557828,-0.388044944847 z" fill="#2e3436" stroke-linecap="round" stroke-linejoin="round"/>
  </g>
</svg>
