<?xml version="1.0" encoding="UTF-8" standalone="no"?>
<svg
   xmlns:dc="http://purl.org/dc/elements/1.1/"
   xmlns:cc="http://creativecommons.org/ns#"
   xmlns:rdf="http://www.w3.org/1999/02/22-rdf-syntax-ns#"
   xmlns:svg="http://www.w3.org/2000/svg"
   xmlns="http://www.w3.org/2000/svg"
   width="15.999999"
   height="16.000002"
   viewBox="0 0 4.233333 4.233334"
   version="1.1"
   id="svg4268">
  <defs
     id="defs4262" />
  <metadata
     id="metadata4265">
    <rdf:RDF>
      <cc:Work
         rdf:about="">
        <dc:format>image/svg+xml</dc:format>
        <dc:type
           rdf:resource="http://purl.org/dc/dcmitype/StillImage" />
        <dc:title />
      </cc:Work>
    </rdf:RDF>
  </metadata>
  <path
     style="color:#000000;font-style:normal;font-variant:normal;font-weight:normal;font-stretch:normal;font-size:medium;line-height:normal;font-family:sans-serif;font-variant-ligatures:normal;font-variant-position:normal;font-variant-caps:normal;font-variant-numeric:normal;font-variant-alternates:normal;font-variant-east-asian:normal;font-feature-settings:normal;font-variation-settings:normal;text-indent:0;text-align:start;text-decoration:none;text-decoration-line:none;text-decoration-style:solid;text-decoration-color:#000000;letter-spacing:normal;word-spacing:normal;text-transform:none;writing-mode:lr-tb;direction:ltr;text-orientation:mixed;dominant-baseline:auto;baseline-shift:baseline;text-anchor:start;white-space:normal;shape-padding:0;shape-margin:0;inline-size:0;clip-rule:nonzero;display:inline;overflow:visible;visibility:visible;isolation:auto;mix-blend-mode:normal;color-interpolation:sRGB;color-interpolation-filters:linearRGB;solid-color:#000000;solid-opacity:1;vector-effect:none;fill:#000000;fill-opacity:1;fill-rule:nonzero;stroke:none;stroke-linecap:round;stroke-linejoin:round;stroke-miterlimit:4;stroke-dasharray:none;stroke-dashoffset:0;stroke-opacity:1;color-rendering:auto;image-rendering:auto;shape-rendering:auto;text-rendering:auto;enable-background:accumulate;stop-color:#000000;stop-opacity:1;opacity:1"
     d="M 0.26367188 0 A 0.26460996 0.26460996 0 0 0 0 0.26367188 L 0 3.96875 A 0.26460996 0.26460996 0 0 0 0.26367188 4.2324219 L 3.96875 4.2324219 A 0.26460996 0.26460996 0 0 0 4.2324219 3.96875 L 4.2324219 0.26367188 A 0.26460996 0.26460996 0 0 0 3.96875 0 L 0.26367188 0 z M 0.52929688 0.52929688 L 3.7050781 0.52929688 L 3.7050781 3.7050781 L 0.52929688 3.7050781 L 0.52929688 0.52929688 z "
     id="rect1082" />
  <g
     aria-label="DT"
     id="text1086"
     style="font-style:normal;font-variant:normal;font-weight:bold;font-stretch:normal;font-size:2.46944px;line-height:1.25;font-family:FreeMono;-inkscape-font-specification:'FreeMono, Bold';font-variant-ligatures:normal;font-variant-caps:normal;font-variant-numeric:normal;font-variant-east-asian:normal;letter-spacing:0px;word-spacing:0px;display:inline;fill:#000000;fill-opacity:1;stroke:none;stroke-width:0.264583"
     transform="translate(-17.197917,-15.345833)">
    <path
       d="m 18.075369,18.123556 q -0.165453,0 -0.165453,-0.123472 0,-0.05927 0.03951,-0.09137 0.03951,-0.0321 0.111125,-0.0321 v -0.945795 q -0.150636,0 -0.150636,-0.123472 0,-0.07408 0.04198,-0.09878 0.04445,-0.02469 0.123472,-0.02469 h 0.523521 q 0.269169,0 0.451907,0.197555 0.185208,0.197555 0.185208,0.488949 v 0.116064 q 0,0.288924 -0.180269,0.464254 -0.177799,0.172861 -0.476602,0.172861 z m 0.913692,-0.758118 q 0,-0.185208 -0.113594,-0.30868 -0.111125,-0.125941 -0.296333,-0.125941 h -0.271638 v 0.945795 h 0.274108 q 0.123472,0 0.207433,-0.03704 0.08643,-0.03704 0.125941,-0.101248 0.04198,-0.06421 0.0568,-0.125941 0.01729,-0.06174 0.01729,-0.13335 z"
       style="font-style:normal;font-variant:normal;font-weight:bold;font-stretch:normal;font-size:2.46944px;font-family:FreeMono;-inkscape-font-specification:'FreeMono, Bold';font-variant-ligatures:normal;font-variant-caps:normal;font-variant-numeric:normal;font-variant-east-asian:normal"
       id="path1364" />
    <path
       d="m 20.384291,17.876612 q 0.162983,0 0.162983,0.123472 0,0.123472 -0.162983,0.123472 h -0.57044 q -0.162983,0 -0.162983,-0.123472 0,-0.07161 0.04198,-0.09631 0.04198,-0.02716 0.121003,-0.02716 h 0.160513 v -0.945795 h -0.26423 v 0.229658 q 0,0.162983 -0.123472,0.162983 -0.123472,0 -0.123472,-0.162983 v -0.476602 h 1.274231 v 0.476602 q 0,0.07902 -0.02716,0.121002 -0.02469,0.04198 -0.09631,0.04198 -0.123472,0 -0.123472,-0.162983 V 16.930818 H 20.22131 v 0.945795 z"
       style="font-style:normal;font-variant:normal;font-weight:bold;font-stretch:normal;font-size:2.46944px;font-family:FreeMono;-inkscape-font-specification:'FreeMono, Bold';font-variant-ligatures:normal;font-variant-caps:normal;font-variant-numeric:normal;font-variant-east-asian:normal"
       id="path1366" />
  </g>
</svg>
