<?xml version="1.0" encoding="UTF-8"?>
<svg xmlns="http://www.w3.org/2000/svg" width="16px" height="16px" viewBox="0 0 16 16">
  <g fill="#2e3436">
    <path d="m 1.3323622768,0.997727898899 l 13.3300363006,0 l 0,5.0010715131 l -13.3300363006,0 z" fill="#2e3436" stroke-width="2.3093646" stroke-linecap="round" stroke-linejoin="round" fill-opacity="0"/>
    <path d="m 1.32842246337,7.56067542795E-06 a 1.33314,1.00032 0 0,0 -1.32841238712,0.996768449188 l 0,4.99861089128 a 1.33314,1.00032 0 0,0 1.32841238712,1.00415220481 l 13.3333161197,0 a 1.33314,1.00032 0 0,0 1.33825184445,-1.00415220481 l 0,-4.99861089128 a 1.33314,1.00032 0 0,0 -1.33825184445,-0.996768449188 z m 1.33825184445,2.000920654 l 10.6666518882,0 L 13.333326196,4.99861807392 l -10.6666518882,0 z" fill="#2e3436" stroke-linecap="round" stroke-linejoin="round"/>
    <path d="m 7.99999773284,4.99861807392 a 1.333,1.00021 0 0,0 -1.33825184445,0.996768827222 l 0,3.00507323684 a 1.333,1.00021 0 0,0 1.33825184445,0.996768449188 a 1.333,1.00021 0 0,0 1.32841238712,-0.996768449188 L 9.32841011997,5.99538690114 A 1.333,1.00021 0 0,0 7.99999773284,4.99861807392 Z" fill="#2e3436" stroke-linecap="round"/>
    <path d="m 7.99999773284,11.001380792 a 1.333,1.00021 0 0,0 -1.33825184445,0.996768827222 l 0,3.00507323684 a 1.333,1.00021 0 0,0 1.33825184445,0.996768827222 a 1.333,1.00021 0 0,0 1.32841238712,-0.996768827222 l 0,-3.00507323684 a 1.333,1.00021 0 0,0 -1.32841238712,-0.996768827222 z" fill="#2e3436" stroke-linecap="round"/>
  </g>
</svg>
