<?xml version="1.0" encoding="UTF-8"?>
<svg xmlns="http://www.w3.org/2000/svg" width="16px" height="16px" viewBox="0 0 16 16">
  <g fill="#2e3436">
    <path d="m 1.00121791179,1.00025054441 l 13.9965443338,0 l 0,13.9965436727 l -13.9965443338,0 z" fill="#2e3436" stroke-width="1.99950737" stroke-linecap="round" stroke-linejoin="round" fill-opacity="0"/>
    <path d="m 1.00369666966,7.55718826895E-06 a 0.999854,0.999854 0 0,0 -1.00368911247,1.00368906506 l 0,13.9926063776 a 0.999854,0.999854 0 0,0 1.00368911247,1.00368906506 l 13.9926070385,0 a 0.999854,0.999854 0 0,0 1.00368911247,-1.00368906506 l 0,-13.9926063776 a 0.999854,0.999854 0 0,0 -1.00368911247,-1.00368906506 z m 0.99630951779,1.99999853579 l 11.999988003,0 l 0,11.9999874362 l -11.999988003,0 z" fill="#2e3436" stroke-linecap="round" stroke-linejoin="round"/>
    <path d="m 6.77880574173,9.56329299849 q 0.298584522042,0 0.457221246781,0.102626616497 q 0.158625388956,0.0932934890029 0.158625388956,0.3639164004 q 0,0.466550574085 -0.615846635737,0.466550574085 l -2.81796227541,0 q -0.615850414331,0 -0.615850414331,-0.466550574085 q 0,-0.270585125456 0.158625388956,-0.3639164004 q 0.158625388956,-0.102626616497 0.457221246781,-0.102626616497 l 0.942430541584,0 l 0,-3.57377543262 l -0.942430541584,0 q -0.615850414331,0 -0.615850414331,-0.466550574085 q 0,-0.270585125456 0.158625388956,-0.3639164004 q 0.158625388956,-0.102626616497 0.457221246781,-0.102626616497 l 2.81796227541,0 q 0.298584522042,0 0.457221246781,0.102626616497 q 0.158625388956,0.0933312749442 0.158625388956,0.3639164004 q 0,0.466550574085 -0.615846635737,0.466550574085 l -0.942430541584,0 l 0,3.57377543262 z m 5.58928158271,-0.48521305048 q 0,-0.625175955549 0.466550596122,-0.625175955549 q 0.466550596122,0 0.466550596122,0.625175955549 l 0,1.41831419865 l -4.3949057086,0 q -0.615846635737,0 -0.615846635737,-0.466550574085 q 0,-0.466550574085 0.615846635737,-0.466550574085 l 0.139959133086,0 l 0,-3.57377543262 l -0.139959133086,0 q -0.615846635737,0 -0.615846635737,-0.466550574085 q 0,-0.270585125456 0.158625388956,-0.3639164004 q 0.158625388956,-0.102626616497 0.457221246781,-0.102626616497 l 4.18962223716,0 l 0,1.39965172226 q 0,0.625175955549 -0.466550596122,0.625175955549 q -0.466550596122,0 -0.466550596122,-0.625175955549 l 0,-0.466550574085 l -2.18345694099,0 l 0,1.31567246778 l 0.793138280563,0 l 0,-0.0653318924609 q 0,-0.625175955549 0.457217468186,-0.625175955549 q 0.466550596122,0 0.466550596122,0.625175955549 l 0,1.05440535544 q 0,0.615846606649 -0.457217468186,0.615846606649 q -0.466550596122,0 -0.466550596122,-0.615846606649 l 0,-0.0653318924609 l -0.793138280563,0 l 0,1.33433494417 l 2.38874041244,0 z" stroke-width="0.99975179"/>
  </g>
</svg>
