<?xml version="1.0" encoding="UTF-8"?>
<svg xmlns="http://www.w3.org/2000/svg" width="16px" height="16px" viewBox="0 0 16 16">
  <g fill="#2e3436">
    <path d="m 0.99677021794,0 a 1.00032,1.00032 0 0,0 -0.99677021794,0.996769982432 l 0,14.0064592791 a 1.00032,1.00032 0 0,0 0.99677021794,0.996769982432 l 14.0064603202,0 a 1.00032,1.00032 0 0,0 0.99677021794,-0.996769982432 l 0,-14.0064592791 a 1.00032,1.00032 0 0,0 -0.99677021794,-0.996769982432 z m 1.00415322499,2.00092334821 l 12.0055406576,0 l 0,12.0055359309 l -12.0055406576,0 z" fill="#2e3436" stroke-width="2.00043176" stroke-linecap="square" stroke-linejoin="round" fill-opacity="0"/>
    <path d="m 12.0289523128,11.1003420547 q 1.05622364954,0 1.05622364954,0.800171098218 q 0,0.800171476252 -1.05622364954,0.800171476252 l -1.26427096657,0 q -0.592130018799,-1.15224669898 -1.52032862131,-2.25648344962 q -0.912192636377,-1.12024006675 -1.42430416553,-1.29627767812 l -1.5363308071,0 l 0,1.95241855327 l 0.560121866871,0 q 1.05622742988,0 1.05622742988,0.800171098218 q 0,0.800171476252 -1.05622742988,0.800171476252 l -2.4005168861,0 q -1.05622364954,0 -1.05622364954,-0.800171476252 q 0,-0.800171098218 1.05622364954,-0.800171098218 l 0.24005168861,0 l 0,-6.1293135459 l -0.24005168861,0 q -1.05622364954,0 -1.05622364954,-0.800171098218 q 0,-0.464099569637 0.272071181563,-0.624133864887 q 0.272071181563,-0.176039123502 0.784167589346,-0.176039123502 l 3.56876717722,0 q 1.5523329929,0 2.52854193313,0.800171476252 q 0.992214906369,0.784167782103 0.992214906369,2.04843882799 q 0,1.47231528948 -1.72837215799,2.41651774487 q 1.04022146375,0.912195445124 2.01643040398,2.46452807125 z m -5.74523456051,-3.55276150577 l 1.21626062884,0 q 1.00821709216,0 1.66435963448,-0.384082232994 q 0.672144728108,-0.400085549109 0.672144728108,-0.992212403732 q 0,-0.512109896015 -0.496109343355,-0.848181802631 q -0.496105563014,-0.352074466662 -1.26427096657,-0.352074466662 l -1.79238468151,0 z" stroke-width="1.00021399"/>
  </g>
</svg>
