<?xml version="1.0" encoding="UTF-8"?>
<svg xmlns="http://www.w3.org/2000/svg" width="16px" height="16px" viewBox="0 0 16 16">
  <g fill="#2e3436">
    <path d="m 14.9330416621,0.00156315419562 a 1.00826,0.996689 0 0,0 -0.223249630519,0.0369130388365 l -7.05513794817,1.99366946092 a 1.00948,0.997893 0 1,0 0.550716715285,1.92009951454 l 5.31368032936,-1.50076739336 l -1.5181927468,5.2526915267 a 1.00948,0.997893 0 1,0 1.94239752776,0.544395756743 l 2.01681407126,-6.97416122594 a 1.00826,0.996689 0 0,0 -1.02701307669,-1.27271261281 z" fill="#2e3436" stroke-width="2.00471777" stroke-linecap="round" stroke-linejoin="round"/>
    <path d="m 15.2819306521,14.8948292672 q 0.34411459519,0 0.526932380182,0.11691640056 q 0.182821595363,0.106294485303 0.182821595363,0.41458239241 q 0,0.531517626153 -0.709746354803,0.531517626153 l -3.24763245582,0 q -0.709746354803,0 -0.709746354803,-0.531517626153 q 0,-0.308261540651 0.182821595363,-0.41458239241 q 0.182821595363,-0.11691640056 0.526932380182,-0.11691640056 l 1.08613098107,0 l 0,-4.07141025111 l -1.08613098107,0 q -0.709746354803,0 -0.709746354803,-0.531517626153 q 0,-0.308261540651 0.182821595363,-0.41458239241 q 0.182821595363,-0.11691640056 0.526932380182,-0.11691640056 l 3.24763245582,0 q 0.34411459519,0 0.526932380182,0.11691640056 q 0.182821595363,0.106294485303 0.182821595363,0.41458239241 q 0,0.531517626153 -0.709746354803,0.531517626153 l -1.0861271707,0 l 0,4.07141025111 z" stroke-width="1.00235699"/>
    <path d="m 14.1131717782,1.05198394047 a 1.00816,0.99659 0 0,0 -0.714444542112,0.286904711038 l -0.267907177365,0.272214828236 a 1.00816,0.99659 0 0,0 0,1.41248873099 a 1.00816,0.99659 0 0,0 1.42144742987,0 l 0.275375504312,-0.272214828236 a 1.00816,0.99659 0 0,0 0,-1.41248873099 a 1.00816,0.99659 0 0,0 -0.714444542112,-0.286904711038 z m -3.84014131904,3.37672946003 l -1.4214436195,1.41248873099 a 1.00816,0.99659 0 0,0 0,1.41248873099 a 1.00816,0.99659 0 0,0 1.4214436195,0 l 1.42888908422,-1.41248873099 a 1.00816,0.99659 0 0,0 0,-1.41248873099 a 1.00816,0.99659 0 0,0 -1.42888908422,0 z m -3.55733559149,3.94319770734 a 1.00816,0.99659 0 0,0 -0.714444542112,0.286904711038 l -1.42888908422,1.41248873099 a 1.00816,0.99659 0 0,0 0,1.40513248968 a 1.00816,0.99659 0 0,0 1.42888908422,0 l 1.42144742987,-1.40513248968 a 1.00816,0.99659 0 0,0 0,-1.41248873099 a 1.00816,0.99659 0 0,0 -0.707002887761,-0.286904711038 z m -4.99367014043,4.51702219597 l -1.42888908422,1.41248873099 a 1.00816,0.99659 0 0,0 0,1.40513248968 a 1.00816,0.99659 0 0,0 1.42888908422,0 l 1.42888908422,-1.40513248968 a 1.00816,0.99659 0 0,0 0,-1.41248873099 a 1.00816,0.99659 0 0,0 -1.42888908422,0 z" fill="#2e3436" stroke-dasharray="2.00471777, 4.00942039" stroke-linecap="round"/>
  </g>
</svg>
