<?xml version="1.0" encoding="UTF-8" standalone="no"?>
<svg
   xmlns:dc="http://purl.org/dc/elements/1.1/"
   xmlns:cc="http://creativecommons.org/ns#"
   xmlns:rdf="http://www.w3.org/1999/02/22-rdf-syntax-ns#"
   xmlns:svg="http://www.w3.org/2000/svg"
   xmlns="http://www.w3.org/2000/svg"
   width="15.996548"
   height="15.996555"
   viewBox="0 0 4.2324198 4.2324221"
   version="1.1"
   id="svg4268">
  <defs
     id="defs4262" />
  <metadata
     id="metadata4265">
    <rdf:RDF>
      <cc:Work
         rdf:about="">
        <dc:format>image/svg+xml</dc:format>
        <dc:type
           rdf:resource="http://purl.org/dc/dcmitype/StillImage" />
        <dc:title />
      </cc:Work>
    </rdf:RDF>
  </metadata>
  <path
     id="path683"
     d="M 0.26367,0 A 0.26460982,0.26460982 0 0 0 0,0.263672 V 3.96875 A 0.26460982,0.26460982 0 0 0 0.26367,4.232422 H 3.96875 A 0.26460982,0.26460982 0 0 0 4.23242,3.96875 V 0.263672 A 0.26460982,0.26460982 0 0 0 3.96875,0 Z M 0.52929,0.529297 H 3.70508 V 3.705078 H 0.52929 Z"
     style="color:#000000;font-style:normal;font-variant:normal;font-weight:normal;font-stretch:normal;font-size:medium;line-height:normal;font-family:sans-serif;font-variant-ligatures:normal;font-variant-position:normal;font-variant-caps:normal;font-variant-numeric:normal;font-variant-alternates:normal;font-feature-settings:normal;text-indent:0;text-align:start;text-decoration:none;text-decoration-line:none;text-decoration-style:solid;text-decoration-color:#000000;letter-spacing:normal;word-spacing:normal;text-transform:none;writing-mode:lr-tb;direction:ltr;text-orientation:mixed;dominant-baseline:auto;baseline-shift:baseline;text-anchor:start;white-space:normal;shape-padding:0;clip-rule:nonzero;display:inline;overflow:visible;visibility:visible;isolation:auto;mix-blend-mode:normal;color-interpolation:sRGB;color-interpolation-filters:linearRGB;solid-color:#000000;solid-opacity:1;vector-effect:none;fill:#000000;fill-opacity:1;fill-rule:nonzero;stroke:none;stroke-width:0.529167;stroke-linecap:square;stroke-linejoin:round;stroke-miterlimit:4;stroke-dasharray:none;stroke-dashoffset:0;stroke-opacity:1;color-rendering:auto;image-rendering:auto;shape-rendering:auto;text-rendering:auto;enable-background:accumulate" />
  <g
     aria-label="A"
     id="text687"
     style="font-style:normal;font-variant:normal;font-weight:bold;font-stretch:normal;font-size:2.82223px;line-height:1.25;font-family:sans-serif;-inkscape-font-specification:'sans-serif Bold';letter-spacing:0px;word-spacing:0px;fill:#000000;fill-opacity:1;stroke:none;stroke-width:0.264583"
     transform="translate(-103.18659,-39.157422)">
    <path
       d="m 105.55151,42.305423 q 0,-0.122766 0.072,-0.1651 0.072,-0.04657 0.20743,-0.04657 h 0.0974 l -0.0974,-0.245533 h -1.00753 l -0.0974,0.245533 h 0.0974 q 0.2794,0 0.2794,0.211666 0,0.211667 -0.2794,0.211667 h -0.56303 q -0.2794,0 -0.2794,-0.211667 0,-0.127 0.0762,-0.169333 0.072,-0.04233 0.20743,-0.04233 l 0.65617,-1.621365 h -0.2667 q -0.28364,0 -0.28364,-0.211667 0,-0.127 0.072,-0.169333 0.0762,-0.04233 0.21167,-0.04233 h 0.9144 l 0.84243,2.044698 q 0.28786,0 0.28786,0.211666 0,0.211667 -0.27939,0.211667 h -0.58844 q -0.2794,0 -0.2794,-0.211667 z m 0.10584,-0.880532 -0.3302,-0.8128 -0.33444,0.8128 z"
       style="font-style:normal;font-variant:normal;font-weight:bold;font-stretch:normal;font-size:4.23333px;font-family:FreeMono;-inkscape-font-specification:'FreeMono Bold';stroke-width:0.264583"
       id="path1420" />
  </g>
</svg>
