<?xml version="1.0" encoding="UTF-8"?>
<svg xmlns="http://www.w3.org/2000/svg" width="16px" height="16px" viewBox="0 0 16 16">
  <g fill="#2e3436">
    <path d="m 10.5076588736,0.281504870872 a 0.999605,2.00165 0 0,0 -1.36510872279,0.679666691727 a 0.999605,2.00165 0 0,0 0.339418388985,2.74833787961 l 3.56404042759,4.28503219272 l -3.56404042759,4.29980722666 a 0.999605,2.00165 0 0,0 -0.339418388985,2.73355528037 a 0.999605,2.00165 0 0,0 1.36510872279,0.694494682775 l 5.00294167011,-5.99904960899 a 0.999705,2.00185 0 0,0 0,-3.44280230118 z" fill="#2e3436" stroke-linecap="round" stroke-linejoin="round"/>
    <path d="m 0.996168792266,5.99980613915 a 0.999605,2.00165 0 0,0 -0.996161236202,1.99475819168 a 0.999605,2.00165 0 0,0 0.996161236202,2.00953322562 l 13.0017417672,0 A 0.999605,2.00165 0 0,0 14.9940717956,7.99456433083 A 0.999605,2.00165 0 0,0 13.9979105594,5.99980613915 Z" fill="#2e3436" stroke-linecap="round" stroke-linejoin="round"/>
  </g>
</svg>
