<?xml version="1.0" encoding="UTF-8"?>
<svg xmlns="http://www.w3.org/2000/svg" width="16px" height="16px" viewBox="0 0 16 16">
  <g fill="#2e3436">
    <path d="m 0.9966564517,1.33560128625 l 3.00037190437,6.66501311282 l -3.00037190437,6.66501815094 l 14.0017368137,0 l 0,-13.3300363019 z" fill="#2e3436" stroke-width="2.30925982" stroke-linejoin="round" fill-opacity="0"/>
    <path d="m 0.998134430175,1.00762453599E-05 a 1.00022,1.33314 0 0,0 -0.856407256402,2.01721898084 l 2.68734286733,5.98277069101 l -2.68734286733,5.98277069101 a 1.00022,1.33314 0 0,0 0.856407256402,2.01721898084 l 13.9977980578,0 a 1.00022,1.33314 0 0,0 1.00406146406,-1.33825133878 l 0,-13.3234766661 a 1.00022,1.33314 0 0,0 -1.00406146406,-1.33825133878 z m 1.76448705949,2.66666322395 l 11.2366318666,0 l 0,10.6666528958 l -11.2366318666,0 l 2.08933614433,-4.64451935223 a 1.00022,1.33314 0 0,0 0,-1.37761419133 z" fill="#2e3436" stroke-linejoin="round"/>
  </g>
</svg>
