<?xml version="1.0" encoding="UTF-8" standalone="no"?>
<svg
   xmlns:dc="http://purl.org/dc/elements/1.1/"
   xmlns:cc="http://creativecommons.org/ns#"
   xmlns:rdf="http://www.w3.org/1999/02/22-rdf-syntax-ns#"
   xmlns:svg="http://www.w3.org/2000/svg"
   xmlns="http://www.w3.org/2000/svg"
   id="svg4268"
   version="1.1"
   viewBox="0 0 4.2333332 3.7041668"
   height="14"
   width="16">
  <defs
     id="defs4262" />
  <metadata
     id="metadata4265">
    <rdf:RDF>
      <cc:Work
         rdf:about="">
        <dc:format>image/svg+xml</dc:format>
        <dc:type
           rdf:resource="http://purl.org/dc/dcmitype/StillImage" />
        <dc:title />
      </cc:Work>
    </rdf:RDF>
  </metadata>
  <path
     style="fill:#000000;fill-opacity:1;stroke:none;stroke-width:0.529167;stroke-linecap:round;stroke-linejoin:round;stroke-miterlimit:4;stroke-dasharray:none;stroke-dashoffset:0;stroke-opacity:1"
     d="M 1.0583329,-1.7981769e-8 C 0.47201621,-1.7981769e-8 -4.5e-7,0.47201664 -4.5e-7,1.0583333 v 1.5875 c 0,0.5863166 0.47201666,1.0583333 1.05833335,1.0583333 h 2.1166666 c 0.5863167,0 1.0583333,-0.4720167 1.0583333,-1.0583333 v -1.5875 C 4.2333328,0.47201664 3.7613162,-1.7981769e-8 3.1749995,-1.7981769e-8 Z m 0,0.529166657981769 h 2.1166666 c 0.2931583,0 0.5291667,0.23600833 0.5291667,0.52916666 v 1.5875 c 0,0.2931583 -0.2360084,0.5291666 -0.5291667,0.5291666 H 1.0583329 c -0.29315836,0 -0.52916669,-0.2360083 -0.52916669,-0.5291666 v -1.5875 c 0,-0.29315833 0.23600833,-0.52916666 0.52916669,-0.52916666 z"
     id="rect1037" />
  <path
     id="path14"
     d="M 0.52929688 1.4023438 L 0.52929688 1.7734375 L 3.7050781 1.7734375 L 3.7050781 1.4023438 L 0.52929688 1.4023438 z "
     style="color:#000000;font-style:normal;font-variant:normal;font-weight:normal;font-stretch:normal;font-size:medium;line-height:normal;font-family:sans-serif;font-variant-ligatures:normal;font-variant-position:normal;font-variant-caps:normal;font-variant-numeric:normal;font-variant-alternates:normal;font-variant-east-asian:normal;font-feature-settings:normal;font-variation-settings:normal;text-indent:0;text-align:start;text-decoration:none;text-decoration-line:none;text-decoration-style:solid;text-decoration-color:#000000;letter-spacing:normal;word-spacing:normal;text-transform:none;writing-mode:lr-tb;direction:ltr;text-orientation:mixed;dominant-baseline:auto;baseline-shift:baseline;text-anchor:start;white-space:normal;shape-padding:0;shape-margin:0;inline-size:0;clip-rule:nonzero;display:inline;overflow:visible;visibility:visible;isolation:auto;mix-blend-mode:normal;color-interpolation:sRGB;color-interpolation-filters:linearRGB;solid-color:#000000;solid-opacity:1;vector-effect:none;fill:#000000;fill-opacity:1;fill-rule:nonzero;stroke:none;stroke-width:0.370417;stroke-linecap:butt;stroke-linejoin:miter;stroke-miterlimit:4;stroke-dasharray:none;stroke-dashoffset:0;stroke-opacity:1;color-rendering:auto;image-rendering:auto;shape-rendering:auto;text-rendering:auto;enable-background:accumulate;stop-color:#000000;stop-opacity:1;opacity:1" />
</svg>
