<?xml version="1.0" encoding="UTF-8"?>
<svg xmlns="http://www.w3.org/2000/svg" width="16px" height="16px" viewBox="0 0 16 16">
  <g fill="#2e3436">
    <path d="m 1.00124814055,1.0027130542 l 13.9965443338,0 L 14.9977924744,14.9992552155 l -13.9965443338,0 z" fill="#2e3436" stroke-width="1.99950737" stroke-linecap="round" stroke-linejoin="round" fill-opacity="0"/>
    <path d="m 1.00369666966,7.55718825474E-06 a 0.999854,0.999854 0 0,0 -1.00368911247,1.00368906506 l 0,13.9926067555 a 0.999854,0.999854 0 0,0 1.00368911247,1.00368906506 l 13.9926070385,0 a 0.999854,0.999854 0 0,0 1.00368911247,-1.00368906506 L 15.9999928207,1.00369662225 a 0.999854,0.999854 0 0,0 -1.00368911247,-1.00368906506 z m 0.99630951779,1.99999815794 l 11.999988003,0 l 0,11.9999885698 l -11.999988003,0 z" fill="#2e3436" stroke-linecap="round" stroke-linejoin="round"/>
    <path d="m 4.847603978,5.52541892151 q 0,0.466550574085 -0.615846635737,0.466550574085 l -0.177291644827,0 l 1.34366435654,3.16321304344 l 1.34366813513,-3.16321304344 l -0.223957284503,0 q -0.298584522042,0 -0.457221246781,-0.0933086033794 q -0.158625388956,-0.102641730874 -0.158625388956,-0.373241970706 q 0,-0.270600239832 0.158625388956,-0.363908843212 q 0.158625388956,-0.102641730874 0.457221246781,-0.102641730874 l 1.23169327147,0 q 0.615846635737,0 0.615846635737,0.466550574085 q 0,0.466550574085 -0.634509113013,0.466550574085 L 5.8180301248,10.4988479657 L 4.89425828189,10.4988479657 L 3.00939719872,5.9919694956 q -0.634509113013,0 -0.634509113013,-0.466550574085 q 0,-0.270600239832 0.158625388956,-0.363908843212 q 0.158625388956,-0.102641730874 0.457221246781,-0.102641730874 l 1.24102262081,0 q 0.298584522042,0 0.457221246781,0.102641730874 q 0.158625388956,0.0933086033794 0.158625388956,0.363908843212 z m 7.19421306393,4.04032789601 q 0.615846635737,0 0.615846635737,0.466550574085 q 0,0.466550574085 -0.615846635737,0.466550574085 l -2.15546133578,0 q -0.615846635737,0 -0.615846635737,-0.466550574085 q 0,-0.270600239832 0.158625388956,-0.363908843212 q 0.158625388956,-0.102641730874 0.457221246781,-0.102641730874 l 0.606513507802,0 L 10.4928692139,5.9919694956 l -0.998417973413,0 l 0,0.867783992227 q 0,0.615846984508 -0.466550596122,0.615846984508 q -0.466550596122,0 -0.466550596122,-0.615846984508 L 8.56135004829,5.05886834743 l 4.81480200083,0 l 0,1.8008851404 q 0,0.298592065127 -0.102626621345,0.457219713747 q -0.0932934934094,0.158625381464 -0.363916417588,0.158625381464 q -0.466550596122,0 -0.466550596122,-0.615846984508 L 12.4430584141,5.9919694956 l -1.01708045069,0 l 0,3.57377732192 z" stroke-width="0.99975179"/>
  </g>
</svg>
