<?xml version="1.0" encoding="UTF-8"?>
<svg xmlns="http://www.w3.org/2000/svg" width="16px" height="16px" viewBox="0 0 16 16">
  <g fill="#2e3436">
    <path d="m 1.07066646479,5.32995951198 l 9.59513951031,0 l 0,9.59999016316 l -9.59513951031,0 z" fill="#2e3436" stroke-width="2.13279351" stroke-linecap="round" stroke-linejoin="round" fill-opacity="0"/>
    <path d="m 1.07058587569,4.25984589269 a 1.06623,1.06677 0 0,0 -1.06248667132,1.07086508942 l 0,9.59841586549 a 1.06623,1.06677 0 0,0 1.06248667132,1.07086508942 l 9.59356802289,0 A 1.06623,1.06677 0 0,0 11.7344577124,14.9291268476 L 11.7344577124,5.3307109821 a 1.06623,1.06677 0 0,0 -1.07030381385,-1.07086508942 z m 1.06244637677,2.13385627161 l 7.4686349748,0 l 0,7.47243390425 l -7.4686349748,0 z" fill="#2e3436" stroke-linecap="round" stroke-linejoin="round"/>
    <path d="m 10.6660477424,14.9299597539 l 4.26449301751,-4.26666516158 l 0,-9.59999056631 l -8.52902632957,0 l -5.33060619825,4.26666516158" fill="#2e3436" stroke-width="2.13279351" stroke-linecap="round" stroke-linejoin="round" fill-opacity="0"/>
    <path d="m 6.39857292825,7.65983499207E-06 a 1.06623,1.06677 0 0,0 -0.661072372939,0.228347744112 L 0.401615771125,4.49606633457 a 1.06613,1.06667 0 0,0 -0.165207651411,1.50393563078 a 1.06613,1.06667 0 0,0 1.50318815509,0.165355680028 l 5.03681864058,-4.03149210134 l 7.09091387131,0 L 13.8673287867,10.2204718715 L 9.90871169159,14.1732236912 a 1.06613,1.06667 0 0,0 0,1.511809538 a 1.06613,1.06667 0 0,0 1.51104559217,0 l 4.26554067579,-4.26771214007 a 1.06623,1.06677 0 0,0 0.314700428664,-0.755904769001 L 15.9999983882,1.06299884203 a 1.06623,1.06677 0 0,0 -1.07030381385,-1.06299118219 z" fill="#2e3436" stroke-linecap="round" stroke-linejoin="round"/>
    <path d="m 10.6660477424,5.32996918756 l 3.19837983677,-3.19999685544" fill="#2e3436" stroke-width="2.13279351" fill-opacity="0"/>
    <path d="m 13.1117254015,1.37795916245 l -3.20309429902,3.19684705066 l 1.51104559217,1.511809538 l 3.19519656739,-3.20472095788 z" fill="#2e3436"/>
  </g>
</svg>
