<?xml version="1.0" encoding="UTF-8"?>
<svg xmlns="http://www.w3.org/2000/svg" width="16px" height="16px" viewBox="0 0 16 16">
  <g fill="#2e3436">
    <path d="m 1.00121798737,1.00025054441 l 13.9965443338,0 l 0,13.9965436727 l -13.9965443338,0 z" fill="#2e3436" stroke-width="1.99950737" stroke-linecap="round" stroke-linejoin="round" fill-opacity="0"/>
    <path d="m 1.00369674523,7.55718826895E-06 a 0.999854,0.999854 0 0,0 -1.00368911247,1.00368906506 l 0,13.9926063776 a 0.999854,0.999854 0 0,0 1.00368911247,1.00368906506 l 13.9926070385,0 a 0.999854,0.999854 0 0,0 1.00368911247,-1.00368906506 l 0,-13.9926063776 a 0.999854,0.999854 0 0,0 -1.00368911247,-1.00368906506 z m 0.99630951779,1.99999853579 l 11.999988003,0 l 0,11.9999874362 l -11.999988003,0 z" fill="#2e3436" stroke-linecap="round" stroke-linejoin="round"/>
    <path d="m 6.41678239989,9.7253644578 q 0.298584522042,0 0.457221246781,0.102626616497 q 0.158625388956,0.0932934890029 0.158625388956,0.3639164004 q 0,0.466550574085 -0.615846635737,0.466550574085 l -2.81796605401,0 q -0.615846635737,0 -0.615846635737,-0.466550574085 q 0,-0.270585125456 0.158625388956,-0.3639164004 q 0.158625388956,-0.102626616497 0.457217468186,-0.102626616497 l 0.942434320179,0 l 0,-3.57377921122 l -0.942434320179,0 q -0.615846635737,0 -0.615846635737,-0.466550574085 q 0,-0.270585125456 0.158625388956,-0.3639164004 q 0.158625388956,-0.102626616497 0.457217468186,-0.102626616497 l 2.81796605401,0 q 0.298584522042,0 0.457221246781,0.102626616497 q 0.158625388956,0.0933312749442 0.158625388956,0.3639164004 q 0,0.466550574085 -0.615846635737,0.466550574085 L 5.47435185831,6.15158524658 l 0,3.57377921122 z m 2.12747328776,0.933101148171 q -0.615846635737,0 -0.615846635737,-0.466550574085 q 0,-0.466550574085 0.615846635737,-0.466550574085 l 0.139959133086,0 l 0,-3.57377921122 l -0.139959133086,0 q -0.615846635737,0 -0.615846635737,-0.466550574085 q 0,-0.270585125456 0.158625388956,-0.3639164004 q 0.167958516891,-0.102626616497 0.457217468186,-0.102626616497 l 2.36074858582,0 q 0.793134501969,0 1.30633940198,0.43855874879 q 0.52253802795,0.43855874879 0.52253802795,1.10105965713 q 0,0.597184130254 -0.58785480912,1.05440535544 q 0.989088624072,0.49454239938 0.989088624072,1.35299364197 q 0,0.671834035833 -0.503875550674,1.08239718073 q -0.503875550674,0.410566923495 -1.3343350072,0.410566923495 z m 1.07306788252,-3.19120789161 l 1.05440540524,0 q 0.50387177208,0 0.811796979245,-0.195957891442 q 0.317250777912,-0.205291018936 0.317250777912,-0.522538003269 q 0,-0.27991825295 -0.251956668309,-0.438554970196 q -0.251956668309,-0.158625381464 -0.690496544842,-0.158625381464 l -1.24102262081,0 z m 2.58469075595,1.75423121657 q 0,-0.373249527894 -0.363916417588,-0.597184130254 q -0.363916417588,-0.223957273925 -0.961096797455,-0.223957273925 L 9.61731601298,8.40034752675 l 0,1.32500559527 l 1.63292708643,0 q 0.951763669519,0 0.951763669519,-0.503875526875 z" stroke-width="0.99975179"/>
  </g>
</svg>
