<?xml version="1.0" encoding="UTF-8"?>
<svg xmlns="http://www.w3.org/2000/svg" width="16px" height="16px" viewBox="0 0 16 16">
  <g fill="#2e3436">
    <path d="m 14.9380289973,0.00169573898094 a 0.998841,1.00024 0 0,0 -0.221163823663,0.0369312747298 l -6.98923357501,2.00076220368 a 1.00005,1.00145 0 1,0 0.545571404639,1.92694917312 l 5.26403495778,-1.50612126665 l -1.50400837018,5.27142462227 a 1.00005,1.00145 0 1,0 1.92424605853,0.546337917525 l 1.99797488263,-6.99903412148 A 0.998841,1.00024 0 0,0 14.9380289973,0.00169573898094 Z" fill="#2e3436" stroke-width="1.99888549" stroke-linecap="round" stroke-linejoin="round"/>
    <path d="m 11.9836932731,10.3138364065 q 0,0.533411215356 -0.703115240522,0.533411215356 l -0.202403212575,0 l 1.53407064517,3.61652807792 l 1.53407064517,-3.61652807792 l -0.255665229163,0 q -0.340899554787,0 -0.52200928504,-0.106681109051 q -0.181113505024,-0.117352244011 -0.181113505024,-0.426728972285 q 0,-0.309379752329 0.181113505024,-0.41606086138 q 0.181113505024,-0.117352244011 0.52200928504,-0.117352244011 l 1.40623425581,0 q 0.703115240522,0 0.703115240522,0.533411215356 q 0,0.533411215356 -0.724423821928,0.533411215356 l -2.18392009433,5.15275241594 L 12.0369817131,15.9999992818 L 9.88502260345,10.8472468658 q -0.724423821928,0 -0.724423821928,-0.533411215356 q 0,-0.309379752329 0.181113505024,-0.41606086138 q 0.181113505024,-0.117352244011 0.52200928504,-0.117352244011 l 1.41688665913,0 q 0.340899554787,0 0.52200928504,0.117352244011 q 0.181113505024,0.106681109051 0.181113505024,0.41606086138 z" stroke-width="0.99944086"/>
    <path d="M 0.99939700395,14.9219470975 L 13.9830346227,1.92008229966" fill="#2e3436" stroke-width="1.99888549" stroke-dasharray="1.99888549, 3.99775587" stroke-linecap="round" fill-opacity="0"/>
    <path d="m 13.9849975036,0.923386576157 a 0.998742,1.00014 0 0,0 -0.70776953297,0.287935420544 l -0.272802688788,0.27317047079 a 0.998742,1.00014 0 0,0 0,1.41752589802 a 0.998742,1.00014 0 0,0 1.41553906594,0 l 0.272802688788,-0.27317047079 a 0.998742,1.00014 0 0,0 0,-1.41752589802 a 0.998742,1.00014 0 0,0 -0.70776953297,-0.287935420544 z m -3.80425935233,3.38877294446 l -1.41553906594,1.41752589802 a 0.998742,1.00014 0 0,0 0,1.41014304514 a 0.998742,1.00014 0 0,0 1.41553906594,0 l 1.41553906594,-1.41014304514 a 0.998742,1.00014 0 0,0 0,-1.41752589802 a 0.998742,1.00014 0 0,0 -1.41553906594,0 z m -4.23924507037,4.24519484118 l -1.40816693849,1.41752589802 a 0.998742,1.00014 0 0,0 0,1.41014304514 a 0.998742,1.00014 0 0,0 1.40816693849,0 l 1.41553906594,-1.41014304514 a 0.998742,1.00014 0 0,0 0,-1.41752589802 a 0.998742,1.00014 0 0,0 -1.41553906594,0 z m -4.23924507037,4.24519484118 l -1.40816693849,1.41014278053 a 0.998742,1.00014 0 0,0 0,1.41752586022 a 0.998742,1.00014 0 0,0 1.40816693849,0 l 1.41553906594,-1.41752586022 a 0.998742,1.00014 0 0,0 0,-1.41014278053 a 0.998742,1.00014 0 0,0 -1.41553906594,0 z" fill="#2e3436" stroke-dasharray="1.99888549, 3.99775587" stroke-linecap="round"/>
  </g>
</svg>
