<?xml version="1.0" encoding="UTF-8"?>
<svg xmlns="http://www.w3.org/2000/svg" width="16px" height="16px" viewBox="0 0 16 16">
  <g fill="#2e3436">
    <path d="M 7.92105189507,13.1123593013 L 0.984984715702,15.0011330866 L 3.06762662983,8.03234366106" fill="#2e3436" stroke-width="1.98667664" stroke-linecap="round" stroke-linejoin="round" fill-opacity="0"/>
    <path d="m 3.35565193239,7.075705058 a 0.986508,1.00022 0 0,0 -1.23070610387,0.664513431118 l -2.08273512741,6.97000556159 A 0.986606,1.00032 0 0,0 1.24378951966,15.9654155412 l 6.93273760106,-1.89017099975 a 0.986508,1.00022 0 0,0 0.699099590022,-1.22565756864 a 0.986508,1.00022 0 0,0 -1.20886063988,-0.701430738948 l -5.22139773265,1.42501163577 l 1.56568852769,-5.24965470711 A 0.986508,1.00022 0 0,0 3.35565193239,7.075705058 Z" fill="#2e3436" stroke-linecap="round" stroke-linejoin="round"/>
    <path d="M 7.12399633476,8.99984016241 L 2.60459526084,13.6134610229" fill="#2e3436" stroke-width="1.98667664" fill-opacity="0"/>
    <path d="m 6.42149632433,8.29397924068 l -4.51502004983,4.61467557589 l 1.39819918004,1.41024486386 l 4.52230187116,-4.61467557589 z" fill="#2e3436"/>
    <path d="M 7.12399633476,8.99984016241 L 14.0295454867,7.99962480106 L 15.0160514431,0.998116137446 L 8.11050229117,1.99833187684 Z" fill="#2e3436" stroke-width="1.98667664" stroke-linejoin="round" fill-opacity="0"/>
    <path d="M 14.8762315251,0.00971434483613 L 7.97262120936,1.0064843025 A 0.986606,1.00032 0 0,0 7.13515955701,1.85558427277 L 6.14476847115,8.85512375623 A 0.986606,1.00032 0 0,0 7.26623979801,9.99217993729 L 14.1698501137,8.98802659367 A 0.986606,1.00032 0 0,0 15.0073117661,8.13892624536 L 15.9904210306,1.1393867619 A 0.986606,1.00032 0 0,0 14.8762315251,0.00971434483613 Z m -1.01952209971,2.17074306851 l -0.699099590022,4.93216495248 l -4.86456611631,0.701430738948 l 0.691817768693,-4.93216495248 z" fill="#2e3436" stroke-linejoin="round"/>
  </g>
</svg>
