<?xml version="1.0" encoding="UTF-8" standalone="no"?>
<svg
   width="16.003952"
   height="16.003952"
   viewBox="0 0 4.2343789 4.2343791"
   version="1.1"
   id="svg4268"
   xmlns="http://www.w3.org/2000/svg"
   xmlns:svg="http://www.w3.org/2000/svg"
   xmlns:rdf="http://www.w3.org/1999/02/22-rdf-syntax-ns#"
   xmlns:cc="http://creativecommons.org/ns#"
   xmlns:dc="http://purl.org/dc/elements/1.1/">
  <defs
     id="defs4262" />
  <metadata
     id="metadata4265">
    <rdf:RDF>
      <cc:Work
         rdf:about="">
        <dc:format>image/svg+xml</dc:format>
        <dc:type
           rdf:resource="http://purl.org/dc/dcmitype/StillImage" />
      </cc:Work>
    </rdf:RDF>
  </metadata>
  <g
     id="enumeration"
     style="display:inline"
     transform="translate(-25.134764,-15.345701)">
    <g
       id="rect1264-7-9-0">
      <path
         style="color:#000000;fill:#000000;fill-opacity:0;stroke-width:0.529167;stroke-linecap:round;stroke-linejoin:round;-inkscape-stroke:none"
         d="m 25.4,15.610416 h 3.704166 v 3.704167 H 25.4 Z"
         id="path3540" />
      <path
         style="color:#000000;fill:#000000;stroke-linecap:round;stroke-linejoin:round;-inkscape-stroke:none"
         d="m 25.400391,15.345703 a 0.26460996,0.26460996 0 0 0 -0.265625,0.265625 v 3.703125 a 0.26460996,0.26460996 0 0 0 0.265625,0.265625 h 3.703125 a 0.26460996,0.26460996 0 0 0 0.265625,-0.265625 V 15.611328 A 0.26460996,0.26460996 0 0 0 29.103516,15.345703 Z M 25.664062,15.875 h 3.175782 v 3.175781 h -3.175782 z"
         id="path3542" />
    </g>
    <path
       d="m 26.926561,17.748201 q 0,-0.165452 0.123472,-0.165452 0.123472,0 0.123472,0.165452 v 0.375355 h -1.163106 q -0.162983,0 -0.162983,-0.123472 0,-0.123472 0.162983,-0.123472 h 0.03704 v -0.945795 h -0.03704 q -0.162983,0 -0.162983,-0.123472 0,-0.07161 0.04198,-0.09631 0.04198,-0.02716 0.121002,-0.02716 h 1.108779 v 0.370416 q 0,0.165452 -0.123472,0.165452 -0.123472,0 -0.123472,-0.165452 v -0.123472 h -0.577849 v 0.348191 h 0.209902 v -0.01729 q 0,-0.165453 0.121003,-0.165453 0.123472,0 0.123472,0.165453 v 0.279046 q 0,0.162983 -0.121003,0.162983 -0.123472,0 -0.123472,-0.162983 v -0.01729 h -0.209902 v 0.35313 h 0.632176 z m 1.669343,-1.064328 q 0.162983,0 0.162983,0.123472 0,0.123472 -0.150636,0.123472 v 1.192739 h -0.244475 l -0.639585,-0.972959 v 0.726015 h 0.08643 q 0.07902,0 0.121002,0.02716 0.04198,0.02469 0.04198,0.09631 0,0.123472 -0.162983,0.123472 h -0.318558 q -0.165452,0 -0.165452,-0.123472 0,-0.123472 0.150635,-0.123472 v -0.945795 h -0.03704 q -0.162983,0 -0.162983,-0.123472 0,-0.07161 0.04198,-0.09631 0.04198,-0.02716 0.121003,-0.02716 h 0.283985 l 0.637116,0.96802 v -0.721076 h -0.08643 q -0.162983,0 -0.162983,-0.123472 0,-0.07161 0.04198,-0.09631 0.04198,-0.02716 0.121002,-0.02716 z"
       id="text84-8-3-5-4-9"
       style="font-weight:bold;font-size:2.46944px;line-height:1.25;font-family:FreeMono;-inkscape-font-specification:'FreeMono, Bold';letter-spacing:0px;word-spacing:0px;stroke-width:0.264583"
       aria-label="EN" />
  </g>
</svg>
