<?xml version="1.0" encoding="UTF-8" standalone="no"?>
<svg
   width="16.066"
   height="10.091066"
   viewBox="0 0 4.2507957 2.669928"
   version="1.1"
   id="svg4268"
   xmlns="http://www.w3.org/2000/svg"
   xmlns:svg="http://www.w3.org/2000/svg"
   xmlns:rdf="http://www.w3.org/1999/02/22-rdf-syntax-ns#"
   xmlns:cc="http://creativecommons.org/ns#"
   xmlns:dc="http://purl.org/dc/elements/1.1/">
  <defs
     id="defs4262" />
  <metadata
     id="metadata4265">
    <rdf:RDF>
      <cc:Work
         rdf:about="">
        <dc:format>image/svg+xml</dc:format>
        <dc:type
           rdf:resource="http://purl.org/dc/dcmitype/StillImage" />
      </cc:Work>
    </rdf:RDF>
  </metadata>
  <g
     id="dormant-event"
     style="display:inline"
     transform="translate(-85.716395,-45.224965)">
    <path
       style="color:#000000;fill:#000000;stroke-width:0.0402598;stroke-miterlimit:10;-inkscape-stroke:none"
       d="m 87.804835,45.248079 c -0.695979,0.437408 -1.392261,0.874636 -2.08844,1.311849 0.70846,0.444924 1.416962,0.889784 2.125272,1.334965 0.708382,-0.445188 1.416987,-0.890027 2.125524,-1.334965 -0.708537,-0.444943 -1.417142,-0.889785 -2.125524,-1.334963 -0.01225,0.0081 -0.02456,0.01536 -0.03681,0.02316 z m 1.374078,1.311849 c -0.445747,0.279948 -0.891503,0.5599 -1.337246,0.839845 -0.445584,-0.279945 -0.891162,-0.559897 -1.33674,-0.839845 0.445578,-0.279948 0.891156,-0.559898 1.33674,-0.839848 0.445743,0.27995 0.891499,0.5599 1.337246,0.839848 z"
       id="polygon1570" />
    <path
       style="color:#000000;fill:#000000;stroke-width:0.0245294;stroke-miterlimit:10;-inkscape-stroke:none"
       d="m 87.805336,46.010191 c -0.296947,0.185727 -0.594949,0.372885 -0.892172,0.559391 0.309497,0.194306 0.61911,0.388427 0.928753,0.582506 0.309722,-0.194095 0.619447,-0.388171 0.929016,-0.582506 -0.309569,-0.19434 -0.619294,-0.388415 -0.929016,-0.582511 -0.01213,0.008 -0.02441,0.0154 -0.03659,0.02316 z m 0.38284,0.559391 c -0.115421,0.07232 -0.230839,0.144626 -0.346259,0.216945 -0.115327,-0.07232 -0.230659,-0.144627 -0.345995,-0.216945 0.115336,-0.07242 0.230668,-0.144801 0.345995,-0.2172 0.11542,0.07242 0.230838,0.144797 0.346259,0.2172 z"
       id="polygon1572" />
  </g>
</svg>
