<?xml version="1.0" encoding="UTF-8"?>
<svg xmlns="http://www.w3.org/2000/svg" width="16px" height="16px" viewBox="0 0 16 16">
  <g fill="#2e3436">
    <path d="m 7.61690609963,0.00533615293801 c -2.45420396094,0.140232076025 -5.09026096625,1.22940790871 -6.78153188153,4.32299199486 c -0.968456331317,1.86003496871 -1.15879515332,4.78324783068 -0.23135276776,6.7787224537 c 1.16907189908,2.76926105623 3.24124917508,4.03614848462 5.19875409479,4.584798579 c 2.7999809855,0.757702104916 5.85127124091,0.177471342381 8.25765014998,-2.40460707891 c 1.24046640183,-1.36248296444 2.21560203641,-3.81160645667 1.86871244073,-6.32690709676 c -0.37428132921,-2.87383447992 -2.00335680539,-4.73268714934 -3.59299997001,-5.72193656356 c -1.49801692436,-0.947268305792 -3.11913383431,-1.28619620928 -4.71924757242,-1.23306228832 z m 0.379941098663,3.07956087855 c 1.84056090254,0.043624947005 3.79569337094,0.623394170245 5.2724396412,2.52606778281 c 0.62223737955,0.81632391776 1.12129724242,2.29150466196 0.637313299688,3.53244473057 c -0.644407394276,1.80975879791 -1.9410489462,2.61288774981 -3.11062867391,3.18755475099 c -1.93050859473,0.811778071833 -3.95833033506,0.761413386639 -5.87667042547,-0.121327932323 c -1.05506631016,-0.557261279568 -2.1698044225,-1.38481387934 -2.80194252204,-2.93786831517 c -0.405448826744,-1.03782484434 -0.226894730178,-2.41243427955 0.324157480565,-3.21297102446 c 1.23584167241,-2.02789617784 3.06128788926,-2.67424718614 4.74885281852,-2.92179030934 c 0.268141269202,-0.0404637189611 0.537561801363,-0.0373024909173 0.806486134558,-0.051844139919 z" fill="#2e3436" stroke-width="0.83084483"/>
  </g>
</svg>
