<?xml version="1.0" encoding="UTF-8" standalone="no"?>
<svg
   width="16.000013"
   height="16.000002"
   viewBox="0 0 4.2333368 4.233334"
   version="1.1"
   id="svg4268"
   xmlns="http://www.w3.org/2000/svg"
   xmlns:svg="http://www.w3.org/2000/svg"
   xmlns:rdf="http://www.w3.org/1999/02/22-rdf-syntax-ns#"
   xmlns:cc="http://creativecommons.org/ns#"
   xmlns:dc="http://purl.org/dc/elements/1.1/">
  <defs
     id="defs4262" />
  <metadata
     id="metadata4265">
    <rdf:RDF>
      <cc:Work
         rdf:about="">
        <dc:format>image/svg+xml</dc:format>
        <dc:type
           rdf:resource="http://purl.org/dc/dcmitype/StillImage" />
        <dc:title />
      </cc:Work>
    </rdf:RDF>
  </metadata>
  <g
     id="operational-situation"
     style="display:inline"
     transform="translate(-119.0625,-39.158333)">
    <path
       id="rect707"
       style="fill-opacity:0;stroke:#000000;stroke-width:0.529167;stroke-linecap:round;stroke-linejoin:round"
       d="m 119.32708,39.422916 h 3.70417 v 3.704167 h -3.70417 z" />
    <g
       aria-label="O"
       transform="scale(1.1288445,0.8858616)"
       id="text687-0"
       style="font-weight:bold;font-size:2.50011px;line-height:1.25;-inkscape-font-specification:'sans-serif Bold';letter-spacing:0px;word-spacing:0px;display:inline;stroke-width:0.234384">
      <path
         d="m 107.34856,45.701078 q -0.20692,0 -0.30213,0.221566 -0.0952,0.219735 -0.0952,0.712307 0,0.490741 0.0952,0.712307 0.0952,0.219735 0.30213,0.219735 0.20875,0 0.30397,-0.219735 0.0952,-0.221566 0.0952,-0.712307 0,-0.492572 -0.0952,-0.712307 -0.0952,-0.221566 -0.30397,-0.221566 z m -0.95951,0.933873 q 0,-0.70132 0.24171,-1.06022 0.24354,-0.3589 0.7178,-0.3589 0.47609,0 0.7178,0.3589 0.24354,0.3589 0.24354,1.06022 0,0.699489 -0.24354,1.058389 -0.24171,0.3589 -0.7178,0.3589 -0.47426,0 -0.7178,-0.3589 -0.24171,-0.3589 -0.24171,-1.058389 z"
         style="font-size:3.75014px;font-family:FreeMono;-inkscape-font-specification:'FreeMono Bold'"
         id="path1408" />
    </g>
  </g>
</svg>
