<?xml version="1.0" encoding="UTF-8"?>
<svg xmlns="http://www.w3.org/2000/svg" width="16px" height="16px" viewBox="0 0 16 16">
  <g fill="#2e3436">
    <path d="m 14.854484575,7.99786627985 a 6.85546,6.85546 0 0,1 -6.85545621442,6.85545541252 a 6.85546,6.85546 0 0,1 -6.85545621442,-6.85545541252 a 6.85546,6.85546 0 0,1 6.85545621442,-6.85545584436 a 6.85546,6.85546 0 0,1 6.85545621442,6.85545584436 z" fill="#2e3436" stroke-width="2.28515345" stroke-linecap="round" stroke-linejoin="round" fill-opacity="0"/>
    <path d="m 7.99578092553,1.72735896342E-06 c -4.4036514211,0 -7.99578092553,3.59212887868 -7.99578092553,7.99578265312 c 0,4.40365334259 3.59212950443,8.00421691504 7.99578092553,8.00421691504 c 4.4036557395,0 8.00421907447,-3.60056357245 8.00421907447,-8.00421691504 c 0,-4.40365377443 -3.60056333497,-7.99578265312 -8.00421907447,-7.99578265312 z m 0,2.28571391557 c 3.16866743426,0 5.71850417184,2.54140233801 5.71850417184,5.71006873755 c 0,3.1686659677 -2.54983673758,5.71850256764 -5.71850417184,5.71850256764 c -3.16866743426,0 -5.7100660229,-2.54983659994 -5.7100660229,-5.71850256764 c 0,-3.16866639954 2.54139858864,-5.71006873755 5.7100660229,-5.71006873755 z" fill="#2e3436" stroke-linecap="round" stroke-linejoin="round"/>
  </g>
</svg>
