<?xml version="1.0" encoding="UTF-8"?>
<svg xmlns="http://www.w3.org/2000/svg" width="16px" height="16px" viewBox="0 0 16 16">
  <g fill="#2e3436">
    <path d="m 1.0002022718,1.0027075778 l 14.0030208222,0 l 0,13.9965568945 l -14.0030208222,0 z" fill="#2e3436" stroke-width="1.99997005" stroke-linecap="round" stroke-linejoin="round" fill-opacity="0"/>
    <path d="m 0.996762162694,0 a 1.00032,0.999855 0 0,0 -0.996762162694,1.0036900132 l 0,13.9926195957 a 1.00032,0.999855 0 0,0 0.996762162694,1.0036900132 l 14.0064609313,0 a 1.00032,0.999855 0 0,0 0.996762162694,-1.0036900132 l 0,-13.9926195957 a 1.00032,0.999855 0 0,0 -0.996762162694,-1.0036900132 z m 1.00417162846,2.00000042509 l 12.0055271401,0 l 0,11.999998772 l -12.0055271401,0 z" fill="#2e3436" stroke-linecap="round" stroke-linejoin="round"/>
    <path d="m 5.83760052957,10.0323091358 q 0,-0.270585381064 0.158774266443,-0.363916744173 q 0.158774266443,-0.102626713444 0.457421100944,-0.102626713444 l 0.214723293666,0 l -0.214723293666,-0.541200990909 l -2.22181903849,0 l -0.214723293666,0.541200990909 l 0.214723293666,0 q 0.616157563991,0 0.616157563991,0.466551014812 q 0,0.466551014812 -0.616157563991,0.466551014812 l -1.24157696019,0 q -0.616119760594,0 -0.616119760594,-0.466551014812 q 0,-0.279918517375 0.167847081669,-0.373249880484 q 0.158774266443,-0.0932935771326 0.457421100944,-0.0932935771326 l 1.44696281485,-3.57378258719 l -0.588107443586,0 q -0.625495002993,0 -0.625495002993,-0.466551014812 q 0,-0.279918517375 0.158774266443,-0.373249880484 q 0.167847081669,-0.0933313631095 0.466796343344,-0.0933313631095 l 2.01643318383,0 l 1.85769672078,4.50688461681 q 0.634832441996,0 0.634832441996,0.466551014812 q 0,0.466551014812 -0.616157563991,0.466551014812 l -1.29760159421,0 q -0.616119760594,0 -0.616119760594,-0.466551014812 z m 0.233246958085,-1.94085403535 l -0.72813122523,-1.79155408315 l -0.73750646763,1.79155408315 z m 4.90105917793,-3.16321527585 q 0.205272444473,0 0.485433417952,0.0653319541767 q 0.280123170082,0.0559988178657 0.662806955608,0.251956894419 q 0.392096831322,0.195958076553 0.700156711619,0.494546645147 q 0.317548532887,0.298584789997 0.532120612966,0.849122695814 q 0.224174142859,0.541197212311 0.224174142859,1.23169437682 q 0,1.14771504301 -0.774818420244,1.9781752448 q -0.765480981241,0.83046020179 -1.82972220717,0.83046020179 q -1.08287830054,0 -1.84839708518,-0.83046020179 q -0.756143542238,-0.839793338101 -0.756143542238,-2.02482959056 q 0,-1.17571067334 0.765480981241,-2.00617087513 q 0.765480981241,-0.839793338101 1.83905964618,-0.839793338101 z m 0,0.933102029624 q -0.681481833613,0 -1.17625269057,0.569192842646 q -0.494770856955,0.559863484933 -0.494770856955,1.34366934096 q 0,0.793135213741 0.485433417952,1.36232805639 q 0.494770856955,0.559859706335 1.18559012957,0.559859706335 q 0.681481833613,0 1.17625269057,-0.559859706335 q 0.494770856955,-0.559863484933 0.494770856955,-1.33433620465 q 0,-0.802468350052 -0.494770856955,-1.3716611927 q -0.485433417952,-0.569192842646 -1.17625269057,-0.569192842646 z" stroke-width="0.99998314"/>
  </g>
</svg>
