<?xml version="1.0" encoding="UTF-8" standalone="no"?>
<svg
   width="16.042131"
   height="16.001707"
   viewBox="0 0 4.2444805 4.2337851"
   version="1.1"
   id="svg4268"
   xmlns="http://www.w3.org/2000/svg"
   xmlns:svg="http://www.w3.org/2000/svg"
   xmlns:rdf="http://www.w3.org/1999/02/22-rdf-syntax-ns#"
   xmlns:cc="http://creativecommons.org/ns#"
   xmlns:dc="http://purl.org/dc/elements/1.1/">
  <defs
     id="defs4262" />
  <metadata
     id="metadata4265">
    <rdf:RDF>
      <cc:Work
         rdf:about="">
        <dc:format>image/svg+xml</dc:format>
        <dc:type
           rdf:resource="http://purl.org/dc/dcmitype/StillImage" />
        <dc:title />
      </cc:Work>
    </rdf:RDF>
  </metadata>
  <g
     id="satisfy"
     style="display:inline"
     transform="translate(-77.787327,9.7896663)">
    <path
       style="color:#000000;fill:#000000;stroke-width:0.529167;stroke-linecap:round;stroke-linejoin:round;-inkscape-stroke:none"
       d="m 81.739446,-9.7892177 a 0.26460979,0.26460979 0 0 0 -0.05859,0.00977 l -1.851562,0.5292968 a 0.26492937,0.26492937 0 1 0 0.144531,0.5097657 l 1.394527,-0.3984379 -0.398437,1.3945313 a 0.26492954,0.26492954 0 1 0 0.509766,0.1445312 l 0.529296,-1.8515625 a 0.26460979,0.26460979 0 0 0 -0.269531,-0.3378946 z"
       id="path4594-6-2-7" />
    <g
       aria-label="S"
       id="text150"
       style="font-weight:bold;font-size:2.82223px;line-height:1.25;-inkscape-font-specification:'sans-serif Bold';letter-spacing:0px;word-spacing:0px;stroke-width:0.264583">
      <path
         d="m 81.204983,-6.501103 q -0.307303,-0.1171336 -0.416168,-0.2452915 -0.108866,-0.1295359 -0.108866,-0.3472666 0,-0.2797425 0.179146,-0.4395954 0.179145,-0.1598529 0.491961,-0.1598529 0.141938,0 0.283877,0.033073 0.141938,0.031695 0.28112,0.095085 v 0.3968761 q -0.130914,-0.092329 -0.265962,-0.1405602 -0.135048,-0.048231 -0.26734,-0.048231 -0.147451,0 -0.225999,0.059256 -0.07855,0.059256 -0.07855,0.1694992 0,0.085439 0.0565,0.1419383 0.05788,0.055122 0.23978,0.1226457 l 0.175011,0.066146 q 0.248048,0.090951 0.365181,0.2411573 0.117134,0.1502066 0.117134,0.3789616 0,0.3114375 -0.184658,0.4657782 -0.18328,0.1529626 -0.555351,0.1529626 -0.152963,0 -0.307303,-0.037207 -0.152963,-0.035829 -0.296279,-0.1074873 v -0.4203028 q 0.162609,0.1157555 0.314193,0.1722553 0.152963,0.0565 0.301791,0.0565 0.150207,0 0.23289,-0.067524 0.08268,-0.068902 0.08268,-0.1915478 0,-0.092329 -0.05512,-0.1612309 -0.05512,-0.07028 -0.159852,-0.1102434 z"
         style="font-family:FreeMono;-inkscape-font-specification:'FreeMono Bold'"
         id="path1671" />
    </g>
    <g
       id="path4598-1-2-5">
      <path
         style="color:#000000;fill:#000000;fill-opacity:0;stroke-width:0.529167;stroke-linecap:round;stroke-dasharray:0.529167, 1.05833;-inkscape-stroke:none"
         d="m 78.052084,-5.8208333 3.439583,-3.4395839"
         id="path2556" />
      <path
         style="color:#000000;fill:#000000;stroke-linecap:round;stroke-dasharray:0.529167, 1.05833;-inkscape-stroke:none"
         d="M 81.304687,-9.4472656 81.232422,-9.375 a 0.2645835,0.2645835 0 0 0 0,0.3730469 0.2645835,0.2645835 0 0 0 0.375,0 l 0.07227,-0.072266 a 0.2645835,0.2645835 0 0 0 0,-0.3730468 0.2645835,0.2645835 0 0 0 -0.375,0 z m -0.820312,0.8203125 -0.375,0.3730468 a 0.2645835,0.2645835 0 0 0 0,0.3750001 0.2645835,0.2645835 0 0 0 0.375,0 l 0.375,-0.3750001 a 0.2645835,0.2645835 0 0 0 0,-0.3730468 0.2645835,0.2645835 0 0 0 -0.375,0 z m -1.123047,1.1230469 -0.373047,0.3730468 a 0.2645835,0.2645835 0 0 0 0,0.375 0.2645835,0.2645835 0 0 0 0.373047,0 l 0.375,-0.375 a 0.2645835,0.2645835 0 0 0 0,-0.3730468 0.2645835,0.2645835 0 0 0 -0.375,0 z m -0.935547,1.0449218 a 0.2645835,0.2645835 0 0 0 -0.1875,0.076172 l -0.373047,0.375 a 0.2645835,0.2645835 0 0 0 0,0.375 0.2645835,0.2645835 0 0 0 0.373047,0 l 0.375,-0.375 a 0.2645835,0.2645835 0 0 0 0,-0.375 0.2645835,0.2645835 0 0 0 -0.1875,-0.076172 z"
         id="path2558" />
    </g>
  </g>
</svg>
