<?xml version="1.0" encoding="UTF-8" standalone="no"?>
<svg
   width="16.003937"
   height="12.002955"
   viewBox="0 0 4.2343748 3.175782"
   version="1.1"
   id="svg4268"
   xmlns="http://www.w3.org/2000/svg"
   xmlns:svg="http://www.w3.org/2000/svg"
   xmlns:rdf="http://www.w3.org/1999/02/22-rdf-syntax-ns#"
   xmlns:cc="http://creativecommons.org/ns#"
   xmlns:dc="http://purl.org/dc/elements/1.1/">
  <defs
     id="defs4262" />
  <metadata
     id="metadata4265">
    <rdf:RDF>
      <cc:Work
         rdf:about="">
        <dc:format>image/svg+xml</dc:format>
        <dc:type
           rdf:resource="http://purl.org/dc/dcmitype/StillImage" />
      </cc:Work>
    </rdf:RDF>
  </metadata>
  <g
     id="value-specification-action"
     style="display:inline"
     transform="translate(-25.164278,-51.739143)">
    <g
       id="g4"
       transform="translate(23.842012,17.608284)">
      <path
         style="color:#000000;fill:#000000;fill-opacity:0;stroke-width:0.529167;-inkscape-stroke:none"
         d="m 2.6458344,34.395832 h 1.5874973 c 0.5863174,0 1.0583347,0.472017 1.0583347,1.058335 v 0.529164 c 0,0.586317 -0.4720173,1.058334 -1.0583347,1.058334 H 2.6458344 c -0.5863174,0 -1.0583347,-0.472017 -1.0583347,-1.058334 v -0.529164 c 0,-0.586318 0.4720173,-1.058335 1.0583347,-1.058335 z"
         id="path3" />
      <path
         style="color:#000000;fill:#000000;-inkscape-stroke:none"
         d="m 2.6464844,34.130859 c -0.7283194,0 -1.3242188,0.5959 -1.3242188,1.324219 v 0.527344 c 0,0.728319 0.5958994,1.324219 1.3242188,1.324219 h 1.5859375 c 0.7283194,0 1.3242187,-0.5959 1.3242187,-1.324219 v -0.527344 c 0,-0.728319 -0.5958993,-1.324219 -1.3242187,-1.324219 z m 0,0.529297 h 1.5859375 c 0.4443143,0 0.7949218,0.350608 0.7949218,0.794922 v 0.527344 c 0,0.444314 -0.3506075,0.794922 -0.7949218,0.794922 H 2.6464844 c -0.4443143,0 -0.7949219,-0.350608 -0.7949219,-0.794922 v -0.527344 c 0,-0.444314 0.3506076,-0.794922 0.7949219,-0.794922 z"
         id="path4" />
    </g>
    <path
       style="font-weight:bold;font-size:3.175px;font-family:FreeMono;-inkscape-font-specification:'FreeMono, Normal';white-space:pre;inline-size:2.11301;stroke-width:0.264583"
       d="m 27.325481,51.696275 q 0,0.15875 -0.20955,0.15875 h -0.06032 l 0.4572,1.076325 0.4572,-1.076325 h -0.0762 q -0.1016,0 -0.155575,-0.03175 -0.05397,-0.03493 -0.05397,-0.127 0,-0.09208 0.05397,-0.123825 0.05398,-0.03493 0.155575,-0.03493 h 0.4191 q 0.20955,0 0.20955,0.15875 0,0.15875 -0.2159,0.15875 l -0.650875,1.533525 h -0.314325 l -0.64135,-1.533525 q -0.2159,0 -0.2159,-0.15875 0,-0.09208 0.05397,-0.123825 0.05398,-0.03493 0.155575,-0.03493 h 0.422275 q 0.1016,0 0.155575,0.03493 0.05398,0.03175 0.05398,0.123825 z"
       id="text5"
       transform="matrix(0.8766316,0,0,0.8766316,3.2020685,7.3785495)"
       aria-label="V" />
  </g>
</svg>
