<?xml version="1.0" encoding="UTF-8"?>
<svg xmlns="http://www.w3.org/2000/svg" width="16px" height="16px" viewBox="0 0 16 16">
  <g fill="#2e3436">
    <path d="m 8.00000037786,11.5953802519 a 1.39966,0.700798 0 0,0 -1.38745550171,0.702078504463 l 0,3.00046133912 A 1.39966,0.700798 0 0,0 8.00000037786,15.9999984865 A 1.39966,0.700798 0 0,0 9.40221507973,15.2979200955 L 9.40221507973,12.2974587564 a 1.39966,0.700798 0 0,0 -1.40221470187,-0.702078504463 z" fill="#2e3436" stroke-linecap="round"/>
    <path d="m 8.00000037786,1.13514993672E-06 a 1.39966,0.700798 0 0,0 -1.38745550171,0.702078504463 l 0,3.00785143006 a 1.39966,0.700798 0 0,0 1.38745550171,0.694688300007 a 1.39966,0.700798 0 0,0 1.40221470187,-0.694688300007 l 0,-3.00785143006 a 1.39966,0.700798 0 0,0 -1.40221470187,-0.702078504463 z" fill="#2e3436" stroke-linecap="round"/>
    <path d="m 2.00686580534,3.99929668002 l 11.9970381467,0 l 0,8.0091146864 l -11.9970381467,0 z" fill="#2e3436" stroke-width="2.8296911" stroke-linecap="round" stroke-linejoin="round" fill-opacity="0"/>
    <path d="m 2.00737969455,3.00046236076 a 1.99971,1.00124 0 0,0 -2.00737969455,0.997690466512 l 0,8.01108417153 a 1.99971,1.00124 0 0,0 2.00737969455,0.997690466512 L 14.0073802613,13.0069274653 a 1.99971,1.00124 0 0,0 1.99262049438,-0.997690466512 L 16.0000007557,3.99815282727 A 1.99971,1.00124 0 0,0 14.0073802613,3.00046236076 Z M 4.00000018893,5.00323349824 l 8.00000037786,0 l 0,6.0009228296 l -8.00000037786,0 z" fill="#2e3436" stroke-linecap="round" stroke-linejoin="round"/>
  </g>
</svg>
