<?xml version="1.0" encoding="UTF-8"?>
<svg xmlns="http://www.w3.org/2000/svg" width="16px" height="16px" viewBox="0 0 16 16">
  <g fill="#2e3436">
    <path d="m 1.00124814055,1.00218669604 l 13.9965443338,0 l 0,13.9965432949 l -13.9965443338,0 z" fill="#2e3436" stroke-width="1.99950737" stroke-linecap="square" stroke-linejoin="round" fill-opacity="0"/>
    <path d="m 1.00369666966,7.55718825118E-06 a 0.999854,0.999854 0 0,0 -1.00368911247,1.00368906506 l 0,13.9926063776 a 0.999854,0.999854 0 0,0 1.00368911247,1.00368906506 l 13.9926070385,0 a 0.999854,0.999854 0 0,0 1.00368911247,-1.00368906506 l 0,-13.9926063776 a 0.999854,0.999854 0 0,0 -1.00368911247,-1.00368906506 z m 0.99630951779,1.99999815794 l 11.999988003,0 l 0,11.9999885698 l -11.999988003,0 z" fill="#2e3436" stroke-linecap="square" stroke-linejoin="round"/>
    <path d="m 4.64825953381,12.6531263358 q -1.05574145091,0 -1.05574145091,-0.645241987433 q 0,-0.645241987433 1.05574145091,-0.645241987433 l 0.239918292232,0 L 4.88817782605,6.42008856753 l -0.239918292232,0 q -1.05574145091,0 -1.05574145091,-0.645241987433 q 0,-0.374240183015 0.271932639135,-0.503288580502 q 0.287918778193,-0.141953746322 0.783808811775,-0.141953746322 l 4.04699206764,0 q 1.35966319568,0 2.23944353122,0.606527637882 q 0.895779095241,0.606527298491 0.895779095241,1.52277109034 q 0,0.825909743914 -1.00774937871,1.4582467219 q 1.69557825295,0.683956676374 1.69557825295,1.87120193325 q 0,0.929148461903 -0.863785782731,1.49696141084 q -0.863785782731,0.567812948941 -2.28743139655,0.567812948941 z m 1.83954184893,-4.41345519404 l 1.80754853642,0 q 0.863785782731,0 1.39165650819,-0.271000446853 q 0.543865278271,-0.283907492644 0.543865278271,-0.722671025925 q 0,-0.38714519246 -0.431894994805,-0.606527298491 q -0.431890787926,-0.219382445423 -1.18370628719,-0.219382445423 l -2.12746904088,0 z m 4.43089919712,2.42610987275 q 0,-0.516193589946 -0.623846456105,-0.825909743914 q -0.623846456105,-0.309714796403 -1.64759038763,-0.309714796403 l -2.15946235339,0 l 0,1.83248724431 l 2.79930336231,0 q 1.63159583481,0 1.63159583481,-0.696862703992 z" stroke-width="0.89797158"/>
  </g>
</svg>
