<?xml version="1.0" encoding="UTF-8"?>
<svg xmlns="http://www.w3.org/2000/svg" width="16px" height="16px" viewBox="0 0 16 16">
  <g fill="#2e3436">
    <path d="M 9.01984130234,8.00388560764 A 4.00826,6.39843 0 0,1 5.01158473306,14.4023109299 A 4.00826,6.39843 0 0,1 1.00332816379,8.00388560764 A 4.00826,6.39843 0 0,1 5.01158473306,1.60546088993 A 4.00826,6.39843 0 0,1 9.01984130234,8.00388560764 Z" fill="#2e3436" stroke-width="2.53212221" fill-opacity="0"/>
    <path d="m 5.01525465606,0 c -2.7552524471,0 -5.01525465606,3.60766366127 -5.01525465606,8.00590368113 c 0,4.39824062443 2.26000220896,7.99409631887 5.01525465606,7.99409631887 c 2.7552524471,0 5.00785800011,-3.59585569445 5.00785800011,-7.99409631887 c 0,-4.39824001985 -2.25260555301,-8.00590368113 -5.00785800011,-8.00590368113 z m 0,3.19999951634 c 1.67214038459,0 3.00323546888,2.13664648845 3.00323546888,4.80590416479 c 0,2.66925828091 -1.33109508429,4.79409619796 -3.00323546888,4.79409619796 c -1.67214038459,0 -3.01063212483,-2.12483791705 -3.01063212483,-4.79409619796 c 0,-2.66925767633 1.33849174024,-4.80590416479 3.01063212483,-4.80590416479 z" fill="#2e3436"/>
    <path d="m 9.9861255891,6.45904007596 a 1.00207,1.59961 0 0,0 -0.998612937643,1.59409607704 a 1.00207,1.59961 0 0,0 0.998612937643,1.60590404387 l 5.00785800011,0 a 1.00207,1.59961 0 0,0 1.00600959359,-1.60590404387 a 1.00207,1.59961 0 0,0 -1.00600959359,-1.59409607704 z" fill="#2e3436" stroke-linecap="round"/>
  </g>
</svg>
