<?xml version="1.0" encoding="UTF-8" standalone="no"?>
<svg
   xmlns:dc="http://purl.org/dc/elements/1.1/"
   xmlns:cc="http://creativecommons.org/ns#"
   xmlns:rdf="http://www.w3.org/1999/02/22-rdf-syntax-ns#"
   xmlns:svg="http://www.w3.org/2000/svg"
   xmlns="http://www.w3.org/2000/svg"
   id="svg4268"
   version="1.1"
   viewBox="0 0 4.2384943 4.2327269"
   height="15.997707"
   width="16.019506">
  <defs
     id="defs4262" />
  <metadata
     id="metadata4265">
    <rdf:RDF>
      <cc:Work
         rdf:about="">
        <dc:format>image/svg+xml</dc:format>
        <dc:type
           rdf:resource="http://purl.org/dc/dcmitype/StillImage" />
        <dc:title />
      </cc:Work>
    </rdf:RDF>
  </metadata>
  <path
     id="path4594-6-2-6"
     d="m 3.95716,4.486e-4 a 0.26460979,0.26460979 0 0 0 -0.05859,0.00977 L 2.047005,0.5395111 A 0.26492936,0.26492936 0 1 0 2.191536,1.0492767 L 3.586067,0.6508392 3.18763,2.0453705 A 0.26492936,0.26492936 0 1 0 3.697395,2.1899017 L 4.226692,0.3383392 A 0.26460979,0.26460979 0 0 0 3.95716,4.486e-4 Z"
     style="color:#000000;font-style:normal;font-variant:normal;font-weight:normal;font-stretch:normal;font-size:medium;line-height:normal;font-family:sans-serif;font-variant-ligatures:normal;font-variant-position:normal;font-variant-caps:normal;font-variant-numeric:normal;font-variant-alternates:normal;font-feature-settings:normal;text-indent:0;text-align:start;text-decoration:none;text-decoration-line:none;text-decoration-style:solid;text-decoration-color:#000000;letter-spacing:normal;word-spacing:normal;text-transform:none;writing-mode:lr-tb;direction:ltr;text-orientation:mixed;dominant-baseline:auto;baseline-shift:baseline;text-anchor:start;white-space:normal;shape-padding:0;clip-rule:nonzero;display:inline;overflow:visible;visibility:visible;isolation:auto;mix-blend-mode:normal;color-interpolation:sRGB;color-interpolation-filters:linearRGB;solid-color:#000000;solid-opacity:1;vector-effect:none;fill:#000000;fill-opacity:1;fill-rule:nonzero;stroke:none;stroke-width:0.529167;stroke-linecap:round;stroke-linejoin:round;stroke-miterlimit:4;stroke-dasharray:none;stroke-dashoffset:0;stroke-opacity:1;color-rendering:auto;image-rendering:auto;shape-rendering:auto;text-rendering:auto;enable-background:accumulate" />
  <g
     transform="translate(-77.787501,4.4766996)"
     style="font-style:normal;font-variant:normal;font-weight:bold;font-stretch:normal;font-size:2.82223px;line-height:1.25;font-family:FreeMono;-inkscape-font-specification:'FreeMono Bold';letter-spacing:0px;word-spacing:0px;display:inline;fill:#000000;fill-opacity:1;stroke:none;stroke-width:0.264583"
     id="text150-24"
     aria-label="V">
    <path
       id="path930"
       style="font-style:normal;font-variant:normal;font-weight:bold;font-stretch:normal;font-size:2.82223px;font-family:FreeMono;-inkscape-font-specification:'FreeMono Bold';stroke-width:0.264583"
       d="m 80.962008,-1.7482213 q 0,0.1411115 -0.186267,0.1411115 h -0.05362 l 0.406401,0.95673598 0.406401,-0.95673598 h -0.06773 q -0.09031,0 -0.138289,-0.028222 -0.04798,-0.031045 -0.04798,-0.1128892 0,-0.081845 0.04798,-0.110067 0.04798,-0.031045 0.138289,-0.031045 h 0.372535 q 0.186267,0 0.186267,0.1411115 0,0.1411115 -0.191912,0.1411115 l -0.578557,1.36313711 H 80.976125 L 80.406035,-1.60711 q -0.191912,0 -0.191912,-0.1411115 0,-0.081845 0.04798,-0.110067 0.04798,-0.031045 0.138289,-0.031045 h 0.375357 q 0.09031,0 0.138289,0.031045 0.04798,0.028222 0.04798,0.110067 z" />
  </g>
  <path
     id="path18"
     d="M 3.6953125 0.24414062 A 0.2645835 0.2645835 0 0 0 3.5175781 0.3203125 L 3.4453125 0.39257812 A 0.2645835 0.2645835 0 0 0 3.4453125 0.76757812 A 0.2645835 0.2645835 0 0 0 3.8183594 0.76757812 L 3.890625 0.6953125 A 0.2645835 0.2645835 0 0 0 3.890625 0.3203125 A 0.2645835 0.2645835 0 0 0 3.6953125 0.24414062 z M 2.875 1.0644531 A 0.2645835 0.2645835 0 0 0 2.6972656 1.140625 L 2.3222656 1.515625 A 0.2645835 0.2645835 0 0 0 2.3222656 1.8886719 A 0.2645835 0.2645835 0 0 0 2.6972656 1.8886719 L 3.0703125 1.515625 A 0.2645835 0.2645835 0 0 0 3.0703125 1.140625 A 0.2645835 0.2645835 0 0 0 2.875 1.0644531 z M 1.7519531 2.1855469 A 0.2645835 0.2645835 0 0 0 1.5742188 2.2636719 L 1.1992188 2.6386719 A 0.2645835 0.2645835 0 0 0 1.1992188 3.0117188 A 0.2645835 0.2645835 0 0 0 1.5742188 3.0117188 L 1.9492188 2.6386719 A 0.2645835 0.2645835 0 0 0 1.9492188 2.2636719 A 0.2645835 0.2645835 0 0 0 1.7519531 2.1855469 z M 0.63085938 3.3085938 A 0.2645835 0.2645835 0 0 0 0.45117188 3.3867188 L 0.078125 3.7597656 A 0.2645835 0.2645835 0 0 0 0.078125 4.1347656 A 0.2645835 0.2645835 0 0 0 0.45117188 4.1347656 L 0.82617188 3.7597656 A 0.2645835 0.2645835 0 0 0 0.82617188 3.3867188 A 0.2645835 0.2645835 0 0 0 0.63085938 3.3085938 z "
     style="color:#000000;font-style:normal;font-variant:normal;font-weight:normal;font-stretch:normal;font-size:medium;line-height:normal;font-family:sans-serif;font-variant-ligatures:normal;font-variant-position:normal;font-variant-caps:normal;font-variant-numeric:normal;font-variant-alternates:normal;font-variant-east-asian:normal;font-feature-settings:normal;font-variation-settings:normal;text-indent:0;text-align:start;text-decoration:none;text-decoration-line:none;text-decoration-style:solid;text-decoration-color:#000000;letter-spacing:normal;word-spacing:normal;text-transform:none;writing-mode:lr-tb;direction:ltr;text-orientation:mixed;dominant-baseline:auto;baseline-shift:baseline;text-anchor:start;white-space:normal;shape-padding:0;shape-margin:0;inline-size:0;clip-rule:nonzero;display:inline;overflow:visible;visibility:visible;isolation:auto;mix-blend-mode:normal;color-interpolation:sRGB;color-interpolation-filters:linearRGB;solid-color:#000000;solid-opacity:1;vector-effect:none;fill:#000000;fill-opacity:1;fill-rule:nonzero;stroke:none;stroke-width:0.529167;stroke-linecap:round;stroke-linejoin:miter;stroke-miterlimit:4;stroke-dasharray:0.529167, 1.05833000000000022;stroke-dashoffset:0;stroke-opacity:1;color-rendering:auto;image-rendering:auto;shape-rendering:auto;text-rendering:auto;enable-background:accumulate;stop-color:#000000;stop-opacity:1;opacity:1" />
</svg>
