<?xml version="1.0" encoding="UTF-8"?>
<svg xmlns="http://www.w3.org/2000/svg" width="16px" height="16px" viewBox="0 0 16 16">
  <g fill="#2e3436">
    <path d="m 3.7720126324,4.00328826169 l 0,-2.66600725938 l 11.2092377682,0 l 0,13.3300514113 l -11.2092377682,0 l 0,-2.66601229751" fill="#2e3436" stroke-width="2.33097923" stroke-linejoin="round" fill-opacity="0"/>
    <path d="m 3.76866188908,0 a 1.01913,1.33314 0 0,0 -1.01550631092,1.33825336146 l 0,2.66666675064 l 2.03856142287,0 l 0,-1.33825336146 l 9.1697134881,0 l 0,10.6666664987 l -9.1697134881,0 L 4.79171700103,12.0049198602 l -2.03856142287,0 l 0,2.66666675064 a 1.01913,1.33314 0 0,0 1.01550631092,1.32841338917 l 11.2157851977,0 a 1.01913,1.33314 0 0,0 1.01554482521,-1.32841338917 L 15.999991912,1.33825336146 a 1.01913,1.33314 0 0,0 -1.01554482521,-1.33825336146 z" fill="#2e3436" stroke-linejoin="round"/>
    <path d="m 0.71470969817,4.00328926932 l 6.11414369696,0 L 6.82885339513,6.66929955158 l -6.11414369696,0 z" fill="#2e3436" stroke-width="1.6316859" stroke-linecap="round" stroke-linejoin="round" fill-opacity="0"/>
    <path d="m 0.714632669588,3.07011065277 a 0.713389,0.933198 0 0,0 -0.714632669588,0.934809459329 L 0,6.67158686274 a 0.713389,0.933198 0 0,0 0.714632669588,0.934809459329 l 6.11564575431,0 A 0.713389,0.933198 0 0,0 7.5448725792,6.67158686274 L 7.5448725792,4.0049201121 A 0.713389,0.933198 0 0,0 6.8302784239,3.07011065277 Z M 1.42922682489,4.93972957143 l 4.68641892943,0 l 0,0.797047831978 l -4.68641892943,0 z" fill="#2e3436" stroke-linecap="round" stroke-linejoin="round"/>
    <path d="m 0.71470969817,9.33530580333 l 6.11414369696,0 l 0,2.66601028226 l -6.11414369696,0 z" fill="#2e3436" stroke-width="1.6316859" stroke-linecap="round" stroke-linejoin="round" fill-opacity="0"/>
    <path d="m 0.714632669588,8.40344415404 a 0.713389,0.933198 0 0,0 -0.714632669588,0.934809459329 l 0,2.66666624682 a 0.713389,0.933198 0 0,0 0.714632669588,0.924969487036 l 6.11564575431,0 a 0.713389,0.933198 0 0,0 0.714594155297,-0.924969487036 L 7.5448725792,9.33825361337 A 0.713389,0.933198 0 0,0 6.8302784239,8.40344415404 Z m 0.714594155298,1.86961841484 l 4.68641892943,0 l 0,0.797048335791 l -4.68641892943,0 z" fill="#2e3436" stroke-linecap="round" stroke-linejoin="round"/>
    <path d="m 3.7720126324,6.6693005592 l 0,2.66600725938" fill="#2e3436" stroke-width="2.33097923" fill-opacity="0"/>
    <path d="m 2.75315557817,6.67158686274 l 0,2.66666675064 l 2.03856142287,0 L 4.79171700103,6.67158686274 Z" fill="#2e3436"/>
  </g>
</svg>
