<?xml version="1.0" encoding="UTF-8" standalone="no"?>
<svg
   width="16.003944"
   height="15.99657"
   viewBox="0 0 4.2343769 4.2324258"
   version="1.1"
   id="svg4268"
   xmlns="http://www.w3.org/2000/svg"
   xmlns:svg="http://www.w3.org/2000/svg"
   xmlns:rdf="http://www.w3.org/1999/02/22-rdf-syntax-ns#"
   xmlns:cc="http://creativecommons.org/ns#"
   xmlns:dc="http://purl.org/dc/elements/1.1/">
  <defs
     id="defs4262" />
  <metadata
     id="metadata4265">
    <rdf:RDF>
      <cc:Work
         rdf:about="">
        <dc:format>image/svg+xml</dc:format>
        <dc:type
           rdf:resource="http://purl.org/dc/dcmitype/StillImage" />
        <dc:title />
      </cc:Work>
    </rdf:RDF>
  </metadata>
  <g
     id="new-diagram"
     style="display:inline"
     transform="translate(-25.134764,4.625002)">
    <g
       id="rect1563-3">
      <path
         style="color:#000000;fill:#000000;fill-opacity:0;stroke-width:0.529167;stroke-linecap:round;stroke-linejoin:round;-inkscape-stroke:none"
         d="m 25.400002,-2.5083418 h 1.322916 v 1.85208393 h -1.322916 z"
         id="path1515" />
      <path
         style="color:#000000;fill:#000000;stroke-linecap:round;stroke-linejoin:round;-inkscape-stroke:none"
         d="m 25.400391,-2.7734375 a 0.26460996,0.26460996 0 0 0 -0.265625,0.265625 V -0.65625 a 0.26460996,0.26460996 0 0 0 0.265625,0.26367187 h 1.322265 A 0.26460996,0.26460996 0 0 0 26.988281,-0.65625 v -1.8515625 a 0.26460996,0.26460996 0 0 0 -0.265625,-0.265625 z m 0.263671,0.5292969 h 0.794922 v 1.32421872 h -0.794922 z"
         id="path1517" />
    </g>
    <path
       style="color:#000000;fill:#000000;stroke-linecap:square;stroke-linejoin:round;-inkscape-stroke:none"
       d="m 25.929687,-3.7519531 a 0.18522702,0.18522702 0 0 0 -0.185546,0.1855468 v 0.7929688 0.1855469 h 0.371093 v -0.1855469 -0.6074219 h 1.402344 0.183594 v -0.3710937 h -0.183594 z"
       id="path4891-6" />
    <g
       id="rect1566-7">
      <path
         style="color:#000000;fill:#000000;fill-opacity:0;stroke-width:0.529167;stroke-linecap:round;stroke-linejoin:round;-inkscape-stroke:none"
         d="m 27.78125,-4.360425 h 1.322917 v 1.8520833 H 27.78125 Z"
         id="path1501" />
      <path
         style="color:#000000;fill:#000000;stroke-linecap:round;stroke-linejoin:round;-inkscape-stroke:none"
         d="m 27.78125,-4.625 a 0.26460996,0.26460996 0 0 0 -0.263672,0.2636719 v 1.8535156 a 0.26460996,0.26460996 0 0 0 0.263672,0.2636719 h 1.322266 a 0.26460996,0.26460996 0 0 0 0.265625,-0.2636719 V -4.3613281 A 0.26460996,0.26460996 0 0 0 29.103516,-4.625 Z m 0.263672,0.5292969 h 0.794922 v 1.3222656 h -0.794922 z"
         id="path1503" />
    </g>
    <path
       style="color:#000000;fill:#000000;stroke-width:0.264583;-inkscape-stroke:none"
       d="m 28.310417,-1.9783284 v 0.52832 h -0.529166 v 0.52829352 h 0.529166 v 0.5282936 h 0.529167 v -0.5282936 h 0.529167 V -1.4500084 h -0.529167 v -0.52832 z"
       id="path7307" />
  </g>
</svg>
