<?xml version="1.0" encoding="UTF-8"?>
<svg xmlns="http://www.w3.org/2000/svg" width="16px" height="16px" viewBox="0 0 16 16">
  <g fill="#2e3436">
    <path d="m 14.2917645561,0.29447739365 l -13.9972871486,13.9972864872 a 1.00009,1.00009 0 0,0 0,1.41744673288 a 1.00009,1.00009 0 0,0 1.41006473692,0 l 14.0046692115,-14.0046685498 a 1.00009,1.00009 0 0,0 0,-1.4100646703 a 1.00009,1.00009 0 0,0 -1.41744679986,0 z" fill="#2e3436" stroke-linecap="round"/>
    <path d="m 6.00117492165,5.99920533211 l 4.00034859742,0 L 10.0015235191,9.99955752038 Z" fill="#2e3436" stroke-width="2.00017614" stroke-linejoin="round"/>
    <path d="M 6.00117870151,4.99714986898 A 1.00019,1.00019 0 0,0 5.29245530158,6.70989800455 l 4.00133514039,3.99395288875 a 1.00019,1.00019 0 0,0 1.70536615356,-0.701341303857 l 0,-4.00133495133 a 1.00019,1.00019 0 0,0 -0.99664275363,-1.00402476913 z m 2.41408955349,2.00066747567 l 0.583220770339,0 l 0,0.583220742783 z" fill="#2e3436" stroke-linejoin="round"/>
  </g>
</svg>
