<?xml version="1.0" encoding="UTF-8" standalone="no"?>
<svg
   width="15.996563"
   height="16.003937"
   viewBox="0 0 4.2324239 4.2343751"
   version="1.1"
   id="svg4268"
   xmlns="http://www.w3.org/2000/svg"
   xmlns:svg="http://www.w3.org/2000/svg"
   xmlns:rdf="http://www.w3.org/1999/02/22-rdf-syntax-ns#"
   xmlns:cc="http://creativecommons.org/ns#"
   xmlns:dc="http://purl.org/dc/elements/1.1/">
  <defs
     id="defs4262" />
  <metadata
     id="metadata4265">
    <rdf:RDF>
      <cc:Work
         rdf:about="">
        <dc:format>image/svg+xml</dc:format>
        <dc:type
           rdf:resource="http://purl.org/dc/dcmitype/StillImage" />
        <dc:title />
      </cc:Work>
    </rdf:RDF>
  </metadata>
  <g
     id="abstract-operational-situation"
     style="display:inline"
     transform="translate(-111.125,-44.449219)">
    <g
       id="rect688">
      <path
         style="color:#000000;fill:#000000;fill-opacity:0;stroke-width:0.529167;stroke-linecap:round;stroke-linejoin:round;-inkscape-stroke:none"
         d="m 111.38958,44.714584 h 3.70417 v 3.704167 h -3.70417 z"
         id="path2194" />
      <path
         style="color:#000000;fill:#000000;stroke-linecap:round;stroke-linejoin:round;-inkscape-stroke:none"
         d="m 111.38867,44.449219 a 0.26460996,0.26460996 0 0 0 -0.26367,0.265625 v 3.703125 a 0.26460996,0.26460996 0 0 0 0.26367,0.265625 h 3.70508 a 0.26460996,0.26460996 0 0 0 0.26367,-0.265625 v -3.703125 a 0.26460996,0.26460996 0 0 0 -0.26367,-0.265625 z m 0.26563,0.529297 h 3.17578 v 3.175781 h -3.17578 z"
         id="path2196" />
    </g>
    <g
       aria-label="AO"
       id="text692"
       style="font-weight:bold;font-size:2.46944px;line-height:1.25;font-family:FreeMono;-inkscape-font-specification:'FreeMono, Bold';letter-spacing:0px;word-spacing:0px;display:inline;stroke-width:0.264583">
      <path
         d="m 112.54765,45.753056 -0.1676,0.736732 h 0.33641 z m -0.21704,-0.325561 h 0.43529 l 0.48593,1.800231 h -0.3557 l -0.11094,-0.444933 h -0.47628 l -0.10852,0.444933 h -0.35571 z"
         id="path1624" />
      <path
         d="m 114.03438,45.714471 q -0.13625,0 -0.19895,0.145899 -0.0627,0.144694 -0.0627,0.469049 0,0.323149 0.0627,0.469049 0.0627,0.144694 0.19895,0.144694 0.13746,0 0.20016,-0.144694 0.0627,-0.1459 0.0627,-0.469049 0,-0.324355 -0.0627,-0.469049 -0.0627,-0.145899 -0.20016,-0.145899 z m -0.63183,0.614948 q 0,-0.461814 0.15917,-0.698147 0.16037,-0.236334 0.47266,-0.236334 0.31351,0 0.47267,0.236334 0.16037,0.236333 0.16037,0.698147 0,0.460608 -0.16037,0.696942 -0.15916,0.236333 -0.47267,0.236333 -0.31229,0 -0.47266,-0.236333 -0.15917,-0.236334 -0.15917,-0.696942 z"
         id="path1626" />
    </g>
  </g>
</svg>
