<?xml version="1.0" encoding="UTF-8" standalone="no"?>
<svg
   xmlns:dc="http://purl.org/dc/elements/1.1/"
   xmlns:cc="http://creativecommons.org/ns#"
   xmlns:rdf="http://www.w3.org/1999/02/22-rdf-syntax-ns#"
   xmlns:svg="http://www.w3.org/2000/svg"
   xmlns="http://www.w3.org/2000/svg"
   width="16.000013"
   height="16.000002"
   viewBox="0 0 4.2333368 4.233334"
   version="1.1"
   id="svg4268">
  <defs
     id="defs4262" />
  <metadata
     id="metadata4265">
    <rdf:RDF>
      <cc:Work
         rdf:about="">
        <dc:format>image/svg+xml</dc:format>
        <dc:type
           rdf:resource="http://purl.org/dc/dcmitype/StillImage" />
        <dc:title />
      </cc:Work>
    </rdf:RDF>
  </metadata>
  <path
     style="color:#000000;font-style:normal;font-variant:normal;font-weight:normal;font-stretch:normal;font-size:medium;line-height:normal;font-family:sans-serif;font-variant-ligatures:normal;font-variant-position:normal;font-variant-caps:normal;font-variant-numeric:normal;font-variant-alternates:normal;font-variant-east-asian:normal;font-feature-settings:normal;font-variation-settings:normal;text-indent:0;text-align:start;text-decoration:none;text-decoration-line:none;text-decoration-style:solid;text-decoration-color:#000000;letter-spacing:normal;word-spacing:normal;text-transform:none;writing-mode:lr-tb;direction:ltr;text-orientation:mixed;dominant-baseline:auto;baseline-shift:baseline;text-anchor:start;white-space:normal;shape-padding:0;shape-margin:0;inline-size:0;clip-rule:nonzero;display:inline;overflow:visible;visibility:visible;isolation:auto;mix-blend-mode:normal;color-interpolation:sRGB;color-interpolation-filters:linearRGB;solid-color:#000000;solid-opacity:1;vector-effect:none;fill:#000000;fill-opacity:1;fill-rule:nonzero;stroke:none;stroke-linecap:round;stroke-linejoin:round;stroke-miterlimit:4;stroke-dasharray:none;stroke-dashoffset:0;stroke-opacity:1;color-rendering:auto;image-rendering:auto;shape-rendering:auto;text-rendering:auto;enable-background:accumulate;stop-color:#000000;stop-opacity:1;opacity:1"
     d="M 0.26367188 0 A 0.26460996 0.26460996 0 0 0 0 0.26367188 L 0 3.96875 A 0.26460996 0.26460996 0 0 0 0.26367188 4.2324219 L 3.96875 4.2324219 A 0.26460996 0.26460996 0 0 0 4.2324219 3.96875 L 4.2324219 0.26367188 A 0.26460996 0.26460996 0 0 0 3.96875 0 L 0.26367188 0 z M 0.52929688 0.52929688 L 3.7050781 0.52929688 L 3.7050781 3.7050781 L 0.52929688 3.7050781 L 0.52929688 0.52929688 z "
     id="rect691" />
  <g
     aria-label="CP"
     id="text695"
     style="font-style:normal;font-variant:normal;font-weight:bold;font-stretch:normal;font-size:2.46944px;line-height:1.25;font-family:FreeMono;-inkscape-font-specification:'FreeMono, Bold';font-variant-ligatures:normal;font-variant-caps:normal;font-variant-numeric:normal;font-variant-east-asian:normal;letter-spacing:0px;word-spacing:0px;display:inline;fill:#000000;fill-opacity:1;stroke:none;stroke-width:0.264583"
     transform="translate(-111.125,-39.158333)">
    <path
       d="m 112.61981,41.723686 q 0.11606,0 0.19755,-0.02716 0.084,-0.02963 0.11854,-0.06174 0.0346,-0.03457 0.0691,-0.06174 0.037,-0.02963 0.0692,-0.02963 0.0494,0 0.0864,0.03704 0.037,0.03704 0.037,0.08643 0,0.106186 -0.17039,0.204964 -0.16793,0.09878 -0.41487,0.09878 -0.31362,0 -0.52105,-0.182738 -0.20496,-0.185208 -0.20496,-0.466725 v -0.162983 q 0,-0.296332 0.19261,-0.496357 0.19262,-0.200025 0.47907,-0.200025 0.17286,0 0.35066,0.08396 l 0.0247,0.0099 q 0.042,-0.05927 0.10371,-0.05927 0.0716,0 0.0963,0.04198 0.0272,0.04198 0.0272,0.121003 v 0.207433 q 0,0.162983 -0.12348,0.162983 -0.0444,0 -0.0741,-0.0247 -0.0272,-0.02469 -0.0346,-0.04445 -0.005,-0.02222 -0.0123,-0.06174 -0.0148,-0.07408 -0.0914,-0.118533 -0.0741,-0.04692 -0.13829,-0.05927 -0.0642,-0.01235 -0.11853,-0.01235 -0.18768,0 -0.31115,0.128411 -0.12347,0.125942 -0.12347,0.321027 v 0.158045 q 0,0.185208 0.13088,0.296332 0.13335,0.111125 0.3556,0.111125 z"
       style="font-style:normal;font-variant:normal;font-weight:bold;font-stretch:normal;font-size:2.46944px;font-family:FreeMono;-inkscape-font-specification:'FreeMono, Bold';font-variant-ligatures:normal;font-variant-caps:normal;font-variant-numeric:normal;font-variant-east-asian:normal"
       id="path1415" />
    <path
       d="m 114.59289,40.963099 q 0,0.06668 -0.0148,0.128411 -0.0148,0.06174 -0.0568,0.12841 -0.042,0.06421 -0.10618,0.113595 -0.0617,0.04692 -0.16792,0.07902 -0.10372,0.02963 -0.23954,0.02963 h -0.242 v 0.246944 h 0.24447 q 0.16298,0 0.16298,0.123472 0,0.123472 -0.16298,0.123472 h -0.52846 q -0.16298,0 -0.16298,-0.123472 0,-0.123472 0.16298,-0.123472 h 0.037 v -0.945795 h -0.037 q -0.16298,0 -0.16298,-0.123472 0,-0.07161 0.042,-0.09631 0.042,-0.02716 0.121,-0.02716 h 0.57538 q 0.2346,0 0.38523,0.13088 0.15064,0.13088 0.15064,0.335844 z m -0.82726,-0.21978 v 0.451907 h 0.29139 q 0.12841,0 0.20002,-0.05927 0.0741,-0.06174 0.0741,-0.165452 0,-0.106186 -0.0741,-0.165452 -0.0716,-0.06174 -0.20002,-0.06174 z"
       style="font-style:normal;font-variant:normal;font-weight:bold;font-stretch:normal;font-size:2.46944px;font-family:FreeMono;-inkscape-font-specification:'FreeMono, Bold';font-variant-ligatures:normal;font-variant-caps:normal;font-variant-numeric:normal;font-variant-east-asian:normal"
       id="path1417" />
  </g>
</svg>
