<?xml version="1.0" encoding="UTF-8" standalone="no"?>
<svg
   width="16.003952"
   height="16.003952"
   viewBox="0 0 4.2343789 4.2343791"
   version="1.1"
   id="svg4268"
   xmlns="http://www.w3.org/2000/svg"
   xmlns:svg="http://www.w3.org/2000/svg"
   xmlns:rdf="http://www.w3.org/1999/02/22-rdf-syntax-ns#"
   xmlns:cc="http://creativecommons.org/ns#"
   xmlns:dc="http://purl.org/dc/elements/1.1/">
  <defs
     id="defs4262" />
  <metadata
     id="metadata4265">
    <rdf:RDF>
      <cc:Work
         rdf:about="">
        <dc:format>image/svg+xml</dc:format>
        <dc:type
           rdf:resource="http://purl.org/dc/dcmitype/StillImage" />
        <dc:title />
      </cc:Work>
    </rdf:RDF>
  </metadata>
  <g
     id="data-type"
     style="display:inline"
     transform="translate(-17.197264,-15.345701)">
    <g
       id="rect1082">
      <path
         style="color:#000000;fill:#000000;fill-opacity:0;stroke-width:0.529167;stroke-linecap:round;stroke-linejoin:round;-inkscape-stroke:none"
         d="m 17.4625,15.610416 h 3.704166 v 3.704167 H 17.4625 Z"
         id="path3556" />
      <path
         style="color:#000000;fill:#000000;stroke-linecap:round;stroke-linejoin:round;-inkscape-stroke:none"
         d="m 17.462891,15.345703 a 0.26460996,0.26460996 0 0 0 -0.265625,0.265625 v 3.703125 a 0.26460996,0.26460996 0 0 0 0.265625,0.265625 h 3.703125 a 0.26460996,0.26460996 0 0 0 0.265625,-0.265625 V 15.611328 A 0.26460996,0.26460996 0 0 0 21.166016,15.345703 Z M 17.726562,15.875 h 3.175782 v 3.175781 h -3.175782 z"
         id="path3558" />
    </g>
    <g
       aria-label="DT"
       id="text1086"
       style="font-weight:bold;font-size:2.46944px;line-height:1.25;font-family:FreeMono;-inkscape-font-specification:'FreeMono, Bold';letter-spacing:0px;word-spacing:0px;display:inline;stroke-width:0.264583">
      <path
         d="m 18.398711,16.644063 v 1.158755 h 0.09646 q 0.209806,0 0.299034,-0.13143 0.08923,-0.132636 0.08923,-0.449756 0,-0.314709 -0.08923,-0.446139 -0.08923,-0.13143 -0.299034,-0.13143 z m -0.355706,-0.320738 h 0.381027 q 0.441316,0 0.635447,0.211011 0.194131,0.209806 0.194131,0.687296 0,0.478695 -0.194131,0.690912 -0.194131,0.211012 -0.635447,0.211012 h -0.381027 z"
         id="path1690" />
      <path
         d="m 20.285759,18.123556 h -0.355706 v -1.48914 h -0.456991 v -0.311091 h 1.269688 v 0.311091 h -0.456991 z"
         id="path1692" />
    </g>
  </g>
</svg>
