<?xml version="1.0" encoding="UTF-8" standalone="no"?>
<svg
   width="16.000143"
   height="12.002971"
   viewBox="0 0 4.2333711 3.1757861"
   version="1.1"
   id="svg4268"
   xmlns="http://www.w3.org/2000/svg"
   xmlns:svg="http://www.w3.org/2000/svg"
   xmlns:rdf="http://www.w3.org/1999/02/22-rdf-syntax-ns#"
   xmlns:cc="http://creativecommons.org/ns#"
   xmlns:dc="http://purl.org/dc/elements/1.1/">
  <defs
     id="defs4262" />
  <metadata
     id="metadata4265">
    <rdf:RDF>
      <cc:Work
         rdf:about="">
        <dc:format>image/svg+xml</dc:format>
        <dc:type
           rdf:resource="http://purl.org/dc/dcmitype/StillImage" />
      </cc:Work>
    </rdf:RDF>
  </metadata>
  <g
     id="send-signal-action"
     style="display:inline;stroke-width:0.529167;stroke-miterlimit:4;stroke-dasharray:none"
     transform="translate(-9.2597636,-44.85156)">
    <g
       id="path1257">
      <path
         style="color:#000000;fill:#000000;fill-opacity:0;stroke-linejoin:round;-inkscape-stroke:none"
         d="m 9.5249999,45.116657 h 2.9104171 l 0.79375,1.322916 -0.79375,1.322917 H 9.5249999 Z"
         id="path4078" />
      <path
         style="color:#000000;fill:#000000;stroke-linejoin:round;-inkscape-stroke:none"
         d="m 9.5253906,44.851562 a 0.26460996,0.26460996 0 0 0 -0.265625,0.265625 v 2.644532 a 0.26460996,0.26460996 0 0 0 0.265625,0.265625 h 2.9101564 a 0.26460996,0.26460996 0 0 0 0.226562,-0.128907 l 0.792969,-1.322265 a 0.26460996,0.26460996 0 0 0 0,-0.273438 l -0.792969,-1.322265 a 0.26460996,0.26460996 0 0 0 -0.226562,-0.128907 z m 0.2636719,0.529297 h 2.4960935 l 0.634766,1.058594 -0.634766,1.058594 H 9.7890625 Z"
         id="path4080" />
    </g>
  </g>
</svg>
