<?xml version="1.0" encoding="UTF-8"?>
<svg xmlns="http://www.w3.org/2000/svg" width="16px" height="16px" viewBox="0 0 16 16">
  <g fill="#2e3436">
    <path d="m 11.9999849764,1.14298703407 l 0.999997803152,0 c 1.10799770195,0 1.99999938583,1.01941915213 1.99999938583,2.28569330566 l 0,9.14277970178 c 0,1.26627415354 -0.892001683872,2.28569330566 -1.99999938583,2.28569330566 l -0.999997803152,0 c -1.10800148148,0 -1.99999938583,-1.01941915213 -1.99999938583,-2.28569330566 l 0,-9.14277970178 c 0,-1.26627415354 0.891997904348,-2.28569330566 1.99999938583,-2.28569330566 z" fill="#2e3436" stroke-width="1.49665711" fill-opacity="0.5"/>
    <path d="m 4.00000255118,0 c -2.21599918343,0 -3.99999877165,2.03883916814 -3.99999877165,4.57138877103 c 0.0249448585162,3.74749432995 -3.77952400754E-06,11.428611229 -3.77952400754E-06,11.428611229 l 15.9999913071,0 c 1.1338572051E-05,-3.83207164799 7.5590480435E-06,-7.21153778248 7.5590480435E-06,-11.428611229 c 0,-2.5325496029 -1.78399958822,-4.57138877103 -3.99999877165,-4.57138877103 z m 0,2.28569416955 l 7.99998998426,0 c 1.10800148148,0 1.99999938583,1.01942001601 1.99999938583,2.28569460149 c -0.00831495283876,3.0475694771 -3.77952400754E-06,9.14291662748 -0.0166299056775,9.14277797401 l -11.9833626298,0.00013865346536 c 0,0 -8.31495283933E-05,-5.9704000768 -8.31495283933E-05,-9.14291878719 c 0,-1.26627458548 0.891997904348,-2.28569460149 1.99999938583,-2.28569460149 z" fill="#2e3436" stroke-width="2.13808101" stroke-linecap="round" stroke-linejoin="round"/>
    <path d="m 9.30117049733,1.14692289194 l 0,13.7091052456 l 1.39517727539,0 l 0,-13.7091052456 z" fill="#2e3436"/>
  </g>
</svg>
