<?xml version="1.0" encoding="UTF-8"?>
<svg xmlns="http://www.w3.org/2000/svg" width="16px" height="16px" viewBox="0 0 16 16">
  <g fill="#2e3436">
    <path d="m 6.66747078763,0.282812096761 c 0,0.776296291693 0,1.5525964671 0,2.32889275879 c -4.34036173584,1.76610756064 -6.92738149718,5.11532981767 -6.64674278094,8.41657266459 c 0,1.31306836949 0,2.62613285527 0,3.93920510848 c 0.65589850122,-0.388418064011 1.2913031766,-0.790118431935 1.90114611256,-1.20877509778 c 0,0.747098525373 0,1.49419316703 0,2.2412916924 c 0.891172185441,0 1.78235037552,0 2.67353457023,0 c 0.024018547723,-1.0582151341 -0.0378292126637,-2.11695845338 0.0252194751091,-3.17473084401 c 2.21759648344,-0.38134193602 4.6172655679,-0.375322178399 6.78703511819,0.00504882897266 c 0,1.05650629968 0,2.11300871564 0,3.1695111316 c 0.892253020088,0 1.78450604018,0 2.67675305563,0 c 0,-0.745704271834 0,-1.49141242738 0,-2.23712058293 c 0.612304837103,0.421111173466 1.25390029315,0.822943587686 1.90921033995,1.21607648121 c -0.131321409676,-2.09987010917 0.239945291753,-4.21961318591 -0.28702164529,-6.30356394895 c -0.750129268574,-2.46218572739 -3.08909147366,-4.70996322316 -6.36455486838,-6.06055604307 c 0,-0.871556043264 0,-1.74311208653 0,-2.61466424608 c -0.891712602765,0 -1.78343121017,0 -2.67514381293,0 c 0,0.0942189160591 0,0.188437832118 0,0.282656748177 z m 1.50608303497,3.94441705347 c 2.92038519446,1.25741862307 4.83339046495,3.49372362594 5.10841484565,5.68509405095 c 0.113127359775,0.504110038062 -0.055843123456,1.00793656496 0.0390301400499,1.51018630373 c -3.30861499521,-0.818244293027 -7.06961333216,-0.799373323813 -10.4087198737,-0.0646250108501 c -0.446384709432,0.135619313635 -0.136605490175,-0.446188318602 -0.226194673182,-0.642440184484 c 0.00720556431685,-1.45995045545 0.521382624697,-2.93607269848 1.7521050193,-4.17422421345 c 0.902821181086,-0.949366265162 2.12950845967,-1.77012720525 3.5680273199,-2.38382790173 c 0.055843123456,0.0233022875662 0.111806339651,0.0465657379864 0.167709509476,0.0698680255525 z" fill="#2e3436" stroke-width="2.03576412"/>
  </g>
</svg>
