<?xml version="1.0" encoding="UTF-8" standalone="no"?>
<svg
   width="16.003952"
   height="16.003952"
   viewBox="0 0 4.2343789 4.2343791"
   version="1.1"
   id="svg4268"
   xmlns="http://www.w3.org/2000/svg"
   xmlns:svg="http://www.w3.org/2000/svg"
   xmlns:rdf="http://www.w3.org/1999/02/22-rdf-syntax-ns#"
   xmlns:cc="http://creativecommons.org/ns#"
   xmlns:dc="http://purl.org/dc/elements/1.1/">
  <defs
     id="defs4262" />
  <metadata
     id="metadata4265">
    <rdf:RDF>
      <cc:Work
         rdf:about="">
        <dc:format>image/svg+xml</dc:format>
        <dc:type
           rdf:resource="http://purl.org/dc/dcmitype/StillImage" />
      </cc:Work>
    </rdf:RDF>
  </metadata>
  <g
     id="picture"
     style="display:inline">
    <g
       id="g8"
       style="display:inline"
       transform="translate(-17.197521,-58.20769)">
      <path
         style="color:#000000;display:inline;fill:#000000;-inkscape-stroke:none"
         d="m 18.264815,61.37719 c 0.614559,0.0079 1.493051,0.0016 2.107643,0.0016 l -0.003,-0.546842 -0.549139,-1.022026 -0.572463,0.77529 -0.459869,-0.290357 -0.53407,0.552564 z"
         id="path5" />
      <g
         id="g7"
         style="display:inline"
         transform="translate(-52.652086,53.572926)">
        <path
           style="color:#000000;fill:#000000;fill-opacity:0;stroke-width:0.529167;stroke-linecap:square;stroke-linejoin:round;-inkscape-stroke:none"
           d="m 70.114586,4.899991 h 3.704167 v 3.7041669 h -3.704167 z"
           id="path6" />
        <path
           style="color:#000000;fill:#000000;stroke-linecap:square;stroke-linejoin:round;-inkscape-stroke:none"
           d="m 70.115234,4.6347656 a 0.26460996,0.26460996 0 0 0 -0.265625,0.265625 v 3.703125 a 0.26460996,0.26460996 0 0 0 0.265625,0.265625 h 3.703125 a 0.26460996,0.26460996 0 0 0 0.265625,-0.265625 v -3.703125 a 0.26460996,0.26460996 0 0 0 -0.265625,-0.265625 z m 0.263672,0.5292969 h 3.175781 v 3.1757813 h -3.175781 z"
           id="path7" />
      </g>
    </g>
    <circle
       style="fill:#000000;stroke-width:0.571206;stroke-miterlimit:0"
       id="path5366"
       cx="1.4552084"
       cy="1.4552084"
       r="0.39687499" />
  </g>
</svg>
