<?xml version="1.0" encoding="UTF-8"?>
<svg xmlns="http://www.w3.org/2000/svg" width="16px" height="16px" viewBox="0 0 16 16">
  <g fill="#2e3436">
    <path d="m 7.61695574813,0.00333487515333 c -2.45421758925,0.0876392546218 -5.09028506889,0.768329156919 -6.78155495127,2.70169141687 c -0.968483438882,1.16244501864 -1.15882301719,2.98933230139 -0.231431218434,4.23642150906 c 1.16905716152,1.73067376381 3.24123879471,2.52242607228 5.19875149254,2.8653097169 c 2.80000761746,0.473532515403 5.85129449085,0.110912257765 8.25767520848,-1.50278009161 c 1.24050234336,-0.851495569511 2.21561471664,-2.38209658049 1.86873924888,-3.95405557516 c -0.37408898792,-1.79602783376 -2.00337251883,-2.95773396419 -3.59299874045,-3.57597398284 c -1.4980228767,-0.592003560098 -3.11916561099,-0.803819498895 -4.71929733683,-0.770612993221 z m 0.379903842655,1.92459833449 c 1.84055658627,0.0272637897606 3.7957045765,0.389595604405 5.27244508488,1.57868801408 c 0.622228222291,0.510168726803 1.1212978213,1.4320957532 0.637308078902,2.20763203367 c -0.644402201678,1.13102448876 -1.94103727608,1.63294690698 -3.11063715738,1.9920900436 c -1.93049300616,0.507327760885 -3.95832668057,0.47585191317 -5.87668602319,-0.0758249457255 c -1.05508600873,-0.348265279638 -2.16979366133,-0.865451468849 -2.80194590237,-1.8360463356 c -0.405450437788,-0.648597655857 -0.226779334646,-1.50767176867 0.324081237203,-2.0079741646 c 1.23585045957,-1.26735134011 3.06128842353,-1.67129401997 4.74887556458,-1.82599824613 c 0.268258631752,-0.0252881528214 0.537563937356,-0.0233125158823 0.806481585978,-0.0324004458025 z" fill="#2e3436" stroke-width="0.65682011"/>
    <path d="m 13.3179168612,15.5121204091 q 0,-0.282950722429 0.162815932566,-0.380547187224 q 0.162815932566,-0.107316598536 0.469103714282,-0.107316598536 l 0.220189165947,0 l -0.220189165947,-0.565933055048 l -2.27837638208,0 l -0.220189165947,0.565933055048 l 0.220189165947,0 q 0.631803349754,0 0.631803349754,0.487871688308 q 0,0.487871688308 -0.631803349754,0.487871688308 l -1.27322059267,0 q -0.631803349754,0 -0.631803349754,-0.487871688308 q 0,-0.292710368908 0.172119700141,-0.390306833703 q 0.162815932566,-0.0975569520565 0.469064948584,-0.0975569520565 l 1.48383463115,-3.73709902905 l -0.603116733063,0 q -0.641378477217,0 -0.641378477217,-0.487871688308 q 0,-0.292710368908 0.162815932566,-0.390306833703 q 0.172119700141,-0.0975964647953 0.478640076047,-0.0975964647953 l 2.06776234359,0 l 1.90502394242,4.71284240566 q 0.650953604679,0 0.650953604679,0.487871688308 q 0,0.487871688308 -0.631803349754,0.487871688308 l -1.33063259175,0 q -0.631842115452,0 -0.631842115452,-0.487871688308 z m 0.23918435808,-2.02954811997 l -0.746704879308,-1.87342538649 l -0.756241241072,1.87342538649 z" stroke-width="1.03551003"/>
  </g>
</svg>
