<?xml version="1.0" encoding="UTF-8"?>
<svg xmlns="http://www.w3.org/2000/svg" width="16px" height="16px" viewBox="0 0 16 16">
  <g fill="#2e3436">
    <path d="m 3.9999983748,-7.76715332051E-08 c -2.21600004188,0 -4.00000007559,2.03885704378 -4.00000007559,4.57142834928 l 0,6.85714252393 c 0,2.5325713055 1.78400003371,4.57142834928 4.00000007559,4.57142834928 l 8.00000015118,0 c 2.21600004188,0 4.00000007559,-2.03885704378 4.00000007559,-4.57142834928 l 0,-6.85714252393 c 0,-2.5325713055 -1.78400003371,-4.57142834928 -4.00000007559,-4.57142834928 z m 0,2.28571417464 l 8.00000015118,0 c 1.10800002094,0 2.0000000378,1.01942852189 2.0000000378,2.28571417464 l 0,6.85714252393 c 0,1.26628565275 -0.892000016857,2.28571417464 -2.0000000378,2.28571417464 l -8.00000015118,0 c -1.10800002094,0 -2.0000000378,-1.01942852189 -2.0000000378,-2.28571417464 l 0,-6.85714252393 c 0,-1.26628565275 0.892000016857,-2.28571417464 2.0000000378,-2.28571417464 z" fill="#2e3436" stroke-width="2.1380899" stroke-linecap="round" stroke-linejoin="round"/>
    <path d="M 2.00049266143,6.05923124196 L 2.00049266143,7.65371926556 l 12.0029521891,0 L 14.0034448505,6.05923124196 Z" fill="#2e3436"/>
  </g>
</svg>
