<?xml version="1.0" encoding="UTF-8" standalone="no"?>
<svg
   xmlns:dc="http://purl.org/dc/elements/1.1/"
   xmlns:cc="http://creativecommons.org/ns#"
   xmlns:rdf="http://www.w3.org/1999/02/22-rdf-syntax-ns#"
   xmlns:svg="http://www.w3.org/2000/svg"
   xmlns="http://www.w3.org/2000/svg"
   width="15.599534"
   height="9.5647068"
   viewBox="0 0 4.1273766 2.5306621"
   version="1.1"
   id="svg4268">
  <defs
     id="defs4262" />
  <metadata
     id="metadata4265">
    <rdf:RDF>
      <cc:Work
         rdf:about="">
        <dc:format>image/svg+xml</dc:format>
        <dc:type
           rdf:resource="http://purl.org/dc/dcmitype/StillImage" />
        <dc:title />
      </cc:Work>
    </rdf:RDF>
  </metadata>
  <path
     id="ellipse1470"
     style="color:#000000;font-style:normal;font-variant:normal;font-weight:normal;font-stretch:normal;font-size:medium;line-height:normal;font-family:sans-serif;font-variant-ligatures:normal;font-variant-position:normal;font-variant-caps:normal;font-variant-numeric:normal;font-variant-alternates:normal;font-variant-east-asian:normal;font-feature-settings:normal;font-variation-settings:normal;text-indent:0;text-align:start;text-decoration:none;text-decoration-line:none;text-decoration-style:solid;text-decoration-color:#000000;letter-spacing:normal;word-spacing:normal;text-transform:none;writing-mode:lr-tb;direction:ltr;text-orientation:mixed;dominant-baseline:auto;baseline-shift:baseline;text-anchor:start;white-space:normal;shape-padding:0;shape-margin:0;inline-size:0;clip-rule:nonzero;display:inline;overflow:visible;visibility:visible;isolation:auto;mix-blend-mode:normal;color-interpolation:sRGB;color-interpolation-filters:linearRGB;solid-color:#000000;solid-opacity:1;vector-effect:none;fill:#000000;fill-opacity:1;fill-rule:nonzero;stroke:none;stroke-width:0.167824;stroke-linecap:butt;stroke-linejoin:miter;stroke-miterlimit:10;stroke-dasharray:none;stroke-dashoffset:0;stroke-opacity:1;color-rendering:auto;image-rendering:auto;shape-rendering:auto;text-rendering:auto;enable-background:accumulate;stop-color:#000000"
     d="M 1.964865,8.44e-4 C 1.331776,0.023024 0.651776,0.195295 0.215494,0.684596 -0.03433,0.978791 -0.08343,1.441145 0.155814,1.756762 0.457389,2.194766 0.99193,2.395145 1.49689,2.481923 2.219176,2.601766 3.00629,2.509993 3.627042,2.101595 3.947034,1.886096 4.198581,1.498727 4.109097,1.100891 4.012547,0.646347 3.592309,0.352339 3.182243,0.195873 2.795813,0.046047 2.377628,-0.00756 1.964861,8.44e-4 Z m 0.09801,0.487083 c 0.474793,0.0069 0.979141,0.0986 1.360084,0.399539 C 3.583472,1.016581 3.71221,1.249905 3.587361,1.44618 3.421129,1.732423 3.086646,1.859451 2.78494,1.950344 2.286944,2.07874 1.763845,2.070774 1.268988,1.931154 0.996822,1.843014 0.709263,1.712123 0.546196,1.466482 0.441606,1.302333 0.487666,1.084916 0.629816,0.958298 0.948615,0.637553 1.419509,0.535322 1.854835,0.496169 c 0.06917,-0.0064 0.13867,-0.0059 0.208042,-0.0082 z" />
</svg>
