<?xml version="1.0" encoding="UTF-8"?>
<svg xmlns="http://www.w3.org/2000/svg" width="16px" height="16px" viewBox="0 0 16 16">
  <g fill="#2e3436">
    <path d="m 2.00196165913,1.7817872329 l 11.9970560943,0 c 0.553859332433,0 0.99974900663,0.79236800889 0.99974900663,1.77660344165 l 0,8.88307764104 c 0,0.984235432758 -0.445889674197,1.77660344165 -0.99974900663,1.77660344165 l -11.9970560943,0 c -0.553863111031,0 -0.99974900663,-0.79236800889 -0.99974900663,-1.77660344165 l 0,-8.88307764104 c 0,-0.984235432758 0.445885895599,-1.77660344165 0.99974900663,-1.77660344165 z" fill="#2e3436" stroke-width="2.66546631" stroke-linecap="round" stroke-linejoin="round" fill-opacity="0"/>
    <path d="m 1.99999678819,0 c -1.09043157918,0 -1.99999678819,1.61634237195 -1.99999678819,3.55409994578 l 0,8.89180010844 c 0,1.93775757382 0.909565209013,3.55409994578 1.99999678819,3.55409994578 l 12.0000034007,0 c 1.09043157918,0 2.00000056679,-1.61634237195 2.00000056679,-3.55409994578 l 0,-8.89180010844 c 0,-1.93775757382 -0.909568987611,-3.55409994578 -2.00000056679,-3.55409994578 z m 0,3.55409994578 l 12.0000034007,0 l 0,8.89180010844 l -12.0000034007,0 z" fill="#2e3436" stroke-linecap="round" stroke-linejoin="round"/>
  </g>
</svg>
