<?xml version="1.0" encoding="UTF-8" standalone="no"?>
<svg
   width="15.391774"
   height="15.369814"
   viewBox="0 0 4.0724068 4.0665967"
   version="1.1"
   id="svg4268"
   xmlns="http://www.w3.org/2000/svg"
   xmlns:svg="http://www.w3.org/2000/svg"
   xmlns:rdf="http://www.w3.org/1999/02/22-rdf-syntax-ns#"
   xmlns:cc="http://creativecommons.org/ns#"
   xmlns:dc="http://purl.org/dc/elements/1.1/">
  <defs
     id="defs4262" />
  <metadata
     id="metadata4265">
    <rdf:RDF>
      <cc:Work
         rdf:about="">
        <dc:format>image/svg+xml</dc:format>
        <dc:type
           rdf:resource="http://purl.org/dc/dcmitype/StillImage" />
        <dc:title />
      </cc:Work>
    </rdf:RDF>
  </metadata>
  <g
     id="basic-event"
     style="display:inline"
     transform="translate(-69.925671,-44.527258)">
    <path
       id="circle1398"
       style="color:#000000;font-style:normal;font-variant:normal;font-weight:normal;font-stretch:normal;font-size:medium;line-height:normal;font-family:sans-serif;font-variant-ligatures:normal;font-variant-position:normal;font-variant-caps:normal;font-variant-numeric:normal;font-variant-alternates:normal;font-variant-east-asian:normal;font-feature-settings:normal;font-variation-settings:normal;text-indent:0;text-align:start;text-decoration:none;text-decoration-line:none;text-decoration-style:solid;text-decoration-color:#000000;letter-spacing:normal;word-spacing:normal;text-transform:none;writing-mode:lr-tb;direction:ltr;text-orientation:mixed;dominant-baseline:auto;baseline-shift:baseline;text-anchor:start;white-space:normal;shape-padding:0;shape-margin:0;inline-size:0;clip-rule:nonzero;display:inline;overflow:visible;visibility:visible;opacity:1;isolation:auto;mix-blend-mode:normal;color-interpolation:sRGB;color-interpolation-filters:linearRGB;solid-color:#000000;solid-opacity:1;vector-effect:none;fill:#000000;fill-opacity:1;fill-rule:nonzero;stroke:none;stroke-width:0.163991;stroke-linecap:butt;stroke-linejoin:miter;stroke-miterlimit:10;stroke-dasharray:none;stroke-dashoffset:0;stroke-opacity:1;color-rendering:auto;image-rendering:auto;shape-rendering:auto;text-rendering:auto;enable-background:accumulate;stop-color:#000000;stop-opacity:1"
       d="m 71.860931,44.529435 c -0.884839,0.0288 -1.696577,0.709882 -1.883068,1.574799 -0.186002,0.775016 0.136435,1.642162 0.787357,2.103753 0.657895,0.487484 1.615626,0.517898 2.299047,0.06374 0.666905,-0.42429 1.043734,-1.259107 0.90537,-2.039643 -0.129714,-0.848766 -0.852157,-1.568821 -1.705693,-1.682424 -0.133299,-0.0198 -0.268369,-0.02626 -0.403013,-0.02023 z m 0.100888,0.508625 c 0.717191,-0.01401 1.391644,0.551724 1.501192,1.261258 0.114023,0.630805 -0.21285,1.313472 -0.784568,1.60857 -0.462896,0.248685 -1.091035,0.235115 -1.541714,-0.06358 -0.608082,-0.376495 -0.868269,-1.210884 -0.583633,-1.86658 0.225248,-0.557239 0.806668,-0.948319 1.408723,-0.939668 z" />
  </g>
</svg>
