<?xml version="1.0" encoding="UTF-8"?>
<svg xmlns="http://www.w3.org/2000/svg" width="16px" height="16px" viewBox="0 0 16 16">
  <g fill="#2e3436">
    <path d="M 1.00022448119,1.00172313481 L 15.003223565,1.00172313481 l 0,13.9965514632 l -14.0029990838,0 z" fill="#2e3436" stroke-width="1.99996946" stroke-linecap="round" stroke-linejoin="round" fill-opacity="0"/>
    <path d="M 0.996776813033,0 A 1.00032,0.999854 0 0,0 7.56067581165E-06,1.00369178398 l 0,13.9926179435 a 1.00032,0.999854 0 0,0 0.996769252357,1.00368989468 L 15.003223565,15.9999996221 a 1.00032,0.999854 0 0,0 0.996769252357,-1.00368989468 L 15.9999928174,1.00369178398 A 1.00032,0.999854 0 0,0 15.003223565,0 Z m 1.00415225226,1.99999829963 l 12.0055252474,0 l 0,12.0000011336 l -12.0055252474,0 z" fill="#2e3436" stroke-linecap="round" stroke-linejoin="round"/>
    <path d="m 7.3022632245,1.9926186992 l -0.00756067578172,0.730629564368 l -0.583291015207,0.575642840942 l -4.71065636377,0 l 0,1.4022147681 l 5.29394737897,0 l 1.38809470947,-1.39483138907 l 0.022303993556,-1.29889280488 z" fill="#2e3436"/>
    <path d="m 5.50069405822,6.30258118812 c -1.20694847841,0 -2.20027384295,0.992867992155 -2.20027384295,2.19926451494 l 0,1.99999641033 c 0,1.20639652278 0.993325364539,2.19926451494 2.20027384295,2.19926451494 l 4.99861226159,0 c 1.20694847841,0 2.20027384295,-0.992867992154 2.20027384295,-2.19926451494 l 0,-1.99999641033 c 0,-1.20639652278 -0.993325364539,-2.19926451494 -2.20027384295,-2.19926451494 z m 0,1.39483516767 l 4.99861226159,0 c 0.45540218436,0 0.804796133584,0.349217957897 0.804796133584,0.804429347269 l 0,1.99999641033 c 0,0.455196274983 -0.349378827873,0.797049746839 -0.804796133584,0.797049746839 l -4.99861226159,0 c -0.455405964697,0 -0.797413133683,-0.341849693258 -0.797413133683,-0.797049746839 l 0,-1.99999641033 c 0,-0.455196274983 0.342007168986,-0.804429347269 0.797413133683,-0.804429347269 z" fill="#2e3436"/>
    <path d="m 4.00185056991,8.22140199372 l 0,1.00368989468 l 8.00368223812,0 l 0,-1.00368989468 z" fill="#2e3436"/>
  </g>
</svg>
