<?xml version="1.0" encoding="UTF-8" standalone="no"?>
<svg
   width="14.003445"
   height="14.003445"
   viewBox="0 0 3.705078 3.7050782"
   version="1.1"
   id="svg4268"
   xmlns="http://www.w3.org/2000/svg"
   xmlns:svg="http://www.w3.org/2000/svg"
   xmlns:rdf="http://www.w3.org/1999/02/22-rdf-syntax-ns#"
   xmlns:cc="http://creativecommons.org/ns#"
   xmlns:dc="http://purl.org/dc/elements/1.1/">
  <defs
     id="defs4262" />
  <metadata
     id="metadata4265">
    <rdf:RDF>
      <cc:Work
         rdf:about="">
        <dc:format>image/svg+xml</dc:format>
        <dc:type
           rdf:resource="http://purl.org/dc/dcmitype/StillImage" />
      </cc:Work>
    </rdf:RDF>
  </metadata>
  <g
     id="deep-history-pseudostate"
     style="display:inline"
     transform="translate(-43.857378,-58.35811)">
    <g
       id="path1192-7-1"
       style="display:inline"
       transform="translate(-8.0137156,53.461626)">
      <path
         style="color:#000000;fill:#000000;fill-opacity:0;stroke-width:0.529167;stroke-linecap:round;stroke-linejoin:round;-inkscape-stroke:none"
         d="m 55.310908,6.748529 a 1.5875,1.5875 0 0 1 -1.5875,1.5874999 1.5875,1.5875 0 0 1 -1.5875,-1.5874999 1.5875,1.5875 0 0 1 1.5875,-1.5875 1.5875,1.5875 0 0 1 1.5875,1.5875 z"
         id="path4146-2" />
      <path
         style="color:#000000;fill:#000000;stroke-linecap:round;stroke-linejoin:round;-inkscape-stroke:none"
         d="m 53.722656,4.8964844 c -1.019742,0 -1.851562,0.8318199 -1.851562,1.8515625 0,1.0197425 0.83182,1.8535156 1.851562,1.8535156 1.019743,0 1.853516,-0.8337731 1.853516,-1.8535156 0,-1.0197426 -0.833773,-1.8515625 -1.853516,-1.8515625 z m 0,0.5292968 c 0.73376,0 1.324219,0.5885059 1.324219,1.3222657 0,0.7337597 -0.590459,1.3242187 -1.324219,1.3242187 -0.73376,0 -1.322265,-0.590459 -1.322265,-1.3242187 0,-0.7337598 0.588505,-1.3222657 1.322265,-1.3222657 z"
         id="path4148-7" />
    </g>
    <path
       style="color:#000000;display:inline;fill:#000000;stroke-linecap:square;-inkscape-stroke:none"
       d="m 44.982378,59.498735 v 0.185547 1.058594 0.185547 h 0.371093 v -0.185547 -1.058594 -0.185547 z"
       id="path1083-0" />
    <path
       style="color:#000000;display:inline;fill:#000000;stroke-linecap:square;-inkscape-stroke:none"
       d="m 45.709862,59.498735 v 0.185547 1.058594 0.185547 h 0.369141 v -0.185547 -1.058594 -0.185547 z"
       id="path1085-9" />
    <path
       style="color:#000000;display:inline;fill:#000000;stroke-width:0.835262;stroke-linecap:square;-inkscape-stroke:none"
       d="m 45.24605,60.028032 v 0.371094 h 0.129449 0.369271 0.129449 V 60.028032 H 45.74477 45.375499 Z"
       id="path1087-3" />
    <g
       aria-label="*"
       id="text2497"
       style="font-size:2.11667px;line-height:1.25;font-family:FreeSans;-inkscape-font-specification:FreeSans;stroke-width:0.264583">
      <path
         d="m 46.430578,59.753895 h 0.133351 l -0.01058,0.237067 0.224367,-0.08043 0.04022,0.124883 -0.2286,0.0635 0.148167,0.188384 -0.107951,0.0762 -0.131233,-0.19685 -0.13335,0.19685 -0.105834,-0.0762 0.14605,-0.188384 -0.2286,-0.0635 0.04022,-0.124883 0.224367,0.08043 z"
         id="path2549" />
    </g>
  </g>
</svg>
