<?xml version="1.0" encoding="UTF-8" standalone="no"?>
<svg
   xmlns:dc="http://purl.org/dc/elements/1.1/"
   xmlns:cc="http://creativecommons.org/ns#"
   xmlns:rdf="http://www.w3.org/1999/02/22-rdf-syntax-ns#"
   xmlns:svg="http://www.w3.org/2000/svg"
   xmlns="http://www.w3.org/2000/svg"
   width="16.000002"
   height="16"
   viewBox="0 0 4.2333337 4.2333335"
   version="1.1"
   id="svg4268">
  <defs
     id="defs4262" />
  <metadata
     id="metadata4265">
    <rdf:RDF>
      <cc:Work
         rdf:about="">
        <dc:format>image/svg+xml</dc:format>
        <dc:type
           rdf:resource="http://purl.org/dc/dcmitype/StillImage" />
        <dc:title />
      </cc:Work>
    </rdf:RDF>
  </metadata>
  <path
     style="color:#000000;font-style:normal;font-variant:normal;font-weight:normal;font-stretch:normal;font-size:medium;line-height:normal;font-family:sans-serif;font-variant-ligatures:normal;font-variant-position:normal;font-variant-caps:normal;font-variant-numeric:normal;font-variant-alternates:normal;font-variant-east-asian:normal;font-feature-settings:normal;font-variation-settings:normal;text-indent:0;text-align:start;text-decoration:none;text-decoration-line:none;text-decoration-style:solid;text-decoration-color:#000000;letter-spacing:normal;word-spacing:normal;text-transform:none;writing-mode:lr-tb;direction:ltr;text-orientation:mixed;dominant-baseline:auto;baseline-shift:baseline;text-anchor:start;white-space:normal;shape-padding:0;shape-margin:0;inline-size:0;clip-rule:nonzero;display:inline;overflow:visible;visibility:visible;isolation:auto;mix-blend-mode:normal;color-interpolation:sRGB;color-interpolation-filters:linearRGB;solid-color:#000000;solid-opacity:1;vector-effect:none;fill:#000000;fill-opacity:1;fill-rule:nonzero;stroke:none;stroke-linecap:round;stroke-linejoin:round;stroke-miterlimit:4;stroke-dasharray:none;stroke-dashoffset:0;stroke-opacity:1;color-rendering:auto;image-rendering:auto;shape-rendering:auto;text-rendering:auto;enable-background:accumulate;stop-color:#000000;stop-opacity:1;opacity:1"
     d="M 0.26367188 0 A 0.26460996 0.26460996 0 0 0 0 0.26367188 L 0 3.96875 A 0.26460996 0.26460996 0 0 0 0.26367188 4.2324219 L 3.96875 4.2324219 A 0.26460996 0.26460996 0 0 0 4.2324219 3.96875 L 4.2324219 0.26367188 A 0.26460996 0.26460996 0 0 0 3.96875 0 L 0.26367188 0 z M 0.52929688 0.52929688 L 3.7050781 0.52929688 L 3.7050781 3.7050781 L 0.52929688 3.7050781 L 0.52929688 0.52929688 z "
     id="rect1104" />
  <g
     aria-label="VT"
     id="text1108"
     style="font-style:normal;font-variant:normal;font-weight:bold;font-stretch:normal;font-size:2.46944px;line-height:1.25;font-family:FreeMono;-inkscape-font-specification:'FreeMono, Bold';font-variant-ligatures:normal;font-variant-caps:normal;font-variant-numeric:normal;font-variant-east-asian:normal;letter-spacing:0px;word-spacing:0px;display:inline;fill:#000000;fill-opacity:1;stroke:none;stroke-width:0.264583"
     transform="translate(-93.662503,-4.7624999)">
    <path
       d="m 94.945019,6.2240116 q 0,0.123472 -0.162983,0.123472 h -0.04692 l 0.355599,0.8371402 0.3556,-0.8371402 h -0.05927 q -0.07902,0 -0.121003,-0.024694 -0.04198,-0.027164 -0.04198,-0.098778 0,-0.071614 0.04198,-0.096308 0.04198,-0.027164 0.121003,-0.027164 h 0.325966 q 0.162983,0 0.162983,0.123472 0,0.123472 -0.167922,0.123472 L 95.201841,7.5402231 H 94.957366 L 94.45854,6.3474836 q -0.167922,0 -0.167922,-0.123472 0,-0.071614 0.04198,-0.096308 0.04198,-0.027164 0.121003,-0.027164 h 0.328435 q 0.07902,0 0.121003,0.027164 0.04198,0.024694 0.04198,0.096308 z"
       style="font-style:normal;font-variant:normal;font-weight:bold;font-stretch:normal;font-size:2.46944px;font-family:FreeMono;-inkscape-font-specification:'FreeMono, Bold';font-variant-ligatures:normal;font-variant-caps:normal;font-variant-numeric:normal;font-variant-east-asian:normal"
       id="path1371" />
    <path
       d="m 96.848954,7.2932791 q 0.162983,0 0.162983,0.123472 0,0.123472 -0.162983,0.123472 h -0.570441 q -0.162983,0 -0.162983,-0.123472 0,-0.071614 0.04198,-0.096308 0.04198,-0.027164 0.121002,-0.027164 h 0.160514 V 6.3474836 h -0.26423 v 0.2296579 q 0,0.1629831 -0.123472,0.1629831 -0.123472,0 -0.123472,-0.1629831 V 6.1005396 h 1.274231 v 0.4766019 q 0,0.079022 -0.02716,0.1210026 -0.02469,0.04198 -0.09631,0.04198 -0.123472,0 -0.123472,-0.1629831 V 6.3474836 h -0.269169 v 0.9457955 z"
       style="font-style:normal;font-variant:normal;font-weight:bold;font-stretch:normal;font-size:2.46944px;font-family:FreeMono;-inkscape-font-specification:'FreeMono, Bold';font-variant-ligatures:normal;font-variant-caps:normal;font-variant-numeric:normal;font-variant-east-asian:normal"
       id="path1373" />
  </g>
</svg>
