<?xml version="1.0" encoding="UTF-8"?>
<svg xmlns="http://www.w3.org/2000/svg" width="16px" height="16px" viewBox="0 0 16 16">
  <g fill="#2e3436">
    <path d="M 7.99783568318,3.00028897807 L 14.9977385743,1.00006180237 L 12.9977684794,8.00086447722" fill="#2e3436" stroke-width="2.00010241" stroke-linecap="round" stroke-linejoin="round" fill-opacity="0"/>
    <path d="m 14.7221543163,0.0393505345527 l -6.99793756367,2.00072235067 a 0.999987,1.00012 0 0,0 -0.686503985587,1.23291764465 a 0.999987,1.00012 0 0,0 1.23275918293,0.686592230402 l 5.27059617664,-1.50607657182 l -1.5058867816,5.2712736713 a 0.999987,1.00012 0 0,0 0.686507765063,1.24029990972 a 0.999987,1.00012 0 0,0 1.24014049918,-0.686592230402 l 2.00046520623,-7.00621935987 A 1.00009,1.00022 0 0,0 14.7221543163,0.0393505345527 Z" fill="#2e3436" stroke-linecap="round" stroke-linejoin="round"/>
    <path d="m 0.997932792086,15.001670932 l 12.9998207347,-13.0014955418" fill="#2e3436" stroke-width="2.00010241" stroke-dasharray="2.00010241, 4.0001897" stroke-linecap="round" fill-opacity="0"/>
    <path d="m 13.2900882562,1.29441497439 l -0.273142716573,0.273177826972 a 0.999987,1.00012 0 0,0 0,1.41010334604 a 0.999987,1.00012 0 0,0 1.41730342763,0 l 0.273142716573,-0.273177826972 a 0.999987,1.00012 0 0,0 0,-1.41010334604 a 0.999987,1.00012 0 0,0 -1.41730342763,0 z m -2.39170142387,2.80544216196 a 0.999987,1.00012 0 0,0 -0.708651713816,0.295328402121 l -1.41730342763,1.41010334604 a 0.999987,1.00012 0 0,0 0,1.4174856111 a 0.999987,1.00012 0 0,0 1.41730342763,0 l 1.41730342763,-1.4174856111 a 0.999987,1.00012 0 0,0 0,-1.41010334604 a 0.999987,1.00012 0 0,0 -0.708651713816,-0.295328402121 z m -4.24452896665,4.24507456825 a 0.999987,1.00012 0 0,0 -0.708651713816,0.295328402121 l -1.40992211138,1.41010334604 a 0.999987,1.00012 0 0,0 0,1.4174856111 a 0.999987,1.00012 0 0,0 1.40992211138,0 l 1.41730342763,-1.4174856111 a 0.999987,1.00012 0 0,0 0,-1.41010334604 a 0.999987,1.00012 0 0,0 -0.708651713816,-0.295328402121 z m -4.24452896665,4.24507456825 a 0.999987,1.00012 0 0,0 -0.701266618089,0.287919677327 l -1.41730342763,1.4174856111 a 0.999987,1.00012 0 0,0 0,1.41010334604 a 0.999987,1.00012 0 0,0 1.41730342763,0 l 1.40991833191,-1.41010334604 a 0.999987,1.00012 0 0,0 0,-1.4174856111 a 0.999987,1.00012 0 0,0 -0.708651713816,-0.287919677327 z" fill="#2e3436" stroke-dasharray="2.00010241, 4.0001897" stroke-linecap="round"/>
  </g>
</svg>
