<?xml version="1.0" encoding="UTF-8"?>
<svg xmlns="http://www.w3.org/2000/svg" width="16px" height="16px" viewBox="0 0 16 16">
  <g fill="#2e3436">
    <path d="m 1.59527308567,7.56067507268E-06 a 1.60079,1.00021 0 0,0 -1.59527308567,0.996769158154 l 0,14.0064454282 a 1.60079,1.00021 0 0,0 1.59527308567,0.996769158154 a 1.60079,1.00021 0 0,0 1.60708916146,-0.996769158154 l 0,-14.0064454282 a 1.60079,1.00021 0 0,0 -1.60708916146,-0.996769158154 z" fill="#2e3436" stroke-linecap="round"/>
    <path d="m 3.20236224712,2.99769803434 l 0,2.00092131551 l 9.59527066558,0 l 0,6.00276394653 l -9.59527066558,0 l 0,2.00091753517 l 11.202359827,0 a 1.60095,1.00031 0 0,0 1.59526703545,-1.00415215736 l 0,-7.9962984825 a 1.60095,1.00031 0 0,0 -1.59526703545,-1.00415215736 z" fill="#2e3436" stroke-linejoin="round"/>
  </g>
</svg>
