<?xml version="1.0" encoding="UTF-8"?>
<svg xmlns="http://www.w3.org/2000/svg" width="16px" height="16px" viewBox="0 0 16 16">
  <g fill="#2e3436">
    <path d="m 1.00221923928,14.9338514069 l 0,-13.8666509976 l 13.9965443338,0 L 14.9987635731,14.9338514069" fill="#2e3436" stroke-width="2.06533632" stroke-linecap="round" stroke-linejoin="round" fill-opacity="0"/>
    <path d="m 1.00369666966,8.06298382372E-06 a 0.999854,1.06677 0 0,0 -1.00368911247,1.07086503545 l 0,13.8661269037 a 0.999754,1.06667 0 0,0 1.00368911247,1.06299153178 a 0.999754,1.06667 0 0,0 0.996305739196,-1.06299153178 L 2.00000240885,2.13386463021 l 11.9999917816,0 l 0,12.8031353719 a 0.999754,1.06667 0 0,0 0.99630951779,1.06299153178 a 0.999754,1.06667 0 0,0 1.00368911247,-1.06299153178 l 0,-13.8661269037 a 0.999854,1.06677 0 0,0 -1.00368911247,-1.07086503545 z" fill="#2e3436" stroke-linecap="round" stroke-linejoin="round"/>
    <path d="m 2.00000240885,4.80315169942 l 0,1.06299153178 l 11.9999917816,0 l 0,-1.06299153178 z" fill="#2e3436"/>
    <path d="M 7.99999829963,1.07087309844 A 0.999753,1.06667 0 0,0 7.00368878184,2.13386463021 l 0,12.8031353719 a 0.999753,1.06667 0 0,0 0.99630951779,1.06299153178 a 0.999753,1.06667 0 0,0 1.00368911247,-1.06299153178 L 9.0036874121,2.13386463021 a 0.999753,1.06667 0 0,0 -1.00368911247,-1.06299153178 z" fill="#2e3436" stroke-linecap="round"/>
  </g>
</svg>
