<?xml version="1.0" encoding="UTF-8"?>
<svg xmlns="http://www.w3.org/2000/svg" width="16px" height="16px" viewBox="0 0 16 16">
  <g fill="#2e3436">
    <path d="m 5.00123286205,1.33496820626 l 5.99851406635,0 c 2.21545773416,0 3.99902134313,2.37808262658 3.99902134313,5.33202845787 l 0,2.66599659548 c 0,2.95394079317 -1.78356360897,5.33202341974 -3.99902134313,5.33202341974 L 5.00123286205,14.6650166794 c -2.21545773416,0 -3.99902134313,-2.37808262658 -3.99902134313,-5.33202341974 l 0,-2.66599659548 c 0,-2.95394583129 1.78356360897,-5.33202845787 3.99902134313,-5.33202845787 z" fill="#2e3436" stroke-width="2.30883419" fill-opacity="0"/>
    <path d="m 5.00368895073,5.68434188608E-14 c -2.75202620231,0 -5.00369046217,3.00222118521 -5.00369046217,6.67158639982 l 0,2.65682720036 c 0,3.66936521461 2.25166425986,6.67158639982 5.00369046217,6.67158639982 l 5.99262020925,0 c 2.75202620231,0 5.00369008431,-3.00222118521 5.00369008431,-6.67158639982 l 0,-2.65682720036 c 0,-3.66936521461 -2.251663882,-6.67158639982 -5.00369008431,-6.67158639982 z m 0,2.66666666667 l 5.99262020925,0 c 1.67888510956,0 3.00368989538,1.76640839957 3.00368989538,4.00491973316 l 0,2.65682720036 c 0,2.23851133359 -1.32480478582,4.00491973316 -3.00368989538,4.00491973316 L 5.00368895073,13.3333333333 c -1.67888510956,0 -3.00369027324,-1.76640839957 -3.00369027324,-4.00491973316 l 0,-2.65682720036 c 0,-2.23851133359 1.32480516368,-4.00491973316 3.00369027324,-4.00491973316 z" fill="#2e3436"/>
    <path d="m 7.5276118866,4.82650140238 q 0,0.701132591595 -0.694121462389,0.701132591595 l -0.199806283041,0 l 1.51444682703,4.75367897101 l 1.51444682703,-4.75367897101 l -0.252407804505,0 q -0.33654373934,0 -0.515332600865,-0.140226518319 q -0.178772299333,-0.154271253067 -0.178772299333,-0.560906073276 q 0,-0.406678986041 0.178772299333,-0.546883421444 q 0.178805423716,-0.154271253067 0.515332600865,-0.154271253067 l 1.38824292478,0 q 0.694121462389,0 0.694121462389,0.701132591595 q 0,0.701132591595 -0.715155446098,0.701132591595 l -2.15598333015,6.77294083481 l -1.04118219358,0 l -2.12443235459,-6.77294083481 q -0.715155446098,0 -0.715155446098,-0.701132591595 q 0,-0.406678986041 0.178772299333,-0.546883421444 q 0.178805423716,-0.154271253067 0.515332600865,-0.154271253067 l 1.39875991663,0 q 0.33654373934,0 0.515332600865,0.154271253067 q 0.178805423716,0.140226518319 0.178805423716,0.546883421444 z" stroke-width="1.01199659"/>
  </g>
</svg>
