<?xml version="1.0" encoding="UTF-8"?>
<svg xmlns="http://www.w3.org/2000/svg" width="16px" height="16px" viewBox="0 0 16 16">
  <g fill="#2e3436">
    <path d="m 8.00165024096,-1.10289386157E-06 c -3.15519598636,0 -6.22675488493,2.24952821843 -7.51486685727,5.15787062472 c -0.839362613343,1.89513404187 -0.430382514248,4.24525607625 0.0150134709475,6.24605722346 c 0.445395985196,2.00080114721 1.05306896148,3.63616691888 1.05306896148,3.63616691888 l 0.346745426459,0.95990485303 l 0.946045926973,-0.325132168175 l 4.36209275199,-1.50400381455 l -0.453768460965,-1.07049803176 c 0,0 -0.470502453765,-1.11403999082 -0.832601072047,-2.46613955599 c -0.362087659544,-1.35208824087 -0.477132490206,-2.95658395262 -0.258987853213,-3.47691319448 c 0.328367622971,-0.783245669319 1.53554931579,-1.62123303697 2.33729058186,-1.62123303697 c 0.801752224809,0 2.00892295889,0.837987367656 2.3373015406,1.62123303697 c 0.218144636993,0.520329241869 0.0966560684355,2.12482495362 -0.265409673633,3.47691319448 c -0.362087659544,1.35209956517 -0.834748984679,2.46613955599 -0.834748984679,2.46613955599 l -0.451620548333,1.07049803176 l 5.30600172507,1.82913598273 l 0.355304200773,-0.95990485303 c 0,0 0.59911420197,-1.63536577167 1.04449922843,-3.63616691888 c 0.445395985196,-2.00080114721 0.862737601322,-4.35092318159 0.0235612865234,-6.24605722346 c -1.28811197234,-2.9083424063 -4.35967087091,-5.15787062472 -7.51487781601,-5.15787062472 z m -4.33854242421,10.1122547833 c 0.0824097091423,0.373826686762 0.175821991154,0.739952845003 0.269683581421,1.09040616284 c 0.244872998775,0.914415113224 0.369462890163,1.15446776555 0.558643582839,1.65440193115 l -1.28636953301,0.4357253469 c -0.188249199953,-0.555921537664 -0.392026931536,-1.0700677081 -0.680636253341,-2.36661022486 c -0.0289310681031,-0.129878472947 -0.055232039106,-0.261036592546 -0.0813138353505,-0.393689520623 z m 8.67709580715,0 l 1.22001437492,0.420233695406 c -0.0260817962445,0.132652928076 -0.0523827672474,0.263811047675 -0.0813138353505,0.393689520623 c -0.28868603297,1.29690489457 -0.500978703915,1.8108585518 -0.689205986392,2.36661022486 l -1.27779979996,-0.4357253469 c 0.189202610152,-0.500047408662 0.31400071756,-0.740847465228 0.558632624101,-1.65440193115 c 0.0938067965769,-0.35045331784 0.187230037327,-0.716579476081 0.269694540159,-1.09040616284 z" fill="#2e3436" stroke-width="4.21040505" stroke-linecap="round"/>
  </g>
</svg>
