<?xml version="1.0" encoding="UTF-8"?>
<svg xmlns="http://www.w3.org/2000/svg" width="16px" height="16px" viewBox="0 0 16 16">
  <g fill="#2e3436">
    <path d="m 0.99676312827,0 a 1.00032,1.00032 0 0,0 -0.99676312827,0.996770147288 l 0,14.0064593274 a 1.00032,1.00032 0 0,0 0.99676312827,0.996770147288 l 14.0064744995,0 a 1.00032,1.00032 0 0,0 0.99676312827,-0.996770147288 l 0,-14.0064593274 a 1.00032,1.00032 0 0,0 -0.99676312827,-0.996770147288 z m 1.00413479778,2.0009233011 l 12.0055765735,0 l 0,12.0055360263 l -12.0055765735,0 z" fill="#2e3436" stroke-width="2.0004324" stroke-linecap="square" stroke-linejoin="round" fill-opacity="0"/>
    <path d="m 11.6768379167,8.55579692772 q 0.464112751764,0 0.624134685316,0.272071162278 q 0.176163999611,0.272071162278 0.176163999611,0.800173498763 l 0,3.07265761607 l -7.55361743653,0 q -1.056227929,0 -1.056227929,-0.800173498763 q 0,-0.464097378189 0.272184720429,-0.624130565805 q 0.272184720429,-0.176050493641 0.784194422302,-0.176050493641 l 0.91219684777,0 l 0,-6.12931304749 l -0.91219684777,0 q -1.056227929,0 -1.056227929,-0.800173498763 q 0,-0.464097378189 0.272184720429,-0.624134346147 q 0.272184720429,-0.176050493641 0.784194422302,-0.176050493641 l 3.42472644136,0 q 1.056227929,0 1.056227929,0.800169718422 q 0,0.800173498763 -1.056227929,0.800173498763 l -0.91219684777,0 l 0,6.12931304749 l 3.44075509712,0 l 0,-1.47231439889 q 0,-1.07223332002 0.800147471194,-1.07223332002 z" stroke-width="1.00021431"/>
  </g>
</svg>
