<?xml version="1.0" encoding="UTF-8" standalone="no"?>
<svg
   width="16.003954"
   height="14.00346"
   viewBox="0 0 4.2343794 3.7050822"
   version="1.1"
   id="svg4268"
   xmlns="http://www.w3.org/2000/svg"
   xmlns:svg="http://www.w3.org/2000/svg"
   xmlns:rdf="http://www.w3.org/1999/02/22-rdf-syntax-ns#"
   xmlns:cc="http://creativecommons.org/ns#"
   xmlns:dc="http://purl.org/dc/elements/1.1/">
  <defs
     id="defs4262" />
  <metadata
     id="metadata4265">
    <rdf:RDF>
      <cc:Work
         rdf:about="">
        <dc:format>image/svg+xml</dc:format>
        <dc:type
           rdf:resource="http://purl.org/dc/dcmitype/StillImage" />
      </cc:Work>
    </rdf:RDF>
  </metadata>
  <g
     id="package"
     style="display:inline"
     transform="translate(-9.2597636,-4.6347636)">
    <g
       id="rect4911">
      <path
         style="color:#000000;fill:#000000;fill-opacity:0;stroke-width:0.529167;stroke-linecap:square;stroke-linejoin:round;-inkscape-stroke:none"
         d="M 9.5249996,5.9583244 H 13.229166 V 8.074991 H 9.5249996 Z"
         id="path3608" />
      <path
         style="color:#000000;fill:#000000;stroke-linecap:square;stroke-linejoin:round;-inkscape-stroke:none"
         d="m 9.5253906,5.6933594 a 0.26460996,0.26460996 0 0 0 -0.265625,0.265625 v 2.1152344 a 0.26460996,0.26460996 0 0 0 0.265625,0.265625 h 3.7031254 a 0.26460996,0.26460996 0 0 0 0.265625,-0.265625 V 5.9589844 A 0.26460996,0.26460996 0 0 0 13.228516,5.6933594 Z M 9.7890625,6.2226562 H 12.964844 V 7.8105469 H 9.7890625 Z"
         id="path3610" />
    </g>
    <g
       id="rect4913">
      <path
         style="color:#000000;fill:#000000;fill-opacity:0;stroke-width:0.529167;stroke-linecap:square;stroke-linejoin:round;-inkscape-stroke:none"
         d="M 9.5249996,4.8999915 H 11.641666 V 5.9583248 H 9.5249996 Z"
         id="path3600" />
      <path
         style="color:#000000;fill:#000000;stroke-linecap:square;stroke-linejoin:round;-inkscape-stroke:none"
         d="m 9.5253906,4.6347656 a 0.26460996,0.26460996 0 0 0 -0.265625,0.265625 v 1.0585938 a 0.26460996,0.26460996 0 0 0 0.265625,0.2636718 H 11.642578 A 0.26460996,0.26460996 0 0 0 11.90625,5.9589844 V 4.9003906 A 0.26460996,0.26460996 0 0 0 11.642578,4.6347656 Z M 9.7890625,5.1640625 H 11.376953 V 5.6933594 H 9.7890625 Z"
         id="path3602" />
    </g>
  </g>
</svg>
