<?xml version="1.0" encoding="UTF-8" standalone="no"?>
<svg
   width="15.767114"
   height="15.355113"
   viewBox="0 0 4.1717154 4.0627071"
   version="1.1"
   id="svg4268"
   xmlns="http://www.w3.org/2000/svg"
   xmlns:svg="http://www.w3.org/2000/svg"
   xmlns:rdf="http://www.w3.org/1999/02/22-rdf-syntax-ns#"
   xmlns:cc="http://creativecommons.org/ns#"
   xmlns:dc="http://purl.org/dc/elements/1.1/">
  <defs
     id="defs4262" />
  <metadata
     id="metadata4265">
    <rdf:RDF>
      <cc:Work
         rdf:about="">
        <dc:format>image/svg+xml</dc:format>
        <dc:type
           rdf:resource="http://purl.org/dc/dcmitype/StillImage" />
        <dc:title />
      </cc:Work>
    </rdf:RDF>
  </metadata>
  <g
     id="transfer-out"
     style="display:inline"
     transform="translate(-77.779562,-49.830863)">
    <path
       id="path1326"
       style="color:#000000;font-style:normal;font-variant:normal;font-weight:normal;font-stretch:normal;font-size:medium;line-height:normal;font-family:sans-serif;font-variant-ligatures:normal;font-variant-position:normal;font-variant-caps:normal;font-variant-numeric:normal;font-variant-alternates:normal;font-variant-east-asian:normal;font-feature-settings:normal;font-variation-settings:normal;text-indent:0;text-align:start;text-decoration:none;text-decoration-line:none;text-decoration-style:solid;text-decoration-color:#000000;letter-spacing:normal;word-spacing:normal;text-transform:none;writing-mode:lr-tb;direction:ltr;text-orientation:mixed;dominant-baseline:auto;baseline-shift:baseline;text-anchor:start;white-space:normal;shape-padding:0;shape-margin:0;inline-size:0;clip-rule:nonzero;display:inline;overflow:visible;visibility:visible;opacity:1;isolation:auto;mix-blend-mode:normal;color-interpolation:sRGB;color-interpolation-filters:linearRGB;solid-color:#000000;solid-opacity:1;vector-effect:none;fill:#000000;fill-opacity:1;fill-rule:nonzero;stroke:none;stroke-width:0.0407067;stroke-linecap:butt;stroke-linejoin:miter;stroke-miterlimit:10;stroke-dasharray:none;stroke-dashoffset:0;stroke-opacity:1;color-rendering:auto;image-rendering:auto;shape-rendering:auto;text-rendering:auto;enable-background:accumulate;stop-color:#000000;stop-opacity:1"
       d="m 79.847502,49.976599 c -0.652885,1.305665 -1.305769,2.611315 -1.958637,3.916971 1.354132,0 2.708281,0 4.062413,0 -0.676987,-1.354249 -1.354265,-2.708351 -2.031058,-4.062707 -0.02429,0.04867 -0.04858,0.0971 -0.07264,0.145736 z m 1.379582,3.469234 c -0.871249,0 -1.74248,0 -2.613713,0 0.435616,-0.871232 0.871233,-1.742481 1.306849,-2.613719 0.435615,0.871238 0.871238,1.742487 1.306864,2.613719 z" />
    <path
       id="line1206-3"
       style="display:inline;stroke-width:0.162487"
       d="m 78.210849,51.593619 c 0.356251,0.0088 0.712679,-0.0014 1.069009,0.0033 0,0.162761 0,0.325521 0,0.488281 -0.492192,0 -0.984396,0 -1.476588,0 -0.02492,-0.160843 -0.07665,-0.397746 0.14293,-0.47942 0.08438,-0.03046 0.176451,-0.01291 0.264649,-0.01203 z" />
  </g>
</svg>
