<?xml version="1.0" encoding="UTF-8" standalone="no"?>
<svg
   width="12.74239"
   height="15.770502"
   viewBox="0 0 3.3714239 4.1726121"
   version="1.1"
   id="svg4268"
   xmlns="http://www.w3.org/2000/svg"
   xmlns:svg="http://www.w3.org/2000/svg"
   xmlns:rdf="http://www.w3.org/1999/02/22-rdf-syntax-ns#"
   xmlns:cc="http://creativecommons.org/ns#"
   xmlns:dc="http://purl.org/dc/elements/1.1/">
  <defs
     id="defs4262" />
  <metadata
     id="metadata4265">
    <rdf:RDF>
      <cc:Work
         rdf:about="">
        <dc:format>image/svg+xml</dc:format>
        <dc:type
           rdf:resource="http://purl.org/dc/dcmitype/StillImage" />
      </cc:Work>
    </rdf:RDF>
  </metadata>
  <g
     id="zero-event"
     style="display:inline"
     transform="translate(-70.286563,-49.75225)">
    <path
       style="color:#000000;fill:#000000;stroke-width:0.0440122;stroke-miterlimit:10;-inkscape-stroke:none"
       d="m 71.914281,49.802933 c -0.542378,0.474652 -1.085067,0.949467 -1.627718,1.42401 0,0.899306 0,1.798613 0,2.697919 1.123808,0 2.247616,0 3.371424,0 0,-0.899306 0,-1.798613 0,-2.697919 -0.561955,-0.491445 -1.123765,-0.983055 -1.68555,-1.474693 -0.01938,0.01689 -0.03877,0.03379 -0.05816,0.05068 z m 1.259613,1.643964 c 0,0.664624 0,1.329249 0,1.993873 -0.800971,0 -1.601943,0 -2.402915,0 0,-0.664624 0,-1.329249 0,-1.993873 0.400486,-0.350453 0.800972,-0.700905 1.201458,-1.051358 0.400486,0.350453 0.800971,0.700905 1.201457,1.051358 z"
       id="polygon2135" />
    <g
       id="line2137"
       transform="matrix(0.16188653,0,0,0.16188653,57.064415,43.07507)">
      <path
         style="color:#000000;fill:#ffffff;stroke-width:0.79375;stroke-miterlimit:10;-inkscape-stroke:none"
         d="m 83.13208,50.98521 17.35667,14.102292"
         id="path2177" />
      <path
         style="color:#000000;fill:#000000;stroke-miterlimit:10;-inkscape-stroke:none"
         d="m 82.896484,49.599609 c -0.387214,0.605245 -0.946138,0.924598 -1.201172,1.615235 -0.09202,0.847497 0.935368,1.070776 1.390835,1.607714 5.769599,4.687233 11.538089,9.375832 17.308383,14.062208 0.61236,-0.752544 1.22306,-1.506435 1.83203,-2.261719 -6.333096,-5.143216 -12.664585,-10.288418 -18.996091,-15.433594 -0.111328,0.136719 -0.222656,0.273438 -0.333985,0.410156 z"
         id="path2179" />
    </g>
  </g>
</svg>
