<?xml version="1.0" encoding="UTF-8"?>
<svg xmlns="http://www.w3.org/2000/svg" width="16px" height="16px" viewBox="0 0 16 16">
  <g fill="#2e3436">
    <path d="m 1.0002022718,1.0027075778 l 14.0030208222,0 l 0,13.9965568945 l -14.0030208222,0 z" fill="#2e3436" stroke-width="1.99997005" stroke-linecap="round" stroke-linejoin="round" fill-opacity="0"/>
    <path d="m 0.996762162694,0 a 1.00032,0.999855 0 0,0 -0.996762162694,1.0036900132 l 0,13.9926195957 a 1.00032,0.999855 0 0,0 0.996762162694,1.0036900132 l 14.0064609313,0 a 1.00032,0.999855 0 0,0 0.996762162694,-1.0036900132 l 0,-13.9926195957 a 1.00032,0.999855 0 0,0 -0.996762162694,-1.0036900132 z m 1.00417162846,2.00000042509 l 12.0055271401,0 l 0,11.999998772 l -12.0055271401,0 z" fill="#2e3436" stroke-linecap="round" stroke-linejoin="round"/>
    <path d="m 11.5646328184,10.251025973 q 0,1.18299307595 -1.08823430597,1.92693996441 q -1.08822997653,0.74394688846 -2.57654755933,0.74394688846 q -1.4883175828,0 -2.57655188876,-0.756141332805 q -1.08822997653,-0.756141332805 -1.08822997653,-1.91474552006 L 4.23506908783,6.86058441972 q -0.976210122566,-0.0244152835907 -0.976210122566,-0.609791503854 q 0,-0.35367847835 0.272061823569,-0.475636119248 q 0.272061823569,-0.134152085243 0.7841692838,-0.134152085243 l 2.08044169839,0 q 0.512111789668,0 0.7841692838,0.121944443448 q 0.272061823569,0.121944443448 0.272061823569,0.487833862956 q 0,0.609791503854 -1.05622677793,0.609791503854 l -0.560116587563,0 l 0,3.50020145047 q 0,0.561010427112 0.608125714895,0.95127553786 q 0.608130044332,0.39026841011 1.4563143842,0.39026841011 q 0.84818001043,0 1.45631005476,-0.39026841011 q 0.608130044332,-0.390265110747 0.608130044332,-0.95127553786 L 9.96429971109,6.86058441972 L 9.40417879409,6.86058441972 q -1.05622677793,0 -1.05622677793,-0.609791503854 q 0,-0.35367847835 0.272061823569,-0.475636119248 q 0.272061823569,-0.134152085243 0.784164954363,-0.134152085243 l 2.08044602783,0 q 0.528113388966,0 0.784164954363,0.134152085243 q 0.272061823569,0.121944443448 0.272061823569,0.475636119248 q 0,0.609791503854 -0.976205793129,0.609791503854 z" stroke-width="0.87315551"/>
  </g>
</svg>
