<?xml version="1.0" encoding="UTF-8" standalone="no"?>
<svg
   xmlns:dc="http://purl.org/dc/elements/1.1/"
   xmlns:cc="http://creativecommons.org/ns#"
   xmlns:rdf="http://www.w3.org/1999/02/22-rdf-syntax-ns#"
   xmlns:svg="http://www.w3.org/2000/svg"
   xmlns="http://www.w3.org/2000/svg"
   width="16.000013"
   height="15.980063"
   viewBox="0 0 4.2333368 4.2280586"
   version="1.1"
   id="svg4268">
  <defs
     id="defs4262" />
  <metadata
     id="metadata4265">
    <rdf:RDF>
      <cc:Work
         rdf:about="">
        <dc:format>image/svg+xml</dc:format>
        <dc:type
           rdf:resource="http://purl.org/dc/dcmitype/StillImage" />
        <dc:title />
      </cc:Work>
    </rdf:RDF>
  </metadata>
  <path
     style="color:#000000;font-style:normal;font-variant:normal;font-weight:normal;font-stretch:normal;font-size:medium;line-height:normal;font-family:sans-serif;font-variant-ligatures:normal;font-variant-position:normal;font-variant-caps:normal;font-variant-numeric:normal;font-variant-alternates:normal;font-variant-east-asian:normal;font-feature-settings:normal;font-variation-settings:normal;text-indent:0;text-align:start;text-decoration:none;text-decoration-line:none;text-decoration-style:solid;text-decoration-color:#000000;letter-spacing:normal;word-spacing:normal;text-transform:none;writing-mode:lr-tb;direction:ltr;text-orientation:mixed;dominant-baseline:auto;baseline-shift:baseline;text-anchor:start;white-space:normal;shape-padding:0;shape-margin:0;inline-size:0;clip-rule:nonzero;display:inline;overflow:visible;visibility:visible;isolation:auto;mix-blend-mode:normal;color-interpolation:sRGB;color-interpolation-filters:linearRGB;solid-color:#000000;solid-opacity:1;vector-effect:none;fill:#000000;fill-opacity:1;fill-rule:nonzero;stroke:none;stroke-linecap:round;stroke-linejoin:round;stroke-miterlimit:4;stroke-dasharray:none;stroke-dashoffset:0;stroke-opacity:1;color-rendering:auto;image-rendering:auto;shape-rendering:auto;text-rendering:auto;enable-background:accumulate;stop-color:#000000;stop-opacity:1;opacity:1"
     d="M 2.1210938 0 C 1.5805108 -8.29307e-07 1.0900849 0.091243073 0.7109375 0.25390625 C 0.52136381 0.33523784 0.35794168 0.43320081 0.23046875 0.5625 C 0.10299582 0.69179919 0.0078124943 0.8653442 0.0078125 1.0585938 C 0.0078124943 1.2518433 0.10299582 1.4234352 0.23046875 1.5527344 C 0.35794168 1.6820336 0.52136381 1.7819497 0.7109375 1.8632812 C 1.0900849 2.0259444 1.5805108 2.1171883 2.1210938 2.1171875 C 2.6616746 2.1171871 3.1521046 2.0259444 3.53125 1.8632812 C 3.7208227 1.7819497 3.8842466 1.6820333 4.0117188 1.5527344 C 4.1391909 1.4234354 4.2324219 1.2518426 4.2324219 1.0585938 C 4.2324219 0.86534492 4.1391909 0.69179897 4.0117188 0.5625 C 3.8842466 0.43320103 3.7208227 0.33523784 3.53125 0.25390625 C 3.1521046 0.091243061 2.6616746 4.2721713e-07 2.1210938 0 z M 2.1210938 0.53320312 C 2.599893 0.5332035 3.0314279 0.62020164 3.3203125 0.74414062 C 3.4647548 0.80611012 3.5715316 0.87732201 3.6308594 0.9375 C 3.6901872 0.99767799 3.6992188 1.0331727 3.6992188 1.0585938 C 3.6992188 1.0840148 3.6901872 1.1195095 3.6308594 1.1796875 C 3.5715316 1.2398655 3.4647548 1.3110774 3.3203125 1.3730469 C 3.0314279 1.4969859 2.599893 1.583984 2.1210938 1.5839844 C 1.6422927 1.5839851 1.2088085 1.496986 0.91992188 1.3730469 C 0.77547857 1.3110773 0.66870332 1.2398658 0.609375 1.1796875 C 0.55004668 1.1195092 0.54101562 1.0840149 0.54101562 1.0585938 C 0.54101562 1.0331726 0.55004668 0.9976783 0.609375 0.9375 C 0.66870332 0.8773217 0.77547857 0.80611021 0.91992188 0.74414062 C 1.2088085 0.62020145 1.6422927 0.53320239 2.1210938 0.53320312 z "
     id="path1355" />
  <path
     style="color:#000000;font-style:normal;font-variant:normal;font-weight:normal;font-stretch:normal;font-size:medium;line-height:normal;font-family:sans-serif;font-variant-ligatures:normal;font-variant-position:normal;font-variant-caps:normal;font-variant-numeric:normal;font-variant-alternates:normal;font-variant-east-asian:normal;font-feature-settings:normal;font-variation-settings:normal;text-indent:0;text-align:start;text-decoration:none;text-decoration-line:none;text-decoration-style:solid;text-decoration-color:#000000;letter-spacing:normal;word-spacing:normal;text-transform:none;writing-mode:lr-tb;direction:ltr;text-orientation:mixed;dominant-baseline:auto;baseline-shift:baseline;text-anchor:start;white-space:normal;shape-padding:0;shape-margin:0;inline-size:0;clip-rule:nonzero;display:inline;overflow:visible;visibility:visible;isolation:auto;mix-blend-mode:normal;color-interpolation:sRGB;color-interpolation-filters:linearRGB;solid-color:#000000;solid-opacity:1;vector-effect:none;fill:#000000;fill-opacity:1;fill-rule:nonzero;stroke:none;stroke-linecap:butt;stroke-linejoin:miter;stroke-miterlimit:4;stroke-dasharray:none;stroke-dashoffset:0;stroke-opacity:1;color-rendering:auto;image-rendering:auto;shape-rendering:auto;text-rendering:auto;enable-background:accumulate;stop-color:#000000;stop-opacity:1;opacity:1"
     d="M 0 1.0527344 L 0 3.4335938 C 4.5832942e-06 3.5548601 0.060167255 3.651874 0.11914062 3.7148438 C 0.178114 3.7778135 0.24312623 3.8197493 0.31445312 3.859375 C 0.45710692 3.9386263 0.62922731 3.999555 0.82421875 4.0527344 C 1.2142016 4.1590932 1.6909143 4.2285156 2.1171875 4.2285156 C 2.5434607 4.2285156 3.0201744 4.1590933 3.4101562 4.0527344 C 3.6051472 3.9995549 3.7772688 3.9386269 3.9199219 3.859375 C 3.9912484 3.819749 4.0562614 3.7778151 4.1152344 3.7148438 C 4.1742074 3.6518724 4.2324219 3.5548609 4.2324219 3.4335938 L 4.2324219 1.0527344 L 3.7050781 1.0527344 L 3.7050781 3.3671875 C 3.6942632 3.375668 3.6882468 3.3819635 3.6621094 3.3964844 C 3.5815209 3.4412559 3.4402947 3.4969295 3.2714844 3.5429688 C 2.9338638 3.6350473 2.4846643 3.6992188 2.1171875 3.6992188 C 1.7497107 3.6992188 1.3005127 3.6350474 0.96289062 3.5429688 C 0.79407957 3.4969294 0.65090308 3.4412565 0.5703125 3.3964844 C 0.54553747 3.3827206 0.54037427 3.3776923 0.52929688 3.3691406 L 0.52929688 1.0527344 L 0 1.0527344 z "
     id="path1360" />
</svg>
