<?xml version="1.0" encoding="UTF-8" standalone="no"?>
<svg
   width="13.429826"
   height="15.664823"
   viewBox="0 0 3.553308 4.1446511"
   version="1.1"
   id="svg4268"
   xmlns="http://www.w3.org/2000/svg"
   xmlns:svg="http://www.w3.org/2000/svg"
   xmlns:rdf="http://www.w3.org/1999/02/22-rdf-syntax-ns#"
   xmlns:cc="http://creativecommons.org/ns#"
   xmlns:dc="http://purl.org/dc/elements/1.1/">
  <defs
     id="defs4262" />
  <metadata
     id="metadata4265">
    <rdf:RDF>
      <cc:Work
         rdf:about="">
        <dc:format>image/svg+xml</dc:format>
        <dc:type
           rdf:resource="http://purl.org/dc/dcmitype/StillImage" />
      </cc:Work>
    </rdf:RDF>
  </metadata>
  <g
     id="inhibit"
     style="display:inline"
     transform="translate(-94.006459,-39.073137)">
    <path
       style="color:#000000;fill:#000000;stroke-width:0.0396403;stroke-miterlimit:10;-inkscape-stroke:none"
       d="m 95.285864,39.642755 c -0.426222,0.246834 -0.853101,0.492531 -1.279405,0.739227 0,0.50906 0,1.018122 0,1.527183 0.44066,0.25518 0.881732,0.509669 1.322761,0.764224 0.440989,-0.254796 0.882174,-0.509261 1.323072,-0.764224 0,-0.509061 0,-1.018123 0,-1.527183 -0.441029,-0.254919 -0.882132,-0.509704 -1.323392,-0.764225 -0.01437,0.0083 -0.02865,0.01666 -0.04301,0.025 z m 0.917387,0.998081 c 0,0.336491 0,0.672982 0,1.009473 -0.291343,0.16814 -0.582687,0.33628 -0.874031,0.504421 -0.291344,-0.168141 -0.582696,-0.336281 -0.87404,-0.504421 0,-0.336491 0,-0.672982 0,-1.009473 0.291344,-0.16814 0.582696,-0.33628 0.87404,-0.504419 0.291344,0.168139 0.582688,0.336279 0.874031,0.504419 z"
       id="polygon1200" />
    <path
       style="color:#000000;fill:#000000;stroke-width:0.149821;-inkscape-stroke:none"
       d="m 95.297569,39.073464 c -0.159232,0.0059 -0.259225,0.184783 -0.212651,0.32917 0,0.207886 0,0.415771 0,0.623659 0.160816,0.02126 0.397542,0.06491 0.479419,-0.121517 0.03217,-0.187285 -8.21e-4,-0.383995 0.0093,-0.575052 -0.02389,-0.079 0.05803,-0.254001 -0.06468,-0.243275 -0.07035,-0.0067 -0.140715,-0.01509 -0.211445,-0.01298 z"
       id="line1202" />
    <path
       style="color:#000000;fill:#000000;stroke-width:0.149821;-inkscape-stroke:none"
       d="m 95.297569,42.244601 c -0.159232,0.0059 -0.259225,0.184783 -0.212651,0.32917 0,0.207992 0,0.415983 0,0.623975 0.160799,0.02118 0.397813,0.06484 0.479419,-0.121832 0.03201,-0.192529 -8.21e-4,-0.394598 0.0093,-0.590938 -0.02027,-0.08137 0.05689,-0.25102 -0.07765,-0.228666 -0.066,-0.0065 -0.132088,-0.01366 -0.198419,-0.01171 z"
       id="line1204" />
    <path
       style="color:#000000;fill:#000000;stroke-width:0.149821;-inkscape-stroke:none"
       d="m 97.193101,40.898426 c -0.302875,0.0088 -0.6059,-0.0014 -0.908842,0.0033 0,0.162761 0,0.325521 0,0.488281 0.418448,0 0.836906,0 1.255354,0 0.02118,-0.160843 0.06517,-0.397746 -0.121515,-0.47942 -0.07174,-0.03046 -0.150014,-0.01291 -0.224997,-0.01203 z"
       id="line1206" />
  </g>
</svg>
