<?xml version="1.0" encoding="UTF-8" standalone="no"?>
<svg
   xmlns:dc="http://purl.org/dc/elements/1.1/"
   xmlns:cc="http://creativecommons.org/ns#"
   xmlns:rdf="http://www.w3.org/1999/02/22-rdf-syntax-ns#"
   xmlns:svg="http://www.w3.org/2000/svg"
   xmlns="http://www.w3.org/2000/svg"
   width="16.000013"
   height="16"
   viewBox="0 0 4.2333368 4.2333335"
   version="1.1"
   id="svg4268">
  <defs
     id="defs4262" />
  <metadata
     id="metadata4265">
    <rdf:RDF>
      <cc:Work
         rdf:about="">
        <dc:format>image/svg+xml</dc:format>
        <dc:type
           rdf:resource="http://purl.org/dc/dcmitype/StillImage" />
        <dc:title />
      </cc:Work>
    </rdf:RDF>
  </metadata>
  <path
     style="color:#000000;font-style:normal;font-variant:normal;font-weight:normal;font-stretch:normal;font-size:medium;line-height:normal;font-family:sans-serif;font-variant-ligatures:normal;font-variant-position:normal;font-variant-caps:normal;font-variant-numeric:normal;font-variant-alternates:normal;font-variant-east-asian:normal;font-feature-settings:normal;font-variation-settings:normal;text-indent:0;text-align:start;text-decoration:none;text-decoration-line:none;text-decoration-style:solid;text-decoration-color:#000000;letter-spacing:normal;word-spacing:normal;text-transform:none;writing-mode:lr-tb;direction:ltr;text-orientation:mixed;dominant-baseline:auto;baseline-shift:baseline;text-anchor:start;white-space:normal;shape-padding:0;shape-margin:0;inline-size:0;clip-rule:nonzero;display:inline;overflow:visible;visibility:visible;isolation:auto;mix-blend-mode:normal;color-interpolation:sRGB;color-interpolation-filters:linearRGB;solid-color:#000000;solid-opacity:1;vector-effect:none;fill:#000000;fill-opacity:1;fill-rule:nonzero;stroke:none;stroke-linecap:round;stroke-linejoin:round;stroke-miterlimit:4;stroke-dasharray:1.05833, 1.05833000000000022;stroke-dashoffset:0;stroke-opacity:1;color-rendering:auto;image-rendering:auto;shape-rendering:auto;text-rendering:auto;enable-background:accumulate;stop-color:#000000;stop-opacity:1;opacity:1"
     d="M 0.26367188 0 A 0.2645835 0.2645835 0 0 0 0.1796875 0.013671875 A 0.2645835 0.2645835 0 0 0 0.140625 0.03125 A 0.2645835 0.2645835 0 0 0 0.044921875 0.1171875 A 0.2645835 0.2645835 0 0 0 0.001953125 0.23828125 A 0.2645835 0.2645835 0 0 0 0 0.26367188 A 0.2645835 0.2645835 0 0 0 0.013671875 0.34960938 A 0.2645835 0.2645835 0 0 0 0.1953125 0.51953125 A 0.2645835 0.2645835 0 0 0 0.23828125 0.52734375 A 0.2645835 0.2645835 0 0 0 0.26367188 0.52929688 L 1.3222656 0.52929688 A 0.2645835 0.2645835 0 0 0 1.5878906 0.26367188 A 0.2645835 0.2645835 0 0 0 1.3222656 0 L 0.26367188 0 z M 2.3808594 0 A 0.2645835 0.2645835 0 0 0 2.1171875 0.26367188 A 0.2645835 0.2645835 0 0 0 2.3808594 0.52929688 L 3.4394531 0.52929688 A 0.2645835 0.2645835 0 0 0 3.7050781 0.26367188 A 0.2645835 0.2645835 0 0 0 3.4394531 0 L 2.3808594 0 z M 3.96875 0.52929688 A 0.2645835 0.2645835 0 0 0 3.7050781 0.79296875 L 3.7050781 1.8515625 A 0.2645835 0.2645835 0 0 0 3.96875 2.1171875 A 0.2645835 0.2645835 0 0 0 4.2324219 1.8515625 L 4.2324219 0.79296875 A 0.2645835 0.2645835 0 0 0 3.96875 0.52929688 z M 0.26367188 1.0585938 A 0.2645835 0.2645835 0 0 0 0 1.3222656 L 0 2.3808594 A 0.2645835 0.2645835 0 0 0 0.26367188 2.6464844 A 0.2645835 0.2645835 0 0 0 0.52929688 2.3808594 L 0.52929688 1.3222656 A 0.2645835 0.2645835 0 0 0 0.26367188 1.0585938 z M 3.96875 2.6464844 A 0.2645835 0.2645835 0 0 0 3.7050781 2.9101562 L 3.7050781 3.96875 A 0.2645835 0.2645835 0 0 0 3.96875 4.2324219 A 0.2645835 0.2645835 0 0 0 4.2324219 3.96875 L 4.2324219 2.9101562 A 0.2645835 0.2645835 0 0 0 3.96875 2.6464844 z M 0.26367188 3.1757812 A 0.2645835 0.2645835 0 0 0 0 3.4394531 L 0 3.96875 A 0.26460996 0.26460996 0 0 0 0.26367188 4.2324219 L 0.79296875 4.2324219 A 0.2645835 0.2645835 0 0 0 1.0585938 3.96875 A 0.2645835 0.2645835 0 0 0 0.79296875 3.7050781 L 0.52929688 3.7050781 L 0.52929688 3.4394531 A 0.2645835 0.2645835 0 0 0 0.26367188 3.1757812 z M 1.8515625 3.7050781 A 0.2645835 0.2645835 0 0 0 1.5878906 3.96875 A 0.2645835 0.2645835 0 0 0 1.8515625 4.2324219 L 2.9101562 4.2324219 A 0.2645835 0.2645835 0 0 0 3.1757812 3.96875 A 0.2645835 0.2645835 0 0 0 2.9101562 3.7050781 L 1.8515625 3.7050781 z "
     id="rect1264" />
  <g
     aria-label="S"
     id="text84-8-3"
     style="font-style:normal;font-variant:normal;font-weight:bold;font-stretch:normal;font-size:4.23333px;line-height:1.25;font-family:FreeMono;-inkscape-font-specification:'FreeMono, Bold';font-variant-ligatures:normal;font-variant-caps:normal;font-variant-numeric:normal;font-variant-east-asian:normal;letter-spacing:0px;word-spacing:0px;display:inline;fill:#000000;fill-opacity:1;stroke:none;stroke-width:0.264583"
     transform="translate(-111.125,9.7895831)">
    <path
       d="m 114.00571,-8.9810385 q 0.127,0 0.1651,0.071967 0.0423,0.071967 0.0423,0.2074332 v 0.372533 q 0,0.2836331 -0.20743,0.2836331 -0.0339,0 -0.0635,-0.00423 -0.0254,-0.00847 -0.0466,-0.016933 -0.0169,-0.0127 -0.0339,-0.029633 -0.0169,-0.021167 -0.0254,-0.033867 -0.008,-0.0127 -0.0169,-0.0381 -0.008,-0.0254 -0.0127,-0.033867 0,-0.0127 -0.008,-0.0381 -0.004,-0.029633 -0.004,-0.033867 -0.0296,-0.1269999 -0.16934,-0.2031998 -0.13546,-0.080433 -0.33443,-0.080433 -0.19897,0 -0.33867,0.093133 -0.1397,0.093133 -0.1397,0.2285998 0,0.1439332 0.1397,0.2243664 0.1397,0.0762 0.32597,0.1016 0.18627,0.021167 0.41487,0.084667 0.22859,0.059267 0.35983,0.1650998 0.24976,0.1989665 0.24976,0.5291662 0,0.3301998 -0.2667,0.5333996 -0.26669,0.2031998 -0.70273,0.2031998 -0.35136,0 -0.6604,-0.1650998 -0.0847,0.1015999 -0.16933,0.1015999 -0.2159,0 -0.2159,-0.2793998 v -0.2793998 q 0,-0.1396998 0.0466,-0.2074331 0.0466,-0.071967 0.1651,-0.071967 0.0381,0 0.0677,0.00847 0.0339,0.00847 0.055,0.0254 0.0212,0.016933 0.0339,0.033867 0.0169,0.0127 0.0254,0.0381 0.0127,0.0254 0.0169,0.0381 0.004,0.0127 0.008,0.033867 0.008,0.021167 0.008,0.0254 0.0296,0.1142999 0.2032,0.1947332 0.17356,0.080433 0.38523,0.080433 0.23707,0 0.39793,-0.093133 0.16087,-0.093133 0.16087,-0.2285998 0,-0.1269999 -0.127,-0.2031998 -0.12277,-0.0762 -0.28787,-0.1016 -0.16086,-0.0254 -0.381,-0.0762 -0.2159,-0.0508 -0.34713,-0.1227666 -0.16087,-0.093133 -0.254,-0.2497664 -0.0931,-0.1566332 -0.0931,-0.3386664 0,-0.3217331 0.26246,-0.5333996 0.26247,-0.2158998 0.65617,-0.2158998 0.32597,0 0.55033,0.1396999 0.0339,-0.080433 0.0677,-0.1100666 0.0339,-0.029633 0.0974,-0.029633 z"
       id="path1229" />
  </g>
  <g
     id="text1294"
     style="font-style:normal;font-weight:normal;font-size:10.5833px;line-height:1.25;font-family:sans-serif;letter-spacing:0px;word-spacing:0px;fill:#000000;fill-opacity:1;stroke:none;stroke-width:0.264583"
     transform="translate(-111.125,9.7895831)" />
</svg>
