<?xml version="1.0" encoding="UTF-8" standalone="no"?>
<svg
   width="15.996555"
   height="15.996555"
   viewBox="0 0 4.2324218 4.2324221"
   version="1.1"
   id="svg4268"
   xmlns="http://www.w3.org/2000/svg"
   xmlns:svg="http://www.w3.org/2000/svg"
   xmlns:rdf="http://www.w3.org/1999/02/22-rdf-syntax-ns#"
   xmlns:cc="http://creativecommons.org/ns#"
   xmlns:dc="http://purl.org/dc/elements/1.1/">
  <defs
     id="defs4262" />
  <metadata
     id="metadata4265">
    <rdf:RDF>
      <cc:Work
         rdf:about="">
        <dc:format>image/svg+xml</dc:format>
        <dc:type
           rdf:resource="http://purl.org/dc/dcmitype/StillImage" />
      </cc:Work>
    </rdf:RDF>
  </metadata>
  <g
     id="metaclass"
     style="display:inline"
     transform="translate(-43.65625,-33.740234)">
    <g
       id="rect4893-9">
      <path
         style="color:#000000;fill:#000000;fill-opacity:0;stroke-width:0.529167;stroke-linecap:square;stroke-linejoin:round;-inkscape-stroke:none"
         d="M 43.920834,34.004158 H 47.625 v 3.70417 h -3.704166 z"
         id="path4288" />
      <path
         style="color:#000000;fill:#000000;stroke-linecap:square;stroke-linejoin:round;-inkscape-stroke:none"
         d="m 43.919922,33.740234 a 0.26460996,0.26460996 0 0 0 -0.263672,0.263672 v 3.705078 a 0.26460996,0.26460996 0 0 0 0.263672,0.263672 H 47.625 a 0.26460996,0.26460996 0 0 0 0.263672,-0.263672 V 34.003906 A 0.26460996,0.26460996 0 0 0 47.625,33.740234 Z m 0.265625,0.529297 h 3.175781 v 3.173828 h -3.175781 z"
         id="path4290" />
    </g>
    <path
       style="color:#000000;fill:#000000;-inkscape-stroke:none"
       d="m 44.185547,35.935547 v 0.371094 h 3.175781 v -0.371094 z"
       id="path4895-3" />
    <path
       style="color:#000000;fill:#000000;stroke-linecap:round;stroke-linejoin:round;-inkscape-stroke:none"
       d="m 45.173828,34.361328 a 0.18522702,0.18522702 0 0 0 -0.115234,0.171875 v 1.058594 a 0.1852085,0.1852085 0 0 0 0.185547,0.185547 0.1852085,0.1852085 0 0 0 0.185546,-0.185547 v -0.611328 l 0.212891,0.21289 a 0.18522702,0.18522702 0 0 0 0.261719,0 l 0.21289,-0.21289 v 0.611328 a 0.1852085,0.1852085 0 0 0 0.185547,0.185547 0.1852085,0.1852085 0 0 0 0.183594,-0.185547 V 34.533203 A 0.18522702,0.18522702 0 0 0 46.171875,34.402344 L 45.773437,34.800781 45.375,34.402344 a 0.18522702,0.18522702 0 0 0 -0.201172,-0.04102 z"
       id="path1269" />
  </g>
</svg>
