<?xml version="1.0" encoding="UTF-8"?>
<svg xmlns="http://www.w3.org/2000/svg" width="16px" height="16px" viewBox="0 0 16 16">
  <g fill="#2e3436">
    <path d="m 9.54535301405,4.77270463405 l -4.77267650702,4.772695617 l 1.69069582193,1.68189105723 l 4.76388488875,-4.772695617 z" fill="#2e3436"/>
    <path d="m 10.3878154708,0.842422069965 l 4.77154937648,0 l 0,4.77151889245 l -4.77154937648,0 z" fill="#2e3436" stroke-width="1.6819585" stroke-linecap="round" stroke-linejoin="round" fill-opacity="0"/>
    <path d="m 10.390700925,9.0170464091E-06 a 0.841063,0.841063 0 0,0 -0.845347910964,0.845348101527 l 0,4.772695617 a 0.841063,0.841063 0 0,0 0.845347910964,0.836542955702 l 4.77272159225,0 a 0.841063,0.841063 0 0,0 0.83655629269,-0.836542955702 l 0,-4.772695617 a 0.841063,0.841063 0 0,0 -0.83655629269,-0.845348101527 z m 0.83655629269,1.68189105723 l 3.09081738859,0 l 0,3.09080455977 l -3.09081738859,0 z" fill="#2e3436" stroke-linecap="round" stroke-linejoin="round"/>
    <path d="m 0.844761803079,10.3854643634 l 4.77150429125,0 l 0,4.77151889245 l -4.77150429125,0 z" fill="#2e3436" stroke-width="1.6819585" stroke-linecap="round" stroke-linejoin="round" fill-opacity="0"/>
    <path d="m 0.845347910964,9.54540025105 a 0.841063,0.841063 0 0,0 -0.845347910964,0.836542955702 l 0,4.772695617 a 0.841063,0.841063 0 0,0 0.845347910964,0.845348101527 l 4.77267650702,0 a 0.841063,0.841063 0 0,0 0.83655629269,-0.845348101527 l 0,-4.772695617 a 0.841063,0.841063 0 0,0 -0.83655629269,-0.836542955702 z m 0.836511207468,1.68189105723 l 3.09081738859,0 l 0,3.09080455977 l -3.09081738859,0 z" fill="#2e3436" stroke-linecap="round" stroke-linejoin="round"/>
  </g>
</svg>
