<?xml version="1.0" encoding="UTF-8"?>
<svg xmlns="http://www.w3.org/2000/svg" width="16px" height="16px" viewBox="0 0 16 16">
  <g fill="#2e3436">
    <path d="m 7.97047176877,0.000166333185177 c -0.523056141231,0.0060484794607 -1.0083682706,0.171512195707 -1.29973945878,0.4430057569 l -6.40415879845,6.00270003178 c -0.700614523663,0.664708991232 0.0614648437995,1.54966958173 1.33518458869,1.55051636885 l 12.8083236466,0 c 1.26840811764,-0.0068045393933 2.02112256599,-0.888585897871 1.32336954539,-1.55051636885 l -6.40415879845,-6.00270003178 c -0.303028939559,-0.282350581825 -0.814832658598,-0.449228130145 -1.35882072498,-0.4430057569 z" fill="#2e3436" stroke-width="2.53059359" stroke-linecap="round" stroke-linejoin="round"/>
    <path d="m 8.00591689867,6.99962931799 a 1.60065,1.0002 0 0,0 -1.60694873368,0.996759172726 l 0,7.00684212975 a 1.60065,1.0002 0 0,0 1.60694873368,0.996759172726 a 1.60065,1.0002 0 0,0 1.59513369038,-0.996759172726 l 0,-7.00684212975 a 1.60065,1.0002 0 0,0 -1.59513369038,-0.996759172726 z" fill="#2e3436" stroke-linecap="round"/>
  </g>
</svg>
