<?xml version="1.0" encoding="UTF-8" standalone="no"?>
<svg
   width="15.996555"
   height="15.996558"
   viewBox="0 0 4.2324218 4.2324228"
   version="1.1"
   id="svg4268"
   xmlns="http://www.w3.org/2000/svg"
   xmlns:svg="http://www.w3.org/2000/svg"
   xmlns:rdf="http://www.w3.org/1999/02/22-rdf-syntax-ns#"
   xmlns:cc="http://creativecommons.org/ns#"
   xmlns:dc="http://purl.org/dc/elements/1.1/">
  <defs
     id="defs4262" />
  <metadata
     id="metadata4265">
    <rdf:RDF>
      <cc:Work
         rdf:about="">
        <dc:format>image/svg+xml</dc:format>
        <dc:type
           rdf:resource="http://purl.org/dc/dcmitype/StillImage" />
        <dc:title />
      </cc:Work>
    </rdf:RDF>
  </metadata>
  <g
     id="requirement"
     style="display:inline"
     transform="translate(-69.84987,9.7904953)">
    <path
       style="color:#000000;fill:#000000;fill-opacity:0;stroke-width:0.529167;stroke-linecap:square;stroke-linejoin:round;-inkscape-stroke:none"
       d="m 70.113542,-9.7904953 a 0.26460982,0.26460982 0 0 0 -0.263672,0.263672 v 3.7050786 a 0.26460982,0.26460982 0 0 0 0.263672,0.263672 h 3.705078 a 0.26460982,0.26460982 0 0 0 0.263672,-0.263672 v -3.7050786 a 0.26460982,0.26460982 0 0 0 -0.263672,-0.263672 z m 0.265625,0.5292971 h 3.175782 v 3.1757815 h -3.175782 z"
       id="rect4893-97" />
    <g
       aria-label="R"
       id="text84"
       style="font-weight:bold;font-size:2.82223px;line-height:1.25;-inkscape-font-specification:'sans-serif Bold';letter-spacing:0px;word-spacing:0px;stroke-width:0.264583">
      <path
         d="m 72.40126,-7.8881027 q 0.09095,0.018604 0.157097,0.086816 0.06821,0.066146 0.165364,0.260449 l 0.558105,1.1100088 H 72.6121 l -0.37207,-0.7792799 q -0.01654,-0.033073 -0.04341,-0.090951 -0.163297,-0.3493323 -0.384472,-0.3493323 h -0.194304 v 1.2195627 h -0.609781 v -3.0861139 h 0.880566 q 0.595312,0 0.853694,0.2108397 0.260449,0.2108396 0.260449,0.6862624 0,0.3183266 -0.15503,0.5064286 -0.155029,0.1881021 -0.446484,0.2253091 z m -0.783414,-1.11621 v 0.8412916 h 0.287321 q 0.250114,0 0.357601,-0.097152 0.109554,-0.099219 0.109554,-0.3245278 0,-0.225309 -0.107487,-0.3224606 -0.107487,-0.097152 -0.359668,-0.097152 z"
         style="font-size:4.23333px;font-family:FreeMono;-inkscape-font-specification:'FreeMono Bold'"
         id="path1674" />
    </g>
  </g>
</svg>
