<?xml version="1.0" encoding="UTF-8" standalone="no"?>
<svg
   width="14.600222"
   height="14.1289"
   viewBox="0 0 3.8629752 3.7382715"
   version="1.1"
   id="svg4268"
   xmlns="http://www.w3.org/2000/svg"
   xmlns:svg="http://www.w3.org/2000/svg"
   xmlns:rdf="http://www.w3.org/1999/02/22-rdf-syntax-ns#"
   xmlns:cc="http://creativecommons.org/ns#"
   xmlns:dc="http://purl.org/dc/elements/1.1/">
  <defs
     id="defs4262" />
  <metadata
     id="metadata4265">
    <rdf:RDF>
      <cc:Work
         rdf:about="">
        <dc:format>image/svg+xml</dc:format>
        <dc:type
           rdf:resource="http://purl.org/dc/dcmitype/StillImage" />
      </cc:Work>
    </rdf:RDF>
  </metadata>
  <g
     id="magnet"
     style="display:inline"
     transform="translate(-43.841546,-51.872803)">
    <path
       id="path1786"
       style="color:#000000;fill:#000000;stroke-width:3.77953;stroke-linecap:round;-inkscape-stroke:none"
       d="m 173.00195,196.05469 c -2.87916,0 -5.682,1.98646 -6.85742,4.55469 -0.76593,1.67351 -0.39273,3.7488 0.0137,5.51562 0.40643,1.76682 0.96094,3.21094 0.96094,3.21094 l 0.31641,0.84765 0.86328,-0.28711 3.98047,-1.32812 -0.41407,-0.94531 c 0,0 -0.42934,-0.98376 -0.75976,-2.17774 -0.33041,-1.19397 -0.43539,-2.61083 -0.23633,-3.07031 0.29964,-0.69165 1.40121,-1.43164 2.13281,-1.43164 0.73161,0 1.83317,0.73999 2.13282,1.43164 0.19906,0.45948 0.0882,1.87634 -0.24219,3.07031 -0.33041,1.19398 -0.76172,2.17774 -0.76172,2.17774 l -0.41211,0.94531 4.8418,1.61523 0.32422,-0.84765 c 0,0 0.5467,-1.44412 0.95312,-3.21094 0.40643,-1.76682 0.78726,-3.84211 0.0215,-5.51562 -1.17542,-2.56823 -3.97826,-4.55469 -6.85743,-4.55469 z m -3.95898,8.92969 c 0.0752,0.33011 0.16044,0.65342 0.24609,0.96289 0.22345,0.80748 0.33714,1.01946 0.50977,1.46093 l -1.17383,0.38477 c -0.17178,-0.49091 -0.35773,-0.94493 -0.62109,-2.08985 -0.0264,-0.11469 -0.0504,-0.23051 -0.0742,-0.34765 z m 7.91797,0 1.11328,0.37109 c -0.0238,0.11714 -0.0478,0.23296 -0.0742,0.34765 -0.26343,1.14524 -0.45715,1.59909 -0.62891,2.08985 l -1.16601,-0.38477 c 0.17265,-0.44157 0.28653,-0.65421 0.50976,-1.46093 0.0856,-0.30947 0.17085,-0.63278 0.2461,-0.96289 z"
       transform="scale(0.26458333)" />
  </g>
</svg>
