<?xml version="1.0" encoding="UTF-8" standalone="no"?>
<svg
   width="15.998017"
   height="12.002971"
   viewBox="0 0 4.2328086 3.1757861"
   version="1.1"
   id="svg4268"
   xmlns="http://www.w3.org/2000/svg"
   xmlns:svg="http://www.w3.org/2000/svg"
   xmlns:rdf="http://www.w3.org/1999/02/22-rdf-syntax-ns#"
   xmlns:cc="http://creativecommons.org/ns#"
   xmlns:dc="http://purl.org/dc/elements/1.1/">
  <defs
     id="defs4262" />
  <metadata
     id="metadata4265">
    <rdf:RDF>
      <cc:Work
         rdf:about="">
        <dc:format>image/svg+xml</dc:format>
        <dc:type
           rdf:resource="http://purl.org/dc/dcmitype/StillImage" />
      </cc:Work>
    </rdf:RDF>
  </metadata>
  <g
     id="accept-event-action"
     style="display:inline"
     transform="translate(-17.198834,-44.85156)">
    <g
       id="path1260">
      <path
         style="color:#000000;fill:#000000;fill-opacity:0;stroke-width:0.529167;stroke-linejoin:round;-inkscape-stroke:none"
         d="m 17.4625,45.116659 0.79375,1.322916 -0.79375,1.322917 h 3.704167 v -2.645834 z"
         id="path4086" />
      <path
         style="color:#000000;fill:#000000;stroke-linejoin:round;-inkscape-stroke:none"
         d="m 17.462891,44.851562 a 0.26460996,0.26460996 0 0 0 -0.226563,0.400391 l 0.710938,1.1875 -0.710938,1.1875 a 0.26460996,0.26460996 0 0 0 0.226563,0.400391 h 3.703125 a 0.26460996,0.26460996 0 0 0 0.265625,-0.265625 v -2.644532 a 0.26460996,0.26460996 0 0 0 -0.265625,-0.265625 z m 0.466796,0.529297 h 2.972657 v 2.117188 h -2.972657 l 0.552735,-0.921875 a 0.26460996,0.26460996 0 0 0 0,-0.273438 z"
         id="path4088" />
    </g>
  </g>
</svg>
