<?xml version="1.0" encoding="UTF-8" standalone="no"?>
<svg
   width="10.41586"
   height="15.411342"
   viewBox="0 0 2.7558629 4.0775843"
   version="1.1"
   id="svg4268"
   xmlns="http://www.w3.org/2000/svg"
   xmlns:svg="http://www.w3.org/2000/svg"
   xmlns:rdf="http://www.w3.org/1999/02/22-rdf-syntax-ns#"
   xmlns:cc="http://creativecommons.org/ns#"
   xmlns:dc="http://purl.org/dc/elements/1.1/">
  <defs
     id="defs4262" />
  <metadata
     id="metadata4265">
    <rdf:RDF>
      <cc:Work
         rdf:about="">
        <dc:format>image/svg+xml</dc:format>
        <dc:type
           rdf:resource="http://purl.org/dc/dcmitype/StillImage" />
      </cc:Work>
    </rdf:RDF>
  </metadata>
  <g
     id="pointer"
     style="display:inline"
     transform="translate(-2.1171875,9.7617188)">
    <g
       id="path901"
       style="fill:#008080">
      <path
         style="color:#000000;fill:#008080;fill-opacity:0;stroke-width:0.529167;stroke-linecap:round;-inkscape-stroke:none"
         d="m 3.175,-7.2708417 -0.79375,0.79375 v -2.6458334 l 1.8520833,1.8520834 c -0.3527777,0 -1.0653501,-1.6e-6 -1.0583333,0 l 0.5291667,1.3229166"
         id="path13530" />
      <path
         style="color:#000000;fill:#000000;fill-opacity:1;stroke-linecap:round;-inkscape-stroke:none"
         d="m 2.1171875,-9.7617188 v 3.9238282 l 0.9609375,-0.9628906 0.3808594,0.9511718 a 0.2645835,0.2645835 0 0 0 0.34375,0.1464844 0.2645835,0.2645835 0 0 0 0.1464844,-0.34375 L 3.5644531,-7.0058594 c 0.00153,0 0.00237,0 0.00391,0 0.2213628,2e-7 0.4876734,0 0.6640625,0 h 0.640625 z m 0.5292969,1.2792969 0.9492187,0.9472657 c -0.00926,-10e-8 -0.018229,0 -0.027344,0 -0.084548,-10e-8 -0.1509348,-10e-8 -0.2148438,0 h -0.171875 c -0.00246,0 -0.0047,-10e-8 -0.00586,0 0,0 -6.3e-6,0.058471 0,0.078125 a 0.2645835,0.2645835 0 0 0 -0.1875,0 l -0.3417969,0.3417968 z"
         id="path13532" />
    </g>
  </g>
</svg>
