<?xml version="1.0" encoding="UTF-8"?>
<svg xmlns="http://www.w3.org/2000/svg" width="16px" height="16px" viewBox="0 0 16 16">
  <g fill="#2e3436">
    <path d="m 7.61695574813,0.00330664728909 c -2.45421758925,0.0868974370521 -5.09028506889,0.761825677737 -6.78155495127,2.67882310096 c -0.968483438882,1.15260556779 -1.15882301719,2.9640292653 -0.231431218434,4.2005625561 c 1.16905716152,1.71602457252 3.24123879471,2.50107513785 5.19875149254,2.84105646303 c 2.80000761746,0.469524325908 5.85129449085,0.109973447162 8.25767520848,-1.49005989356 c 1.24050234336,-0.84428813288 2.21561471664,-2.3619334572 1.86873924888,-3.92058669287 c -0.37408898792,-1.7808254566 -2.00337251883,-2.93269839045 -3.59299874045,-3.54570535104 c -1.4980228767,-0.58699257907 -3.11916561099,-0.797015613698 -4.71929733683,-0.764090182634 z m 0.379903842655,1.90830767951 c 1.84055658627,0.0270330169369 3.7957045765,0.386297894199 5.27244508488,1.56532529767 c 0.622228222291,0.505850432145 1.1212978213,1.41997385878 0.637308078902,2.18894565578 c -0.644402201678,1.12145099523 -1.94103727608,1.6191249192 -3.11063715738,1.97522810883 c -1.93049300616,0.503033513424 -3.95832668057,0.471824091262 -5.87668602319,-0.0751831297128 c -1.05508600873,-0.345317407654 -2.16979366133,-0.858125903289 -2.80194590237,-1.82050522407 c -0.405450437788,-0.643107637271 -0.226779334646,-1.49491016529 0.324081237203,-1.99097777957 c 1.23585045957,-1.25662391557 3.06128842353,-1.6571474452 4.74887556458,-1.81054218609 c 0.268258631752,-0.0250741026661 0.537563937356,-0.0231151883953 0.806481585978,-0.0321261940409 z" fill="#2e3436" stroke-width="0.65403439"/>
    <path d="m 15.2038293144,10.2241220752 q 0.631803349754,0 0.631803349754,0.483742125685 q 0,0.483742125685 -0.631803349754,0.483742125685 l -0.545665968286,0 l 0,2.86375244378 q 0,0.870737393364 -0.612691860526,1.41252606672 q -0.603077967365,0.532115554688 -1.50294612038,0.532115554688 q -0.804116878386,0 -2.05818721613,-0.628862412693 l 0,-1.56732730806 q 0,-0.64821256786 0.478640076047,-0.64821256786 q 0.287253823885,0 0.383005098513,0.174147478673 q 0.0957512746282,0.164470442175 0.0957512746282,0.474065089187 l 0,0.928787858865 q 0.660528732142,0.299909774857 1.12001855326,0.299909774857 q 0.545665968286,0 0.909443280477,-0.348294957346 q 0.153124508009,-0.154793405677 0.191502549257,-0.280555701862 q 0.0387656982301,-0.125762296184 0.0387656982301,-0.454718851849 l 0,-2.75732854927 l -1.13916880819,0 q -0.631803349754,0 -0.631803349754,-0.483742125685 q 0,-0.280555701862 0.162815932566,-0.377326066839 q 0.162815932566,-0.106408223189 0.469064948584,-0.106408223189 z" stroke-width="1.03111821"/>
  </g>
</svg>
