<?xml version="1.0" encoding="UTF-8" standalone="no"?>
<svg
   width="15.998601"
   height="15.998601"
   viewBox="0 0 4.2329631 4.2329633"
   version="1.1"
   id="svg4268"
   xmlns="http://www.w3.org/2000/svg"
   xmlns:svg="http://www.w3.org/2000/svg"
   xmlns:rdf="http://www.w3.org/1999/02/22-rdf-syntax-ns#"
   xmlns:cc="http://creativecommons.org/ns#"
   xmlns:dc="http://purl.org/dc/elements/1.1/">
  <defs
     id="defs4262" />
  <metadata
     id="metadata4265">
    <rdf:RDF>
      <cc:Work
         rdf:about="">
        <dc:format>image/svg+xml</dc:format>
        <dc:type
           rdf:resource="http://purl.org/dc/dcmitype/StillImage" />
      </cc:Work>
    </rdf:RDF>
  </metadata>
  <g
     id="item-flow"
     style="display:inline"
     transform="translate(-69.849827,-24.342015)">
    <path
       style="color:#000000;fill:#000000;stroke-linecap:round;-inkscape-stroke:none"
       d="m 73.630859,24.419922 -3.703125,3.703125 a 0.26458335,0.26458335 0 0 0 0,0.375 0.26458335,0.26458335 0 0 0 0.373047,0 l 3.705078,-3.705078 a 0.26458335,0.26458335 0 0 0 0,-0.373047 0.26458335,0.26458335 0 0 0 -0.375,0 z"
       id="path1749" />
    <g
       id="path1817">
      <path
         style="color:#000000;fill:#000000;stroke-width:0.529167;stroke-linejoin:round;-inkscape-stroke:none"
         d="m 71.437499,25.929166 h 1.058333 V 26.9875 Z"
         id="path1968" />
      <path
         style="color:#000000;fill:#000000;stroke-linejoin:round;-inkscape-stroke:none"
         d="M 71.4375,25.664062 A 0.26460981,0.26460981 0 0 0 71.25,26.117187 l 1.058594,1.056641 a 0.26460981,0.26460981 0 0 0 0.451172,-0.185547 v -1.058594 a 0.26460981,0.26460981 0 0 0 -0.263672,-0.265625 z m 0.638672,0.529297 h 0.154297 v 0.154297 z"
         id="path1970" />
    </g>
  </g>
</svg>
