<?xml version="1.0" encoding="UTF-8"?>
<svg xmlns="http://www.w3.org/2000/svg" width="16px" height="16px" viewBox="0 0 16 16">
  <g fill="#2e3436">
    <path d="m 7.72477409323,0.19434540776 c -2.57400085465,1.82006661966 -5.14947764356,3.64075826747 -7.72477409323,5.46040692352 c 0,3.44841448358 0,6.89683280169 0,10.3452472853 c 5.33333349153,0 10.6666669831,0 16.0000004746,0 c 0,-3.44841448358 0,-6.89683280169 0,-10.3452472853 c -2.66690878,-1.88445985669 -5.33312942345,-3.76955241059 -7.99923142266,-5.65475233128 c -0.0919730087931,0.0647651862966 -0.183993475279,0.129568717878 -0.276013941765,0.194333904175 z m 5.97783268962,6.30382680432 c 0,2.54851966709 0,5.09704316871 0,7.64556283581 c -3.80122357203,0 -7.60245188984,0 -11.4036802076,0 c 0,-2.54851966709 0,-5.09704316871 0,-7.64556283581 c 1.9006141589,-1.34382201499 3.8012283178,-2.68764019545 5.70184247671,-4.03146221045 c 1.9006141589,1.34382201499 3.80122357203,2.68764019545 5.70183773094,4.03146221045 z" fill="#2e3436" stroke-width="0.18775105"/>
    <path d="m 1.11912815417,6.04566613118 l 13.334715121,8.75411780329" fill="#ffffff" stroke-width="0.54815546"/>
    <path d="m 0.938125372893,5.18554251565 c -0.29748727036,0.375710985835 -0.726895233654,0.573952079044 -0.92283176619,1.00267087577 c -0.0706967687598,0.52609097698 0.718620899819,0.664693316869 1.06854532034,0.998002150998 c 4.43264514605,2.90963978433 8.86443827389,5.82012752479 13.2976173718,8.72923531908 c 0.470461566157,-0.467148093952 0.939647793951,-0.935132349621 1.40750490405,-1.4039813219 c -4.86556643605,-3.19269511309 -9.72989825238,-6.38662305258 -14.5942431294,-9.58053485236 c -0.0855306441262,0.0848694830562 -0.171061288252,0.169738966112 -0.256592700655,0.25460782841 z" fill="#2e3436"/>
  </g>
</svg>
