<?xml version="1.0" encoding="UTF-8" standalone="no"?>
<svg
   width="15.7013"
   height="12.002953"
   viewBox="0 0 4.1543021 3.1757813"
   version="1.1"
   id="svg4268"
   xmlns="http://www.w3.org/2000/svg"
   xmlns:svg="http://www.w3.org/2000/svg"
   xmlns:rdf="http://www.w3.org/1999/02/22-rdf-syntax-ns#"
   xmlns:cc="http://creativecommons.org/ns#"
   xmlns:dc="http://purl.org/dc/elements/1.1/">
  <defs
     id="defs4262" />
  <metadata
     id="metadata4265">
    <rdf:RDF>
      <cc:Work
         rdf:about="">
        <dc:format>image/svg+xml</dc:format>
        <dc:type
           rdf:resource="http://purl.org/dc/dcmitype/StillImage" />
      </cc:Work>
    </rdf:RDF>
  </metadata>
  <g
     id="component"
     style="display:inline"
     transform="translate(-103.29297,-5.2695312)">
    <g
       id="path1118">
      <path
         style="color:#000000;fill:#000000;fill-opacity:0;stroke-width:0.529167;stroke-linejoin:round;-inkscape-stroke:none"
         d="m 104.27235,6.0641292 v -0.529166 h 2.91041 v 2.645833 h -2.91041 v -0.529167"
         id="path2612" />
      <path
         style="color:#000000;fill:#000000;stroke-linejoin:round;-inkscape-stroke:none"
         d="m 104.27148,5.2695312 a 0.26460996,0.26460996 0 0 0 -0.26367,0.265625 v 0.5292969 h 0.5293 v -0.265625 h 2.38086 v 2.1171875 h -2.38086 V 7.6523437 h -0.5293 v 0.5292969 a 0.26460996,0.26460996 0 0 0 0.26367,0.2636719 h 2.91211 a 0.26460996,0.26460996 0 0 0 0.26368,-0.2636719 V 5.5351562 a 0.26460996,0.26460996 0 0 0 -0.26368,-0.265625 z"
         id="path2614" />
    </g>
    <g
       id="rect1123">
      <path
         style="color:#000000;fill:#000000;fill-opacity:0;stroke-width:0.370417;stroke-linecap:round;stroke-linejoin:round;-inkscape-stroke:none"
         d="m 103.47854,6.0641294 h 1.5875 V 6.593296 h -1.5875 z"
         id="path2604" />
      <path
         style="color:#000000;fill:#000000;stroke-linecap:round;stroke-linejoin:round;-inkscape-stroke:none"
         d="m 103.47852,5.8789062 a 0.18522702,0.18522702 0 0 0 -0.18555,0.1855469 V 6.59375 a 0.18522702,0.18522702 0 0 0 0.18555,0.1855469 h 1.58789 A 0.18522702,0.18522702 0 0 0 105.25195,6.59375 V 6.0644531 A 0.18522702,0.18522702 0 0 0 105.06641,5.8789062 Z M 103.66406,6.25 h 1.2168 v 0.1582031 h -1.2168 z"
         id="path2606" />
    </g>
    <g
       id="rect1125">
      <path
         style="color:#000000;fill:#000000;fill-opacity:0;stroke-width:0.370417;stroke-linecap:round;stroke-linejoin:round;-inkscape-stroke:none"
         d="m 103.47854,7.1224618 h 1.5875 v 0.5291666 h -1.5875 z"
         id="path2596" />
      <path
         style="color:#000000;fill:#000000;stroke-linecap:round;stroke-linejoin:round;-inkscape-stroke:none"
         d="m 103.47852,6.9375 a 0.18522702,0.18522702 0 0 0 -0.18555,0.1855469 v 0.5292968 a 0.18522702,0.18522702 0 0 0 0.18555,0.1835938 h 1.58789 a 0.18522702,0.18522702 0 0 0 0.18554,-0.1835938 V 7.1230469 A 0.18522702,0.18522702 0 0 0 105.06641,6.9375 Z m 0.18554,0.3710937 h 1.2168 v 0.1582032 h -1.2168 z"
         id="path2598" />
    </g>
    <g
       id="path1127">
      <path
         style="color:#000000;fill:#000000;fill-opacity:0;stroke-width:0.529167;-inkscape-stroke:none"
         d="m 104.27235,6.5932962 v 0.529166"
         id="path2588" />
      <path
         style="color:#000000;fill:#000000;-inkscape-stroke:none"
         d="m 104.00781,6.59375 v 0.5292969 h 0.5293 V 6.59375 Z"
         id="path2590" />
    </g>
  </g>
</svg>
