<?xml version="1.0" encoding="UTF-8"?>
<svg xmlns="http://www.w3.org/2000/svg" width="16px" height="16px" viewBox="0 0 16 16">
  <g fill="#2e3436">
    <path d="m 14.8544863023,7.99786627985 a 6.85546,6.85546 0 0,1 -6.85545621442,6.85545541252 a 6.85546,6.85546 0 0,1 -6.85545621442,-6.85545541252 a 6.85546,6.85546 0 0,1 6.85545621442,-6.85545584436 a 6.85546,6.85546 0 0,1 6.85545621442,6.85545584436 z" fill="#2e3436" stroke-width="2.28515345" stroke-linecap="round" stroke-linejoin="round" fill-opacity="0"/>
    <path d="m 7.99578265289,1.72735896342E-06 c -4.4036514211,0 -7.99578092553,3.59212887868 -7.99578092553,7.99578265312 c 0,4.40365334259 3.59212950443,8.00421691504 7.99578092553,8.00421691504 c 4.4036557395,0 8.00421907447,-3.60056357245 8.00421907447,-8.00421691504 c 0,-4.40365377443 -3.60056333497,-7.99578265312 -8.00421907447,-7.99578265312 z m 0,2.28571391557 c 3.16866743426,0 5.71850417184,2.54140233801 5.71850417184,5.71006873755 c 0,3.1686659677 -2.54983673758,5.71850256764 -5.71850417184,5.71850256764 c -3.16866743426,0 -5.7100660229,-2.54983659994 -5.7100660229,-5.71850256764 c 0,-3.16866639954 2.54139858864,-5.71006873755 5.7100660229,-5.71006873755 z" fill="#2e3436" stroke-linecap="round" stroke-linejoin="round"/>
    <path d="m 4.8581973173,4.92567201416 l 0,0.801265679089 l 0,4.57142955849 l 0,0.801265679089 l 1.60252712628,0 l 0,-0.801265679089 l 0,-4.57142955849 l 0,-0.801265679089 z" fill="#2e3436" stroke-linecap="square"/>
    <path d="m 7.99976248813,4.92567201416 l 0,0.801265679089 l 0,4.57142955849 l 0,0.801265679089 l 1.59409761414,0 l 0,-0.801265679089 l 0,-4.57142955849 l 0,-0.801265679089 z" fill="#2e3436" stroke-linecap="square"/>
    <path d="m 5.99683785335,7.2113867934 l 0,1.60253135818 l 0.559012252913,0 l 1.59465900583,0 l 0.559012252913,0 L 8.709521365,7.2113867934 L 8.15050911209,7.2113867934 L 6.55585010626,7.2113867934 Z" fill="#2e3436" stroke-width="3.60699333" stroke-linecap="square"/>
    <path d="m 11.1121007439,6.02755429022 l 0.575862640409,0 l -0.0456886467707,1.02374951222 l 0.96890591777,-0.347328701456 l 0.173685952091,0.539294420291 l -0.987185694876,0.274218233774 l 0.639844019478,0.813516972462 l -0.466175340978,0.329061880529 l -0.566716274259,-0.850076524701 l -0.575858322011,0.850076524701 l -0.457033293226,-0.329061880529 l 0.630701971726,-0.813516972462 l -0.987185694876,-0.274218233774 l 0.173685952091,-0.539294420291 l 0.96890591777,0.347328701456 z" stroke-width="1.14257457"/>
  </g>
</svg>
