<?xml version="1.0" encoding="UTF-8" standalone="no"?>
<svg
   width="15.999703"
   height="16.001707"
   viewBox="0 0 4.2332548 4.2337851"
   version="1.1"
   id="svg4268"
   xmlns="http://www.w3.org/2000/svg"
   xmlns:svg="http://www.w3.org/2000/svg"
   xmlns:rdf="http://www.w3.org/1999/02/22-rdf-syntax-ns#"
   xmlns:cc="http://creativecommons.org/ns#"
   xmlns:dc="http://purl.org/dc/elements/1.1/">
  <defs
     id="defs4262" />
  <metadata
     id="metadata4265">
    <rdf:RDF>
      <cc:Work
         rdf:about="">
        <dc:format>image/svg+xml</dc:format>
        <dc:type
           rdf:resource="http://purl.org/dc/dcmitype/StillImage" />
      </cc:Work>
    </rdf:RDF>
  </metadata>
  <g
     id="satisfy"
     style="display:inline"
     transform="translate(-77.787327,9.7896663)">
    <path
       style="color:#000000;fill:#000000;stroke-width:0.529167;stroke-linecap:round;stroke-linejoin:round;-inkscape-stroke:none"
       d="m 81.739446,-9.7892177 a 0.26460979,0.26460979 0 0 0 -0.05859,0.00977 l -1.851562,0.5292968 a 0.26492937,0.26492937 0 1 0 0.144531,0.5097657 l 1.394527,-0.3984379 -0.398437,1.3945313 a 0.26492954,0.26492954 0 1 0 0.509766,0.1445312 l 0.529296,-1.8515625 a 0.26460979,0.26460979 0 0 0 -0.269531,-0.3378946 z"
       id="path4594-6-2-7" />
    <path
       style="font-weight:bold;font-size:2.82223px;line-height:1.25;font-family:FreeMono;-inkscape-font-specification:'FreeMono Bold';letter-spacing:0px;word-spacing:0px;stroke-width:0.264583"
       d="m 81.822986,-7.2833568 q 0.08467,0 0.110067,0.047978 0.02822,0.047978 0.02822,0.1382892 v 0.2483563 q 0,0.1890894 -0.138289,0.1890894 -0.02258,0 -0.04233,-0.00282 -0.01693,-0.00564 -0.03104,-0.011289 -0.01129,-0.00847 -0.02258,-0.019756 -0.01129,-0.014111 -0.01693,-0.022578 -0.0056,-0.00847 -0.01129,-0.0254 -0.0056,-0.016933 -0.0085,-0.022578 0,-0.00847 -0.0056,-0.0254 -0.0028,-0.019756 -0.0028,-0.022578 -0.01975,-0.084667 -0.112889,-0.1354671 -0.09031,-0.053622 -0.222956,-0.053622 -0.132645,0 -0.225779,0.062089 -0.09313,0.062089 -0.09313,0.1524005 0,0.095956 0.09313,0.1495782 0.09313,0.0508 0.217312,0.067734 0.124178,0.014111 0.276579,0.056445 0.1524,0.039511 0.239889,0.110067 0.166512,0.1326448 0.166512,0.3527787 0,0.220134 -0.177801,0.355601 -0.1778,0.1354671 -0.46849,0.1354671 -0.234245,0 -0.440268,-0.110067 -0.05644,0.067734 -0.112889,0.067734 -0.143934,0 -0.143934,-0.1862672 v -0.1862672 q 0,-0.093134 0.03105,-0.1382892 0.03104,-0.047978 0.110067,-0.047978 0.0254,0 0.04516,0.00564 0.02258,0.00564 0.03669,0.016933 0.01411,0.011289 0.02258,0.022578 0.01129,0.00847 0.01693,0.0254 0.0085,0.016933 0.01129,0.0254 0.0028,0.00847 0.0056,0.022578 0.0056,0.014111 0.0056,0.016933 0.01976,0.0762 0.135467,0.1298226 0.115711,0.053622 0.256822,0.053622 0.158045,0 0.26529,-0.062089 0.107245,-0.062089 0.107245,-0.1524004 0,-0.084667 -0.08467,-0.1354671 -0.08185,-0.0508 -0.191912,-0.067733 -0.107244,-0.016933 -0.254,-0.0508 -0.143934,-0.033867 -0.231423,-0.081845 -0.107245,-0.062089 -0.169334,-0.1665116 -0.06209,-0.1044225 -0.06209,-0.2257784 0,-0.2144895 0.174978,-0.355601 0.174978,-0.1439337 0.437446,-0.1439337 0.217312,0 0.36689,0.093134 0.02258,-0.053622 0.04515,-0.073378 0.02258,-0.019756 0.06491,-0.019756 z"
       id="text150"
       aria-label="S" />
    <g
       id="path4598-1-2-5">
      <path
         style="color:#000000;fill:#000000;fill-opacity:0;stroke-width:0.529167;stroke-linecap:round;stroke-dasharray:0.529167, 1.05833;-inkscape-stroke:none"
         d="m 78.052084,-5.8208333 3.439583,-3.4395839"
         id="path2556" />
      <path
         style="color:#000000;fill:#000000;stroke-linecap:round;stroke-dasharray:0.529167, 1.05833;-inkscape-stroke:none"
         d="M 81.304687,-9.4472656 81.232422,-9.375 a 0.2645835,0.2645835 0 0 0 0,0.3730469 0.2645835,0.2645835 0 0 0 0.375,0 l 0.07227,-0.072266 a 0.2645835,0.2645835 0 0 0 0,-0.3730468 0.2645835,0.2645835 0 0 0 -0.375,0 z m -0.820312,0.8203125 -0.375,0.3730468 a 0.2645835,0.2645835 0 0 0 0,0.3750001 0.2645835,0.2645835 0 0 0 0.375,0 l 0.375,-0.3750001 a 0.2645835,0.2645835 0 0 0 0,-0.3730468 0.2645835,0.2645835 0 0 0 -0.375,0 z m -1.123047,1.1230469 -0.373047,0.3730468 a 0.2645835,0.2645835 0 0 0 0,0.375 0.2645835,0.2645835 0 0 0 0.373047,0 l 0.375,-0.375 a 0.2645835,0.2645835 0 0 0 0,-0.3730468 0.2645835,0.2645835 0 0 0 -0.375,0 z m -0.935547,1.0449218 a 0.2645835,0.2645835 0 0 0 -0.1875,0.076172 l -0.373047,0.375 a 0.2645835,0.2645835 0 0 0 0,0.375 0.2645835,0.2645835 0 0 0 0.373047,0 l 0.375,-0.375 a 0.2645835,0.2645835 0 0 0 0,-0.375 0.2645835,0.2645835 0 0 0 -0.1875,-0.076172 z"
         id="path2558" />
    </g>
  </g>
</svg>
