<?xml version="1.0" encoding="UTF-8"?>
<svg xmlns="http://www.w3.org/2000/svg" width="16px" height="16px" viewBox="0 0 16 16">
  <g fill="#2e3436">
    <path d="m 3.00064752556,7.04910472141 l 10.0021458174,0 c 1.10824545335,0 2.00044428485,0.887278518305 2.00044428485,1.98941374852 l 0,3.97882787299 c 0,1.10213523021 -0.892198831505,1.98941412447 -2.00044428485,1.98941412447 l -10.0021458174,0 c -1.10824545335,0 -2.00044428485,-0.887278894257 -2.00044428485,-1.98941412447 l 0,-3.97882787299 c 0,-1.10213523021 0.892198831505,-1.98941374852 2.00044428485,-1.98941374852 z" fill="#2e3436" stroke-width="1.99491649" stroke-linecap="round" stroke-linejoin="round" fill-opacity="0"/>
    <path d="m 2.99769885776,6.05782427597 c -1.64505420752,0 -2.99769885776,1.34518798505 -2.99769885776,2.98118405974 l 0,3.97980685265 c 0,1.63599607468 1.35264465023,2.98118405974 2.99769885776,2.98118405974 l 10.0046030406,0 c 1.64505420752,0 2.99769885776,-1.34518798505 2.99769885776,-2.98118405974 l 0,-3.97980685265 c 0,-1.63599607468 -1.35264465023,-2.98118405974 -2.99769885776,-2.98118405974 z m 0,1.98256089087 l 10.0046030406,0 c 0.571436699167,0 1.00417260122,0.430350662884 1.00417260122,0.998623168866 l 0,3.97980685265 c 0,0.568272505982 -0.432735902048,0.991280445436 -1.00417260122,0.991280445436 l -10.0046030406,0 c -0.571436699167,0 -0.99676312827,-0.423007939454 -0.99676312827,-0.991280445436 l 0,-3.97980685265 c 0,-0.568272505982 0.425326429103,-0.998623168866 0.99676312827,-0.998623168866 z" fill="#2e3436" stroke-linecap="round" stroke-linejoin="round"/>
    <path d="m 11.5116369128,4.47514612559 a 3.50076,3.48147 0 0,1 -3.50074914591,3.48147424788 a 3.50076,3.48147 0 0,1 -3.50074914591,-3.48147424788 a 3.50076,3.48147 0 0,1 3.50074914591,-3.48147462383 a 3.50076,3.48147 0 0,1 3.50074914591,3.48147462383 z" fill="#2e3436" stroke-width="1.99491649" stroke-linecap="round" stroke-linejoin="round" fill-opacity="0"/>
    <path d="m 8.01107678402,0 c -2.47397009153,0 -4.50393885786,2.01143327191 -4.50393885786,4.47177571365 c 0,2.4603428177 2.02996876633,4.47911881304 4.50393885786,4.47911881304 c 2.47397009153,0 4.50393885786,-2.01877599534 4.50393885786,-4.47911881304 c 0,-2.46034244175 -2.02996876633,-4.47177571365 -4.50393885786,-4.47177571365 z m 0,1.9899036143 c 1.39286750336,0 2.50300312838,1.09668805804 2.50300312838,2.48187209935 c 0,1.38518404132 -1.11013562502,2.48921519873 -2.50300312838,2.48921519873 c -1.39286750336,0 -2.50300312838,-1.10403115742 -2.50300312838,-2.48921519873 c 0,-1.38518404132 1.11013562502,-2.48187209935 2.50300312838,-2.48187209935 z" fill="#2e3436" stroke-linecap="round" stroke-linejoin="round"/>
    <path d="m 4.50393885786,11.02891195 l 0,2.98118368379 l 0.99676312827,0 l 0,-2.98118368379 z" fill="#2e3436"/>
    <path d="m 10.4992987699,11.02891195 l 0,2.98118368379 l 1.00417260122,0 l 0,-2.98118368379 z" fill="#2e3436"/>
  </g>
</svg>
