<?xml version="1.0" encoding="UTF-8"?>
<svg xmlns="http://www.w3.org/2000/svg" width="16px" height="16px" viewBox="0 0 16 16">
  <g fill="#2e3436">
    <path d="M 8.00065591634,0.999998960594 L 1.33611921456,8.00023736246 L 8.00065591634,15.0004757643 L 14.6651921143,8.00023736246 Z" fill="#2e3436" stroke-width="2.30907308" stroke-linejoin="round" fill-opacity="0"/>
    <path d="m 8,0 a 1.33304,1.00013 0 0,0 -1.08233097654,0.420781650068 l -6.67109636895,6.99827298024 a 1.33304,1.00013 0 0,0 0,1.15899401028 l 6.67109636895,7.00565465029 a 1.33304,1.00013 0 0,0 2.16466245686,0 l 6.67109586517,-7.00565465029 a 1.33304,1.00013 0 0,0 0,-1.15899401028 L 9.08233148032,0.420781650068 A 1.33304,1.00013 0 0,0 8,0 Z m 0,2.71662844016 L 13.0279206507,8.00224058065 L 8,13.2804748307 L 2.97207985303,8.00224058065 Z" fill="#2e3436" stroke-linejoin="round"/>
  </g>
</svg>
