<?xml version="1.0" encoding="UTF-8" standalone="no"?>
<svg
   width="16.00622"
   height="16.006239"
   viewBox="0 0 4.2349789 4.2349842"
   version="1.1"
   id="svg4268"
   xmlns="http://www.w3.org/2000/svg"
   xmlns:svg="http://www.w3.org/2000/svg"
   xmlns:rdf="http://www.w3.org/1999/02/22-rdf-syntax-ns#"
   xmlns:cc="http://creativecommons.org/ns#"
   xmlns:dc="http://purl.org/dc/elements/1.1/">
  <defs
     id="defs4262" />
  <metadata
     id="metadata4265">
    <rdf:RDF>
      <cc:Work
         rdf:about="">
        <dc:format>image/svg+xml</dc:format>
        <dc:type
           rdf:resource="http://purl.org/dc/dcmitype/StillImage" />
      </cc:Work>
    </rdf:RDF>
  </metadata>
  <g
     id="usage"
     style="display:inline"
     transform="translate(-25.127171,-9.9249589)">
    <g
       id="path4594-6-3">
      <path
         style="color:#000000;fill:#000000;fill-opacity:0;stroke-width:0.529167;stroke-linecap:round;stroke-linejoin:round;-inkscape-stroke:none"
         d="m 27.244363,10.719485 1.852083,-0.529167 -0.529167,1.852084"
         id="path3688" />
      <path
         style="color:#000000;fill:#000000;stroke-linecap:round;stroke-linejoin:round;-inkscape-stroke:none"
         d="m 29.023437,9.9355469 -1.851562,0.5292971 a 0.2645835,0.2645835 0 0 0 -0.181641,0.328125 0.2645835,0.2645835 0 0 0 0.326172,0.18164 L 28.710937,10.576172 28.3125,11.96875 a 0.2645835,0.2645835 0 0 0 0.181641,0.328125 0.2645835,0.2645835 0 0 0 0.328125,-0.181641 l 0.529296,-1.851562 A 0.26460996,0.26460996 0 0 0 29.023437,9.9355469 Z"
         id="path3690" />
    </g>
    <path
       style="color:#000000;fill:#000000;stroke-linecap:round;stroke-dasharray:0.529167, 1.05833;-inkscape-stroke:none"
       d="m 28.644531,10.267578 -0.07227,0.07227 a 0.2645835,0.2645835 0 0 0 0,0.375 0.2645835,0.2645835 0 0 0 0.375,0 l 0.07227,-0.07227 a 0.2645835,0.2645835 0 0 0 0,-0.375 0.2645835,0.2645835 0 0 0 -0.375,0 z m -0.820312,0.820313 -0.373047,0.375 a 0.2645835,0.2645835 0 0 0 0,0.373047 0.2645835,0.2645835 0 0 0 0.373047,0 l 0.375,-0.373047 a 0.2645835,0.2645835 0 0 0 0,-0.375 0.2645835,0.2645835 0 0 0 -0.375,0 z m -1.123047,1.123047 -0.373047,0.373046 a 0.2645835,0.2645835 0 0 0 0,0.375 0.2645835,0.2645835 0 0 0 0.373047,0 l 0.375,-0.375 a 0.2645835,0.2645835 0 0 0 0,-0.373046 0.2645835,0.2645835 0 0 0 -0.375,0 z m -0.935547,1.044921 a 0.2645835,0.2645835 0 0 0 -0.185547,0.07813 l -0.375,0.373047 a 0.2645835,0.2645835 0 0 0 0,0.375 0.2645835,0.2645835 0 0 0 0.375,0 l 0.373047,-0.375 a 0.2645835,0.2645835 0 0 0 0,-0.373047 0.2645835,0.2645835 0 0 0 -0.1875,-0.07813 z"
       id="path4598-1-6" />
  </g>
</svg>
