<?xml version="1.0" encoding="UTF-8"?>
<svg xmlns="http://www.w3.org/2000/svg" width="16px" height="16px" viewBox="0 0 16 16">
  <g fill="#2e3436">
    <path d="M 7.46842539139,3.20118522402 L 14.9314330918,1.06878942067 L 12.7991447745,8.53218279185" fill="#2e3436" stroke-width="2.13234468" stroke-linecap="round" stroke-linejoin="round" fill-opacity="0"/>
    <path d="m 14.6376149285,0.0472207724291 l -7.46090993182,2.12505363633 a 1.06614,1.0662 0 0,0 -0.731924607763,1.32225496909 a 1.06614,1.0662 0 0,0 1.31431651278,0.731964083324 L 13.3783896236,2.6208961267 L 11.7728773598,8.2404787379 a 1.06614,1.0662 0 0,0 0.731924607763,1.31438490751 a 1.06614,1.0662 0 0,0 1.3221865702,-0.731960053594 L 15.9598014987,1.36160567994 A 1.06625,1.06631 0 0,0 14.6376149285,0.0472207724291 Z" fill="#2e3436" stroke-linecap="round" stroke-linejoin="round"/>
    <path d="m 1.07156245406,14.9293822911 l 13.8598718466,-13.8605928704" fill="#2e3436" stroke-width="2.13234468" stroke-linecap="round" fill-opacity="0"/>
    <path d="m 14.9288106796,4.02972943903E-07 a 1.06614,1.0662 0 0,0 -0.747665125551,0.314842760335 l -13.8672184693,13.8600649759 a 1.06614,1.0662 0 0,0 0,1.5111485361 a 1.06614,1.0662 0 0,0 1.51107036594,0 l 13.8593484119,-13.8600649759 a 1.06614,1.0662 0 0,0 0,-1.5111485361 a 1.06614,1.0662 0 0,0 -0.755535182969,-0.314842760335 z" fill="#2e3436" stroke-linecap="round"/>
  </g>
</svg>
