<?xml version="1.0" encoding="UTF-8" standalone="no"?>
<svg
   width="15.996548"
   height="15.996555"
   viewBox="0 0 4.2324198 4.2324221"
   version="1.1"
   id="svg4268"
   xmlns="http://www.w3.org/2000/svg"
   xmlns:svg="http://www.w3.org/2000/svg"
   xmlns:rdf="http://www.w3.org/1999/02/22-rdf-syntax-ns#"
   xmlns:cc="http://creativecommons.org/ns#"
   xmlns:dc="http://purl.org/dc/elements/1.1/">
  <defs
     id="defs4262" />
  <metadata
     id="metadata4265">
    <rdf:RDF>
      <cc:Work
         rdf:about="">
        <dc:format>image/svg+xml</dc:format>
        <dc:type
           rdf:resource="http://purl.org/dc/dcmitype/StillImage" />
      </cc:Work>
    </rdf:RDF>
  </metadata>
  <g
     id="situation"
     style="display:inline"
     transform="translate(-119.06159,-33.866536)">
    <path
       style="color:#000000;fill:#000000;fill-opacity:0;stroke-width:0.529167;stroke-linecap:square;stroke-linejoin:round;-inkscape-stroke:none"
       d="m 119.32526,33.866536 a 0.26460982,0.26460982 0 0 0 -0.26367,0.263672 v 3.705078 a 0.26460982,0.26460982 0 0 0 0.26367,0.263672 h 3.70508 a 0.26460982,0.26460982 0 0 0 0.26367,-0.263672 v -3.705078 a 0.26460982,0.26460982 0 0 0 -0.26367,-0.263672 z m 0.26562,0.529297 h 3.17579 v 3.175781 h -3.17579 z"
       id="path667" />
    <path
       style="font-weight:bold;font-size:4.23333px;line-height:1.25;font-family:FreeMono;-inkscape-font-specification:'FreeMono Bold';letter-spacing:0px;word-spacing:0px;stroke-width:0.264583"
       d="m 121.92605,34.698906 q 0.127,0 0.1651,0.07197 0.0423,0.07197 0.0423,0.207433 v 0.372533 q 0,0.283633 -0.20743,0.283633 -0.0339,0 -0.0635,-0.0042 -0.0254,-0.0085 -0.0466,-0.01693 -0.0169,-0.0127 -0.0339,-0.02963 -0.0169,-0.02117 -0.0254,-0.03387 -0.008,-0.0127 -0.0169,-0.0381 -0.008,-0.0254 -0.0127,-0.03387 0,-0.0127 -0.008,-0.0381 -0.004,-0.02963 -0.004,-0.03387 -0.0296,-0.127 -0.16933,-0.2032 -0.13547,-0.08043 -0.33444,-0.08043 -0.19896,0 -0.33866,0.09313 -0.1397,0.09313 -0.1397,0.2286 0,0.143933 0.1397,0.224367 0.1397,0.0762 0.32596,0.101599 0.18627,0.02117 0.41487,0.08467 0.2286,0.05927 0.35983,0.1651 0.24977,0.198966 0.24977,0.529166 0,0.3302 -0.2667,0.5334 -0.2667,0.2032 -0.70273,0.2032 -0.35137,0 -0.6604,-0.1651 -0.0847,0.1016 -0.16934,0.1016 -0.2159,0 -0.2159,-0.2794 v -0.2794 q 0,-0.1397 0.0466,-0.207433 0.0466,-0.07197 0.1651,-0.07197 0.0381,0 0.0677,0.0085 0.0339,0.0085 0.055,0.0254 0.0212,0.01693 0.0339,0.03387 0.0169,0.0127 0.0254,0.0381 0.0127,0.0254 0.0169,0.0381 0.004,0.0127 0.008,0.03387 0.008,0.02117 0.008,0.0254 0.0296,0.1143 0.2032,0.194733 0.17357,0.08043 0.38523,0.08043 0.23707,0 0.39794,-0.09313 0.16086,-0.09313 0.16086,-0.2286 0,-0.126999 -0.127,-0.203199 -0.12276,-0.0762 -0.28786,-0.1016 -0.16087,-0.0254 -0.381,-0.0762 -0.2159,-0.0508 -0.34714,-0.122767 -0.16086,-0.09313 -0.254,-0.249766 -0.0931,-0.156633 -0.0931,-0.338667 0,-0.321733 0.26247,-0.533399 0.26246,-0.2159 0.65616,-0.2159 0.32597,0 0.55034,0.1397 0.0339,-0.08043 0.0677,-0.110067 0.0339,-0.02963 0.0974,-0.02963 z"
       id="text671"
       aria-label="S" />
  </g>
</svg>
