<?xml version="1.0" encoding="UTF-8"?>
<svg xmlns="http://www.w3.org/2000/svg" width="16px" height="16px" viewBox="0 0 16 16">
  <g fill="#2e3436">
    <path d="m 14.8188633499,0.00158346402501 a 0.992183,1 0 0,0 -0.219727029942,0.0370356740934 l -6.94262422457,2.00029297864 a 0.993381,1.00121 0 1,0 0.541930847057,1.92648239183 l 5.22894087142,-1.50575713413 l -1.49399381929,5.27014241114 a 0.993389,1.00122 0 1,0 1.9114376801,0.54620438902 l 1.98466752472,-6.99733130569 a 0.992183,1 0 0,0 -1.01066934557,-1.27695603039 z" fill="#2e3436" stroke-width="1.99196992" stroke-linecap="round" stroke-linejoin="round"/>
    <path d="m 13.66120937,14.0364940274 q -0.529107187631,0 -0.529107187631,-0.714595773332 l 0,-0.0746760122537 l -0.899493467796,0 l 0,1.52518574642 l 1.05825187134,0 q 0.698401989711,0 0.698401989711,0.533283473742 q 0,0.533279694592 -0.698401989711,0.533279694592 l -2.27518715407,0 q -0.698439485791,0 -0.698439485791,-0.533279694592 q 0,-0.533283473742 0.698439485791,-0.533283473742 l 0.158608419224,0 l 0,-4.0849365946 l -0.158608419224,0 q -0.698439485791,0 -0.698439485791,-0.533283473742 q 0,-0.309285670184 0.179981184936,-0.415959749025 q 0.179981184936,-0.117304828965 0.518533293016,-0.117304828965 l 4.98424145207,0 l 0,1.61051140455 q 0,0.703931010853 -0.529107187631,0.703931010853 q -0.529144683711,0 -0.529144683711,-0.703931010853 l 0,-0.543948236221 l -2.709054298,0 l 0,1.50385244232 l 0.899493467796,0 l 0,-0.0746382207495 q 0,-0.703931010853 0.529107187631,-0.703931010853 q 0.518533293016,0 0.518533293016,0.703931010853 l 0,1.20521641801 q 0,0.714595773332 -0.518533293016,0.714595773332 z" stroke-width="0.99598308"/>
    <path d="m 0.992723721593,14.9987061606 l 12.8970880005,-12.9987049324" fill="#2e3436" stroke-width="1.99196992" stroke-dasharray="1.99196992, 3.98392479" stroke-linecap="round" fill-opacity="0"/>
    <path d="M 13.1887100146,1.29387301932 L 12.9177445911,1.56697559174 a 0.992084,0.999901 0 0,0 0,1.40980034796 a 0.992084,0.999901 0 0,0 1.40610300731,0 l 0.270984171569,-0.273104084085 a 0.992084,0.999901 0 0,0 0,-1.40979997004 a 0.992084,0.999901 0 0,0 -1.40610300731,0 z m -3.07584845369,3.10008432702 l -1.40610300731,1.40979997004 a 0.992084,0.999901 0 0,0 0,1.41718178455 a 0.992084,0.999901 0 0,0 1.40610300731,0 l 1.40610300731,-1.41718178455 a 0.992084,0.999901 0 0,0 0,-1.40979997004 a 0.992084,0.999901 0 0,0 -1.40610300731,0 z m -4.21098603747,4.24416316123 l -1.39878002285,1.40979997004 a 0.992084,0.999901 0 0,0 0,1.41718140664 a 0.992084,0.999901 0 0,0 1.39878002285,0 l 1.40610300731,-1.41718140664 a 0.992084,0.999901 0 0,0 0,-1.40979997004 a 0.992084,0.999901 0 0,0 -1.40610300731,0 z m -3.50793453381,3.94891665693 a 0.992084,0.999901 0 0,0 -0.703051503655,0.287865445617 l -1.39878002285,1.41718140664 a 0.992084,0.999901 0 0,0 0,1.41718140664 a 0.992084,0.999901 0 0,0 1.39878002285,0 l 1.40610300731,-1.41718140664 a 0.992084,0.999901 0 0,0 0,-1.41718140664 a 0.992084,0.999901 0 0,0 -0.703051503655,-0.287865445617 z" fill="#2e3436" stroke-dasharray="1.99196992, 3.98392479" stroke-linecap="round"/>
  </g>
</svg>
