<?xml version="1.0" encoding="UTF-8" standalone="no"?>
<svg
   width="15.599534"
   height="9.5647068"
   viewBox="0 0 4.1273766 2.5306621"
   version="1.1"
   id="svg4268"
   xmlns="http://www.w3.org/2000/svg"
   xmlns:svg="http://www.w3.org/2000/svg"
   xmlns:rdf="http://www.w3.org/1999/02/22-rdf-syntax-ns#"
   xmlns:cc="http://creativecommons.org/ns#"
   xmlns:dc="http://purl.org/dc/elements/1.1/">
  <defs
     id="defs4262" />
  <metadata
     id="metadata4265">
    <rdf:RDF>
      <cc:Work
         rdf:about="">
        <dc:format>image/svg+xml</dc:format>
        <dc:type
           rdf:resource="http://purl.org/dc/dcmitype/StillImage" />
      </cc:Work>
    </rdf:RDF>
  </metadata>
  <g
     id="conditional-event"
     style="display:inline"
     transform="translate(-77.833538,-45.295873)">
    <path
       style="color:#000000;fill:#000000;stroke-width:0.167824;stroke-miterlimit:10;-inkscape-stroke:none"
       d="m 79.798403,45.296717 c -0.633089,0.02218 -1.313089,0.194451 -1.749371,0.683752 -0.249824,0.294195 -0.298924,0.756549 -0.05968,1.072166 0.301575,0.438004 0.836116,0.638383 1.341076,0.725161 0.722286,0.119843 1.5094,0.02807 2.130152,-0.380328 0.319992,-0.215499 0.571539,-0.602868 0.482055,-1.000704 -0.09655,-0.454544 -0.516788,-0.748552 -0.926854,-0.905018 -0.38643,-0.149826 -0.804615,-0.203433 -1.217382,-0.195029 z m 0.09801,0.487083 c 0.474793,0.0069 0.979141,0.0986 1.360084,0.399539 0.160513,0.129115 0.289251,0.362439 0.164402,0.558714 -0.166232,0.286243 -0.500715,0.413271 -0.802421,0.504164 -0.497996,0.128396 -1.021095,0.12043 -1.515952,-0.01919 -0.272166,-0.08814 -0.559725,-0.219031 -0.722792,-0.464672 -0.10459,-0.164149 -0.05853,-0.381566 0.08362,-0.508184 0.318799,-0.320745 0.789693,-0.422976 1.225019,-0.462129 0.06917,-0.0064 0.13867,-0.0059 0.208042,-0.0082 z"
       id="ellipse1470" />
  </g>
</svg>
