<?xml version="1.0" encoding="UTF-8" standalone="no"?>
<svg
   width="15.996548"
   height="15.996555"
   viewBox="0 0 4.2324198 4.2324221"
   version="1.1"
   id="svg4268"
   xmlns="http://www.w3.org/2000/svg"
   xmlns:svg="http://www.w3.org/2000/svg"
   xmlns:rdf="http://www.w3.org/1999/02/22-rdf-syntax-ns#"
   xmlns:cc="http://creativecommons.org/ns#"
   xmlns:dc="http://purl.org/dc/elements/1.1/">
  <defs
     id="defs4262" />
  <metadata
     id="metadata4265">
    <rdf:RDF>
      <cc:Work
         rdf:about="">
        <dc:format>image/svg+xml</dc:format>
        <dc:type
           rdf:resource="http://purl.org/dc/dcmitype/StillImage" />
      </cc:Work>
    </rdf:RDF>
  </metadata>
  <g
     id="c4-container"
     style="display:inline"
     transform="translate(-119.0625,9.7890625)">
    <g
       id="rect1264-7">
      <path
         style="color:#000000;fill:#000000;fill-opacity:0;stroke-width:0.529167;stroke-linecap:round;stroke-linejoin:round;-inkscape-stroke:none"
         d="m 119.32708,-9.5249996 h 3.70417 v 3.7041666 h -3.70417 z"
         id="path1451" />
      <path
         style="color:#000000;fill:#000000;stroke-linecap:round;stroke-linejoin:round;-inkscape-stroke:none"
         d="m 119.32617,-9.7890625 a 0.26460996,0.26460996 0 0 0 -0.26367,0.2636719 v 3.7050781 a 0.26460996,0.26460996 0 0 0 0.26367,0.2636719 h 3.70508 a 0.26460996,0.26460996 0 0 0 0.26367,-0.2636719 v -3.7050781 a 0.26460996,0.26460996 0 0 0 -0.26367,-0.2636719 z m 0.26563,0.5292969 h 3.17578 v 3.1738281 h -3.17578 z"
         id="path1453" />
    </g>
    <path
       d="m 120.55731,-7.2242327 q 0.11606,0 0.19755,-0.027164 0.084,-0.029633 0.11854,-0.061736 0.0346,-0.034572 0.0691,-0.061736 0.037,-0.029633 0.0692,-0.029633 0.0494,0 0.0864,0.037042 0.037,0.037042 0.037,0.08643 0,0.1061859 -0.17039,0.2049635 -0.16793,0.098778 -0.41487,0.098778 -0.31362,0 -0.52105,-0.1827385 -0.20496,-0.185208 -0.20496,-0.4667242 v -0.162983 q 0,-0.2963328 0.19261,-0.4963575 0.19262,-0.2000246 0.47907,-0.2000246 0.17286,0 0.35066,0.083961 l 0.0247,0.00988 q 0.042,-0.059267 0.10371,-0.059267 0.0716,0 0.0963,0.04198 0.0272,0.041981 0.0272,0.1210026 v 0.2074329 q 0,0.1629831 -0.12348,0.1629831 -0.0444,0 -0.0741,-0.024694 -0.0272,-0.024694 -0.0346,-0.04445 -0.005,-0.022225 -0.0123,-0.061736 -0.0148,-0.074083 -0.0914,-0.1185332 -0.0741,-0.046919 -0.13829,-0.059266 -0.0642,-0.012347 -0.11853,-0.012347 -0.18768,0 -0.31115,0.1284109 -0.12347,0.1259414 -0.12347,0.3210272 v 0.1580441 q 0,0.185208 0.13088,0.2963328 0.13335,0.1111248 0.3556,0.1111248 z m 1.69157,-0.034572 q 0.16298,0 0.16298,0.123472 0,0.123472 -0.16298,0.123472 h -0.57044 q -0.16299,0 -0.16299,-0.123472 0,-0.071614 0.042,-0.096308 0.042,-0.027164 0.12101,-0.027164 h 0.16051 v -0.9457956 h -0.26423 v 0.229658 q 0,0.162983 -0.12347,0.162983 -0.12348,0 -0.12348,-0.162983 v -0.476602 h 1.27424 v 0.476602 q 0,0.079022 -0.0272,0.1210025 -0.0247,0.041981 -0.0963,0.041981 -0.12347,0 -0.12347,-0.162983 v -0.229658 h -0.26917 v 0.9457956 z"
       id="text84-8-3-5"
       style="font-weight:bold;font-size:2.46944px;line-height:1.25;font-family:FreeMono;-inkscape-font-specification:'FreeMono, Bold';letter-spacing:0px;word-spacing:0px;stroke-width:0.264583"
       aria-label="CT" />
  </g>
</svg>
