<?xml version="1.0" encoding="UTF-8"?>
<svg xmlns="http://www.w3.org/2000/svg" width="16px" height="16px" viewBox="0 0 16 16">
  <g fill="#2e3436">
    <path d="m 5.358131272E-07,-1.31557928995E-06 c 0.127783975737,0.148698527888 0.254487912042,0.296418882614 0.382289819468,0.445117410501 c 0.261580584788,0.304234044838 0.523241172498,0.608353641173 0.784820377925,0.912598158423 c 1.90361846662,2.21399384293 3.80624793161,4.42812295452 5.70963604498,6.64228323401 c -1.9034225974,2.21416227423 -3.80598309435,4.42827081501 -5.70963604498,6.64227463167 c -0.389128689845,0.452590224587 -0.777992542434,0.905126840397 -1.16711019739,1.35772579199 L 16.0000012475,15.999997911 C 15.6109539399,15.5474612952 15.2219507719,15.0947987611 14.8328910501,14.642272119 C 12.9292270646,12.4282271607 11.0244444175,10.2142021499 9.12101078522,7.99999748735 C 11.4137689766,5.33285252242 13.7070002886,2.66695639264 16.0000012475,-1.31557928995E-06 Z m 3.62051977136,1.60162315901 l 8.75896116893,0 l -4.38060821184,5.0914646137 z m 4.37835295709,7.70324954065 l 4.38060821184,5.09349326953 l -8.75896116893,0 z" fill="#2e3436" stroke-width="0.1740925"/>
  </g>
</svg>
