<?xml version="1.0" encoding="UTF-8" standalone="no"?>
<svg
   width="16.066"
   height="10.091066"
   viewBox="0 0 4.2507957 2.669928"
   version="1.1"
   id="svg4268"
   xmlns="http://www.w3.org/2000/svg"
   xmlns:svg="http://www.w3.org/2000/svg"
   xmlns:rdf="http://www.w3.org/1999/02/22-rdf-syntax-ns#"
   xmlns:cc="http://creativecommons.org/ns#"
   xmlns:dc="http://purl.org/dc/elements/1.1/">
  <defs
     id="defs4262" />
  <metadata
     id="metadata4265">
    <rdf:RDF>
      <cc:Work
         rdf:about="">
        <dc:format>image/svg+xml</dc:format>
        <dc:type
           rdf:resource="http://purl.org/dc/dcmitype/StillImage" />
      </cc:Work>
    </rdf:RDF>
  </metadata>
  <g
     id="undeveloped-event"
     style="display:inline"
     transform="translate(-85.716395,-50.477275)">
    <path
       style="color:#000000;fill:#000000;stroke-width:0.0402598;stroke-miterlimit:10;-inkscape-stroke:none"
       d="m 87.804835,50.500389 c -0.695979,0.437408 -1.392261,0.874636 -2.08844,1.311849 0.70846,0.444924 1.416962,0.889784 2.125272,1.334965 0.708382,-0.445188 1.416987,-0.890027 2.125524,-1.334965 -0.708537,-0.444943 -1.417142,-0.889785 -2.125524,-1.334963 -0.01225,0.0081 -0.02456,0.01536 -0.03681,0.02316 z m 1.374078,1.311849 c -0.445747,0.279948 -0.891503,0.5599 -1.337246,0.839845 -0.445584,-0.279945 -0.891162,-0.559897 -1.33674,-0.839845 0.445578,-0.279948 0.891156,-0.559898 1.33674,-0.839848 0.445743,0.27995 0.891499,0.5599 1.337246,0.839848 z"
       id="path1350" />
  </g>
</svg>
