<?xml version="1.0" encoding="UTF-8" standalone="no"?>
<svg
   xmlns:dc="http://purl.org/dc/elements/1.1/"
   xmlns:cc="http://creativecommons.org/ns#"
   xmlns:rdf="http://www.w3.org/1999/02/22-rdf-syntax-ns#"
   xmlns:svg="http://www.w3.org/2000/svg"
   xmlns="http://www.w3.org/2000/svg"
   width="13.059993"
   height="15.388832"
   viewBox="0 0 3.4554563 4.0716286"
   version="1.1"
   id="svg4268">
  <defs
     id="defs4262" />
  <metadata
     id="metadata4265">
    <rdf:RDF>
      <cc:Work
         rdf:about="">
        <dc:format>image/svg+xml</dc:format>
        <dc:type
           rdf:resource="http://purl.org/dc/dcmitype/StillImage" />
        <dc:title />
      </cc:Work>
    </rdf:RDF>
  </metadata>
  <path
     id="path636"
     style="color:#000000;font-style:normal;font-variant:normal;font-weight:normal;font-stretch:normal;font-size:medium;line-height:normal;font-family:sans-serif;font-variant-ligatures:normal;font-variant-position:normal;font-variant-caps:normal;font-variant-numeric:normal;font-variant-alternates:normal;font-variant-east-asian:normal;font-feature-settings:normal;font-variation-settings:normal;text-indent:0;text-align:start;text-decoration:none;text-decoration-line:none;text-decoration-style:solid;text-decoration-color:#000000;letter-spacing:normal;word-spacing:normal;text-transform:none;writing-mode:lr-tb;direction:ltr;text-orientation:mixed;dominant-baseline:auto;baseline-shift:baseline;text-anchor:start;white-space:normal;shape-padding:0;shape-margin:0;inline-size:0;clip-rule:nonzero;display:inline;overflow:visible;visibility:visible;isolation:auto;mix-blend-mode:normal;color-interpolation:sRGB;color-interpolation-filters:linearRGB;solid-color:#000000;solid-opacity:1;vector-effect:none;fill:#000000;fill-opacity:1;fill-rule:nonzero;stroke:none;stroke-width:0.122886;stroke-linecap:butt;stroke-linejoin:miter;stroke-miterlimit:10;stroke-dasharray:none;stroke-dashoffset:0;stroke-opacity:1;color-rendering:auto;image-rendering:auto;shape-rendering:auto;text-rendering:auto;enable-background:accumulate;stop-color:#000000"
     d="M 1.723454,5.57e-4 C 0.855672,-0.017873 0.055809,0.732733 0.012689,1.59837 c -0.02615,0.536921 -0.0028,1.074911 -0.0087,1.612289 3.43e-4,0.286996 0.0011,0.57399 0.0041,0.860969 0.378699,-0.234573 0.792208,-0.414472 1.237803,-0.48433 0.221777,-0.03642 0.450772,-0.04142 0.685737,-0.02844 0.508504,0.032 1.00282,0.193467 1.432836,0.473636 C 3.433285,4.107024 3.438895,3.973654 3.455125,3.923 3.439395,3.083145 3.483285,2.239427 3.419505,1.400295 3.275128,0.61613 2.526911,-0.021364 1.722895,5.48e-4 Z M 1.706864,0.38602 c 0.704718,-0.0217 1.35866,0.60707 1.351732,1.314345 0.0094,0.576909 0.0036,1.153945 0.0058,1.730914 C 2.224932,3.075033 1.245459,3.079703 0.405775,3.432679 0.376285,3.410719 0.402275,3.308546 0.393875,3.254503 0.394975,2.65695 0.371275,2.054547 0.420595,1.462802 0.496275,1.052751 0.814191,0.67346 1.191104,0.503354 1.352293,0.428964 1.528723,0.387461 1.706417,0.385987 Z" />
  <g
     id="g640"
     transform="matrix(0.04265875,0,0,0.0433258,-0.319603,-0.110342)">
    <path
       id="path638"
       style="color:#000000;font-style:normal;font-variant:normal;font-weight:normal;font-stretch:normal;font-size:medium;line-height:normal;font-family:sans-serif;font-variant-ligatures:normal;font-variant-position:normal;font-variant-caps:normal;font-variant-numeric:normal;font-variant-alternates:normal;font-variant-east-asian:normal;font-feature-settings:normal;font-variation-settings:normal;text-indent:0;text-align:start;text-decoration:none;text-decoration-line:none;text-decoration-style:solid;text-decoration-color:#000000;letter-spacing:normal;word-spacing:normal;text-transform:none;writing-mode:lr-tb;direction:ltr;text-orientation:mixed;dominant-baseline:auto;baseline-shift:baseline;text-anchor:start;white-space:normal;shape-padding:0;shape-margin:0;inline-size:0;clip-rule:nonzero;display:inline;overflow:visible;visibility:visible;opacity:1;isolation:auto;mix-blend-mode:normal;color-interpolation:sRGB;color-interpolation-filters:linearRGB;solid-color:#000000;solid-opacity:1;vector-effect:none;fill:#000000;fill-opacity:1;fill-rule:nonzero;stroke:none;stroke-width:1;stroke-linecap:butt;stroke-linejoin:miter;stroke-miterlimit:4;stroke-dasharray:none;stroke-dashoffset:0;stroke-opacity:1;color-rendering:auto;image-rendering:auto;shape-rendering:auto;text-rendering:auto;enable-background:accumulate;stop-color:#000000;stop-opacity:1"
       d="m 43.650391,32.378906 c -1.228098,-0.05195 -2.354276,0.630358 -3.554737,0.615726 -1.115232,-0.474037 -2.35024,-0.06258 -3.519091,-0.20557 -0.904428,10e-7 -1.808855,0 -2.713282,0 0.165519,6.87306 0.117745,13.748635 0.123047,20.623047 2.044271,0 4.088542,0 6.132813,0 0.03412,-4.356934 -0.132865,-8.734056 0.13191,-13.07759 0.392435,-1.414725 1.82394,-2.613352 3.340194,-2.245769 0.63827,-0.02567 0.831437,0.778373 1.14313,1.225703 0.593829,1.434442 0.23408,3.02035 0.361328,4.525391 0.02566,2.792666 -0.09894,5.594474 0.07617,8.380859 0.336724,1.052712 1.597012,1.449564 2.589844,1.191406 1.152995,0 2.305989,0 3.458984,0 0.03463,-4.462215 -0.151763,-8.946132 0.149894,-13.393837 0.386397,-1.387285 2.0779,-2.566887 3.43995,-1.719444 1.12717,0.726735 1.216237,2.262129 1.24723,3.481248 0.0476,3.87671 0.02873,7.754664 0.02621,11.632033 2.039714,0 4.079427,0 6.119141,0 -0.06249,-4.882667 0.209551,-9.783866 -0.222985,-14.652531 -0.499031,-2.967755 -2.73718,-5.837202 -5.850356,-6.248109 -2.306242,-0.471146 -4.700719,0.287219 -6.520306,1.725986 -0.532167,0.677336 -1.016397,-0.160917 -1.51755,-0.45764 -1.249571,-0.979494 -2.862275,-1.451794 -4.441538,-1.400909 z" />
  </g>
</svg>
