<?xml version="1.0" encoding="UTF-8" standalone="no"?>
<svg
   width="16.003952"
   height="16.003952"
   viewBox="0 0 4.2343789 4.2343791"
   version="1.1"
   id="svg4268"
   xmlns="http://www.w3.org/2000/svg"
   xmlns:svg="http://www.w3.org/2000/svg"
   xmlns:rdf="http://www.w3.org/1999/02/22-rdf-syntax-ns#"
   xmlns:cc="http://creativecommons.org/ns#"
   xmlns:dc="http://purl.org/dc/elements/1.1/">
  <defs
     id="defs4262" />
  <metadata
     id="metadata4265">
    <rdf:RDF>
      <cc:Work
         rdf:about="">
        <dc:format>image/svg+xml</dc:format>
        <dc:type
           rdf:resource="http://purl.org/dc/dcmitype/StillImage" />
        <dc:title />
      </cc:Work>
    </rdf:RDF>
  </metadata>
  <g
     style="display:inline"
     id="block"
     transform="translate(-69.849607,-4.6347636)">
    <g
       id="rect4893-7">
      <path
         style="color:#000000;fill:#000000;fill-opacity:0;stroke-width:0.529167;stroke-linecap:square;stroke-linejoin:round;-inkscape-stroke:none"
         d="m 70.114586,4.899991 h 3.704167 v 3.7041669 h -3.704167 z"
         id="path3592" />
      <path
         style="color:#000000;fill:#000000;stroke-linecap:square;stroke-linejoin:round;-inkscape-stroke:none"
         d="m 70.115234,4.6347656 a 0.26460996,0.26460996 0 0 0 -0.265625,0.265625 v 3.703125 a 0.26460996,0.26460996 0 0 0 0.265625,0.265625 h 3.703125 a 0.26460996,0.26460996 0 0 0 0.265625,-0.265625 v -3.703125 a 0.26460996,0.26460996 0 0 0 -0.265625,-0.265625 z m 0.263672,0.5292969 h 3.175781 v 3.1757813 h -3.175781 z"
         id="path3594" />
    </g>
    <g
       aria-label="B"
       transform="scale(1.1133449,0.89819427)"
       id="text84-8"
       style="font-weight:bold;font-size:3.80235px;line-height:1.25;font-family:FreeMono;-inkscape-font-specification:'FreeMono, Bold';letter-spacing:0px;word-spacing:0px;display:inline;stroke-width:0.237647">
      <path
         d="m 64.304262,7.6294884 v 0.8206244 h 0.363896 q 0.261783,0 0.365754,-0.089118 0.105827,-0.089118 0.105827,-0.3100549 0,-0.2246506 -0.109541,-0.3230513 -0.10954,-0.098401 -0.36204,-0.098401 z m 0,-1.0805507 v 0.6442459 h 0.363896 q 0.207941,0 0.295202,-0.074265 0.08912,-0.074265 0.08912,-0.2450733 0,-0.1708087 -0.09097,-0.24693 -0.08912,-0.077978 -0.293346,-0.077978 z M 63.775126,6.1126329 h 0.893032 q 0.462298,0 0.694375,0.1763786 0.233933,0.1745219 0.233933,0.5235657 0,0.2673528 -0.137389,0.4177387 -0.13739,0.1503859 -0.402886,0.1745219 0.317481,0.031562 0.47715,0.2135109 0.161526,0.1819484 0.161526,0.5087128 0,0.4010291 -0.24136,0.5811209 -0.24136,0.1800918 -0.785349,0.1800918 h -0.893032 z"
         id="path1700" />
    </g>
  </g>
</svg>
