<?xml version="1.0" encoding="UTF-8"?>
<svg xmlns="http://www.w3.org/2000/svg" width="16px" height="16px" viewBox="0 0 16 16">
  <g fill="#2e3436">
    <path d="M 1.00221416394,1.00022443392 L 14.9987705387,1.00022443392 L 14.9987705387,15.003222856 L 1.00221416394,15.003222856 Z" fill="#2e3436" stroke-width="1.9999696" stroke-linecap="round" stroke-linejoin="round" fill-opacity="0"/>
    <path d="m 1.00369008431,7.56067541374E-06 a 0.999855,1.00032 0 0,0 -1.00369008431,0.996769205256 L 0,15.003222856 a 0.999855,1.00032 0 0,0 1.00369008431,0.996769205256 l 13.9926205871,0 A 0.999855,1.00032 0 0,0 16.0000007557,15.003222856 L 16.0000007557,0.996776765931 A 0.999855,1.00032 0 0,0 14.9963106714,7.56067541374E-06 Z m 0.996310104623,2.00092141006 l 12.0000003779,0 l 0,12.00552468 L 2.00000018893,14.0064536508 Z" fill="#2e3436" stroke-linecap="round" stroke-linejoin="round"/>
    <path d="m 5.50110698751,7.00151433241 l 4.99876883832,0 c 0.830795800126,0 1.49963106714,0.669142457089 1.49963106714,1.50032152954 l 0,1.00020931257 c 0,0.831179072447 -0.668835267015,1.50032152954 -1.49963106714,1.50032152954 L 5.50110698751,11.0023667041 c -0.830795422266,0 -1.49963106714,-0.669142457089 -1.49963106714,-1.50032152954 L 4.00147592036,8.50183586194 c 0,-0.831179072447 0.668835644875,-1.50032152954 1.49963106714,-1.50032152954 z" fill="#2e3436" stroke-width="1.3999791" fill-opacity="0"/>
    <path d="m 5.49815552464,6.29811067463 c -1.20639448355,0 -2.19926228543,0.9933253176 -2.19926228543,2.20027373898 l 0,1.00415220481 c 0,1.20694842138 0.992867801877,2.20027373898 2.19926228543,2.20027373898 l 5.00369008431,0 c 1.20639410569,0 2.19926190757,-0.9933253176 2.19926190757,-2.20027373898 l 0,-1.00415220481 c 0,-1.20694842138 -0.992867801877,-2.20027373898 -2.19926190757,-2.20027373898 z m 0,1.40285686264 l 5.00369008431,0 c 0.455195227404,0 0.797048008126,0.342007152824 0.797048008126,0.79741687634 l 0,1.00415220481 c 0,0.455405943178 -0.341853536442,0.797413096002 -0.797048008126,0.797413096002 L 5.49815552464,10.2999497144 c -0.455195605264,0 -0.797048008126,-0.342007152824 -0.797048008126,-0.797413096002 l 0,-1.00415220481 c 0,-0.455405943178 0.341853536442,-0.79741687634 0.797048008126,-0.79741687634 z" fill="#2e3436"/>
    <path d="M 7.29889361707,1.99354597119 L 7.29151325953,2.71712529133 L 6.70848768512,3.30042005931 L 2.00000018893,3.30042005931 l 0,1.40286064298 L 7.29151325953,4.70328070229 L 8.68634755714,3.30780305886 L 8.70110751651,2.00831197029 Z" fill="#2e3436"/>
  </g>
</svg>
