<?xml version="1.0" encoding="UTF-8" standalone="no"?>
<svg
   width="16.010857"
   height="16.052483"
   viewBox="0 0 4.2362057 4.2472195"
   version="1.1"
   id="svg4268"
   xmlns="http://www.w3.org/2000/svg"
   xmlns:svg="http://www.w3.org/2000/svg"
   xmlns:rdf="http://www.w3.org/1999/02/22-rdf-syntax-ns#"
   xmlns:cc="http://creativecommons.org/ns#"
   xmlns:dc="http://purl.org/dc/elements/1.1/">
  <defs
     id="defs4262" />
  <metadata
     id="metadata4265">
    <rdf:RDF>
      <cc:Work
         rdf:about="">
        <dc:format>image/svg+xml</dc:format>
        <dc:type
           rdf:resource="http://purl.org/dc/dcmitype/StillImage" />
      </cc:Work>
    </rdf:RDF>
  </metadata>
  <g
     id="refine"
     style="display:inline"
     transform="translate(-69.849827,4.5025476)">
    <path
       style="color:#000000;fill:#000000;stroke-width:0.529167;stroke-linecap:round;stroke-linejoin:round;-inkscape-stroke:none"
       d="m 73.806034,-4.5021035 a 0.26460979,0.26460979 0 0 0 -0.0586,0.00977 l -1.851565,0.5292969 A 0.26492937,0.26492937 0 1 0 72.0404,-3.453271 l 1.394534,-0.3984375 -0.39844,1.3945313 a 0.26493146,0.26493146 0 1 0 0.50977,0.1445312 l 0.52929,-1.8515625 a 0.26460979,0.26460979 0 0 0 -0.26953,-0.3378906 z"
       id="path4594-6-2-40" />
    <path
       style="font-weight:bold;font-size:2.82223px;line-height:1.25;font-family:FreeMono;-inkscape-font-specification:'FreeMono Bold';letter-spacing:0px;word-spacing:0px;stroke-width:0.264583"
       d="m 73.889786,-0.53755125 q 0.186267,0 0.186267,0.14111151 0,0.1411115 -0.186267,0.1411115 H 73.66683 q -0.104423,-0.20320057 -0.268112,-0.39793444 -0.160867,-0.19755611 -0.251179,-0.22860064 h -0.270934 v 0.34431207 h 0.09878 q 0.186268,0 0.186268,0.14111151 0,0.1411115 -0.186268,0.1411115 h -0.423334 q -0.186267,0 -0.186267,-0.1411115 0,-0.14111151 0.186267,-0.14111151 h 0.04233 V -1.6184654 h -0.04233 q -0.186267,0 -0.186267,-0.1411115 0,-0.081845 0.04798,-0.110067 0.04798,-0.031044 0.138289,-0.031044 h 0.629357 q 0.273757,0 0.445913,0.1411115 0.174978,0.1382893 0.174978,0.3612455 0,0.2596451 -0.304801,0.42615672 0.183445,0.16086711 0.355601,0.43462343 z M 72.876605,-1.1640863 h 0.21449 q 0.1778,0 0.293512,-0.067734 0.118533,-0.070556 0.118533,-0.1749782 0,-0.090311 -0.08749,-0.1495782 -0.08749,-0.062089 -0.222956,-0.062089 h -0.31609 z"
       id="text150-9"
       aria-label="R" />
    <path
       style="color:#000000;fill:#000000;stroke-linecap:round;stroke-dasharray:0.529167, 1.05833;-inkscape-stroke:none"
       d="m 73.554687,-4.2324219 a 0.2645835,0.2645835 0 0 0 -0.1875,0.076172 l -0.07227,0.072266 a 0.2645835,0.2645835 0 0 0 0,0.375 0.2645835,0.2645835 0 0 0 0.375,0 l 0.07227,-0.072266 a 0.2645835,0.2645835 0 0 0 0,-0.375 0.2645835,0.2645835 0 0 0 -0.1875,-0.076172 z m -1.007812,0.8964844 -0.375,0.375 a 0.2645835,0.2645835 0 0 0 0,0.3730469 0.2645835,0.2645835 0 0 0 0.375,0 l 0.375,-0.3730469 a 0.2645835,0.2645835 0 0 0 0,-0.375 0.2645835,0.2645835 0 0 0 -0.375,0 z m -1.123047,1.1230469 -0.373047,0.375 a 0.2645835,0.2645835 0 0 0 0,0.3730469 0.2645835,0.2645835 0 0 0 0.373047,0 l 0.375,-0.3730469 a 0.2645835,0.2645835 0 0 0 0,-0.375 0.2645835,0.2645835 0 0 0 -0.375,0 z m -1.123047,1.1230469 -0.373047,0.37304683 a 0.2645835,0.2645835 0 0 0 0,0.37499999 0.2645835,0.2645835 0 0 0 0.373047,0 l 0.375,-0.37499999 a 0.2645835,0.2645835 0 0 0 0,-0.37304683 0.2645835,0.2645835 0 0 0 -0.375,0 z"
       id="path4598-1-2-0" />
  </g>
</svg>
