<?xml version="1.0" encoding="UTF-8"?>
<svg xmlns="http://www.w3.org/2000/svg" width="16px" height="16px" viewBox="0 0 16 16">
  <g fill="#2e3436">
    <path d="m 1.00245896231,1.33559121 l 10.9999035048,0 l 2.99997323646,6.66501311282 l -2.99997323646,6.66501815094 L 1.00245896231,14.6656224738 Z" fill="#2e3436" stroke-width="2.30910639" stroke-dasharray="none" stroke-linejoin="round" fill-opacity="0"/>
    <path d="m 1.00393561056,1.00762453599E-05 a 1.00009,1.33314 0 0,0 -1.00392805157,1.33825133878 l 0,13.3234766661 a 1.00009,1.33314 0 0,0 1.00392805157,1.33825133878 l 10.9989181908,0 a 1.00009,1.33314 0 0,0 0.856289683652,-0.649449281235 l 2.99702145177,-6.66173329495 a 1.00009,1.33314 0 0,0 0,-1.37761419133 l -2.99702145177,-6.66173329495 a 1.00009,1.33314 0 0,0 -0.856289683652,-0.649449281235 z m 0.99654632215,2.66666322395 l 9.43397001033,0 l 2.39909418761,5.3333264479 l -2.39909418761,5.3333264479 L 2.00048193271,13.333326196 Z" fill="#2e3436" stroke-width="2.30910639" stroke-dasharray="none" stroke-linejoin="round"/>
  </g>
</svg>
