<?xml version="1.0" encoding="UTF-8"?>
<svg xmlns="http://www.w3.org/2000/svg" width="16px" height="16px" viewBox="0 0 16 16">
  <g fill="#2e3436">
    <path d="m 1.99952252738,9.59750061113 l 0,1.40221360907 l 11.9999917816,0 l 0,-1.40221360907 z" fill="#2e3436"/>
    <path d="m 1.99952630597,5.00119604312 l 0,1.40221360907 l 11.999988003,0 L 13.9995143089,5.00119604312 Z" fill="#2e3436"/>
    <path d="m 1.00124814055,1.0021851846 l 13.9965443338,0 l 0,13.9965432949 l -13.9965443338,0 z" fill="#2e3436" stroke-width="1.99950737" stroke-linecap="square" stroke-linejoin="round" fill-opacity="0"/>
    <path d="m 1.00369666966,6.04575061303E-06 a 0.999854,0.999854 0 0,0 -1.00368911247,1.00368906506 l 0,13.9926063776 a 0.999854,0.999854 0 0,0 1.00368911247,1.00368906506 l 13.9926070385,0 a 0.999854,0.999854 0 0,0 1.00368911247,-1.00368906506 l 0,-13.9926063776 a 0.999854,0.999854 0 0,0 -1.00368911247,-1.00368906506 z m 0.99630951779,1.99999815794 l 11.999988003,0 l 0,11.9999885698 l -11.999988003,0 z" fill="#2e3436" stroke-linecap="square" stroke-linejoin="round"/>
    <path d="m 7.49767575122,9.99996245022 l 0,3.999993293 l 1.00368911247,0 l 0,-3.999993293 z" fill="#2e3436" stroke-width="5.66789132" stroke-dasharray="none"/>
    <path d="m 7.49718453396,2.0048880366 l 0,3.99261747726 l 1.00368911247,0 l 0,-3.99261747726 z" fill="#2e3436"/>
  </g>
</svg>
