<?xml version="1.0" encoding="UTF-8"?>
<svg xmlns="http://www.w3.org/2000/svg" width="16px" height="16px" viewBox="0 0 16 16">
  <g fill="#2e3436">
    <path d="m 10.6647758619,14.9341565371 l 4.2655153635,-4.26666516158 l 0,-9.59999056631 l -8.53107103121,0 l -5.33188412832,4.26666516158" fill="#2e3436" stroke-width="2.13304914" stroke-linecap="round" stroke-linejoin="round" fill-opacity="0"/>
    <path d="m 6.3962779869,7.65983499207E-06 a 1.06649,1.06677 0 0,0 -0.661230854776,0.236221248186 L 0.397883152405,4.5039402418 a 1.06638,1.06667 0 0,0 -0.16524725738,1.49606172356 a 1.06638,1.06667 0 0,0 1.50354852112,0.165355680028 l 5.03802613965,-4.03149210134 l 7.09261380781,0 L 13.8668243636,10.2283441662 l -3.9596064163,3.95275222281 a 1.06638,1.06667 0 0,0 0,1.50393522763 a 1.06638,1.06667 0 0,0 1.51140784189,0 L 15.6851487579,11.4251933837 A 1.06649,1.06677 0 0,0 16.0000052395,10.6692886147 L 16.0000052395,1.07087274925 a 1.06649,1.06677 0 0,0 -1.07056040257,-1.07086508942 z" fill="#2e3436" stroke-linecap="round" stroke-linejoin="round"/>
    <path d="m 10.6647758619,5.33416597084 l 3.19914659868,-3.19999685544" fill="#2e3436" stroke-width="2.13304914" fill-opacity="0"/>
    <path d="m 13.1110398342,1.37795916245 l -3.20390249535,3.20472136103 l 1.51140784189,1.50393522763 l 3.19600287036,-3.19684705066 z" fill="#2e3436"/>
    <path d="m 3.19991237865,9.08846033512 l 5.33192443253,0 l 0,2.13332895245 l -5.33192443253,0 z" fill="#2e3436" stroke-width="1.4931348" stroke-linecap="round" stroke-linejoin="round" fill-opacity="0"/>
    <path d="m 3.20027511653,8.33858224366 a 0.746543,0.746741 0 0,0 -0.74780429596,0.748030861778 l 0,2.13385586846 a 0.746543,0.746741 0 0,0 0.74780429596,0.748030861778 l 5.32930465894,0 a 0.746543,0.746741 0 0,0 0.74780429596,-0.748030861778 L 9.27738407143,9.08661310544 A 0.746543,0.746741 0 0,0 8.52957977547,8.33858224366 Z m 0.747844600169,1.49606132041 l 3.8336154586,0 l 0,0.637794951206 l -3.8336154586,0 z" fill="#2e3436" stroke-linecap="round" stroke-linejoin="round"/>
    <path d="m 1.06709424059,5.33416556769 l 9.59743979603,0 l 0,9.59998935686 l -9.59743979603,0 z" fill="#2e3436" stroke-width="2.13304914" stroke-linecap="round" stroke-linejoin="round" fill-opacity="0"/>
    <path d="m 1.06701363217,4.26772020306 a 1.06649,1.06677 0 0,0 -1.062741386,1.06299077905 l 0,9.60629017587 a 1.06649,1.06677 0 0,0 1.062741386,1.06299077905 l 9.59582762766,0 A 1.06649,1.06677 0 0,0 11.7334419666,14.937001158 L 11.7334419666,5.3307109821 a 1.06649,1.06677 0 0,0 -1.07060070678,-1.06299077905 z m 1.06270108179,2.13385586846 l 7.47042546408,0 l 0,7.46455999703 l -7.47042546408,0 z" fill="#2e3436" stroke-linecap="round" stroke-linejoin="round"/>
  </g>
</svg>
