<?xml version="1.0" encoding="UTF-8" standalone="no"?>
<svg
   width="15.599472"
   height="15.435193"
   viewBox="0 0 4.1273602 4.0838949"
   version="1.1"
   id="svg4268"
   xmlns="http://www.w3.org/2000/svg"
   xmlns:svg="http://www.w3.org/2000/svg"
   xmlns:rdf="http://www.w3.org/1999/02/22-rdf-syntax-ns#"
   xmlns:cc="http://creativecommons.org/ns#"
   xmlns:dc="http://purl.org/dc/elements/1.1/">
  <defs
     id="defs4262" />
  <metadata
     id="metadata4265">
    <rdf:RDF>
      <cc:Work
         rdf:about="">
        <dc:format>image/svg+xml</dc:format>
        <dc:type
           rdf:resource="http://purl.org/dc/dcmitype/StillImage" />
      </cc:Work>
    </rdf:RDF>
  </metadata>
  <g
     id="justification"
     style="display:inline"
     transform="translate(-119.91261,-31.989293)">
    <path
       style="color:#000000;fill:#000000;stroke-width:0.167824;stroke-miterlimit:10;-inkscape-stroke:none"
       d="m 121.87748,31.990137 c -0.63309,0.02218 -1.31309,0.194451 -1.74937,0.683752 -0.24983,0.294195 -0.29893,0.756549 -0.0597,1.072166 0.30157,0.438004 0.83611,0.638383 1.34107,0.725161 0.72229,0.119843 1.5094,0.02807 2.13015,-0.380328 0.32,-0.215499 0.57154,-0.602868 0.48206,-1.000704 -0.0965,-0.454544 -0.51679,-0.748552 -0.92685,-0.905018 -0.38643,-0.149826 -0.80462,-0.203433 -1.21739,-0.195029 z m 0.098,0.487083 c 0.47479,0.0069 0.97914,0.0986 1.36008,0.399539 0.16051,0.129115 0.28925,0.362439 0.1644,0.558714 -0.16623,0.286243 -0.50071,0.413271 -0.80242,0.504164 -0.49799,0.128396 -1.02109,0.12043 -1.51595,-0.01919 -0.27217,-0.08814 -0.55972,-0.219031 -0.72279,-0.464672 -0.10459,-0.164149 -0.0585,-0.381566 0.0836,-0.508184 0.3188,-0.320745 0.78969,-0.422976 1.22502,-0.462129 0.0692,-0.0064 0.13867,-0.0059 0.20804,-0.0082 z"
       id="path18" />
    <path
       d="m 123.83459,34.598933 q 0.16298,0 0.16298,0.123472 0,0.123472 -0.16298,0.123472 h -0.14076 v 0.730954 q 0,0.22225 -0.15805,0.360538 -0.15557,0.135819 -0.3877,0.135819 -0.20743,0 -0.53093,-0.160513 v -0.40005 q 0,-0.165452 0.12347,-0.165452 0.0741,0 0.0988,0.04445 0.0247,0.04198 0.0247,0.121002 v 0.237067 q 0.17039,0.07655 0.28892,0.07655 0.14076,0 0.2346,-0.0889 0.0395,-0.03951 0.0494,-0.07161 0.01,-0.0321 0.01,-0.116064 v -0.70379 h -0.29386 q -0.16298,0 -0.16298,-0.123472 0,-0.07161 0.042,-0.09631 0.042,-0.02716 0.121,-0.02716 z"
       id="text695-8"
       style="font-weight:bold;font-size:2.46944px;line-height:1.25;font-family:FreeMono;-inkscape-font-specification:'FreeMono, Bold';letter-spacing:0px;word-spacing:0px;stroke-width:0.264583"
       aria-label="J" />
  </g>
</svg>
