<?xml version="1.0" encoding="UTF-8"?>
<svg xmlns="http://www.w3.org/2000/svg" width="16px" height="16px" viewBox="0 0 16 16">
  <g fill="#2e3436">
    <path d="m 1.00020324071,0.998247882696 l 14.0030343871,0 l 0,14.0030139243 l -14.0030343871,0 z" fill="#2e3436" stroke-width="2.0004324" stroke-linecap="round" stroke-linejoin="round" fill-opacity="0"/>
    <path d="M 0.99676312827,0 A 1.00032,1.00032 0 0,0 0,0.996769769253 l 0,14.0064597054 a 1.00032,1.00032 0 0,0 0.99676312827,0.996769769253 l 14.0064744995,0 a 1.00032,1.00032 0 0,0 0.99676312827,-0.996769769253 l 0,-14.0064597054 a 1.00032,1.00032 0 0,0 -0.99676312827,-0.996769769253 z m 1.00417260122,2.00092292307 l 12.00553877,0 l 0,11.9981533978 l -12.00553877,0 z" fill="#2e3436" stroke-linecap="round" stroke-linejoin="round"/>
    <path d="m 5.65093283043,9.69593009166 q 0.438746647958,0 0.746806826676,-0.102689190665 q 0.3175488405,-0.112022853297 0.448084096006,-0.233383149568 q 0.130799879539,-0.130693958904 0.261599759079,-0.233383149568 q 0.139872703554,-0.112022853297 0.261221724745,-0.112022853297 q 0.186748960961,0 0.326621664514,0.140031401877 q 0.139872703554,0.140031401877 0.139872703554,0.326734897259 q 0,0.40141894165 -0.644170505015,0.77483198096 q -0.634795253533,0.373414551446 -1.56831323774,0.373414551446 q -1.18559127807,0 -1.96974789694,-0.690813895901 q -0.774856974254,-0.700149448705 -0.774856974254,-1.76437676195 l 0,-0.616131363646 q 0,-1.12023911793 0.728169734014,-1.87640074935 q 0.728169734014,-0.756161253387 1.81104908355,-0.756161253387 q 0.653470149629,0 1.32561519535,0.317401234626 l 0.0933744804804,0.0373497718954 q 0.15877442025,-0.224049486936 0.392059407718,-0.224049486936 q 0.270672583093,0 0.364047063573,0.158698727143 q 0.102825338829,0.158702507484 0.102825338829,0.457431124367 l 0,0.784167533763 q 0,0.616131363646 -0.466758992102,0.616131363646 q -0.167847244264,0 -0.280123441441,-0.0933517476908 q -0.102825338829,-0.0933517476908 -0.130799879539,-0.168036170116 q -0.0189017166964,-0.0840180850582 -0.0468762574072,-0.233383149568 q -0.0559490814215,-0.280059023414 -0.345523381211,-0.448095571564 q -0.280123441441,-0.177369832749 -0.52278368039,-0.224049486936 q -0.242698042382,-0.0466758738454 -0.448084096006,-0.0466758738454 q -0.709494837918,0 -1.17625383002,0.485437026709 q -0.466758992102,0.476101473905 -0.466758992102,1.21359237775 l 0,0.597460636074 q 0,0.700149448705 0.494771336246,1.12023911793 q 0.504108784294,0.420089669223 1.34429009145,0.420089669223 z m 7.45891983588,-2.87528032707 q 0,0.252054255175 -0.0559490814215,0.485437026709 q -0.0559490814215,0.233383149568 -0.214723501672,0.485437026709 q -0.15877442025,0.242716812201 -0.401434659199,0.429424843992 q -0.233247184034,0.177369832749 -0.634795253533,0.29873012902 q -0.392097211151,0.112022853297 -0.905543443493,0.112022853297 l -0.914843088108,0 l 0,0.933532598273 l 0.924180536156,0 q 0.616120357437,0 0.616120357437,0.466766299136 q 0,0.466766299136 -0.616120357437,0.466766299136 l -1.99776024108,0 q -0.616120357437,0 -0.616120357437,-0.466766299136 q 0,-0.466766299136 0.616120357437,-0.466766299136 l 0.139872703554,0 l 0,-3.57542977578 l -0.139872703554,0 q -0.616120357437,0 -0.616120357437,-0.466766299136 q 0,-0.270725360781 0.15877442025,-0.364077108472 q 0.15877442025,-0.102689190665 0.457421544054,-0.102689190665 l 2.17513395056,0 q 0.886868547397,0 1.45630166459,0.494772201478 q 0.56947092063,0.494772201478 0.56947092063,1.26960418244 z m -3.12732683086,-0.830843785642 l 0,1.70836457923 l 1.10155424564,0 q 0.485433888198,0 0.756182078158,-0.224049486936 q 0.280123441441,-0.233383149568 0.280123441441,-0.62546691645 q 0,-0.40141894165 -0.280123441441,-0.625466538415 q -0.270672583093,-0.233383149568 -0.756182078158,-0.233383149568 z" stroke-width="1.00021431"/>
  </g>
</svg>
