<?xml version="1.0" encoding="UTF-8" standalone="no"?>
<svg
   xmlns:dc="http://purl.org/dc/elements/1.1/"
   xmlns:cc="http://creativecommons.org/ns#"
   xmlns:rdf="http://www.w3.org/1999/02/22-rdf-syntax-ns#"
   xmlns:svg="http://www.w3.org/2000/svg"
   xmlns="http://www.w3.org/2000/svg"
   width="16.000002"
   height="16.000002"
   viewBox="0 0 4.2333337 4.233334"
   version="1.1"
   id="svg4268">
  <defs
     id="defs4262" />
  <metadata
     id="metadata4265">
    <rdf:RDF>
      <cc:Work
         rdf:about="">
        <dc:format>image/svg+xml</dc:format>
        <dc:type
           rdf:resource="http://purl.org/dc/dcmitype/StillImage" />
        <dc:title />
      </cc:Work>
    </rdf:RDF>
  </metadata>
  <path
     style="color:#000000;font-style:normal;font-variant:normal;font-weight:normal;font-stretch:normal;font-size:medium;line-height:normal;font-family:sans-serif;font-variant-ligatures:normal;font-variant-position:normal;font-variant-caps:normal;font-variant-numeric:normal;font-variant-alternates:normal;font-variant-east-asian:normal;font-feature-settings:normal;font-variation-settings:normal;text-indent:0;text-align:start;text-decoration:none;text-decoration-line:none;text-decoration-style:solid;text-decoration-color:#000000;letter-spacing:normal;word-spacing:normal;text-transform:none;writing-mode:lr-tb;direction:ltr;text-orientation:mixed;dominant-baseline:auto;baseline-shift:baseline;text-anchor:start;white-space:normal;shape-padding:0;shape-margin:0;inline-size:0;clip-rule:nonzero;display:inline;overflow:visible;visibility:visible;isolation:auto;mix-blend-mode:normal;color-interpolation:sRGB;color-interpolation-filters:linearRGB;solid-color:#000000;solid-opacity:1;vector-effect:none;fill:#000000;fill-opacity:1;fill-rule:nonzero;stroke:none;stroke-linecap:round;stroke-linejoin:round;stroke-miterlimit:4;stroke-dasharray:none;stroke-dashoffset:0;stroke-opacity:1;color-rendering:auto;image-rendering:auto;shape-rendering:auto;text-rendering:auto;enable-background:accumulate;stop-color:#000000;stop-opacity:1;opacity:1"
     d="M 0.26367188 0 A 0.26460996 0.26460996 0 0 0 0 0.26367188 L 0 3.96875 A 0.26460996 0.26460996 0 0 0 0.26367188 4.2324219 L 3.96875 4.2324219 A 0.26460996 0.26460996 0 0 0 4.2324219 3.96875 L 4.2324219 0.26367188 A 0.26460996 0.26460996 0 0 0 3.96875 0 L 0.26367188 0 z M 0.52929688 0.52929688 L 3.7050781 0.52929688 L 3.7050781 3.7050781 L 0.52929688 3.7050781 L 0.52929688 0.52929688 z "
     id="rect1096" />
  <g
     aria-label="PR"
     id="text1100"
     style="font-style:normal;font-variant:normal;font-weight:bold;font-stretch:normal;font-size:2.46944px;line-height:1.25;font-family:FreeMono;-inkscape-font-specification:'FreeMono, Bold';font-variant-ligatures:normal;font-variant-caps:normal;font-variant-numeric:normal;font-variant-east-asian:normal;letter-spacing:0px;word-spacing:0px;display:inline;fill:#000000;fill-opacity:1;stroke:none;stroke-width:0.264583"
     transform="translate(-1.3229167,-20.637499)">
    <path
       d="m 3.2562248,22.442263 q 0,0.06668 -0.014817,0.128411 -0.014817,0.06174 -0.056797,0.128411 -0.041981,0.06421 -0.1061859,0.113594 -0.061736,0.04692 -0.167922,0.07902 -0.1037164,0.02963 -0.2395356,0.02963 H 2.4289624 v 0.246944 H 2.673437 q 0.162983,0 0.162983,0.123472 0,0.123472 -0.162983,0.123472 H 2.1449768 q -0.162983,0 -0.162983,-0.123472 0,-0.123472 0.162983,-0.123472 h 0.037042 v -0.945795 h -0.037042 q -0.162983,0 -0.162983,-0.123472 0,-0.07161 0.04198,-0.09631 0.041981,-0.02716 0.1210025,-0.02716 h 0.5753796 q 0.2345968,0 0.3852326,0.13088 0.1506358,0.13088 0.1506358,0.335844 z m -0.8272624,-0.21978 v 0.451907 h 0.291394 q 0.1284108,0 0.2000246,-0.05927 0.074083,-0.06174 0.074083,-0.165453 0,-0.106186 -0.074083,-0.165452 -0.071614,-0.06174 -0.2000246,-0.06174 z"
       style="font-style:normal;font-variant:normal;font-weight:bold;font-stretch:normal;font-size:2.46944px;font-family:FreeMono;-inkscape-font-specification:'FreeMono, Bold';font-variant-ligatures:normal;font-variant-caps:normal;font-variant-numeric:normal;font-variant-east-asian:normal"
       id="path1357" />
    <path
       d="m 4.7724572,23.168278 q 0.1629831,0 0.1629831,0.123472 0,0.123472 -0.1629831,0.123472 H 4.5773715 Q 4.4860022,23.237422 4.3427747,23.067031 4.2020166,22.89417 4.1229945,22.867006 H 3.8859283 v 0.301272 h 0.08643 q 0.162983,0 0.162983,0.123472 0,0.123472 -0.162983,0.123472 h -0.370416 q -0.162983,0 -0.162983,-0.123472 0,-0.123472 0.162983,-0.123472 h 0.037042 v -0.945795 h -0.037042 q -0.162983,0 -0.162983,-0.123472 0,-0.07161 0.04198,-0.09631 0.04198,-0.02716 0.1210026,-0.02716 H 4.152627 q 0.2395357,0 0.3901715,0.123472 0.1531053,0.121002 0.1531053,0.316088 0,0.227188 -0.2666995,0.372885 0.1605136,0.140758 0.3111494,0.380294 z M 3.8859283,22.620062 h 0.1876774 q 0.1555748,0 0.2568218,-0.05927 0.1037165,-0.06174 0.1037165,-0.153105 0,-0.07902 -0.076553,-0.130881 -0.076553,-0.05433 -0.1950857,-0.05433 h -0.276577 z"
       style="font-style:normal;font-variant:normal;font-weight:bold;font-stretch:normal;font-size:2.46944px;font-family:FreeMono;-inkscape-font-specification:'FreeMono, Bold';font-variant-ligatures:normal;font-variant-caps:normal;font-variant-numeric:normal;font-variant-east-asian:normal"
       id="path1359" />
  </g>
</svg>
