<?xml version="1.0" encoding="UTF-8" standalone="no"?>
<svg
   width="16.006334"
   height="7.9933977"
   viewBox="0 0 4.2350092 2.1149199"
   version="1.1"
   id="svg4268"
   xmlns="http://www.w3.org/2000/svg"
   xmlns:svg="http://www.w3.org/2000/svg"
   xmlns:rdf="http://www.w3.org/1999/02/22-rdf-syntax-ns#"
   xmlns:cc="http://creativecommons.org/ns#"
   xmlns:dc="http://purl.org/dc/elements/1.1/">
  <defs
     id="defs4262" />
  <metadata
     id="metadata4265">
    <rdf:RDF>
      <cc:Work
         rdf:about="">
        <dc:format>image/svg+xml</dc:format>
        <dc:type
           rdf:resource="http://purl.org/dc/dcmitype/StillImage" />
      </cc:Work>
    </rdf:RDF>
  </metadata>
  <g
     id="message"
     style="display:inline"
     transform="translate(-43.656248,8.8575217)">
    <g
       id="path1019">
      <path
         style="color:#000000;fill:#000000;fill-opacity:0;stroke-width:0.529167;stroke-linecap:round;stroke-linejoin:round;-inkscape-stroke:none"
         d="m 46.302083,-8.5937584 1.322916,0.79375 -1.322916,0.79375"
         id="path4058" />
      <path
         style="color:#000000;fill:#000000;stroke-linecap:round;stroke-linejoin:round;-inkscape-stroke:none"
         d="m 46.4375,-8.8203125 a 0.2645835,0.2645835 0 0 0 -0.361328,0.089844 0.2645835,0.2645835 0 0 0 0.08984,0.3632813 l 0.943359,0.5664063 -0.943359,0.5683593 a 0.2645835,0.2645835 0 0 0 -0.08984,0.3613282 0.2645835,0.2645835 0 0 0 0.361328,0.091797 l 1.324219,-0.7929687 a 0.26460996,0.26460996 0 0 0 0,-0.4550782 z"
         id="path4060" />
    </g>
    <path
       style="color:#000000;fill:#000000;stroke-linecap:round;stroke-linejoin:round;-inkscape-stroke:none"
       d="m 43.919922,-8.0644531 a 0.2645835,0.2645835 0 0 0 -0.263672,0.2636719 0.2645835,0.2645835 0 0 0 0.263672,0.265625 h 3.441406 A 0.2645835,0.2645835 0 0 0 47.625,-7.8007812 0.2645835,0.2645835 0 0 0 47.361328,-8.0644531 Z"
       id="path1021" />
    <path
       style="color:#000000;fill:#000000;stroke-width:0.529167;stroke-linecap:round;stroke-linejoin:round;-inkscape-stroke:none"
       d="m 44.714584,-7.8000083 a 0.52916664,0.52916664 0 0 1 -0.529167,0.5291666 0.52916664,0.52916664 0 0 1 -0.529166,-0.5291666 0.52916664,0.52916664 0 0 1 0.529166,-0.5291666 0.52916664,0.52916664 0 0 1 0.529167,0.5291666 z"
       id="path1025" />
  </g>
</svg>
