<?xml version="1.0" encoding="UTF-8"?>
<svg xmlns="http://www.w3.org/2000/svg" width="16px" height="16px" viewBox="0 0 16 16">
  <g fill="#2e3436">
    <path d="m 14.9374197839,0.00169531514484 a 1.00012,0.999993 0 0,0 -0.221446627782,0.0369220440593 l -6.99815943042,2.00027837974 a 1.00133,1.0012 0 1,0 0.546269031574,1.92646792583 l 5.270751007,-1.50574633559 l -1.50593155886,5.27010707275 a 1.00133,1.0012 0 1,0 1.92671038842,0.546201364826 l 2.00052593102,-6.99728477007 a 1.00012,0.999993 0 0,0 -1.01871874096,-1.27694568154 z" fill="#2e3436" stroke-width="1.9999131" stroke-linecap="round" stroke-linejoin="round"/>
    <path d="m 15.2531673737,9.47165504456 q 0.320018535147,0 0.4160089773,0.181314823939 q 0.10666024639,0.181314823939 0.10666024639,0.52261207117 l 0,0.938569319449 q 0,0.714592339606 -0.522676782886,0.714592339606 q -0.0853433155028,0 -0.159990369585,-0.0106571304245 q -0.0639885886387,-0.021314260849 -0.117318711834,-0.0426625338164 q -0.0426716577514,-0.0320091825161 -0.0853433155028,-0.0746603789597 q -0.0426716577514,-0.0533272224894 -0.0639885886387,-0.0853250676327 q -0.0211657469803,-0.0320091825161 -0.0426716577514,-0.0959897563058 q -0.0211657469803,-0.0639919111624 -0.032126580238,-0.0853250676327 q 0,-0.0320091825161 -0.0211657469803,-0.0959897563058 q -0.0105828734901,-0.0746603789597 -0.0105828734901,-0.0853250676327 q -0.0746470540824,-0.319967114061 -0.426675001939,-0.511947004585 q -0.341335466034,-0.202644201285 -0.84268397924,-0.202644201285 q -0.501344733608,0 -0.853353783477,0.234642046428 q -0.351993931478,0.234642046428 -0.351993931478,0.575940427397 q 0,0.362629647877 0.351993931478,0.565274604986 q 0.351993931478,0.191979512612 0.821351929962,0.255975202898 q 0.469342880093,0.0533272224894 1.04535734537,0.213312669082 q 0.576010685679,0.149316978795 0.906683906672,0.415956870366 q 0.629348368069,0.501281182174 0.629348368069,1.33319454499 q 0,0.831913740733 -0.672016246223,1.34386036741 q -0.672012466625,0.511947004585 -1.77070371479,0.511947004585 q -0.885351857394,0 -1.6640359092,-0.415956870366 q -0.21332049278,0.255975202898 -0.426675001939,0.255975202898 q -0.544012611762,0 -0.544012611762,-0.703926895109 l 0,-0.703926895109 q 0,-0.351964959204 0.11735650781,-0.52261207117 q 0.117318711834,-0.181314823939 0.4160089773,-0.181314823939 q 0.0960017809464,0 0.170686631006,0.021314260849 q 0.0853433155028,0.021314260849 0.138673438698,0.0639919111624 q 0.0533301231951,0.0426625338164 0.0853433155028,0.0853250676327 q 0.0426716577514,0.0320091825161 0.0639885886387,0.0959897563058 q 0.032126580238,0.0639919111624 0.0426716577514,0.0959897563058 q 0.0105828734901,0.0320091825161 0.0211657469803,0.0853250676327 q 0.0211657469803,0.0533272224894 0.0211657469803,0.0639919111624 q 0.0746848500591,0.287969268917 0.512010758247,0.490615737676 q 0.437341026578,0.202644201285 0.970683834103,0.202644201285 q 0.597346514554,0 1.00268946722,-0.234642046428 q 0.405342952661,-0.234642046428 0.405342952661,-0.575940049484 q 0,-0.319967114061 -0.320018535147,-0.511947004585 q -0.309360069703,-0.191979512612 -0.725350149015,-0.255971423774 q -0.405339173064,-0.0639919111624 -0.960017809464,-0.191979512612 q -0.544012611762,-0.127987601449 -0.874685832755,-0.309302425388 q -0.405342952661,-0.234642046428 -0.640014392708,-0.629268027799 q -0.234675219644,-0.394625603458 -0.234675219644,-0.853244629729 q 0,-0.810582473825 0.661346441986,-1.34386036741 q 0.661346441986,-0.543943338078 1.65336988456,-0.543943338078 q 0.821351929962,0 1.386696591,0.351964959204 q 0.0853433155028,-0.202644201285 0.170648835029,-0.277304580244 q 0.0853433155028,-0.0746603789597 0.245333685088,-0.0746603789597 z" stroke-width="0.99995466"/>
    <path d="m 1.00067494165,14.9987130901 l 13.00023991,-12.9986149746" fill="#2e3436" stroke-width="1.9999131" stroke-dasharray="1.9999131, 3.99981109" stroke-linecap="round" fill-opacity="0"/>
    <path d="M 13.2942056783,1.29397479338 L 13.0210730523,1.5670754758 a 1.00002,0.999894 0 0,0 0,1.4097905914 a 1.00002,0.999894 0 0,0 1.41734912815,0 l 0.273151523976,-0.273102194063 a 1.00002,0.999894 0 0,0 0,-1.40979021349 a 1.00002,0.999894 0 0,0 -1.41734912815,0 z m -3.10044932802,3.10006287282 l -1.41734912815,1.40979021349 a 1.00002,0.999894 0 0,0 0,1.41717197691 a 1.00002,0.999894 0 0,0 1.41734912815,0 l 1.41734912815,-1.41717197691 a 1.00002,0.999894 0 0,0 0,-1.40979021349 a 1.00002,0.999894 0 0,0 -1.41734912815,0 z m -4.24466583018,4.24413378941 l -1.40996757389,1.40979021349 a 1.00002,0.999894 0 0,0 0,1.417171599 a 1.00002,0.999894 0 0,0 1.40996757389,0 l 1.41734912815,-1.417171599 a 1.00002,0.999894 0 0,0 0,-1.40979021349 a 1.00002,0.999894 0 0,0 -1.41734912815,0 z m -3.53599126611,3.94888932837 a 1.00002,0.999894 0 0,0 -0.708674564073,0.287863453438 l -1.40996757389,1.417171599 a 1.00002,0.999894 0 0,0 0,1.417171599 a 1.00002,0.999894 0 0,0 1.40996757389,0 l 1.41734912815,-1.417171599 a 1.00002,0.999894 0 0,0 0,-1.417171599 a 1.00002,0.999894 0 0,0 -0.708674564073,-0.287863453438 z" fill="#2e3436" stroke-dasharray="1.9999131, 3.99981109" stroke-linecap="round"/>
  </g>
</svg>
