<?xml version="1.0" encoding="UTF-8"?>
<svg xmlns="http://www.w3.org/2000/svg" width="16px" height="16px" viewBox="0 0 16 16">
  <g fill="#2e3436">
    <path d="m 7.99857538229,4.57062935946 l -3.00063767095,0 l 0,6.85545584436 l 6.00127534189,0 l 0,-3.42772792218 l -3.00063767095,-3.42772792218 l 0,3.42772792218 l 3.00063767095,0" fill="#2e3436" stroke-width="1.49663922" stroke-linejoin="round" fill-opacity="0"/>
    <path d="m 4.99861817091,3.77016344756 a 0.700219,0.799884 0 0,0 -0.701440402953,0.801264815409 l 0,6.85714304222 a 0.700219,0.799884 0 0,0 0.701440402953,0.801264815409 l 6.00274967095,0 a 0.700219,0.799884 0 0,0 0.701440402953,-0.801264815409 L 11.7028082448,7.99578265312 a 0.700219,0.799884 0 0,0 -0.206784101544,-0.565102890406 l -3.00506065813,-3.42435395831 a 0.700219,0.799884 0 0,0 -0.494694104718,-0.118082258021 l 0,-0.118082258021 z m 0.701440402953,1.60253006266 l 1.59480820692,0 L 7.29486678078,7.99578265312 a 0.700219,0.799884 0 0,0 0.701440402953,0.801265247249 l 2.30362025517,0 L 10.2999274389,10.6273060579 l -4.59986886505,0 z m 2.99768901282,1.13020578081 l 0.605419997483,0.691618114835 l -0.605419997483,0 z" fill="#2e3436" stroke-linejoin="round"/>
    <path d="m 0.997100084521,1.14290143728 l 0,13.7109116887 l 14.0029505955,0 l 0,-13.7109116887 z" fill="#2e3436" stroke-width="2.13805545" stroke-linejoin="round" fill-opacity="0"/>
    <path d="m 0.996797658047,0 a 1.00031,1.14269 0 0,0 -0.996797658047,1.14707430467 l 0,13.7058509588 a 1.00031,1.14269 0 0,0 0.996797658047,1.14707430467 l 14.0063906967,0 a 1.00031,1.14269 0 0,0 0.996797658047,-1.14707430467 L 15.9999860128,1.14707430467 a 1.00031,1.14269 0 0,0 -0.996797658047,-1.14707430467 z m 1.00413150004,2.28571434741 l 11.9981276966,0 l 0,11.4285713052 l -11.9981276966,0 z" fill="#2e3436" stroke-linejoin="round"/>
  </g>
</svg>
