<?xml version="1.0" encoding="UTF-8"?>
<svg xmlns="http://www.w3.org/2000/svg" width="16px" height="16px" viewBox="0 0 16 16">
  <g fill="#2e3436">
    <path d="M 14.9987667601,7.99887231706 A 6.99828,6.99559 0 0,1 8.0004897063,14.9944664325 A 6.99828,6.99559 0 0,1 1.00220887391,7.99887231706 A 6.99828,6.99559 0 0,1 8.0004897063,1.00327820167 A 6.99828,6.99559 0 0,1 14.9987667601,7.99887231706 Z" fill="#2e3436" stroke-width="2.00553121" stroke-linecap="round" stroke-linejoin="round" fill-opacity="0"/>
    <path d="m 7.99999848856,0 c -4.40190037027,0 -7.99999848856,3.58567592729 -7.99999848856,7.9962873705 c 0,4.41061144321 3.59809811829,8.00371186922 7.99999848856,8.00371224936 c 4.40190037027,0 8.00000226716,-3.59310080614 8.00000226716,-8.00371224936 c 0,-4.41061144321 -3.59810189688,-7.9962873705 -8.00000226716,-7.9962873705 z m 0,2.01206462034 c 3.32817775129,0 6.00000170037,2.66772186973 6.00000170037,5.98422275017 c 0,3.31650088044 -2.67182394908,5.99164724888 -6.00000170037,5.99164724888 c -3.32817775129,0 -6.00000170037,-2.67514636844 -6.00000170037,-5.99164724888 c 0,-3.31650088044 2.67182394908,-5.98422275017 6.00000170037,-5.98422275017 z" fill="#2e3436" stroke-linecap="round" stroke-linejoin="round"/>
  </g>
</svg>
