<?xml version="1.0" encoding="UTF-8" standalone="no"?>
<svg
   width="12.003836"
   height="15.999452"
   viewBox="0 0 3.1760148 4.2331884"
   version="1.1"
   id="svg4268"
   xmlns="http://www.w3.org/2000/svg"
   xmlns:svg="http://www.w3.org/2000/svg"
   xmlns:rdf="http://www.w3.org/1999/02/22-rdf-syntax-ns#"
   xmlns:cc="http://creativecommons.org/ns#"
   xmlns:dc="http://purl.org/dc/elements/1.1/">
  <defs
     id="defs4262" />
  <metadata
     id="metadata4265">
    <rdf:RDF>
      <cc:Work
         rdf:about="">
        <dc:format>image/svg+xml</dc:format>
        <dc:type
           rdf:resource="http://purl.org/dc/dcmitype/StillImage" />
      </cc:Work>
    </rdf:RDF>
  </metadata>
  <g
     id="decision-node"
     style="display:inline"
     transform="translate(-1.8514457,-39.03125)">
    <g
       id="path1218">
      <path
         style="color:#000000;fill:#000000;fill-opacity:0;stroke-width:0.529167;stroke-linejoin:round;-inkscape-stroke:none"
         d="M 3.4395833,39.295824 2.1166666,41.147907 3.4395833,42.99999 4.7624999,41.147907 Z"
         id="path3870" />
      <path
         style="color:#000000;fill:#000000;stroke-linejoin:round;-inkscape-stroke:none"
         d="m 3.4394531,39.03125 a 0.26460996,0.26460996 0 0 0 -0.2148437,0.111328 l -1.3242188,1.851563 a 0.26460996,0.26460996 0 0 0 0,0.30664 l 1.3242188,1.853516 a 0.26460996,0.26460996 0 0 0 0.4296875,0 l 1.3242187,-1.853516 a 0.26460996,0.26460996 0 0 0 0,-0.30664 L 3.6542969,39.142578 A 0.26460996,0.26460996 0 0 0 3.4394531,39.03125 Z m 0,0.71875 L 4.4375,41.148437 3.4394531,42.544922 2.4414063,41.148437 Z"
         id="path3872" />
    </g>
  </g>
</svg>
