<?xml version="1.0" encoding="UTF-8" standalone="no"?>
<svg
   width="15.996548"
   height="15.996555"
   viewBox="0 0 4.2324198 4.2324221"
   version="1.1"
   id="svg4268"
   xmlns="http://www.w3.org/2000/svg"
   xmlns:svg="http://www.w3.org/2000/svg"
   xmlns:rdf="http://www.w3.org/1999/02/22-rdf-syntax-ns#"
   xmlns:cc="http://creativecommons.org/ns#"
   xmlns:dc="http://purl.org/dc/elements/1.1/">
  <defs
     id="defs4262" />
  <metadata
     id="metadata4265">
    <rdf:RDF>
      <cc:Work
         rdf:about="">
        <dc:format>image/svg+xml</dc:format>
        <dc:type
           rdf:resource="http://purl.org/dc/dcmitype/StillImage" />
        <dc:title />
      </cc:Work>
    </rdf:RDF>
  </metadata>
  <g
     id="control-structure"
     style="display:inline"
     transform="translate(-127,-44.714844)">
    <g
       id="rect618">
      <path
         style="color:#000000;fill:#000000;fill-opacity:0;stroke-width:0.529167;stroke-linecap:round;stroke-linejoin:round;-inkscape-stroke:none"
         d="m 127.26458,44.979168 h 3.70417 v 3.704167 h -3.70417 z"
         id="path2214" />
      <path
         style="color:#000000;fill:#000000;stroke-linecap:round;stroke-linejoin:round;-inkscape-stroke:none"
         d="M 127.26367,44.714844 A 0.26460996,0.26460996 0 0 0 127,44.978516 v 3.705078 a 0.26460996,0.26460996 0 0 0 0.26367,0.263672 h 3.70508 a 0.26460996,0.26460996 0 0 0 0.26367,-0.263672 v -3.705078 a 0.26460996,0.26460996 0 0 0 -0.26367,-0.263672 z m 0.26563,0.529297 h 3.17578 v 3.173828 h -3.17578 z"
         id="path2216" />
    </g>
    <g
       aria-label="CS"
       id="text622"
       style="font-weight:bold;font-size:2.46944px;line-height:1.25;font-family:FreeMono;-inkscape-font-specification:'FreeMono, Bold';letter-spacing:0px;word-spacing:0px;display:inline;stroke-width:0.264583">
      <path
         d="m 128.9276,47.435815 q -0.0844,0.04341 -0.17725,0.06511 -0.0928,0.0217 -0.19533,0.0217 -0.36415,0 -0.55587,-0.239951 -0.19172,-0.23995 -0.19172,-0.693324 0,-0.454579 0.19172,-0.69453 0.19172,-0.23995 0.55587,-0.23995 0.10249,0 0.19654,0.0217 0.094,0.0217 0.17604,0.06511 v 0.395496 q -0.0916,-0.0844 -0.17845,-0.122989 -0.0856,-0.03979 -0.17725,-0.03979 -0.19534,0 -0.29542,0.155546 -0.0989,0.15434 -0.0989,0.459402 0,0.303857 0.0989,0.459403 0.10008,0.15434 0.29542,0.15434 0.0916,0 0.17725,-0.03859 0.0868,-0.03979 0.17845,-0.124196 z"
         id="path1635" />
      <path
         d="m 129.72583,46.697877 q -0.26889,-0.102492 -0.36415,-0.21463 -0.0952,-0.113343 -0.0952,-0.303856 0,-0.244774 0.15675,-0.384645 0.15675,-0.13987 0.43046,-0.13987 0.1242,0 0.24839,0.02894 0.1242,0.02773 0.24598,0.0832 v 0.347265 q -0.11455,-0.08079 -0.23271,-0.122989 -0.11817,-0.0422 -0.23392,-0.0422 -0.12902,0 -0.19775,0.05185 -0.0687,0.05185 -0.0687,0.148311 0,0.07476 0.0494,0.124196 0.0506,0.04823 0.2098,0.107314 l 0.15314,0.05788 q 0.21704,0.07958 0.31953,0.211011 0.10249,0.13143 0.10249,0.33159 0,0.272507 -0.16158,0.407554 -0.16036,0.133842 -0.48593,0.133842 -0.13384,0 -0.26889,-0.03256 -0.13384,-0.03135 -0.25924,-0.09405 v -0.367763 q 0.14228,0.101285 0.27492,0.150722 0.13384,0.04944 0.26407,0.04944 0.13143,0 0.20377,-0.05908 0.0724,-0.06029 0.0724,-0.167604 0,-0.08079 -0.0482,-0.141076 -0.0482,-0.0615 -0.13987,-0.09646 z"
         id="path1637" />
    </g>
  </g>
</svg>
