<?xml version="1.0" encoding="UTF-8"?>
<svg xmlns="http://www.w3.org/2000/svg" width="16px" height="16px" viewBox="0 0 16 16">
  <g fill="#2e3436">
    <path d="m 14.9424547538,0.00167300041828 a 0.999422,0.99683 0 0,0 -0.221330139847,0.0368052557679 l -6.99329591101,1.9939516665 A 1.00063,0.998034 0 1,0 8.27371720877,3.95280385203 l 5.26710589148,-1.5009819954 l -1.50489387236,5.25343717225 a 1.00064,0.998042 0 1,0 1.92538336842,0.544473672717 l 1.99910972217,-6.97515162567 a 0.999422,0.99683 0 0,0 -1.01800533435,-1.27289149996 z" fill="#2e3436" stroke-width="1.99605205" stroke-linecap="round" stroke-linejoin="round"/>
    <path d="m 15.2587831134,14.9368172754 q 0.70352391056,0 0.70352391056,0.531591117436 q 0,0.531591079764 -0.70352391056,0.531591079764 L 14.4166861397,15.9999994726 q -0.394401999884,-0.765491192532 -1.0126495982,-1.49908688261 q -0.607589003527,-0.744227549341 -0.948694252501,-0.861177586889 l -1.02330819299,0 l 0,1.2970822723 l 0.37308858727,0 q 0.703527687525,0 0.703527687525,0.531591117436 q 0,0.531591079764 -0.703527687525,0.531591079764 l -1.59891763518,0 q -0.70352391056,0 -0.70352391056,-0.531591079764 q 0,-0.531591117436 0.70352391056,-0.531591117436 l 0.159878921838,0 L 10.3660839699,10.8648293784 l -0.159878921838,0 q -0.70352391056,0 -0.70352391056,-0.531591079764 q 0,-0.308324069429 0.181218773205,-0.414641155231 q 0.181218773205,-0.116948040948 0.522312691284,-0.116948040948 l 2.3770592632,0 q 1.03397056474,0 1.68419772439,0.531591079764 q 0.660885754438,0.520959371184 0.660885754438,1.36087339023 q 0,0.978127360736 -1.15122266135,1.60540502322 q 0.692865315771,0.606013830931 1.34309247542,1.63730056335 z M 11.432034096,12.5765529189 l 0.810121189346,0 q 0.671544349227,0 1.10858450523,-0.255165526529 q 0.44769497383,-0.265796481675 0.44769497383,-0.659172712877 q 0,-0.340216934868 -0.330446654184,-0.563486582222 q -0.330446654184,-0.233899849066 -0.842096973714,-0.233899849066 l -1.19386081748,0 z" stroke-width="0.99802414"/>
    <path d="m 13.9931259712,1.01760956786 a 0.999323,0.996731 0 0,0 -0.708180908212,0.286952911193 l -0.272961249261,0.272238343227 a 0.999323,0.996731 0 0,0 0,1.41268893684 a 0.999323,0.996731 0 0,0 1.41636181642,0 l 0.272961249261,-0.272238343227 a 0.999323,0.996731 0 0,0 0,-1.41268893684 a 0.999323,0.996731 0 0,0 -0.708180908212,-0.286952911193 z m -3.80647049316,3.37720958382 l -1.41636181642,1.41268893684 a 0.999323,0.996731 0 0,0 0,1.40533127614 a 0.999323,0.996731 0 0,0 1.41636181642,0 l 1.41636181642,-1.40533127614 a 0.999323,0.996731 0 0,0 0,-1.41268893684 a 0.999323,0.996731 0 0,0 -1.41636181642,0 z m -4.24170903693,4.23070914983 l -1.40898540408,1.41268893684 a 0.999323,0.996731 0 0,0 0,1.40533127614 a 0.999323,0.996731 0 0,0 1.40898540408,0 l 1.41636181642,-1.40533127614 a 0.999323,0.996731 0 0,0 0,-1.41268893684 a 0.999323,0.996731 0 0,0 -1.41636181642,0 z m -4.24170903693,4.23070914983 l -1.40898540408,1.40533101244 a 0.999323,0.996731 0 0,0 0,1.41268889917 a 0.999323,0.996731 0 0,0 1.40898540408,0 l 1.41636181642,-1.41268889917 a 0.999323,0.996731 0 0,0 0,-1.40533101244 a 0.999323,0.996731 0 0,0 -1.41636181642,0 z" fill="#2e3436" stroke-dasharray="1.99605205, 3.99208901" stroke-linecap="round"/>
  </g>
</svg>
