<?xml version="1.0" encoding="UTF-8"?>
<svg xmlns="http://www.w3.org/2000/svg" width="16px" height="16px" viewBox="0 0 16 16">
  <g fill="#2e3436">
    <path d="m 15.0005583543,7.99678384269 l -5.99923776614,-6.39685286828 l 0,12.7937117808 z" fill="#2e3436" stroke-width="2.52904138" stroke-linecap="round" stroke-linejoin="round" fill-opacity="0"/>
    <path d="M 8.53238615289,0.19279717666 A 0.999974,1.59937 0 0,0 8.00095761061,1.59761843582 L 8.00095761061,14.3944762604 A 0.999974,1.59937 0 0,0 9.55833706042,15.728465901 L 15.5516719545,9.33003668647 a 0.999974,1.59937 0 0,0 0,-2.66797928114 L 9.55833706042,0.263628190819 a 0.999974,1.59937 0 0,0 -1.02595090753,-0.0708328274403 z m 1.46880991562,4.40334668337 l 3.18857125366,3.39990318587 l -3.18857125366,3.39990318587 z" fill="#2e3436" stroke-linecap="round" stroke-linejoin="round"/>
    <path d="m 1.00381702684,6.40234227641 a 0.999874,1.59921 0 0,0 -1.00380946874,1.59370476948 a 0.999874,1.59921 0 0,0 1.00380946874,1.60550983777 l 0.996425210101,0 a 0.999874,1.59921 0 0,0 1.00380946874,-1.60550983777 a 0.999874,1.59921 0 0,0 -1.00380946874,-1.59370476948 z m 4.99690212588,0 a 0.999874,1.59921 0 0,0 -0.996428989148,1.59370476948 a 0.999874,1.59921 0 0,0 0.996428989148,1.60550983777 l 2.00023845789,0 a 0.999874,1.59921 0 0,0 1.00380946874,-1.60550983777 a 0.999874,1.59921 0 0,0 -1.00380946874,-1.59370476948 z" fill="#2e3436" stroke-dasharray="2.52904138, 5.05806364" stroke-linecap="round"/>
  </g>
</svg>
