<?xml version="1.0" encoding="UTF-8" standalone="no"?>
<svg
   width="16.020163"
   height="15.997707"
   viewBox="0 0 4.2386679 4.2327269"
   version="1.1"
   id="svg4268"
   xmlns="http://www.w3.org/2000/svg"
   xmlns:svg="http://www.w3.org/2000/svg"
   xmlns:rdf="http://www.w3.org/1999/02/22-rdf-syntax-ns#"
   xmlns:cc="http://creativecommons.org/ns#"
   xmlns:dc="http://purl.org/dc/elements/1.1/">
  <defs
     id="defs4262" />
  <metadata
     id="metadata4265">
    <rdf:RDF>
      <cc:Work
         rdf:about="">
        <dc:format>image/svg+xml</dc:format>
        <dc:type
           rdf:resource="http://purl.org/dc/dcmitype/StillImage" />
      </cc:Work>
    </rdf:RDF>
  </metadata>
  <g
     id="verify"
     style="display:inline"
     transform="translate(-77.787327,4.4766996)">
    <path
       style="color:#000000;fill:#000000;stroke-width:0.529167;stroke-linecap:round;stroke-linejoin:round;-inkscape-stroke:none"
       d="m 81.744661,-4.476251 a 0.26460979,0.26460979 0 0 0 -0.05859,0.00977 l -1.851565,0.5292925 a 0.26492936,0.26492936 0 1 0 0.144531,0.5097656 l 1.394531,-0.3984375 -0.398437,1.3945313 a 0.26492936,0.26492936 0 1 0 0.509765,0.1445312 l 0.529297,-1.8515625 A 0.26460979,0.26460979 0 0 0 81.744661,-4.476251 Z"
       id="path4594-6-2-6" />
    <path
       d="m 80.962008,-1.7482213 q 0,0.1411115 -0.186267,0.1411115 h -0.05362 l 0.406401,0.95673598 0.406401,-0.95673598 h -0.06773 q -0.09031,0 -0.138289,-0.028222 -0.04798,-0.031045 -0.04798,-0.1128892 0,-0.081845 0.04798,-0.110067 0.04798,-0.031045 0.138289,-0.031045 h 0.372535 q 0.186267,0 0.186267,0.1411115 0,0.1411115 -0.191912,0.1411115 l -0.578557,1.36313711 H 80.976125 L 80.406035,-1.60711 q -0.191912,0 -0.191912,-0.1411115 0,-0.081845 0.04798,-0.110067 0.04798,-0.031045 0.138289,-0.031045 h 0.375357 q 0.09031,0 0.138289,0.031045 0.04798,0.028222 0.04798,0.110067 z"
       id="text150-24"
       style="font-weight:bold;font-size:2.82223px;line-height:1.25;font-family:FreeMono;-inkscape-font-specification:'FreeMono Bold';letter-spacing:0px;word-spacing:0px;stroke-width:0.264583"
       aria-label="V" />
    <g
       id="path4598-1-2-0-8">
      <path
         style="color:#000000;fill:#000000;fill-opacity:0;stroke-width:0.529167;stroke-linecap:round;stroke-dasharray:0.529167, 1.05833;-inkscape-stroke:none"
         d="M 78.052084,-0.52916667 81.491667,-3.9687506"
         id="path2502" />
      <path
         style="color:#000000;fill:#000000;stroke-linecap:round;stroke-dasharray:0.529167, 1.05833;-inkscape-stroke:none"
         d="m 81.492187,-4.2324219 a 0.2645835,0.2645835 0 0 0 -0.1875,0.076172 l -0.07227,0.072266 a 0.2645835,0.2645835 0 0 0 0,0.375 0.2645835,0.2645835 0 0 0 0.375,0 l 0.07227,-0.072266 a 0.2645835,0.2645835 0 0 0 0,-0.375 0.2645835,0.2645835 0 0 0 -0.1875,-0.076172 z m -1.007812,0.8964844 -0.375,0.375 a 0.2645835,0.2645835 0 0 0 0,0.3730469 0.2645835,0.2645835 0 0 0 0.375,0 l 0.375,-0.3730469 a 0.2645835,0.2645835 0 0 0 0,-0.375 0.2645835,0.2645835 0 0 0 -0.375,0 z m -1.123047,1.1230469 -0.373047,0.375 a 0.2645835,0.2645835 0 0 0 0,0.3730469 0.2645835,0.2645835 0 0 0 0.373047,0 l 0.375,-0.3730469 a 0.2645835,0.2645835 0 0 0 0,-0.375 0.2645835,0.2645835 0 0 0 -0.375,0 z m -1.123047,1.1230469 -0.373047,0.37304683 a 0.2645835,0.2645835 0 0 0 0,0.37499999 0.2645835,0.2645835 0 0 0 0.373047,0 l 0.375,-0.37499999 a 0.2645835,0.2645835 0 0 0 0,-0.37304683 0.2645835,0.2645835 0 0 0 -0.375,0 z"
         id="path2504" />
    </g>
  </g>
</svg>
