<?xml version="1.0" encoding="UTF-8"?>
<svg xmlns="http://www.w3.org/2000/svg" width="16px" height="16px" viewBox="0 0 16 16">
  <g fill="#2e3436">
    <path d="m 13.0262002736,2.04516085033 a 1.00212,0.996587 0 0,0 -0.702764493154,0.294286445885 l -12.0283615792,11.9546212975 a 1.00212,0.996587 0 0,0 0,1.41248454124 a 1.00212,0.996587 0 0,0 1.42032307142,0 l 12.0209645367,-11.961977517 a 1.00212,0.996587 0 0,0 0,-1.40512832175 a 1.00212,0.996587 0 0,0 -0.71016153571,-0.294286445885 z" fill="#2e3436" stroke-linecap="round"/>
    <path d="M 8.59508771797,1.30949370174 L 7.24134181708,2.78082799891 L 13.4552552545,8.46019480846 L 14.8090011554,6.98885674466 Z" fill="#2e3436"/>
    <path d="m 15.0003205669,4.9801078625 a 4.00847,3.98635 0 0,1 -4.00846607239,3.98634400529 a 4.00847,3.98635 0 0,1 -4.00846985992,-3.98634400529 a 4.00847,3.98635 0 0,1 4.00846985992,-3.98634777192 a 4.00847,3.98635 0 0,1 4.00846607239,3.98634777192 z" fill="#2e3436" stroke-width="1.99869676" fill-opacity="0"/>
    <path d="m 10.9918810072,0 c -2.75539645833,0 -5.00811596275,2.24029088142 -5.00811596275,4.98048075842 c 0,2.740189877 2.25271950442,4.98047699179 5.00811596275,4.98047699179 c 2.75540024586,0 5.00811975028,-2.24028711479 5.00811975028,-4.98047699179 c 0,-2.740189877 -2.25271950442,-4.98048075842 -5.00811975028,-4.98048075842 z m 0,1.99366354727 c 1.67223157137,0 3.00339244166,1.3238181783 3.00339244166,2.98681721115 c 0,1.66299903285 -1.33116087029,2.98681721115 -3.00339244166,2.98681721115 c -1.67222778384,0 -3.00338865413,-1.3238181783 -3.00338865413,-2.98681721115 c 0,-1.66299903285 1.33116087029,-2.98681721115 3.00338865413,-2.98681721115 z" fill="#2e3436"/>
  </g>
</svg>
