<?xml version="1.0" encoding="UTF-8" standalone="no"?>
<svg
   width="16.003952"
   height="16.003952"
   viewBox="0 0 4.2343789 4.2343791"
   version="1.1"
   id="svg4268"
   xmlns="http://www.w3.org/2000/svg"
   xmlns:svg="http://www.w3.org/2000/svg"
   xmlns:rdf="http://www.w3.org/1999/02/22-rdf-syntax-ns#"
   xmlns:cc="http://creativecommons.org/ns#"
   xmlns:dc="http://purl.org/dc/elements/1.1/">
  <defs
     id="defs4262" />
  <metadata
     id="metadata4265">
    <rdf:RDF>
      <cc:Work
         rdf:about="">
        <dc:format>image/svg+xml</dc:format>
        <dc:type
           rdf:resource="http://purl.org/dc/dcmitype/StillImage" />
        <dc:title />
      </cc:Work>
    </rdf:RDF>
  </metadata>
  <g
     id="value-type"
     style="display:inline"
     transform="translate(-93.662107,-4.7617167)">
    <g
       id="rect1104">
      <path
         style="color:#000000;fill:#000000;fill-opacity:0;stroke-width:0.529167;stroke-linecap:round;stroke-linejoin:round;-inkscape-stroke:none"
         d="m 93.927086,5.0270834 h 3.704167 V 8.73125 h -3.704167 z"
         id="path3584" />
      <path
         style="color:#000000;fill:#000000;stroke-linecap:round;stroke-linejoin:round;-inkscape-stroke:none"
         d="m 93.927734,4.7617187 a 0.26460996,0.26460996 0 0 0 -0.265625,0.265625 v 3.7031251 a 0.26460996,0.26460996 0 0 0 0.265625,0.265625 h 3.703125 a 0.26460996,0.26460996 0 0 0 0.265625,-0.265625 V 5.0273437 a 0.26460996,0.26460996 0 0 0 -0.265625,-0.265625 z m 0.263672,0.5292969 h 3.175781 v 3.1757813 h -3.175781 z"
         id="path3586" />
    </g>
    <g
       aria-label="VT"
       id="text1108"
       style="font-weight:bold;font-size:2.46944px;line-height:1.25;font-family:FreeMono;-inkscape-font-specification:'FreeMono, Bold';letter-spacing:0px;word-spacing:0px;display:inline;stroke-width:0.264583">
      <path
         d="m 95.085237,7.2436009 0.317121,-1.5036092 h 0.358117 L 95.332422,7.5402231 H 94.839258 L 94.411205,5.7399917 h 0.358117 z"
         id="path1695" />
      <path
         d="M 96.750421,7.5402231 H 96.394716 V 6.0510833 H 95.937725 V 5.7399917 h 1.269687 v 0.3110916 h -0.456991 z"
         id="path1697" />
    </g>
  </g>
</svg>
