<?xml version="1.0" encoding="UTF-8" standalone="no"?>
<svg
   width="8.0019817"
   height="15.974412"
   viewBox="0 0 2.117191 4.2265633"
   version="1.1"
   id="svg4268"
   xmlns="http://www.w3.org/2000/svg"
   xmlns:svg="http://www.w3.org/2000/svg"
   xmlns:rdf="http://www.w3.org/1999/02/22-rdf-syntax-ns#"
   xmlns:cc="http://creativecommons.org/ns#"
   xmlns:dc="http://purl.org/dc/elements/1.1/">
  <defs
     id="defs4262" />
  <metadata
     id="metadata4265">
    <rdf:RDF>
      <cc:Work
         rdf:about="">
        <dc:format>image/svg+xml</dc:format>
        <dc:type
           rdf:resource="http://purl.org/dc/dcmitype/StillImage" />
      </cc:Work>
    </rdf:RDF>
  </metadata>
  <g
     id="execution-specification"
     style="display:inline"
     transform="translate(-60.589842,9.9140628)">
    <path
       style="color:#000000;fill:#000000;stroke-linecap:round;-inkscape-stroke:none"
       d="m 61.648437,-6.8515625 a 0.1852085,0.1852085 0 0 0 -0.185546,0.1855469 v 0.7929687 a 0.1852085,0.1852085 0 0 0 0.185546,0.1855469 0.1852085,0.1852085 0 0 0 0.185547,-0.1855469 v -0.7929687 a 0.1852085,0.1852085 0 0 0 -0.185547,-0.1855469 z"
       id="path1267-3" />
    <path
       style="color:#000000;fill:#000000;stroke-linecap:round;-inkscape-stroke:none"
       d="m 61.648437,-9.9140625 a 0.1852085,0.1852085 0 0 0 -0.185546,0.1855469 v 0.7929687 A 0.1852085,0.1852085 0 0 0 61.648437,-8.75 0.1852085,0.1852085 0 0 0 61.833984,-8.9355469 v -0.7929687 a 0.1852085,0.1852085 0 0 0 -0.185547,-0.1855469 z"
       id="path1267-6" />
    <g
       id="rect1263-5">
      <path
         style="color:#000000;fill:#000000;fill-opacity:0;stroke-width:0.529167;stroke-linecap:round;stroke-linejoin:round;-inkscape-stroke:none"
         d="m 60.854168,-8.8583422 h 1.587499 v 2.1166671 h -1.587499 z"
         id="path3776" />
      <path
         style="color:#000000;fill:#000000;stroke-linecap:round;stroke-linejoin:round;-inkscape-stroke:none"
         d="m 60.853516,-9.1230469 a 0.26460996,0.26460996 0 0 0 -0.263672,0.265625 v 2.1152344 a 0.26460996,0.26460996 0 0 0 0.263672,0.265625 h 1.58789 a 0.26460996,0.26460996 0 0 0 0.265625,-0.265625 v -2.1152344 a 0.26460996,0.26460996 0 0 0 -0.265625,-0.265625 z m 0.265625,0.5292969 h 1.058593 v 1.5878906 h -1.058593 z"
         id="path3778" />
    </g>
  </g>
</svg>
