<?xml version="1.0" encoding="UTF-8" standalone="no"?>
<svg
   width="15.767114"
   height="15.355113"
   viewBox="0 0 4.1717154 4.0627071"
   version="1.1"
   id="svg4268"
   xmlns="http://www.w3.org/2000/svg"
   xmlns:svg="http://www.w3.org/2000/svg"
   xmlns:rdf="http://www.w3.org/1999/02/22-rdf-syntax-ns#"
   xmlns:cc="http://creativecommons.org/ns#"
   xmlns:dc="http://purl.org/dc/elements/1.1/">
  <defs
     id="defs4262" />
  <metadata
     id="metadata4265">
    <rdf:RDF>
      <cc:Work
         rdf:about="">
        <dc:format>image/svg+xml</dc:format>
        <dc:type
           rdf:resource="http://purl.org/dc/dcmitype/StillImage" />
      </cc:Work>
    </rdf:RDF>
  </metadata>
  <g
     id="transfer-out"
     style="display:inline"
     transform="translate(-77.779562,-49.830863)">
    <path
       style="color:#000000;fill:#000000;stroke-width:0.0407067;stroke-miterlimit:10;-inkscape-stroke:none"
       d="m 79.847502,49.976599 c -0.652885,1.305665 -1.305769,2.611315 -1.958637,3.916971 1.354132,0 2.708281,0 4.062413,0 -0.676987,-1.354249 -1.354265,-2.708351 -2.031058,-4.062707 -0.02429,0.04867 -0.04858,0.0971 -0.07264,0.145736 z m 1.379582,3.469234 c -0.871249,0 -1.74248,0 -2.613713,0 0.435616,-0.871232 0.871233,-1.742481 1.306849,-2.613719 0.435615,0.871238 0.871238,1.742487 1.306864,2.613719 z"
       id="path1326" />
    <path
       style="color:#000000;fill:#000000;stroke-width:0.162487;-inkscape-stroke:none"
       d="m 78.210849,51.593619 c 0.356251,0.0088 0.712679,-0.0014 1.069009,0.0033 0,0.162761 0,0.325521 0,0.488281 -0.492192,0 -0.984396,0 -1.476588,0 -0.02492,-0.160843 -0.07665,-0.397746 0.14293,-0.47942 0.08438,-0.03046 0.176451,-0.01291 0.264649,-0.01203 z"
       id="line1206-3" />
  </g>
</svg>
