<?xml version="1.0" encoding="UTF-8" standalone="no"?>
<svg
   xmlns:dc="http://purl.org/dc/elements/1.1/"
   xmlns:cc="http://creativecommons.org/ns#"
   xmlns:rdf="http://www.w3.org/1999/02/22-rdf-syntax-ns#"
   xmlns:svg="http://www.w3.org/2000/svg"
   xmlns="http://www.w3.org/2000/svg"
   width="16.000013"
   height="16.000002"
   viewBox="0 0 4.2333368 4.233334"
   version="1.1"
   id="svg4268">
  <defs
     id="defs4262" />
  <metadata
     id="metadata4265">
    <rdf:RDF>
      <cc:Work
         rdf:about="">
        <dc:format>image/svg+xml</dc:format>
        <dc:type
           rdf:resource="http://purl.org/dc/dcmitype/StillImage" />
        <dc:title />
      </cc:Work>
    </rdf:RDF>
  </metadata>
  <path
     style="color:#000000;font-style:normal;font-variant:normal;font-weight:normal;font-stretch:normal;font-size:medium;line-height:normal;font-family:sans-serif;font-variant-ligatures:normal;font-variant-position:normal;font-variant-caps:normal;font-variant-numeric:normal;font-variant-alternates:normal;font-variant-east-asian:normal;font-feature-settings:normal;font-variation-settings:normal;text-indent:0;text-align:start;text-decoration:none;text-decoration-line:none;text-decoration-style:solid;text-decoration-color:#000000;letter-spacing:normal;word-spacing:normal;text-transform:none;writing-mode:lr-tb;direction:ltr;text-orientation:mixed;dominant-baseline:auto;baseline-shift:baseline;text-anchor:start;white-space:normal;shape-padding:0;shape-margin:0;inline-size:0;clip-rule:nonzero;display:inline;overflow:visible;visibility:visible;isolation:auto;mix-blend-mode:normal;color-interpolation:sRGB;color-interpolation-filters:linearRGB;solid-color:#000000;solid-opacity:1;vector-effect:none;fill:#000000;fill-opacity:1;fill-rule:nonzero;stroke:none;stroke-linecap:round;stroke-linejoin:round;stroke-miterlimit:4;stroke-dasharray:none;stroke-dashoffset:0;stroke-opacity:1;color-rendering:auto;image-rendering:auto;shape-rendering:auto;text-rendering:auto;enable-background:accumulate;stop-color:#000000;stop-opacity:1;opacity:1"
     d="M 0.26367188 0 A 0.26460996 0.26460996 0 0 0 0 0.26367188 L 0 3.96875 A 0.26460996 0.26460996 0 0 0 0.26367188 4.2324219 L 3.96875 4.2324219 A 0.26460996 0.26460996 0 0 0 4.2324219 3.96875 L 4.2324219 0.26367188 A 0.26460996 0.26460996 0 0 0 3.96875 0 L 0.26367188 0 z M 0.52929688 0.52929688 L 3.7050781 0.52929688 L 3.7050781 3.7050781 L 0.52929688 3.7050781 L 0.52929688 0.52929688 z "
     id="rect707" />
  <g
     aria-label="O"
     id="text687-0"
     style="font-style:normal;font-variant:normal;font-weight:bold;font-stretch:normal;font-size:2.82223px;line-height:1.25;font-family:sans-serif;-inkscape-font-specification:'sans-serif Bold';letter-spacing:0px;word-spacing:0px;display:inline;fill:#000000;fill-opacity:1;stroke:none;stroke-width:0.264583"
     transform="translate(-119.0625,-39.158333)">
    <path
       d="m 121.17653,39.980393 q 0.0931,0 0.22013,0.02963 0.127,0.0254 0.30057,0.1143 0.1778,0.0889 0.3175,0.224366 0.14393,0.135467 0.2413,0.385233 0.1016,0.245533 0.1016,0.5588 0,0.520699 -0.35137,0.897466 -0.34713,0.376766 -0.82973,0.376766 -0.49107,0 -0.8382,-0.376766 -0.3429,-0.381 -0.3429,-0.918633 0,-0.533399 0.34714,-0.910166 0.34713,-0.380999 0.83396,-0.380999 z m 0,0.423333 q -0.30903,0 -0.5334,0.258233 -0.22436,0.253999 -0.22436,0.609599 0,0.359833 0.22013,0.618066 0.22436,0.254 0.53763,0.254 0.30903,0 0.5334,-0.254 0.22437,-0.254 0.22437,-0.605366 0,-0.364066 -0.22437,-0.622299 -0.22013,-0.258233 -0.5334,-0.258233 z"
       style="font-style:normal;font-variant:normal;font-weight:bold;font-stretch:normal;font-size:4.23333px;font-family:FreeMono;-inkscape-font-specification:'FreeMono Bold';stroke-width:0.264583"
       id="path1401" />
  </g>
</svg>
