<?xml version="1.0" encoding="UTF-8" standalone="no"?>
<svg
   xmlns:dc="http://purl.org/dc/elements/1.1/"
   xmlns:cc="http://creativecommons.org/ns#"
   xmlns:rdf="http://www.w3.org/1999/02/22-rdf-syntax-ns#"
   xmlns:svg="http://www.w3.org/2000/svg"
   xmlns="http://www.w3.org/2000/svg"
   width="16.000002"
   height="16.000002"
   viewBox="0 0 4.2333337 4.233334"
   version="1.1"
   id="svg4268">
  <defs
     id="defs4262" />
  <metadata
     id="metadata4265">
    <rdf:RDF>
      <cc:Work
         rdf:about="">
        <dc:format>image/svg+xml</dc:format>
        <dc:type
           rdf:resource="http://purl.org/dc/dcmitype/StillImage" />
        <dc:title />
      </cc:Work>
    </rdf:RDF>
  </metadata>
  <path
     style="color:#000000;font-style:normal;font-variant:normal;font-weight:normal;font-stretch:normal;font-size:medium;line-height:normal;font-family:sans-serif;font-variant-ligatures:normal;font-variant-position:normal;font-variant-caps:normal;font-variant-numeric:normal;font-variant-alternates:normal;font-variant-east-asian:normal;font-feature-settings:normal;font-variation-settings:normal;text-indent:0;text-align:start;text-decoration:none;text-decoration-line:none;text-decoration-style:solid;text-decoration-color:#000000;letter-spacing:normal;word-spacing:normal;text-transform:none;writing-mode:lr-tb;direction:ltr;text-orientation:mixed;dominant-baseline:auto;baseline-shift:baseline;text-anchor:start;white-space:normal;shape-padding:0;shape-margin:0;inline-size:0;clip-rule:nonzero;display:inline;overflow:visible;visibility:visible;isolation:auto;mix-blend-mode:normal;color-interpolation:sRGB;color-interpolation-filters:linearRGB;solid-color:#000000;solid-opacity:1;vector-effect:none;fill:#000000;fill-opacity:1;fill-rule:nonzero;stroke:none;stroke-linecap:square;stroke-linejoin:round;stroke-miterlimit:4;stroke-dasharray:none;stroke-dashoffset:0;stroke-opacity:1;color-rendering:auto;image-rendering:auto;shape-rendering:auto;text-rendering:auto;enable-background:accumulate;stop-color:#000000;stop-opacity:1;opacity:1"
     d="M 0.26367188 0 A 0.26460996 0.26460996 0 0 0 0 0.26367188 L 0 3.96875 A 0.26460996 0.26460996 0 0 0 0.26367188 4.2324219 L 3.96875 4.2324219 A 0.26460996 0.26460996 0 0 0 4.2324219 3.96875 L 4.2324219 0.26367188 A 0.26460996 0.26460996 0 0 0 3.96875 0 L 0.26367188 0 z M 0.52929688 0.52929688 L 3.7050781 0.52929688 L 3.7050781 3.7050781 L 0.52929688 3.7050781 L 0.52929688 0.52929688 z "
     id="rect4893-7-3" />
  <g
     aria-label="P"
     id="text84-8-6"
     style="font-style:normal;font-variant:normal;font-weight:bold;font-stretch:normal;font-size:4.23333px;line-height:1.25;font-family:FreeMono;-inkscape-font-specification:'FreeMono, Bold';font-variant-ligatures:normal;font-variant-caps:normal;font-variant-numeric:normal;font-variant-east-asian:normal;letter-spacing:0px;word-spacing:0px;display:inline;fill:#000000;fill-opacity:1;stroke:none;stroke-width:0.264583"
     transform="translate(-77.787495,-19.05)">
    <path
       d="m 80.922255,20.730057 q 0,0.1143 -0.0254,0.220133 -0.0254,0.105834 -0.09737,0.220134 -0.07197,0.110066 -0.182033,0.194733 -0.105833,0.08043 -0.287867,0.135466 -0.177799,0.0508 -0.410633,0.0508 h -0.414866 v 0.423333 h 0.4191 q 0.2794,0 0.2794,0.211667 0,0.211666 -0.2794,0.211666 h -0.905933 q -0.2794,0 -0.2794,-0.211666 0,-0.211667 0.2794,-0.211667 h 0.0635 v -1.621365 h -0.0635 q -0.2794,0 -0.2794,-0.211666 0,-0.122767 0.07197,-0.1651 0.07197,-0.04657 0.207433,-0.04657 h 0.986366 q 0.402166,0 0.6604,0.224366 0.258233,0.224367 0.258233,0.575733 z m -1.418166,-0.376766 v 0.774699 h 0.499533 q 0.220133,0 0.3429,-0.1016 0.127,-0.105833 0.127,-0.283633 0,-0.182033 -0.127,-0.283633 -0.122767,-0.105833 -0.3429,-0.105833 z"
       style="stroke-width:0.264583"
       id="path1114" />
  </g>
</svg>
