<?xml version="1.0" encoding="UTF-8" standalone="no"?>
<svg
   width="15.996548"
   height="15.996555"
   viewBox="0 0 4.2324198 4.2324221"
   version="1.1"
   id="svg4268"
   xmlns="http://www.w3.org/2000/svg"
   xmlns:svg="http://www.w3.org/2000/svg"
   xmlns:rdf="http://www.w3.org/1999/02/22-rdf-syntax-ns#"
   xmlns:cc="http://creativecommons.org/ns#"
   xmlns:dc="http://purl.org/dc/elements/1.1/">
  <defs
     id="defs4262" />
  <metadata
     id="metadata4265">
    <rdf:RDF>
      <cc:Work
         rdf:about="">
        <dc:format>image/svg+xml</dc:format>
        <dc:type
           rdf:resource="http://purl.org/dc/dcmitype/StillImage" />
      </cc:Work>
    </rdf:RDF>
  </metadata>
  <g
     id="control-action"
     style="display:inline"
     transform="translate(-119.0625,-44.714844)">
    <g
       id="rect610">
      <path
         style="color:#000000;fill:#000000;fill-opacity:0;stroke-width:0.529167;stroke-linecap:round;stroke-linejoin:round;-inkscape-stroke:none"
         d="m 119.32708,44.979168 h 3.70417 v 3.704167 h -3.70417 z"
         id="path2186" />
      <path
         style="color:#000000;fill:#000000;stroke-linecap:round;stroke-linejoin:round;-inkscape-stroke:none"
         d="m 119.32617,44.714844 a 0.26460996,0.26460996 0 0 0 -0.26367,0.263672 v 3.705078 a 0.26460996,0.26460996 0 0 0 0.26367,0.263672 h 3.70508 a 0.26460996,0.26460996 0 0 0 0.26367,-0.263672 v -3.705078 a 0.26460996,0.26460996 0 0 0 -0.26367,-0.263672 z m 0.26563,0.529297 h 3.17578 v 3.173828 h -3.17578 z"
         id="path2188" />
    </g>
    <path
       d="m 120.50157,47.275291 q 0.11606,0 0.19755,-0.02716 0.084,-0.02963 0.11854,-0.06174 0.0346,-0.03457 0.0691,-0.06174 0.037,-0.02963 0.0692,-0.02963 0.0494,0 0.0864,0.03704 0.037,0.03704 0.037,0.08643 0,0.106186 -0.17039,0.204964 -0.16793,0.09878 -0.41487,0.09878 -0.31362,0 -0.52105,-0.182738 -0.20497,-0.185208 -0.20497,-0.466724 V 46.70979 q 0,-0.296333 0.19262,-0.496358 0.19262,-0.200024 0.47907,-0.200024 0.17286,0 0.35066,0.08396 l 0.0247,0.0099 q 0.042,-0.05927 0.10371,-0.05927 0.0716,0 0.0963,0.04198 0.0272,0.04198 0.0272,0.121003 v 0.207433 q 0,0.162983 -0.12348,0.162983 -0.0444,0 -0.0741,-0.0247 -0.0272,-0.02469 -0.0346,-0.04445 -0.005,-0.02222 -0.0123,-0.06174 -0.0148,-0.07408 -0.0914,-0.118533 -0.0741,-0.04692 -0.13829,-0.05927 -0.0642,-0.01235 -0.11853,-0.01235 -0.18768,0 -0.31115,0.12841 -0.12347,0.125942 -0.12347,0.321028 v 0.158044 q 0,0.185208 0.13088,0.296333 0.13335,0.111124 0.3556,0.111124 z m 1.53105,0.0889 q 0,-0.07161 0.042,-0.09631 0.042,-0.02716 0.12101,-0.02716 h 0.0568 l -0.0568,-0.143227 h -0.58773 l -0.0568,0.143227 h 0.0568 q 0.16298,0 0.16298,0.123472 0,0.123472 -0.16298,0.123472 h -0.32844 q -0.16298,0 -0.16298,-0.123472 0,-0.07408 0.0444,-0.09878 0.042,-0.0247 0.121,-0.0247 l 0.38277,-0.945795 h -0.15558 q -0.16545,0 -0.16545,-0.123472 0,-0.07408 0.042,-0.09878 0.0444,-0.02469 0.12347,-0.02469 h 0.5334 l 0.49142,1.192739 q 0.16792,0 0.16792,0.123472 0,0.123472 -0.16298,0.123472 h -0.34325 q -0.16299,0 -0.16299,-0.123472 z m 0.0617,-0.513643 -0.19262,-0.474133 -0.19508,0.474133 z"
       id="text614"
       style="font-weight:bold;font-size:2.46944px;line-height:1.25;font-family:FreeMono;-inkscape-font-specification:'FreeMono, Bold';letter-spacing:0px;word-spacing:0px;stroke-width:0.264583"
       aria-label="CA" />
  </g>
</svg>
