<?xml version="1.0" encoding="UTF-8" standalone="no"?>
<svg
   width="16.073774"
   height="15.96739"
   viewBox="0 0 4.2528527 4.2247054"
   version="1.1"
   id="svg4268"
   xmlns="http://www.w3.org/2000/svg"
   xmlns:svg="http://www.w3.org/2000/svg"
   xmlns:rdf="http://www.w3.org/1999/02/22-rdf-syntax-ns#"
   xmlns:cc="http://creativecommons.org/ns#"
   xmlns:dc="http://purl.org/dc/elements/1.1/">
  <defs
     id="defs4262" />
  <metadata
     id="metadata4265">
    <rdf:RDF>
      <cc:Work
         rdf:about="">
        <dc:format>image/svg+xml</dc:format>
        <dc:type
           rdf:resource="http://purl.org/dc/dcmitype/StillImage" />
        <dc:title />
      </cc:Work>
    </rdf:RDF>
  </metadata>
  <g
     id="derive"
     style="display:inline"
     transform="translate(-85.724827,9.7805867)">
    <path
       style="color:#000000;fill:#000000;stroke-width:0.529167;stroke-linecap:round;stroke-linejoin:round;-inkscape-stroke:none"
       d="m 89.681029,-9.7801425 a 0.26460979,0.26460979 0 0 0 -0.05859,0.00977 l -1.851563,0.5292968 a 0.26492937,0.26492937 0 1 0 0.144531,0.5097657 l 1.394531,-0.3984375 -0.398437,1.3945313 a 0.26492954,0.26492954 0 1 0 0.509766,0.1445312 l 0.529296,-1.8515625 a 0.26460979,0.26460979 0 0 0 -0.269531,-0.3378907 z"
       id="path4594-6-2-4" />
    <g
       aria-label="D"
       id="text150-0"
       style="font-weight:bold;font-size:2.82223px;line-height:1.25;-inkscape-font-specification:'sans-serif Bold';letter-spacing:0px;word-spacing:0px;stroke-width:0.264583">
      <path
         d="m 89.000649,-7.24845 v 1.3242984 h 0.110243 q 0.239779,0 0.341754,-0.1502066 0.101976,-0.1515846 0.101976,-0.5140096 0,-0.359669 -0.101976,-0.5098756 Q 89.350671,-7.24845 89.110892,-7.24845 Z m -0.406523,-0.3665592 h 0.435462 q 0.504363,0 0.726228,0.2411574 0.221864,0.2397793 0.221864,0.785484 0,0.5470827 -0.221864,0.7896181 -0.221865,0.2411573 -0.726228,0.2411573 h -0.435462 z"
         style="font-family:FreeMono;-inkscape-font-specification:'FreeMono Bold'"
         id="path1668" />
    </g>
    <g
       id="path4598-1-2-1">
      <path
         style="color:#000000;fill:#000000;fill-opacity:0;stroke-width:0.529167;stroke-linecap:round;stroke-dasharray:0.529167, 1.05833;-inkscape-stroke:none"
         d="m 85.989584,-5.8208333 3.439583,-3.4395839"
         id="path2542" />
      <path
         style="color:#000000;fill:#000000;stroke-linecap:round;stroke-dasharray:0.529167, 1.05833;-inkscape-stroke:none"
         d="M 89.242187,-9.4472656 89.169922,-9.375 a 0.2645835,0.2645835 0 0 0 0,0.3730469 0.2645835,0.2645835 0 0 0 0.375,0 l 0.07227,-0.072266 a 0.2645835,0.2645835 0 0 0 0,-0.3730468 0.2645835,0.2645835 0 0 0 -0.375,0 z m -0.820312,0.8203125 -0.375,0.3730468 a 0.2645835,0.2645835 0 0 0 0,0.3750001 0.2645835,0.2645835 0 0 0 0.375,0 l 0.375,-0.3750001 a 0.2645835,0.2645835 0 0 0 0,-0.3730468 0.2645835,0.2645835 0 0 0 -0.375,0 z m -1.123047,1.1230469 -0.373047,0.3730468 a 0.2645835,0.2645835 0 0 0 0,0.375 0.2645835,0.2645835 0 0 0 0.373047,0 l 0.375,-0.375 a 0.2645835,0.2645835 0 0 0 0,-0.3730468 0.2645835,0.2645835 0 0 0 -0.375,0 z m -1.123047,1.1210937 -0.373047,0.375 a 0.2645835,0.2645835 0 0 0 0,0.375 0.2645835,0.2645835 0 0 0 0.373047,0 l 0.375,-0.375 a 0.2645835,0.2645835 0 0 0 0,-0.375 0.2645835,0.2645835 0 0 0 -0.375,0 z"
         id="path2544" />
    </g>
  </g>
</svg>
