<?xml version="1.0" encoding="UTF-8" standalone="no"?>
<svg
   width="15.967037"
   height="10.00246"
   viewBox="0 0 4.2246118 2.6464844"
   version="1.1"
   id="svg4268"
   xmlns="http://www.w3.org/2000/svg"
   xmlns:svg="http://www.w3.org/2000/svg"
   xmlns:rdf="http://www.w3.org/1999/02/22-rdf-syntax-ns#"
   xmlns:cc="http://creativecommons.org/ns#"
   xmlns:dc="http://purl.org/dc/elements/1.1/">
  <defs
     id="defs4262" />
  <metadata
     id="metadata4265">
    <rdf:RDF>
      <cc:Work
         rdf:about="">
        <dc:format>image/svg+xml</dc:format>
        <dc:type
           rdf:resource="http://purl.org/dc/dcmitype/StillImage" />
      </cc:Work>
    </rdf:RDF>
  </metadata>
  <g
     id="interface"
     style="display:inline"
     transform="translate(-17.207031,-5.4199219)">
    <g
       id="path3783">
      <path
         style="color:#000000;fill:#000000;fill-opacity:0;stroke-width:0.529167;-inkscape-stroke:none"
         d="M 19.588614,6.7438068 A 1.0583333,1.0583333 0 0 1 18.530281,7.8021401 1.0583333,1.0583333 0 0 1 17.471948,6.7438068 1.0583333,1.0583333 0 0 1 18.530281,5.6854736 1.0583333,1.0583333 0 0 1 19.588614,6.7438068 Z"
         id="path3762" />
      <path
         style="color:#000000;fill:#000000;-inkscape-stroke:none"
         d="m 18.53125,5.4199219 c -0.727492,0 -1.324219,0.5967266 -1.324219,1.3242187 0,0.7274922 0.596727,1.3222657 1.324219,1.3222657 0.727492,0 1.322266,-0.5947735 1.322266,-1.3222657 0,-0.7274921 -0.594774,-1.3242187 -1.322266,-1.3242187 z m 0,0.5292968 c 0.441509,0 0.792969,0.3534126 0.792969,0.7949219 0,0.4415094 -0.35146,0.7929688 -0.792969,0.7929688 -0.441509,0 -0.794922,-0.3514594 -0.794922,-0.7929688 0,-0.4415093 0.353413,-0.7949219 0.794922,-0.7949219 z"
         id="path3764" />
    </g>
    <path
       style="color:#000000;fill:#000000;stroke-linecap:round;-inkscape-stroke:none"
       d="m 19.84375,6.4882812 a 0.2645835,0.2645835 0 0 0 -0.263672,0.2636719 0.2645835,0.2645835 0 0 0 0.263672,0.265625 h 1.322266 a 0.2645835,0.2645835 0 0 0 0.265625,-0.265625 0.2645835,0.2645835 0 0 0 -0.265625,-0.2636719 z"
       id="path4590" />
  </g>
</svg>
