<?xml version="1.0" encoding="UTF-8" standalone="no"?>
<svg
   width="16.003952"
   height="16.003952"
   viewBox="0 0 4.2343789 4.2343791"
   version="1.1"
   id="svg4268"
   xmlns="http://www.w3.org/2000/svg"
   xmlns:svg="http://www.w3.org/2000/svg"
   xmlns:rdf="http://www.w3.org/1999/02/22-rdf-syntax-ns#"
   xmlns:cc="http://creativecommons.org/ns#"
   xmlns:dc="http://purl.org/dc/elements/1.1/">
  <defs
     id="defs4262" />
  <metadata
     id="metadata4265">
    <rdf:RDF>
      <cc:Work
         rdf:about="">
        <dc:format>image/svg+xml</dc:format>
        <dc:type
           rdf:resource="http://purl.org/dc/dcmitype/StillImage" />
      </cc:Work>
    </rdf:RDF>
  </metadata>
  <g
     id="intermediate-event"
     style="display:inline"
     transform="translate(-69.849607,-55.033201)">
    <g
       id="rect544-6">
      <path
         style="color:#000000;fill:#000000;fill-opacity:0;stroke-width:0.529167;stroke-linecap:round;stroke-linejoin:round;-inkscape-stroke:none"
         d="m 70.114578,55.297916 h 3.704167 v 3.704167 h -3.704167 z"
         id="path2248" />
      <path
         style="color:#000000;fill:#000000;stroke-linecap:round;stroke-linejoin:round;-inkscape-stroke:none"
         d="m 70.115234,55.033203 a 0.26460996,0.26460996 0 0 0 -0.265625,0.265625 v 3.703125 a 0.26460996,0.26460996 0 0 0 0.265625,0.265625 h 3.703125 a 0.26460996,0.26460996 0 0 0 0.265625,-0.265625 v -3.703125 a 0.26460996,0.26460996 0 0 0 -0.265625,-0.265625 z m 0.263672,0.529297 h 3.175781 v 3.175781 h -3.175781 z"
         id="path2250" />
    </g>
    <path
       d="m 71.643609,57.564114 q 0.07902,0 0.121003,0.02716 0.04198,0.02469 0.04198,0.09631 0,0.123472 -0.162983,0.123472 h -0.74577 q -0.162984,0 -0.162984,-0.123472 0,-0.07161 0.04198,-0.09631 0.04198,-0.02716 0.121003,-0.02716 h 0.249413 v -0.945795 h -0.249413 q -0.162984,0 -0.162984,-0.123472 0,-0.07161 0.04198,-0.09631 0.04198,-0.02716 0.121003,-0.02716 h 0.74577 q 0.07902,0 0.121003,0.02716 0.04198,0.0247 0.04198,0.09631 0,0.123472 -0.162983,0.123472 h -0.249413 v 0.945795 z m 1.479196,-0.128411 q 0,-0.165452 0.123472,-0.165452 0.123472,0 0.123472,0.165452 v 0.375355 h -1.163106 q -0.162983,0 -0.162983,-0.123472 0,-0.123472 0.162983,-0.123472 h 0.03704 v -0.945795 h -0.03704 q -0.162983,0 -0.162983,-0.123472 0,-0.07161 0.04198,-0.09631 0.04198,-0.02716 0.121003,-0.02716 h 1.108778 v 0.370416 q 0,0.165452 -0.123472,0.165452 -0.123472,0 -0.123472,-0.165452 v -0.123472 h -0.577849 v 0.348191 h 0.209903 v -0.01729 q 0,-0.165452 0.121002,-0.165452 0.123472,0 0.123472,0.165452 v 0.279047 q 0,0.162983 -0.121002,0.162983 -0.123472,0 -0.123472,-0.162983 v -0.01729 h -0.209903 v 0.35313 h 0.632177 z"
       id="text548-2"
       style="font-weight:bold;font-size:2.46944px;line-height:1.25;font-family:FreeMono;-inkscape-font-specification:'FreeMono, Bold';letter-spacing:0px;word-spacing:0px;stroke-width:0.264583"
       aria-label="IE" />
  </g>
</svg>
