<?xml version="1.0" encoding="UTF-8" standalone="no"?>
<svg
   width="15.996563"
   height="16.003937"
   viewBox="0 0 4.2324239 4.2343751"
   version="1.1"
   id="svg4268"
   xmlns="http://www.w3.org/2000/svg"
   xmlns:svg="http://www.w3.org/2000/svg"
   xmlns:rdf="http://www.w3.org/1999/02/22-rdf-syntax-ns#"
   xmlns:cc="http://creativecommons.org/ns#"
   xmlns:dc="http://purl.org/dc/elements/1.1/">
  <defs
     id="defs4262" />
  <metadata
     id="metadata4265">
    <rdf:RDF>
      <cc:Work
         rdf:about="">
        <dc:format>image/svg+xml</dc:format>
        <dc:type
           rdf:resource="http://purl.org/dc/dcmitype/StillImage" />
      </cc:Work>
    </rdf:RDF>
  </metadata>
  <g
     id="abstract-operational-situation"
     style="display:inline"
     transform="translate(-111.125,-44.449219)">
    <g
       id="rect688">
      <path
         style="color:#000000;fill:#000000;fill-opacity:0;stroke-width:0.529167;stroke-linecap:round;stroke-linejoin:round;-inkscape-stroke:none"
         d="m 111.38958,44.714584 h 3.70417 v 3.704167 h -3.70417 z"
         id="path2194" />
      <path
         style="color:#000000;fill:#000000;stroke-linecap:round;stroke-linejoin:round;-inkscape-stroke:none"
         d="m 111.38867,44.449219 a 0.26460996,0.26460996 0 0 0 -0.26367,0.265625 v 3.703125 a 0.26460996,0.26460996 0 0 0 0.26367,0.265625 h 3.70508 a 0.26460996,0.26460996 0 0 0 0.26367,-0.265625 v -3.703125 a 0.26460996,0.26460996 0 0 0 -0.26367,-0.265625 z m 0.26563,0.529297 h 3.17578 v 3.175781 h -3.17578 z"
         id="path2196" />
    </g>
    <path
       d="m 112.6692,47.104254 q 0,-0.07161 0.042,-0.09631 0.042,-0.02716 0.121,-0.02716 h 0.0568 l -0.0568,-0.143228 h -0.58773 l -0.0568,0.143228 h 0.0568 q 0.16299,0 0.16299,0.123472 0,0.123472 -0.16299,0.123472 h -0.32843 q -0.16298,0 -0.16298,-0.123472 0,-0.07408 0.0444,-0.09878 0.042,-0.02469 0.121,-0.02469 l 0.38276,-0.945796 h -0.15557 q -0.16546,0 -0.16546,-0.123472 0,-0.07408 0.042,-0.09878 0.0444,-0.0247 0.12348,-0.0247 h 0.5334 l 0.49141,1.19274 q 0.16793,0 0.16793,0.123472 0,0.123472 -0.16299,0.123472 h -0.34325 q -0.16298,0 -0.16298,-0.123472 z m 0.0617,-0.513644 -0.19261,-0.474132 -0.19509,0.474132 z m 1.29646,-0.83714 q 0.0543,0 0.12841,0.01729 0.0741,0.01482 0.17533,0.06668 0.10372,0.05186 0.18521,0.130881 0.084,0.07902 0.14076,0.224719 0.0593,0.143227 0.0593,0.325966 0,0.303741 -0.20496,0.523521 -0.20249,0.21978 -0.48401,0.21978 -0.28645,0 -0.48895,-0.21978 -0.20002,-0.22225 -0.20002,-0.535868 0,-0.31115 0.20249,-0.53093 0.20249,-0.22225 0.48648,-0.22225 z m 0,0.246944 q -0.18027,0 -0.31115,0.150636 -0.13088,0.148167 -0.13088,0.3556 0,0.209902 0.12841,0.360538 0.13088,0.148166 0.31362,0.148166 0.18027,0 0.31115,-0.148166 0.13088,-0.148167 0.13088,-0.35313 0,-0.212372 -0.13088,-0.363008 -0.12841,-0.150636 -0.31115,-0.150636 z"
       id="text692"
       style="font-weight:bold;font-size:2.46944px;line-height:1.25;font-family:FreeMono;-inkscape-font-specification:'FreeMono, Bold';letter-spacing:0px;word-spacing:0px;stroke-width:0.264583"
       aria-label="AO" />
  </g>
</svg>
