<?xml version="1.0" encoding="UTF-8" standalone="no"?>
<svg
   width="16.003937"
   height="15.996571"
   viewBox="0 0 4.2343748 4.2324261"
   version="1.1"
   id="svg4268"
   xmlns="http://www.w3.org/2000/svg"
   xmlns:svg="http://www.w3.org/2000/svg"
   xmlns:rdf="http://www.w3.org/1999/02/22-rdf-syntax-ns#"
   xmlns:cc="http://creativecommons.org/ns#"
   xmlns:dc="http://purl.org/dc/elements/1.1/">
  <defs
     id="defs4262" />
  <metadata
     id="metadata4265">
    <rdf:RDF>
      <cc:Work
         rdf:about="">
        <dc:format>image/svg+xml</dc:format>
        <dc:type
           rdf:resource="http://purl.org/dc/dcmitype/StillImage" />
      </cc:Work>
    </rdf:RDF>
  </metadata>
  <g
     id="sysml-constraint-parameter"
     style="display:inline"
     transform="translate(-77.787109,-19.050779)">
    <g
       id="rect4893-7-3-6-2">
      <path
         style="color:#000000;fill:#000000;fill-opacity:0;stroke-width:0.529167;stroke-linecap:square;stroke-linejoin:round;-inkscape-stroke:none"
         d="m 78.052078,19.314583 h 3.704167 v 3.704167 h -3.704167 z"
         id="path2718-5-2" />
      <path
         style="color:#000000;fill:#000000;stroke-linecap:square;stroke-linejoin:round;-inkscape-stroke:none"
         d="m 78.052734,19.050781 a 0.26460996,0.26460996 0 0 0 -0.265625,0.263672 v 3.705078 a 0.26460996,0.26460996 0 0 0 0.265625,0.263672 h 3.703125 a 0.26460996,0.26460996 0 0 0 0.265625,-0.263672 v -3.705078 a 0.26460996,0.26460996 0 0 0 -0.265625,-0.263672 z m 0.263672,0.529297 h 3.175781 v 3.173828 h -3.175781 z"
         id="path2720-5-6" />
    </g>
    <path
       d="m 71.081913,24.076389 c -0.296332,0 -0.486479,-0.160513 -0.486479,-0.407457 v -0.158044 c 0,-0.259292 0.182738,-0.449439 0.434621,-0.449439 0.07655,0 0.313619,0.02963 0.348191,0.190147 0.0099,0.05433 0.02222,0.130881 0.121003,0.130881 0.101247,0 0.123472,-0.07161 0.123472,-0.162983 v -0.207433 c 0,-0.09631 -0.02222,-0.162983 -0.123472,-0.162983 -0.04198,0 -0.07161,0.01482 -0.103717,0.05927 l -0.02469,-0.0099 c -0.135819,-0.0642 -0.22225,-0.08396 -0.350661,-0.08396 -0.380293,0 -0.671687,0.301272 -0.671687,0.696383 v 0.162983 c 0,0.375354 0.30621,0.649462 0.726015,0.649462 0.350661,0 0.585257,-0.17533 0.585257,-0.303741 0,-0.06668 -0.0568,-0.123472 -0.123472,-0.123472 -0.106185,0 -0.113594,0.180269 -0.454377,0.180269 z m 0.66675,-0.743301 c 0,0.101247 0.06915,0.123472 0.162983,0.123472 h 0.03951 v 1.079145 h -0.03951 c -0.09137,0 -0.162983,0.02222 -0.162983,0.123472 0,0.101247 0.07161,0.123472 0.162983,0.123472 h 0.429683 c 0.0889,0 0.162983,-0.02469 0.162983,-0.123472 0,-0.101247 -0.06421,-0.123472 -0.162983,-0.123472 h -0.143228 v -0.409927 c 0.128411,0.09878 0.237067,0.138289 0.382763,0.138289 0.343253,0 0.597605,-0.224719 0.597605,-0.52846 0,-0.318558 -0.256822,-0.558094 -0.602543,-0.558094 -0.153106,0 -0.256822,0.03951 -0.377825,0.143228 v -0.111125 h -0.286455 c -0.09137,0 -0.162983,0.02222 -0.162983,0.123472 z m 1.182862,0.387702 c 0,0.172861 -0.153105,0.296333 -0.365477,0.296333 -0.217311,0 -0.367947,-0.123472 -0.367947,-0.298802 0,-0.162984 0.143228,-0.293864 0.367947,-0.293864 0.21978,0 0.365477,0.128411 0.365477,0.296333 z"
       id="text84-8-6-8-6"
       style="font-weight:bold;font-size:2.46944px;line-height:1.25;font-family:FreeMono;-inkscape-font-specification:'FreeMono, Bold';letter-spacing:0px;word-spacing:0px;stroke-width:0.237627"
       transform="scale(1.1134396,0.89811787)"
       aria-label="Cp" />
  </g>
</svg>
