<?xml version="1.0" encoding="UTF-8" standalone="no"?>
<svg
   width="16.00622"
   height="16.00622"
   viewBox="0 0 4.2349789 4.2349791"
   version="1.1"
   id="svg4268"
   xmlns="http://www.w3.org/2000/svg"
   xmlns:svg="http://www.w3.org/2000/svg"
   xmlns:rdf="http://www.w3.org/1999/02/22-rdf-syntax-ns#"
   xmlns:cc="http://creativecommons.org/ns#"
   xmlns:dc="http://purl.org/dc/elements/1.1/">
  <defs
     id="defs4262" />
  <metadata
     id="metadata4265">
    <rdf:RDF>
      <cc:Work
         rdf:about="">
        <dc:format>image/svg+xml</dc:format>
        <dc:type
           rdf:resource="http://purl.org/dc/dcmitype/StillImage" />
      </cc:Work>
    </rdf:RDF>
  </metadata>
  <g
     id="realization"
     style="display:inline"
     transform="translate(-1.3224838,-15.344881)">
    <path
       style="color:#000000;fill:#000000;stroke-linecap:round;stroke-linejoin:round;-inkscape-stroke:none"
       d="m 5.21875,15.355469 -1.8515625,0.529297 a 0.2645835,0.2645835 0 0 0 -0.1816406,0.328125 0.2645835,0.2645835 0 0 0 0.3261719,0.18164 L 4.90625,15.996094 4.5078125,17.390625 a 0.2645835,0.2645835 0 0 0 0.1816406,0.326172 0.2645835,0.2645835 0 0 0 0.328125,-0.181641 L 5.546875,15.683594 A 0.26460996,0.26460996 0 0 0 5.21875,15.355469 Z"
       id="path4594-6-7" />
    <g
       id="path4598-1-5">
      <path
         style="color:#000000;fill:#000000;fill-opacity:0;stroke-width:0.529167;stroke-linecap:round;stroke-dasharray:0.529167, 1.05833;-inkscape-stroke:none"
         d="M 1.5875003,19.314584 5.0270833,15.875"
         id="path3696" />
      <path
         style="color:#000000;fill:#000000;stroke-linecap:round;stroke-dasharray:0.529167, 1.05833;-inkscape-stroke:none"
         d="m 5.0273437,15.611328 a 0.2645835,0.2645835 0 0 0 -0.1875,0.07617 l -0.072266,0.07227 a 0.2645835,0.2645835 0 0 0 0,0.375 0.2645835,0.2645835 0 0 0 0.375,0 l 0.072266,-0.07227 a 0.2645835,0.2645835 0 0 0 0,-0.375 0.2645835,0.2645835 0 0 0 -0.1875,-0.07617 z m -0.8203125,0.820313 a 0.2645835,0.2645835 0 0 0 -0.1875,0.07617 l -0.3749999,0.375 a 0.2645835,0.2645835 0 0 0 0,0.373047 0.2645835,0.2645835 0 0 0 0.3749999,0 l 0.375,-0.373047 a 0.2645835,0.2645835 0 0 0 0,-0.375 0.2645835,0.2645835 0 0 0 -0.1875,-0.07617 z m -1.1230468,1.121093 a 0.2645835,0.2645835 0 0 0 -0.1875,0.07813 l -0.3730469,0.375 a 0.2645835,0.2645835 0 0 0 0,0.373047 0.2645835,0.2645835 0 0 0 0.3730469,0 l 0.375,-0.373047 a 0.2645835,0.2645835 0 0 0 0,-0.375 0.2645835,0.2645835 0 0 0 -0.1875,-0.07813 z m -1.3085938,1.201172 -0.375,0.373047 a 0.2645835,0.2645835 0 0 0 0,0.375 0.2645835,0.2645835 0 0 0 0.375,0 l 0.3730469,-0.375 a 0.2645835,0.2645835 0 0 0 0,-0.373047 0.2645835,0.2645835 0 0 0 -0.3730469,0 z"
         id="path3698" />
    </g>
  </g>
</svg>
