<?xml version="1.0" encoding="UTF-8"?>
<svg xmlns="http://www.w3.org/2000/svg" width="16px" height="16px" viewBox="0 0 16 16">
  <g fill="#2e3436">
    <path d="m 5.00121774766,1.33496871007 l 5.99851406635,0 c 2.21545773416,0 3.99902134313,2.37808262658 3.99902134313,5.33202845787 l 0,2.66599659548 c 0,2.95394079317 -1.78356360897,5.33202341974 -3.99902134313,5.33202341974 L 5.00121774766,14.6650171832 c -2.21545773416,0 -3.99902134313,-2.37808262658 -3.99902134313,-5.33202341974 l 0,-2.66599659548 c 0,-2.95394583129 1.78356360897,-5.33202845787 3.99902134313,-5.33202845787 z" fill="#2e3436" stroke-width="2.30883419" fill-opacity="0"/>
    <path d="m 5.00367383634,5.03812941588E-07 c -2.75202620231,0 -5.00369046217,3.00222118521 -5.00369046217,6.67158639982 l 0,2.65682720036 c 0,3.66936521461 2.25166425986,6.67158639982 5.00369046217,6.67158639982 l 5.99262020925,0 c 2.75202620231,0 5.00369008431,-3.00222118521 5.00369008431,-6.67158639982 l 0,-2.65682720036 c 0,-3.66936521461 -2.251663882,-6.67158639982 -5.00369008431,-6.67158639982 z m 0,2.66666666667 l 5.99262020925,0 c 1.67888510956,0 3.00368989538,1.76640839957 3.00368989538,4.00491973316 l 0,2.65682720036 c 0,2.23851133359 -1.32480478582,4.00491973316 -3.00368989538,4.00491973316 L 5.00367383634,13.3333338371 c -1.67888510956,0 -3.00369027324,-1.76640839957 -3.00369027324,-4.00491973316 l 0,-2.65682720036 c 0,-2.23851133359 1.32480516368,-4.00491973316 3.00369027324,-4.00491973316 z" fill="#2e3436"/>
  </g>
</svg>
