<?xml version="1.0" encoding="UTF-8"?>
<svg xmlns="http://www.w3.org/2000/svg" width="16px" height="16px" viewBox="0 0 16 16">
  <g fill="#2e3436">
    <path d="m 14.7203234472,0.040002086433 l -6.9953123025,1.99971518159 a 0.999612,0.999612 0 0,0 -0.68624889725,1.23967553937 a 0.999612,0.999612 0 0,0 1.23229667095,0.686246598006 L 13.5396800206,2.46032099663 L 12.0343596517,7.72894109442 a 0.999612,0.999612 0 0,0 0.68624889725,1.23229699056 a 0.999612,0.999612 0 0,0 1.23967559791,-0.686250376064 L 15.9599990451,1.2796776258 A 0.999712,0.999712 0 0,0 14.7203234472,0.040002086433 Z" fill="#2e3436" stroke-linecap="round" stroke-linejoin="round"/>
    <path d="M 1.00124796371,14.9977712995 L 13.9961953529,2.00282074592" fill="#2e3436" stroke-width="1.99922408" stroke-dasharray="1.99922408, 3.99843305" stroke-linecap="round" fill-opacity="0"/>
    <path d="m 13.9971791595,1.00665242952 a 0.999612,0.999612 0 0,0 -0.708386055949,0.287774737779 l -0.273025209169,0.273040308511 a 0.999612,0.999612 0 0,0 0,1.41677204499 a 0.999612,0.999612 0 0,0 1.4167721119,0 l 0.273025209169,-0.273040308511 a 0.999612,0.999612 0 0,0 0,-1.41677204499 a 0.999612,0.999612 0 0,0 -0.708386055949,-0.287774737779 z m -3.09918899478,3.09919073745 a 0.999612,0.999612 0 0,0 -0.708386055949,0.287774737779 l -1.41677173409,1.41677204499 a 0.999612,0.999612 0 0,0 0,1.40939349618 a 0.999612,0.999612 0 0,0 1.41677173409,0 l 1.4167721119,-1.40939349618 a 0.999612,0.999612 0 0,0 0,-1.41677204499 a 0.999612,0.999612 0 0,0 -0.708386055949,-0.287774737779 z m -4.24293703093,4.23555525929 a 0.999612,0.999612 0 0,0 -0.708386055949,0.295179733 l -1.40939318493,1.41677204499 a 0.999612,0.999612 0 0,0 0,1.40939349618 a 0.999612,0.999612 0 0,0 1.40939318493,0 l 1.4167721119,-1.40939349618 a 0.999612,0.999612 0 0,0 0,-1.41677204499 a 0.999612,0.999612 0 0,0 -0.708386055949,-0.295179733 z m -4.94394453772,4.53809842887 l -1.4167721119,1.40939349618 a 0.999612,0.999612 0 0,0 0,1.41677204499 a 0.999612,0.999612 0 0,0 1.4167721119,0 l 1.40939318493,-1.41677204499 a 0.999612,0.999612 0 0,0 0,-1.40939349618 a 0.999612,0.999612 0 0,0 -1.40939318493,0 z" fill="#2e3436" stroke-dasharray="1.99922408, 3.99843305" stroke-linecap="round"/>
  </g>
</svg>
