<?xml version="1.0" encoding="UTF-8"?>
<svg xmlns="http://www.w3.org/2000/svg" width="16px" height="16px" viewBox="0 0 16 16">
  <g fill="#2e3436">
    <path d="M 1.00022448119,1.00172426839 L 15.003223565,1.00172426839 l 0,13.9965537304 l -14.0029990838,0 z" fill="#2e3436" stroke-width="1.99996946" stroke-linecap="round" stroke-linejoin="round" fill-opacity="0"/>
    <path d="m 0.996776813033,0 a 1.00032,0.999854 0 0,0 -0.996769252357,1.00369178398 l 0,13.9926179435 a 1.00032,0.999854 0 0,0 0.996769252357,1.00368989468 L 15.003223565,15.9999996221 a 1.00032,0.999854 0 0,0 0.996769252357,-1.00368989468 l 0,-13.9926179435 A 1.00032,0.999854 0 0,0 15.003223565,0 Z m 1.00415225226,2.00000170037 l 12.0055252474,0 l 0,11.9999981107 l -12.0055252474,0 z" fill="#2e3436" stroke-linecap="round" stroke-linejoin="round"/>
    <path d="m 6.00129396241,7.00024664794 l 4.00085634104,0 l 0,1.99950783771 L 6.00129396241,8.99975448564 Z" fill="#2e3436" stroke-width="0.99998284" fill-opacity="0"/>
    <path d="m 5.50069405822,6.50184589199 l 0,0.50184494734 l 0,2.49446478012 l 4.99861226159,0 l 0,-2.99630972746 z m 1.00415225226,0.99630991639 l 2.99769075697,0 l 0,1.00368989468 l -2.99769075697,0 z" fill="#2e3436"/>
    <path d="m 7.50161556284,8.99631067211 l 0,3.99999924428 l 0.996769252357,0 l 0,-3.99999924428 z" fill="#2e3436"/>
    <path d="m 7.3022632245,1.99262134422 l -0.00756067578172,0.73062729721 l -0.583291015207,0.57564586382 l -4.71065636377,0 l 0,1.40221363452 l 5.29394737897,0 l 1.38809470947,-1.39483365623 l 0.022303993556,-1.29889280488 z" fill="#2e3436"/>
  </g>
</svg>
