<?xml version="1.0" encoding="UTF-8" standalone="no"?>
<svg
   xmlns:dc="http://purl.org/dc/elements/1.1/"
   xmlns:cc="http://creativecommons.org/ns#"
   xmlns:rdf="http://www.w3.org/1999/02/22-rdf-syntax-ns#"
   xmlns:svg="http://www.w3.org/2000/svg"
   xmlns="http://www.w3.org/2000/svg"
   id="svg4268"
   version="1.1"
   viewBox="0 0 4.2360417 4.224337"
   height="15.965998"
   width="16.010237">
  <defs
     id="defs4262" />
  <metadata
     id="metadata4265">
    <rdf:RDF>
      <cc:Work
         rdf:about="">
        <dc:format>image/svg+xml</dc:format>
        <dc:type
           rdf:resource="http://purl.org/dc/dcmitype/StillImage" />
        <dc:title />
      </cc:Work>
    </rdf:RDF>
  </metadata>
  <path
     id="path4594-6-2-4"
     d="m 3.956028,4.442e-4 a 0.26460979,0.26460979 0 0 0 -0.05859,0.00977 L 2.045875,0.539511 A 0.26492937,0.26492937 0 1 0 2.190406,1.0492767 L 3.584937,0.6508392 3.1865,2.0453705 A 0.26492954,0.26492954 0 1 0 3.696266,2.1899017 L 4.225562,0.3383392 A 0.26460979,0.26460979 0 0 0 3.956031,4.485e-4 Z"
     style="color:#000000;font-style:normal;font-variant:normal;font-weight:normal;font-stretch:normal;font-size:medium;line-height:normal;font-family:sans-serif;font-variant-ligatures:normal;font-variant-position:normal;font-variant-caps:normal;font-variant-numeric:normal;font-variant-alternates:normal;font-feature-settings:normal;text-indent:0;text-align:start;text-decoration:none;text-decoration-line:none;text-decoration-style:solid;text-decoration-color:#000000;letter-spacing:normal;word-spacing:normal;text-transform:none;writing-mode:lr-tb;direction:ltr;text-orientation:mixed;dominant-baseline:auto;baseline-shift:baseline;text-anchor:start;white-space:normal;shape-padding:0;clip-rule:nonzero;display:inline;overflow:visible;visibility:visible;isolation:auto;mix-blend-mode:normal;color-interpolation:sRGB;color-interpolation-filters:linearRGB;solid-color:#000000;solid-opacity:1;vector-effect:none;fill:#000000;fill-opacity:1;fill-rule:nonzero;stroke:none;stroke-width:0.529167;stroke-linecap:round;stroke-linejoin:round;stroke-miterlimit:4;stroke-dasharray:none;stroke-dashoffset:0;stroke-opacity:1;color-rendering:auto;image-rendering:auto;shape-rendering:auto;text-rendering:auto;enable-background:accumulate" />
  <g
     transform="translate(-85.725001,9.7805867)"
     style="font-style:normal;font-variant:normal;font-weight:bold;font-stretch:normal;font-size:2.82223px;line-height:1.25;font-family:sans-serif;-inkscape-font-specification:'sans-serif Bold';letter-spacing:0px;word-spacing:0px;fill:#000000;fill-opacity:1;stroke:none;stroke-width:0.264583"
     id="text150-0"
     aria-label="D">
    <path
       id="path939"
       style="font-style:normal;font-variant:normal;font-weight:bold;font-stretch:normal;font-size:2.82223px;font-family:FreeMono;-inkscape-font-specification:'FreeMono Bold';stroke-width:0.264583"
       d="m 88.631113,-5.5575924 q -0.18909,0 -0.18909,-0.1411115 0,-0.067734 0.04516,-0.1044225 0.04516,-0.036689 0.127001,-0.036689 v -1.0809141 q -0.172157,0 -0.172157,-0.1411115 0,-0.084667 0.04798,-0.1128892 0.0508,-0.028222 0.141112,-0.028222 h 0.598313 q 0.307623,0 0.516468,0.2257784 0.211667,0.2257784 0.211667,0.5588015 v 0.1326448 q 0,0.330201 -0.206023,0.5305793 -0.2032,0.1975561 -0.54469,0.1975561 z m 1.044225,-0.8664246 q 0,-0.2116673 -0.129823,-0.3527788 -0.127,-0.1439337 -0.338667,-0.1439337 h -0.310445 v 1.0809141 h 0.313267 q 0.141112,0 0.237067,-0.042333 0.09878,-0.042333 0.143934,-0.1157114 0.04798,-0.073378 0.06491,-0.1439337 0.01976,-0.070556 0.01976,-0.1524004 z" />
  </g>
  <path
     id="path18"
     d="M 3.6953125 0.25585938 A 0.2645835 0.2645835 0 0 0 3.5175781 0.33398438 L 3.4453125 0.40429688 A 0.2645835 0.2645835 0 0 0 3.4453125 0.77929688 A 0.2645835 0.2645835 0 0 0 3.8183594 0.77929688 L 3.890625 0.70703125 A 0.2645835 0.2645835 0 0 0 3.890625 0.33398438 A 0.2645835 0.2645835 0 0 0 3.6953125 0.25585938 z M 2.875 1.0761719 A 0.2645835 0.2645835 0 0 0 2.6972656 1.1542969 L 2.3222656 1.5273438 A 0.2645835 0.2645835 0 0 0 2.3222656 1.9023438 A 0.2645835 0.2645835 0 0 0 2.6972656 1.9023438 L 3.0703125 1.5273438 A 0.2645835 0.2645835 0 0 0 3.0703125 1.1542969 A 0.2645835 0.2645835 0 0 0 2.875 1.0761719 z M 1.7519531 2.1992188 A 0.2645835 0.2645835 0 0 0 1.5742188 2.2753906 L 1.1992188 2.6503906 A 0.2645835 0.2645835 0 0 0 1.1992188 3.0234375 A 0.2645835 0.2645835 0 0 0 1.5742188 3.0234375 L 1.9492188 2.6503906 A 0.2645835 0.2645835 0 0 0 1.9492188 2.2753906 A 0.2645835 0.2645835 0 0 0 1.7519531 2.1992188 z M 0.63085938 3.3203125 A 0.2645835 0.2645835 0 0 0 0.45117188 3.3984375 L 0.078125 3.7734375 A 0.2645835 0.2645835 0 0 0 0.078125 4.1464844 A 0.2645835 0.2645835 0 0 0 0.45117188 4.1464844 L 0.82617188 3.7734375 A 0.2645835 0.2645835 0 0 0 0.82617188 3.3984375 A 0.2645835 0.2645835 0 0 0 0.63085938 3.3203125 z "
     style="color:#000000;font-style:normal;font-variant:normal;font-weight:normal;font-stretch:normal;font-size:medium;line-height:normal;font-family:sans-serif;font-variant-ligatures:normal;font-variant-position:normal;font-variant-caps:normal;font-variant-numeric:normal;font-variant-alternates:normal;font-variant-east-asian:normal;font-feature-settings:normal;font-variation-settings:normal;text-indent:0;text-align:start;text-decoration:none;text-decoration-line:none;text-decoration-style:solid;text-decoration-color:#000000;letter-spacing:normal;word-spacing:normal;text-transform:none;writing-mode:lr-tb;direction:ltr;text-orientation:mixed;dominant-baseline:auto;baseline-shift:baseline;text-anchor:start;white-space:normal;shape-padding:0;shape-margin:0;inline-size:0;clip-rule:nonzero;display:inline;overflow:visible;visibility:visible;isolation:auto;mix-blend-mode:normal;color-interpolation:sRGB;color-interpolation-filters:linearRGB;solid-color:#000000;solid-opacity:1;vector-effect:none;fill:#000000;fill-opacity:1;fill-rule:nonzero;stroke:none;stroke-width:0.529167;stroke-linecap:round;stroke-linejoin:miter;stroke-miterlimit:4;stroke-dasharray:0.529167, 1.05833000000000022;stroke-dashoffset:0;stroke-opacity:1;color-rendering:auto;image-rendering:auto;shape-rendering:auto;text-rendering:auto;enable-background:accumulate;stop-color:#000000;stop-opacity:1;opacity:1" />
</svg>
