<?xml version="1.0" encoding="UTF-8" standalone="no"?>
<svg
   width="16.003937"
   height="9.0059032"
   viewBox="0 0 4.2343748 2.382812"
   version="1.1"
   id="svg4268"
   xmlns="http://www.w3.org/2000/svg"
   xmlns:svg="http://www.w3.org/2000/svg"
   xmlns:rdf="http://www.w3.org/1999/02/22-rdf-syntax-ns#"
   xmlns:cc="http://creativecommons.org/ns#"
   xmlns:dc="http://purl.org/dc/elements/1.1/">
  <defs
     id="defs4262" />
  <metadata
     id="metadata4265">
    <rdf:RDF>
      <cc:Work
         rdf:about="">
        <dc:format>image/svg+xml</dc:format>
        <dc:type
           rdf:resource="http://purl.org/dc/dcmitype/StillImage" />
      </cc:Work>
    </rdf:RDF>
  </metadata>
  <g
     id="object-node"
     style="display:inline"
     transform="translate(-17.197266,-39.824219)">
    <g
       id="rect1228">
      <path
         style="color:#000000;fill:#000000;fill-opacity:0;stroke-width:0.529167;stroke-linecap:round;stroke-linejoin:round;-inkscape-stroke:none"
         d="m 17.727082,40.089573 h 3.175002 c 0.146578,0 0.264582,0.118004 0.264582,0.264582 v 1.322919 c 0,0.146578 -0.118004,0.264582 -0.264582,0.264582 h -3.175002 c -0.146579,0 -0.264582,-0.118004 -0.264582,-0.264582 v -1.322919 c 0,-0.146578 0.118003,-0.264582 0.264582,-0.264582 z"
         id="path4002" />
      <path
         style="color:#000000;fill:#000000;stroke-linecap:round;stroke-linejoin:round;-inkscape-stroke:none"
         d="m 17.726562,39.824219 c -0.288581,0 -0.529296,0.240715 -0.529296,0.529297 v 1.324218 c 0,0.288582 0.240715,0.529297 0.529296,0.529297 h 3.175782 c 0.288581,0 0.529297,-0.240715 0.529297,-0.529297 v -1.324218 c 0,-0.288582 -0.240716,-0.529297 -0.529297,-0.529297 z m 0,0.529297 h 3.175782 v 1.324218 h -3.175782 z"
         id="path4004" />
    </g>
  </g>
</svg>
