<?xml version="1.0" encoding="UTF-8" standalone="no"?>
<svg
   width="15.996563"
   height="16.003937"
   viewBox="0 0 4.2324239 4.2343751"
   version="1.1"
   id="svg4268"
   xmlns="http://www.w3.org/2000/svg"
   xmlns:svg="http://www.w3.org/2000/svg"
   xmlns:rdf="http://www.w3.org/1999/02/22-rdf-syntax-ns#"
   xmlns:cc="http://creativecommons.org/ns#"
   xmlns:dc="http://purl.org/dc/elements/1.1/">
  <defs
     id="defs4262" />
  <metadata
     id="metadata4265">
    <rdf:RDF>
      <cc:Work
         rdf:about="">
        <dc:format>image/svg+xml</dc:format>
        <dc:type
           rdf:resource="http://purl.org/dc/dcmitype/StillImage" />
      </cc:Work>
    </rdf:RDF>
  </metadata>
  <g
     id="unsafe-control-action"
     style="display:inline"
     transform="translate(-103.1875,-44.449219)">
    <g
       id="rect715">
      <path
         style="color:#000000;fill:#000000;fill-opacity:0;stroke-width:0.529167;stroke-linecap:round;stroke-linejoin:round;-inkscape-stroke:none"
         d="m 103.45208,44.714584 h 3.70417 v 3.704167 h -3.70417 z"
         id="path2169" />
      <path
         style="color:#000000;fill:#000000;stroke-linecap:round;stroke-linejoin:round;-inkscape-stroke:none"
         d="m 103.45117,44.449219 a 0.26460996,0.26460996 0 0 0 -0.26367,0.265625 v 3.703125 a 0.26460996,0.26460996 0 0 0 0.26367,0.265625 h 3.70508 a 0.26460996,0.26460996 0 0 0 0.26367,-0.265625 v -3.703125 a 0.26460996,0.26460996 0 0 0 -0.26367,-0.265625 z m 0.26563,0.529297 h 3.17578 v 3.175781 h -3.17578 z"
         id="path2171" />
    </g>
    <path
       style="font-weight:bold;font-size:3.69642px;line-height:1.25;font-family:FreeMono;-inkscape-font-specification:'FreeMono Bold';letter-spacing:0px;word-spacing:0px;stroke-width:0.231026"
       d="m 92.771515,54.012475 q 0,0.358552 -0.251357,0.584034 -0.251356,0.225482 -0.595123,0.225482 -0.343767,0 -0.595124,-0.229178 -0.251356,-0.229178 -0.251356,-0.580338 V 52.98487 q -0.225482,-0.0074 -0.225482,-0.184821 0,-0.107196 0.06284,-0.14416 0.06284,-0.04066 0.181125,-0.04066 h 0.480534 q 0.118286,0 0.181125,0.03696 0.06284,0.03696 0.06284,0.147857 0,0.184821 -0.243964,0.184821 h -0.129374 v 1.060872 q 0,0.170036 0.140463,0.288321 0.140464,0.118286 0.336375,0.118286 0.19591,0 0.336374,-0.118286 0.140464,-0.118285 0.140464,-0.288321 V 52.98487 H 92.2725 q -0.243964,0 -0.243964,-0.184821 0,-0.107196 0.06284,-0.14416 0.06284,-0.04066 0.181124,-0.04066 h 0.480535 q 0.121982,0 0.181124,0.04066 0.06284,0.03696 0.06284,0.14416 0,0.184821 -0.225481,0.184821 z"
       id="text687-7"
       transform="scale(1.1452508,0.87317119)"
       aria-label="U" />
  </g>
</svg>
