<?xml version="1.0" encoding="UTF-8"?>
<svg xmlns="http://www.w3.org/2000/svg" width="16px" height="16px" viewBox="0 0 16 16">
  <g fill="#2e3436">
    <path d="m 7.86089060926,0.138514596648 c -2.61966577222,2.62124222076 -5.2404720368,5.24140576075 -7.86089060926,7.86147941068 c 2.66664427086,2.66628313573 5.33344662977,5.33218274051 7.99952630045,8.00000599267 c 2.66635067877,-2.66786520086 5.3335407298,-5.33363895955 8.00047482875,-8.00000599267 c -2.66693409895,-2.66639699647 -5.33412414998,-5.33218873318 -8.00047482875,-7.99999400733 c -0.0461090143664,0.0485406348036 -0.0924438688032,0.092047425998 -0.13855288317,0.138790259513 z m 5.17203120348,7.86147941068 c -1.67779223076,1.67763625087 -3.35561833753,3.35529647241 -5.03339551228,5.03291474527 c -1.67717869857,-1.67761827285 -3.35433481313,-3.3552784944 -5.03149092769,-5.03291474527 c 1.67715611456,-1.67763625087 3.35431222912,-3.35528448707 5.03149092769,-5.03293272328 c 1.67777717475,1.67764823621 3.35560328152,3.35529647241 5.03339551228,5.03293272328 z" fill="#2e3436" stroke-width="0.19120828"/>
  </g>
</svg>
