<?xml version="1.0" encoding="UTF-8" standalone="no"?>
<svg
   width="13.059993"
   height="15.388832"
   viewBox="0 0 3.4554563 4.0716286"
   version="1.1"
   id="svg4268"
   xmlns="http://www.w3.org/2000/svg"
   xmlns:svg="http://www.w3.org/2000/svg"
   xmlns:rdf="http://www.w3.org/1999/02/22-rdf-syntax-ns#"
   xmlns:cc="http://creativecommons.org/ns#"
   xmlns:dc="http://purl.org/dc/elements/1.1/">
  <defs
     id="defs4262" />
  <metadata
     id="metadata4265">
    <rdf:RDF>
      <cc:Work
         rdf:about="">
        <dc:format>image/svg+xml</dc:format>
        <dc:type
           rdf:resource="http://purl.org/dc/dcmitype/StillImage" />
      </cc:Work>
    </rdf:RDF>
  </metadata>
  <g
     id="majority_vote"
     style="display:inline"
     transform="translate(-78.148657,-39.135315)">
    <path
       style="color:#000000;fill:#000000;stroke-width:0.122886;stroke-miterlimit:10;-inkscape-stroke:none"
       d="m 79.872111,39.135872 c -0.867782,-0.01843 -1.667645,0.732176 -1.710765,1.597813 -0.02615,0.536921 -0.0028,1.074911 -0.0087,1.612289 3.43e-4,0.286996 0.0011,0.57399 0.0041,0.860969 0.378699,-0.234573 0.792208,-0.414472 1.237803,-0.48433 0.221777,-0.03642 0.450772,-0.04142 0.685737,-0.02844 0.508504,0.032 1.00282,0.193467 1.432836,0.473636 0.06882,0.07453 0.07443,-0.05884 0.09066,-0.109494 -0.01573,-0.839855 0.02816,-1.683573 -0.03562,-2.522705 -0.144377,-0.784165 -0.892594,-1.421659 -1.69661,-1.399747 z m -0.01659,0.385463 c 0.704718,-0.0217 1.35866,0.60707 1.351732,1.314345 0.0094,0.576909 0.0036,1.153945 0.0058,1.730914 -0.839464,-0.356246 -1.818937,-0.351576 -2.658621,0.0014 -0.02949,-0.02196 -0.0035,-0.124133 -0.0119,-0.178176 0.0011,-0.597553 -0.0226,-1.199956 0.02672,-1.791701 0.07568,-0.410051 0.393596,-0.789342 0.770509,-0.959448 0.161189,-0.07439 0.337619,-0.115893 0.515313,-0.117367 z"
       id="path636" />
    <g
       id="g640"
       transform="matrix(0.04265875,0,0,0.0433258,77.829054,39.024973)">
      <path
         style="color:#000000;fill:#000000;-inkscape-stroke:none"
         d="m 43.650391,32.378906 c -1.228098,-0.05195 -2.354276,0.630358 -3.554737,0.615726 -1.115232,-0.474037 -2.35024,-0.06258 -3.519091,-0.20557 -0.904428,10e-7 -1.808855,0 -2.713282,0 0.165519,6.87306 0.117745,13.748635 0.123047,20.623047 2.044271,0 4.088542,0 6.132813,0 0.03412,-4.356934 -0.132865,-8.734056 0.13191,-13.07759 0.392435,-1.414725 1.82394,-2.613352 3.340194,-2.245769 0.63827,-0.02567 0.831437,0.778373 1.14313,1.225703 0.593829,1.434442 0.23408,3.02035 0.361328,4.525391 0.02566,2.792666 -0.09894,5.594474 0.07617,8.380859 0.336724,1.052712 1.597012,1.449564 2.589844,1.191406 1.152995,0 2.305989,0 3.458984,0 0.03463,-4.462215 -0.151763,-8.946132 0.149894,-13.393837 0.386397,-1.387285 2.0779,-2.566887 3.43995,-1.719444 1.12717,0.726735 1.216237,2.262129 1.24723,3.481248 0.0476,3.87671 0.02873,7.754664 0.02621,11.632033 2.039714,0 4.079427,0 6.119141,0 -0.06249,-4.882667 0.209551,-9.783866 -0.222985,-14.652531 -0.499031,-2.967755 -2.73718,-5.837202 -5.850356,-6.248109 -2.306242,-0.471146 -4.700719,0.287219 -6.520306,1.725986 -0.532167,0.677336 -1.016397,-0.160917 -1.51755,-0.45764 -1.249571,-0.979494 -2.862275,-1.451794 -4.441538,-1.400909 z"
         id="path638" />
    </g>
  </g>
</svg>
