<?xml version="1.0" encoding="utf-8"?><!-- Generator: Adobe Illustrator 19.2.0, SVG Export Plug-In . SVG Version: 6.00 Build 0)  -->
<svg version="1.1" id="Layer_1" xmlns="http://www.w3.org/2000/svg" xmlns:xlink="http://www.w3.org/1999/xlink" x="0px"
     y="0px" width="96px" height="96px" viewBox="0 0 96 96" style="enable-background:new 0 0 96 96;"
     xml:space="preserve"><style type="text/css">.st0{fill:none;stroke:#000000;stroke-width:3;stroke-miterlimit:10;}</style>
  <path class="st0"
        d="M83.9,89c0,0-13.7-9-35.9-9s-35.9,9-35.9,9V42.9C12.1,23.1,28.2,7,48,7l0,0c19.8,0,35.9,16.1,35.9,35.9V89z"/>
  <g><path d="M35.5,39.1c0-1.9-0.1-3.3-0.1-4.8h2.8l0.1,2.8h0.1c1-1.7,2.6-3.2,5.6-3.2c2.4,0,4.2,1.5,4.9,3.5H49c0.5-1,1.3-1.7,2-2.3c1.1-0.8,2.2-1.2,3.9-1.2c2.4,0,5.8,1.5,5.8,7.6v10.4h-3.1v-10c0-3.4-1.3-5.4-3.8-5.4c-1.9,0-3.2,1.3-3.8,2.9c-0.1,0.5-0.3,1.1-0.3,1.6v10.9h-3.1V41.3c0-2.8-1.2-4.8-3.7-4.8c-2,0-3.5,1.6-4,3.2c-0.2,0.5-0.3,1-0.3,1.6v10.6h-3.1V39.1z"/></g></svg>
