<?xml version="1.0" encoding="UTF-8" standalone="no"?>
<!-- Created with Inkscape (http://www.inkscape.org/) -->

<svg
   width="141.10742mm"
   height="48.48859mm"
   viewBox="0 0 141.10742 48.48859"
   version="1.1"
   id="svg5"
   inkscape:version="1.3.2 (091e20e, 2023-11-25)"
   sodipodi:docname="gaphor-logo-full.svg"
   xmlns:inkscape="http://www.inkscape.org/namespaces/inkscape"
   xmlns:sodipodi="http://sodipodi.sourceforge.net/DTD/sodipodi-0.dtd"
   xmlns="http://www.w3.org/2000/svg"
   xmlns:svg="http://www.w3.org/2000/svg">
  <sodipodi:namedview
     id="namedview7"
     pagecolor="#ffffff"
     bordercolor="#666666"
     borderopacity="1.0"
     inkscape:pageshadow="2"
     inkscape:pageopacity="0.0"
     inkscape:pagecheckerboard="0"
     inkscape:document-units="mm"
     showgrid="false"
     showguides="true"
     inkscape:guide-bbox="true"
     inkscape:zoom="2.0682472"
     inkscape:cx="180.34595"
     inkscape:cy="72.041678"
     inkscape:window-width="1920"
     inkscape:window-height="1027"
     inkscape:window-x="0"
     inkscape:window-y="25"
     inkscape:window-maximized="1"
     inkscape:current-layer="layer1"
     inkscape:showpageshadow="2"
     inkscape:deskcolor="#d1d1d1">
    <sodipodi:guide
       position="136.46807,22.718301"
       orientation="1,0"
       id="guide11110"
       inkscape:locked="false" />
    <sodipodi:guide
       position="4.4264272,-21.694739"
       orientation="1,0"
       id="guide11112"
       inkscape:locked="false" />
  </sodipodi:namedview>
  <defs
     id="defs2" />
  <g
     inkscape:label="Layer 1"
     inkscape:groupmode="layer"
     id="layer1"
     transform="translate(-28.006023,-94.134092)">
    <g
       id="g1541"
       transform="matrix(0.26458333,0,0,0.26458333,26.94769,92.017425)">
      <path
         d="m 60,108 v -1 L 44,99 v 18 z m 0,0"
         fill="#77767b"
         id="path1418" />
      <g
         fill="none"
         stroke="#77767b"
         stroke-linecap="round"
         stroke-linejoin="round"
         stroke-width="6"
         id="g1428">
        <path
           d="M 93,79 V 67 c 0,-3.3125 -2.6875,-6 -6,-6 H 46"
           id="path1420" />
        <path
           d="m 21,93 v 9 c 0,3.3125 2.6875,6 6,6 h 22"
           id="path1422" />
        <path
           d="m 112,98 h 3 c 3.3125,0 6,-2.6875 6,-6 V 34 c 0,-3.3125 -2.6875,-6 -6,-6 h -12"
           id="path1424" />
        <path
           d="M 21,53 V 34 c 0,-3.3125 2.6875,-6 6,-6 h 13"
           id="path1426" />
      </g>
      <path
         d="m 58,32 h 32 c 3.3125,0 6,2.6875 6,6 v 4 c 0,3.3125 -2.6875,6 -6,6 H 58 c -3.3125,0 -6,-2.6875 -6,-6 v -4 c 0,-3.3125 2.6875,-6 6,-6 z m 0,0"
         fill="url(#a)"
         id="path1430" />
      <path
         d="m 58,8 h 32 c 3.3125,0 6,2.6875 6,6 v 24 c 0,3.3125 -2.6875,6 -6,6 H 58 c -3.3125,0 -6,-2.6875 -6,-6 V 14 c 0,-3.3125 2.6875,-6 6,-6 z m 0,0"
         fill="#33d17a"
         id="path1432" />
      <path
         d="m 52,18 h 44 v 2 H 52 Z m 0,0"
         fill="#8ff0a4"
         id="path1434" />
      <path
         d="m 52,36 h 44 v 2 H 52 Z m 0,0"
         fill="#8ff0a4"
         id="path1436" />
      <path
         d="M 21,52 V 33 c 0,-3.3125 2.6875,-6 6,-6 h 13"
         fill="none"
         stroke="#9a9996"
         stroke-linecap="round"
         stroke-linejoin="round"
         stroke-width="6"
         id="path1438" />
      <path
         d="M 93,78 V 66 c 0,-3.3125 -2.6875,-6 -6,-6 H 46"
         fill="none"
         stroke="#9a9996"
         stroke-linecap="round"
         stroke-linejoin="round"
         stroke-width="6"
         id="path1440" />
      <path
         d="M 52,28 V 27 L 36,20 v 17 z m 0,0"
         fill="#77767b"
         id="path1442" />
      <path
         d="m 112,97 h 3 c 3.3125,0 6,-2.6875 6,-6 V 33 c 0,-3.3125 -2.6875,-6 -6,-6 h -11"
         fill="none"
         stroke="#9a9996"
         stroke-linecap="round"
         stroke-linejoin="round"
         stroke-width="6"
         id="path1444" />
      <path
         d="m 56,12 h 28 v 4 H 56 Z m 0,0"
         fill="#1d7b50"
         id="path1446" />
      <path
         d="m 56,22 h 36 v 4 h -6 v 4 H 56 Z m 0,0"
         fill="#26a269"
         id="path1448" />
      <path
         d="m 66,108 h 40 c 3.3125,0 6,2.6875 6,6 v 4 c 0,3.3125 -2.6875,6 -6,6 H 66 c -3.3125,0 -6,-2.6875 -6,-6 v -4 c 0,-3.3125 2.6875,-6 6,-6 z m 0,0"
         fill="url(#b)"
         id="path1450" />
      <path
         d="m 66,72 h 40 c 3.3125,0 6,2.6875 6,6 v 36 c 0,3.3125 -2.6875,6 -6,6 H 66 c -3.3125,0 -6,-2.6875 -6,-6 V 78 c 0,-3.3125 2.6875,-6 6,-6 z m 0,0"
         fill="#33d17a"
         id="path1452" />
      <path
         d="m 60,82 h 52 v 2 H 60 Z m 0,0"
         fill="#8ff0a4"
         id="path1454" />
      <path
         d="m 60,106 h 52 v 2 H 60 Z m 0,0"
         fill="#8ff0a4"
         id="path1456" />
      <path
         d="m 64,76 h 28 v 4 H 64 Z m 0,0"
         fill="#1d7b50"
         id="path1458" />
      <path
         d="m 64,88 h 44 v 8 H 96 v 4 H 64 Z m 0,0"
         fill="#26a269"
         id="path1460" />
      <path
         d="m 64,112 h 36 v 4 H 64 Z m 0,0"
         fill="#26a269"
         id="path1462" />
      <path
         d="m 10,76 h 24 c 3.3125,0 6,2.6875 6,6 v 4 c 0,3.3125 -2.6875,6 -6,6 H 10 C 6.6875,92 4,89.3125 4,86 v -4 c 0,-3.3125 2.6875,-6 6,-6 z m 0,0"
         fill="url(#c)"
         id="path1464" />
      <path
         d="m 10,44 h 24 c 3.3125,0 6,2.6875 6,6 v 32 c 0,3.3125 -2.6875,6 -6,6 H 10 C 6.6875,88 4,85.3125 4,82 V 50 c 0,-3.3125 2.6875,-6 6,-6 z m 0,0"
         fill="#33d17a"
         id="path1466" />
      <path
         d="m 4,54 h 36 v 2 H 4 Z m 0,0"
         fill="#8ff0a4"
         id="path1468" />
      <path
         d="m 4,74 h 36 v 2 H 4 Z m 0,0"
         fill="#8ff0a4"
         id="path1470" />
      <path
         d="m 8,48 h 22 v 4 H 8 Z m 0,0"
         fill="#1d7b50"
         id="path1472" />
      <path
         d="m 8,60 h 28 v 4 h -6 v 4 H 8 Z m 0,0"
         fill="#26a269"
         id="path1474" />
      <path
         d="m 8,80 h 24 v 4 H 8 Z m 0,0"
         fill="#26a269"
         id="path1476" />
      <path
         d="m 21,92 v 9 c 0,3.3125 2.6875,6 6,6 h 22"
         fill="none"
         stroke="#9a9996"
         stroke-linecap="round"
         stroke-linejoin="round"
         stroke-width="6"
         id="path1478" />
      <path
         d="M 60,107 44,98 v 18 z m 0,0"
         fill="#9a9996"
         id="path1480" />
      <path
         d="m 44.355469,57.671875 -3.679688,3.679687 c -0.90625,0.910157 -0.90625,2.378907 0,3.285157 l 3.679688,3.679687 c 0.90625,0.90625 2.375,0.90625 3.285156,0 l 3.679687,-3.679687 c 0.90625,-0.90625 0.90625,-2.375 0,-3.285157 l -3.679687,-3.679687 c -0.910156,-0.90625 -2.378906,-0.90625 -3.285156,0 z m 0,0"
         fill="#77767b"
         id="path1482" />
      <path
         d="m 40,60 h 12 v 3 H 40 Z m 0,0"
         fill="#77767b"
         id="path1484" />
      <path
         d="m 44.355469,54.675781 -3.679688,3.683594 c -0.90625,0.90625 -0.90625,2.375 0,3.28125 l 3.679688,3.683594 c 0.90625,0.90625 2.375,0.90625 3.285156,0 l 3.679687,-3.683594 c 0.90625,-0.90625 0.90625,-2.375 0,-3.28125 l -3.679687,-3.683594 c -0.910156,-0.90625 -2.378906,-0.90625 -3.285156,0 z m 0,0"
         fill="#deddda"
         id="path1486" />
      <path
         d="M 52,27 36,18 v 18 z m 0,0"
         fill="#9a9996"
         id="path1488" />
      <path
         d="m 100.35938,24.675781 -3.679692,3.679688 c -0.90625,0.90625 -0.90625,2.375 0,3.285156 l 3.679692,3.679687 c 0.91015,0.90625 2.3789,0.90625 3.28515,0 l 3.67969,-3.679687 c 0.90625,-0.910156 0.90625,-2.378906 0,-3.285156 l -3.67969,-3.679688 c -0.90625,-0.90625 -2.375,-0.90625 -3.28515,0 z m 0,0"
         fill="#77767b"
         id="path1490" />
      <path
         d="m 96.003906,27.003906 h 12.000004 v 3 H 96.003906 Z m 0,0"
         fill="#77767b"
         id="path1492" />
      <path
         d="m 100.35938,21.679688 -3.679692,3.679687 c -0.90625,0.910156 -0.90625,2.378906 0,3.285156 l 3.679692,3.679688 c 0.91015,0.90625 2.3789,0.90625 3.28515,0 l 3.67969,-3.679688 c 0.90625,-0.90625 0.90625,-2.375 0,-3.285156 l -3.67969,-3.679687 c -0.90625,-0.90625 -2.375,-0.90625 -3.28515,0 z m 0,0"
         fill="#deddda"
         id="path1494" />
    </g>
    <g
       aria-label="Gaphor"
       id="text6847"
       style="font-weight:bold;font-size:24.6944px;line-height:1.25;font-family:Poppins;-inkscape-font-specification:'Poppins, Bold';letter-spacing:0.04em;fill:#77767b;stroke-width:0.264583;fill-opacity:1">
      <path
         d="m 82.411515,106.34011 q -0.469194,-0.86431 -1.358192,-1.30881 -0.864304,-0.46919 -2.049635,-0.46919 -2.049636,0 -3.284356,1.35819 -1.23472,1.3335 -1.23472,3.58069 0,2.39536 1.284109,3.75355 1.308803,1.3335 3.580688,1.3335 1.555748,0 2.617607,-0.79022 1.086553,-0.79022 1.580441,-2.27189 h -5.358685 v -3.11149 h 9.186318 v 3.92641 q -0.469194,1.58044 -1.605136,2.93863 -1.111249,1.35819 -2.839857,2.1978 -1.728608,0.83961 -3.901715,0.83961 -2.568218,0 -4.593158,-1.11125 -2.000247,-1.13594 -3.136189,-3.13618 -1.111248,-2.00025 -1.111248,-4.56847 0,-2.56822 1.111248,-4.56846 1.135942,-2.02494 3.136189,-3.13619 2.000246,-1.13594 4.568464,-1.13594 3.111494,0 5.235213,1.50635 2.148413,1.50636 2.839856,4.17336 z"
         id="path13700"
         style="fill:#77767b;fill-opacity:1" />
      <path
         d="m 89.869202,111.27899 q 0,-2.12372 0.790221,-3.72886 0.814915,-1.60513 2.197802,-2.46944 1.382886,-0.8643 3.0868,-0.8643 1.45697,0 2.543523,0.59267 1.111248,0.59266 1.703912,1.55574 v -1.95086 h 4.22274 v 13.77948 h -4.22274 v -1.95086 q -0.617358,0.96308 -1.728606,1.55575 -1.086554,0.59267 -2.543523,0.59267 -1.67922,0 -3.062106,-0.86431 -1.382887,-0.889 -2.197802,-2.49413 -0.790221,-1.62983 -0.790221,-3.75355 z m 10.322258,0.0247 q 0,-1.58044 -0.888997,-2.49413 -0.864304,-0.91369 -2.123718,-0.91369 -1.259414,0 -2.148413,0.91369 -0.864304,0.889 -0.864304,2.46944 0,1.58044 0.864304,2.51883 0.888999,0.91369 2.148413,0.91369 1.259414,0 2.123718,-0.91369 0.888997,-0.9137 0.888997,-2.49414 z"
         id="path13702"
         style="fill:#77767b;fill-opacity:1" />
      <path
         d="m 112.6868,106.3648 q 0.61736,-0.96308 1.70392,-1.55574 1.08655,-0.59267 2.54352,-0.59267 1.70391,0 3.0868,0.8643 1.38289,0.86431 2.17311,2.46944 0.81491,1.60514 0.81491,3.72886 0,2.12372 -0.81491,3.75355 -0.79022,1.60513 -2.17311,2.49413 -1.38289,0.86431 -3.0868,0.86431 -1.43228,0 -2.54352,-0.59267 -1.08656,-0.59267 -1.70392,-1.53105 v 8.49487 h -4.22274 v -20.34819 h 4.22274 z m 6.02544,4.91419 q 0,-1.58044 -0.889,-2.46944 -0.86431,-0.91369 -2.14842,-0.91369 -1.25941,0 -2.14841,0.91369 -0.8643,0.91369 -0.8643,2.49413 0,1.58044 0.8643,2.49414 0.889,0.91369 2.14841,0.91369 1.25942,0 2.14842,-0.91369 0.889,-0.93839 0.889,-2.51883 z"
         id="path13704"
         style="fill:#77767b;fill-opacity:1" />
      <path
         d="m 134.68949,104.26578 q 2.37066,0 3.80294,1.58044 1.43227,1.55575 1.43227,4.29683 v 8.05037 h -4.19805 v -7.4824 q 0,-1.38289 -0.71614,-2.14842 -0.71613,-0.76552 -1.92616,-0.76552 -1.21002,0 -1.92616,0.76552 -0.71614,0.76553 -0.71614,2.14842 v 7.4824 h -4.22274 V 99.919564 h 4.22274 v 6.346456 q 0.64206,-0.91369 1.7533,-1.45696 1.11125,-0.54328 2.49414,-0.54328 z"
         id="path13706"
         style="fill:#77767b;fill-opacity:1" />
      <path
         d="m 150.12348,118.39098 q -2.02494,0 -3.65477,-0.86431 -1.60513,-0.8643 -2.54352,-2.46944 -0.91369,-1.60513 -0.91369,-3.75355 0,-2.12372 0.93838,-3.72885 0.93839,-1.62983 2.56822,-2.49414 1.62983,-0.8643 3.65477,-0.8643 2.02494,0 3.65477,0.8643 1.62983,0.86431 2.56822,2.49414 0.93839,1.60513 0.93839,3.72885 0,2.12372 -0.96308,3.75355 -0.93839,1.60514 -2.59291,2.46944 -1.62984,0.86431 -3.65478,0.86431 z m 0,-3.65478 q 1.21003,0 2.04964,-0.88899 0.8643,-0.889 0.8643,-2.54353 0,-1.65452 -0.83961,-2.54352 -0.81491,-0.889 -2.02494,-0.889 -1.23472,0 -2.04963,0.889 -0.81492,0.8643 -0.81492,2.54352 0,1.65453 0.79022,2.54353 0.81492,0.88899 2.02494,0.88899 z"
         id="path13708"
         style="fill:#77767b;fill-opacity:1" />
      <path
         d="m 164.79193,106.71052 q 0.74084,-1.13594 1.85208,-1.77799 1.11125,-0.66675 2.46944,-0.66675 v 4.46968 h -1.16063 q -1.58044,0 -2.37066,0.69145 -0.79023,0.66675 -0.79023,2.37066 v 6.39585 h -4.22274 v -13.77948 h 4.22274 z"
         id="path13710"
         style="fill:#77767b;fill-opacity:1" />
    </g>
    <g
       id="g1">
      <path
         d="m 78.261986,134.26938 h 0.874192 v 3.90588 q 0,1.03353 0.374654,1.49 0.374654,0.45217 1.214396,0.45217 0.835435,0 1.210089,-0.45217 0.374654,-0.45647 0.374654,-1.49 v -3.90588 h 0.874192 v 4.01354 q 0,1.25746 -0.624423,1.89911 -0.620117,0.64164 -1.834512,0.64164 -1.218702,0 -1.843126,-0.64164 -0.620116,-0.64165 -0.620116,-1.89911 z"
         id="path11336-0"
         style="font-size:8.81944px;line-height:1.25;-inkscape-font-specification:'sans-serif, Normal';letter-spacing:0.27em;fill:#77767b;fill-opacity:1;stroke-width:0.0700042" />
      <path
         d="m 56.022402,134.26938 h 1.296216 l 1.640726,4.37527 1.649338,-4.37527 h 1.296217 v 6.42941 h -0.848354 v -5.64565 l -1.657952,4.40972 h -0.874192 l -1.657952,-4.40972 v 5.64565 h -0.844047 z"
         id="path11338-2"
         style="font-size:8.81944px;line-height:1.25;-inkscape-font-specification:'sans-serif, Normal';letter-spacing:0.27em;fill:#77767b;fill-opacity:1;stroke-width:0.0700042" />
      <path
         d="m 66.013001,134.26938 h 0.869886 v 5.69733 h 3.130729 v 0.73208 h -4.000615 z"
         id="path11340-3"
         style="font-size:8.81944px;line-height:1.25;-inkscape-font-specification:'sans-serif, Normal';letter-spacing:0.27em;fill:#77767b;fill-opacity:1;stroke-width:0.0700042" />
      <path
         d="m 74.681545,134.26938 h 0.732083 l -2.239311,7.24762 h -0.732083 z"
         id="path11342-9"
         style="font-size:8.81944px;line-height:1.25;-inkscape-font-specification:'sans-serif, Normal';letter-spacing:0.27em;fill:#77767b;fill-opacity:1;stroke-width:0.0700042" />
      <path
         d="m 37.006293,134.4804 v 0.84835 q -0.495232,-0.23685 -0.934482,-0.35312 -0.439249,-0.11627 -0.848354,-0.11627 -0.710551,0 -1.098124,0.2756 -0.383266,0.27561 -0.383266,0.78376 0,0.42633 0.254075,0.64596 0.258382,0.21532 0.973239,0.34881 l 0.525377,0.10766 q 0.973239,0.18518 1.43402,0.65457 0.465088,0.46509 0.465088,1.24885 0,0.93448 -0.62873,1.41679 -0.624423,0.48231 -1.834512,0.48231 -0.456475,0 -0.973239,-0.10335 -0.512458,-0.10335 -1.063673,-0.30575 v -0.89573 q 0.529683,0.29714 1.037835,0.44787 0.508151,0.15072 0.999077,0.15072 0.745001,0 1.1498,-0.29283 0.404799,-0.29284 0.404799,-0.83544 0,-0.4737 -0.292833,-0.74069 -0.288527,-0.267 -0.951708,-0.4005 l -0.529683,-0.10335 q -0.973239,-0.19379 -1.408182,-0.6072 -0.434943,-0.41341 -0.434943,-1.1498 0,-0.85266 0.598585,-1.34358 0.602892,-0.49093 1.657951,-0.49093 0.452169,0 0.921563,0.0818 0.469394,0.0818 0.96032,0.24547 z"
         id="path11344-9"
         style="font-size:8.81944px;line-height:1.25;-inkscape-font-specification:'sans-serif, Normal';letter-spacing:0.27em;fill:#77767b;fill-opacity:1;stroke-width:0.0700042" />
      <path
         d="m 43.103937,141.14665 q -0.335897,0.86127 -0.654568,1.12396 -0.318671,0.26269 -0.85266,0.26269 h -0.633036 v -0.66318 h 0.465087 q 0.327284,0 0.508152,-0.15503 0.180867,-0.15503 0.400492,-0.73208 l 0.14211,-0.36174 -1.950785,-4.74561 h 0.839742 l 1.507229,3.77238 1.507228,-3.77238 h 0.839742 z"
         id="path11346-7"
         style="font-size:8.81944px;line-height:1.25;-inkscape-font-specification:'sans-serif, Normal';letter-spacing:0.27em;fill:#77767b;fill-opacity:1;stroke-width:0.0700042" />
      <path
         d="m 51.772483,136.01777 v 0.74931 q -0.335897,-0.17226 -0.697632,-0.25839 -0.361734,-0.0861 -0.749307,-0.0861 -0.589973,0 -0.887112,0.18086 -0.292833,0.18087 -0.292833,0.54261 0,0.2756 0.211012,0.43494 0.211012,0.15503 0.848354,0.29714 l 0.271301,0.0603 q 0.844048,0.18087 1.19717,0.51246 0.357429,0.32728 0.357429,0.91725 0,0.6718 -0.53399,1.06367 -0.529683,0.39188 -1.459858,0.39188 -0.387573,0 -0.809597,-0.0775 -0.417718,-0.0732 -0.882805,-0.22393 v -0.81821 q 0.439249,0.22824 0.865579,0.34451 0.426331,0.11196 0.844048,0.11196 0.559828,0 0.861274,-0.18948 0.301446,-0.19378 0.301446,-0.5426 0,-0.32298 -0.219625,-0.49523 -0.215319,-0.17226 -0.951707,-0.33159 l -0.275608,-0.0646 q -0.736389,-0.15503 -1.063672,-0.4737 -0.327284,-0.32297 -0.327284,-0.8828 0,-0.68041 0.482313,-1.05076 0.482313,-0.37034 1.369424,-0.37034 0.43925,0 0.826823,0.0646 0.387573,0.0646 0.714857,0.19379 z"
         id="path11348-0"
         style="font-size:8.81944px;line-height:1.25;-inkscape-font-specification:'sans-serif, Normal';letter-spacing:0.27em;fill:#77767b;fill-opacity:1;stroke-width:0.0700042" />
      <path
         d="m 87.007975,134.26938 h 1.296216 l 1.640726,4.37527 1.649339,-4.37527 h 1.296216 v 6.42941 h -0.848354 v -5.64565 l -1.657952,4.40972 h -0.874192 l -1.657951,-4.40972 v 5.64565 h -0.844048 z"
         id="path11350-3"
         style="font-size:8.81944px;line-height:1.25;-inkscape-font-specification:'sans-serif, Normal';letter-spacing:0.27em;fill:#77767b;fill-opacity:1;stroke-width:0.0700042" />
      <path
         d="m 96.998575,134.26938 h 0.869886 v 5.69733 h 3.130729 v 0.73208 h -4.000615 z"
         id="path11352-9"
         style="font-size:8.81944px;line-height:1.25;-inkscape-font-specification:'sans-serif, Normal';letter-spacing:0.27em;fill:#77767b;fill-opacity:1;stroke-width:0.0700042" />
      <path
         d="m 109.47808,134.26938 h 1.29622 l 1.64073,4.37527 1.64933,-4.37527 h 1.29622 v 6.42941 h -0.84835 v -5.64565 l -1.65795,4.40972 h -0.8742 l -1.65795,-4.40972 v 5.64565 h -0.84405 z"
         id="path11354-8"
         style="font-size:8.81944px;line-height:1.25;-inkscape-font-specification:'sans-serif, Normal';letter-spacing:0.27em;fill:#77767b;fill-opacity:1;stroke-width:0.0700042" />
      <path
         d="m 121.3032,136.43118 q -0.63735,0 -1.00769,0.49954 -0.37035,0.49523 -0.37035,1.36081 0,0.86558 0.36604,1.36512 0.37035,0.49523 1.012,0.49523 0.63303,0 1.00338,-0.49954 0.37035,-0.49954 0.37035,-1.36081 0,-0.85697 -0.37035,-1.35651 -0.37035,-0.50384 -1.00338,-0.50384 z m 0,-0.67179 q 1.03352,0 1.6235,0.67179 0.58997,0.67179 0.58997,1.86035 0,1.18425 -0.58997,1.86035 -0.58998,0.67179 -1.6235,0.67179 -1.03784,0 -1.62781,-0.67179 -0.58567,-0.6761 -0.58567,-1.86035 0,-1.18856 0.58567,-1.86035 0.58997,-0.67179 1.62781,-0.67179 z"
         id="path11356-6"
         style="font-size:8.81944px;line-height:1.25;-inkscape-font-specification:'sans-serif, Normal';letter-spacing:0.27em;fill:#77767b;fill-opacity:1;stroke-width:0.0700042" />
      <path
         d="m 130.38515,136.60774 v -2.60966 h 0.79237 v 6.70071 h -0.79237 v -0.72347 q -0.24977,0.43064 -0.63304,0.64165 -0.37896,0.2067 -0.91295,0.2067 -0.87419,0 -1.4254,-0.69763 -0.54691,-0.69763 -0.54691,-1.83451 0,-1.13688 0.54691,-1.83451 0.55121,-0.69763 1.4254,-0.69763 0.53399,0 0.91295,0.21101 0.38327,0.2067 0.63304,0.63734 z m -2.70009,1.68379 q 0,0.87419 0.35742,1.37373 0.36174,0.49523 0.99047,0.49523 0.62873,0 0.99046,-0.49523 0.36174,-0.49954 0.36174,-1.37373 0,-0.87419 -0.36174,-1.36942 -0.36173,-0.49954 -0.99046,-0.49954 -0.62873,0 -0.99047,0.49954 -0.35742,0.49523 -0.35742,1.36942 z"
         id="path11358-5"
         style="font-size:8.81944px;line-height:1.25;-inkscape-font-specification:'sans-serif, Normal';letter-spacing:0.27em;fill:#77767b;fill-opacity:1;stroke-width:0.0700042" />
      <path
         d="m 139.31639,138.08913 v 0.38757 h -3.64319 q 0.0517,0.81821 0.49093,1.24885 0.44355,0.42633 1.23162,0.42633 0.45647,0 0.8828,-0.11196 0.43064,-0.11197 0.85266,-0.3359 v 0.74931 q -0.42633,0.18086 -0.87419,0.2756 -0.44786,0.0947 -0.90864,0.0947 -1.15411,0 -1.83021,-0.67179 -0.67179,-0.67179 -0.67179,-1.81729 0,-1.18425 0.63734,-1.87757 0.64165,-0.69763 1.72685,-0.69763 0.97324,0 1.53738,0.62873 0.56844,0.62442 0.56844,1.70101 z m -0.79238,-0.23254 q -0.009,-0.65026 -0.36604,-1.03784 -0.35312,-0.38757 -0.93878,-0.38757 -0.66319,0 -1.06368,0.37465 -0.39618,0.37466 -0.45647,1.05506 z"
         id="path11360-7"
         style="font-size:8.81944px;line-height:1.25;-inkscape-font-specification:'sans-serif, Normal';letter-spacing:0.27em;fill:#77767b;fill-opacity:1;stroke-width:0.0700042" />
      <path
         d="m 142.99815,133.99808 h 0.79237 v 6.70071 h -0.79237 z"
         id="path11362-6"
         style="font-size:8.81944px;line-height:1.25;-inkscape-font-specification:'sans-serif, Normal';letter-spacing:0.27em;fill:#77767b;fill-opacity:1;stroke-width:0.0700042" />
      <path
         d="m 147.82973,135.87566 h 0.79237 v 4.82313 h -0.79237 z m 0,-1.87758 h 0.79237 v 1.00339 h -0.79237 z"
         id="path11364-2"
         style="font-size:8.81944px;line-height:1.25;-inkscape-font-specification:'sans-serif, Normal';letter-spacing:0.27em;fill:#77767b;fill-opacity:1;stroke-width:0.0700042" />
      <path
         d="m 156.67053,137.78769 v 2.9111 h -0.79237 v -2.88527 q 0,-0.68471 -0.267,-1.02491 -0.26699,-0.34021 -0.80098,-0.34021 -0.64165,0 -1.012,0.40911 -0.37035,0.4091 -0.37035,1.11535 v 2.72593 h -0.79668 v -4.82313 h 0.79668 v 0.74931 q 0.28422,-0.43495 0.66749,-0.65027 0.38757,-0.21531 0.89142,-0.21531 0.83113,0 1.25746,0.51676 0.42633,0.51246 0.42633,1.51154 z"
         id="path11366-7"
         style="font-size:8.81944px;line-height:1.25;-inkscape-font-specification:'sans-serif, Normal';letter-spacing:0.27em;fill:#77767b;fill-opacity:1;stroke-width:0.0700042" />
      <path
         d="m 163.806,138.23124 q 0,-0.86127 -0.35743,-1.33497 -0.35312,-0.4737 -0.99477,-0.4737 -0.63734,0 -0.99477,0.4737 -0.35312,0.4737 -0.35312,1.33497 0,0.85697 0.35312,1.33067 0.35743,0.4737 0.99477,0.4737 0.64165,0 0.99477,-0.4737 0.35743,-0.4737 0.35743,-1.33067 z m 0.79237,1.86896 q 0,1.23163 -0.54691,1.83021 -0.5469,0.60289 -1.67517,0.60289 -0.41772,0 -0.78807,-0.0646 -0.37035,-0.0603 -0.71916,-0.18948 v -0.77084 q 0.34881,0.18948 0.68902,0.27991 0.3402,0.0904 0.69332,0.0904 0.77945,0 1.16703,-0.4091 0.38757,-0.4048 0.38757,-1.22732 v -0.39188 q -0.24546,0.42634 -0.62873,0.63735 -0.38327,0.21101 -0.91725,0.21101 -0.88712,0 -1.42972,-0.6761 -0.5426,-0.6761 -0.5426,-1.79145 0,-1.11965 0.5426,-1.79575 0.5426,-0.6761 1.42972,-0.6761 0.53398,0 0.91725,0.21101 0.38327,0.21101 0.62873,0.63734 v -0.73208 h 0.79237 z"
         id="path11368-0"
         style="font-size:8.81944px;line-height:1.25;-inkscape-font-specification:'sans-serif, Normal';letter-spacing:0.27em;fill:#77767b;fill-opacity:1;stroke-width:0.0700042" />
    </g>
  </g>
</svg>
