<?xml version="1.0" encoding="UTF-8"?>
<svg height="128px" viewBox="0 0 128 128" width="128px" xmlns="http://www.w3.org/2000/svg" xmlns:xlink="http://www.w3.org/1999/xlink">
    <linearGradient id="a" gradientUnits="userSpaceOnUse" x1="52" x2="96" y1="40" y2="40">
        <stop offset="0" stop-color="#26a269"/>
        <stop offset="0.0681818" stop-color="#33d17a"/>
        <stop offset="0.136364" stop-color="#26a269"/>
        <stop offset="0.863636" stop-color="#26a269"/>
        <stop offset="0.931818" stop-color="#33d17a"/>
        <stop offset="1" stop-color="#26a269"/>
    </linearGradient>
    <linearGradient id="b" gradientUnits="userSpaceOnUse" x1="60" x2="112" y1="116" y2="116">
        <stop offset="0" stop-color="#26a269"/>
        <stop offset="0.0576923" stop-color="#33d17a"/>
        <stop offset="0.115385" stop-color="#26a269"/>
        <stop offset="0.884615" stop-color="#26a269"/>
        <stop offset="0.942308" stop-color="#33d17a"/>
        <stop offset="1" stop-color="#26a269"/>
    </linearGradient>
    <linearGradient id="c" gradientUnits="userSpaceOnUse" x1="4" x2="40" y1="84" y2="84">
        <stop offset="0" stop-color="#26a269"/>
        <stop offset="0.0833333" stop-color="#33d17a"/>
        <stop offset="0.166667" stop-color="#26a269"/>
        <stop offset="0.833333" stop-color="#26a269"/>
        <stop offset="0.916667" stop-color="#33d17a"/>
        <stop offset="1" stop-color="#26a269"/>
    </linearGradient>
    <path d="m 60 108 v -1 l -16 -8 v 18 z m 0 0" fill="#77767b"/>
    <g fill="none" stroke="#77767b" stroke-linecap="round" stroke-linejoin="round" stroke-width="6">
        <path d="m 93 79 v -12 c 0 -3.3125 -2.6875 -6 -6 -6 h -41"/>
        <path d="m 21 93 v 9 c 0 3.3125 2.6875 6 6 6 h 22"/>
        <path d="m 112 98 h 3 c 3.3125 0 6 -2.6875 6 -6 v -58 c 0 -3.3125 -2.6875 -6 -6 -6 h -12"/>
        <path d="m 21 53 v -19 c 0 -3.3125 2.6875 -6 6 -6 h 13"/>
    </g>
    <path d="m 58 32 h 32 c 3.3125 0 6 2.6875 6 6 v 4 c 0 3.3125 -2.6875 6 -6 6 h -32 c -3.3125 0 -6 -2.6875 -6 -6 v -4 c 0 -3.3125 2.6875 -6 6 -6 z m 0 0" fill="url(#a)"/>
    <path d="m 58 8 h 32 c 3.3125 0 6 2.6875 6 6 v 24 c 0 3.3125 -2.6875 6 -6 6 h -32 c -3.3125 0 -6 -2.6875 -6 -6 v -24 c 0 -3.3125 2.6875 -6 6 -6 z m 0 0" fill="#33d17a"/>
    <path d="m 52 18 h 44 v 2 h -44 z m 0 0" fill="#8ff0a4"/>
    <path d="m 52 36 h 44 v 2 h -44 z m 0 0" fill="#8ff0a4"/>
    <path d="m 21 52 v -19 c 0 -3.3125 2.6875 -6 6 -6 h 13" fill="none" stroke="#9a9996" stroke-linecap="round" stroke-linejoin="round" stroke-width="6"/>
    <path d="m 93 78 v -12 c 0 -3.3125 -2.6875 -6 -6 -6 h -41" fill="none" stroke="#9a9996" stroke-linecap="round" stroke-linejoin="round" stroke-width="6"/>
    <path d="m 52 28 v -1 l -16 -7 v 17 z m 0 0" fill="#77767b"/>
    <path d="m 112 97 h 3 c 3.3125 0 6 -2.6875 6 -6 v -58 c 0 -3.3125 -2.6875 -6 -6 -6 h -11" fill="none" stroke="#9a9996" stroke-linecap="round" stroke-linejoin="round" stroke-width="6"/>
    <path d="m 56 12 h 28 v 4 h -28 z m 0 0" fill="#1d7b50"/>
    <path d="m 56 22 h 36 v 4 h -6 v 4 h -30 z m 0 0" fill="#26a269"/>
    <path d="m 66 108 h 40 c 3.3125 0 6 2.6875 6 6 v 4 c 0 3.3125 -2.6875 6 -6 6 h -40 c -3.3125 0 -6 -2.6875 -6 -6 v -4 c 0 -3.3125 2.6875 -6 6 -6 z m 0 0" fill="url(#b)"/>
    <path d="m 66 72 h 40 c 3.3125 0 6 2.6875 6 6 v 36 c 0 3.3125 -2.6875 6 -6 6 h -40 c -3.3125 0 -6 -2.6875 -6 -6 v -36 c 0 -3.3125 2.6875 -6 6 -6 z m 0 0" fill="#33d17a"/>
    <path d="m 60 82 h 52 v 2 h -52 z m 0 0" fill="#8ff0a4"/>
    <path d="m 60 106 h 52 v 2 h -52 z m 0 0" fill="#8ff0a4"/>
    <path d="m 64 76 h 28 v 4 h -28 z m 0 0" fill="#1d7b50"/>
    <path d="m 64 88 h 44 v 8 h -12 v 4 h -32 z m 0 0" fill="#26a269"/>
    <path d="m 64 112 h 36 v 4 h -36 z m 0 0" fill="#26a269"/>
    <path d="m 10 76 h 24 c 3.3125 0 6 2.6875 6 6 v 4 c 0 3.3125 -2.6875 6 -6 6 h -24 c -3.3125 0 -6 -2.6875 -6 -6 v -4 c 0 -3.3125 2.6875 -6 6 -6 z m 0 0" fill="url(#c)"/>
    <path d="m 10 44 h 24 c 3.3125 0 6 2.6875 6 6 v 32 c 0 3.3125 -2.6875 6 -6 6 h -24 c -3.3125 0 -6 -2.6875 -6 -6 v -32 c 0 -3.3125 2.6875 -6 6 -6 z m 0 0" fill="#33d17a"/>
    <path d="m 4 54 h 36 v 2 h -36 z m 0 0" fill="#8ff0a4"/>
    <path d="m 4 74 h 36 v 2 h -36 z m 0 0" fill="#8ff0a4"/>
    <path d="m 8 48 h 22 v 4 h -22 z m 0 0" fill="#1d7b50"/>
    <path d="m 8 60 h 28 v 4 h -6 v 4 h -22 z m 0 0" fill="#26a269"/>
    <path d="m 8 80 h 24 v 4 h -24 z m 0 0" fill="#26a269"/>
    <path d="m 21 92 v 9 c 0 3.3125 2.6875 6 6 6 h 22" fill="none" stroke="#9a9996" stroke-linecap="round" stroke-linejoin="round" stroke-width="6"/>
    <path d="m 60 107 l -16 -9 v 18 z m 0 0" fill="#9a9996"/>
    <path d="m 44.355469 57.671875 l -3.679688 3.679687 c -0.90625 0.910157 -0.90625 2.378907 0 3.285157 l 3.679688 3.679687 c 0.90625 0.90625 2.375 0.90625 3.285156 0 l 3.679687 -3.679687 c 0.90625 -0.90625 0.90625 -2.375 0 -3.285157 l -3.679687 -3.679687 c -0.910156 -0.90625 -2.378906 -0.90625 -3.285156 0 z m 0 0" fill="#77767b"/>
    <path d="m 40 60 h 12 v 3 h -12 z m 0 0" fill="#77767b"/>
    <path d="m 44.355469 54.675781 l -3.679688 3.683594 c -0.90625 0.90625 -0.90625 2.375 0 3.28125 l 3.679688 3.683594 c 0.90625 0.90625 2.375 0.90625 3.285156 0 l 3.679687 -3.683594 c 0.90625 -0.90625 0.90625 -2.375 0 -3.28125 l -3.679687 -3.683594 c -0.910156 -0.90625 -2.378906 -0.90625 -3.285156 0 z m 0 0" fill="#deddda"/>
    <path d="m 52 27 l -16 -9 v 18 z m 0 0" fill="#9a9996"/>
    <path d="m 100.359375 24.675781 l -3.679687 3.679688 c -0.90625 0.90625 -0.90625 2.375 0 3.285156 l 3.679687 3.679687 c 0.910156 0.90625 2.378906 0.90625 3.285156 0 l 3.679688 -3.679687 c 0.90625 -0.910156 0.90625 -2.378906 0 -3.285156 l -3.679688 -3.679688 c -0.90625 -0.90625 -2.375 -0.90625 -3.285156 0 z m 0 0" fill="#77767b"/>
    <path d="m 96.003906 27.003906 h 12 v 3 h -12 z m 0 0" fill="#77767b"/>
    <path d="m 100.359375 21.679688 l -3.679687 3.679687 c -0.90625 0.910156 -0.90625 2.378906 0 3.285156 l 3.679687 3.679688 c 0.910156 0.90625 2.378906 0.90625 3.285156 0 l 3.679688 -3.679688 c 0.90625 -0.90625 0.90625 -2.375 0 -3.285156 l -3.679688 -3.679687 c -0.90625 -0.90625 -2.375 -0.90625 -3.285156 0 z m 0 0" fill="#deddda"/>
</svg>
