<?xml version="1.0" encoding="UTF-8"?>
<svg height="128px" viewBox="0 0 128 128" width="128px" xmlns="http://www.w3.org/2000/svg">
    <g fill-rule="evenodd">
        <path d="m 17.984375 28.078125 l 43 -22.816406 c 1.460937 -0.777344 3.835937 -0.777344 5.300781 0 l 43 22.816406 c 1.460938 0.777344 1.460938 2.035156 0 2.8125 l -43 22.816406 c -1.464844 0.777344 -3.839844 0.777344 -5.300781 0 l -43 -22.816406 c -1.464844 -0.777344 -1.464844 -2.035156 0 -2.8125 z m 0 0" fill="#971232"/>
        <path d="m 14.363281 33.660156 l 44.65625 23.9375 c 1.457031 0.78125 2.640625 2.757813 2.640625 4.414063 v 53.976562 c 0 1.65625 -1.183594 2.363281 -2.640625 1.582031 l -44.65625 -23.9375 c -1.460937 -0.78125 -2.644531 -2.757812 -2.644531 -4.417968 v -53.972656 c 0 -1.65625 1.183594 -2.363282 2.644531 -1.582032 z m 0 0" fill="#c7c000"/>
        <path d="m 113.308594 33.617188 l -44.652344 23.9375 c -1.460938 0.78125 -2.644531 2.761718 -2.644531 4.417968 v 53.972656 c 0 1.65625 1.183593 2.367188 2.644531 1.582032 l 44.652344 -23.933594 c 1.460937 -0.785156 2.644531 -2.761719 2.644531 -4.417969 v -53.972656 c 0 -1.660156 -1.183594 -2.367187 -2.644531 -1.585937 z m 0 0" fill="#54006c"/>
    </g>
</svg>
