<?xml version="1.0" encoding="UTF-8" standalone="no"?>
<!-- Created with Inkscape (http://www.inkscape.org/) -->

<svg
   width="141.10742mm"
   height="48.48859mm"
   viewBox="0 0 141.10742 48.48859"
   version="1.1"
   id="svg5"
   inkscape:version="1.1 (c68e22c387, 2021-05-23)"
   sodipodi:docname="gaphor-logo-full.svg"
   xmlns:inkscape="http://www.inkscape.org/namespaces/inkscape"
   xmlns:sodipodi="http://sodipodi.sourceforge.net/DTD/sodipodi-0.dtd"
   xmlns="http://www.w3.org/2000/svg"
   xmlns:svg="http://www.w3.org/2000/svg">
  <sodipodi:namedview
     id="namedview7"
     pagecolor="#ffffff"
     bordercolor="#666666"
     borderopacity="1.0"
     inkscape:pageshadow="2"
     inkscape:pageopacity="0.0"
     inkscape:pagecheckerboard="0"
     inkscape:document-units="mm"
     showgrid="false"
     showguides="true"
     inkscape:guide-bbox="true"
     inkscape:zoom="3.7946874"
     inkscape:cx="54.681711"
     inkscape:cy="90.91658"
     inkscape:window-width="1920"
     inkscape:window-height="1131"
     inkscape:window-x="0"
     inkscape:window-y="0"
     inkscape:window-maximized="1"
     inkscape:current-layer="layer1">
    <sodipodi:guide
       position="136.46807,22.718301"
       orientation="1,0"
       id="guide11110" />
    <sodipodi:guide
       position="2.7589166,19.168501"
       orientation="1,0"
       id="guide11112" />
  </sodipodi:namedview>
  <defs
     id="defs2" />
  <g
     inkscape:label="Layer 1"
     inkscape:groupmode="layer"
     id="layer1"
     transform="translate(-28.006023,-94.134092)">
    <g
       id="g1541"
       transform="matrix(0.26458333,0,0,0.26458333,26.94769,92.017425)">
      <path
         d="m 60,108 v -1 L 44,99 v 18 z m 0,0"
         fill="#77767b"
         id="path1418" />
      <g
         fill="none"
         stroke="#77767b"
         stroke-linecap="round"
         stroke-linejoin="round"
         stroke-width="6"
         id="g1428">
        <path
           d="M 93,79 V 67 c 0,-3.3125 -2.6875,-6 -6,-6 H 46"
           id="path1420" />
        <path
           d="m 21,93 v 9 c 0,3.3125 2.6875,6 6,6 h 22"
           id="path1422" />
        <path
           d="m 112,98 h 3 c 3.3125,0 6,-2.6875 6,-6 V 34 c 0,-3.3125 -2.6875,-6 -6,-6 h -12"
           id="path1424" />
        <path
           d="M 21,53 V 34 c 0,-3.3125 2.6875,-6 6,-6 h 13"
           id="path1426" />
      </g>
      <path
         d="m 58,32 h 32 c 3.3125,0 6,2.6875 6,6 v 4 c 0,3.3125 -2.6875,6 -6,6 H 58 c -3.3125,0 -6,-2.6875 -6,-6 v -4 c 0,-3.3125 2.6875,-6 6,-6 z m 0,0"
         fill="url(#a)"
         id="path1430" />
      <path
         d="m 58,8 h 32 c 3.3125,0 6,2.6875 6,6 v 24 c 0,3.3125 -2.6875,6 -6,6 H 58 c -3.3125,0 -6,-2.6875 -6,-6 V 14 c 0,-3.3125 2.6875,-6 6,-6 z m 0,0"
         fill="#33d17a"
         id="path1432" />
      <path
         d="m 52,18 h 44 v 2 H 52 Z m 0,0"
         fill="#8ff0a4"
         id="path1434" />
      <path
         d="m 52,36 h 44 v 2 H 52 Z m 0,0"
         fill="#8ff0a4"
         id="path1436" />
      <path
         d="M 21,52 V 33 c 0,-3.3125 2.6875,-6 6,-6 h 13"
         fill="none"
         stroke="#9a9996"
         stroke-linecap="round"
         stroke-linejoin="round"
         stroke-width="6"
         id="path1438" />
      <path
         d="M 93,78 V 66 c 0,-3.3125 -2.6875,-6 -6,-6 H 46"
         fill="none"
         stroke="#9a9996"
         stroke-linecap="round"
         stroke-linejoin="round"
         stroke-width="6"
         id="path1440" />
      <path
         d="M 52,28 V 27 L 36,20 v 17 z m 0,0"
         fill="#77767b"
         id="path1442" />
      <path
         d="m 112,97 h 3 c 3.3125,0 6,-2.6875 6,-6 V 33 c 0,-3.3125 -2.6875,-6 -6,-6 h -11"
         fill="none"
         stroke="#9a9996"
         stroke-linecap="round"
         stroke-linejoin="round"
         stroke-width="6"
         id="path1444" />
      <path
         d="m 56,12 h 28 v 4 H 56 Z m 0,0"
         fill="#1d7b50"
         id="path1446" />
      <path
         d="m 56,22 h 36 v 4 h -6 v 4 H 56 Z m 0,0"
         fill="#26a269"
         id="path1448" />
      <path
         d="m 66,108 h 40 c 3.3125,0 6,2.6875 6,6 v 4 c 0,3.3125 -2.6875,6 -6,6 H 66 c -3.3125,0 -6,-2.6875 -6,-6 v -4 c 0,-3.3125 2.6875,-6 6,-6 z m 0,0"
         fill="url(#b)"
         id="path1450" />
      <path
         d="m 66,72 h 40 c 3.3125,0 6,2.6875 6,6 v 36 c 0,3.3125 -2.6875,6 -6,6 H 66 c -3.3125,0 -6,-2.6875 -6,-6 V 78 c 0,-3.3125 2.6875,-6 6,-6 z m 0,0"
         fill="#33d17a"
         id="path1452" />
      <path
         d="m 60,82 h 52 v 2 H 60 Z m 0,0"
         fill="#8ff0a4"
         id="path1454" />
      <path
         d="m 60,106 h 52 v 2 H 60 Z m 0,0"
         fill="#8ff0a4"
         id="path1456" />
      <path
         d="m 64,76 h 28 v 4 H 64 Z m 0,0"
         fill="#1d7b50"
         id="path1458" />
      <path
         d="m 64,88 h 44 v 8 H 96 v 4 H 64 Z m 0,0"
         fill="#26a269"
         id="path1460" />
      <path
         d="m 64,112 h 36 v 4 H 64 Z m 0,0"
         fill="#26a269"
         id="path1462" />
      <path
         d="m 10,76 h 24 c 3.3125,0 6,2.6875 6,6 v 4 c 0,3.3125 -2.6875,6 -6,6 H 10 C 6.6875,92 4,89.3125 4,86 v -4 c 0,-3.3125 2.6875,-6 6,-6 z m 0,0"
         fill="url(#c)"
         id="path1464" />
      <path
         d="m 10,44 h 24 c 3.3125,0 6,2.6875 6,6 v 32 c 0,3.3125 -2.6875,6 -6,6 H 10 C 6.6875,88 4,85.3125 4,82 V 50 c 0,-3.3125 2.6875,-6 6,-6 z m 0,0"
         fill="#33d17a"
         id="path1466" />
      <path
         d="m 4,54 h 36 v 2 H 4 Z m 0,0"
         fill="#8ff0a4"
         id="path1468" />
      <path
         d="m 4,74 h 36 v 2 H 4 Z m 0,0"
         fill="#8ff0a4"
         id="path1470" />
      <path
         d="m 8,48 h 22 v 4 H 8 Z m 0,0"
         fill="#1d7b50"
         id="path1472" />
      <path
         d="m 8,60 h 28 v 4 h -6 v 4 H 8 Z m 0,0"
         fill="#26a269"
         id="path1474" />
      <path
         d="m 8,80 h 24 v 4 H 8 Z m 0,0"
         fill="#26a269"
         id="path1476" />
      <path
         d="m 21,92 v 9 c 0,3.3125 2.6875,6 6,6 h 22"
         fill="none"
         stroke="#9a9996"
         stroke-linecap="round"
         stroke-linejoin="round"
         stroke-width="6"
         id="path1478" />
      <path
         d="M 60,107 44,98 v 18 z m 0,0"
         fill="#9a9996"
         id="path1480" />
      <path
         d="m 44.355469,57.671875 -3.679688,3.679687 c -0.90625,0.910157 -0.90625,2.378907 0,3.285157 l 3.679688,3.679687 c 0.90625,0.90625 2.375,0.90625 3.285156,0 l 3.679687,-3.679687 c 0.90625,-0.90625 0.90625,-2.375 0,-3.285157 l -3.679687,-3.679687 c -0.910156,-0.90625 -2.378906,-0.90625 -3.285156,0 z m 0,0"
         fill="#77767b"
         id="path1482" />
      <path
         d="m 40,60 h 12 v 3 H 40 Z m 0,0"
         fill="#77767b"
         id="path1484" />
      <path
         d="m 44.355469,54.675781 -3.679688,3.683594 c -0.90625,0.90625 -0.90625,2.375 0,3.28125 l 3.679688,3.683594 c 0.90625,0.90625 2.375,0.90625 3.285156,0 l 3.679687,-3.683594 c 0.90625,-0.90625 0.90625,-2.375 0,-3.28125 l -3.679687,-3.683594 c -0.910156,-0.90625 -2.378906,-0.90625 -3.285156,0 z m 0,0"
         fill="#deddda"
         id="path1486" />
      <path
         d="M 52,27 36,18 v 18 z m 0,0"
         fill="#9a9996"
         id="path1488" />
      <path
         d="m 100.35938,24.675781 -3.679692,3.679688 c -0.90625,0.90625 -0.90625,2.375 0,3.285156 l 3.679692,3.679687 c 0.91015,0.90625 2.3789,0.90625 3.28515,0 l 3.67969,-3.679687 c 0.90625,-0.910156 0.90625,-2.378906 0,-3.285156 l -3.67969,-3.679688 c -0.90625,-0.90625 -2.375,-0.90625 -3.28515,0 z m 0,0"
         fill="#77767b"
         id="path1490" />
      <path
         d="m 96.003906,27.003906 h 12.000004 v 3 H 96.003906 Z m 0,0"
         fill="#77767b"
         id="path1492" />
      <path
         d="m 100.35938,21.679688 -3.679692,3.679687 c -0.90625,0.910156 -0.90625,2.378906 0,3.285156 l 3.679692,3.679688 c 0.91015,0.90625 2.3789,0.90625 3.28515,0 l 3.67969,-3.679688 c 0.90625,-0.90625 0.90625,-2.375 0,-3.285156 l -3.67969,-3.679687 c -0.90625,-0.90625 -2.375,-0.90625 -3.28515,0 z m 0,0"
         fill="#deddda"
         id="path1494" />
    </g>
    <g
       aria-label="Gaphor"
       id="text6847"
       style="font-weight:bold;font-size:24.6944px;line-height:1.25;font-family:Poppins;-inkscape-font-specification:'Poppins, Bold';letter-spacing:0.04em;fill:#77767b;stroke-width:0.264583;fill-opacity:1">
      <path
         d="m 82.411515,106.34011 q -0.469194,-0.86431 -1.358192,-1.30881 -0.864304,-0.46919 -2.049635,-0.46919 -2.049636,0 -3.284356,1.35819 -1.23472,1.3335 -1.23472,3.58069 0,2.39536 1.284109,3.75355 1.308803,1.3335 3.580688,1.3335 1.555748,0 2.617607,-0.79022 1.086553,-0.79022 1.580441,-2.27189 h -5.358685 v -3.11149 h 9.186318 v 3.92641 q -0.469194,1.58044 -1.605136,2.93863 -1.111249,1.35819 -2.839857,2.1978 -1.728608,0.83961 -3.901715,0.83961 -2.568218,0 -4.593158,-1.11125 -2.000247,-1.13594 -3.136189,-3.13618 -1.111248,-2.00025 -1.111248,-4.56847 0,-2.56822 1.111248,-4.56846 1.135942,-2.02494 3.136189,-3.13619 2.000246,-1.13594 4.568464,-1.13594 3.111494,0 5.235213,1.50635 2.148413,1.50636 2.839856,4.17336 z"
         id="path13700"
         style="fill:#77767b;fill-opacity:1" />
      <path
         d="m 89.869202,111.27899 q 0,-2.12372 0.790221,-3.72886 0.814915,-1.60513 2.197802,-2.46944 1.382886,-0.8643 3.0868,-0.8643 1.45697,0 2.543523,0.59267 1.111248,0.59266 1.703912,1.55574 v -1.95086 h 4.22274 v 13.77948 h -4.22274 v -1.95086 q -0.617358,0.96308 -1.728606,1.55575 -1.086554,0.59267 -2.543523,0.59267 -1.67922,0 -3.062106,-0.86431 -1.382887,-0.889 -2.197802,-2.49413 -0.790221,-1.62983 -0.790221,-3.75355 z m 10.322258,0.0247 q 0,-1.58044 -0.888997,-2.49413 -0.864304,-0.91369 -2.123718,-0.91369 -1.259414,0 -2.148413,0.91369 -0.864304,0.889 -0.864304,2.46944 0,1.58044 0.864304,2.51883 0.888999,0.91369 2.148413,0.91369 1.259414,0 2.123718,-0.91369 0.888997,-0.9137 0.888997,-2.49414 z"
         id="path13702"
         style="fill:#77767b;fill-opacity:1" />
      <path
         d="m 112.6868,106.3648 q 0.61736,-0.96308 1.70392,-1.55574 1.08655,-0.59267 2.54352,-0.59267 1.70391,0 3.0868,0.8643 1.38289,0.86431 2.17311,2.46944 0.81491,1.60514 0.81491,3.72886 0,2.12372 -0.81491,3.75355 -0.79022,1.60513 -2.17311,2.49413 -1.38289,0.86431 -3.0868,0.86431 -1.43228,0 -2.54352,-0.59267 -1.08656,-0.59267 -1.70392,-1.53105 v 8.49487 h -4.22274 v -20.34819 h 4.22274 z m 6.02544,4.91419 q 0,-1.58044 -0.889,-2.46944 -0.86431,-0.91369 -2.14842,-0.91369 -1.25941,0 -2.14841,0.91369 -0.8643,0.91369 -0.8643,2.49413 0,1.58044 0.8643,2.49414 0.889,0.91369 2.14841,0.91369 1.25942,0 2.14842,-0.91369 0.889,-0.93839 0.889,-2.51883 z"
         id="path13704"
         style="fill:#77767b;fill-opacity:1" />
      <path
         d="m 134.68949,104.26578 q 2.37066,0 3.80294,1.58044 1.43227,1.55575 1.43227,4.29683 v 8.05037 h -4.19805 v -7.4824 q 0,-1.38289 -0.71614,-2.14842 -0.71613,-0.76552 -1.92616,-0.76552 -1.21002,0 -1.92616,0.76552 -0.71614,0.76553 -0.71614,2.14842 v 7.4824 h -4.22274 V 99.919564 h 4.22274 v 6.346456 q 0.64206,-0.91369 1.7533,-1.45696 1.11125,-0.54328 2.49414,-0.54328 z"
         id="path13706"
         style="fill:#77767b;fill-opacity:1" />
      <path
         d="m 150.12348,118.39098 q -2.02494,0 -3.65477,-0.86431 -1.60513,-0.8643 -2.54352,-2.46944 -0.91369,-1.60513 -0.91369,-3.75355 0,-2.12372 0.93838,-3.72885 0.93839,-1.62983 2.56822,-2.49414 1.62983,-0.8643 3.65477,-0.8643 2.02494,0 3.65477,0.8643 1.62983,0.86431 2.56822,2.49414 0.93839,1.60513 0.93839,3.72885 0,2.12372 -0.96308,3.75355 -0.93839,1.60514 -2.59291,2.46944 -1.62984,0.86431 -3.65478,0.86431 z m 0,-3.65478 q 1.21003,0 2.04964,-0.88899 0.8643,-0.889 0.8643,-2.54353 0,-1.65452 -0.83961,-2.54352 -0.81491,-0.889 -2.02494,-0.889 -1.23472,0 -2.04963,0.889 -0.81492,0.8643 -0.81492,2.54352 0,1.65453 0.79022,2.54353 0.81492,0.88899 2.02494,0.88899 z"
         id="path13708"
         style="fill:#77767b;fill-opacity:1" />
      <path
         d="m 164.79193,106.71052 q 0.74084,-1.13594 1.85208,-1.77799 1.11125,-0.66675 2.46944,-0.66675 v 4.46968 h -1.16063 q -1.58044,0 -2.37066,0.69145 -0.79023,0.66675 -0.79023,2.37066 v 6.39585 h -4.22274 v -13.77948 h 4.22274 z"
         id="path13710"
         style="fill:#77767b;fill-opacity:1" />
    </g>
    <g
       aria-label="UML/SysML Modeling"
       id="text8723"
       style="font-size:9.17222px;line-height:1.25;-inkscape-font-specification:'sans-serif, Normal';letter-spacing:0.25em;fill:#77767b;stroke-width:0.264583;fill-opacity:1">
      <path
         d="m 30.593019,134.0282 h 0.90916 v 4.06211 q 0,1.07487 0.389641,1.5496 0.38964,0.47026 1.262971,0.47026 0.868853,0 1.258494,-0.47026 0.38964,-0.47473 0.38964,-1.5496 v -4.06211 h 0.90916 v 4.17408 q 0,1.30775 -0.6494,1.97507 -0.644922,0.66731 -1.907894,0.66731 -1.26745,0 -1.91685,-0.66731 -0.644922,-0.66732 -0.644922,-1.97507 z"
         id="path13731"
         style="fill:#77767b;fill-opacity:1" />
      <path
         d="m 39.702539,134.0282 h 1.348066 l 1.706355,4.55028 1.715313,-4.55028 h 1.348065 v 6.68658 h -0.882289 v -5.87147 l -1.724269,4.58611 h -0.909161 l -1.72427,-4.58611 v 5.87147 h -0.87781 z"
         id="path13733"
         style="fill:#77767b;fill-opacity:1" />
      <path
         d="m 49.90932,134.0282 h 0.904682 v 5.92522 h 3.255959 v 0.76136 H 49.90932 Z"
         id="path13735"
         style="fill:#77767b;fill-opacity:1" />
      <path
         d="m 58.741165,134.0282 h 0.761366 l -2.328884,7.53752 h -0.761366 z"
         id="path13737"
         style="fill:#77767b;fill-opacity:1" />
      <path
         d="m 66.704159,134.24765 v 0.88229 q -0.515042,-0.24632 -0.971862,-0.36725 -0.456819,-0.12092 -0.882288,-0.12092 -0.738973,0 -1.142049,0.28663 -0.398598,0.28663 -0.398598,0.81511 0,0.44338 0.264239,0.67179 0.268717,0.22394 1.012169,0.36277 l 0.546392,0.11197 q 1.012169,0.19258 1.491381,0.68075 0.483692,0.48369 0.483692,1.2988 0,0.97186 -0.653879,1.47347 -0.649401,0.5016 -1.907894,0.5016 -0.474734,0 -1.012169,-0.10748 -0.532956,-0.10749 -1.10622,-0.31799 v -0.93155 q 0.550871,0.30902 1.079349,0.46578 0.528477,0.15675 1.03904,0.15675 0.774802,0 1.195793,-0.30455 0.42099,-0.30454 0.42099,-0.86885 0,-0.49265 -0.304546,-0.77032 -0.300068,-0.27768 -0.989776,-0.41652 l -0.550871,-0.10748 q -1.012168,-0.20154 -1.464509,-0.63149 -0.452341,-0.42995 -0.452341,-1.19579 0,-0.88677 0.622528,-1.39733 0.627008,-0.51056 1.72427,-0.51056 0.470256,0 0.958426,0.0851 0.488169,0.0851 0.998733,0.25528 z"
         id="path13739"
         style="fill:#77767b;fill-opacity:1" />
      <path
         d="m 72.862265,141.18056 q -0.349333,0.89572 -0.680751,1.16892 -0.331418,0.2732 -0.886767,0.2732 h -0.658358 v -0.68971 h 0.483692 q 0.340375,0 0.528477,-0.16123 0.188102,-0.16123 0.416512,-0.76137 l 0.147795,-0.3762 -2.028817,-4.93545 h 0.873332 l 1.567518,3.92328 1.567518,-3.92328 h 0.873332 z"
         id="path13741"
         style="fill:#77767b;fill-opacity:1" />
      <path
         d="m 81.694109,135.84652 v 0.77928 q -0.349332,-0.17915 -0.725537,-0.26872 -0.376204,-0.0896 -0.77928,-0.0896 -0.613571,0 -0.922596,0.1881 -0.304547,0.1881 -0.304547,0.56431 0,0.28663 0.219453,0.45234 0.219452,0.16123 0.882288,0.30902 l 0.282154,0.0627 q 0.87781,0.1881 1.245057,0.53295 0.371726,0.34038 0.371726,0.95395 0,0.69866 -0.55535,1.10622 -0.55087,0.40755 -1.518253,0.40755 -0.403076,0 -0.841981,-0.0806 -0.434426,-0.0761 -0.918118,-0.23289 v -0.85094 q 0.45682,0.23737 0.900203,0.35829 0.443384,0.11644 0.877811,0.11644 0.582221,0 0.895724,-0.19705 0.313504,-0.20154 0.313504,-0.56431 0,-0.3359 -0.22841,-0.51504 -0.223931,-0.17915 -0.989776,-0.34486 l -0.286632,-0.0672 q -0.765844,-0.16123 -1.106219,-0.49264 -0.340376,-0.3359 -0.340376,-0.91812 0,-0.70762 0.501606,-1.09279 0.501606,-0.38516 1.424202,-0.38516 0.45682,0 0.859896,0.0672 0.403076,0.0672 0.743451,0.20154 z"
         id="path13743"
         style="fill:#77767b;fill-opacity:1" />
      <path
         d="m 85.603948,134.0282 h 1.348066 l 1.706355,4.55028 1.715313,-4.55028 h 1.348065 v 6.68658 h -0.882288 v -5.87147 l -1.72427,4.58611 h -0.909161 l -1.72427,-4.58611 v 5.87147 h -0.87781 z"
         id="path13745"
         style="fill:#77767b;fill-opacity:1" />
      <path
         d="m 95.810728,134.0282 h 0.904682 v 5.92522 h 3.255959 v 0.76136 h -4.160641 z"
         id="path13747"
         style="fill:#77767b;fill-opacity:1" />
      <path
         d="m 108.42253,134.0282 h 1.34806 l 1.70636,4.55028 1.71531,-4.55028 h 1.34807 v 6.68658 h -0.88229 v -5.87147 l -1.72427,4.58611 h -0.90916 l -1.72427,-4.58611 v 5.87147 h -0.87781 z"
         id="path13749"
         style="fill:#77767b;fill-opacity:1" />
      <path
         d="m 120.53721,136.27647 q -0.66284,0 -1.048,0.51952 -0.38516,0.51504 -0.38516,1.41524 0,0.90021 0.38068,1.41973 0.38516,0.51504 1.05248,0.51504 0.65836,0 1.04352,-0.51952 0.38516,-0.51952 0.38516,-1.41525 0,-0.89124 -0.38516,-1.41076 -0.38516,-0.524 -1.04352,-0.524 z m 0,-0.69867 q 1.07487,0 1.68844,0.69867 0.61357,0.69866 0.61357,1.93476 0,1.23162 -0.61357,1.93477 -0.61357,0.69866 -1.68844,0.69866 -1.07935,0 -1.69292,-0.69866 -0.60909,-0.70315 -0.60909,-1.93477 0,-1.2361 0.60909,-1.93476 0.61357,-0.69867 1.69292,-0.69867 z"
         id="path13751"
         style="fill:#77767b;fill-opacity:1" />
      <path
         d="m 129.799,136.46009 v -2.71404 h 0.82407 v 6.96873 H 129.799 v -0.75241 q -0.25976,0.44787 -0.65836,0.66732 -0.39411,0.21497 -0.94946,0.21497 -0.90916,0 -1.48243,-0.72553 -0.56878,-0.72554 -0.56878,-1.9079 0,-1.18235 0.56878,-1.90789 0.57327,-0.72554 1.48243,-0.72554 0.55535,0 0.94946,0.21945 0.3986,0.21498 0.65836,0.66284 z m -2.80809,1.75114 q 0,0.90916 0.37172,1.42868 0.37621,0.51504 1.03008,0.51504 0.65388,0 1.03009,-0.51504 0.3762,-0.51952 0.3762,-1.42868 0,-0.90916 -0.3762,-1.4242 -0.37621,-0.51952 -1.03009,-0.51952 -0.65387,0 -1.03008,0.51952 -0.37172,0.51504 -0.37172,1.4242 z"
         id="path13753"
         style="fill:#77767b;fill-opacity:1" />
      <path
         d="m 138.90404,138.00074 v 0.40307 h -3.78891 q 0.0537,0.85094 0.51056,1.2988 0.4613,0.44339 1.28089,0.44339 0.47473,0 0.91811,-0.11645 0.44787,-0.11644 0.88677,-0.34933 v 0.77928 q -0.44338,0.1881 -0.90916,0.28663 -0.46578,0.0985 -0.94499,0.0985 -1.20027,0 -1.90341,-0.69866 -0.69867,-0.69867 -0.69867,-1.88998 0,-1.23162 0.66284,-1.95268 0.66731,-0.72554 1.79593,-0.72554 1.01216,0 1.59886,0.65388 0.59118,0.6494 0.59118,1.76906 z m -0.82406,-0.24185 q -0.009,-0.67627 -0.38069,-1.07935 -0.36724,-0.40307 -0.97634,-0.40307 -0.6897,0 -1.10622,0.38964 -0.41203,0.38964 -0.47473,1.09726 z"
         id="path13755"
         style="fill:#77767b;fill-opacity:1" />
      <path
         d="m 142.54964,133.74605 h 0.82407 v 6.96873 h -0.82407 z"
         id="path13757"
         style="fill:#77767b;fill-opacity:1" />
      <path
         d="m 147.39103,135.69872 h 0.82407 v 5.01606 h -0.82407 z m 0,-1.95267 h 0.82407 v 1.04351 h -0.82407 z"
         id="path13759"
         style="fill:#77767b;fill-opacity:1" />
      <path
         d="m 156.40202,137.68723 v 3.02755 h -0.82406 v -3.00067 q 0,-0.71211 -0.27768,-1.06592 -0.27767,-0.35381 -0.83302,-0.35381 -0.66732,0 -1.05248,0.42547 -0.38516,0.42547 -0.38516,1.15996 v 2.83497 h -0.82854 v -5.01606 h 0.82854 v 0.77929 q 0.29559,-0.45235 0.69419,-0.67628 0.40307,-0.22393 0.92707,-0.22393 0.86438,0 1.30776,0.53744 0.44338,0.53295 0.44338,1.57199 z"
         id="path13761"
         style="fill:#77767b;fill-opacity:1" />
      <path
         d="m 163.63947,138.14853 q 0,-0.89572 -0.37172,-1.38837 -0.36725,-0.49265 -1.03457,-0.49265 -0.66283,0 -1.03456,0.49265 -0.36725,0.49265 -0.36725,1.38837 0,0.89125 0.36725,1.3839 0.37173,0.49264 1.03456,0.49264 0.66732,0 1.03457,-0.49264 0.37172,-0.49265 0.37172,-1.3839 z m 0.82407,1.94372 q 0,1.28089 -0.56879,1.90342 -0.56878,0.62701 -1.74218,0.62701 -0.43443,0 -0.81959,-0.0672 -0.38516,-0.0627 -0.74793,-0.19706 v -0.80168 q 0.36277,0.19706 0.71658,0.29111 0.35381,0.0941 0.72106,0.0941 0.81063,0 1.21371,-0.42547 0.40307,-0.42099 0.40307,-1.27641 v -0.40756 q -0.25528,0.44339 -0.65388,0.66284 -0.3986,0.21945 -0.95394,0.21945 -0.9226,0 -1.48691,-0.70314 -0.5643,-0.70314 -0.5643,-1.86311 0,-1.16444 0.5643,-1.86758 0.56431,-0.70315 1.48691,-0.70315 0.55534,0 0.95394,0.21945 0.3986,0.21946 0.65388,0.66284 v -0.76137 h 0.82407 z"
         id="path13763"
         style="fill:#77767b;fill-opacity:1" />
    </g>
  </g>
</svg>
