<?xml version="1.0" encoding="UTF-8" standalone="no"?>
<!-- Created with Inkscape (http://www.inkscape.org/) -->

<svg
   width="141.10742mm"
   height="30.691666mm"
   viewBox="0 0 141.10742 30.691666"
   version="1.1"
   id="svg5"
   inkscape:version="1.1 (c68e22c387, 2021-05-23)"
   sodipodi:docname="gaphor-logo-name.svg"
   xmlns:inkscape="http://www.inkscape.org/namespaces/inkscape"
   xmlns:sodipodi="http://sodipodi.sourceforge.net/DTD/sodipodi-0.dtd"
   xmlns="http://www.w3.org/2000/svg"
   xmlns:svg="http://www.w3.org/2000/svg">
  <sodipodi:namedview
     id="namedview7"
     pagecolor="#ffffff"
     bordercolor="#666666"
     borderopacity="1.0"
     inkscape:pageshadow="2"
     inkscape:pageopacity="0.0"
     inkscape:pagecheckerboard="0"
     inkscape:document-units="mm"
     showgrid="false"
     showguides="true"
     inkscape:guide-bbox="true"
     inkscape:zoom="7.5893747"
     inkscape:cx="138.61485"
     inkscape:cy="36.103106"
     inkscape:window-width="1920"
     inkscape:window-height="1131"
     inkscape:window-x="0"
     inkscape:window-y="0"
     inkscape:window-maximized="1"
     inkscape:current-layer="layer1">
    <sodipodi:guide
       position="136.46808,4.9213769"
       orientation="1,0"
       id="guide11110" />
    <sodipodi:guide
       position="2.7589166,1.3715768"
       orientation="1,0"
       id="guide11112" />
  </sodipodi:namedview>
  <defs
     id="defs2" />
  <g
     inkscape:label="Layer 1"
     inkscape:groupmode="layer"
     id="layer1"
     transform="translate(-28.006023,-94.134092)">
    <g
       id="g1541"
       transform="matrix(0.26458333,0,0,0.26458333,26.94769,92.017425)">
      <path
         d="m 60,108 v -1 L 44,99 v 18 z m 0,0"
         fill="#77767b"
         id="path1418" />
      <g
         fill="none"
         stroke="#77767b"
         stroke-linecap="round"
         stroke-linejoin="round"
         stroke-width="6"
         id="g1428">
        <path
           d="M 93,79 V 67 c 0,-3.3125 -2.6875,-6 -6,-6 H 46"
           id="path1420" />
        <path
           d="m 21,93 v 9 c 0,3.3125 2.6875,6 6,6 h 22"
           id="path1422" />
        <path
           d="m 112,98 h 3 c 3.3125,0 6,-2.6875 6,-6 V 34 c 0,-3.3125 -2.6875,-6 -6,-6 h -12"
           id="path1424" />
        <path
           d="M 21,53 V 34 c 0,-3.3125 2.6875,-6 6,-6 h 13"
           id="path1426" />
      </g>
      <path
         d="m 58,32 h 32 c 3.3125,0 6,2.6875 6,6 v 4 c 0,3.3125 -2.6875,6 -6,6 H 58 c -3.3125,0 -6,-2.6875 -6,-6 v -4 c 0,-3.3125 2.6875,-6 6,-6 z m 0,0"
         fill="url(#a)"
         id="path1430" />
      <path
         d="m 58,8 h 32 c 3.3125,0 6,2.6875 6,6 v 24 c 0,3.3125 -2.6875,6 -6,6 H 58 c -3.3125,0 -6,-2.6875 -6,-6 V 14 c 0,-3.3125 2.6875,-6 6,-6 z m 0,0"
         fill="#33d17a"
         id="path1432" />
      <path
         d="m 52,18 h 44 v 2 H 52 Z m 0,0"
         fill="#8ff0a4"
         id="path1434" />
      <path
         d="m 52,36 h 44 v 2 H 52 Z m 0,0"
         fill="#8ff0a4"
         id="path1436" />
      <path
         d="M 21,52 V 33 c 0,-3.3125 2.6875,-6 6,-6 h 13"
         fill="none"
         stroke="#9a9996"
         stroke-linecap="round"
         stroke-linejoin="round"
         stroke-width="6"
         id="path1438" />
      <path
         d="M 93,78 V 66 c 0,-3.3125 -2.6875,-6 -6,-6 H 46"
         fill="none"
         stroke="#9a9996"
         stroke-linecap="round"
         stroke-linejoin="round"
         stroke-width="6"
         id="path1440" />
      <path
         d="M 52,28 V 27 L 36,20 v 17 z m 0,0"
         fill="#77767b"
         id="path1442" />
      <path
         d="m 112,97 h 3 c 3.3125,0 6,-2.6875 6,-6 V 33 c 0,-3.3125 -2.6875,-6 -6,-6 h -11"
         fill="none"
         stroke="#9a9996"
         stroke-linecap="round"
         stroke-linejoin="round"
         stroke-width="6"
         id="path1444" />
      <path
         d="m 56,12 h 28 v 4 H 56 Z m 0,0"
         fill="#1d7b50"
         id="path1446" />
      <path
         d="m 56,22 h 36 v 4 h -6 v 4 H 56 Z m 0,0"
         fill="#26a269"
         id="path1448" />
      <path
         d="m 66,108 h 40 c 3.3125,0 6,2.6875 6,6 v 4 c 0,3.3125 -2.6875,6 -6,6 H 66 c -3.3125,0 -6,-2.6875 -6,-6 v -4 c 0,-3.3125 2.6875,-6 6,-6 z m 0,0"
         fill="url(#b)"
         id="path1450" />
      <path
         d="m 66,72 h 40 c 3.3125,0 6,2.6875 6,6 v 36 c 0,3.3125 -2.6875,6 -6,6 H 66 c -3.3125,0 -6,-2.6875 -6,-6 V 78 c 0,-3.3125 2.6875,-6 6,-6 z m 0,0"
         fill="#33d17a"
         id="path1452" />
      <path
         d="m 60,82 h 52 v 2 H 60 Z m 0,0"
         fill="#8ff0a4"
         id="path1454" />
      <path
         d="m 60,106 h 52 v 2 H 60 Z m 0,0"
         fill="#8ff0a4"
         id="path1456" />
      <path
         d="m 64,76 h 28 v 4 H 64 Z m 0,0"
         fill="#1d7b50"
         id="path1458" />
      <path
         d="m 64,88 h 44 v 8 H 96 v 4 H 64 Z m 0,0"
         fill="#26a269"
         id="path1460" />
      <path
         d="m 64,112 h 36 v 4 H 64 Z m 0,0"
         fill="#26a269"
         id="path1462" />
      <path
         d="m 10,76 h 24 c 3.3125,0 6,2.6875 6,6 v 4 c 0,3.3125 -2.6875,6 -6,6 H 10 C 6.6875,92 4,89.3125 4,86 v -4 c 0,-3.3125 2.6875,-6 6,-6 z m 0,0"
         fill="url(#c)"
         id="path1464" />
      <path
         d="m 10,44 h 24 c 3.3125,0 6,2.6875 6,6 v 32 c 0,3.3125 -2.6875,6 -6,6 H 10 C 6.6875,88 4,85.3125 4,82 V 50 c 0,-3.3125 2.6875,-6 6,-6 z m 0,0"
         fill="#33d17a"
         id="path1466" />
      <path
         d="m 4,54 h 36 v 2 H 4 Z m 0,0"
         fill="#8ff0a4"
         id="path1468" />
      <path
         d="m 4,74 h 36 v 2 H 4 Z m 0,0"
         fill="#8ff0a4"
         id="path1470" />
      <path
         d="m 8,48 h 22 v 4 H 8 Z m 0,0"
         fill="#1d7b50"
         id="path1472" />
      <path
         d="m 8,60 h 28 v 4 h -6 v 4 H 8 Z m 0,0"
         fill="#26a269"
         id="path1474" />
      <path
         d="m 8,80 h 24 v 4 H 8 Z m 0,0"
         fill="#26a269"
         id="path1476" />
      <path
         d="m 21,92 v 9 c 0,3.3125 2.6875,6 6,6 h 22"
         fill="none"
         stroke="#9a9996"
         stroke-linecap="round"
         stroke-linejoin="round"
         stroke-width="6"
         id="path1478" />
      <path
         d="M 60,107 44,98 v 18 z m 0,0"
         fill="#9a9996"
         id="path1480" />
      <path
         d="m 44.355469,57.671875 -3.679688,3.679687 c -0.90625,0.910157 -0.90625,2.378907 0,3.285157 l 3.679688,3.679687 c 0.90625,0.90625 2.375,0.90625 3.285156,0 l 3.679687,-3.679687 c 0.90625,-0.90625 0.90625,-2.375 0,-3.285157 l -3.679687,-3.679687 c -0.910156,-0.90625 -2.378906,-0.90625 -3.285156,0 z m 0,0"
         fill="#77767b"
         id="path1482" />
      <path
         d="m 40,60 h 12 v 3 H 40 Z m 0,0"
         fill="#77767b"
         id="path1484" />
      <path
         d="m 44.355469,54.675781 -3.679688,3.683594 c -0.90625,0.90625 -0.90625,2.375 0,3.28125 l 3.679688,3.683594 c 0.90625,0.90625 2.375,0.90625 3.285156,0 l 3.679687,-3.683594 c 0.90625,-0.90625 0.90625,-2.375 0,-3.28125 l -3.679687,-3.683594 c -0.910156,-0.90625 -2.378906,-0.90625 -3.285156,0 z m 0,0"
         fill="#deddda"
         id="path1486" />
      <path
         d="M 52,27 36,18 v 18 z m 0,0"
         fill="#9a9996"
         id="path1488" />
      <path
         d="m 100.35938,24.675781 -3.679692,3.679688 c -0.90625,0.90625 -0.90625,2.375 0,3.285156 l 3.679692,3.679687 c 0.91015,0.90625 2.3789,0.90625 3.28515,0 l 3.67969,-3.679687 c 0.90625,-0.910156 0.90625,-2.378906 0,-3.285156 l -3.67969,-3.679688 c -0.90625,-0.90625 -2.375,-0.90625 -3.28515,0 z m 0,0"
         fill="#77767b"
         id="path1490" />
      <path
         d="m 96.003906,27.003906 h 12.000004 v 3 H 96.003906 Z m 0,0"
         fill="#77767b"
         id="path1492" />
      <path
         d="m 100.35938,21.679688 -3.679692,3.679687 c -0.90625,0.910156 -0.90625,2.378906 0,3.285156 l 3.679692,3.679688 c 0.91015,0.90625 2.3789,0.90625 3.28515,0 l 3.67969,-3.679688 c 0.90625,-0.90625 0.90625,-2.375 0,-3.285156 l -3.67969,-3.679687 c -0.90625,-0.90625 -2.375,-0.90625 -3.28515,0 z m 0,0"
         fill="#deddda"
         id="path1494" />
    </g>
    <g
       aria-label="Gaphor"
       id="text6847"
       style="font-weight:bold;font-size:24.6944px;line-height:1.25;font-family:Poppins;-inkscape-font-specification:'Poppins, Bold';letter-spacing:0.04em;fill:#77767b;stroke-width:0.264583;fill-opacity:1">
      <path
         d="m 82.411515,106.34011 q -0.469194,-0.86431 -1.358192,-1.30881 -0.864304,-0.46919 -2.049635,-0.46919 -2.049636,0 -3.284356,1.35819 -1.23472,1.3335 -1.23472,3.58069 0,2.39536 1.284109,3.75355 1.308803,1.3335 3.580688,1.3335 1.555748,0 2.617607,-0.79022 1.086553,-0.79022 1.580441,-2.27189 h -5.358685 v -3.11149 h 9.186318 v 3.92641 q -0.469194,1.58044 -1.605136,2.93863 -1.111249,1.35819 -2.839857,2.1978 -1.728608,0.83961 -3.901715,0.83961 -2.568218,0 -4.593158,-1.11125 -2.000247,-1.13594 -3.136189,-3.13618 -1.111248,-2.00025 -1.111248,-4.56847 0,-2.56822 1.111248,-4.56846 1.135942,-2.02494 3.136189,-3.13619 2.000246,-1.13594 4.568464,-1.13594 3.111494,0 5.235213,1.50635 2.148413,1.50636 2.839856,4.17336 z"
         id="path13509"
         style="fill:#77767b;fill-opacity:1" />
      <path
         d="m 89.869202,111.27899 q 0,-2.12372 0.790221,-3.72886 0.814915,-1.60513 2.197802,-2.46944 1.382886,-0.8643 3.0868,-0.8643 1.45697,0 2.543523,0.59267 1.111248,0.59266 1.703912,1.55574 v -1.95086 h 4.22274 v 13.77948 h -4.22274 v -1.95086 q -0.617358,0.96308 -1.728606,1.55575 -1.086554,0.59267 -2.543523,0.59267 -1.67922,0 -3.062106,-0.86431 -1.382887,-0.889 -2.197802,-2.49413 -0.790221,-1.62983 -0.790221,-3.75355 z m 10.322258,0.0247 q 0,-1.58044 -0.888997,-2.49413 -0.864304,-0.91369 -2.123718,-0.91369 -1.259414,0 -2.148413,0.91369 -0.864304,0.889 -0.864304,2.46944 0,1.58044 0.864304,2.51883 0.888999,0.91369 2.148413,0.91369 1.259414,0 2.123718,-0.91369 0.888997,-0.9137 0.888997,-2.49414 z"
         id="path13511"
         style="fill:#77767b;fill-opacity:1" />
      <path
         d="m 112.6868,106.3648 q 0.61736,-0.96308 1.70392,-1.55574 1.08655,-0.59267 2.54352,-0.59267 1.70391,0 3.0868,0.8643 1.38289,0.86431 2.17311,2.46944 0.81491,1.60514 0.81491,3.72886 0,2.12372 -0.81491,3.75355 -0.79022,1.60513 -2.17311,2.49413 -1.38289,0.86431 -3.0868,0.86431 -1.43228,0 -2.54352,-0.59267 -1.08656,-0.59267 -1.70392,-1.53105 v 8.49487 h -4.22274 v -20.34819 h 4.22274 z m 6.02544,4.91419 q 0,-1.58044 -0.889,-2.46944 -0.86431,-0.91369 -2.14842,-0.91369 -1.25941,0 -2.14841,0.91369 -0.8643,0.91369 -0.8643,2.49413 0,1.58044 0.8643,2.49414 0.889,0.91369 2.14841,0.91369 1.25942,0 2.14842,-0.91369 0.889,-0.93839 0.889,-2.51883 z"
         id="path13513"
         style="fill:#77767b;fill-opacity:1" />
      <path
         d="m 134.68949,104.26578 q 2.37066,0 3.80294,1.58044 1.43227,1.55575 1.43227,4.29683 v 8.05037 h -4.19805 v -7.4824 q 0,-1.38289 -0.71614,-2.14842 -0.71613,-0.76552 -1.92616,-0.76552 -1.21002,0 -1.92616,0.76552 -0.71614,0.76553 -0.71614,2.14842 v 7.4824 h -4.22274 V 99.919564 h 4.22274 v 6.346456 q 0.64206,-0.91369 1.7533,-1.45696 1.11125,-0.54328 2.49414,-0.54328 z"
         id="path13515"
         style="fill:#77767b;fill-opacity:1" />
      <path
         d="m 150.12348,118.39098 q -2.02494,0 -3.65477,-0.86431 -1.60513,-0.8643 -2.54352,-2.46944 -0.91369,-1.60513 -0.91369,-3.75355 0,-2.12372 0.93838,-3.72885 0.93839,-1.62983 2.56822,-2.49414 1.62983,-0.8643 3.65477,-0.8643 2.02494,0 3.65477,0.8643 1.62983,0.86431 2.56822,2.49414 0.93839,1.60513 0.93839,3.72885 0,2.12372 -0.96308,3.75355 -0.93839,1.60514 -2.59291,2.46944 -1.62984,0.86431 -3.65478,0.86431 z m 0,-3.65478 q 1.21003,0 2.04964,-0.88899 0.8643,-0.889 0.8643,-2.54353 0,-1.65452 -0.83961,-2.54352 -0.81491,-0.889 -2.02494,-0.889 -1.23472,0 -2.04963,0.889 -0.81492,0.8643 -0.81492,2.54352 0,1.65453 0.79022,2.54353 0.81492,0.88899 2.02494,0.88899 z"
         id="path13517"
         style="fill:#77767b;fill-opacity:1" />
      <path
         d="m 164.79193,106.71052 q 0.74084,-1.13594 1.85208,-1.77799 1.11125,-0.66675 2.46944,-0.66675 v 4.46968 h -1.16063 q -1.58044,0 -2.37066,0.69145 -0.79023,0.66675 -0.79023,2.37066 v 6.39585 h -4.22274 v -13.77948 h 4.22274 z"
         id="path13519"
         style="fill:#77767b;fill-opacity:1" />
    </g>
  </g>
</svg>
