<?xml version="1.0" encoding="UTF-8"?>
<svg height="128px" viewBox="0 0 128 128" width="128px" xmlns="http://www.w3.org/2000/svg" xmlns:xlink="http://www.w3.org/1999/xlink">
    <clipPath id="a">
        <rect height="128" width="128"/>
    </clipPath>
    <clipPath id="b">
        <rect height="128" width="128"/>
    </clipPath>
    <filter id="c" height="100%" width="100%" x="0%" y="0%">
        <feColorMatrix in="SourceGraphic" type="matrix" values="0 0 0 0 1 0 0 0 0 1 0 0 0 0 1 0 0 0 1 0"/>
    </filter>
    <mask id="d">
        <g clip-path="url(#b)" filter="url(#c)">
            <g clip-path="url(#a)">
                <path d="m 17.984375 28.078125 l 43 -22.816406 c 1.460937 -0.777344 3.835937 -0.777344 5.300781 0 l 43 22.816406 c 1.460938 0.777344 1.460938 2.035156 0 2.8125 l -43 22.816406 c -1.464844 0.777344 -3.839844 0.777344 -5.300781 0 l -43 -22.816406 c -1.464844 -0.777344 -1.464844 -2.035156 0 -2.8125 z m 0 0" fill="#971232" fill-rule="evenodd"/>
                <path d="m 14.363281 33.660156 l 44.65625 23.9375 c 1.457031 0.78125 2.640625 2.757813 2.640625 4.414063 v 53.976562 c 0 1.65625 -1.183594 2.363281 -2.640625 1.582031 l -44.65625 -23.9375 c -1.460937 -0.78125 -2.644531 -2.757812 -2.644531 -4.417968 v -53.972656 c 0 -1.65625 1.183594 -2.363282 2.644531 -1.582032 z m 0 0" fill="#c7c000" fill-rule="evenodd"/>
                <path d="m 113.308594 33.617188 l -44.652344 23.9375 c -1.460938 0.78125 -2.644531 2.761718 -2.644531 4.417968 v 53.972656 c 0 1.65625 1.183593 2.367188 2.644531 1.582032 l 44.652344 -23.933594 c 1.460937 -0.785156 2.644531 -2.761719 2.644531 -4.417969 v -53.972656 c 0 -1.660156 -1.183594 -2.367187 -2.644531 -1.585937 z m 0 0" fill="#54006c" fill-rule="evenodd"/>
            </g>
        </g>
    </mask>
    <mask id="e">
        <g filter="url(#c)">
            <rect fill-opacity="0.8" height="128" width="128"/>
        </g>
    </mask>
    <linearGradient id="f" gradientTransform="matrix(0 0.37 -0.98462 0 295.38501 -30.360001)" gradientUnits="userSpaceOnUse" x1="300" x2="428" y1="235" y2="235">
        <stop offset="0" stop-color="#f9f06b"/>
        <stop offset="1" stop-color="#f5c211"/>
    </linearGradient>
    <clipPath id="g">
        <rect height="128" width="128"/>
    </clipPath>
    <clipPath id="h">
        <rect height="128" width="128"/>
    </clipPath>
    <g fill-rule="evenodd">
        <path d="m 17.984375 28.078125 l 43 -22.816406 c 1.460937 -0.777344 3.835937 -0.777344 5.300781 0 l 43 22.816406 c 1.460938 0.777344 1.460938 2.035156 0 2.8125 l -43 22.816406 c -1.464844 0.777344 -3.839844 0.777344 -5.300781 0 l -43 -22.816406 c -1.464844 -0.777344 -1.464844 -2.035156 0 -2.8125 z m 0 0" fill="#971232"/>
        <path d="m 14.363281 33.660156 l 44.65625 23.9375 c 1.457031 0.78125 2.640625 2.757813 2.640625 4.414063 v 53.976562 c 0 1.65625 -1.183594 2.363281 -2.640625 1.582031 l -44.65625 -23.9375 c -1.460937 -0.78125 -2.644531 -2.757812 -2.644531 -4.417968 v -53.972656 c 0 -1.65625 1.183594 -2.363282 2.644531 -1.582032 z m 0 0" fill="#c7c000"/>
        <path d="m 113.308594 33.617188 l -44.652344 23.9375 c -1.460938 0.78125 -2.644531 2.761718 -2.644531 4.417968 v 53.972656 c 0 1.65625 1.183593 2.367188 2.644531 1.582032 l 44.652344 -23.933594 c 1.460937 -0.785156 2.644531 -2.761719 2.644531 -4.417969 v -53.972656 c 0 -1.660156 -1.183594 -2.367187 -2.644531 -1.585937 z m 0 0" fill="#54006c"/>
    </g>
    <g clip-path="url(#h)" mask="url(#d)">
        <g clip-path="url(#g)" mask="url(#e)">
            <path d="m 128 80.640625 v 47.359375 h -128 v -47.359375 z m 0 0" fill="url(#f)"/>
            <path d="m 13.308594 80.640625 l 47.355468 47.359375 h 21.214844 l -47.359375 -47.359375 z m 42.421875 0 l 47.363281 47.359375 h 21.214844 l -47.363282 -47.359375 z m 42.429687 0 l 29.839844 29.839844 v -21.210938 l -8.628906 -8.628906 z m -98.160156 7.90625 v 21.214844 l 18.238281 18.238281 h 21.214844 z m 0 0"/>
        </g>
    </g>
</svg>
