<?xml version="1.0" encoding="UTF-8" standalone="no"?>
<svg
   version="1.0"
   width="300.000000pt"
   height="316.000000pt"
   viewBox="0 0 300.000000 316.000000"
   preserveAspectRatio="xMidYMid meet"
   id="svg4985"
   sodipodi:docname="RAAML.svg"
   inkscape:version="1.1.1 (3bf5ae0d25, 2021-09-20)"
   xmlns:inkscape="http://www.inkscape.org/namespaces/inkscape"
   xmlns:sodipodi="http://sodipodi.sourceforge.net/DTD/sodipodi-0.dtd"
   xmlns="http://www.w3.org/2000/svg"
   xmlns:svg="http://www.w3.org/2000/svg">
  <defs
     id="defs4989" />
  <sodipodi:namedview
     id="namedview4987"
     pagecolor="#ffffff"
     bordercolor="#666666"
     borderopacity="1.0"
     inkscape:pageshadow="2"
     inkscape:pageopacity="0.0"
     inkscape:pagecheckerboard="0"
     inkscape:document-units="pt"
     showgrid="false"
     inkscape:zoom="1.7064873"
     inkscape:cx="361.26843"
     inkscape:cy="193.37969"
     inkscape:window-width="2256"
     inkscape:window-height="1435"
     inkscape:window-x="0"
     inkscape:window-y="0"
     inkscape:window-maximized="1"
     inkscape:current-layer="g4983" />
  <metadata
     id="metadata4961">
Created by potrace 1.10, written by Peter Selinger 2001-2011
</metadata>
  <g
     transform="translate(0.000000,316.000000) scale(0.100000,-0.100000)"
     fill="#000000"
     stroke="none"
     id="g4983">
    <path
       d="M1250 3120 c-25 -16 -51 -29 -57 -29 -7 -1 -13 -4 -13 -8 0 -5 74 -63 163 -129 89 -67 250 -188 357 -270 468 -354 722 -544 740 -554 11 -6 20 -16 20 -22 0 -6 -9 -5 -22 4 -13 8 -117 56 -231 107 -115 50 -232 102 -260 115 -106 48 -151 68 -532 236 -214 95 -445 196 -513 226 l-123 54 -59 -32 c-33 -18 -60 -35 -60 -38 0 -3 22 -20 48 -37 26 -18 57 -41 67 -50 11 -10 90 -71 175 -135 187 -139 647 -487 820 -619 69 -52 140 -105 158 -118 l33 -23 75 45 75 44 -121 99 c-66 54 -126 101 -132 105 -7 5 -10 9 -8 11 3 2 29 16 58 31 l53 29 168 -84 169 -83 166 96 165 96 -119 98 c-65 54 -125 102 -132 106 -7 4 -10 9 -8 11 3 2 21 12 40 22 19 11 42 24 51 29 15 9 96 -20 349 -126 34 -15 37 -14 113 27 l77 43 -432 191 c-238 105 -621 275 -852 377 -230 102 -419 185 -420 184 0 0 -21 -13 -46 -29z m386 -146 c181 -81 385 -171 454 -201 125 -54 152 -66 245 -108 103 -47 163 -73 270 -120 61 -26 138 -60 171 -75 34 -16 84 -38 113 -50 28 -12 48 -26 45 -31 -2 -5 -26 -18 -51 -29 l-47 -21 -56 22 c-30 13 -64 28 -75 35 -11 6 -31 15 -45 19 -14 4 -50 19 -80 32 -88 40 -110 40 -169 2 -37 -25 -51 -40 -49 -54 2 -11 46 -55 98 -99 132 -110 131 -108 66 -142 l-53 -27 -36 27 c-21 16 -37 33 -37 38 0 5 -4 7 -8 4 -4 -2 -19 4 -32 15 -14 11 -68 52 -120 91 -52 38 -100 75 -105 82 -6 6 -18 16 -27 21 -10 6 -136 100 -280 210 -145 109 -336 253 -425 320 -89 66 -163 127 -165 135 -4 15 36 48 58 49 6 1 159 -65 340 -145z m-780 -180 c121 -53 150 -66 189 -84 92 -43 245 -110 250 -110 3 0 47 -20 98 -45 52 -25 97 -45 100 -45 3 0 34 -13 69 -29 35 -16 122 -55 193 -86 160 -70 206 -91 270 -120 28 -13 84 -38 125 -55 41 -18 112 -50 157 -71 46 -22 87 -39 92 -39 5 0 13 -5 17 -12 5 -8 2 -9 -10 -5 -10 4 -15 3 -11 -3 7 -11 -75 -60 -101 -60 -10 0 -88 34 -173 76 l-155 75 -39 -17 c-47 -22 -87 -52 -87 -66 0 -13 63 -72 148 -138 68 -53 88 -87 48 -84 -9 1 -15 -1 -12 -4 8 -7 -45 -42 -64 -42 -9 0 -29 11 -45 25 -29 24 -122 94 -620 468 -132 100 -247 187 -255 194 -8 8 -86 67 -174 132 -87 65 -158 122 -158 127 -1 11 52 42 73 43 9 1 43 -11 75 -25z"
       id="path4963" />
    <path
       d="m 1900,2745 c 0,-8 258,-131 285,-137 16,-3 12,-8 -21,-25 l -41,-22 -54,43 c -83,65 -150.2354,146.8934 -160.2354,146.8934 -18,0 -15.7646,-41.8934 96.2354,-126.8934 111,-83 116,-86 144,-74 45,18 67,46 51,65 -10,12 -131,75 -145,75 -3,0 -27,11 -54,24 -53,25 -101,40 -101,31 z"
       id="path4965"
       sodipodi:nodetypes="sccccscccscs" />
    <path
       d="m 1386,2441 c 11,-11 147,-78 226,-112 32,-13 58,-27 58,-30 0,-3 -15,-12 -33,-21 -33,-16 -33,-16 -93,29 -90,69 -153,140 -158,134 -3,-3 18,-55 61,-87 43,-33 84,-65 91,-72 8,-7 27,-19 42,-27 25,-13 32,-13 58,0 16,9 36,23 43,31 20,25 11,30 -207,128 -82,36 -106,44 -88,27 z"
       id="path4967"
       sodipodi:nodetypes="ccscccccccccc" />
    <path
       d="M275 2553 c-19 -5 -88 -44 -177 -100 -21 -13 -41 -23 -45 -23 -5 0 -16 -7 -26 -14 -15 -12 -3 -21 110 -87 71 -40 144 -82 163 -93 19 -10 79 -45 132 -77 54 -33 100 -59 103 -59 3 0 24 -12 48 -27 23 -14 172 -101 332 -193 253 -145 483 -279 565 -328 23 -13 29 -13 52 -1 14 8 49 27 78 42 l52 28 -48 26 c-26 14 -90 51 -143 82 -53 32 -127 75 -164 95 l-68 38 28 18 c34 21 17 26 293 -90 25 -10 87 -35 139 -56 l95 -37 35 22 c20 12 55 31 79 43 23 12 42 24 42 27 0 4 -102 47 -226 96 -282 113 -312 125 -351 138 -17 6 -38 23 -47 38 -74 126 -465 370 -721 451 -127 40 -265 57 -330 41z m200 -29 c33 -9 76 -20 95 -24 50 -10 214 -78 283 -117 33 -18 62 -33 65 -33 6 0 136 -82 194 -122 9 -6 15 -15 12 -20 -3 -5 -2 -7 3 -6 23 6 106 -58 96 -75 -3 -6 -2 -7 4 -4 10 6 80 -61 76 -73 -4 -12 69 -47 217 -105 80 -31 155 -63 167 -71 12 -8 27 -14 33 -14 6 0 44 -14 85 -31 53 -22 72 -35 71 -47 -4 -22 -86 -66 -100 -52 -5 5 -17 10 -25 10 -18 0 -322 122 -363 145 -46 26 -110 30 -137 8 -15 -12 -22 -26 -18 -36 5 -13 109 -81 167 -109 53 -26 194 -115 197 -124 2 -7 -17 -24 -43 -38 -37 -20 -49 -24 -56 -14 -4 7 -8 10 -8 6 0 -4 -55 25 -122 64 -68 39 -148 84 -178 101 -30 16 -62 36 -71 43 -8 8 -18 14 -22 14 -17 0 -116 68 -109 75 4 5 1 5 -7 0 -7 -4 -16 -4 -20 1 -3 5 -22 17 -41 26 -19 10 -42 22 -50 27 -8 6 -69 41 -135 79 -66 38 -165 95 -220 127 -55 32 -125 72 -156 89 -176 98 -298 172 -295 181 3 11 73 54 166 101 76 39 149 44 245 18z"
       id="path4969" />
    <path
       d="M625 2311 c-22 -10 -49 -28 -60 -40 -20 -23 -20 -23 0 -38 11 -8 19 -19 17 -24 -1 -6 2 -8 8 -4 6 4 22 0 35 -9 23 -15 45 -28 142 -82 23 -13 53 -24 66 -24 32 0 107 55 107 78 0 32 -78 93 -165 129 -78 32 -105 35 -150 14z m109 -17 c92 -32 206 -110 192 -133 -4 -5 -27 -21 -52 -35 l-45 -25 -120 69 c-66 39 -124 70 -129 70 -23 0 -7 20 33 43 51 30 61 31 121 11z"
       id="path4971" />
    <path
       d="M 10,1587 V 865 l 147,-85 c 81,-47 162,-95 180,-107 l 33,-22 v 331 c 0,221 22.92359,329.7382 15.92359,322.7382 C 379.92359,1298.7382 350,1182 349,1002 c 0,-160 -3,-293 -7,-296 -4,-2 -74,35 -157,83 l -150,87 -3,698 c -2,557 0,697 10,693 7,-2 12,-13 10,-23 -2,-14 -1,-16 6,-5 8,11 19,8 56,-15 26,-16 59,-35 74,-43 15,-8 45,-26 67,-40 22,-14 53,-33 70,-42 22,-12 36,-34 56,-85 36,-90 128,-332 175,-459 20,-55 50,-134 66,-175 16,-41 43,-112 59,-157 17,-45 37,-84 46,-87 15,-6 66,31 70,50 3,16 304,454 311,454 4,0 79,-42 167,-93 l 160,-93 2,-678 c 2,-373 -1,-684 -5,-692 -6,-10 -17,-7 -52,15 -25,15 -65,39 -90,53 -133,74 -159,90 -163,102 -3,7 -6,149 -6,315 -1,165 -4,308 -7,316 -11,28 -34,15 -62,-32 -15,-26 -37,-57 -49,-70 -13,-13 -22,-26 -21,-29 0,-3 -4,-13 -11,-23 -6,-9 -34,-52 -61,-95 -42,-68 -91,-133 -65,-87 5,9 4,12 -3,7 -10,-6 -46,8 -62,24 -8,8 -40,27 -88,51 -23,13 -48,30 -56,38 -8,9 -34,72 -59,141 -25,69 -59,163 -76,210 -17,46 -29,90 -26,98 2,7 1,11 -4,8 -5,-3 -18,22 -30,55 -35,95 -52,132 -58,126 -5,-6 9,-58 32,-117 8,-19 34,-91 59,-160 24,-69 49,-136 54,-150 6,-14 27,-71 47,-127 l 37,-102 120,-71 c 121,-70 138,-78 138,-61 0,6 14,30 30,55 17,25 69,107 115,182 l 85,138 V 563 232 l 153,-88 c 83,-48 164,-96 180,-106 l 27,-19 v 723 723 l -172,100 c -95,55 -177,101 -182,103 -6,1 -29,-24 -50,-55 -22,-32 -102,-151 -180,-265 l -140,-208 -23,63 c -13,34 -41,107 -62,162 -43,112 -152,398 -186,490 -45,121 -76,201 -88,224 -7,13 -52,47 -102,75 -50,29 -129,76 -177,104 l -88,52 z"
       id="path4973"
       sodipodi:nodetypes="cccscsscccccccccsscccscccsccccccccccccccccsccsccsccccccccsccccccccccccccccccccccc" />
    <path
       d="M2663 1965 c-134 -33 -291 -138 -420 -282 -127 -142 -248 -319 -237 -347 3 -9 9 -16 13 -16 11 0 54 50 86 100 116 184 301 364 437 427 35 16 96 36 136 43 74 13 114 9 253 -25 33 -9 61 18 57 53 -3 22 -12 28 -68 44 -74 21 -180 22 -257 3z m240 -27 c51 -10 58 -14 55 -32 -2 -12 -9 -20 -18 -18 -8 2 -22 5 -30 7 -8 2 -28 8 -43 14 -16 6 -65 11 -110 11 -101 0 -210 -34 -295 -90 -56 -38 -70 -50 -161 -134 -25 -23 -38 -32 -30 -21 51 70 199 186 276 218 32 13 67 28 78 32 77 32 158 36 278 13z m-670 -312 c-10 -13 -20 -22 -22 -20 -4 4 29 44 36 44 2 0 -4 -11 -14 -24z"
       id="path4975" />
    <path
       d="m 2636,1804 c -76,-22 -92,-29 -159,-68 -135,-80 -311,-285 -444,-519 -18,-33 -33,-65 -33,-72 0,-34 166,-94 260,-95 59,0 147,23 213,56 105,54 197,139 347,321 17,21 138,211 154,242 24,45 20,67 -16,89 -81,49 -234,70 -322,46 z m 193,-25 c 65,-15 131,-47 131,-65 0,-17 -28,-74 -36,-74 -3,0 -2,5 1,10 12,20 -6,48 -38,60 -18,6 -40,16 -49,21 -9,5 -34,11 -56,15 -43,7 -70,-13 -57,-43 17,-42 23,-242.7917 8,-280.7917 -5,-14 -8,67.7917 -8,122.7917 0,90 -11,116 -67,158 -89,66 -250,-27 -338,-196 -25,-47 -48,-81 -51,-75 -4,6 -15,-12 -25,-38 -25,-64 -26,-176 -1,-223 9,-19 17,-35 17,-37 0,-4 -123,33 -152,46 l -26,12 29,50 c 16,27 46,72 67,101 21,29 84,77 91,89 23,42 0,0 -73,-28 -54,-70 -44,-42 12,35 135,185 305,317 432,337 19,3 37,8 39,10 8,8 106,3 150,-7 z m -1,-75 c 42,-14 78,-27 80,-29 4,-4 -63,-114 -116,-189 -39.1102,-56.1146 -57.3146,-84.2241 -30.1366,-57.0932 4.7877,4.7795 22.2468,12.8554 29.1366,21.0932 43,50 35,26 -8,-28 -63,-78 -154,-175 -207,-218 -51,-42 -146,-100 -146,-89 0,3 -12,-2 -27,-12 -20,-13 -51,-18 -123,-20 -100,-2 -133,4 -208,40 -35,16 -41,24 -36,41 8,27 25,44 30,31 11,-28 26,-38 92,-61 58,-20 76,-22 93,-13 16,8 20,17 15,37 -24,108 -26,129 -16,181 5,30 11,55 13,57 1,1 2,-28 2,-65 0,-114 44,-179 129,-188 89,-10 221,93 286,223 19,38 31.8581,63.8539 37.8581,62.8539 C 2737.2876,1391.1787 2783,1422 2770,1540 c 11,56 0,129 -26,168 -19,28 -11,28 84,-4 z m -175,-24 c 14,-11 33,-41 43,-66 15,-39 16,-54 6,-106 -27,-143 -141,-296 -249,-332 -46,-15 -55,-16 -87,-2 -50,21 -76,68 -76,137 0,217 242,464 363,369 z m 228,-117 c -12,-20 -14,-14 -5,12 4,9 9,14 11,11 3,-2 0,-13 -6,-23 z m -41,-63 c 0,-5 -5,-10 -11,-10 -5,0 -7,5 -4,10 3,6 8,10 11,10 2,0 4,-4 4,-10 z m -702,-170 c -7,-10 -14,-17 -17,-15 -4,4 18,35 25,35 2,0 -1,-9 -8,-20 z"
       id="path4977"
       sodipodi:nodetypes="cccscccccccssscscccscccccscccsccccsccscscccscccccccccsscscccccccccscsccssscssccsc" />
    <path
       d="M2472 1569 c-28 -21 -52 -52 -77 -101 -38 -76 -44 -122 -20 -167 25 -50 63 -54 123 -13 106 71 163 230 105 294 -26 29 -82 23 -131 -13z m112 -5 c18 -17 19 -30 7 -89 l-9 -40 -1 38 c-1 42 -17 64 -47 67 -33 4 -41 1 -68 -26 -14 -15 -26 -22 -26 -17 0 16 56 64 86 73 41 12 41 12 58 -6z m-24 -91 c0 -67 -69 -141 -108 -117 -39 25 -13 110 46 153 37 27 62 12 62 -36z m-138 -15 c-7 -7 -12 -28 -12 -48 0 -93 90 -110 140 -27 11 18 20 26 20 19 0 -7 -18 -32 -40 -56 -43 -47 -88 -63 -122 -45 -19 10 -20 18 -15 75 6 58 25 110 36 98 3 -2 -1 -10 -7 -16z"
       id="path4979" />
    <path
       d="M1897 1666 c-10 -8 -92 -56 -182 -108 l-165 -93 0 -722 0 -722 63 38 c73 44 512 298 607 351 36 20 103 59 150 87 47 27 198 115 335 193 138 79 256 148 263 155 9 8 12 57 10 202 l-3 192 -355 -205 c-195 -113 -429 -248 -520 -301 -91 -53 -168 -98 -173 -100 -4 -3 -6 232 -5 521 2 289 1 526 -2 526 -3 0 -13 -7 -23 -14z m2 -528 c1 -413 3 -505 15 -516 13 -14 62 11 331 168 17 10 57 33 90 52 246 142 345 200 450 262 66 39 132 76 147 83 l28 12 0 -170 0 -170 -32 -12 c-18 -6 -36 -10 -40 -9 -5 1 -7 -3 -5 -9 2 -12 -118 -81 -127 -72 -3 4 -6 2 -6 -4 0 -12 -108 -76 -127 -76 -7 0 -11 -3 -8 -5 3 -3 -22 -21 -55 -39 -33 -19 -61 -33 -62 -31 -2 2 -10 -3 -18 -10 -24 -21 -270 -161 -270 -154 0 4 -4 2 -8 -4 -4 -6 -27 -22 -52 -36 -117 -66 -389 -223 -420 -243 -81 -50 -142 -85 -149 -85 -4 0 -8 310 -9 689 -2 539 1 691 11 698 6 6 37 23 67 39 30 16 57 32 60 35 3 3 12 9 20 12 11 5 134 76 167 96 0 1 1 -225 2 -501z"
       id="path4981" />
    <path
       style="fill:#0000ff;stroke-width:0.293"
       d="m 188.5452,410.38926 c -0.56402,-0.2037 -3.79434,-2.0208 -7.17849,-4.038 -3.38414,-2.0172 -9.97663,-5.82305 -14.64997,-8.45745 -13.45017,-7.58196 -15.72584,-9.07192 -16.24129,-10.63375 -0.40711,-1.23357 -0.8831,-23.09758 -0.89754,-41.22761 -0.0116,-14.55205 -0.45085,-38.59344 -0.75641,-41.39977 -0.25077,-2.30302 -1.25834,-3.55953 -2.67057,-3.33035 -1.82667,0.29642 -3.62571,2.2433 -6.67748,7.22618 -1.73924,2.83981 -4.55853,6.69474 -7.15082,9.77762 -0.79552,0.94607 -1.52472,2.13763 -1.62045,2.6479 -0.0957,0.51028 -0.98407,2.17544 -1.97409,3.70036 -0.99002,1.52493 -3.90274,6.06884 -6.47272,10.09758 -4.48987,7.0384 -8.9469,13.62448 -9.22017,13.62448 -0.0717,0 -0.0392,-0.41535 0.0723,-0.92299 0.18184,-0.82788 0.1465,-0.89647 -0.34297,-0.66569 -1.76932,0.83423 -5.62733,-0.41176 -8.38435,-2.70783 -1.63348,-1.36037 -4.441804,-3.05257 -9.827712,-5.92184 -3.881037,-2.06757 -7.790134,-4.52066 -9.099485,-5.71024 -1.660935,-1.50901 -4.974235,-9.72914 -13.892787,-34.46733 -6.762054,-18.75652 -7.911019,-22.35206 -7.989866,-25.00324 -0.04421,-1.48652 -0.142479,-1.75489 -0.752627,-2.0553 -1.040035,-0.51208 -2.38068,-3.28843 -5.385314,-11.1525 -2.979258,-7.79764 -4.772312,-11.76859 -5.688358,-12.5976 -0.706351,-0.63924 -0.56025,-0.97235 -1.601556,3.65161 -1.696341,7.53271 -2.884519,16.68268 -3.384183,26.06106 -0.158835,2.98127 -0.369164,13.46333 -0.467398,23.29347 -0.170274,17.03906 -0.460537,26.34521 -0.833347,26.71802 -0.440193,0.44019 -11.156692,-5.38047 -29.635552,-16.09655 L 4.9809921,304.5127 4.7809688,286.37689 c -0.1100129,-9.9747 -0.2409429,-49.18644 -0.2909556,-87.13721 -0.088978,-67.5184 0.00187,-76.30007 0.8206516,-79.32962 0.4749902,-1.75749 1.7125813,0.49695 1.4241291,2.59425 -0.2302297,1.67397 0.1046345,1.85462 1.0296938,0.5555 1.0909454,-1.5321 2.0058995,-1.26966 7.9854203,2.29046 2.16138,1.28685 5.962491,3.49258 8.446914,4.90162 2.484423,1.40904 7.022279,4.10441 10.084124,5.98972 3.061845,1.88531 6.671081,4.07467 8.020525,4.86525 2.964608,1.73683 4.271324,3.15748 5.987821,6.50993 1.929364,3.76819 9.98843,24.55007 22.802774,58.80138 3.376265,9.02439 8.698684,23.13232 11.827594,31.35095 3.128913,8.21864 6.361269,16.78888 7.183018,19.04497 1.742305,4.78346 4.892088,11.36779 5.992011,12.52573 0.973822,1.0252 1.697059,1.01384 3.844605,-0.0604 2.958946,-1.4801 5.044676,-3.39894 6.431356,-5.91679 1.57255,-2.8553 5.12639,-8.3163 12.84195,-19.73354 11.24346,-16.63771 26.00338,-37.78183 27.83844,-39.87956 l 0.74126,-0.84737 2.85053,1.465 c 3.17312,1.63079 15.6953,8.76185 30.61323,17.43347 l 9.82902,5.71349 0.19492,35.74594 c 0.27143,49.77408 0.2252,121.70321 -0.087,135.35409 -0.23759,10.38884 -0.30754,11.44926 -0.77794,11.79323 -0.61489,0.44961 -0.57362,0.45001 -1.86988,-0.0181 z"
       id="path6035"
       transform="matrix(7.5,0,0,-7.5,0,3160)" />
    <path
       style="fill:#0000ff;stroke-width:0.293"
       d="m 199.96058,211.53324 c -0.44523,-0.47661 -1.10822,-0.86657 -1.47331,-0.86657 -0.93498,0 -5.55386,-2.48719 -22.83405,-12.29578 -8.29921,-4.7108 -16.7376,-9.49671 -18.75197,-10.63536 -3.80597,-2.15137 -6.43054,-3.82927 -8.23159,-5.2625 -0.5792,-0.46091 -1.8977,-1.13558 -2.92999,-1.49925 -3.66,-1.28941 -13.49214,-8.11201 -13.69051,-9.49995 -0.11122,-0.77819 -0.23662,-0.79327 -1.65798,-0.19938 -0.90591,0.37851 -1.17913,0.39092 -1.61271,0.0733 -2.40251,-1.76024 -3.66272,-2.52766 -7.49134,-4.56197 -2.40917,-1.2801 -5.30326,-2.89382 -6.43131,-3.58604 -3.4671,-2.12758 -58.075876,-33.59541 -67.096896,-38.664 C 25.416927,111.9825 12.853571,104.42764 9.665767,101.62871 8.6540847,100.74044 8.6388345,100.69643 9.1462373,100.12934 10.607828,98.495812 18.962027,93.476299 27.834956,88.900461 c 8.967374,-4.624545 13.736987,-5.981592 21.023493,-5.981592 4.880587,0 8.672482,0.573053 15.652299,2.365467 3.089812,0.793463 7.902329,2.017633 10.694483,2.720378 5.717704,1.439065 12.525672,3.906455 22.217115,8.052077 6.248934,2.673051 9.948074,4.468059 22.560964,10.947689 6.41655,3.29638 12.0491,6.72504 24.04226,14.63506 4.90067,3.23221 5.96493,4.26285 5.64909,5.47064 -0.14236,0.54436 -0.0439,0.63863 0.67318,0.64457 2.1434,0.0178 6.49403,2.58668 9.87839,5.83294 2.27492,2.18208 2.9204,3.21246 2.66069,4.24724 -0.16135,0.64286 -0.0904,0.71365 0.69301,0.69138 0.97991,-0.0279 1.99497,0.61455 4.70746,2.97926 2.51522,2.19274 4.97463,5.19738 5.32816,6.50939 0.61934,2.29851 6.32914,5.06421 30.16563,14.61152 13.12649,5.2576 17.58653,7.17329 21.79241,9.36035 1.55365,0.80789 3.0626,1.4689 3.35322,1.4689 1.15048,0 12.36577,4.25854 16.0208,6.08325 2.36517,1.18076 4.42004,2.64661 4.7619,3.39691 0.25467,0.55893 0.20744,0.87985 -0.23706,1.61076 -1.29635,2.1317 -7.68658,5.80299 -10.62927,6.1067 -1.31441,0.13566 -1.72703,0.0581 -2.42756,-0.45621 -0.4642,-0.3408 -1.50324,-0.74462 -2.30899,-0.89737 -4.65421,-0.88234 -39.60189,-14.75203 -48.79436,-19.36503 -4.6311,-2.32399 -6.47476,-2.7785 -11.27055,-2.7785 -3.66122,0 -4.25941,0.0725 -5.56699,0.67425 -2.56421,1.18017 -4.24849,3.20745 -4.24849,5.11371 0,1.09707 0.66052,1.83238 3.66249,4.07722 4.54365,3.39769 11.34323,7.55075 18.69637,11.4194 7.74673,4.07573 22.31581,13.08866 25.3689,15.69406 l 0.99434,0.84854 -0.97252,1.10763 c -1.69486,1.93034 -7.184,5.19903 -10.06644,5.9944 -1.07085,0.29548 -1.18793,0.26231 -1.9488,-0.55221 z M 115.0913,141.59195 c 4.16109,-1.95399 8.89583,-5.80407 10.00049,-8.13198 0.44079,-0.92889 0.47225,-1.28793 0.19417,-2.21608 -1.18106,-3.94202 -8.38025,-9.75784 -17.75513,-14.34336 -11.411201,-5.58155 -17.127795,-6.69281 -22.856519,-4.44314 -5.683116,2.23177 -12.054273,7.44594 -11.444741,9.36641 0.09267,0.29198 0.829813,1.0352 1.638099,1.65161 1.778042,1.35595 2.630708,2.49422 2.630708,3.51187 0,0.81634 0.506022,0.98075 1.455171,0.47278 0.85095,-0.45542 2.753378,0.2825 6.162817,2.39043 3.063507,1.89406 15.948775,9.22528 18.458975,10.50244 5.06021,2.57459 7.99857,2.89073 11.51596,1.23902 z"
       id="path6074"
       transform="matrix(7.5,0,0,-7.5,0,3160)" />
    <path
       style="fill:#0000ff;stroke-width:0.293"
       d="m 259.29621,176.40767 c -0.96229,-0.48132 -2.60664,-1.56711 -3.65411,-2.41288 -3.39214,-2.73893 -20.56077,-15.72963 -53.17942,-40.23837 C 161.38925,102.895 143.16586,89.084391 136.97728,84.128239 135.28521,82.773137 128.42902,77.571835 121.74131,72.569793 105.80961,60.653758 96.183184,53.105706 94.81453,51.456578 c -0.342726,-0.412959 -0.257611,-0.601088 0.6458,-1.427402 1.376917,-1.259411 3.86256,-2.74525 6.11344,-3.65442 2.34607,-0.947622 3.76082,-0.815646 7.86156,0.733375 3.67126,1.386793 18.98641,8.10553 31.20445,13.689359 14.61426,6.678938 26.87503,12.048975 33.10895,14.501226 0.96689,0.380351 4.92239,2.200054 8.78998,4.04378 10.02143,4.777328 13.65994,6.42027 16.99397,7.673494 1.6115,0.605741 8.08278,3.412322 14.38063,6.236844 6.29785,2.824521 17.37323,7.737576 24.61196,10.917896 7.23873,3.18032 19.1605,8.48321 26.49281,11.78418 7.33231,3.30098 16.16625,7.22707 19.63097,8.72465 3.46472,1.49758 10.25498,4.5306 15.08948,6.74005 13.55317,6.19404 16.8147,7.62987 19.19147,8.44866 2.01485,0.69413 3.22299,1.55746 3.22299,2.30314 0,0.16721 -0.28522,0.21161 -0.65925,0.10263 -0.36259,-0.10564 -1.10717,-0.27327 -1.65464,-0.37251 -0.95033,-0.17226 -0.98691,-0.14666 -0.80817,0.5655 0.15473,0.6165 -0.0186,0.9319 -0.99905,1.81765 -2.31702,2.09329 -7.5253,4.97444 -10.61718,5.87327 l -1.66133,0.48297 -3.44692,-1.37565 c -4.75551,-1.8979 -12.36823,-5.43767 -27.3097,-12.69849 -9.04614,-4.39597 -12.90317,-6.13244 -13.33148,-6.00195 -1.47789,0.45026 -9.15566,4.30457 -10.94721,5.49559 -4.1706,2.77261 -5.87999,4.74677 -5.33998,6.16711 0.70969,1.86661 7.98816,8.62423 17.589,16.33034 8.02853,6.44408 11.5564,10.23315 10.96431,11.77611 -0.20539,0.53522 -1.05424,0.76862 -2.81411,0.77375 -1.27364,0.004 -1.37895,0.0612 -1.465,0.79984 -0.1092,0.9374 -2.01184,2.48447 -4.9272,4.0064 -2.81829,1.47125 -3.3735,1.52174 -5.42887,0.4937 z m -41.21659,-55.4309 c 2.26266,-1.10092 5.79247,-3.71847 6.53675,-4.84737 1.43518,-2.17682 0.24802,-3.42846 -6.47822,-6.83012 -7.63126,-3.85937 -27.07897,-12.581961 -31.27886,-14.02906 -2.5946,-0.893985 -3.79802,-0.777697 -2.56258,0.247629 0.24172,0.200614 0.4395,0.616067 0.4395,0.92323 0,0.79252 1.60452,3.893271 3.08524,5.962261 1.68555,2.35518 3.5966,4.13863 8.48824,7.92151 2.2561,1.74472 5.35457,4.18204 6.88549,5.41626 4.0531,3.2676 7.41373,5.35157 9.96198,6.17754 1.14957,0.37261 2.9152,0.0348 4.92246,-0.94188 z"
       id="path6113"
       transform="matrix(7.5,0,0,-7.5,0,3160)" />
    <path
       style="fill:#0000ff;stroke-width:0.293"
       d="m 326.81777,135.3263 c -3.36383,-2.54756 -6.38697,-5.4431 -6.61237,-6.33325 -0.13458,-0.53148 -0.37373,-0.65994 -1.23392,-0.66278 -1.45898,-0.005 -2.55386,-0.68771 -8.98125,-5.6016 -3.06004,-2.33947 -9.18958,-6.96475 -13.6212,-10.2784 -4.43162,-3.31366 -9.11228,-6.9609 -10.40148,-8.10498 -1.2892,-1.14408 -3.33287,-2.76753 -4.5415,-3.60765 C 279.34667,99.292248 257.88015,83.185033 241.57812,70.838085 237.4688,67.725741 225.27269,58.532008 214.47566,50.40757 175.54861,21.116149 171.68706,18.136064 167.3177,14.014251 l -2.29936,-2.169089 0.52092,-1.097744 c 0.67183,-1.415785 2.74485,-3.198108 5.0586,-4.3492425 l 1.83012,-0.9105222 1.83237,0.6580124 c 4.62146,1.6595872 25.87132,10.8619693 56.18379,24.3307323 23.83773,10.591844 40.49402,17.935833 57.13491,25.19158 6.20426,2.70518 17.93889,7.914999 26.07695,11.577379 8.13807,3.662383 21.12527,9.424681 28.86046,12.805114 7.73519,3.380432 17.62392,7.732785 21.97496,9.671897 4.35105,1.939112 10.87761,4.822977 14.50348,6.408588 7.51566,3.286638 9.90627,4.473594 11.22129,5.571414 0.81253,0.67833 0.87612,0.83219 0.52087,1.26025 -0.60151,0.72477 -3.45157,2.23631 -8.28564,4.39431 l -4.30796,1.92315 -3.3579,-1.31296 c -4.76898,-1.86471 -10.14311,-4.23612 -13.89127,-6.12973 -1.77352,-0.896 -4.54471,-2.088598 -6.15821,-2.65022 -1.61349,-0.561619 -6.03708,-2.336 -9.83019,-3.943071 -8.83985,-3.745275 -10.47647,-4.252847 -13.66991,-4.239515 -3.83283,0.016 -6.95387,1.39476 -12.33362,5.448525 -4.27699,3.222805 -4.95401,4.936341 -2.94831,7.462161 1.87773,2.36468 8.07336,8.15895 14.56087,13.61761 7.86999,6.62188 9.83568,8.4387 10.94954,10.12032 1.14933,1.73518 1.1376,2.29701 -0.0718,3.4376 -0.86039,0.81145 -10.94989,6.32598 -11.57415,6.32598 -0.13226,0 -1.4826,-0.94071 -3.00076,-2.09048 z M 288.24065,80.738278 c 2.48145,-1.221755 4.68107,-2.981709 5.35471,-4.284397 0.71835,-1.389137 0.55744,-3.12206 -0.37607,-4.050097 -1.69557,-1.685627 -14.75634,-8.546721 -18.46847,-9.701874 -1.01241,-0.315045 -3.64941,-1.417506 -5.85999,-2.449913 -6.83879,-3.193909 -12.87359,-5.502039 -14.56723,-5.571521 -0.81175,-0.0333 -0.88595,0.04794 -0.96989,1.061833 -0.28139,3.399252 5.26825,9.380064 16.49886,17.780701 7.12069,5.326359 8.44303,6.249621 10.84099,7.5692 2.40697,1.324537 4.32029,1.234809 7.54709,-0.353932 z"
       id="path6152"
       transform="matrix(7.5,0,0,-7.5,0,3160)" />
    <path
       style="fill:#0000ff;stroke-width:0.293"
       d="m 210.69708,408.3681 c -0.72158,-12.15137 -1.3295,-135.69495 -0.789,-160.34399 0.30338,-13.83522 0.56182,-18.82036 1.05649,-20.37892 0.20636,-0.65017 1.63302,-1.5309 9.22458,-5.69468 3.14242,-1.72354 6.66492,-3.78084 7.82777,-4.57178 1.16285,-0.79094 2.20085,-1.43807 2.30666,-1.43807 0.25935,0 6.66815,-3.62022 15.16707,-8.56762 3.84397,-2.23765 7.05611,-4.00137 7.1381,-3.91937 0.082,0.082 0.2625,25.83401 0.40111,57.2267 0.32223,72.97396 0.48554,77.62924 2.7432,78.19588 2.75257,0.69085 8.12628,-2.13511 48.50696,-25.50917 34.99243,-20.2551 45.97336,-26.63704 58.89291,-34.22762 17.35061,-10.19394 24.24114,-14.10964 27.98145,-15.90112 l 3.223,-1.5437 0.0751,22.43844 c 0.0413,12.34114 0.0217,22.49183 -0.0436,22.55708 -0.39586,0.39585 -7.20134,2.49604 -8.53387,2.63356 -1.52978,0.15789 -1.60614,0.20529 -1.60614,0.99697 0,0.64902 -0.32497,1.08806 -1.48276,2.00324 -2.25675,1.78386 -6.47741,4.31545 -10.38372,6.22823 -2.92282,1.43121 -3.69607,1.69508 -4.58337,1.56406 -0.95391,-0.14086 -1.08694,-0.0797 -1.25145,0.57582 -0.46202,1.84081 -13.28221,9.59168 -16.91361,10.22568 -0.68996,0.12046 -1.11642,0.37724 -1.20798,0.72734 -0.0778,0.29763 -0.85049,1.07068 -1.71703,1.71789 -2.9797,2.2255 -12.70158,7.51644 -13.97771,7.60709 -0.37521,0.0267 -1.23224,0.49749 -1.9045,1.04631 -4.12144,3.36467 -33.69566,20.27878 -35.95794,20.56509 -0.51216,0.0648 -1.10594,0.36732 -1.31951,0.67223 -0.76961,1.09878 -4.93022,3.66616 -18.74746,11.56847 -20.41374,11.67495 -35.63054,20.51548 -43.64522,25.35664 -13.07858,7.89993 -19.32882,11.48557 -20.02089,11.48557 -0.14461,0 -0.351,-1.48331 -0.45866,-3.29625 z"
       id="path6191"
       transform="matrix(7.5,0,0,-7.5,0,3160)" />
    <path
       style="fill:#ff6600;stroke-width:0.293"
       d="m 303.69402,197.16311 c 0,-0.19123 2.34033,-2.67779 5.20074,-5.52568 8.55952,-8.52205 19.9407,-17.11348 28.12066,-21.22771 3.65936,-1.84054 15.00217,-6.44954 18.03611,-7.32874 5.02763,-1.45695 7.49792,-1.75859 14.42089,-1.76089 6.82728,-0.002 9.74804,0.2961 17.43347,1.7809 6.28223,1.21371 7.32499,1.72927 7.32499,3.62164 0,1.33686 -0.93835,2.6311 -1.90759,2.6311 -1.09601,0 -4.38401,-0.82506 -8.2009,-2.05786 -4.89691,-1.58163 -7.55127,-1.89687 -15.96847,-1.89648 -5.55454,2.6e-4 -7.90761,0.12066 -10.40149,0.53219 -11.98911,1.97839 -22.22184,6.12197 -32.1103,13.00255 -4.17965,2.90828 -7.97827,6.07948 -15.26765,12.74588 -6.13217,5.60809 -6.68046,6.05811 -6.68046,5.4831 z"
       id="path6345"
       transform="matrix(7.5,0,0,-7.5,0,3160)" />
    <path
       style="fill:#ff6600;stroke-width:0.293"
       d="m 295.19703,206.68468 c 0,-0.61101 3.37234,-4.808 3.8633,-4.808 0.15187,0 -0.26519,0.77169 -0.92679,1.71487 -1.27347,1.81546 -2.93651,3.5672 -2.93651,3.09313 z"
       id="path6384"
       transform="matrix(7.5,0,0,-7.5,0,3160)" />
    <path
       style="fill:#ff6600;stroke-width:0.293"
       d="m 322.88549,248.34675 c -3.70193,-1.17077 -4.10206,-1.90168 -3.86237,-7.05536 0.27297,-5.86905 1.4804,-11.82424 3.01196,-14.85526 0.75812,-1.50035 1.19898,-1.91362 1.60657,-1.50602 0.1588,0.1588 -0.13956,0.89447 -0.74201,1.82956 -1.19708,1.85807 -1.6282,3.6433 -1.61849,6.70213 0.0122,3.85217 0.93244,6.49648 2.96971,8.53375 1.65526,1.65526 3.22738,2.18027 6.02796,2.01304 3.73592,-0.22309 6.47794,-2.06384 9.37486,-6.29345 1.86971,-2.72987 2.71628,-3.6757 2.71628,-3.03479 0,1.14985 -5.42481,7.67977 -8.36697,10.07143 -2.13516,1.73566 -5.03355,3.23518 -7.10318,3.67492 -1.90743,0.40528 -2.51851,0.39311 -4.01432,-0.08 z"
       id="path6501"
       transform="matrix(7.5,0,0,-7.5,0,3160)" />
    <path
       style="fill:#ff6600;stroke-width:0.293"
       d="m 344.31432,225.17014 c -0.49656,-7.04894 -2.61736,-9.37227 -8.55761,-9.37483 -3.1338,-0.001 -3.51021,0.19003 -7.40304,3.76405 -1.34266,1.23271 -2.56529,2.24129 -2.71697,2.24129 -0.57395,0 0.77366,-1.9725 2.51955,-3.6879 2.07177,-2.03556 4.9169,-4.13854 7.04551,-5.20768 1.88466,-0.94662 6.11202,-2.04113 6.90787,-1.78853 0.83711,0.26568 2.75812,2.03398 3.44127,3.16769 0.30621,0.50816 0.64268,1.40768 0.74772,1.99892 0.20385,1.14748 -0.38788,5.62611 -1.25161,9.47299 l -0.52628,2.344 z"
       id="path6540"
       transform="matrix(7.5,0,0,-7.5,0,3160)" />
    <path
       style="fill:#ff6600;stroke-width:0.414364"
       d="m 289.85993,236.86634 c -0.0205,-0.59262 5.26256,-8.03572 9.30532,-13.10982 14.52862,-18.23504 31.38831,-31.88505 45.76303,-37.05084 2.69029,-0.9668 6.85762,-2.01643 14.32524,-3.60812 2.42379,-0.51662 12.23085,0.13327 17.12743,1.13499 5.65211,1.15628 13.36684,4.26542 16.58657,6.6846 1.26273,0.94877 1.3732,1.19923 1.17634,2.66698 -0.1195,0.89092 -0.92125,3.05628 -1.78166,4.81189 l -1.56439,3.19203 -0.23758,-2.07182 c -0.39781,-3.46918 -1.83242,-4.86223 -7.26111,-7.05078 -1.95633,-0.78869 -4.10425,-1.71699 -4.77316,-2.06289 -1.70433,-0.88134 -7.73462,-2.27496 -9.85897,-2.27844 -2.08468,-0.003 -4.13195,0.77871 -5.21174,1.99104 -0.85971,0.96524 -0.81613,2.02669 0.28391,6.91488 1.03693,4.6078 1.64802,14.97233 1.41696,24.03311 -0.36686,14.38667 -1.52697,11.9248 -1.56209,-3.31491 -0.0249,-10.80343 -0.83075,-14.95124 -3.61695,-18.61674 -2.09267,-2.75311 -6.71579,-6.20345 -9.47478,-7.07126 -2.59348,-0.81575 -7.3158,-0.90533 -10.32265,-0.19582 -2.91486,0.68781 -9.89541,4.16417 -12.83215,6.39052 -6.4936,4.92278 -12.70499,12.23331 -17.21931,20.26636 -4.21269,7.49629 -5.94916,10.18655 -6.25533,9.69116 -0.18496,-0.29926 -1.42092,0.28416 -3.52928,1.66595 -1.78456,1.16956 -4.17697,2.52442 -5.31647,3.01079 -1.15139,0.49144 -2.75665,1.65062 -3.61332,2.60922 -0.84782,0.94871 -1.54706,1.56427 -1.55386,1.36792 z"
       id="path8843"
       transform="matrix(7.5,0,0,-7.5,0,3160)" />
    <path
       style="fill:#ff6600;stroke-width:0.414364"
       d="m 292.95529,276.54219 c -5.17774,-0.54736 -10.797,-2.3389 -16.89402,-5.38619 -3.71936,-1.85893 -4.44813,-2.49166 -4.43662,-3.8519 0.0119,-1.40421 1.30231,-4.18657 2.39038,-5.15405 0.84744,-0.75352 0.87044,-0.74159 1.69781,0.88019 1.62137,3.17815 3.82579,4.50019 12.29329,7.37259 6.97754,2.36696 10.42753,2.76574 12.51975,1.44714 2.3632,-1.48938 2.40177,-1.99169 0.76855,-10.00813 -2.06993,-10.15994 -2.19473,-12.30893 -1.09281,-18.8174 0.5016,-2.9627 1.05745,-5.64802 1.23521,-5.96738 0.17777,-0.31935 0.41584,2.85053 0.52905,7.04419 0.23365,8.65493 1.05597,12.42016 3.6583,16.75062 2.68373,4.4659 6.24098,6.83054 11.97487,7.96018 3.04346,0.5996 3.6139,0.59846 6.71925,-0.0133 6.73052,-1.32598 14.50447,-6.08792 21.4478,-13.13785 4.61028,-4.68107 8.09766,-9.62985 12.25337,-17.3882 1.82818,-3.41305 3.52008,-6.40166 3.75979,-6.64137 0.30486,-0.30486 0.66386,-0.18385 1.19467,0.4027 1.64403,1.81663 4.03077,0.74649 9.58481,-4.29755 1.22838,-1.11558 2.23281,-1.86144 2.23207,-1.65745 -0.002,0.62526 -5.8317,7.94143 -10.98998,13.7929 -7.09003,8.04283 -14.74347,15.83596 -19.25723,19.60871 -6.93254,5.79445 -19.01481,13.48049 -20.37219,12.95961 -0.32501,-0.12471 -1.85433,0.4437 -3.39849,1.26314 -4.12856,2.19093 -7.0301,2.671 -17.25135,2.8543 -4.89985,0.0879 -9.65468,0.0809 -10.56628,-0.0155 z"
       id="path8882"
       transform="matrix(7.5,0,0,-7.5,0,3160)" />
    <path
       style="fill:#ff6600;stroke-width:0.103591"
       d="m 282.81249,245.93973 c -0.21124,-0.34178 0.89275,-2.25547 2.02263,-3.50612 0.47505,-0.52582 1.21349,-1.11904 1.29345,-1.03908 0.0974,0.0974 -0.15216,0.77745 -0.61593,1.67822 -0.50929,0.98919 -1.46303,2.21814 -2.05319,2.64565 -0.45332,0.32839 -0.55855,0.36439 -0.64696,0.22133 z"
       id="path8921"
       transform="matrix(7.5,0,0,-7.5,0,3160)" />
    <path
       style="fill:#ff6600;stroke-width:0.103591"
       d="m 376.71612,222.34407 c -0.25542,-0.32472 -0.25786,-0.35556 -0.0646,-0.81805 0.21716,-0.51973 0.64713,-1.04804 1.06129,-1.304 l 0.3605,-0.22281 0.21717,0.21717 c 0.15757,0.15757 0.22775,0.38176 0.25569,0.81685 0.0464,0.72193 -0.17322,1.14783 -0.72738,1.41079 -0.52469,0.24899 -0.85148,0.21937 -1.10265,-0.1 z"
       id="path8960"
       transform="matrix(7.5,0,0,-7.5,0,3160)" />
    <path
       style="fill:#ff6600;stroke-width:0.103591"
       d="m 382.82047,214.04107 c 0,-0.55706 0.56582,-2.42442 0.95782,-3.16106 0.39055,-0.7339 0.86203,-1.17081 1.07379,-0.99507 0.4581,0.38019 -0.13291,2.12888 -1.27232,3.76456 -0.60781,0.87255 -0.75929,0.95067 -0.75929,0.39157 z"
       id="path8999"
       transform="matrix(7.5,0,0,-7.5,0,3160)" />
    <path
       style="fill:#ff6600;stroke-width:0.103591"
       d="m 389.71221,202.52513 c -0.0925,-0.14958 0.0481,-0.61429 0.37737,-1.24786 0.16287,-0.31336 0.3336,-0.77952 0.37939,-1.03591 0.0824,-0.46111 0.0841,-0.45718 0.16031,0.36257 0.0424,0.4558 0.0979,0.902 0.12349,0.99156 0.0262,0.0918 -0.12777,0.35155 -0.35313,0.59565 -0.40075,0.43409 -0.57365,0.5181 -0.68743,0.33399 z"
       id="path9038"
       transform="matrix(7.5,0,0,-7.5,0,3160)" />
    <path
       style="fill:#ff6600;stroke-width:0.103591"
       d="m 290.00295,236.61715 c 0,-0.13233 1.8731,-2.95068 3.21161,-4.83233 13.0726,-18.37721 28.62001,-33.15125 43.38443,-41.22637 3.29029,-1.79957 7.41879,-3.57327 10.34617,-4.44498 3.36495,-1.00201 11.5315,-2.88949 13.33223,-3.0814 2.49284,-0.26566 10.33924,0.27342 14.71195,1.01077 4.54559,0.76651 10.3064,2.72753 14.78764,5.0338 1.68442,0.86689 3.62768,2.15674 4.05743,2.69314 0.27925,0.34855 0.30755,0.45316 0.29574,1.09304 -0.024,1.29849 -0.6908,3.16509 -2.37535,6.64919 l -0.92454,1.91221 -0.12603,-1.13528 c -0.27388,-2.46719 -0.70872,-3.63101 -1.75689,-4.70221 -1.08887,-1.11279 -2.35477,-1.80985 -6.18739,-3.40704 -1.36261,-0.56784 -3.04276,-1.29185 -3.73368,-1.60891 -1.80081,-0.82638 -3.9837,-1.45501 -7.49722,-2.15905 -0.96584,-0.19354 -1.51478,-0.23774 -2.90055,-0.23355 -1.56722,0.005 -1.77811,0.0281 -2.53798,0.2812 -1.59668,0.53184 -2.91829,1.56968 -3.16923,2.48877 -0.17518,0.64158 -0.0443,2.26166 0.32399,4.01007 0.99302,4.71451 1.25414,6.72496 1.66165,12.79349 0.29074,4.32956 0.22475,15.97905 -0.11354,20.04485 -0.17067,2.0512 -0.39401,3.06501 -0.55374,2.51359 -0.3137,-1.08297 -0.47324,-4.27183 -0.58183,-11.62959 -0.11671,-7.90777 -0.26802,-10.26867 -0.84315,-13.15606 -0.47107,-2.36498 -1.4452,-4.63011 -2.71753,-6.31905 -2.11888,-2.81266 -6.77249,-6.29843 -9.60666,-7.19583 -2.41656,-0.76516 -7.09196,-0.88023 -10.03873,-0.24706 -3.05597,0.65663 -10.00945,4.09187 -13.25964,6.55068 -4.93605,3.73419 -10.12792,9.36734 -14.07292,15.26905 -1.41155,2.11168 -1.87669,2.88065 -4.20344,6.94921 -2.30481,4.0302 -3.62646,6.18929 -4.30647,7.03521 -0.4359,0.54224 -0.49642,0.58071 -0.93232,0.59253 -0.58171,0.0158 -1.4033,0.42655 -3.47899,1.73942 -1.92389,1.21686 -3.74834,2.2559 -4.96368,2.82685 -1.45598,0.68402 -2.47666,1.41527 -3.83671,2.74877 -1.206,1.18245 -1.39463,1.33703 -1.39463,1.14287 z"
       id="path9116"
       transform="matrix(7.5,0,0,-7.5,0,3160)" />
    <path
       style="fill:#ff6600;stroke-width:0.103591"
       d="m 391.21133,200.92956 c 0,-0.0203 0.39466,-0.85072 0.87702,-1.84534 1.49364,-3.07986 2.12993,-4.94097 2.14005,-6.25954 0.004,-0.55308 -0.0398,-0.75246 -0.22011,-0.99635 -0.12399,-0.16769 -0.20145,-0.32887 -0.17214,-0.35818 0.0955,-0.0955 0.68363,0.81031 0.74765,1.15152 0.17567,0.93641 -1.17748,4.5978 -2.70515,7.31966 -0.49991,0.89069 -0.66732,1.1386 -0.66732,0.98823 z"
       id="path9155"
       transform="matrix(7.5,0,0,-7.5,0,3160)" />
    <path
       style="fill:#ff6600;stroke-width:0.103591"
       d="m 393.44277,191.23362 c -0.26548,-0.29336 -1.76378,-1.27245 -2.82146,-1.84374 -4.7682,-2.57547 -11.26034,-4.79108 -16.2953,-5.56119 -3.70307,-0.5664 -8.2235,-0.91808 -11.86117,-0.92278 -2.44127,-0.003 -2.66403,0.0128 -3.88466,0.27919 -1.9422,0.42379 -2.01125,0.42753 -1.292,0.07 0.7965,-0.39591 1.86979,-0.51641 4.62131,-0.51884 4.58279,-0.004 10.67313,0.5429 14.43654,1.29647 1.84159,0.36875 4.93065,1.21699 6.78521,1.86318 4.3946,1.53122 8.6378,3.64537 10.25551,5.10973 0.25638,0.23209 0.41511,0.42389 0.35272,0.42622 -0.0624,0.002 -0.1959,-0.0869 -0.2967,-0.19826 z"
       id="path9194"
       transform="matrix(7.5,0,0,-7.5,0,3160)" />
    <path
       style="fill:#ff6600;stroke-width:0.103591"
       d="m 290.00295,236.61715 c 0,-0.13143 1.86706,-2.94191 3.21022,-4.83233 14.016,-19.72668 30.98947,-35.35106 46.51877,-42.82137 2.23712,-1.07615 5.24868,-2.26488 7.24605,-2.86018 3.39044,-1.01048 11.47461,-2.87678 13.30534,-3.07165 2.39207,-0.25462 10.08339,0.25404 14.35345,0.94925 6.17941,1.00607 14.46256,4.17383 18.29592,6.99698 1.04039,0.76622 1.21324,1.0399 1.19649,1.89437 -0.0252,1.28629 -0.55382,2.79688 -2.17822,6.22479 l -1.1022,2.32594 -0.12692,-1.03106 c -0.56436,-4.5849 -1.5103,-5.54299 -8.21291,-8.31839 -1.22538,-0.5074 -2.7404,-1.15581 -3.36671,-1.4409 -1.54643,-0.70392 -2.30454,-0.96404 -4.24647,-1.45701 -3.25014,-0.82508 -4.26339,-0.9871 -6.21546,-0.99386 -1.6729,-0.006 -1.80253,0.008 -2.58978,0.28509 -1.10594,0.38859 -1.85866,0.83035 -2.49192,1.46246 -0.98436,0.98257 -0.99849,1.76345 -0.11169,6.17229 0.76042,3.78051 1.06163,6.24532 1.41736,11.59834 0.17773,2.67436 0.24623,12.8844 0.10809,16.1084 -0.17398,4.06023 -0.40473,6.48992 -0.62953,6.62886 -0.12085,0.0747 -0.18363,-0.14311 -0.30382,-1.05401 -0.22309,-1.69093 -0.32828,-4.33078 -0.42232,-10.59901 -0.0534,-3.56094 -0.1467,-7.19698 -0.20729,-8.0801 -0.46384,-6.76036 -1.62211,-9.89246 -4.86922,-13.16698 -2.10456,-2.12231 -4.28217,-3.73395 -6.57803,-4.86837 -2.03178,-1.00393 -3.57824,-1.2828 -7.09598,-1.27962 -2.69739,0.002 -3.94968,0.16355 -5.73154,0.73736 -2.82628,0.91015 -7.95754,3.45319 -10.78096,5.34301 -4.24035,2.83822 -9.64487,8.30291 -13.65236,13.80435 -2.02748,2.7833 -2.85514,4.09759 -5.7081,9.06421 -2.46533,4.2918 -3.74844,6.3884 -4.42393,7.2287 -0.43595,0.5423 -0.49638,0.5807 -0.93232,0.59243 -0.58783,0.0158 -1.25372,0.35359 -3.67748,1.86547 -2.0978,1.30854 -3.19645,1.9317 -4.99603,2.83381 -1.48792,0.74587 -2.54298,1.52653 -3.85896,2.85533 -0.93143,0.94051 -1.14154,1.10679 -1.14154,0.9034 z"
       id="path9233"
       transform="matrix(7.5,0,0,-7.5,0,3160)" />
    <path
       style="fill:#ff6600;stroke-width:0.103591"
       d="m 288.13831,239.29973 c 0,-0.51471 2.40742,-4.3322 5.16376,-8.18825 17.30732,-24.2126 39.09878,-42.02129 56.35243,-46.05304 2.27288,-0.53111 2.31959,-0.41403 0.0686,0.17205 -2.6621,0.69312 -4.33881,1.2276 -6.36231,2.02806 -8.23492,3.25759 -16.82289,8.89663 -26.16526,17.18064 -2.34419,2.07862 -8.57541,8.27753 -10.87377,10.81738 -3.57117,3.94639 -7.03841,8.14898 -10.21778,12.38482 -3.33108,4.43796 -6.30826,8.78709 -6.30826,9.21526 0,0.0308 0.0737,0.0559 0.16382,0.0559 0.0901,0 0.53295,-0.3797 0.98411,-0.84377 0.45116,-0.46408 0.82029,-0.80918 0.82029,-0.7669 0,0.0916 -1.55476,1.99229 -2.43372,2.97515 -0.6826,0.76331 -1.19196,1.20033 -1.19196,1.02268 z"
       id="path9272"
       transform="matrix(7.5,0,0,-7.5,0,3160)" />
    <path
       style="fill:#ff6600;stroke-width:0.103591"
       d="m 358.78736,236.53287 c 0,-0.14317 1.8024,-3.53288 2.24845,-4.22858 0.50005,-0.77993 1.03935,-1.4004 1.21627,-1.39934 0.13046,7.8e-4 0.50283,0.62432 0.42145,0.70571 -0.0312,0.0312 -0.11192,0.002 -0.17934,-0.0658 -0.19348,-0.19347 -0.54382,-0.14357 -0.77578,0.1105 -0.22164,0.24277 -1.36351,2.19609 -2.30117,3.93646 -0.50249,0.93264 -0.62988,1.12298 -0.62988,0.94108 z"
       id="path9350"
       transform="matrix(7.5,0,0,-7.5,0,3160)" />
    <path
       style="fill:#ff6600;stroke-width:0.103591"
       d="m 373.55868,226.49439 c 1.27619,-1.4057 2.32119,-2.30893 2.32119,-2.0063 0,0.16988 -0.79369,1.65685 -1.04713,1.96179 -0.21381,0.25725 -0.21775,0.19989 -0.0195,-0.28487 0.10697,-0.26166 -0.27536,-0.11755 -0.86592,0.32638 -0.33355,0.25073 -0.69501,0.55374 -0.80325,0.67334 -0.10825,0.11961 -0.24058,0.21747 -0.29408,0.21747 -0.0535,0 0.26543,-0.39951 0.70874,-0.88781 z"
       id="path9389"
       transform="matrix(7.5,0,0,-7.5,0,3160)" />
    <path
       style="fill:#ff6600;stroke-width:0.103591"
       d="m 303.18516,229.29884 c 0.37742,-0.75506 0.58764,-1.07102 0.68768,-1.03356 0.0792,0.0297 0.24722,-0.0136 0.37327,-0.0962 0.41638,-0.27282 2.29579,-3.20851 4.13725,-6.4625 0.33175,-0.58622 0.6254,-1.04363 0.65257,-1.01646 0.10564,0.10564 -2.82654,5.18564 -4.03669,6.99358 -1.08822,1.62578 -2.0044,2.70267 -2.29933,2.70267 -0.0321,0 0.18627,-0.48938 0.48525,-1.0875 z"
       id="path9428"
       transform="matrix(7.5,0,0,-7.5,0,3160)" />
    <path
       style="fill:#ff6600;stroke-width:0.103591"
       d="m 301.47389,263.68583 c -0.093,-0.45304 -0.38361,-1.84927 -0.64579,-3.10272 -0.63181,-3.02067 -1.14387,-6.06017 -1.3528,-8.02994 -0.24053,-2.26782 -0.15885,-5.37422 0.19881,-7.5605 0.83461,-5.10184 1.84585,-9.76041 2.04244,-9.40913 0.0451,0.0805 0.10511,1.1933 0.13346,2.47286 0.0348,1.56923 0.0247,1.98929 -0.031,1.29056 -0.14285,-1.79385 -0.22724,-2.34362 -0.35329,-2.30161 -0.15516,0.0517 -0.49172,1.47997 -0.99394,4.21804 -1.43742,7.8366 -1.3822,9.7218 0.57451,19.61458 0.37015,1.87142 0.65582,3.45411 0.63483,3.51708 -0.021,0.063 -0.11426,-0.25617 -0.20728,-0.70922 z"
       id="path9467"
       transform="matrix(7.5,0,0,-7.5,0,3160)" />
  </g>
</svg>
