<?xml version="1.0" encoding="UTF-8" standalone="no"?>
<!-- Created with Inkscape (http://www.inkscape.org/) -->

<svg
   width="108.37033mm"
   height="83.667625mm"
   viewBox="0 0 108.37033 83.667625"
   version="1.1"
   id="svg1204"
   xmlns="http://www.w3.org/2000/svg"
   xmlns:svg="http://www.w3.org/2000/svg">
  <defs
     id="defs1201" />
  <g
     id="layer4"
     transform="translate(-51.053273,-106.53675)">
    <path
       style="fill:#290c6a;fill-opacity:1;stroke:#4d18b9;stroke-width:0.264583px;stroke-linecap:butt;stroke-linejoin:miter;stroke-opacity:1"
       d="m 128.12218,119.30565 v 55.61266 l 31.16861,-8.89411 -0.071,-13.64167 -18.93346,5.31291 -0.10696,-41.9034 z"
       id="path1355" />
  </g>
  <g
     id="layer5"
     transform="translate(-51.053273,-106.53675)">
    <path
       style="fill:#ffba24;fill-opacity:1;stroke:#ffcd57;stroke-width:0.264583px;stroke-linecap:butt;stroke-linejoin:miter;stroke-opacity:1"
       d="m 96.24388,106.73478 v 55.75585 l 6.97815,2.69582 v -41.60104 l 5.05219,43.62026 6.44646,2.78881 5.39249,-39.92239 v 42.00579 l 6.50122,2.85926 -0.10269,-55.62664 -10.71794,-4.60437 -4.053,31.80242 -4.51936,-35.22446 z"
       id="path1562" />
  </g>
  <g
     id="layer6"
     style="display:inline"
     transform="translate(-51.053273,-106.53675)">
    <path
       style="fill:#990f38;fill-opacity:1;stroke:#b91244;stroke-width:0.264583px;stroke-linecap:butt;stroke-linejoin:miter;stroke-opacity:1"
       d="m 65.805581,134.59331 c -0.460868,-5.4917 -0.841039,-13.41896 -4.487516,-13.42304 -5.350735,0 -9.465821,9.85937 -9.465821,22.72278 0,10.75319 2.851022,13.57237 5.771057,13.57237 4.15213,0 3.495636,4.42674 3.495636,6.14154 0,3.37105 -1.743081,6.56608 -2.849338,6.56608 -1.902452,0 -2.123246,-4.99695 -2.123246,-7.95681 l -4.960789,4.20057 c 0,11.44224 2.131096,16.11647 4.61514,16.11647 7.458947,0 10.46953,-14.05916 10.46953,-25.562 0,-11.46452 -2.480403,-14.92661 -6.817675,-14.92661 -2.640226,0 -2.773661,-1.13351 -2.773661,-3.39137 0,-3.26773 0.77273,-5.6803 2.300756,-5.6803 1.312102,0 1.638052,2.2523 1.832107,6.00605 z"
       id="path1731" />
    <path
       style="fill:#990f38;fill-opacity:1;stroke:#b91244;stroke-width:0.264583px;stroke-linecap:butt;stroke-linejoin:miter;stroke-opacity:1"
       d="m 66.868325,133.10816 4.991373,37.82328 c 0.362045,2.73605 -0.382725,7.88066 -4.017384,8.1707 l 0.0482,10.84742 c 1.554272,-1.09944 6.804423,-0.43471 7.897817,-12.9275 l 5.306423,-53.53319 -4.531506,3.05287 -2.20091,28.0511 -2.343102,-24.91674 z"
       id="path5891" />
    <path
       style="fill:#990f38;fill-opacity:1;stroke:#b91244;stroke-width:0.264583px;stroke-linecap:butt;stroke-linejoin:miter;stroke-opacity:1"
       d="m 93.904885,124.75896 c 0,-2.18107 -0.52015,-8.13099 -3.562762,-8.13099 -3.81336,0 -8.326015,7.59483 -8.326015,17.94996 0,1.42273 -0.05869,10.00876 3.52222,10.00876 3.620105,0 4.525658,-1.27081 4.525658,2.68276 0,1.78373 -1.060017,5.15334 -2.511522,5.15334 -1.134565,-0.84782 -1.099457,-2.51624 -1.287829,-4.02787 l -4.904846,4.55066 c 0.34291,4.40494 1.231439,9.38371 3.89818,9.38371 4.146622,0 9.257854,-6.81745 9.257854,-19.95985 0,-5.21856 -0.660745,-10.16468 -4.337475,-10.16468 -1.255421,0 -1.525837,0.73156 -2.736613,0.73156 -1.100686,0 -0.964512,-1.24686 -0.964512,-2.63879 0,-2.38221 0.624931,-4.09968 1.704535,-4.09968 1.221028,0 1.403401,3.08736 1.403401,3.08736 z"
       id="path7278" />
  </g>
</svg>
