<?xml version="1.0" encoding="UTF-8" standalone="no"?>
<!-- Created with Inkscape (http://www.inkscape.org/) -->

<svg
   width="111.21005mm"
   height="111.21005mm"
   viewBox="0 0 111.21005 111.21005"
   version="1.1"
   id="svg589"
   inkscape:version="1.1.1 (3bf5ae0d25, 2021-09-20)"
   sodipodi:docname="SysML.svg"
   xmlns:inkscape="http://www.inkscape.org/namespaces/inkscape"
   xmlns:sodipodi="http://sodipodi.sourceforge.net/DTD/sodipodi-0.dtd"
   xmlns="http://www.w3.org/2000/svg"
   xmlns:svg="http://www.w3.org/2000/svg">
  <sodipodi:namedview
     id="namedview591"
     pagecolor="#ffffff"
     bordercolor="#666666"
     borderopacity="1.0"
     inkscape:pageshadow="2"
     inkscape:pageopacity="0.0"
     inkscape:pagecheckerboard="0"
     inkscape:document-units="mm"
     showgrid="false"
     inkscape:zoom="1.8116734"
     inkscape:cx="196.22742"
     inkscape:cy="203.6791"
     inkscape:window-width="1920"
     inkscape:window-height="1131"
     inkscape:window-x="0"
     inkscape:window-y="0"
     inkscape:window-maximized="1"
     inkscape:current-layer="layer1" />
  <defs
     id="defs586" />
  <g
     inkscape:label="Layer 1"
     inkscape:groupmode="layer"
     id="layer1"
     transform="translate(-53.265947,-10.307659)">
    <path
       d="m 120.32269,53.92584 c 1.98191,-1.004358 3.13514,-2.148417 3.4604,-3.431822 0.32385,-1.283406 -0.11642,-2.446514 -1.32151,-3.48862 -1.20579,-1.042105 -3.62973,-2.384425 -7.27392,-4.0259 -5.01192,-2.258484 -9.11366,-3.6576 -12.30456,-4.198056 -3.191596,-0.540103 -8.350266,-0.694619 -15.476026,-0.464608 -2.48073,0.0829 -4.29119,7.05e-4 -5.43101,-0.245181 -1.15323,-0.239183 -2.58022,-0.741892 -4.28167,-1.508125 -1.3215,-0.595842 -2.18475,-1.103136 -2.58727,-1.522236 -0.40287,-0.418747 -0.3623,-0.751064 0.12136,-0.996245 0.4445,-0.225072 1.004,-0.277636 1.67781,-0.156633 0.6731,0.121003 1.89195,0.578203 3.65442,1.372306 l 3.7779,1.702505 7.55791,-3.830108 -2.02071,-0.91052 c -4.06118,-1.829858 -7.18114,-3.004608 -9.35849,-3.523192 -2.17664,-0.519289 -4.566,-0.653344 -7.16774,-0.402519 -2.60244,0.250825 -4.95899,0.910872 -7.06931,1.980494 -1.93075,0.978606 -3.0674,2.043642 -3.40995,3.195109 -0.34325,1.151467 0.0861,2.290233 1.28587,3.4163 1.19874,1.126067 3.75779,2.571398 7.67398,4.335992 2.7178,1.224492 5.16502,2.121253 7.34377,2.690284 2.17876,0.569383 4.09117,0.911225 5.73617,1.024819 1.64536,0.113947 4.57271,0.154517 8.78135,0.121356 4.18853,-0.04163 7.003346,0.01482 8.447276,0.169686 1.43052,0.161219 3.65056,0.919692 6.6587,2.275417 1.36772,0.61595 2.26766,1.147586 2.69981,1.592791 0.4318,0.445912 0.37959,0.804687 -0.15769,1.076678 -0.53693,0.272345 -1.18392,0.33902 -1.94098,0.199673 -0.75742,-0.139348 -2.09127,-0.639587 -4.00263,-1.50107 l -6.207506,-2.796822 -7.55721,3.830108 3.34681,1.508125 c 3.83011,1.725789 7.025216,2.937581 9.585706,3.635375 2.55941,0.697442 5.28179,0.960262 8.16752,0.787401 2.88572,-0.172509 5.41549,-0.810331 7.59142,-1.912762"
       style="fill:#a01444;fill-opacity:1;fill-rule:nonzero;stroke:none;stroke-width:0.0352778"
       id="path361" />
    <path
       d="m 132.73483,46.624045 7.55791,-3.830461 -18.53071,-8.349545 -26.710966,-17.735202 -7.48136,3.790954 c 6.95431,4.131381 12.916956,7.549092 17.889036,10.253134 -3.61528,-1.476375 -11.008456,-4.169834 -22.178456,-8.079317 l -7.47995,3.79095 38.404136,11.80959 18.53036,8.349897"
       style="fill:#a01444;fill-opacity:1;fill-rule:nonzero;stroke:none;stroke-width:0.0352778"
       id="path363" />
    <path
       d="m 107.08612,23.358349 c 2.71674,1.224139 5.16431,2.120901 7.34271,2.690284 2.17876,0.569031 4.09082,0.910872 5.73617,1.024467 1.64606,0.113594 4.57235,0.154516 8.7824,0.121708 4.18712,-0.04198 7.00229,0.01446 8.44656,0.168981 1.43052,0.161219 3.65055,0.920397 6.65868,2.275769 1.36772,0.616303 2.26695,1.147234 2.69946,1.592792 0.43215,0.445911 0.37994,0.804686 -0.15769,1.076678 -0.53658,0.271992 -1.18357,0.339019 -1.94099,0.199319 -0.75706,-0.138994 -2.09126,-0.639233 -4.00261,-1.500716 l -6.20713,-2.796823 -7.55791,3.830109 3.34645,1.508125 c 3.83117,1.725789 7.02592,2.937933 9.58568,3.635375 2.56046,0.697795 5.28285,0.959908 8.16822,0.7874 2.88572,-0.172861 5.41584,-0.809978 7.59177,-1.912761 1.98156,-1.004359 3.13514,-2.148417 3.4604,-3.431823 0.32385,-1.283052 -0.11677,-2.446161 -1.32186,-3.488619 -1.20579,-1.042459 -3.63043,-2.384073 -7.27392,-4.025901 -5.01192,-2.258483 -9.11366,-3.657953 -12.30454,-4.198055 -3.19123,-0.540103 -8.35025,-0.694973 -15.47601,-0.464609 -2.48038,0.0829 -4.29048,7.06e-4 -5.43136,-0.24518 -1.15359,-0.239184 -2.58057,-0.741892 -4.28096,-1.508122 -1.32151,-0.59585 -2.18476,-1.10314 -2.58728,-1.52224 -0.40322,-0.41875 -0.3623,-0.75106 0.12065,-0.99624 0.44521,-0.22508 1.00436,-0.27764 1.67852,-0.15664 0.6731,0.12101 1.89124,0.57821 3.65372,1.37266 l 3.7786,1.70215 7.55792,-3.8301 -2.02107,-0.91052 c -4.06153,-1.83022 -7.1815,-3.00426 -9.35814,-3.52355 -2.17663,-0.51894 -4.566,-0.65264 -7.16773,-0.40217 -2.60174,0.25083 -4.95902,0.91088 -7.06935,1.9805 -1.930756,0.97825 -3.067756,2.04364 -3.410656,3.19511 -0.34255,1.15146 0.0861,2.29023 1.28552,3.4163 1.199446,1.126065 3.758506,2.571042 7.675776,4.336342"
       style="fill:#a01444;fill-opacity:1;fill-rule:nonzero;stroke:none;stroke-width:0.0352778"
       id="path365" />
    <path
       d="m 84.292044,80.928159 -6.1281,-34.317519 -19.07716,-9.16552 v 59.68256 l 12.57617,6.34118 V 67.500024 l 6.87353,38.846866 11.19117,5.59499 7.19313,-32.292541 v 35.329991 l 12.629836,6.23466 V 61.584646 l -19.183736,-9.112603 -6.07484,28.456116"
       style="fill:#fab90a;fill-opacity:1;fill-rule:nonzero;stroke:none;stroke-width:0.0352778"
       id="path367" />
    <path
       d="m 159.05523,80.006703 -27.70964,14.387619 v -43.26989 l -20.03637,10.444692 0.0536,59.948586 47.79928,-25.205264 -0.10689,-16.305743"
       style="fill:#3d247c;fill-opacity:1;fill-rule:nonzero;stroke:none;stroke-width:0.0352778"
       id="path369" />
    <text
       style="font-variant:normal;font-weight:normal;font-size:7.65393px;font-family:sans-serif;-inkscape-font-specification:sans-serif;writing-mode:lr-tb;fill:#231f20;fill-opacity:1;fill-rule:nonzero;stroke:none;stroke-width:0.159459"
       id="text379"
       x="138.66797"
       y="85.377327"
       transform="scale(1.0896445,0.9177305)"><tspan
         x="138.66797"
         y="85.377327"
         id="tspan377"
         style="stroke-width:0.159459">®</tspan></text>
  </g>
</svg>
