<?xml version="1.0" encoding="UTF-8" standalone="no"?>
<!-- Created with Inkscape (http://www.inkscape.org/) -->

<svg
   width="83.588577mm"
   height="83.588577mm"
   viewBox="0 0 83.588577 83.588577"
   version="1.1"
   id="svg788"
   inkscape:version="1.1.1 (3bf5ae0d25, 2021-09-20)"
   sodipodi:docname="UML.svg"
   xmlns:inkscape="http://www.inkscape.org/namespaces/inkscape"
   xmlns:sodipodi="http://sodipodi.sourceforge.net/DTD/sodipodi-0.dtd"
   xmlns="http://www.w3.org/2000/svg"
   xmlns:svg="http://www.w3.org/2000/svg">
  <sodipodi:namedview
     id="namedview790"
     pagecolor="#ffffff"
     bordercolor="#666666"
     borderopacity="1.0"
     inkscape:pageshadow="2"
     inkscape:pageopacity="0.0"
     inkscape:pagecheckerboard="0"
     inkscape:document-units="mm"
     showgrid="false"
     inkscape:zoom="2.5620932"
     inkscape:cx="120.79967"
     inkscape:cy="165.87999"
     inkscape:window-width="1920"
     inkscape:window-height="1131"
     inkscape:window-x="0"
     inkscape:window-y="0"
     inkscape:window-maximized="1"
     inkscape:current-layer="layer1" />
  <defs
     id="defs785" />
  <g
     inkscape:label="Layer 1"
     inkscape:groupmode="layer"
     id="layer1"
     transform="translate(-73.276856,-9.1993361)">
    <path
       d="M 89.800261,80.504513 V 56.02565 l 4.69336,26.43745 7.640469,3.807954 4.9114,-21.976963 V 88.33865 l 8.62226,4.242563 V 52.000455 l -13.09727,-6.201834 -4.146919,19.365702 -4.18429,-23.35456 -13.02491,-6.237817 V 76.1893 l 8.5859,4.315213"
       style="fill:#fab628;fill-opacity:1;fill-rule:nonzero;stroke:none;stroke-width:0.0352778"
       id="path57" />
    <path
       d="m 116.8686,51.989519 13.68002,-7.10812 V 74.32882 l 18.91841,-9.79096 0.0727,11.096661 -32.63442,17.153398 -0.0367,-40.7984"
       style="fill:#3f2b8d;fill-opacity:1;fill-rule:nonzero;stroke:none;stroke-width:0.0352778"
       id="path59" />
    <path
       d="m 111.35292,9.1993361 -9.67356,8.5530969 c 0,0 18.87365,9.70139 21.16671,10.847918 2.29305,1.146528 5.55625,3.351389 2.02847,6.614583 -3.52778,3.263195 -7.40833,2.822223 -10.05417,1.499306 C 112.17454,35.391323 92.595321,25.513545 92.595321,25.513545 l -9.96597,8.466667 c 0,0 19.226399,9.789584 22.401419,11.465279 3.17502,1.675694 14.99308,5.820833 26.19377,-2.910417 11.2007,-8.731251 9.6132,-11.906251 9.6132,-12.523612 0,-0.617361 -0.26459,-3.880556 -2.20487,-5.909028 -1.94027,-2.028473 -7.58472,-4.938889 -9.96597,-6.173612 C 126.28565,16.6941 111.35292,9.1993361 111.35292,9.1993361"
       style="fill:#8f2044;fill-opacity:1;fill-rule:nonzero;stroke:none;stroke-width:0.0352778"
       id="path61" />
    <path
       d="m 146.21548,61.259108 h 0.23601 c 0.27517,0 0.49812,-0.09165 0.49812,-0.314607 0,-0.196532 -0.14428,-0.327836 -0.45896,-0.327836 -0.13088,0 -0.22225,0.01348 -0.27517,0.02646 z m -0.0131,1.21846 h -0.49812 v -2.149052 c 0.1972,-0.03916 0.47201,-0.06534 0.82585,-0.06534 0.40605,0 0.58984,0.06534 0.74683,0.156951 0.11783,0.09179 0.20955,0.262255 0.20955,0.472123 0,0.235655 -0.18345,0.419064 -0.44521,0.497734 v 0.02607 c 0.20955,0.07909 0.32773,0.23562 0.393,0.524193 0.0656,0.327836 0.10477,0.458611 0.15734,0.537316 h -0.53728 c -0.0656,-0.0787 -0.10478,-0.275061 -0.1704,-0.523805 -0.0395,-0.236044 -0.17074,-0.341207 -0.44591,-0.341207 h -0.23565 z m -1.32362,-1.126702 c 0,0.956345 0.70802,1.716617 1.67745,1.716617 0.94368,0 1.6383,-0.760272 1.6383,-1.70367 0,-0.956628 -0.69462,-1.729987 -1.65135,-1.729987 -0.95638,0 -1.6644,0.773359 -1.6644,1.71704 z m 3.86574,0 c 0,1.218459 -0.95639,2.175228 -2.20134,2.175228 -1.23155,0 -2.21438,-0.956769 -2.21438,-2.175228 0,-1.192424 0.98283,-2.149193 2.21438,-2.149193 1.24495,0 2.20134,0.956769 2.20134,2.149193"
       style="fill:#3f2b8d;fill-opacity:1;fill-rule:nonzero;stroke:none;stroke-width:0.0352778"
       id="path109" />
  </g>
</svg>
